ISO-10303-21;
HEADER;
FILE_DESCRIPTION(('Open CASCADE Model'),'2;1');
FILE_NAME('Open CASCADE Shape Model','2026-08-07T02:34:20',('Author'),(
    'Open CASCADE'),'Open CASCADE STEP processor 7.7','Open CASCADE 7.7'
  ,'Unknown');
FILE_SCHEMA(('AUTOMOTIVE_DESIGN { 1 0 10303 214 1 1 1 1 }'));
ENDSEC;
DATA;
#1 = APPLICATION_PROTOCOL_DEFINITION('international standard',
  'automotive_design',2000,#2);
#2 = APPLICATION_CONTEXT(
  'core data for automotive mechanical design processes');
#3 = SHAPE_DEFINITION_REPRESENTATION(#4,#10);
#4 = PRODUCT_DEFINITION_SHAPE('','',#5);
#5 = PRODUCT_DEFINITION('design','',#6,#9);
#6 = PRODUCT_DEFINITION_FORMATION('','',#7);
#7 = PRODUCT('Open CASCADE STEP translator 7.7 3',
  'Open CASCADE STEP translator 7.7 3','',(#8));
#8 = PRODUCT_CONTEXT('',#2,'mechanical');
#9 = PRODUCT_DEFINITION_CONTEXT('part definition',#2,'design');
#10 = ADVANCED_BREP_SHAPE_REPRESENTATION('',(#11,#15),#197);
#11 = AXIS2_PLACEMENT_3D('',#12,#13,#14);
#12 = CARTESIAN_POINT('',(0.,0.,0.));
#13 = DIRECTION('',(0.,0.,1.));
#14 = DIRECTION('',(1.,0.,-0.));
#15 = MANIFOLD_SOLID_BREP('',#16);
#16 = CLOSED_SHELL('',(#17));
#17 = ADVANCED_FACE('',(#18),#96,.T.);
#18 = FACE_BOUND('',#19,.T.);
#19 = EDGE_LOOP('',(#20,#181,#196));
#20 = ORIENTED_EDGE('',*,*,#21,.T.);
#21 = EDGE_CURVE('',#22,#24,#26,.T.);
#22 = VERTEX_POINT('',#23);
#23 = CARTESIAN_POINT('',(99.999999999915,75.000000000939,0.));
#24 = VERTEX_POINT('',#25);
#25 = CARTESIAN_POINT('',(200.00000000022,216.42135623712,0.));
#26 = SEAM_CURVE('',#27,(#95,#174),.PCURVE_S1.);
#27 = B_SPLINE_CURVE_WITH_KNOTS('',6,(#28,#29,#30,#31,#32,#33,#34,#35,
    #36,#37,#38,#39,#40,#41,#42,#43,#44,#45,#46,#47,#48,#49,#50,#51,#52,
    #53,#54,#55,#56,#57,#58,#59,#60,#61,#62,#63,#64,#65,#66,#67,#68,#69,
    #70,#71,#72,#73,#74,#75,#76,#77,#78,#79,#80,#81,#82,#83,#84,#85,#86,
    #87,#88,#89,#90,#91,#92,#93,#94),.UNSPECIFIED.,.F.,.F.,(7,4,4,4,4,4,
    4,4,4,4,4,4,4,4,4,4,7),(0.,0.118111793591,0.197272122918,
    0.267528742035,0.332531922329,0.393981883736,0.454492859937,
    0.511812353142,0.569210547165,0.624643562337,0.680176193624,
    0.734384869965,0.789242434162,0.841877103061,0.8950758272,
    0.947623738358,1.),.UNSPECIFIED.);
#28 = CARTESIAN_POINT('',(99.999999999915,75.000000000939,0.));
#29 = CARTESIAN_POINT('',(100.00002741634,78.540946914955,0.));
#30 = CARTESIAN_POINT('',(100.15040773417,82.079542792276,0.));
#31 = CARTESIAN_POINT('',(100.45107858866,85.610966846159,0.));
#32 = CARTESIAN_POINT('',(100.8997767265,89.126079210259,0.));
#33 = CARTESIAN_POINT('',(101.88897104127,94.958568880591,0.));
#34 = CARTESIAN_POINT('',(103.26252873912,100.70998973424,0.));
#35 = CARTESIAN_POINT('',(103.87385374687,103.00305868556,0.));
#36 = CARTESIAN_POINT('',(104.54332056316,105.27973575286,0.));
#37 = CARTESIAN_POINT('',(105.912599309,109.54368612681,0.));
#38 = CARTESIAN_POINT('',(107.47330324849,113.74105554979,0.));
#39 = CARTESIAN_POINT('',(108.24791030523,115.69924400971,0.));
#40 = CARTESIAN_POINT('',(109.06166321503,117.64143218464,0.));
#41 = CARTESIAN_POINT('',(110.70059285884,121.34897554177,0.));
#42 = CARTESIAN_POINT('',(112.47282719088,124.99456245079,0.));
#43 = CARTESIAN_POINT('',(113.35406846401,126.73201430614,0.));
#44 = CARTESIAN_POINT('',(114.26362645718,128.45477300319,0.));
#45 = CARTESIAN_POINT('',(116.08580854036,131.77739404623,0.));
#46 = CARTESIAN_POINT('',(118.00637968041,135.04407449775,0.));
#47 = CARTESIAN_POINT('',(118.96195743428,136.61829653517,0.));
#48 = CARTESIAN_POINT('',(119.93889089761,138.17932995384,0.));
#49 = CARTESIAN_POINT('',(121.91847318269,141.25150977043,0.));
#50 = CARTESIAN_POINT('',(123.97544057927,144.27241229682,0.));
#51 = CARTESIAN_POINT('',(125.01425987512,145.75870714408,0.));
#52 = CARTESIAN_POINT('',(126.07057927271,147.23259627396,0.));
#53 = CARTESIAN_POINT('',(128.16019427666,150.07875699339,0.));
#54 = CARTESIAN_POINT('',(130.31091113233,152.87900335831,0.));
#55 = CARTESIAN_POINT('',(131.37103013884,154.23047062811,0.));
#56 = CARTESIAN_POINT('',(132.44449614737,155.57134809549,0.));
#57 = CARTESIAN_POINT('',(134.61859416528,158.23405234553,0.));
#58 = CARTESIAN_POINT('',(136.84218427111,160.85556823395,0.));
#59 = CARTESIAN_POINT('',(137.96664885514,162.15707068375,0.));
#60 = CARTESIAN_POINT('',(139.10256567275,163.44857962061,0.));
#61 = CARTESIAN_POINT('',(141.35717923405,165.9680565493,0.));
#62 = CARTESIAN_POINT('',(143.65283371624,168.4501852519,0.));
#63 = CARTESIAN_POINT('',(144.79021176319,169.66076761523,0.));
#64 = CARTESIAN_POINT('',(145.93679012976,170.86263241768,0.));
#65 = CARTESIAN_POINT('',(148.24977874681,173.25136811265,0.));
#66 = CARTESIAN_POINT('',(150.59712115799,175.60635432711,0.));
#67 = CARTESIAN_POINT('',(151.78014354192,176.77659974285,0.));
#68 = CARTESIAN_POINT('',(152.97117515526,177.93868673799,0.));
#69 = CARTESIAN_POINT('',(155.34013326674,180.21931822761,0.));
#70 = CARTESIAN_POINT('',(157.73830419814,182.46920642253,0.));
#71 = CARTESIAN_POINT('',(158.92981261675,183.57320918208,0.));
#72 = CARTESIAN_POINT('',(160.12798477687,184.66997181066,0.));
#73 = CARTESIAN_POINT('',(162.55165021721,186.8623139711,0.));
#74 = CARTESIAN_POINT('',(165.00061203098,189.02636407047,0.));
#75 = CARTESIAN_POINT('',(166.23856851052,190.10779780714,0.));
#76 = CARTESIAN_POINT('',(167.48251830554,191.1823284033,0.));
#77 = CARTESIAN_POINT('',(169.93138994165,193.2745619994,0.));
#78 = CARTESIAN_POINT('',(172.40187876893,195.34122002965,0.));
#79 = CARTESIAN_POINT('',(173.61660583892,196.34715357189,0.));
#80 = CARTESIAN_POINT('',(174.83621208124,197.3471633279,0.));
#81 = CARTESIAN_POINT('',(177.29802296791,199.34618980711,0.));
#82 = CARTESIAN_POINT('',(179.77845380473,201.32206612668,0.));
#83 = CARTESIAN_POINT('',(181.02984615569,202.30952099535,0.));
#84 = CARTESIAN_POINT('',(182.28567496799,203.29132518175,0.));
#85 = CARTESIAN_POINT('',(184.7905414538,205.23187967458,0.));
#86 = CARTESIAN_POINT('',(187.31198113429,207.15084950203,0.));
#87 = CARTESIAN_POINT('',(188.56892065457,208.09918862346,0.));
#88 = CARTESIAN_POINT('',(189.82973084901,209.04237380495,0.));
#89 = CARTESIAN_POINT('',(192.35475613328,210.91554050423,0.));
#90 = CARTESIAN_POINT('',(194.89441254974,212.76882149701,0.));
#91 = CARTESIAN_POINT('',(196.16571210738,213.68907202643,0.));
#92 = CARTESIAN_POINT('',(197.4404679486,214.60452731934,0.));
#93 = CARTESIAN_POINT('',(198.71859196541,215.51526392868,0.));
#94 = CARTESIAN_POINT('',(200.00000000022,216.42135623712,0.));
#95 = PCURVE('',#96,#168);
#96 = SURFACE_OF_REVOLUTION('',#97,#165);
#97 = B_SPLINE_CURVE_WITH_KNOTS('',6,(#98,#99,#100,#101,#102,#103,#104,
    #105,#106,#107,#108,#109,#110,#111,#112,#113,#114,#115,#116,#117,
    #118,#119,#120,#121,#122,#123,#124,#125,#126,#127,#128,#129,#130,
    #131,#132,#133,#134,#135,#136,#137,#138,#139,#140,#141,#142,#143,
    #144,#145,#146,#147,#148,#149,#150,#151,#152,#153,#154,#155,#156,
    #157,#158,#159,#160,#161,#162,#163,#164),.UNSPECIFIED.,.F.,.F.,(7,4,
    4,4,4,4,4,4,4,4,4,4,4,4,4,4,7),(0.,0.118111793591,0.197272122918,
    0.267528742035,0.332531922329,0.393981883736,0.454492859937,
    0.511812353142,0.569210547165,0.624643562337,0.680176193624,
    0.734384869965,0.789242434162,0.841877103061,0.8950758272,
    0.947623738358,1.),.UNSPECIFIED.);
#98 = CARTESIAN_POINT('',(99.999999999915,75.000000000939,0.));
#99 = CARTESIAN_POINT('',(100.00002741634,78.540946914955,0.));
#100 = CARTESIAN_POINT('',(100.15040773417,82.079542792276,0.));
#101 = CARTESIAN_POINT('',(100.45107858866,85.610966846159,0.));
#102 = CARTESIAN_POINT('',(100.8997767265,89.126079210259,0.));
#103 = CARTESIAN_POINT('',(101.88897104127,94.958568880591,0.));
#104 = CARTESIAN_POINT('',(103.26252873912,100.70998973424,0.));
#105 = CARTESIAN_POINT('',(103.87385374687,103.00305868556,0.));
#106 = CARTESIAN_POINT('',(104.54332056316,105.27973575286,0.));
#107 = CARTESIAN_POINT('',(105.912599309,109.54368612681,0.));
#108 = CARTESIAN_POINT('',(107.47330324849,113.74105554979,0.));
#109 = CARTESIAN_POINT('',(108.24791030523,115.69924400971,0.));
#110 = CARTESIAN_POINT('',(109.06166321503,117.64143218464,0.));
#111 = CARTESIAN_POINT('',(110.70059285884,121.34897554177,0.));
#112 = CARTESIAN_POINT('',(112.47282719088,124.99456245079,0.));
#113 = CARTESIAN_POINT('',(113.35406846401,126.73201430614,0.));
#114 = CARTESIAN_POINT('',(114.26362645718,128.45477300319,0.));
#115 = CARTESIAN_POINT('',(116.08580854036,131.77739404623,0.));
#116 = CARTESIAN_POINT('',(118.00637968041,135.04407449775,0.));
#117 = CARTESIAN_POINT('',(118.96195743428,136.61829653517,0.));
#118 = CARTESIAN_POINT('',(119.93889089761,138.17932995384,0.));
#119 = CARTESIAN_POINT('',(121.91847318269,141.25150977043,0.));
#120 = CARTESIAN_POINT('',(123.97544057927,144.27241229682,0.));
#121 = CARTESIAN_POINT('',(125.01425987512,145.75870714408,0.));
#122 = CARTESIAN_POINT('',(126.07057927271,147.23259627396,0.));
#123 = CARTESIAN_POINT('',(128.16019427666,150.07875699339,0.));
#124 = CARTESIAN_POINT('',(130.31091113233,152.87900335831,0.));
#125 = CARTESIAN_POINT('',(131.37103013884,154.23047062811,0.));
#126 = CARTESIAN_POINT('',(132.44449614737,155.57134809549,0.));
#127 = CARTESIAN_POINT('',(134.61859416528,158.23405234553,0.));
#128 = CARTESIAN_POINT('',(136.84218427111,160.85556823395,0.));
#129 = CARTESIAN_POINT('',(137.96664885514,162.15707068375,0.));
#130 = CARTESIAN_POINT('',(139.10256567275,163.44857962061,0.));
#131 = CARTESIAN_POINT('',(141.35717923405,165.9680565493,0.));
#132 = CARTESIAN_POINT('',(143.65283371624,168.4501852519,0.));
#133 = CARTESIAN_POINT('',(144.79021176319,169.66076761523,0.));
#134 = CARTESIAN_POINT('',(145.93679012976,170.86263241768,0.));
#135 = CARTESIAN_POINT('',(148.24977874681,173.25136811265,0.));
#136 = CARTESIAN_POINT('',(150.59712115799,175.60635432711,0.));
#137 = CARTESIAN_POINT('',(151.78014354192,176.77659974285,0.));
#138 = CARTESIAN_POINT('',(152.97117515526,177.93868673799,0.));
#139 = CARTESIAN_POINT('',(155.34013326674,180.21931822761,0.));
#140 = CARTESIAN_POINT('',(157.73830419814,182.46920642253,0.));
#141 = CARTESIAN_POINT('',(158.92981261675,183.57320918208,0.));
#142 = CARTESIAN_POINT('',(160.12798477687,184.66997181066,0.));
#143 = CARTESIAN_POINT('',(162.55165021721,186.8623139711,0.));
#144 = CARTESIAN_POINT('',(165.00061203098,189.02636407047,0.));
#145 = CARTESIAN_POINT('',(166.23856851052,190.10779780714,0.));
#146 = CARTESIAN_POINT('',(167.48251830554,191.1823284033,0.));
#147 = CARTESIAN_POINT('',(169.93138994165,193.2745619994,0.));
#148 = CARTESIAN_POINT('',(172.40187876893,195.34122002965,0.));
#149 = CARTESIAN_POINT('',(173.61660583892,196.34715357189,0.));
#150 = CARTESIAN_POINT('',(174.83621208124,197.3471633279,0.));
#151 = CARTESIAN_POINT('',(177.29802296791,199.34618980711,0.));
#152 = CARTESIAN_POINT('',(179.77845380473,201.32206612668,0.));
#153 = CARTESIAN_POINT('',(181.02984615569,202.30952099535,0.));
#154 = CARTESIAN_POINT('',(182.28567496799,203.29132518175,0.));
#155 = CARTESIAN_POINT('',(184.7905414538,205.23187967458,0.));
#156 = CARTESIAN_POINT('',(187.31198113429,207.15084950203,0.));
#157 = CARTESIAN_POINT('',(188.56892065457,208.09918862346,0.));
#158 = CARTESIAN_POINT('',(189.82973084901,209.04237380495,0.));
#159 = CARTESIAN_POINT('',(192.35475613328,210.91554050423,0.));
#160 = CARTESIAN_POINT('',(194.89441254974,212.76882149701,0.));
#161 = CARTESIAN_POINT('',(196.16571210738,213.68907202643,0.));
#162 = CARTESIAN_POINT('',(197.4404679486,214.60452731934,0.));
#163 = CARTESIAN_POINT('',(198.71859196541,215.51526392868,0.));
#164 = CARTESIAN_POINT('',(200.00000000022,216.42135623712,0.));
#165 = AXIS1_PLACEMENT('',#166,#167);
#166 = CARTESIAN_POINT('',(100.,75.,0.));
#167 = DIRECTION('',(1.,0.,0.));
#168 = DEFINITIONAL_REPRESENTATION('',(#169),#173);
#169 = LINE('',#170,#171);
#170 = CARTESIAN_POINT('',(0.,0.));
#171 = VECTOR('',#172,1.);
#172 = DIRECTION('',(0.,1.));
#173 = ( GEOMETRIC_REPRESENTATION_CONTEXT(2) 
PARAMETRIC_REPRESENTATION_CONTEXT() REPRESENTATION_CONTEXT('2D SPACE',''
  ) );
#174 = PCURVE('',#96,#175);
#175 = DEFINITIONAL_REPRESENTATION('',(#176),#180);
#176 = LINE('',#177,#178);
#177 = CARTESIAN_POINT('',(6.28318530718,0.));
#178 = VECTOR('',#179,1.);
#179 = DIRECTION('',(0.,1.));
#180 = ( GEOMETRIC_REPRESENTATION_CONTEXT(2) 
PARAMETRIC_REPRESENTATION_CONTEXT() REPRESENTATION_CONTEXT('2D SPACE',''
  ) );
#181 = ORIENTED_EDGE('',*,*,#182,.F.);
#182 = EDGE_CURVE('',#24,#24,#183,.T.);
#183 = SURFACE_CURVE('',#184,(#189),.PCURVE_S1.);
#184 = CIRCLE('',#185,141.42135623712);
#185 = AXIS2_PLACEMENT_3D('',#186,#187,#188);
#186 = CARTESIAN_POINT('',(200.00000000022,75.,0.));
#187 = DIRECTION('',(1.,0.,0.));
#188 = DIRECTION('',(-0.,1.,0.));
#189 = PCURVE('',#96,#190);
#190 = DEFINITIONAL_REPRESENTATION('',(#191),#195);
#191 = LINE('',#192,#193);
#192 = CARTESIAN_POINT('',(0.,1.));
#193 = VECTOR('',#194,1.);
#194 = DIRECTION('',(1.,0.));
#195 = ( GEOMETRIC_REPRESENTATION_CONTEXT(2) 
PARAMETRIC_REPRESENTATION_CONTEXT() REPRESENTATION_CONTEXT('2D SPACE',''
  ) );
#196 = ORIENTED_EDGE('',*,*,#21,.F.);
#197 = ( GEOMETRIC_REPRESENTATION_CONTEXT(3) 
GLOBAL_UNCERTAINTY_ASSIGNED_CONTEXT((#201)) GLOBAL_UNIT_ASSIGNED_CONTEXT
((#198,#199,#200)) REPRESENTATION_CONTEXT('Context #1',
  '3D Context with UNIT and UNCERTAINTY') );
#198 = ( LENGTH_UNIT() NAMED_UNIT(*) SI_UNIT(.MILLI.,.METRE.) );
#199 = ( NAMED_UNIT(*) PLANE_ANGLE_UNIT() SI_UNIT($,.RADIAN.) );
#200 = ( NAMED_UNIT(*) SI_UNIT($,.STERADIAN.) SOLID_ANGLE_UNIT() );
#201 = UNCERTAINTY_MEASURE_WITH_UNIT(LENGTH_MEASURE(1.E-07),#198,
  'distance_accuracy_value','confusion accuracy');
#202 = PRODUCT_RELATED_PRODUCT_CATEGORY('part',$,(#7));
ENDSEC;
END-ISO-10303-21;
