ISO-10303-21;
HEADER;
FILE_DESCRIPTION(('Open CASCADE Model'),'2;1');
FILE_NAME('Open CASCADE Shape Model','2026-08-07T02:34:39',('Author'),(
    'Open CASCADE'),'Open CASCADE STEP processor 7.7','Open CASCADE 7.7'
  ,'Unknown');
FILE_SCHEMA(('AUTOMOTIVE_DESIGN { 1 0 10303 214 1 1 1 1 }'));
ENDSEC;
DATA;
#1 = APPLICATION_PROTOCOL_DEFINITION('international standard',
  'automotive_design',2000,#2);
#2 = APPLICATION_CONTEXT(
  'core data for automotive mechanical design processes');
#3 = SHAPE_DEFINITION_REPRESENTATION(#4,#10);
#4 = PRODUCT_DEFINITION_SHAPE('','',#5);
#5 = PRODUCT_DEFINITION('design','',#6,#9);
#6 = PRODUCT_DEFINITION_FORMATION('','',#7);
#7 = PRODUCT('Open CASCADE STEP translator 7.7 46',
  'Open CASCADE STEP translator 7.7 46','',(#8));
#8 = PRODUCT_CONTEXT('',#2,'mechanical');
#9 = PRODUCT_DEFINITION_CONTEXT('part definition',#2,'design');
#10 = ADVANCED_BREP_SHAPE_REPRESENTATION('',(#11,#15),#284);
#11 = AXIS2_PLACEMENT_3D('',#12,#13,#14);
#12 = CARTESIAN_POINT('',(0.,0.,0.));
#13 = DIRECTION('',(0.,0.,1.));
#14 = DIRECTION('',(1.,0.,-0.));
#15 = MANIFOLD_SOLID_BREP('',#16);
#16 = CLOSED_SHELL('',(#17,#79,#141,#220,#255));
#17 = ADVANCED_FACE('',(#18),#33,.F.);
#18 = FACE_BOUND('',#19,.T.);
#19 = EDGE_LOOP('',(#20,#51,#78));
#20 = ORIENTED_EDGE('',*,*,#21,.T.);
#21 = EDGE_CURVE('',#22,#24,#26,.T.);
#22 = VERTEX_POINT('',#23);
#23 = CARTESIAN_POINT('',(0.,0.,4.));
#24 = VERTEX_POINT('',#25);
#25 = CARTESIAN_POINT('',(3.,0.,0.));
#26 = SEAM_CURVE('',#27,(#32,#44),.PCURVE_S1.);
#27 = CIRCLE('',#28,3.125);
#28 = AXIS2_PLACEMENT_3D('',#29,#30,#31);
#29 = CARTESIAN_POINT('',(0.,0.,0.875));
#30 = DIRECTION('',(0.,1.,0.));
#31 = DIRECTION('',(0.,-0.,1.));
#32 = PCURVE('',#33,#38);
#33 = SPHERICAL_SURFACE('',#34,3.125);
#34 = AXIS2_PLACEMENT_3D('',#35,#36,#37);
#35 = CARTESIAN_POINT('',(0.,0.,0.875));
#36 = DIRECTION('',(-0.,-0.,-1.));
#37 = DIRECTION('',(1.,0.,-0.));
#38 = DEFINITIONAL_REPRESENTATION('',(#39),#43);
#39 = LINE('',#40,#41);
#40 = CARTESIAN_POINT('',(-0.,-1.570796326795));
#41 = VECTOR('',#42,1.);
#42 = DIRECTION('',(-0.,1.));
#43 = ( GEOMETRIC_REPRESENTATION_CONTEXT(2) 
PARAMETRIC_REPRESENTATION_CONTEXT() REPRESENTATION_CONTEXT('2D SPACE',''
  ) );
#44 = PCURVE('',#33,#45);
#45 = DEFINITIONAL_REPRESENTATION('',(#46),#50);
#46 = LINE('',#47,#48);
#47 = CARTESIAN_POINT('',(-6.28318530718,-1.570796326795));
#48 = VECTOR('',#49,1.);
#49 = DIRECTION('',(-0.,1.));
#50 = ( GEOMETRIC_REPRESENTATION_CONTEXT(2) 
PARAMETRIC_REPRESENTATION_CONTEXT() REPRESENTATION_CONTEXT('2D SPACE',''
  ) );
#51 = ORIENTED_EDGE('',*,*,#52,.F.);
#52 = EDGE_CURVE('',#24,#24,#53,.T.);
#53 = SURFACE_CURVE('',#54,(#59,#66),.PCURVE_S1.);
#54 = CIRCLE('',#55,3.);
#55 = AXIS2_PLACEMENT_3D('',#56,#57,#58);
#56 = CARTESIAN_POINT('',(0.,0.,0.));
#57 = DIRECTION('',(0.,0.,1.));
#58 = DIRECTION('',(1.,0.,-0.));
#59 = PCURVE('',#33,#60);
#60 = DEFINITIONAL_REPRESENTATION('',(#61),#65);
#61 = LINE('',#62,#63);
#62 = CARTESIAN_POINT('',(-0.,0.283794109208));
#63 = VECTOR('',#64,1.);
#64 = DIRECTION('',(-1.,0.));
#65 = ( GEOMETRIC_REPRESENTATION_CONTEXT(2) 
PARAMETRIC_REPRESENTATION_CONTEXT() REPRESENTATION_CONTEXT('2D SPACE',''
  ) );
#66 = PCURVE('',#67,#72);
#67 = PLANE('',#68);
#68 = AXIS2_PLACEMENT_3D('',#69,#70,#71);
#69 = CARTESIAN_POINT('',(0.,0.,0.));
#70 = DIRECTION('',(0.,0.,1.));
#71 = DIRECTION('',(1.,0.,-0.));
#72 = DEFINITIONAL_REPRESENTATION('',(#73),#77);
#73 = CIRCLE('',#74,3.);
#74 = AXIS2_PLACEMENT_2D('',#75,#76);
#75 = CARTESIAN_POINT('',(0.,0.));
#76 = DIRECTION('',(1.,-0.));
#77 = ( GEOMETRIC_REPRESENTATION_CONTEXT(2) 
PARAMETRIC_REPRESENTATION_CONTEXT() REPRESENTATION_CONTEXT('2D SPACE',''
  ) );
#78 = ORIENTED_EDGE('',*,*,#21,.F.);
#79 = ADVANCED_FACE('',(#80,#83),#67,.F.);
#80 = FACE_BOUND('',#81,.T.);
#81 = EDGE_LOOP('',(#82));
#82 = ORIENTED_EDGE('',*,*,#52,.T.);
#83 = FACE_BOUND('',#84,.T.);
#84 = EDGE_LOOP('',(#85));
#85 = ORIENTED_EDGE('',*,*,#86,.F.);
#86 = EDGE_CURVE('',#87,#87,#89,.T.);
#87 = VERTEX_POINT('',#88);
#88 = CARTESIAN_POINT('',(10.,0.,0.));
#89 = SURFACE_CURVE('',#90,(#95,#102),.PCURVE_S1.);
#90 = CIRCLE('',#91,10.);
#91 = AXIS2_PLACEMENT_3D('',#92,#93,#94);
#92 = CARTESIAN_POINT('',(0.,0.,0.));
#93 = DIRECTION('',(0.,0.,1.));
#94 = DIRECTION('',(1.,0.,-0.));
#95 = PCURVE('',#67,#96);
#96 = DEFINITIONAL_REPRESENTATION('',(#97),#101);
#97 = CIRCLE('',#98,10.);
#98 = AXIS2_PLACEMENT_2D('',#99,#100);
#99 = CARTESIAN_POINT('',(0.,0.));
#100 = DIRECTION('',(1.,-0.));
#101 = ( GEOMETRIC_REPRESENTATION_CONTEXT(2) 
PARAMETRIC_REPRESENTATION_CONTEXT() REPRESENTATION_CONTEXT('2D SPACE',''
  ) );
#102 = PCURVE('',#103,#135);
#103 = SURFACE_OF_REVOLUTION('',#104,#132);
#104 = B_SPLINE_CURVE_WITH_KNOTS('',3,(#105,#106,#107,#108,#109,#110,
    #111,#112,#113,#114,#115,#116,#117,#118,#119,#120,#121,#122,#123,
    #124,#125,#126,#127,#128,#129,#130,#131),.UNSPECIFIED.,.F.,.F.,(4,1,
    1,1,1,1,1,1,1,1,1,1,1,1,1,1,1,1,1,1,1,1,1,1,4),(0.,0.750012558569,
    1.50012557812,2.250439479284,3.001054602066,3.752071165736,
    4.503589228961,5.255708650257,6.008529048836,6.76214976593,
    7.516669826657,8.272187902506,9.028802274507,9.786610797151,
    10.545710863122,11.306199368892,12.068172681254,12.831726604815,
    13.596956350516,14.36395650522,15.132821002396,15.903643093937,
    16.676515323149,17.451529498926,18.22877667114),.UNSPECIFIED.);
#105 = CARTESIAN_POINT('',(10.,0.,0.));
#106 = CARTESIAN_POINT('',(9.999999613199,0.,0.250005599119));
#107 = CARTESIAN_POINT('',(10.002894150293,0.,0.750050222884));
#108 = CARTESIAN_POINT('',(10.015916499388,0.,1.500100424144));
#109 = CARTESIAN_POINT('',(10.037620851896,0.,2.25015053151));
#110 = CARTESIAN_POINT('',(10.068006837091,0.,3.000200521788));
#111 = CARTESIAN_POINT('',(10.107074546619,0.,3.75025035075));
#112 = CARTESIAN_POINT('',(10.154823945868,0.,4.500299980318));
#113 = CARTESIAN_POINT('',(10.21125503182,0.,5.250349371405));
#114 = CARTESIAN_POINT('',(10.276367790772,0.,6.000398485968));
#115 = CARTESIAN_POINT('',(10.350162209728,0.,6.750447286571));
#116 = CARTESIAN_POINT('',(10.432638273413,0.,7.500495736628));
#117 = CARTESIAN_POINT('',(10.523795965143,0.,8.250543800441));
#118 = CARTESIAN_POINT('',(10.623635266672,0.,9.000591443304));
#119 = CARTESIAN_POINT('',(10.732156158321,0.,9.750638631571));
#120 = CARTESIAN_POINT('',(10.84935861903,0.,10.50068533273));
#121 = CARTESIAN_POINT('',(10.97524262645,0.,11.250731515463));
#122 = CARTESIAN_POINT('',(11.109808156993,0.,12.000777149741));
#123 = CARTESIAN_POINT('',(11.253055186019,0.,12.750822206742));
#124 = CARTESIAN_POINT('',(11.40498368754,0.,13.50086665941));
#125 = CARTESIAN_POINT('',(11.565593635732,0.,14.250910480574));
#126 = CARTESIAN_POINT('',(11.734884999699,0.,15.000953650186));
#127 = CARTESIAN_POINT('',(11.912857763509,0.,15.75099612838));
#128 = CARTESIAN_POINT('',(12.099511851557,0.,16.501037956504));
#129 = CARTESIAN_POINT('',(12.294847408663,0.,17.251078878676));
#130 = CARTESIAN_POINT('',(12.430657669237,-0.,17.750368526258));
#131 = CARTESIAN_POINT('',(12.5,0.,18.));
#132 = AXIS1_PLACEMENT('',#133,#134);
#133 = CARTESIAN_POINT('',(0.,0.,0.));
#134 = DIRECTION('',(0.,0.,1.));
#135 = DEFINITIONAL_REPRESENTATION('',(#136),#140);
#136 = LINE('',#137,#138);
#137 = CARTESIAN_POINT('',(0.,0.));
#138 = VECTOR('',#139,1.);
#139 = DIRECTION('',(1.,0.));
#140 = ( GEOMETRIC_REPRESENTATION_CONTEXT(2) 
PARAMETRIC_REPRESENTATION_CONTEXT() REPRESENTATION_CONTEXT('2D SPACE',''
  ) );
#141 = ADVANCED_FACE('',(#142),#103,.T.);
#142 = FACE_BOUND('',#143,.T.);
#143 = EDGE_LOOP('',(#144,#145,#192,#219));
#144 = ORIENTED_EDGE('',*,*,#86,.T.);
#145 = ORIENTED_EDGE('',*,*,#146,.T.);
#146 = EDGE_CURVE('',#87,#147,#149,.T.);
#147 = VERTEX_POINT('',#148);
#148 = CARTESIAN_POINT('',(12.5,0.,18.));
#149 = SEAM_CURVE('',#150,(#178,#185),.PCURVE_S1.);
#150 = B_SPLINE_CURVE_WITH_KNOTS('',3,(#151,#152,#153,#154,#155,#156,
    #157,#158,#159,#160,#161,#162,#163,#164,#165,#166,#167,#168,#169,
    #170,#171,#172,#173,#174,#175,#176,#177),.UNSPECIFIED.,.F.,.F.,(4,1,
    1,1,1,1,1,1,1,1,1,1,1,1,1,1,1,1,1,1,1,1,1,1,4),(0.,0.750012558569,
    1.50012557812,2.250439479284,3.001054602066,3.752071165736,
    4.503589228961,5.255708650257,6.008529048836,6.76214976593,
    7.516669826657,8.272187902506,9.028802274507,9.786610797151,
    10.545710863122,11.306199368892,12.068172681254,12.831726604815,
    13.596956350516,14.36395650522,15.132821002396,15.903643093937,
    16.676515323149,17.451529498926,18.22877667114),.UNSPECIFIED.);
#151 = CARTESIAN_POINT('',(10.,0.,0.));
#152 = CARTESIAN_POINT('',(9.999999613199,0.,0.250005599119));
#153 = CARTESIAN_POINT('',(10.002894150293,0.,0.750050222884));
#154 = CARTESIAN_POINT('',(10.015916499388,0.,1.500100424144));
#155 = CARTESIAN_POINT('',(10.037620851896,0.,2.25015053151));
#156 = CARTESIAN_POINT('',(10.068006837091,0.,3.000200521788));
#157 = CARTESIAN_POINT('',(10.107074546619,0.,3.75025035075));
#158 = CARTESIAN_POINT('',(10.154823945868,0.,4.500299980318));
#159 = CARTESIAN_POINT('',(10.21125503182,0.,5.250349371405));
#160 = CARTESIAN_POINT('',(10.276367790772,0.,6.000398485968));
#161 = CARTESIAN_POINT('',(10.350162209728,0.,6.750447286571));
#162 = CARTESIAN_POINT('',(10.432638273413,0.,7.500495736628));
#163 = CARTESIAN_POINT('',(10.523795965143,0.,8.250543800441));
#164 = CARTESIAN_POINT('',(10.623635266672,0.,9.000591443304));
#165 = CARTESIAN_POINT('',(10.732156158321,0.,9.750638631571));
#166 = CARTESIAN_POINT('',(10.84935861903,0.,10.50068533273));
#167 = CARTESIAN_POINT('',(10.97524262645,0.,11.250731515463));
#168 = CARTESIAN_POINT('',(11.109808156993,0.,12.000777149741));
#169 = CARTESIAN_POINT('',(11.253055186019,0.,12.750822206742));
#170 = CARTESIAN_POINT('',(11.40498368754,0.,13.50086665941));
#171 = CARTESIAN_POINT('',(11.565593635732,0.,14.250910480574));
#172 = CARTESIAN_POINT('',(11.734884999699,0.,15.000953650186));
#173 = CARTESIAN_POINT('',(11.912857763509,0.,15.75099612838));
#174 = CARTESIAN_POINT('',(12.099511851557,0.,16.501037956504));
#175 = CARTESIAN_POINT('',(12.294847408663,0.,17.251078878676));
#176 = CARTESIAN_POINT('',(12.430657669237,-0.,17.750368526258));
#177 = CARTESIAN_POINT('',(12.5,0.,18.));
#178 = PCURVE('',#103,#179);
#179 = DEFINITIONAL_REPRESENTATION('',(#180),#184);
#180 = LINE('',#181,#182);
#181 = CARTESIAN_POINT('',(0.,0.));
#182 = VECTOR('',#183,1.);
#183 = DIRECTION('',(0.,1.));
#184 = ( GEOMETRIC_REPRESENTATION_CONTEXT(2) 
PARAMETRIC_REPRESENTATION_CONTEXT() REPRESENTATION_CONTEXT('2D SPACE',''
  ) );
#185 = PCURVE('',#103,#186);
#186 = DEFINITIONAL_REPRESENTATION('',(#187),#191);
#187 = LINE('',#188,#189);
#188 = CARTESIAN_POINT('',(6.28318530718,0.));
#189 = VECTOR('',#190,1.);
#190 = DIRECTION('',(0.,1.));
#191 = ( GEOMETRIC_REPRESENTATION_CONTEXT(2) 
PARAMETRIC_REPRESENTATION_CONTEXT() REPRESENTATION_CONTEXT('2D SPACE',''
  ) );
#192 = ORIENTED_EDGE('',*,*,#193,.F.);
#193 = EDGE_CURVE('',#147,#147,#194,.T.);
#194 = SURFACE_CURVE('',#195,(#200,#207),.PCURVE_S1.);
#195 = CIRCLE('',#196,12.5);
#196 = AXIS2_PLACEMENT_3D('',#197,#198,#199);
#197 = CARTESIAN_POINT('',(0.,0.,18.));
#198 = DIRECTION('',(0.,0.,1.));
#199 = DIRECTION('',(1.,0.,-0.));
#200 = PCURVE('',#103,#201);
#201 = DEFINITIONAL_REPRESENTATION('',(#202),#206);
#202 = LINE('',#203,#204);
#203 = CARTESIAN_POINT('',(0.,18.22877667114));
#204 = VECTOR('',#205,1.);
#205 = DIRECTION('',(1.,0.));
#206 = ( GEOMETRIC_REPRESENTATION_CONTEXT(2) 
PARAMETRIC_REPRESENTATION_CONTEXT() REPRESENTATION_CONTEXT('2D SPACE',''
  ) );
#207 = PCURVE('',#208,#213);
#208 = PLANE('',#209);
#209 = AXIS2_PLACEMENT_3D('',#210,#211,#212);
#210 = CARTESIAN_POINT('',(0.,0.,18.));
#211 = DIRECTION('',(0.,0.,1.));
#212 = DIRECTION('',(1.,0.,-0.));
#213 = DEFINITIONAL_REPRESENTATION('',(#214),#218);
#214 = CIRCLE('',#215,12.5);
#215 = AXIS2_PLACEMENT_2D('',#216,#217);
#216 = CARTESIAN_POINT('',(0.,0.));
#217 = DIRECTION('',(1.,0.));
#218 = ( GEOMETRIC_REPRESENTATION_CONTEXT(2) 
PARAMETRIC_REPRESENTATION_CONTEXT() REPRESENTATION_CONTEXT('2D SPACE',''
  ) );
#219 = ORIENTED_EDGE('',*,*,#146,.F.);
#220 = ADVANCED_FACE('',(#221,#224),#208,.T.);
#221 = FACE_BOUND('',#222,.T.);
#222 = EDGE_LOOP('',(#223));
#223 = ORIENTED_EDGE('',*,*,#193,.T.);
#224 = FACE_BOUND('',#225,.T.);
#225 = EDGE_LOOP('',(#226));
#226 = ORIENTED_EDGE('',*,*,#227,.F.);
#227 = EDGE_CURVE('',#228,#228,#230,.T.);
#228 = VERTEX_POINT('',#229);
#229 = CARTESIAN_POINT('',(7.5,0.,18.));
#230 = SURFACE_CURVE('',#231,(#236,#243),.PCURVE_S1.);
#231 = CIRCLE('',#232,7.5);
#232 = AXIS2_PLACEMENT_3D('',#233,#234,#235);
#233 = CARTESIAN_POINT('',(0.,0.,18.));
#234 = DIRECTION('',(0.,0.,1.));
#235 = DIRECTION('',(1.,0.,-0.));
#236 = PCURVE('',#208,#237);
#237 = DEFINITIONAL_REPRESENTATION('',(#238),#242);
#238 = CIRCLE('',#239,7.5);
#239 = AXIS2_PLACEMENT_2D('',#240,#241);
#240 = CARTESIAN_POINT('',(0.,0.));
#241 = DIRECTION('',(1.,0.));
#242 = ( GEOMETRIC_REPRESENTATION_CONTEXT(2) 
PARAMETRIC_REPRESENTATION_CONTEXT() REPRESENTATION_CONTEXT('2D SPACE',''
  ) );
#243 = PCURVE('',#244,#249);
#244 = SPHERICAL_SURFACE('',#245,50.000000000002);
#245 = AXIS2_PLACEMENT_3D('',#246,#247,#248);
#246 = CARTESIAN_POINT('',(-1.70197189675E-13,0.,67.434299833215));
#247 = DIRECTION('',(-0.,-0.,-1.));
#248 = DIRECTION('',(1.,0.,-0.));
#249 = DEFINITIONAL_REPRESENTATION('',(#250),#254);
#250 = LINE('',#251,#252);
#251 = CARTESIAN_POINT('',(-0.,1.420228054018));
#252 = VECTOR('',#253,1.);
#253 = DIRECTION('',(-1.,0.));
#254 = ( GEOMETRIC_REPRESENTATION_CONTEXT(2) 
PARAMETRIC_REPRESENTATION_CONTEXT() REPRESENTATION_CONTEXT('2D SPACE',''
  ) );
#255 = ADVANCED_FACE('',(#256),#244,.F.);
#256 = FACE_BOUND('',#257,.T.);
#257 = EDGE_LOOP('',(#258,#259,#283));
#258 = ORIENTED_EDGE('',*,*,#227,.T.);
#259 = ORIENTED_EDGE('',*,*,#260,.T.);
#260 = EDGE_CURVE('',#228,#261,#263,.T.);
#261 = VERTEX_POINT('',#262);
#262 = CARTESIAN_POINT('',(-5.551115123126E-16,0.,17.434299833213));
#263 = SEAM_CURVE('',#264,(#269,#276),.PCURVE_S1.);
#264 = CIRCLE('',#265,50.000000000002);
#265 = AXIS2_PLACEMENT_3D('',#266,#267,#268);
#266 = CARTESIAN_POINT('',(-1.70197189675E-13,0.,67.434299833215));
#267 = DIRECTION('',(0.,1.,0.));
#268 = DIRECTION('',(0.15,0.,-0.988685996664));
#269 = PCURVE('',#244,#270);
#270 = DEFINITIONAL_REPRESENTATION('',(#271),#275);
#271 = LINE('',#272,#273);
#272 = CARTESIAN_POINT('',(-0.,1.420228054018));
#273 = VECTOR('',#274,1.);
#274 = DIRECTION('',(-0.,1.));
#275 = ( GEOMETRIC_REPRESENTATION_CONTEXT(2) 
PARAMETRIC_REPRESENTATION_CONTEXT() REPRESENTATION_CONTEXT('2D SPACE',''
  ) );
#276 = PCURVE('',#244,#277);
#277 = DEFINITIONAL_REPRESENTATION('',(#278),#282);
#278 = LINE('',#279,#280);
#279 = CARTESIAN_POINT('',(-6.28318530718,1.420228054018));
#280 = VECTOR('',#281,1.);
#281 = DIRECTION('',(-0.,1.));
#282 = ( GEOMETRIC_REPRESENTATION_CONTEXT(2) 
PARAMETRIC_REPRESENTATION_CONTEXT() REPRESENTATION_CONTEXT('2D SPACE',''
  ) );
#283 = ORIENTED_EDGE('',*,*,#260,.F.);
#284 = ( GEOMETRIC_REPRESENTATION_CONTEXT(3) 
GLOBAL_UNCERTAINTY_ASSIGNED_CONTEXT((#288)) GLOBAL_UNIT_ASSIGNED_CONTEXT
((#285,#286,#287)) REPRESENTATION_CONTEXT('Context #1',
  '3D Context with UNIT and UNCERTAINTY') );
#285 = ( LENGTH_UNIT() NAMED_UNIT(*) SI_UNIT(.MILLI.,.METRE.) );
#286 = ( NAMED_UNIT(*) PLANE_ANGLE_UNIT() SI_UNIT($,.RADIAN.) );
#287 = ( NAMED_UNIT(*) SI_UNIT($,.STERADIAN.) SOLID_ANGLE_UNIT() );
#288 = UNCERTAINTY_MEASURE_WITH_UNIT(LENGTH_MEASURE(1.E-07),#285,
  'distance_accuracy_value','confusion accuracy');
#289 = PRODUCT_RELATED_PRODUCT_CATEGORY('part',$,(#7));
ENDSEC;
END-ISO-10303-21;
