ISO-10303-21;
HEADER;
FILE_DESCRIPTION(('Open CASCADE Model'),'2;1');
FILE_NAME('Open CASCADE Shape Model','2026-08-07T02:34:41',('Author'),(
    'Open CASCADE'),'Open CASCADE STEP processor 7.7','Open CASCADE 7.7'
  ,'Unknown');
FILE_SCHEMA(('AUTOMOTIVE_DESIGN { 1 0 10303 214 1 1 1 1 }'));
ENDSEC;
DATA;
#1 = APPLICATION_PROTOCOL_DEFINITION('international standard',
  'automotive_design',2000,#2);
#2 = APPLICATION_CONTEXT(
  'core data for automotive mechanical design processes');
#3 = SHAPE_DEFINITION_REPRESENTATION(#4,#10);
#4 = PRODUCT_DEFINITION_SHAPE('','',#5);
#5 = PRODUCT_DEFINITION('design','',#6,#9);
#6 = PRODUCT_DEFINITION_FORMATION('','',#7);
#7 = PRODUCT('Open CASCADE STEP translator 7.7 2',
  'Open CASCADE STEP translator 7.7 2','',(#8));
#8 = PRODUCT_CONTEXT('',#2,'mechanical');
#9 = PRODUCT_DEFINITION_CONTEXT('part definition',#2,'design');
#10 = ADVANCED_BREP_SHAPE_REPRESENTATION('',(#11,#15),#352);
#11 = AXIS2_PLACEMENT_3D('',#12,#13,#14);
#12 = CARTESIAN_POINT('',(0.,0.,0.));
#13 = DIRECTION('',(0.,0.,1.));
#14 = DIRECTION('',(1.,0.,-0.));
#15 = MANIFOLD_SOLID_BREP('',#16);
#16 = CLOSED_SHELL('',(#17,#256,#295,#325));
#17 = ADVANCED_FACE('',(#18),#42,.T.);
#18 = FACE_BOUND('',#19,.T.);
#19 = EDGE_LOOP('',(#20,#178,#205,#255));
#20 = ORIENTED_EDGE('',*,*,#21,.T.);
#21 = EDGE_CURVE('',#22,#22,#24,.T.);
#22 = VERTEX_POINT('',#23);
#23 = CARTESIAN_POINT('',(40.,0.,0.));
#24 = SURFACE_CURVE('',#25,(#41,#154),.PCURVE_S1.);
#25 = B_SPLINE_CURVE_WITH_KNOTS('',14,(#26,#27,#28,#29,#30,#31,#32,#33,
    #34,#35,#36,#37,#38,#39,#40),.UNSPECIFIED.,.T.,.F.,(15,15),(0.,1.),
  .PIECEWISE_BEZIER_KNOTS.);
#26 = CARTESIAN_POINT('',(40.,-1.101815365161E-14,0.));
#27 = CARTESIAN_POINT('',(40.000000000005,8.975979010263,0.));
#28 = CARTESIAN_POINT('',(31.323425552005,17.951961333747,0.));
#29 = CARTESIAN_POINT('',(13.970265563913,24.656386931475,0.));
#30 = CARTESIAN_POINT('',(-9.464424589524,26.817951916495,0.));
#31 = CARTESIAN_POINT('',(-33.79102641618,22.979537220247,0.));
#32 = CARTESIAN_POINT('',(-52.36166806625,13.317704905227,0.));
#33 = CARTESIAN_POINT('',(-59.35314408205,3.323066266603E-10,0.));
#34 = CARTESIAN_POINT('',(-52.36166806624,-13.31770490583,0.));
#35 = CARTESIAN_POINT('',(-33.7910264162,-22.97953721978,0.));
#36 = CARTESIAN_POINT('',(-9.46442458951,-26.81795191678,0.));
#37 = CARTESIAN_POINT('',(13.970265563906,-24.65638693133,0.));
#38 = CARTESIAN_POINT('',(31.323425552007,-17.95196133379,0.));
#39 = CARTESIAN_POINT('',(40.000000000005,-8.975979010252,0.));
#40 = CARTESIAN_POINT('',(40.,3.711462509945E-15,0.));
#41 = PCURVE('',#42,#148);
#42 = ( BOUNDED_SURFACE() B_SPLINE_SURFACE(14,6,(
    (#43,#44,#45,#46,#47,#48,#49)
    ,(#50,#51,#52,#53,#54,#55,#56)
    ,(#57,#58,#59,#60,#61,#62,#63)
    ,(#64,#65,#66,#67,#68,#69,#70)
    ,(#71,#72,#73,#74,#75,#76,#77)
    ,(#78,#79,#80,#81,#82,#83,#84)
    ,(#85,#86,#87,#88,#89,#90,#91)
    ,(#92,#93,#94,#95,#96,#97,#98)
    ,(#99,#100,#101,#102,#103,#104,#105)
    ,(#106,#107,#108,#109,#110,#111,#112)
    ,(#113,#114,#115,#116,#117,#118,#119)
    ,(#120,#121,#122,#123,#124,#125,#126)
    ,(#127,#128,#129,#130,#131,#132,#133)
    ,(#134,#135,#136,#137,#138,#139,#140)
    ,(#141,#142,#143,#144,#145,#146,#147
)),.UNSPECIFIED.,.T.,.F.,.F.) B_SPLINE_SURFACE_WITH_KNOTS((15,15),(7,7),
  (0.,1.),(0.,1.),.PIECEWISE_BEZIER_KNOTS.) 
GEOMETRIC_REPRESENTATION_ITEM() RATIONAL_B_SPLINE_SURFACE((
    (1.,1.,1.,1.,1.,1.,1.)
    ,(1.,1.,1.,1.,1.,1.,1.)
    ,(1.,1.,1.,1.,1.,1.,1.)
    ,(1.,1.,1.,1.,1.,1.,1.)
    ,(1.,1.,1.,1.,1.,1.,1.)
    ,(1.,1.,1.,1.,1.,1.,1.)
    ,(1.,1.,1.,1.,1.,1.,1.)
    ,(1.,1.,1.,1.,1.,1.,1.)
    ,(1.,1.,1.,1.,1.,1.,1.)
    ,(1.,1.,1.,1.,1.,1.,1.)
    ,(1.,1.,1.,1.,1.,1.,1.)
    ,(1.,1.,1.,1.,1.,1.,1.)
    ,(1.,1.,1.,1.,1.,1.,1.)
    ,(1.,1.,1.,1.,1.,1.,1.)
,(1.,1.,1.,1.,1.,1.,1.))) REPRESENTATION_ITEM('') SURFACE() );
#43 = CARTESIAN_POINT('',(40.,-1.101815365161E-14,0.));
#44 = CARTESIAN_POINT('',(39.99999996449,3.490658649127,6.666666666666)
  );
#45 = CARTESIAN_POINT('',(39.634459269343,6.981316271303,13.333333333335
    ));
#46 = CARTESIAN_POINT('',(38.903376835929,10.424128406029,
    19.999999999998));
#47 = CARTESIAN_POINT('',(37.815106728161,13.771232391873,
    26.666666666669));
#48 = CARTESIAN_POINT('',(36.386345445189,16.97700091616,33.333333333333
    ));
#49 = CARTESIAN_POINT('',(34.641016151377,20.,40.));
#50 = CARTESIAN_POINT('',(40.000000000005,8.975979010263,0.));
#51 = CARTESIAN_POINT('',(39.216697995345,12.466637651417,6.666666666666
    ));
#52 = CARTESIAN_POINT('',(38.067855561453,15.875268133439,
    13.333333333335));
#53 = CARTESIAN_POINT('',(36.564207891633,19.154025753705,
    19.999999999998));
#54 = CARTESIAN_POINT('',(34.72484940579,22.256922498458,26.666666666669
    ));
#55 = CARTESIAN_POINT('',(32.576715348183,25.142077740563,
    33.333333333333));
#56 = CARTESIAN_POINT('',(30.153026646247,27.773425846728,40.));
#57 = CARTESIAN_POINT('',(31.323425552005,17.951961333747,0.));
#58 = CARTESIAN_POINT('',(29.756821296672,20.68544597592,6.666666666666)
  );
#59 = CARTESIAN_POINT('',(27.903967861477,23.254875519091,
    13.333333333335));
#60 = CARTESIAN_POINT('',(25.786336948867,25.622783169602,
    19.999999999998));
#61 = CARTESIAN_POINT('',(23.431951223112,27.755437659993,
    26.666666666669));
#62 = CARTESIAN_POINT('',(20.874362966271,29.624602270072,
    33.333333333333));
#63 = CARTESIAN_POINT('',(18.150901594729,31.208567338777,40.));
#64 = CARTESIAN_POINT('',(13.970265563913,24.656386931475,0.));
#65 = CARTESIAN_POINT('',(11.818589794231,25.875522617543,6.666666666666
    ));
#66 = CARTESIAN_POINT('',(9.539247154768,26.869335146725,13.333333333335
    ));
#67 = CARTESIAN_POINT('',(7.161729058488,27.621113857599,19.999999999998
    ));
#68 = CARTESIAN_POINT('',(4.718456223536,28.119291925192,26.666666666669
    ));
#69 = CARTESIAN_POINT('',(2.243385131194,28.358225589849,33.333333333333
    ));
#70 = CARTESIAN_POINT('',(-0.229588589812,28.338190230173,40.));
#71 = CARTESIAN_POINT('',(-9.464424589524,26.817951916495,0.));
#72 = CARTESIAN_POINT('',(-11.80473247674,25.992025004031,6.666666666666
    ));
#73 = CARTESIAN_POINT('',(-14.05854887406,24.921022037974,
    13.333333333335));
#74 = CARTESIAN_POINT('',(-16.19379626822,23.616262804529,
    19.999999999998));
#75 = CARTESIAN_POINT('',(-18.18036185217,22.094673086566,
    26.666666666669));
#76 = CARTESIAN_POINT('',(-19.9916054204,20.378242941098,33.333333333333
    ));
#77 = CARTESIAN_POINT('',(-21.60540808491,18.492815342348,40.));
#78 = CARTESIAN_POINT('',(-33.79102641618,22.979537220247,0.));
#79 = CARTESIAN_POINT('',(-35.7963693943,20.030713734023,6.666666666666)
  );
#80 = CARTESIAN_POINT('',(-37.49291193227,16.871892236746,
    13.333333333335));
#81 = CARTESIAN_POINT('',(-38.85316702494,13.543489940824,
    19.999999999998));
#82 = CARTESIAN_POINT('',(-39.85669544258,10.090739375793,
    26.666666666669));
#83 = CARTESIAN_POINT('',(-40.49138961396,6.5617773258,33.333333333333)
  );
#84 = CARTESIAN_POINT('',(-40.75365590657,3.005349791927,40.));
#85 = CARTESIAN_POINT('',(-52.36166806625,13.317704905227,0.));
#86 = CARTESIAN_POINT('',(-53.523857066,8.748287155805,6.666666666666));
#87 = CARTESIAN_POINT('',(-54.2075377541,4.05716668312,13.333333333335)
  );
#88 = CARTESIAN_POINT('',(-54.39677926489,-0.693026473035,
    19.999999999998));
#89 = CARTESIAN_POINT('',(-54.08658188909,-5.436856675757,
    26.666666666669));
#90 = CARTESIAN_POINT('',(-53.28361076833,-10.10903688753,
    33.333333333333));
#91 = CARTESIAN_POINT('',(-52.00538718243,-14.64736326519,40.));
#92 = CARTESIAN_POINT('',(-59.35314408205,3.323066266603E-10,0.));
#93 = CARTESIAN_POINT('',(-59.35314402839,-5.179539143647,6.666666666666
    ));
#94 = CARTESIAN_POINT('',(-58.81074429169,-10.35907676189,
    13.333333333335));
#95 = CARTESIAN_POINT('',(-57.72594326418,-15.46761988105,
    19.999999999998));
#96 = CARTESIAN_POINT('',(-56.11113695303,-20.43414850742,
    26.666666666669));
#97 = CARTESIAN_POINT('',(-53.99110009554,-25.1909595365,33.333333333333
    ));
#98 = CARTESIAN_POINT('',(-51.40133056975,-29.67657204062,40.));
#99 = CARTESIAN_POINT('',(-52.36166806624,-13.31770490583,0.));
#100 = CARTESIAN_POINT('',(-51.19947897528,-17.88712263157,
    6.666666666666));
#101 = CARTESIAN_POINT('',(-49.55878225643,-22.33483494891,
    13.333333333335));
#102 = CARTESIAN_POINT('',(-47.45550596446,-26.59821109944,
    19.999999999998));
#103 = CARTESIAN_POINT('',(-44.91652143012,-30.61737829463,
    26.666666666669));
#104 = CARTESIAN_POINT('',(-41.97887634915,-34.33816744899,
    33.333333333333));
#105 = CARTESIAN_POINT('',(-38.68768227695,-37.71430480178,40.));
#106 = CARTESIAN_POINT('',(-33.7910264162,-22.97953721978,0.));
#107 = CARTESIAN_POINT('',(-31.78568337677,-25.92836066525,
    6.666666666666));
#108 = CARTESIAN_POINT('',(-29.4715410772,-28.66718436193,
    13.333333333335));
#109 = CARTESIAN_POINT('',(-26.87608469032,-31.15558985853,
    19.999999999998));
#110 = CARTESIAN_POINT('',(-24.03386807677,-33.3579432511,
    26.666666666669));
#111 = CARTESIAN_POINT('',(-20.9852083922,-35.24529164714,
    33.333333333333));
#112 = CARTESIAN_POINT('',(-17.77411868648,-36.79637620757,40.));
#113 = CARTESIAN_POINT('',(-9.46442458951,-26.81795191678,0.));
#114 = CARTESIAN_POINT('',(-7.124116686284,-27.64387878159,
    6.666666666666));
#115 = CARTESIAN_POINT('',(-4.697318670153,-28.22472910845,
    13.333333333335));
#116 = CARTESIAN_POINT('',(-2.216107549922,-28.54918166444,
    19.999999999998));
#117 = CARTESIAN_POINT('',(0.285450553646,-28.61151261139,
    26.666666666669));
#118 = CARTESIAN_POINT('',(2.772814292594,-28.41212018743,
    33.333333333333));
#119 = CARTESIAN_POINT('',(5.21254383166,-27.9572399322,40.));
#120 = CARTESIAN_POINT('',(13.970265563906,-24.65638693133,0.));
#121 = CARTESIAN_POINT('',(16.121941309161,-23.4372512015,6.666666666666
    ));
#122 = CARTESIAN_POINT('',(18.145948918571,-21.99279303134,
    13.333333333335));
#123 = CARTESIAN_POINT('',(20.012796228559,-20.33972175267,
    19.999999999998));
#124 = CARTESIAN_POINT('',(21.695897942404,-18.49990324189,
    26.666666666669));
#125 = CARTESIAN_POINT('',(23.172960307326,-16.49956502598,
    33.333333333333));
#126 = CARTESIAN_POINT('',(24.426798341634,-14.3679246661,40.));
#127 = CARTESIAN_POINT('',(31.323425552007,-17.95196133379,0.));
#128 = CARTESIAN_POINT('',(32.890029751592,-15.21847665974,
    6.666666666666));
#129 = CARTESIAN_POINT('',(34.170383849539,-12.32093849534,
    13.333333333335));
#130 = CARTESIAN_POINT('',(35.143014453031,-9.296812665963,
    19.999999999998));
#131 = CARTESIAN_POINT('',(35.79298279396,-6.187329030843,
    26.666666666669));
#132 = CARTESIAN_POINT('',(36.112886166807,-3.035711055388,
    33.333333333333));
#133 = CARTESIAN_POINT('',(36.102862928484,0.114858213172,40.));
#134 = CARTESIAN_POINT('',(40.000000000005,-8.975979010252,0.));
#135 = CARTESIAN_POINT('',(40.783301933673,-5.485320353163,
    6.666666666666));
#136 = CARTESIAN_POINT('',(41.201062977214,-1.912635590787,
    13.333333333335));
#137 = CARTESIAN_POINT('',(41.242545780269,1.694231058333,
    19.999999999998));
#138 = CARTESIAN_POINT('',(40.905364050538,5.285542285325,
    26.666666666669));
#139 = CARTESIAN_POINT('',(40.195975542207,8.811924091762,
    33.333333333333));
#140 = CARTESIAN_POINT('',(39.129005656509,12.226574153289,40.));
#141 = CARTESIAN_POINT('',(40.,3.711462509945E-15,0.));
#142 = CARTESIAN_POINT('',(39.99999996449,3.490658649127,6.666666666666)
  );
#143 = CARTESIAN_POINT('',(39.634459269345,6.981316271302,
    13.333333333335));
#144 = CARTESIAN_POINT('',(38.903376835925,10.424128406029,
    19.999999999998));
#145 = CARTESIAN_POINT('',(37.815106728164,13.771232391872,
    26.666666666669));
#146 = CARTESIAN_POINT('',(36.386345445189,16.97700091616,
    33.333333333333));
#147 = CARTESIAN_POINT('',(34.641016151377,20.,40.));
#148 = DEFINITIONAL_REPRESENTATION('',(#149),#153);
#149 = LINE('',#150,#151);
#150 = CARTESIAN_POINT('',(0.,0.));
#151 = VECTOR('',#152,1.);
#152 = DIRECTION('',(1.,0.));
#153 = ( GEOMETRIC_REPRESENTATION_CONTEXT(2) 
PARAMETRIC_REPRESENTATION_CONTEXT() REPRESENTATION_CONTEXT('2D SPACE',''
  ) );
#154 = PCURVE('',#155,#160);
#155 = PLANE('',#156);
#156 = AXIS2_PLACEMENT_3D('',#157,#158,#159);
#157 = CARTESIAN_POINT('',(40.,-1.101815365161E-14,0.));
#158 = DIRECTION('',(0.,0.,-1.));
#159 = DIRECTION('',(-1.,1.932380718891E-16,0.));
#160 = DEFINITIONAL_REPRESENTATION('',(#161),#177);
#161 = B_SPLINE_CURVE_WITH_KNOTS('',14,(#162,#163,#164,#165,#166,#167,
    #168,#169,#170,#171,#172,#173,#174,#175,#176),.UNSPECIFIED.,.F.,.F.,
  (15,15),(0.,1.),.PIECEWISE_BEZIER_KNOTS.);
#162 = CARTESIAN_POINT('',(0.,0.));
#163 = CARTESIAN_POINT('',(-5.002220859751E-12,8.975979010263));
#164 = CARTESIAN_POINT('',(8.676574447995,17.951961333747));
#165 = CARTESIAN_POINT('',(26.029734436087,24.656386931475));
#166 = CARTESIAN_POINT('',(49.464424589524,26.817951916495));
#167 = CARTESIAN_POINT('',(73.791026416184,22.979537220247));
#168 = CARTESIAN_POINT('',(92.361668066257,13.317704905227));
#169 = CARTESIAN_POINT('',(99.35314408205,3.32298446004E-10));
#170 = CARTESIAN_POINT('',(92.361668066243,-13.31770490583));
#171 = CARTESIAN_POINT('',(73.791026416203,-22.97953721978));
#172 = CARTESIAN_POINT('',(49.46442458951,-26.81795191678));
#173 = CARTESIAN_POINT('',(26.029734436094,-24.65638693133));
#174 = CARTESIAN_POINT('',(8.676574447993,-17.95196133379));
#175 = CARTESIAN_POINT('',(-4.789058039023E-12,-8.975979010252));
#176 = CARTESIAN_POINT('',(-7.105427357601E-15,1.472961616155E-14));
#177 = ( GEOMETRIC_REPRESENTATION_CONTEXT(2) 
PARAMETRIC_REPRESENTATION_CONTEXT() REPRESENTATION_CONTEXT('2D SPACE',''
  ) );
#178 = ORIENTED_EDGE('',*,*,#179,.T.);
#179 = EDGE_CURVE('',#22,#180,#182,.T.);
#180 = VERTEX_POINT('',#181);
#181 = CARTESIAN_POINT('',(34.641016151378,20.,40.));
#182 = SEAM_CURVE('',#183,(#191,#198),.PCURVE_S1.);
#183 = ( BOUNDED_CURVE() B_SPLINE_CURVE(6,(#184,#185,#186,#187,#188,#189
,#190),.UNSPECIFIED.,.F.,.F.) B_SPLINE_CURVE_WITH_KNOTS((7,7),(0.,1.),
.PIECEWISE_BEZIER_KNOTS.) CURVE() GEOMETRIC_REPRESENTATION_ITEM() 
RATIONAL_B_SPLINE_CURVE((1.,1.,1.,1.,1.,1.,1.)) REPRESENTATION_ITEM('') 
  );
#184 = CARTESIAN_POINT('',(40.,-1.101815365161E-14,0.));
#185 = CARTESIAN_POINT('',(39.99999996449,3.490658649127,6.666666666666)
  );
#186 = CARTESIAN_POINT('',(39.634459269343,6.981316271303,
    13.333333333335));
#187 = CARTESIAN_POINT('',(38.903376835929,10.424128406029,
    19.999999999998));
#188 = CARTESIAN_POINT('',(37.815106728161,13.771232391873,
    26.666666666669));
#189 = CARTESIAN_POINT('',(36.386345445189,16.97700091616,
    33.333333333333));
#190 = CARTESIAN_POINT('',(34.641016151377,20.,40.));
#191 = PCURVE('',#42,#192);
#192 = DEFINITIONAL_REPRESENTATION('',(#193),#197);
#193 = LINE('',#194,#195);
#194 = CARTESIAN_POINT('',(1.,0.));
#195 = VECTOR('',#196,1.);
#196 = DIRECTION('',(0.,1.));
#197 = ( GEOMETRIC_REPRESENTATION_CONTEXT(2) 
PARAMETRIC_REPRESENTATION_CONTEXT() REPRESENTATION_CONTEXT('2D SPACE',''
  ) );
#198 = PCURVE('',#42,#199);
#199 = DEFINITIONAL_REPRESENTATION('',(#200),#204);
#200 = LINE('',#201,#202);
#201 = CARTESIAN_POINT('',(0.,0.));
#202 = VECTOR('',#203,1.);
#203 = DIRECTION('',(0.,1.));
#204 = ( GEOMETRIC_REPRESENTATION_CONTEXT(2) 
PARAMETRIC_REPRESENTATION_CONTEXT() REPRESENTATION_CONTEXT('2D SPACE',''
  ) );
#205 = ORIENTED_EDGE('',*,*,#206,.F.);
#206 = EDGE_CURVE('',#180,#180,#207,.T.);
#207 = SURFACE_CURVE('',#208,(#224,#231),.PCURVE_S1.);
#208 = B_SPLINE_CURVE_WITH_KNOTS('',14,(#209,#210,#211,#212,#213,#214,
    #215,#216,#217,#218,#219,#220,#221,#222,#223),.UNSPECIFIED.,.T.,.F.,
  (15,15),(0.,1.),.PIECEWISE_BEZIER_KNOTS.);
#209 = CARTESIAN_POINT('',(34.641016151377,20.,40.));
#210 = CARTESIAN_POINT('',(30.153026646247,27.773425846728,40.));
#211 = CARTESIAN_POINT('',(18.150901594729,31.208567338777,40.));
#212 = CARTESIAN_POINT('',(-0.229588589812,28.338190230173,40.));
#213 = CARTESIAN_POINT('',(-21.60540808491,18.492815342348,40.));
#214 = CARTESIAN_POINT('',(-40.75365590657,3.005349791927,40.));
#215 = CARTESIAN_POINT('',(-52.00538718243,-14.64736326519,40.));
#216 = CARTESIAN_POINT('',(-51.40133056975,-29.67657204062,40.));
#217 = CARTESIAN_POINT('',(-38.68768227695,-37.71430480178,40.));
#218 = CARTESIAN_POINT('',(-17.77411868648,-36.79637620757,40.));
#219 = CARTESIAN_POINT('',(5.21254383166,-27.9572399322,40.));
#220 = CARTESIAN_POINT('',(24.426798341634,-14.3679246661,40.));
#221 = CARTESIAN_POINT('',(36.102862928484,0.114858213172,40.));
#222 = CARTESIAN_POINT('',(39.129005656509,12.226574153289,40.));
#223 = CARTESIAN_POINT('',(34.641016151377,20.,40.));
#224 = PCURVE('',#42,#225);
#225 = DEFINITIONAL_REPRESENTATION('',(#226),#230);
#226 = LINE('',#227,#228);
#227 = CARTESIAN_POINT('',(0.,1.));
#228 = VECTOR('',#229,1.);
#229 = DIRECTION('',(1.,0.));
#230 = ( GEOMETRIC_REPRESENTATION_CONTEXT(2) 
PARAMETRIC_REPRESENTATION_CONTEXT() REPRESENTATION_CONTEXT('2D SPACE',''
  ) );
#231 = PCURVE('',#232,#237);
#232 = PLANE('',#233);
#233 = AXIS2_PLACEMENT_3D('',#234,#235,#236);
#234 = CARTESIAN_POINT('',(34.641016151377,20.,40.));
#235 = DIRECTION('',(0.,0.,1.));
#236 = DIRECTION('',(-0.866025403784,-0.5,0.));
#237 = DEFINITIONAL_REPRESENTATION('',(#238),#254);
#238 = B_SPLINE_CURVE_WITH_KNOTS('',14,(#239,#240,#241,#242,#243,#244,
    #245,#246,#247,#248,#249,#250,#251,#252,#253),.UNSPECIFIED.,.F.,.F.,
  (15,15),(0.,1.),.PIECEWISE_BEZIER_KNOTS.);
#239 = CARTESIAN_POINT('',(0.,0.));
#240 = CARTESIAN_POINT('',(-2.771116669464E-12,-8.975979010266));
#241 = CARTESIAN_POINT('',(8.676574447985,-17.95196133373));
#242 = CARTESIAN_POINT('',(26.029734436109,-24.65638693151));
#243 = CARTESIAN_POINT('',(49.464424589488,-26.81795191642));
#244 = CARTESIAN_POINT('',(73.791026416223,-22.97953722035));
#245 = CARTESIAN_POINT('',(92.361668066233,-13.31770490509));
#246 = CARTESIAN_POINT('',(99.353144082044,-4.596714120453E-10));
#247 = CARTESIAN_POINT('',(92.361668066276,13.317704905934));
#248 = CARTESIAN_POINT('',(73.79102641616,22.979537219722));
#249 = CARTESIAN_POINT('',(49.464424589544,26.817951916814));
#250 = CARTESIAN_POINT('',(26.029734436076,24.656386931322));
#251 = CARTESIAN_POINT('',(8.676574447999,17.951961333802));
#252 = CARTESIAN_POINT('',(-6.117772954894E-12,8.975979010252));
#253 = CARTESIAN_POINT('',(0.,1.7763568394E-14));
#254 = ( GEOMETRIC_REPRESENTATION_CONTEXT(2) 
PARAMETRIC_REPRESENTATION_CONTEXT() REPRESENTATION_CONTEXT('2D SPACE',''
  ) );
#255 = ORIENTED_EDGE('',*,*,#179,.F.);
#256 = ADVANCED_FACE('',(#257,#260),#155,.T.);
#257 = FACE_BOUND('',#258,.T.);
#258 = EDGE_LOOP('',(#259));
#259 = ORIENTED_EDGE('',*,*,#21,.F.);
#260 = FACE_BOUND('',#261,.T.);
#261 = EDGE_LOOP('',(#262));
#262 = ORIENTED_EDGE('',*,*,#263,.T.);
#263 = EDGE_CURVE('',#264,#264,#266,.T.);
#264 = VERTEX_POINT('',#265);
#265 = CARTESIAN_POINT('',(7.5,0.,0.));
#266 = SURFACE_CURVE('',#267,(#272,#283),.PCURVE_S1.);
#267 = CIRCLE('',#268,7.5);
#268 = AXIS2_PLACEMENT_3D('',#269,#270,#271);
#269 = CARTESIAN_POINT('',(0.,0.,0.));
#270 = DIRECTION('',(0.,0.,1.));
#271 = DIRECTION('',(1.,0.,0.));
#272 = PCURVE('',#155,#273);
#273 = DEFINITIONAL_REPRESENTATION('',(#274),#282);
#274 = ( BOUNDED_CURVE() B_SPLINE_CURVE(2,(#275,#276,#277,#278,#279,#280
,#281),.UNSPECIFIED.,.T.,.F.) B_SPLINE_CURVE_WITH_KNOTS((1,2,2,2,2,1),(
    -2.094395102393,0.,2.094395102393,4.188790204786,6.28318530718,
8.377580409573),.UNSPECIFIED.) CURVE() GEOMETRIC_REPRESENTATION_ITEM() 
RATIONAL_B_SPLINE_CURVE((1.,0.5,1.,0.5,1.,0.5,1.)) REPRESENTATION_ITEM(
  '') );
#275 = CARTESIAN_POINT('',(32.5,4.737916315209E-15));
#276 = CARTESIAN_POINT('',(32.5,12.990381056767));
#277 = CARTESIAN_POINT('',(43.75,6.495190528383));
#278 = CARTESIAN_POINT('',(55.,2.227029896425E-15));
#279 = CARTESIAN_POINT('',(43.75,-6.495190528383));
#280 = CARTESIAN_POINT('',(32.5,-12.99038105676));
#281 = CARTESIAN_POINT('',(32.5,4.737916315209E-15));
#282 = ( GEOMETRIC_REPRESENTATION_CONTEXT(2) 
PARAMETRIC_REPRESENTATION_CONTEXT() REPRESENTATION_CONTEXT('2D SPACE',''
  ) );
#283 = PCURVE('',#284,#289);
#284 = CYLINDRICAL_SURFACE('',#285,7.5);
#285 = AXIS2_PLACEMENT_3D('',#286,#287,#288);
#286 = CARTESIAN_POINT('',(0.,0.,0.));
#287 = DIRECTION('',(-0.,-0.,-1.));
#288 = DIRECTION('',(1.,0.,0.));
#289 = DEFINITIONAL_REPRESENTATION('',(#290),#294);
#290 = LINE('',#291,#292);
#291 = CARTESIAN_POINT('',(-0.,0.));
#292 = VECTOR('',#293,1.);
#293 = DIRECTION('',(-1.,0.));
#294 = ( GEOMETRIC_REPRESENTATION_CONTEXT(2) 
PARAMETRIC_REPRESENTATION_CONTEXT() REPRESENTATION_CONTEXT('2D SPACE',''
  ) );
#295 = ADVANCED_FACE('',(#296,#299),#232,.T.);
#296 = FACE_BOUND('',#297,.T.);
#297 = EDGE_LOOP('',(#298));
#298 = ORIENTED_EDGE('',*,*,#206,.T.);
#299 = FACE_BOUND('',#300,.T.);
#300 = EDGE_LOOP('',(#301));
#301 = ORIENTED_EDGE('',*,*,#302,.F.);
#302 = EDGE_CURVE('',#303,#303,#305,.T.);
#303 = VERTEX_POINT('',#304);
#304 = CARTESIAN_POINT('',(7.5,0.,40.));
#305 = SURFACE_CURVE('',#306,(#311,#318),.PCURVE_S1.);
#306 = CIRCLE('',#307,7.5);
#307 = AXIS2_PLACEMENT_3D('',#308,#309,#310);
#308 = CARTESIAN_POINT('',(0.,0.,40.));
#309 = DIRECTION('',(0.,0.,1.));
#310 = DIRECTION('',(1.,0.,0.));
#311 = PCURVE('',#232,#312);
#312 = DEFINITIONAL_REPRESENTATION('',(#313),#317);
#313 = CIRCLE('',#314,7.5);
#314 = AXIS2_PLACEMENT_2D('',#315,#316);
#315 = CARTESIAN_POINT('',(40.,3.907985046681E-14));
#316 = DIRECTION('',(-0.866025403784,0.5));
#317 = ( GEOMETRIC_REPRESENTATION_CONTEXT(2) 
PARAMETRIC_REPRESENTATION_CONTEXT() REPRESENTATION_CONTEXT('2D SPACE',''
  ) );
#318 = PCURVE('',#284,#319);
#319 = DEFINITIONAL_REPRESENTATION('',(#320),#324);
#320 = LINE('',#321,#322);
#321 = CARTESIAN_POINT('',(-0.,-40.));
#322 = VECTOR('',#323,1.);
#323 = DIRECTION('',(-1.,0.));
#324 = ( GEOMETRIC_REPRESENTATION_CONTEXT(2) 
PARAMETRIC_REPRESENTATION_CONTEXT() REPRESENTATION_CONTEXT('2D SPACE',''
  ) );
#325 = ADVANCED_FACE('',(#326),#284,.F.);
#326 = FACE_BOUND('',#327,.T.);
#327 = EDGE_LOOP('',(#328,#349,#350,#351));
#328 = ORIENTED_EDGE('',*,*,#329,.T.);
#329 = EDGE_CURVE('',#264,#303,#330,.T.);
#330 = SEAM_CURVE('',#331,(#335,#342),.PCURVE_S1.);
#331 = LINE('',#332,#333);
#332 = CARTESIAN_POINT('',(7.5,0.,0.));
#333 = VECTOR('',#334,1.);
#334 = DIRECTION('',(0.,0.,1.));
#335 = PCURVE('',#284,#336);
#336 = DEFINITIONAL_REPRESENTATION('',(#337),#341);
#337 = LINE('',#338,#339);
#338 = CARTESIAN_POINT('',(-0.,0.));
#339 = VECTOR('',#340,1.);
#340 = DIRECTION('',(-0.,-1.));
#341 = ( GEOMETRIC_REPRESENTATION_CONTEXT(2) 
PARAMETRIC_REPRESENTATION_CONTEXT() REPRESENTATION_CONTEXT('2D SPACE',''
  ) );
#342 = PCURVE('',#284,#343);
#343 = DEFINITIONAL_REPRESENTATION('',(#344),#348);
#344 = LINE('',#345,#346);
#345 = CARTESIAN_POINT('',(-6.28318530718,0.));
#346 = VECTOR('',#347,1.);
#347 = DIRECTION('',(-0.,-1.));
#348 = ( GEOMETRIC_REPRESENTATION_CONTEXT(2) 
PARAMETRIC_REPRESENTATION_CONTEXT() REPRESENTATION_CONTEXT('2D SPACE',''
  ) );
#349 = ORIENTED_EDGE('',*,*,#302,.T.);
#350 = ORIENTED_EDGE('',*,*,#329,.F.);
#351 = ORIENTED_EDGE('',*,*,#263,.F.);
#352 = ( GEOMETRIC_REPRESENTATION_CONTEXT(3) 
GLOBAL_UNCERTAINTY_ASSIGNED_CONTEXT((#356)) GLOBAL_UNIT_ASSIGNED_CONTEXT
((#353,#354,#355)) REPRESENTATION_CONTEXT('Context #1',
  '3D Context with UNIT and UNCERTAINTY') );
#353 = ( LENGTH_UNIT() NAMED_UNIT(*) SI_UNIT(.MILLI.,.METRE.) );
#354 = ( NAMED_UNIT(*) PLANE_ANGLE_UNIT() SI_UNIT($,.RADIAN.) );
#355 = ( NAMED_UNIT(*) SI_UNIT($,.STERADIAN.) SOLID_ANGLE_UNIT() );
#356 = UNCERTAINTY_MEASURE_WITH_UNIT(LENGTH_MEASURE(1.E-07),#353,
  'distance_accuracy_value','confusion accuracy');
#357 = PRODUCT_RELATED_PRODUCT_CATEGORY('part',$,(#7));
ENDSEC;
END-ISO-10303-21;
