ISO-10303-21;
HEADER;
FILE_DESCRIPTION(('Open CASCADE Model'),'2;1');
FILE_NAME('Open CASCADE Shape Model','2026-08-07T02:34:18',('Author'),(
    'Open CASCADE'),'Open CASCADE STEP processor 7.7','Open CASCADE 7.7'
  ,'Unknown');
FILE_SCHEMA(('AUTOMOTIVE_DESIGN { 1 0 10303 214 1 1 1 1 }'));
ENDSEC;
DATA;
#1 = APPLICATION_PROTOCOL_DEFINITION('international standard',
  'automotive_design',2000,#2);
#2 = APPLICATION_CONTEXT(
  'core data for automotive mechanical design processes');
#3 = SHAPE_DEFINITION_REPRESENTATION(#4,#10);
#4 = PRODUCT_DEFINITION_SHAPE('','',#5);
#5 = PRODUCT_DEFINITION('design','',#6,#9);
#6 = PRODUCT_DEFINITION_FORMATION('','',#7);
#7 = PRODUCT('Open CASCADE STEP translator 7.7 42',
  'Open CASCADE STEP translator 7.7 42','',(#8));
#8 = PRODUCT_CONTEXT('',#2,'mechanical');
#9 = PRODUCT_DEFINITION_CONTEXT('part definition',#2,'design');
#10 = ADVANCED_BREP_SHAPE_REPRESENTATION('',(#11,#15),#1807);
#11 = AXIS2_PLACEMENT_3D('',#12,#13,#14);
#12 = CARTESIAN_POINT('',(0.,0.,0.));
#13 = DIRECTION('',(0.,0.,1.));
#14 = DIRECTION('',(1.,0.,-0.));
#15 = MANIFOLD_SOLID_BREP('',#16);
#16 = CLOSED_SHELL('',(#17,#259,#335,#385,#1149,#1176,#1252,#1299,#1353,
    #1378,#1391,#1467,#1516,#1565,#1592,#1668,#1717,#1766,#1793,#1800));
#17 = ADVANCED_FACE('',(#18,#139),#32,.F.);
#18 = FACE_BOUND('',#19,.F.);
#19 = EDGE_LOOP('',(#20,#55,#84,#112));
#20 = ORIENTED_EDGE('',*,*,#21,.T.);
#21 = EDGE_CURVE('',#22,#24,#26,.T.);
#22 = VERTEX_POINT('',#23);
#23 = CARTESIAN_POINT('',(-10.,-7.,0.));
#24 = VERTEX_POINT('',#25);
#25 = CARTESIAN_POINT('',(10.,-7.,0.));
#26 = SURFACE_CURVE('',#27,(#31,#43),.PCURVE_S1.);
#27 = LINE('',#28,#29);
#28 = CARTESIAN_POINT('',(-10.,-7.,0.));
#29 = VECTOR('',#30,1.);
#30 = DIRECTION('',(1.,0.,0.));
#31 = PCURVE('',#32,#37);
#32 = PLANE('',#33);
#33 = AXIS2_PLACEMENT_3D('',#34,#35,#36);
#34 = CARTESIAN_POINT('',(-8.665155314148E-16,-8.665155314148E-17,0.));
#35 = DIRECTION('',(0.,0.,1.));
#36 = DIRECTION('',(1.,0.,-0.));
#37 = DEFINITIONAL_REPRESENTATION('',(#38),#42);
#38 = LINE('',#39,#40);
#39 = CARTESIAN_POINT('',(-10.,-7.));
#40 = VECTOR('',#41,1.);
#41 = DIRECTION('',(1.,0.));
#42 = ( GEOMETRIC_REPRESENTATION_CONTEXT(2) 
PARAMETRIC_REPRESENTATION_CONTEXT() REPRESENTATION_CONTEXT('2D SPACE',''
  ) );
#43 = PCURVE('',#44,#49);
#44 = CYLINDRICAL_SURFACE('',#45,3.);
#45 = AXIS2_PLACEMENT_3D('',#46,#47,#48);
#46 = CARTESIAN_POINT('',(-10.,-7.,3.));
#47 = DIRECTION('',(1.,0.,0.));
#48 = DIRECTION('',(-0.,1.,0.));
#49 = DEFINITIONAL_REPRESENTATION('',(#50),#54);
#50 = LINE('',#51,#52);
#51 = CARTESIAN_POINT('',(4.712388980385,0.));
#52 = VECTOR('',#53,1.);
#53 = DIRECTION('',(0.,1.));
#54 = ( GEOMETRIC_REPRESENTATION_CONTEXT(2) 
PARAMETRIC_REPRESENTATION_CONTEXT() REPRESENTATION_CONTEXT('2D SPACE',''
  ) );
#55 = ORIENTED_EDGE('',*,*,#56,.T.);
#56 = EDGE_CURVE('',#24,#57,#59,.T.);
#57 = VERTEX_POINT('',#58);
#58 = CARTESIAN_POINT('',(10.,7.,0.));
#59 = SURFACE_CURVE('',#60,(#65,#72),.PCURVE_S1.);
#60 = CIRCLE('',#61,7.);
#61 = AXIS2_PLACEMENT_3D('',#62,#63,#64);
#62 = CARTESIAN_POINT('',(10.,0.,0.));
#63 = DIRECTION('',(0.,0.,1.));
#64 = DIRECTION('',(-0.,-1.,0.));
#65 = PCURVE('',#32,#66);
#66 = DEFINITIONAL_REPRESENTATION('',(#67),#71);
#67 = CIRCLE('',#68,7.);
#68 = AXIS2_PLACEMENT_2D('',#69,#70);
#69 = CARTESIAN_POINT('',(10.,8.665155314148E-17));
#70 = DIRECTION('',(0.,-1.));
#71 = ( GEOMETRIC_REPRESENTATION_CONTEXT(2) 
PARAMETRIC_REPRESENTATION_CONTEXT() REPRESENTATION_CONTEXT('2D SPACE',''
  ) );
#72 = PCURVE('',#73,#78);
#73 = TOROIDAL_SURFACE('',#74,7.,3.);
#74 = AXIS2_PLACEMENT_3D('',#75,#76,#77);
#75 = CARTESIAN_POINT('',(10.,0.,3.));
#76 = DIRECTION('',(-0.,0.,1.));
#77 = DIRECTION('',(0.,-1.,0.));
#78 = DEFINITIONAL_REPRESENTATION('',(#79),#83);
#79 = LINE('',#80,#81);
#80 = CARTESIAN_POINT('',(0.,4.712388980385));
#81 = VECTOR('',#82,1.);
#82 = DIRECTION('',(1.,0.));
#83 = ( GEOMETRIC_REPRESENTATION_CONTEXT(2) 
PARAMETRIC_REPRESENTATION_CONTEXT() REPRESENTATION_CONTEXT('2D SPACE',''
  ) );
#84 = ORIENTED_EDGE('',*,*,#85,.T.);
#85 = EDGE_CURVE('',#57,#86,#88,.T.);
#86 = VERTEX_POINT('',#87);
#87 = CARTESIAN_POINT('',(-10.,7.,0.));
#88 = SURFACE_CURVE('',#89,(#93,#100),.PCURVE_S1.);
#89 = LINE('',#90,#91);
#90 = CARTESIAN_POINT('',(10.,7.,0.));
#91 = VECTOR('',#92,1.);
#92 = DIRECTION('',(-1.,0.,0.));
#93 = PCURVE('',#32,#94);
#94 = DEFINITIONAL_REPRESENTATION('',(#95),#99);
#95 = LINE('',#96,#97);
#96 = CARTESIAN_POINT('',(10.,7.));
#97 = VECTOR('',#98,1.);
#98 = DIRECTION('',(-1.,0.));
#99 = ( GEOMETRIC_REPRESENTATION_CONTEXT(2) 
PARAMETRIC_REPRESENTATION_CONTEXT() REPRESENTATION_CONTEXT('2D SPACE',''
  ) );
#100 = PCURVE('',#101,#106);
#101 = CYLINDRICAL_SURFACE('',#102,3.);
#102 = AXIS2_PLACEMENT_3D('',#103,#104,#105);
#103 = CARTESIAN_POINT('',(10.,7.,3.));
#104 = DIRECTION('',(-1.,0.,0.));
#105 = DIRECTION('',(-0.,-1.,0.));
#106 = DEFINITIONAL_REPRESENTATION('',(#107),#111);
#107 = LINE('',#108,#109);
#108 = CARTESIAN_POINT('',(4.712388980385,0.));
#109 = VECTOR('',#110,1.);
#110 = DIRECTION('',(0.,1.));
#111 = ( GEOMETRIC_REPRESENTATION_CONTEXT(2) 
PARAMETRIC_REPRESENTATION_CONTEXT() REPRESENTATION_CONTEXT('2D SPACE',''
  ) );
#112 = ORIENTED_EDGE('',*,*,#113,.T.);
#113 = EDGE_CURVE('',#86,#22,#114,.T.);
#114 = SURFACE_CURVE('',#115,(#120,#127),.PCURVE_S1.);
#115 = CIRCLE('',#116,7.);
#116 = AXIS2_PLACEMENT_3D('',#117,#118,#119);
#117 = CARTESIAN_POINT('',(-10.,0.,0.));
#118 = DIRECTION('',(0.,-0.,1.));
#119 = DIRECTION('',(0.,1.,0.));
#120 = PCURVE('',#32,#121);
#121 = DEFINITIONAL_REPRESENTATION('',(#122),#126);
#122 = CIRCLE('',#123,7.);
#123 = AXIS2_PLACEMENT_2D('',#124,#125);
#124 = CARTESIAN_POINT('',(-10.,8.665155314148E-17));
#125 = DIRECTION('',(0.,1.));
#126 = ( GEOMETRIC_REPRESENTATION_CONTEXT(2) 
PARAMETRIC_REPRESENTATION_CONTEXT() REPRESENTATION_CONTEXT('2D SPACE',''
  ) );
#127 = PCURVE('',#128,#133);
#128 = TOROIDAL_SURFACE('',#129,7.,3.);
#129 = AXIS2_PLACEMENT_3D('',#130,#131,#132);
#130 = CARTESIAN_POINT('',(-10.,0.,3.));
#131 = DIRECTION('',(0.,-0.,1.));
#132 = DIRECTION('',(0.,1.,0.));
#133 = DEFINITIONAL_REPRESENTATION('',(#134),#138);
#134 = LINE('',#135,#136);
#135 = CARTESIAN_POINT('',(0.,4.712388980385));
#136 = VECTOR('',#137,1.);
#137 = DIRECTION('',(1.,0.));
#138 = ( GEOMETRIC_REPRESENTATION_CONTEXT(2) 
PARAMETRIC_REPRESENTATION_CONTEXT() REPRESENTATION_CONTEXT('2D SPACE',''
  ) );
#139 = FACE_BOUND('',#140,.F.);
#140 = EDGE_LOOP('',(#141,#176,#202,#235));
#141 = ORIENTED_EDGE('',*,*,#142,.T.);
#142 = EDGE_CURVE('',#143,#145,#147,.T.);
#143 = VERTEX_POINT('',#144);
#144 = CARTESIAN_POINT('',(5.,5.,0.));
#145 = VERTEX_POINT('',#146);
#146 = CARTESIAN_POINT('',(5.,-5.,0.));
#147 = SURFACE_CURVE('',#148,(#153,#164),.PCURVE_S1.);
#148 = CIRCLE('',#149,5.);
#149 = AXIS2_PLACEMENT_3D('',#150,#151,#152);
#150 = CARTESIAN_POINT('',(5.,4.440892098501E-16,0.));
#151 = DIRECTION('',(-0.,0.,-1.));
#152 = DIRECTION('',(-0.,-1.,0.));
#153 = PCURVE('',#32,#154);
#154 = DEFINITIONAL_REPRESENTATION('',(#155),#163);
#155 = ( BOUNDED_CURVE() B_SPLINE_CURVE(2,(#156,#157,#158,#159,#160,#161
,#162),.UNSPECIFIED.,.T.,.F.) B_SPLINE_CURVE_WITH_KNOTS((1,2,2,2,2,1),(
    -2.094395102393,0.,2.094395102393,4.188790204786,6.28318530718,
8.377580409573),.UNSPECIFIED.) CURVE() GEOMETRIC_REPRESENTATION_ITEM() 
RATIONAL_B_SPLINE_CURVE((1.,0.5,1.,0.5,1.,0.5,1.)) REPRESENTATION_ITEM(
  '') );
#156 = CARTESIAN_POINT('',(5.,-5.));
#157 = CARTESIAN_POINT('',(-3.660254037844,-5.));
#158 = CARTESIAN_POINT('',(0.669872981078,2.5));
#159 = CARTESIAN_POINT('',(5.,10.));
#160 = CARTESIAN_POINT('',(9.330127018922,2.5));
#161 = CARTESIAN_POINT('',(13.660254037844,-5.));
#162 = CARTESIAN_POINT('',(5.,-5.));
#163 = ( GEOMETRIC_REPRESENTATION_CONTEXT(2) 
PARAMETRIC_REPRESENTATION_CONTEXT() REPRESENTATION_CONTEXT('2D SPACE',''
  ) );
#164 = PCURVE('',#165,#170);
#165 = CYLINDRICAL_SURFACE('',#166,5.);
#166 = AXIS2_PLACEMENT_3D('',#167,#168,#169);
#167 = CARTESIAN_POINT('',(5.,4.440892098501E-16,-1.));
#168 = DIRECTION('',(-0.,-0.,-1.));
#169 = DIRECTION('',(-0.,-1.,0.));
#170 = DEFINITIONAL_REPRESENTATION('',(#171),#175);
#171 = LINE('',#172,#173);
#172 = CARTESIAN_POINT('',(-6.28318530718,-1.));
#173 = VECTOR('',#174,1.);
#174 = DIRECTION('',(1.,-0.));
#175 = ( GEOMETRIC_REPRESENTATION_CONTEXT(2) 
PARAMETRIC_REPRESENTATION_CONTEXT() REPRESENTATION_CONTEXT('2D SPACE',''
  ) );
#176 = ORIENTED_EDGE('',*,*,#177,.T.);
#177 = EDGE_CURVE('',#145,#178,#180,.T.);
#178 = VERTEX_POINT('',#179);
#179 = CARTESIAN_POINT('',(-5.,-5.,0.));
#180 = SURFACE_CURVE('',#181,(#185,#191),.PCURVE_S1.);
#181 = LINE('',#182,#183);
#182 = CARTESIAN_POINT('',(-2.5,-5.,0.));
#183 = VECTOR('',#184,1.);
#184 = DIRECTION('',(-1.,0.,0.));
#185 = PCURVE('',#32,#186);
#186 = DEFINITIONAL_REPRESENTATION('',(#187),#190);
#187 = B_SPLINE_CURVE_WITH_KNOTS('',1,(#188,#189),.UNSPECIFIED.,.F.,.F.,
  (2,2),(-7.5,2.5),.PIECEWISE_BEZIER_KNOTS.);
#188 = CARTESIAN_POINT('',(5.,-5.));
#189 = CARTESIAN_POINT('',(-5.,-5.));
#190 = ( GEOMETRIC_REPRESENTATION_CONTEXT(2) 
PARAMETRIC_REPRESENTATION_CONTEXT() REPRESENTATION_CONTEXT('2D SPACE',''
  ) );
#191 = PCURVE('',#192,#197);
#192 = PLANE('',#193);
#193 = AXIS2_PLACEMENT_3D('',#194,#195,#196);
#194 = CARTESIAN_POINT('',(-5.,-5.,-1.));
#195 = DIRECTION('',(0.,1.,0.));
#196 = DIRECTION('',(1.,0.,0.));
#197 = DEFINITIONAL_REPRESENTATION('',(#198),#201);
#198 = B_SPLINE_CURVE_WITH_KNOTS('',1,(#199,#200),.UNSPECIFIED.,.F.,.F.,
  (2,2),(-7.5,2.5),.PIECEWISE_BEZIER_KNOTS.);
#199 = CARTESIAN_POINT('',(10.,-1.));
#200 = CARTESIAN_POINT('',(-8.881784197001E-16,-1.));
#201 = ( GEOMETRIC_REPRESENTATION_CONTEXT(2) 
PARAMETRIC_REPRESENTATION_CONTEXT() REPRESENTATION_CONTEXT('2D SPACE',''
  ) );
#202 = ORIENTED_EDGE('',*,*,#203,.T.);
#203 = EDGE_CURVE('',#178,#204,#206,.T.);
#204 = VERTEX_POINT('',#205);
#205 = CARTESIAN_POINT('',(-5.,5.,0.));
#206 = SURFACE_CURVE('',#207,(#212,#223),.PCURVE_S1.);
#207 = CIRCLE('',#208,5.);
#208 = AXIS2_PLACEMENT_3D('',#209,#210,#211);
#209 = CARTESIAN_POINT('',(-5.,-4.440892098501E-16,0.));
#210 = DIRECTION('',(0.,-0.,-1.));
#211 = DIRECTION('',(1.7763568394E-16,1.,-0.));
#212 = PCURVE('',#32,#213);
#213 = DEFINITIONAL_REPRESENTATION('',(#214),#222);
#214 = ( BOUNDED_CURVE() B_SPLINE_CURVE(2,(#215,#216,#217,#218,#219,#220
,#221),.UNSPECIFIED.,.T.,.F.) B_SPLINE_CURVE_WITH_KNOTS((1,2,2,2,2,1),(
    -2.094395102393,0.,2.094395102393,4.188790204786,6.28318530718,
8.377580409573),.UNSPECIFIED.) CURVE() GEOMETRIC_REPRESENTATION_ITEM() 
RATIONAL_B_SPLINE_CURVE((1.,0.5,1.,0.5,1.,0.5,1.)) REPRESENTATION_ITEM(
  '') );
#215 = CARTESIAN_POINT('',(-5.,5.));
#216 = CARTESIAN_POINT('',(3.660254037844,5.));
#217 = CARTESIAN_POINT('',(-0.669872981078,-2.5));
#218 = CARTESIAN_POINT('',(-5.,-10.));
#219 = CARTESIAN_POINT('',(-9.330127018922,-2.5));
#220 = CARTESIAN_POINT('',(-13.66025403784,5.));
#221 = CARTESIAN_POINT('',(-5.,5.));
#222 = ( GEOMETRIC_REPRESENTATION_CONTEXT(2) 
PARAMETRIC_REPRESENTATION_CONTEXT() REPRESENTATION_CONTEXT('2D SPACE',''
  ) );
#223 = PCURVE('',#224,#229);
#224 = CYLINDRICAL_SURFACE('',#225,5.);
#225 = AXIS2_PLACEMENT_3D('',#226,#227,#228);
#226 = CARTESIAN_POINT('',(-5.,-4.440892098501E-16,-1.));
#227 = DIRECTION('',(-0.,-0.,-1.));
#228 = DIRECTION('',(1.7763568394E-16,1.,-0.));
#229 = DEFINITIONAL_REPRESENTATION('',(#230),#234);
#230 = LINE('',#231,#232);
#231 = CARTESIAN_POINT('',(-6.28318530718,-1.));
#232 = VECTOR('',#233,1.);
#233 = DIRECTION('',(1.,-0.));
#234 = ( GEOMETRIC_REPRESENTATION_CONTEXT(2) 
PARAMETRIC_REPRESENTATION_CONTEXT() REPRESENTATION_CONTEXT('2D SPACE',''
  ) );
#235 = ORIENTED_EDGE('',*,*,#236,.T.);
#236 = EDGE_CURVE('',#204,#143,#237,.T.);
#237 = SURFACE_CURVE('',#238,(#242,#248),.PCURVE_S1.);
#238 = LINE('',#239,#240);
#239 = CARTESIAN_POINT('',(2.5,5.,0.));
#240 = VECTOR('',#241,1.);
#241 = DIRECTION('',(1.,0.,-0.));
#242 = PCURVE('',#32,#243);
#243 = DEFINITIONAL_REPRESENTATION('',(#244),#247);
#244 = B_SPLINE_CURVE_WITH_KNOTS('',1,(#245,#246),.UNSPECIFIED.,.F.,.F.,
  (2,2),(-7.5,2.5),.PIECEWISE_BEZIER_KNOTS.);
#245 = CARTESIAN_POINT('',(-5.,5.));
#246 = CARTESIAN_POINT('',(5.,5.));
#247 = ( GEOMETRIC_REPRESENTATION_CONTEXT(2) 
PARAMETRIC_REPRESENTATION_CONTEXT() REPRESENTATION_CONTEXT('2D SPACE',''
  ) );
#248 = PCURVE('',#249,#254);
#249 = PLANE('',#250);
#250 = AXIS2_PLACEMENT_3D('',#251,#252,#253);
#251 = CARTESIAN_POINT('',(5.,5.,-1.));
#252 = DIRECTION('',(0.,-1.,0.));
#253 = DIRECTION('',(-1.,0.,0.));
#254 = DEFINITIONAL_REPRESENTATION('',(#255),#258);
#255 = B_SPLINE_CURVE_WITH_KNOTS('',1,(#256,#257),.UNSPECIFIED.,.F.,.F.,
  (2,2),(-7.5,2.5),.PIECEWISE_BEZIER_KNOTS.);
#256 = CARTESIAN_POINT('',(10.,-1.));
#257 = CARTESIAN_POINT('',(0.,-1.));
#258 = ( GEOMETRIC_REPRESENTATION_CONTEXT(2) 
PARAMETRIC_REPRESENTATION_CONTEXT() REPRESENTATION_CONTEXT('2D SPACE',''
  ) );
#259 = ADVANCED_FACE('',(#260),#44,.T.);
#260 = FACE_BOUND('',#261,.T.);
#261 = EDGE_LOOP('',(#262,#292,#313,#314));
#262 = ORIENTED_EDGE('',*,*,#263,.F.);
#263 = EDGE_CURVE('',#264,#266,#268,.T.);
#264 = VERTEX_POINT('',#265);
#265 = CARTESIAN_POINT('',(-10.,-7.,6.));
#266 = VERTEX_POINT('',#267);
#267 = CARTESIAN_POINT('',(10.,-7.,6.));
#268 = SURFACE_CURVE('',#269,(#273,#280),.PCURVE_S1.);
#269 = LINE('',#270,#271);
#270 = CARTESIAN_POINT('',(-10.,-7.,6.));
#271 = VECTOR('',#272,1.);
#272 = DIRECTION('',(1.,0.,0.));
#273 = PCURVE('',#44,#274);
#274 = DEFINITIONAL_REPRESENTATION('',(#275),#279);
#275 = LINE('',#276,#277);
#276 = CARTESIAN_POINT('',(1.570796326795,0.));
#277 = VECTOR('',#278,1.);
#278 = DIRECTION('',(0.,1.));
#279 = ( GEOMETRIC_REPRESENTATION_CONTEXT(2) 
PARAMETRIC_REPRESENTATION_CONTEXT() REPRESENTATION_CONTEXT('2D SPACE',''
  ) );
#280 = PCURVE('',#281,#286);
#281 = PLANE('',#282);
#282 = AXIS2_PLACEMENT_3D('',#283,#284,#285);
#283 = CARTESIAN_POINT('',(-8.665155314148E-16,-8.665155314148E-17,6.));
#284 = DIRECTION('',(0.,0.,1.));
#285 = DIRECTION('',(1.,0.,-0.));
#286 = DEFINITIONAL_REPRESENTATION('',(#287),#291);
#287 = LINE('',#288,#289);
#288 = CARTESIAN_POINT('',(-10.,-7.));
#289 = VECTOR('',#290,1.);
#290 = DIRECTION('',(1.,0.));
#291 = ( GEOMETRIC_REPRESENTATION_CONTEXT(2) 
PARAMETRIC_REPRESENTATION_CONTEXT() REPRESENTATION_CONTEXT('2D SPACE',''
  ) );
#292 = ORIENTED_EDGE('',*,*,#293,.T.);
#293 = EDGE_CURVE('',#264,#22,#294,.T.);
#294 = SURFACE_CURVE('',#295,(#300,#307),.PCURVE_S1.);
#295 = CIRCLE('',#296,3.);
#296 = AXIS2_PLACEMENT_3D('',#297,#298,#299);
#297 = CARTESIAN_POINT('',(-10.,-7.,3.));
#298 = DIRECTION('',(1.,0.,0.));
#299 = DIRECTION('',(-0.,1.,0.));
#300 = PCURVE('',#44,#301);
#301 = DEFINITIONAL_REPRESENTATION('',(#302),#306);
#302 = LINE('',#303,#304);
#303 = CARTESIAN_POINT('',(0.,0.));
#304 = VECTOR('',#305,1.);
#305 = DIRECTION('',(1.,0.));
#306 = ( GEOMETRIC_REPRESENTATION_CONTEXT(2) 
PARAMETRIC_REPRESENTATION_CONTEXT() REPRESENTATION_CONTEXT('2D SPACE',''
  ) );
#307 = PCURVE('',#128,#308);
#308 = DEFINITIONAL_REPRESENTATION('',(#309),#312);
#309 = B_SPLINE_CURVE_WITH_KNOTS('',1,(#310,#311),.UNSPECIFIED.,.F.,.F.,
  (2,2),(0.,6.28318530718),.PIECEWISE_BEZIER_KNOTS.);
#310 = CARTESIAN_POINT('',(3.14159265359,9.424777960769));
#311 = CARTESIAN_POINT('',(3.14159265359,3.14159265359));
#312 = ( GEOMETRIC_REPRESENTATION_CONTEXT(2) 
PARAMETRIC_REPRESENTATION_CONTEXT() REPRESENTATION_CONTEXT('2D SPACE',''
  ) );
#313 = ORIENTED_EDGE('',*,*,#21,.T.);
#314 = ORIENTED_EDGE('',*,*,#315,.F.);
#315 = EDGE_CURVE('',#266,#24,#316,.T.);
#316 = SURFACE_CURVE('',#317,(#322,#329),.PCURVE_S1.);
#317 = CIRCLE('',#318,3.);
#318 = AXIS2_PLACEMENT_3D('',#319,#320,#321);
#319 = CARTESIAN_POINT('',(10.,-7.,3.));
#320 = DIRECTION('',(1.,0.,0.));
#321 = DIRECTION('',(-0.,1.,0.));
#322 = PCURVE('',#44,#323);
#323 = DEFINITIONAL_REPRESENTATION('',(#324),#328);
#324 = LINE('',#325,#326);
#325 = CARTESIAN_POINT('',(0.,20.));
#326 = VECTOR('',#327,1.);
#327 = DIRECTION('',(1.,0.));
#328 = ( GEOMETRIC_REPRESENTATION_CONTEXT(2) 
PARAMETRIC_REPRESENTATION_CONTEXT() REPRESENTATION_CONTEXT('2D SPACE',''
  ) );
#329 = PCURVE('',#73,#330);
#330 = DEFINITIONAL_REPRESENTATION('',(#331),#334);
#331 = B_SPLINE_CURVE_WITH_KNOTS('',1,(#332,#333),.UNSPECIFIED.,.F.,.F.,
  (2,2),(0.,6.28318530718),.PIECEWISE_BEZIER_KNOTS.);
#332 = CARTESIAN_POINT('',(0.,9.424777960769));
#333 = CARTESIAN_POINT('',(0.,3.14159265359));
#334 = ( GEOMETRIC_REPRESENTATION_CONTEXT(2) 
PARAMETRIC_REPRESENTATION_CONTEXT() REPRESENTATION_CONTEXT('2D SPACE',''
  ) );
#335 = ADVANCED_FACE('',(#336),#128,.T.);
#336 = FACE_BOUND('',#337,.T.);
#337 = EDGE_LOOP('',(#338,#362,#383,#384));
#338 = ORIENTED_EDGE('',*,*,#339,.F.);
#339 = EDGE_CURVE('',#340,#264,#342,.T.);
#340 = VERTEX_POINT('',#341);
#341 = CARTESIAN_POINT('',(-10.,7.,6.));
#342 = SURFACE_CURVE('',#343,(#348,#355),.PCURVE_S1.);
#343 = CIRCLE('',#344,7.);
#344 = AXIS2_PLACEMENT_3D('',#345,#346,#347);
#345 = CARTESIAN_POINT('',(-10.,0.,6.));
#346 = DIRECTION('',(0.,-0.,1.));
#347 = DIRECTION('',(0.,1.,0.));
#348 = PCURVE('',#128,#349);
#349 = DEFINITIONAL_REPRESENTATION('',(#350),#354);
#350 = LINE('',#351,#352);
#351 = CARTESIAN_POINT('',(0.,7.853981633974));
#352 = VECTOR('',#353,1.);
#353 = DIRECTION('',(1.,0.));
#354 = ( GEOMETRIC_REPRESENTATION_CONTEXT(2) 
PARAMETRIC_REPRESENTATION_CONTEXT() REPRESENTATION_CONTEXT('2D SPACE',''
  ) );
#355 = PCURVE('',#281,#356);
#356 = DEFINITIONAL_REPRESENTATION('',(#357),#361);
#357 = CIRCLE('',#358,7.);
#358 = AXIS2_PLACEMENT_2D('',#359,#360);
#359 = CARTESIAN_POINT('',(-10.,8.665155314148E-17));
#360 = DIRECTION('',(0.,1.));
#361 = ( GEOMETRIC_REPRESENTATION_CONTEXT(2) 
PARAMETRIC_REPRESENTATION_CONTEXT() REPRESENTATION_CONTEXT('2D SPACE',''
  ) );
#362 = ORIENTED_EDGE('',*,*,#363,.T.);
#363 = EDGE_CURVE('',#340,#86,#364,.T.);
#364 = SURFACE_CURVE('',#365,(#370,#376),.PCURVE_S1.);
#365 = CIRCLE('',#366,3.);
#366 = AXIS2_PLACEMENT_3D('',#367,#368,#369);
#367 = CARTESIAN_POINT('',(-10.,7.,3.));
#368 = DIRECTION('',(-1.,0.,0.));
#369 = DIRECTION('',(-0.,-1.,0.));
#370 = PCURVE('',#128,#371);
#371 = DEFINITIONAL_REPRESENTATION('',(#372),#375);
#372 = B_SPLINE_CURVE_WITH_KNOTS('',1,(#373,#374),.UNSPECIFIED.,.F.,.F.,
  (2,2),(0.,6.28318530718),.PIECEWISE_BEZIER_KNOTS.);
#373 = CARTESIAN_POINT('',(0.,9.424777960769));
#374 = CARTESIAN_POINT('',(0.,3.14159265359));
#375 = ( GEOMETRIC_REPRESENTATION_CONTEXT(2) 
PARAMETRIC_REPRESENTATION_CONTEXT() REPRESENTATION_CONTEXT('2D SPACE',''
  ) );
#376 = PCURVE('',#101,#377);
#377 = DEFINITIONAL_REPRESENTATION('',(#378),#382);
#378 = LINE('',#379,#380);
#379 = CARTESIAN_POINT('',(0.,20.));
#380 = VECTOR('',#381,1.);
#381 = DIRECTION('',(1.,0.));
#382 = ( GEOMETRIC_REPRESENTATION_CONTEXT(2) 
PARAMETRIC_REPRESENTATION_CONTEXT() REPRESENTATION_CONTEXT('2D SPACE',''
  ) );
#383 = ORIENTED_EDGE('',*,*,#113,.T.);
#384 = ORIENTED_EDGE('',*,*,#293,.F.);
#385 = ADVANCED_FACE('',(#386,#435,#792),#73,.T.);
#386 = FACE_BOUND('',#387,.T.);
#387 = EDGE_LOOP('',(#388,#412,#413,#414));
#388 = ORIENTED_EDGE('',*,*,#389,.F.);
#389 = EDGE_CURVE('',#266,#390,#392,.T.);
#390 = VERTEX_POINT('',#391);
#391 = CARTESIAN_POINT('',(10.,7.,6.));
#392 = SURFACE_CURVE('',#393,(#398,#405),.PCURVE_S1.);
#393 = CIRCLE('',#394,7.);
#394 = AXIS2_PLACEMENT_3D('',#395,#396,#397);
#395 = CARTESIAN_POINT('',(10.,0.,6.));
#396 = DIRECTION('',(0.,0.,1.));
#397 = DIRECTION('',(-0.,-1.,0.));
#398 = PCURVE('',#73,#399);
#399 = DEFINITIONAL_REPRESENTATION('',(#400),#404);
#400 = LINE('',#401,#402);
#401 = CARTESIAN_POINT('',(0.,7.853981633974));
#402 = VECTOR('',#403,1.);
#403 = DIRECTION('',(1.,0.));
#404 = ( GEOMETRIC_REPRESENTATION_CONTEXT(2) 
PARAMETRIC_REPRESENTATION_CONTEXT() REPRESENTATION_CONTEXT('2D SPACE',''
  ) );
#405 = PCURVE('',#281,#406);
#406 = DEFINITIONAL_REPRESENTATION('',(#407),#411);
#407 = CIRCLE('',#408,7.);
#408 = AXIS2_PLACEMENT_2D('',#409,#410);
#409 = CARTESIAN_POINT('',(10.,8.665155314148E-17));
#410 = DIRECTION('',(0.,-1.));
#411 = ( GEOMETRIC_REPRESENTATION_CONTEXT(2) 
PARAMETRIC_REPRESENTATION_CONTEXT() REPRESENTATION_CONTEXT('2D SPACE',''
  ) );
#412 = ORIENTED_EDGE('',*,*,#315,.T.);
#413 = ORIENTED_EDGE('',*,*,#56,.T.);
#414 = ORIENTED_EDGE('',*,*,#415,.T.);
#415 = EDGE_CURVE('',#57,#390,#416,.T.);
#416 = SURFACE_CURVE('',#417,(#422,#429),.PCURVE_S1.);
#417 = CIRCLE('',#418,3.);
#418 = AXIS2_PLACEMENT_3D('',#419,#420,#421);
#419 = CARTESIAN_POINT('',(10.,7.,3.));
#420 = DIRECTION('',(1.,-1.224646799147E-16,0.));
#421 = DIRECTION('',(1.224646799147E-16,1.,0.));
#422 = PCURVE('',#73,#423);
#423 = DEFINITIONAL_REPRESENTATION('',(#424),#428);
#424 = LINE('',#425,#426);
#425 = CARTESIAN_POINT('',(3.14159265359,0.));
#426 = VECTOR('',#427,1.);
#427 = DIRECTION('',(0.,1.));
#428 = ( GEOMETRIC_REPRESENTATION_CONTEXT(2) 
PARAMETRIC_REPRESENTATION_CONTEXT() REPRESENTATION_CONTEXT('2D SPACE',''
  ) );
#429 = PCURVE('',#101,#430);
#430 = DEFINITIONAL_REPRESENTATION('',(#431),#434);
#431 = B_SPLINE_CURVE_WITH_KNOTS('',1,(#432,#433),.UNSPECIFIED.,.F.,.F.,
  (2,2),(3.14159265359,9.424777960769),.PIECEWISE_BEZIER_KNOTS.);
#432 = CARTESIAN_POINT('',(6.28318530718,0.));
#433 = CARTESIAN_POINT('',(0.,0.));
#434 = ( GEOMETRIC_REPRESENTATION_CONTEXT(2) 
PARAMETRIC_REPRESENTATION_CONTEXT() REPRESENTATION_CONTEXT('2D SPACE',''
  ) );
#435 = FACE_BOUND('',#436,.T.);
#436 = EDGE_LOOP('',(#437,#468,#628,#661));
#437 = ORIENTED_EDGE('',*,*,#438,.F.);
#438 = EDGE_CURVE('',#439,#441,#443,.T.);
#439 = VERTEX_POINT('',#440);
#440 = CARTESIAN_POINT('',(17.021748477765,-6.,1.));
#441 = VERTEX_POINT('',#442);
#442 = CARTESIAN_POINT('',(19.016925844488,-2.,1.));
#443 = SURFACE_CURVE('',#444,(#449,#456),.PCURVE_S1.);
#444 = CIRCLE('',#445,9.2360679775);
#445 = AXIS2_PLACEMENT_3D('',#446,#447,#448);
#446 = CARTESIAN_POINT('',(10.,0.,1.));
#447 = DIRECTION('',(-0.,0.,1.));
#448 = DIRECTION('',(0.,-1.,0.));
#449 = PCURVE('',#73,#450);
#450 = DEFINITIONAL_REPRESENTATION('',(#451),#455);
#451 = LINE('',#452,#453);
#452 = CARTESIAN_POINT('',(0.,5.553457650953));
#453 = VECTOR('',#454,1.);
#454 = DIRECTION('',(1.,0.));
#455 = ( GEOMETRIC_REPRESENTATION_CONTEXT(2) 
PARAMETRIC_REPRESENTATION_CONTEXT() REPRESENTATION_CONTEXT('2D SPACE',''
  ) );
#456 = PCURVE('',#457,#462);
#457 = PLANE('',#458);
#458 = AXIS2_PLACEMENT_3D('',#459,#460,#461);
#459 = CARTESIAN_POINT('',(17.,-6.,1.));
#460 = DIRECTION('',(0.,0.,1.));
#461 = DIRECTION('',(0.,1.,0.));
#462 = DEFINITIONAL_REPRESENTATION('',(#463),#467);
#463 = CIRCLE('',#464,9.2360679775);
#464 = AXIS2_PLACEMENT_2D('',#465,#466);
#465 = CARTESIAN_POINT('',(6.,7.));
#466 = DIRECTION('',(-1.,0.));
#467 = ( GEOMETRIC_REPRESENTATION_CONTEXT(2) 
PARAMETRIC_REPRESENTATION_CONTEXT() REPRESENTATION_CONTEXT('2D SPACE',''
  ) );
#468 = ORIENTED_EDGE('',*,*,#469,.T.);
#469 = EDGE_CURVE('',#439,#470,#472,.T.);
#470 = VERTEX_POINT('',#471);
#471 = CARTESIAN_POINT('',(17.021748477765,-6.,5.));
#472 = SURFACE_CURVE('',#473,(#521,#572),.PCURVE_S1.);
#473 = B_SPLINE_CURVE_WITH_KNOTS('',6,(#474,#475,#476,#477,#478,#479,
    #480,#481,#482,#483,#484,#485,#486,#487,#488,#489,#490,#491,#492,
    #493,#494,#495,#496,#497,#498,#499,#500,#501,#502,#503,#504,#505,
    #506,#507,#508,#509,#510,#511,#512,#513,#514,#515,#516,#517,#518,
    #519,#520),.UNSPECIFIED.,.F.,.F.,(7,5,5,5,5,5,5,5,5,7),(0.,
    0.182869328657,0.287362367261,0.352479346732,0.397324538409,
    0.50016187333,0.647501599249,0.712614805966,0.81709701541,1.),
  .UNSPECIFIED.);
#474 = CARTESIAN_POINT('',(16.437390775772,-6.,0.6));
#475 = CARTESIAN_POINT('',(16.599707980551,-6.,0.689053915636));
#476 = CARTESIAN_POINT('',(16.756614325427,-6.,0.787406455576));
#477 = CARTESIAN_POINT('',(16.907071595207,-6.,0.895299401547));
#478 = CARTESIAN_POINT('',(17.049883694606,-6.,1.012806678908));
#479 = CARTESIAN_POINT('',(17.18373915613,-6.,1.139776049884));
#480 = CARTESIAN_POINT('',(17.377896230955,-6.,1.353420824348));
#481 = CARTESIAN_POINT('',(17.445133592027,-6.,1.434041935856));
#482 = CARTESIAN_POINT('',(17.508754735074,-6.,1.517505191948));
#483 = CARTESIAN_POINT('',(17.56850691074,-6.,1.603687030861));
#484 = CARTESIAN_POINT('',(17.624144650291,-6.,1.692427388721));
#485 = CARTESIAN_POINT('',(17.707401186864,-6.,1.840294410621));
#486 = CARTESIAN_POINT('',(17.737678215398,-6.,1.897979649424));
#487 = CARTESIAN_POINT('',(17.766212056766,-6.,1.956532228521));
#488 = CARTESIAN_POINT('',(17.792950236639,-6.,2.015898333508));
#489 = CARTESIAN_POINT('',(17.81784402463,-6.,2.076018864335));
#490 = CARTESIAN_POINT('',(17.856691263133,-6.,2.178708861118));
#491 = CARTESIAN_POINT('',(17.871638116641,-6.,2.220915650612));
#492 = CARTESIAN_POINT('',(17.885674402264,-6.,2.263428761343));
#493 = CARTESIAN_POINT('',(17.898786755088,-6.,2.306226174803));
#494 = CARTESIAN_POINT('',(17.910963037832,-6.,2.349284896427));
#495 = CARTESIAN_POINT('',(17.947942963194,-6.,2.491865877113));
#496 = CARTESIAN_POINT('',(17.968714730252,-6.,2.592402488996));
#497 = CARTESIAN_POINT('',(17.98437516847,-6.,2.693895544358));
#498 = CARTESIAN_POINT('',(17.994832985506,-6.,2.796036609772));
#499 = CARTESIAN_POINT('',(18.000041122255,-6.,2.89850484475));
#500 = CARTESIAN_POINT('',(17.999940607585,-6.,3.147771089483));
#501 = CARTESIAN_POINT('',(17.989105753063,-6.,3.294588328902));
#502 = CARTESIAN_POINT('',(17.967491229979,-6.,3.440420441265));
#503 = CARTESIAN_POINT('',(17.935308969153,-6.,3.584340065306));
#504 = CARTESIAN_POINT('',(17.892927126378,-6.,3.725489057056));
#505 = CARTESIAN_POINT('',(17.817880165102,-6.,3.923892256318));
#506 = CARTESIAN_POINT('',(17.792990388847,-6.,3.984009573777));
#507 = CARTESIAN_POINT('',(17.766256425991,-6.,4.043372630152));
#508 = CARTESIAN_POINT('',(17.737726993753,-6.,4.101922333547));
#509 = CARTESIAN_POINT('',(17.707454552834,-6.,4.159604876068));
#510 = CARTESIAN_POINT('',(17.62421273752,-6.,4.307461192022));
#511 = CARTESIAN_POINT('',(17.568585787979,-6.,4.396194045813));
#512 = CARTESIAN_POINT('',(17.508845133889,-6.,4.482369118261));
#513 = CARTESIAN_POINT('',(17.445236152445,-6.,4.565826374439));
#514 = CARTESIAN_POINT('',(17.378011502884,-6.,4.646442265749));
#515 = CARTESIAN_POINT('',(17.183855122664,-6.,4.860113943523));
#516 = CARTESIAN_POINT('',(17.049982679517,-6.,4.987111872209));
#517 = CARTESIAN_POINT('',(16.907149808799,-6.,5.104644510224));
#518 = CARTESIAN_POINT('',(16.756668700959,-6.,5.212559460756));
#519 = CARTESIAN_POINT('',(16.599736102971,-6.,5.310930655245));
#520 = CARTESIAN_POINT('',(16.437390775772,-6.,5.4));
#521 = PCURVE('',#73,#522);
#522 = DEFINITIONAL_REPRESENTATION('',(#523),#571);
#523 = B_SPLINE_CURVE_WITH_KNOTS('',6,(#524,#525,#526,#527,#528,#529,
    #530,#531,#532,#533,#534,#535,#536,#537,#538,#539,#540,#541,#542,
    #543,#544,#545,#546,#547,#548,#549,#550,#551,#552,#553,#554,#555,
    #556,#557,#558,#559,#560,#561,#562,#563,#564,#565,#566,#567,#568,
    #569,#570),.UNSPECIFIED.,.F.,.F.,(7,5,5,5,5,5,5,5,5,7),(0.,
    0.182869328657,0.287362367261,0.352479346732,0.397324538409,
    0.50016187333,0.647501599249,0.712614805966,0.81709701541,1.),
  .UNSPECIFIED.);
#524 = CARTESIAN_POINT('',(0.820551082808,5.355890089178));
#525 = CARTESIAN_POINT('',(0.833127312517,5.405364486753));
#526 = CARTESIAN_POINT('',(0.844877054561,5.456088451011));
#527 = CARTESIAN_POINT('',(0.855788337716,5.508043280397));
#528 = CARTESIAN_POINT('',(0.865845326186,5.561195466556));
#529 = CARTESIAN_POINT('',(0.875030265699,5.615499604768));
#530 = CARTESIAN_POINT('',(0.888061442703,5.70252481702));
#531 = CARTESIAN_POINT('',(0.892508562804,5.73452070771));
#532 = CARTESIAN_POINT('',(0.896660385398,5.766852195269));
#533 = CARTESIAN_POINT('',(0.900512989362,5.79950191613));
#534 = CARTESIAN_POINT('',(0.904062475895,5.832449206266));
#535 = CARTESIAN_POINT('',(0.909325640202,5.886370084574));
#536 = CARTESIAN_POINT('',(0.911227095,5.90717732006));
#537 = CARTESIAN_POINT('',(0.913008432469,5.928084346259));
#538 = CARTESIAN_POINT('',(0.914668778801,5.94908462438));
#539 = CARTESIAN_POINT('',(0.916207315116,5.97017112221));
#540 = CARTESIAN_POINT('',(0.918598431769,6.005912498335));
#541 = CARTESIAN_POINT('',(0.91951545355,6.020526019371));
#542 = CARTESIAN_POINT('',(0.920374094595,6.035174409929));
#543 = CARTESIAN_POINT('',(0.921174126721,6.049855109192));
#544 = CARTESIAN_POINT('',(0.921915341776,6.064565462831));
#545 = CARTESIAN_POINT('',(0.924161970068,6.113097662971));
#546 = CARTESIAN_POINT('',(0.925416149185,6.147035300617));
#547 = CARTESIAN_POINT('',(0.92635774703,6.181080106313));
#548 = CARTESIAN_POINT('',(0.926985191822,6.215197966189));
#549 = CARTESIAN_POINT('',(0.927297685337,6.249353586991));
#550 = CARTESIAN_POINT('',(0.927291654457,6.332442339559));
#551 = CARTESIAN_POINT('',(0.926641562537,6.381382331992));
#552 = CARTESIAN_POINT('',(0.925344667127,6.43020589682));
#553 = CARTESIAN_POINT('',(0.923405274033,6.478814625795));
#554 = CARTESIAN_POINT('',(0.920828796952,6.527114515247));
#555 = CARTESIAN_POINT('',(0.916209546989,6.596168368495));
#556 = CARTESIAN_POINT('',(0.914671267685,6.617253522616));
#557 = CARTESIAN_POINT('',(0.913011194287,6.638252476099));
#558 = CARTESIAN_POINT('',(0.911230145458,6.659158197796));
#559 = CARTESIAN_POINT('',(0.909328994789,6.679964149825));
#560 = CARTESIAN_POINT('',(0.904066810568,6.733880223888));
#561 = CARTESIAN_POINT('',(0.900518052101,6.76682405243));
#562 = CARTESIAN_POINT('',(0.896666242138,6.799470399311));
#563 = CARTESIAN_POINT('',(0.892515278097,6.831798605151));
#564 = CARTESIAN_POINT('',(0.888069079798,6.863791309666));
#565 = CARTESIAN_POINT('',(0.875038223048,6.950823961262));
#566 = CARTESIAN_POINT('',(0.865852296753,7.005138306614));
#567 = CARTESIAN_POINT('',(0.855794009795,7.058300325446));
#568 = CARTESIAN_POINT('',(0.844881126411,7.110264585143));
#569 = CARTESIAN_POINT('',(0.833129491424,7.160997555873));
#570 = CARTESIAN_POINT('',(0.820551082808,7.210480525181));
#571 = ( GEOMETRIC_REPRESENTATION_CONTEXT(2) 
PARAMETRIC_REPRESENTATION_CONTEXT() REPRESENTATION_CONTEXT('2D SPACE',''
  ) );
#572 = PCURVE('',#573,#578);
#573 = PLANE('',#574);
#574 = AXIS2_PLACEMENT_3D('',#575,#576,#577);
#575 = CARTESIAN_POINT('',(17.,-6.,5.));
#576 = DIRECTION('',(-0.,1.,0.));
#577 = DIRECTION('',(0.,0.,-1.));
#578 = DEFINITIONAL_REPRESENTATION('',(#579),#627);
#579 = B_SPLINE_CURVE_WITH_KNOTS('',6,(#580,#581,#582,#583,#584,#585,
    #586,#587,#588,#589,#590,#591,#592,#593,#594,#595,#596,#597,#598,
    #599,#600,#601,#602,#603,#604,#605,#606,#607,#608,#609,#610,#611,
    #612,#613,#614,#615,#616,#617,#618,#619,#620,#621,#622,#623,#624,
    #625,#626),.UNSPECIFIED.,.F.,.F.,(7,5,5,5,5,5,5,5,5,7),(0.,
    0.182869328657,0.287362367261,0.352479346732,0.397324538409,
    0.50016187333,0.647501599249,0.712614805966,0.81709701541,1.),
  .UNSPECIFIED.);
#580 = CARTESIAN_POINT('',(4.4,0.562609224228));
#581 = CARTESIAN_POINT('',(4.310946084364,0.400292019449));
#582 = CARTESIAN_POINT('',(4.212593544424,0.243385674573));
#583 = CARTESIAN_POINT('',(4.104700598453,9.292840479285E-02));
#584 = CARTESIAN_POINT('',(3.987193321092,-4.988369460627E-02));
#585 = CARTESIAN_POINT('',(3.860223950116,-0.18373915613));
#586 = CARTESIAN_POINT('',(3.646579175652,-0.377896230955));
#587 = CARTESIAN_POINT('',(3.565958064144,-0.445133592027));
#588 = CARTESIAN_POINT('',(3.482494808052,-0.508754735074));
#589 = CARTESIAN_POINT('',(3.396312969139,-0.56850691074));
#590 = CARTESIAN_POINT('',(3.307572611279,-0.624144650291));
#591 = CARTESIAN_POINT('',(3.159705589379,-0.707401186864));
#592 = CARTESIAN_POINT('',(3.102020350576,-0.737678215398));
#593 = CARTESIAN_POINT('',(3.043467771479,-0.766212056766));
#594 = CARTESIAN_POINT('',(2.984101666492,-0.792950236639));
#595 = CARTESIAN_POINT('',(2.923981135665,-0.81784402463));
#596 = CARTESIAN_POINT('',(2.821291138882,-0.856691263133));
#597 = CARTESIAN_POINT('',(2.779084349388,-0.871638116641));
#598 = CARTESIAN_POINT('',(2.736571238657,-0.885674402264));
#599 = CARTESIAN_POINT('',(2.693773825197,-0.898786755088));
#600 = CARTESIAN_POINT('',(2.650715103573,-0.910963037832));
#601 = CARTESIAN_POINT('',(2.508134122887,-0.947942963194));
#602 = CARTESIAN_POINT('',(2.407597511004,-0.968714730252));
#603 = CARTESIAN_POINT('',(2.306104455642,-0.98437516847));
#604 = CARTESIAN_POINT('',(2.203963390228,-0.994832985506));
#605 = CARTESIAN_POINT('',(2.10149515525,-1.000041122255));
#606 = CARTESIAN_POINT('',(1.852228910517,-0.999940607585));
#607 = CARTESIAN_POINT('',(1.705411671098,-0.989105753063));
#608 = CARTESIAN_POINT('',(1.559579558735,-0.967491229979));
#609 = CARTESIAN_POINT('',(1.415659934694,-0.935308969153));
#610 = CARTESIAN_POINT('',(1.274510942944,-0.892927126378));
#611 = CARTESIAN_POINT('',(1.076107743682,-0.817880165102));
#612 = CARTESIAN_POINT('',(1.015990426223,-0.792990388847));
#613 = CARTESIAN_POINT('',(0.956627369848,-0.766256425991));
#614 = CARTESIAN_POINT('',(0.898077666453,-0.737726993753));
#615 = CARTESIAN_POINT('',(0.840395123932,-0.707454552834));
#616 = CARTESIAN_POINT('',(0.692538807978,-0.62421273752));
#617 = CARTESIAN_POINT('',(0.603805954187,-0.568585787979));
#618 = CARTESIAN_POINT('',(0.517630881739,-0.508845133889));
#619 = CARTESIAN_POINT('',(0.434173625561,-0.445236152445));
#620 = CARTESIAN_POINT('',(0.353557734251,-0.378011502884));
#621 = CARTESIAN_POINT('',(0.139886056477,-0.183855122664));
#622 = CARTESIAN_POINT('',(1.288812779072E-02,-4.998267951679E-02));
#623 = CARTESIAN_POINT('',(-0.104644510224,9.28501912008E-02));
#624 = CARTESIAN_POINT('',(-0.212559460756,0.243331299041));
#625 = CARTESIAN_POINT('',(-0.310930655245,0.400263897029));
#626 = CARTESIAN_POINT('',(-0.4,0.562609224228));
#627 = ( GEOMETRIC_REPRESENTATION_CONTEXT(2) 
PARAMETRIC_REPRESENTATION_CONTEXT() REPRESENTATION_CONTEXT('2D SPACE',''
  ) );
#628 = ORIENTED_EDGE('',*,*,#629,.T.);
#629 = EDGE_CURVE('',#470,#630,#632,.T.);
#630 = VERTEX_POINT('',#631);
#631 = CARTESIAN_POINT('',(19.016925844488,-2.,5.));
#632 = SURFACE_CURVE('',#633,(#638,#645),.PCURVE_S1.);
#633 = CIRCLE('',#634,9.2360679775);
#634 = AXIS2_PLACEMENT_3D('',#635,#636,#637);
#635 = CARTESIAN_POINT('',(10.,0.,5.));
#636 = DIRECTION('',(-0.,0.,1.));
#637 = DIRECTION('',(0.,-1.,0.));
#638 = PCURVE('',#73,#639);
#639 = DEFINITIONAL_REPRESENTATION('',(#640),#644);
#640 = LINE('',#641,#642);
#641 = CARTESIAN_POINT('',(0.,7.012912963407));
#642 = VECTOR('',#643,1.);
#643 = DIRECTION('',(1.,0.));
#644 = ( GEOMETRIC_REPRESENTATION_CONTEXT(2) 
PARAMETRIC_REPRESENTATION_CONTEXT() REPRESENTATION_CONTEXT('2D SPACE',''
  ) );
#645 = PCURVE('',#646,#651);
#646 = PLANE('',#647);
#647 = AXIS2_PLACEMENT_3D('',#648,#649,#650);
#648 = CARTESIAN_POINT('',(17.,-2.,5.));
#649 = DIRECTION('',(0.,0.,-1.));
#650 = DIRECTION('',(0.,-1.,0.));
#651 = DEFINITIONAL_REPRESENTATION('',(#652),#660);
#652 = ( BOUNDED_CURVE() B_SPLINE_CURVE(2,(#653,#654,#655,#656,#657,#658
,#659),.UNSPECIFIED.,.T.,.F.) B_SPLINE_CURVE_WITH_KNOTS((1,2,2,2,2,1),(
    -2.094395102393,0.,2.094395102393,4.188790204786,6.28318530718,
8.377580409573),.UNSPECIFIED.) CURVE() GEOMETRIC_REPRESENTATION_ITEM() 
RATIONAL_B_SPLINE_CURVE((1.,0.5,1.,0.5,1.,0.5,1.)) REPRESENTATION_ITEM(
  '') );
#653 = CARTESIAN_POINT('',(7.2360679775,7.));
#654 = CARTESIAN_POINT('',(7.2360679775,-8.99733899919));
#655 = CARTESIAN_POINT('',(-6.61803398875,-0.998669499595));
#656 = CARTESIAN_POINT('',(-20.472135955,7.));
#657 = CARTESIAN_POINT('',(-6.61803398875,14.998669499595));
#658 = CARTESIAN_POINT('',(7.2360679775,22.99733899919));
#659 = CARTESIAN_POINT('',(7.2360679775,7.));
#660 = ( GEOMETRIC_REPRESENTATION_CONTEXT(2) 
PARAMETRIC_REPRESENTATION_CONTEXT() REPRESENTATION_CONTEXT('2D SPACE',''
  ) );
#661 = ORIENTED_EDGE('',*,*,#662,.F.);
#662 = EDGE_CURVE('',#441,#630,#663,.T.);
#663 = SURFACE_CURVE('',#664,(#703,#745),.PCURVE_S1.);
#664 = B_SPLINE_CURVE_WITH_KNOTS('',5,(#665,#666,#667,#668,#669,#670,
    #671,#672,#673,#674,#675,#676,#677,#678,#679,#680,#681,#682,#683,
    #684,#685,#686,#687,#688,#689,#690,#691,#692,#693,#694,#695,#696,
    #697,#698,#699,#700,#701,#702),.UNSPECIFIED.,.F.,.F.,(6,4,4,4,4,4,4,
    4,4,6),(0.,0.146896491422,0.250292016171,0.322963856683,
    0.375276981882,0.50000743061,0.676442340887,0.749112646933,
    0.852505041002,1.),.UNSPECIFIED.);
#665 = CARTESIAN_POINT('',(18.569714114251,-2.,0.6));
#666 = CARTESIAN_POINT('',(18.702616114253,-2.,0.697068080559));
#667 = CARTESIAN_POINT('',(18.828955890555,-2.,0.803072387831));
#668 = CARTESIAN_POINT('',(18.947879482241,-2.,0.917480378516));
#669 = CARTESIAN_POINT('',(19.058610020256,-2.,1.039637666041));
#670 = CARTESIAN_POINT('',(19.232153058116,-2.,1.259647837461));
#671 = CARTESIAN_POINT('',(19.299446634472,-2.,1.353987082177));
#672 = CARTESIAN_POINT('',(19.362104927544,-2.,1.451507531959));
#673 = CARTESIAN_POINT('',(19.419919045299,-2.,1.551912910394));
#674 = CARTESIAN_POINT('',(19.509813436923,-2.,1.727255135381));
#675 = CARTESIAN_POINT('',(19.544435914826,-2.,1.800894781489));
#676 = CARTESIAN_POINT('',(19.576514856355,-2.,1.875690410453));
#677 = CARTESIAN_POINT('',(19.60599651152,-2.,1.95152644422));
#678 = CARTESIAN_POINT('',(19.652155599082,-2.,2.083536268514));
#679 = CARTESIAN_POINT('',(19.670106345262,-2.,2.139266685725));
#680 = CARTESIAN_POINT('',(19.686670797004,-2.,2.195429375873));
#681 = CARTESIAN_POINT('',(19.701834449141,-2.,2.25197874211));
#682 = CARTESIAN_POINT('',(19.748371182106,-2.,2.444510420307));
#683 = CARTESIAN_POINT('',(19.773125345076,-2.,2.58208843106));
#684 = CARTESIAN_POINT('',(19.789682766316,-2.,2.720968287842));
#685 = CARTESIAN_POINT('',(19.797960778921,-2.,2.860504087846));
#686 = CARTESIAN_POINT('',(19.797956413367,-2.,3.197413058827));
#687 = CARTESIAN_POINT('',(19.781386461623,-2.,3.394796265459));
#688 = CARTESIAN_POINT('',(19.748250430316,-2.,3.590315746125));
#689 = CARTESIAN_POINT('',(19.69888070399,-2.,3.782156870819));
#690 = CARTESIAN_POINT('',(19.607177991758,-2.,4.045366040892));
#691 = CARTESIAN_POINT('',(19.577782292181,-2.,4.12123342944));
#692 = CARTESIAN_POINT('',(19.545788166943,-2.,4.196063334151));
#693 = CARTESIAN_POINT('',(19.511249226308,-2.,4.2697401116));
#694 = CARTESIAN_POINT('',(19.421554286461,-2.,4.44517808568));
#695 = CARTESIAN_POINT('',(19.36385472921,-2.,4.545644975846));
#696 = CARTESIAN_POINT('',(19.301307839068,-2.,4.643232396487));
#697 = CARTESIAN_POINT('',(19.234122150258,-2.,4.737643817222));
#698 = CARTESIAN_POINT('',(19.060413537638,-2.,4.958371031344));
#699 = CARTESIAN_POINT('',(18.949332513997,-2.,5.081120989295));
#700 = CARTESIAN_POINT('',(18.829985145557,-2.,5.196063784907));
#701 = CARTESIAN_POINT('',(18.703157511109,-2.,5.302536497599));
#702 = CARTESIAN_POINT('',(18.569714114251,-2.,5.4));
#703 = PCURVE('',#73,#704);
#704 = DEFINITIONAL_REPRESENTATION('',(#705),#744);
#705 = B_SPLINE_CURVE_WITH_KNOTS('',5,(#706,#707,#708,#709,#710,#711,
    #712,#713,#714,#715,#716,#717,#718,#719,#720,#721,#722,#723,#724,
    #725,#726,#727,#728,#729,#730,#731,#732,#733,#734,#735,#736,#737,
    #738,#739,#740,#741,#742,#743),.UNSPECIFIED.,.F.,.F.,(6,4,4,4,4,4,4,
    4,4,6),(0.,0.146896491422,0.250292016171,0.322963856683,
    0.375276981882,0.50000743061,0.676442340887,0.749112646933,
    0.852505041002,1.),.UNSPECIFIED.);
#706 = CARTESIAN_POINT('',(1.341520123581,5.355890089178));
#707 = CARTESIAN_POINT('',(1.344952509945,5.409816800599));
#708 = CARTESIAN_POINT('',(1.348089209413,5.463861199671));
#709 = CARTESIAN_POINT('',(1.350942239647,5.518012268415));
#710 = CARTESIAN_POINT('',(1.353522784387,5.572264302358));
#711 = CARTESIAN_POINT('',(1.357470799339,5.664851414793));
#712 = CARTESIAN_POINT('',(1.358971226705,5.703142967881));
#713 = CARTESIAN_POINT('',(1.360344367372,5.741474553538));
#714 = CARTESIAN_POINT('',(1.361592984356,5.779842166305));
#715 = CARTESIAN_POINT('',(1.363511095042,5.845230784685));
#716 = CARTESIAN_POINT('',(1.364242425168,5.87223572));
#717 = CARTESIAN_POINT('',(1.364914186908,5.899254970701));
#718 = CARTESIAN_POINT('',(1.365527067645,5.926287051699));
#719 = CARTESIAN_POINT('',(1.366480851365,5.972797747604));
#720 = CARTESIAN_POINT('',(1.366849847932,5.992270919235));
#721 = CARTESIAN_POINT('',(1.367188843233,6.011749397588));
#722 = CARTESIAN_POINT('',(1.367498019392,6.031232612305));
#723 = CARTESIAN_POINT('',(1.368443959127,6.097183833955));
#724 = CARTESIAN_POINT('',(1.368941731785,6.143671542515));
#725 = CARTESIAN_POINT('',(1.369272885423,6.190175158858));
#726 = CARTESIAN_POINT('',(1.36943844216,6.236686669791));
#727 = CARTESIAN_POINT('',(1.369438354849,6.348989660127));
#728 = CARTESIAN_POINT('',(1.369106950455,6.414784141364));
#729 = CARTESIAN_POINT('',(1.368444252112,6.48055073823));
#730 = CARTESIAN_POINT('',(1.367446035883,6.546277861492));
#731 = CARTESIAN_POINT('',(1.365551598477,6.638978697245));
#732 = CARTESIAN_POINT('',(1.364940651281,6.66601060368));
#733 = CARTESIAN_POINT('',(1.364270841526,6.693029716922));
#734 = CARTESIAN_POINT('',(1.363541483751,6.720034551439));
#735 = CARTESIAN_POINT('',(1.36162821589,6.785422661207));
#736 = CARTESIAN_POINT('',(1.36038249443,6.823789903755));
#737 = CARTESIAN_POINT('',(1.359012302203,6.862121191367));
#738 = CARTESIAN_POINT('',(1.357514881621,6.900412516529));
#739 = CARTESIAN_POINT('',(1.353564806687,6.993222274804));
#740 = CARTESIAN_POINT('',(1.350977093369,7.04769654464));
#741 = CARTESIAN_POINT('',(1.348114760979,7.102069081207));
#742 = CARTESIAN_POINT('',(1.344966492301,7.156334134958));
#743 = CARTESIAN_POINT('',(1.341520123581,7.210480525181));
#744 = ( GEOMETRIC_REPRESENTATION_CONTEXT(2) 
PARAMETRIC_REPRESENTATION_CONTEXT() REPRESENTATION_CONTEXT('2D SPACE',''
  ) );
#745 = PCURVE('',#746,#751);
#746 = PLANE('',#747);
#747 = AXIS2_PLACEMENT_3D('',#748,#749,#750);
#748 = CARTESIAN_POINT('',(17.,-2.,1.));
#749 = DIRECTION('',(0.,-1.,0.));
#750 = DIRECTION('',(0.,0.,1.));
#751 = DEFINITIONAL_REPRESENTATION('',(#752),#791);
#752 = B_SPLINE_CURVE_WITH_KNOTS('',5,(#753,#754,#755,#756,#757,#758,
    #759,#760,#761,#762,#763,#764,#765,#766,#767,#768,#769,#770,#771,
    #772,#773,#774,#775,#776,#777,#778,#779,#780,#781,#782,#783,#784,
    #785,#786,#787,#788,#789,#790),.UNSPECIFIED.,.F.,.F.,(6,4,4,4,4,4,4,
    4,4,6),(0.,0.146896491422,0.250292016171,0.322963856683,
    0.375276981882,0.50000743061,0.676442340887,0.749112646933,
    0.852505041002,1.),.UNSPECIFIED.);
#753 = CARTESIAN_POINT('',(-0.4,-1.569714114251));
#754 = CARTESIAN_POINT('',(-0.302931919441,-1.702616114253));
#755 = CARTESIAN_POINT('',(-0.196927612169,-1.828955890555));
#756 = CARTESIAN_POINT('',(-8.251962148417E-02,-1.947879482241));
#757 = CARTESIAN_POINT('',(3.963766604144E-02,-2.058610020256));
#758 = CARTESIAN_POINT('',(0.259647837461,-2.232153058116));
#759 = CARTESIAN_POINT('',(0.353987082177,-2.299446634472));
#760 = CARTESIAN_POINT('',(0.451507531959,-2.362104927544));
#761 = CARTESIAN_POINT('',(0.551912910394,-2.419919045299));
#762 = CARTESIAN_POINT('',(0.727255135381,-2.509813436923));
#763 = CARTESIAN_POINT('',(0.800894781489,-2.544435914826));
#764 = CARTESIAN_POINT('',(0.875690410453,-2.576514856355));
#765 = CARTESIAN_POINT('',(0.95152644422,-2.60599651152));
#766 = CARTESIAN_POINT('',(1.083536268514,-2.652155599082));
#767 = CARTESIAN_POINT('',(1.139266685725,-2.670106345262));
#768 = CARTESIAN_POINT('',(1.195429375873,-2.686670797004));
#769 = CARTESIAN_POINT('',(1.25197874211,-2.701834449141));
#770 = CARTESIAN_POINT('',(1.444510420307,-2.748371182106));
#771 = CARTESIAN_POINT('',(1.58208843106,-2.773125345076));
#772 = CARTESIAN_POINT('',(1.720968287842,-2.789682766316));
#773 = CARTESIAN_POINT('',(1.860504087846,-2.797960778921));
#774 = CARTESIAN_POINT('',(2.197413058827,-2.797956413367));
#775 = CARTESIAN_POINT('',(2.394796265459,-2.781386461623));
#776 = CARTESIAN_POINT('',(2.590315746125,-2.748250430316));
#777 = CARTESIAN_POINT('',(2.782156870819,-2.69888070399));
#778 = CARTESIAN_POINT('',(3.045366040892,-2.607177991758));
#779 = CARTESIAN_POINT('',(3.12123342944,-2.577782292181));
#780 = CARTESIAN_POINT('',(3.196063334151,-2.545788166943));
#781 = CARTESIAN_POINT('',(3.2697401116,-2.511249226308));
#782 = CARTESIAN_POINT('',(3.44517808568,-2.421554286461));
#783 = CARTESIAN_POINT('',(3.545644975846,-2.36385472921));
#784 = CARTESIAN_POINT('',(3.643232396487,-2.301307839068));
#785 = CARTESIAN_POINT('',(3.737643817222,-2.234122150258));
#786 = CARTESIAN_POINT('',(3.958371031344,-2.060413537638));
#787 = CARTESIAN_POINT('',(4.081120989295,-1.949332513997));
#788 = CARTESIAN_POINT('',(4.196063784907,-1.829985145557));
#789 = CARTESIAN_POINT('',(4.302536497599,-1.703157511109));
#790 = CARTESIAN_POINT('',(4.4,-1.569714114251));
#791 = ( GEOMETRIC_REPRESENTATION_CONTEXT(2) 
PARAMETRIC_REPRESENTATION_CONTEXT() REPRESENTATION_CONTEXT('2D SPACE',''
  ) );
#792 = FACE_BOUND('',#793,.T.);
#793 = EDGE_LOOP('',(#794,#825,#958,#991));
#794 = ORIENTED_EDGE('',*,*,#795,.F.);
#795 = EDGE_CURVE('',#796,#798,#800,.T.);
#796 = VERTEX_POINT('',#797);
#797 = CARTESIAN_POINT('',(19.016925844488,2.,1.));
#798 = VERTEX_POINT('',#799);
#799 = CARTESIAN_POINT('',(17.021748477765,6.,1.));
#800 = SURFACE_CURVE('',#801,(#806,#813),.PCURVE_S1.);
#801 = CIRCLE('',#802,9.2360679775);
#802 = AXIS2_PLACEMENT_3D('',#803,#804,#805);
#803 = CARTESIAN_POINT('',(10.,0.,1.));
#804 = DIRECTION('',(-0.,0.,1.));
#805 = DIRECTION('',(0.,-1.,0.));
#806 = PCURVE('',#73,#807);
#807 = DEFINITIONAL_REPRESENTATION('',(#808),#812);
#808 = LINE('',#809,#810);
#809 = CARTESIAN_POINT('',(0.,5.553457650953));
#810 = VECTOR('',#811,1.);
#811 = DIRECTION('',(1.,0.));
#812 = ( GEOMETRIC_REPRESENTATION_CONTEXT(2) 
PARAMETRIC_REPRESENTATION_CONTEXT() REPRESENTATION_CONTEXT('2D SPACE',''
  ) );
#813 = PCURVE('',#814,#819);
#814 = PLANE('',#815);
#815 = AXIS2_PLACEMENT_3D('',#816,#817,#818);
#816 = CARTESIAN_POINT('',(17.,2.,1.));
#817 = DIRECTION('',(0.,0.,1.));
#818 = DIRECTION('',(0.,1.,0.));
#819 = DEFINITIONAL_REPRESENTATION('',(#820),#824);
#820 = CIRCLE('',#821,9.2360679775);
#821 = AXIS2_PLACEMENT_2D('',#822,#823);
#822 = CARTESIAN_POINT('',(-2.,7.));
#823 = DIRECTION('',(-1.,0.));
#824 = ( GEOMETRIC_REPRESENTATION_CONTEXT(2) 
PARAMETRIC_REPRESENTATION_CONTEXT() REPRESENTATION_CONTEXT('2D SPACE',''
  ) );
#825 = ORIENTED_EDGE('',*,*,#826,.T.);
#826 = EDGE_CURVE('',#796,#827,#829,.T.);
#827 = VERTEX_POINT('',#828);
#828 = CARTESIAN_POINT('',(19.016925844488,2.,5.));
#829 = SURFACE_CURVE('',#830,(#869,#911),.PCURVE_S1.);
#830 = B_SPLINE_CURVE_WITH_KNOTS('',5,(#831,#832,#833,#834,#835,#836,
    #837,#838,#839,#840,#841,#842,#843,#844,#845,#846,#847,#848,#849,
    #850,#851,#852,#853,#854,#855,#856,#857,#858,#859,#860,#861,#862,
    #863,#864,#865,#866,#867,#868),.UNSPECIFIED.,.F.,.F.,(6,4,4,4,4,4,4,
    4,4,6),(0.,0.146896491422,0.250292016171,0.322963856683,
    0.375276981882,0.50000743061,0.676442340889,0.749112646935,
    0.852505041003,1.),.UNSPECIFIED.);
#831 = CARTESIAN_POINT('',(18.569714114251,2.,0.6));
#832 = CARTESIAN_POINT('',(18.702616114253,2.,0.697068080559));
#833 = CARTESIAN_POINT('',(18.828955890555,2.,0.803072387831));
#834 = CARTESIAN_POINT('',(18.947879482242,2.,0.917480378516));
#835 = CARTESIAN_POINT('',(19.058610020256,2.,1.039637666041));
#836 = CARTESIAN_POINT('',(19.232153058116,2.,1.259647837461));
#837 = CARTESIAN_POINT('',(19.299446634472,2.,1.353987082177));
#838 = CARTESIAN_POINT('',(19.362104927544,2.,1.451507531959));
#839 = CARTESIAN_POINT('',(19.419919045299,2.,1.551912910394));
#840 = CARTESIAN_POINT('',(19.509813436923,2.,1.727255135381));
#841 = CARTESIAN_POINT('',(19.544435914826,2.,1.800894781489));
#842 = CARTESIAN_POINT('',(19.576514856355,2.,1.875690410453));
#843 = CARTESIAN_POINT('',(19.60599651152,2.,1.95152644422));
#844 = CARTESIAN_POINT('',(19.652155599082,2.,2.083536268514));
#845 = CARTESIAN_POINT('',(19.670106345262,2.,2.139266685725));
#846 = CARTESIAN_POINT('',(19.686670797004,2.,2.195429375873));
#847 = CARTESIAN_POINT('',(19.701834449141,2.,2.25197874211));
#848 = CARTESIAN_POINT('',(19.748371182106,2.,2.444510420307));
#849 = CARTESIAN_POINT('',(19.773125345076,2.,2.58208843106));
#850 = CARTESIAN_POINT('',(19.789682766316,2.,2.720968287842));
#851 = CARTESIAN_POINT('',(19.797960778921,2.,2.860504087846));
#852 = CARTESIAN_POINT('',(19.797956413367,2.,3.197413058829));
#853 = CARTESIAN_POINT('',(19.781386461623,2.,3.394796265462));
#854 = CARTESIAN_POINT('',(19.748250430315,2.,3.59031574613));
#855 = CARTESIAN_POINT('',(19.698880703988,2.,3.782156870826));
#856 = CARTESIAN_POINT('',(19.607177991755,2.,4.0453660409));
#857 = CARTESIAN_POINT('',(19.577782292178,2.,4.121233429448));
#858 = CARTESIAN_POINT('',(19.54578816694,2.,4.196063334159));
#859 = CARTESIAN_POINT('',(19.511249226304,2.,4.269740111608));
#860 = CARTESIAN_POINT('',(19.421554286457,2.,4.445178085687));
#861 = CARTESIAN_POINT('',(19.363854729205,2.,4.545644975853));
#862 = CARTESIAN_POINT('',(19.301307839063,2.,4.643232396494));
#863 = CARTESIAN_POINT('',(19.234122150253,2.,4.737643817229));
#864 = CARTESIAN_POINT('',(19.060413537633,2.,4.958371031349));
#865 = CARTESIAN_POINT('',(18.949332513994,2.,5.081120989298));
#866 = CARTESIAN_POINT('',(18.829985145554,2.,5.196063784909));
#867 = CARTESIAN_POINT('',(18.703157511108,2.,5.3025364976));
#868 = CARTESIAN_POINT('',(18.569714114251,2.,5.4));
#869 = PCURVE('',#73,#870);
#870 = DEFINITIONAL_REPRESENTATION('',(#871),#910);
#871 = B_SPLINE_CURVE_WITH_KNOTS('',5,(#872,#873,#874,#875,#876,#877,
    #878,#879,#880,#881,#882,#883,#884,#885,#886,#887,#888,#889,#890,
    #891,#892,#893,#894,#895,#896,#897,#898,#899,#900,#901,#902,#903,
    #904,#905,#906,#907,#908,#909),.UNSPECIFIED.,.F.,.F.,(6,4,4,4,4,4,4,
    4,4,6),(0.,0.146896491422,0.250292016171,0.322963856683,
    0.375276981882,0.50000743061,0.676442340889,0.749112646935,
    0.852505041003,1.),.UNSPECIFIED.);
#872 = CARTESIAN_POINT('',(1.800072530009,5.355890089178));
#873 = CARTESIAN_POINT('',(1.796640143645,5.409816800599));
#874 = CARTESIAN_POINT('',(1.793503444177,5.463861199671));
#875 = CARTESIAN_POINT('',(1.790650413943,5.518012268415));
#876 = CARTESIAN_POINT('',(1.788069869202,5.572264302358));
#877 = CARTESIAN_POINT('',(1.784121854251,5.664851414793));
#878 = CARTESIAN_POINT('',(1.782621426885,5.703142967881));
#879 = CARTESIAN_POINT('',(1.781248286218,5.741474553538));
#880 = CARTESIAN_POINT('',(1.779999669234,5.779842166305));
#881 = CARTESIAN_POINT('',(1.778081558548,5.845230784685));
#882 = CARTESIAN_POINT('',(1.777350228421,5.87223572));
#883 = CARTESIAN_POINT('',(1.776678466682,5.899254970701));
#884 = CARTESIAN_POINT('',(1.776065585945,5.926287051699));
#885 = CARTESIAN_POINT('',(1.775111802225,5.972797747604));
#886 = CARTESIAN_POINT('',(1.774742805658,5.992270919235));
#887 = CARTESIAN_POINT('',(1.774403810356,6.011749397588));
#888 = CARTESIAN_POINT('',(1.774094634198,6.031232612305));
#889 = CARTESIAN_POINT('',(1.773148694463,6.097183833955));
#890 = CARTESIAN_POINT('',(1.772650921805,6.143671542515));
#891 = CARTESIAN_POINT('',(1.772319768167,6.190175158858));
#892 = CARTESIAN_POINT('',(1.772154211429,6.236686669791));
#893 = CARTESIAN_POINT('',(1.772154298741,6.348989660128));
#894 = CARTESIAN_POINT('',(1.772485703134,6.414784141365));
#895 = CARTESIAN_POINT('',(1.773148401478,6.480550738232));
#896 = CARTESIAN_POINT('',(1.774146617707,6.546277861494));
#897 = CARTESIAN_POINT('',(1.776041055113,6.638978697248));
#898 = CARTESIAN_POINT('',(1.776652002309,6.666010603683));
#899 = CARTESIAN_POINT('',(1.777321812064,6.693029716925));
#900 = CARTESIAN_POINT('',(1.778051169839,6.720034551441));
#901 = CARTESIAN_POINT('',(1.7799644377,6.78542266121));
#902 = CARTESIAN_POINT('',(1.78121015916,6.823789903758));
#903 = CARTESIAN_POINT('',(1.782580351387,6.86212119137));
#904 = CARTESIAN_POINT('',(1.784077771969,6.900412516532));
#905 = CARTESIAN_POINT('',(1.788027846903,6.993222274806));
#906 = CARTESIAN_POINT('',(1.790615560221,7.047696544641));
#907 = CARTESIAN_POINT('',(1.793477892611,7.102069081208));
#908 = CARTESIAN_POINT('',(1.796626161288,7.156334134959));
#909 = CARTESIAN_POINT('',(1.800072530009,7.210480525181));
#910 = ( GEOMETRIC_REPRESENTATION_CONTEXT(2) 
PARAMETRIC_REPRESENTATION_CONTEXT() REPRESENTATION_CONTEXT('2D SPACE',''
  ) );
#911 = PCURVE('',#912,#917);
#912 = PLANE('',#913);
#913 = AXIS2_PLACEMENT_3D('',#914,#915,#916);
#914 = CARTESIAN_POINT('',(17.,2.,5.));
#915 = DIRECTION('',(-0.,1.,0.));
#916 = DIRECTION('',(0.,0.,-1.));
#917 = DEFINITIONAL_REPRESENTATION('',(#918),#957);
#918 = B_SPLINE_CURVE_WITH_KNOTS('',5,(#919,#920,#921,#922,#923,#924,
    #925,#926,#927,#928,#929,#930,#931,#932,#933,#934,#935,#936,#937,
    #938,#939,#940,#941,#942,#943,#944,#945,#946,#947,#948,#949,#950,
    #951,#952,#953,#954,#955,#956),.UNSPECIFIED.,.F.,.F.,(6,4,4,4,4,4,4,
    4,4,6),(0.,0.146896491422,0.250292016171,0.322963856683,
    0.375276981882,0.50000743061,0.676442340889,0.749112646935,
    0.852505041003,1.),.UNSPECIFIED.);
#919 = CARTESIAN_POINT('',(4.4,-1.569714114251));
#920 = CARTESIAN_POINT('',(4.302931919441,-1.702616114253));
#921 = CARTESIAN_POINT('',(4.196927612169,-1.828955890555));
#922 = CARTESIAN_POINT('',(4.082519621484,-1.947879482242));
#923 = CARTESIAN_POINT('',(3.960362333959,-2.058610020256));
#924 = CARTESIAN_POINT('',(3.740352162539,-2.232153058116));
#925 = CARTESIAN_POINT('',(3.646012917823,-2.299446634472));
#926 = CARTESIAN_POINT('',(3.548492468041,-2.362104927544));
#927 = CARTESIAN_POINT('',(3.448087089606,-2.419919045299));
#928 = CARTESIAN_POINT('',(3.272744864619,-2.509813436923));
#929 = CARTESIAN_POINT('',(3.199105218511,-2.544435914826));
#930 = CARTESIAN_POINT('',(3.124309589547,-2.576514856355));
#931 = CARTESIAN_POINT('',(3.04847355578,-2.60599651152));
#932 = CARTESIAN_POINT('',(2.916463731486,-2.652155599082));
#933 = CARTESIAN_POINT('',(2.860733314275,-2.670106345262));
#934 = CARTESIAN_POINT('',(2.804570624127,-2.686670797004));
#935 = CARTESIAN_POINT('',(2.74802125789,-2.701834449141));
#936 = CARTESIAN_POINT('',(2.555489579693,-2.748371182106));
#937 = CARTESIAN_POINT('',(2.41791156894,-2.773125345076));
#938 = CARTESIAN_POINT('',(2.279031712158,-2.789682766316));
#939 = CARTESIAN_POINT('',(2.139495912154,-2.797960778921));
#940 = CARTESIAN_POINT('',(1.802586941171,-2.797956413367));
#941 = CARTESIAN_POINT('',(1.605203734538,-2.781386461623));
#942 = CARTESIAN_POINT('',(1.40968425387,-2.748250430315));
#943 = CARTESIAN_POINT('',(1.217843129174,-2.698880703988));
#944 = CARTESIAN_POINT('',(0.9546339591,-2.607177991755));
#945 = CARTESIAN_POINT('',(0.878766570552,-2.577782292178));
#946 = CARTESIAN_POINT('',(0.803936665841,-2.54578816694));
#947 = CARTESIAN_POINT('',(0.730259888392,-2.511249226304));
#948 = CARTESIAN_POINT('',(0.554821914313,-2.421554286457));
#949 = CARTESIAN_POINT('',(0.454355024147,-2.363854729205));
#950 = CARTESIAN_POINT('',(0.356767603506,-2.301307839063));
#951 = CARTESIAN_POINT('',(0.262356182771,-2.234122150253));
#952 = CARTESIAN_POINT('',(4.162896865081E-02,-2.060413537633));
#953 = CARTESIAN_POINT('',(-8.11209892983E-02,-1.949332513994));
#954 = CARTESIAN_POINT('',(-0.196063784909,-1.829985145554));
#955 = CARTESIAN_POINT('',(-0.3025364976,-1.703157511108));
#956 = CARTESIAN_POINT('',(-0.4,-1.569714114251));
#957 = ( GEOMETRIC_REPRESENTATION_CONTEXT(2) 
PARAMETRIC_REPRESENTATION_CONTEXT() REPRESENTATION_CONTEXT('2D SPACE',''
  ) );
#958 = ORIENTED_EDGE('',*,*,#959,.T.);
#959 = EDGE_CURVE('',#827,#960,#962,.T.);
#960 = VERTEX_POINT('',#961);
#961 = CARTESIAN_POINT('',(17.021748477765,6.,5.));
#962 = SURFACE_CURVE('',#963,(#968,#975),.PCURVE_S1.);
#963 = CIRCLE('',#964,9.2360679775);
#964 = AXIS2_PLACEMENT_3D('',#965,#966,#967);
#965 = CARTESIAN_POINT('',(10.,0.,5.));
#966 = DIRECTION('',(-0.,0.,1.));
#967 = DIRECTION('',(0.,-1.,0.));
#968 = PCURVE('',#73,#969);
#969 = DEFINITIONAL_REPRESENTATION('',(#970),#974);
#970 = LINE('',#971,#972);
#971 = CARTESIAN_POINT('',(0.,7.012912963407));
#972 = VECTOR('',#973,1.);
#973 = DIRECTION('',(1.,0.));
#974 = ( GEOMETRIC_REPRESENTATION_CONTEXT(2) 
PARAMETRIC_REPRESENTATION_CONTEXT() REPRESENTATION_CONTEXT('2D SPACE',''
  ) );
#975 = PCURVE('',#976,#981);
#976 = PLANE('',#977);
#977 = AXIS2_PLACEMENT_3D('',#978,#979,#980);
#978 = CARTESIAN_POINT('',(17.,6.,5.));
#979 = DIRECTION('',(0.,0.,-1.));
#980 = DIRECTION('',(0.,-1.,0.));
#981 = DEFINITIONAL_REPRESENTATION('',(#982),#990);
#982 = ( BOUNDED_CURVE() B_SPLINE_CURVE(2,(#983,#984,#985,#986,#987,#988
,#989),.UNSPECIFIED.,.T.,.F.) B_SPLINE_CURVE_WITH_KNOTS((1,2,2,2,2,1),(
    -2.094395102393,0.,2.094395102393,4.188790204786,6.28318530718,
8.377580409573),.UNSPECIFIED.) CURVE() GEOMETRIC_REPRESENTATION_ITEM() 
RATIONAL_B_SPLINE_CURVE((1.,0.5,1.,0.5,1.,0.5,1.)) REPRESENTATION_ITEM(
  '') );
#983 = CARTESIAN_POINT('',(15.2360679775,7.));
#984 = CARTESIAN_POINT('',(15.2360679775,-8.99733899919));
#985 = CARTESIAN_POINT('',(1.38196601125,-0.998669499595));
#986 = CARTESIAN_POINT('',(-12.472135955,7.));
#987 = CARTESIAN_POINT('',(1.38196601125,14.998669499595));
#988 = CARTESIAN_POINT('',(15.2360679775,22.99733899919));
#989 = CARTESIAN_POINT('',(15.2360679775,7.));
#990 = ( GEOMETRIC_REPRESENTATION_CONTEXT(2) 
PARAMETRIC_REPRESENTATION_CONTEXT() REPRESENTATION_CONTEXT('2D SPACE',''
  ) );
#991 = ORIENTED_EDGE('',*,*,#992,.F.);
#992 = EDGE_CURVE('',#798,#960,#993,.T.);
#993 = SURFACE_CURVE('',#994,(#1042,#1093),.PCURVE_S1.);
#994 = B_SPLINE_CURVE_WITH_KNOTS('',6,(#995,#996,#997,#998,#999,#1000,
    #1001,#1002,#1003,#1004,#1005,#1006,#1007,#1008,#1009,#1010,#1011,
    #1012,#1013,#1014,#1015,#1016,#1017,#1018,#1019,#1020,#1021,#1022,
    #1023,#1024,#1025,#1026,#1027,#1028,#1029,#1030,#1031,#1032,#1033,
    #1034,#1035,#1036,#1037,#1038,#1039,#1040,#1041),.UNSPECIFIED.,.F.,
  .F.,(7,5,5,5,5,5,5,5,5,7),(0.,0.182869328657,0.287362367261,
    0.352479346732,0.397324538409,0.50016187333,0.64750159925,
    0.712614805967,0.81709701541,1.),.UNSPECIFIED.);
#995 = CARTESIAN_POINT('',(16.437390775772,6.,0.6));
#996 = CARTESIAN_POINT('',(16.599707980551,6.,0.689053915636));
#997 = CARTESIAN_POINT('',(16.756614325428,6.,0.787406455576));
#998 = CARTESIAN_POINT('',(16.907071595207,6.,0.895299401547));
#999 = CARTESIAN_POINT('',(17.049883694606,6.,1.012806678909));
#1000 = CARTESIAN_POINT('',(17.18373915613,6.,1.139776049884));
#1001 = CARTESIAN_POINT('',(17.377896230955,6.,1.353420824348));
#1002 = CARTESIAN_POINT('',(17.445133592027,6.,1.434041935856));
#1003 = CARTESIAN_POINT('',(17.508754735074,6.,1.517505191948));
#1004 = CARTESIAN_POINT('',(17.56850691074,6.,1.603687030861));
#1005 = CARTESIAN_POINT('',(17.624144650291,6.,1.692427388721));
#1006 = CARTESIAN_POINT('',(17.707401186864,6.,1.840294410621));
#1007 = CARTESIAN_POINT('',(17.737678215398,6.,1.897979649424));
#1008 = CARTESIAN_POINT('',(17.766212056766,6.,1.956532228521));
#1009 = CARTESIAN_POINT('',(17.792950236639,6.,2.015898333508));
#1010 = CARTESIAN_POINT('',(17.81784402463,6.,2.076018864335));
#1011 = CARTESIAN_POINT('',(17.856691263133,6.,2.178708861118));
#1012 = CARTESIAN_POINT('',(17.871638116641,6.,2.220915650612));
#1013 = CARTESIAN_POINT('',(17.885674402264,6.,2.263428761343));
#1014 = CARTESIAN_POINT('',(17.898786755088,6.,2.306226174803));
#1015 = CARTESIAN_POINT('',(17.910963037832,6.,2.349284896427));
#1016 = CARTESIAN_POINT('',(17.947942963194,6.,2.491865877113));
#1017 = CARTESIAN_POINT('',(17.968714730252,6.,2.592402488996));
#1018 = CARTESIAN_POINT('',(17.98437516847,6.,2.693895544358));
#1019 = CARTESIAN_POINT('',(17.994832985506,6.,2.796036609772));
#1020 = CARTESIAN_POINT('',(18.000041122255,6.,2.89850484475));
#1021 = CARTESIAN_POINT('',(17.999940607585,6.,3.147771089483));
#1022 = CARTESIAN_POINT('',(17.989105753063,6.,3.294588328903));
#1023 = CARTESIAN_POINT('',(17.967491229979,6.,3.440420441267));
#1024 = CARTESIAN_POINT('',(17.935308969153,6.,3.584340065309));
#1025 = CARTESIAN_POINT('',(17.892927126377,6.,3.725489057059));
#1026 = CARTESIAN_POINT('',(17.817880165101,6.,3.923892256321));
#1027 = CARTESIAN_POINT('',(17.792990388846,6.,3.98400957378));
#1028 = CARTESIAN_POINT('',(17.766256425989,6.,4.043372630155));
#1029 = CARTESIAN_POINT('',(17.737726993752,6.,4.10192233355));
#1030 = CARTESIAN_POINT('',(17.707454552832,6.,4.159604876071));
#1031 = CARTESIAN_POINT('',(17.624212737518,6.,4.307461192025));
#1032 = CARTESIAN_POINT('',(17.568585787977,6.,4.396194045816));
#1033 = CARTESIAN_POINT('',(17.508845133887,6.,4.482369118264));
#1034 = CARTESIAN_POINT('',(17.445236152443,6.,4.565826374442));
#1035 = CARTESIAN_POINT('',(17.378011502881,6.,4.646442265752));
#1036 = CARTESIAN_POINT('',(17.183855122662,6.,4.860113943525));
#1037 = CARTESIAN_POINT('',(17.049982679515,6.,4.98711187221));
#1038 = CARTESIAN_POINT('',(16.907149808797,6.,5.104644510226));
#1039 = CARTESIAN_POINT('',(16.756668700959,6.,5.212559460756));
#1040 = CARTESIAN_POINT('',(16.59973610297,6.,5.310930655245));
#1041 = CARTESIAN_POINT('',(16.437390775772,6.,5.4));
#1042 = PCURVE('',#73,#1043);
#1043 = DEFINITIONAL_REPRESENTATION('',(#1044),#1092);
#1044 = B_SPLINE_CURVE_WITH_KNOTS('',6,(#1045,#1046,#1047,#1048,#1049,
    #1050,#1051,#1052,#1053,#1054,#1055,#1056,#1057,#1058,#1059,#1060,
    #1061,#1062,#1063,#1064,#1065,#1066,#1067,#1068,#1069,#1070,#1071,
    #1072,#1073,#1074,#1075,#1076,#1077,#1078,#1079,#1080,#1081,#1082,
    #1083,#1084,#1085,#1086,#1087,#1088,#1089,#1090,#1091),
  .UNSPECIFIED.,.F.,.F.,(7,5,5,5,5,5,5,5,5,7),(0.,0.182869328657,
    0.287362367261,0.352479346732,0.397324538409,0.50016187333,
    0.64750159925,0.712614805967,0.81709701541,1.),.UNSPECIFIED.);
#1045 = CARTESIAN_POINT('',(2.321041570781,5.355890089178));
#1046 = CARTESIAN_POINT('',(2.308465341072,5.405364486753));
#1047 = CARTESIAN_POINT('',(2.296715599029,5.456088451011));
#1048 = CARTESIAN_POINT('',(2.285804315874,5.508043280397));
#1049 = CARTESIAN_POINT('',(2.275747327403,5.561195466557));
#1050 = CARTESIAN_POINT('',(2.266562387891,5.615499604768));
#1051 = CARTESIAN_POINT('',(2.253531210886,5.70252481702));
#1052 = CARTESIAN_POINT('',(2.249084090786,5.73452070771));
#1053 = CARTESIAN_POINT('',(2.244932268192,5.766852195269));
#1054 = CARTESIAN_POINT('',(2.241079664228,5.79950191613));
#1055 = CARTESIAN_POINT('',(2.237530177695,5.832449206266));
#1056 = CARTESIAN_POINT('',(2.232267013388,5.886370084574));
#1057 = CARTESIAN_POINT('',(2.23036555859,5.90717732006));
#1058 = CARTESIAN_POINT('',(2.228584221121,5.928084346259));
#1059 = CARTESIAN_POINT('',(2.226923874789,5.94908462438));
#1060 = CARTESIAN_POINT('',(2.225385338473,5.97017112221));
#1061 = CARTESIAN_POINT('',(2.222994221821,6.005912498335));
#1062 = CARTESIAN_POINT('',(2.22207720004,6.020526019371));
#1063 = CARTESIAN_POINT('',(2.221218558995,6.035174409929));
#1064 = CARTESIAN_POINT('',(2.220418526869,6.049855109192));
#1065 = CARTESIAN_POINT('',(2.219677311814,6.064565462831));
#1066 = CARTESIAN_POINT('',(2.217430683522,6.113097662971));
#1067 = CARTESIAN_POINT('',(2.216176504405,6.147035300617));
#1068 = CARTESIAN_POINT('',(2.21523490656,6.181080106313));
#1069 = CARTESIAN_POINT('',(2.214607461768,6.215197966189));
#1070 = CARTESIAN_POINT('',(2.214294968253,6.249353586991));
#1071 = CARTESIAN_POINT('',(2.214300999133,6.332442339559));
#1072 = CARTESIAN_POINT('',(2.214951091053,6.381382331993));
#1073 = CARTESIAN_POINT('',(2.216247986463,6.430205896821));
#1074 = CARTESIAN_POINT('',(2.218187379556,6.478814625796));
#1075 = CARTESIAN_POINT('',(2.220763856638,6.527114515248));
#1076 = CARTESIAN_POINT('',(2.225383106601,6.596168368496));
#1077 = CARTESIAN_POINT('',(2.226921385905,6.617253522617));
#1078 = CARTESIAN_POINT('',(2.228581459303,6.638252476101));
#1079 = CARTESIAN_POINT('',(2.230362508131,6.659158197797));
#1080 = CARTESIAN_POINT('',(2.2322636588,6.679964149826));
#1081 = CARTESIAN_POINT('',(2.237525843022,6.733880223889));
#1082 = CARTESIAN_POINT('',(2.241074601489,6.766824052432));
#1083 = CARTESIAN_POINT('',(2.244926411452,6.799470399312));
#1084 = CARTESIAN_POINT('',(2.249077375493,6.831798605153));
#1085 = CARTESIAN_POINT('',(2.253523573792,6.863791309667));
#1086 = CARTESIAN_POINT('',(2.266554430542,6.950823961263));
#1087 = CARTESIAN_POINT('',(2.275740356837,7.005138306614));
#1088 = CARTESIAN_POINT('',(2.285798643795,7.058300325447));
#1089 = CARTESIAN_POINT('',(2.296711527179,7.110264585143));
#1090 = CARTESIAN_POINT('',(2.308463162166,7.160997555873));
#1091 = CARTESIAN_POINT('',(2.321041570781,7.210480525181));
#1092 = ( GEOMETRIC_REPRESENTATION_CONTEXT(2) 
PARAMETRIC_REPRESENTATION_CONTEXT() REPRESENTATION_CONTEXT('2D SPACE',''
  ) );
#1093 = PCURVE('',#1094,#1099);
#1094 = PLANE('',#1095);
#1095 = AXIS2_PLACEMENT_3D('',#1096,#1097,#1098);
#1096 = CARTESIAN_POINT('',(17.,6.,1.));
#1097 = DIRECTION('',(0.,-1.,0.));
#1098 = DIRECTION('',(0.,0.,1.));
#1099 = DEFINITIONAL_REPRESENTATION('',(#1100),#1148);
#1100 = B_SPLINE_CURVE_WITH_KNOTS('',6,(#1101,#1102,#1103,#1104,#1105,
    #1106,#1107,#1108,#1109,#1110,#1111,#1112,#1113,#1114,#1115,#1116,
    #1117,#1118,#1119,#1120,#1121,#1122,#1123,#1124,#1125,#1126,#1127,
    #1128,#1129,#1130,#1131,#1132,#1133,#1134,#1135,#1136,#1137,#1138,
    #1139,#1140,#1141,#1142,#1143,#1144,#1145,#1146,#1147),
  .UNSPECIFIED.,.F.,.F.,(7,5,5,5,5,5,5,5,5,7),(0.,0.182869328657,
    0.287362367261,0.352479346732,0.397324538409,0.50016187333,
    0.64750159925,0.712614805967,0.81709701541,1.),.UNSPECIFIED.);
#1101 = CARTESIAN_POINT('',(-0.4,0.562609224228));
#1102 = CARTESIAN_POINT('',(-0.310946084364,0.400292019449));
#1103 = CARTESIAN_POINT('',(-0.212593544424,0.243385674572));
#1104 = CARTESIAN_POINT('',(-0.104700598453,9.292840479312E-02));
#1105 = CARTESIAN_POINT('',(1.280667890856E-02,-4.988369460645E-02));
#1106 = CARTESIAN_POINT('',(0.139776049884,-0.18373915613));
#1107 = CARTESIAN_POINT('',(0.353420824348,-0.377896230955));
#1108 = CARTESIAN_POINT('',(0.434041935856,-0.445133592027));
#1109 = CARTESIAN_POINT('',(0.517505191948,-0.508754735074));
#1110 = CARTESIAN_POINT('',(0.603687030861,-0.56850691074));
#1111 = CARTESIAN_POINT('',(0.692427388721,-0.624144650291));
#1112 = CARTESIAN_POINT('',(0.840294410621,-0.707401186864));
#1113 = CARTESIAN_POINT('',(0.897979649424,-0.737678215398));
#1114 = CARTESIAN_POINT('',(0.956532228521,-0.766212056766));
#1115 = CARTESIAN_POINT('',(1.015898333508,-0.792950236639));
#1116 = CARTESIAN_POINT('',(1.076018864335,-0.81784402463));
#1117 = CARTESIAN_POINT('',(1.178708861118,-0.856691263133));
#1118 = CARTESIAN_POINT('',(1.220915650612,-0.871638116641));
#1119 = CARTESIAN_POINT('',(1.263428761343,-0.885674402264));
#1120 = CARTESIAN_POINT('',(1.306226174803,-0.898786755088));
#1121 = CARTESIAN_POINT('',(1.349284896427,-0.910963037832));
#1122 = CARTESIAN_POINT('',(1.491865877113,-0.947942963194));
#1123 = CARTESIAN_POINT('',(1.592402488996,-0.968714730252));
#1124 = CARTESIAN_POINT('',(1.693895544358,-0.98437516847));
#1125 = CARTESIAN_POINT('',(1.796036609772,-0.994832985506));
#1126 = CARTESIAN_POINT('',(1.89850484475,-1.000041122255));
#1127 = CARTESIAN_POINT('',(2.147771089483,-0.999940607585));
#1128 = CARTESIAN_POINT('',(2.294588328903,-0.989105753063));
#1129 = CARTESIAN_POINT('',(2.440420441267,-0.967491229979));
#1130 = CARTESIAN_POINT('',(2.584340065309,-0.935308969153));
#1131 = CARTESIAN_POINT('',(2.725489057059,-0.892927126377));
#1132 = CARTESIAN_POINT('',(2.923892256321,-0.817880165101));
#1133 = CARTESIAN_POINT('',(2.98400957378,-0.792990388846));
#1134 = CARTESIAN_POINT('',(3.043372630155,-0.766256425989));
#1135 = CARTESIAN_POINT('',(3.10192233355,-0.737726993752));
#1136 = CARTESIAN_POINT('',(3.159604876071,-0.707454552832));
#1137 = CARTESIAN_POINT('',(3.307461192025,-0.624212737518));
#1138 = CARTESIAN_POINT('',(3.396194045816,-0.568585787977));
#1139 = CARTESIAN_POINT('',(3.482369118264,-0.508845133887));
#1140 = CARTESIAN_POINT('',(3.565826374442,-0.445236152443));
#1141 = CARTESIAN_POINT('',(3.646442265752,-0.378011502881));
#1142 = CARTESIAN_POINT('',(3.860113943525,-0.183855122662));
#1143 = CARTESIAN_POINT('',(3.98711187221,-4.998267951549E-02));
#1144 = CARTESIAN_POINT('',(4.104644510226,9.285019120342E-02));
#1145 = CARTESIAN_POINT('',(4.212559460756,0.243331299041));
#1146 = CARTESIAN_POINT('',(4.310930655245,0.40026389703));
#1147 = CARTESIAN_POINT('',(4.4,0.562609224228));
#1148 = ( GEOMETRIC_REPRESENTATION_CONTEXT(2) 
PARAMETRIC_REPRESENTATION_CONTEXT() REPRESENTATION_CONTEXT('2D SPACE',''
  ) );
#1149 = ADVANCED_FACE('',(#1150),#101,.T.);
#1150 = FACE_BOUND('',#1151,.T.);
#1151 = EDGE_LOOP('',(#1152,#1153,#1154,#1155));
#1152 = ORIENTED_EDGE('',*,*,#415,.F.);
#1153 = ORIENTED_EDGE('',*,*,#85,.T.);
#1154 = ORIENTED_EDGE('',*,*,#363,.F.);
#1155 = ORIENTED_EDGE('',*,*,#1156,.F.);
#1156 = EDGE_CURVE('',#390,#340,#1157,.T.);
#1157 = SURFACE_CURVE('',#1158,(#1162,#1169),.PCURVE_S1.);
#1158 = LINE('',#1159,#1160);
#1159 = CARTESIAN_POINT('',(10.,7.,6.));
#1160 = VECTOR('',#1161,1.);
#1161 = DIRECTION('',(-1.,0.,0.));
#1162 = PCURVE('',#101,#1163);
#1163 = DEFINITIONAL_REPRESENTATION('',(#1164),#1168);
#1164 = LINE('',#1165,#1166);
#1165 = CARTESIAN_POINT('',(1.570796326795,0.));
#1166 = VECTOR('',#1167,1.);
#1167 = DIRECTION('',(0.,1.));
#1168 = ( GEOMETRIC_REPRESENTATION_CONTEXT(2) 
PARAMETRIC_REPRESENTATION_CONTEXT() REPRESENTATION_CONTEXT('2D SPACE',''
  ) );
#1169 = PCURVE('',#281,#1170);
#1170 = DEFINITIONAL_REPRESENTATION('',(#1171),#1175);
#1171 = LINE('',#1172,#1173);
#1172 = CARTESIAN_POINT('',(10.,7.));
#1173 = VECTOR('',#1174,1.);
#1174 = DIRECTION('',(-1.,0.));
#1175 = ( GEOMETRIC_REPRESENTATION_CONTEXT(2) 
PARAMETRIC_REPRESENTATION_CONTEXT() REPRESENTATION_CONTEXT('2D SPACE',''
  ) );
#1176 = ADVANCED_FACE('',(#1177),#165,.F.);
#1177 = FACE_BOUND('',#1178,.T.);
#1178 = EDGE_LOOP('',(#1179,#1180,#1203,#1231));
#1179 = ORIENTED_EDGE('',*,*,#142,.T.);
#1180 = ORIENTED_EDGE('',*,*,#1181,.T.);
#1181 = EDGE_CURVE('',#145,#1182,#1184,.T.);
#1182 = VERTEX_POINT('',#1183);
#1183 = CARTESIAN_POINT('',(5.,-5.,6.));
#1184 = SURFACE_CURVE('',#1185,(#1189,#1196),.PCURVE_S1.);
#1185 = LINE('',#1186,#1187);
#1186 = CARTESIAN_POINT('',(5.,-5.,-1.));
#1187 = VECTOR('',#1188,1.);
#1188 = DIRECTION('',(0.,0.,1.));
#1189 = PCURVE('',#165,#1190);
#1190 = DEFINITIONAL_REPRESENTATION('',(#1191),#1195);
#1191 = LINE('',#1192,#1193);
#1192 = CARTESIAN_POINT('',(-0.,0.));
#1193 = VECTOR('',#1194,1.);
#1194 = DIRECTION('',(-0.,-1.));
#1195 = ( GEOMETRIC_REPRESENTATION_CONTEXT(2) 
PARAMETRIC_REPRESENTATION_CONTEXT() REPRESENTATION_CONTEXT('2D SPACE',''
  ) );
#1196 = PCURVE('',#192,#1197);
#1197 = DEFINITIONAL_REPRESENTATION('',(#1198),#1202);
#1198 = LINE('',#1199,#1200);
#1199 = CARTESIAN_POINT('',(10.,0.));
#1200 = VECTOR('',#1201,1.);
#1201 = DIRECTION('',(0.,-1.));
#1202 = ( GEOMETRIC_REPRESENTATION_CONTEXT(2) 
PARAMETRIC_REPRESENTATION_CONTEXT() REPRESENTATION_CONTEXT('2D SPACE',''
  ) );
#1203 = ORIENTED_EDGE('',*,*,#1204,.F.);
#1204 = EDGE_CURVE('',#1205,#1182,#1207,.T.);
#1205 = VERTEX_POINT('',#1206);
#1206 = CARTESIAN_POINT('',(5.,5.,6.));
#1207 = SURFACE_CURVE('',#1208,(#1213,#1220),.PCURVE_S1.);
#1208 = CIRCLE('',#1209,5.);
#1209 = AXIS2_PLACEMENT_3D('',#1210,#1211,#1212);
#1210 = CARTESIAN_POINT('',(5.,4.440892098501E-16,6.));
#1211 = DIRECTION('',(-0.,0.,-1.));
#1212 = DIRECTION('',(-0.,-1.,0.));
#1213 = PCURVE('',#165,#1214);
#1214 = DEFINITIONAL_REPRESENTATION('',(#1215),#1219);
#1215 = LINE('',#1216,#1217);
#1216 = CARTESIAN_POINT('',(-6.28318530718,-7.));
#1217 = VECTOR('',#1218,1.);
#1218 = DIRECTION('',(1.,-0.));
#1219 = ( GEOMETRIC_REPRESENTATION_CONTEXT(2) 
PARAMETRIC_REPRESENTATION_CONTEXT() REPRESENTATION_CONTEXT('2D SPACE',''
  ) );
#1220 = PCURVE('',#281,#1221);
#1221 = DEFINITIONAL_REPRESENTATION('',(#1222),#1230);
#1222 = ( BOUNDED_CURVE() B_SPLINE_CURVE(2,(#1223,#1224,#1225,#1226,
#1227,#1228,#1229),.UNSPECIFIED.,.T.,.F.) B_SPLINE_CURVE_WITH_KNOTS((1,2
    ,2,2,2,1),(-2.094395102393,0.,2.094395102393,4.188790204786,
6.28318530718,8.377580409573),.UNSPECIFIED.) CURVE() 
GEOMETRIC_REPRESENTATION_ITEM() RATIONAL_B_SPLINE_CURVE((1.,0.5,1.,0.5,
1.,0.5,1.)) REPRESENTATION_ITEM('') );
#1223 = CARTESIAN_POINT('',(5.,-5.));
#1224 = CARTESIAN_POINT('',(-3.660254037844,-5.));
#1225 = CARTESIAN_POINT('',(0.669872981078,2.5));
#1226 = CARTESIAN_POINT('',(5.,10.));
#1227 = CARTESIAN_POINT('',(9.330127018922,2.5));
#1228 = CARTESIAN_POINT('',(13.660254037844,-5.));
#1229 = CARTESIAN_POINT('',(5.,-5.));
#1230 = ( GEOMETRIC_REPRESENTATION_CONTEXT(2) 
PARAMETRIC_REPRESENTATION_CONTEXT() REPRESENTATION_CONTEXT('2D SPACE',''
  ) );
#1231 = ORIENTED_EDGE('',*,*,#1232,.F.);
#1232 = EDGE_CURVE('',#143,#1205,#1233,.T.);
#1233 = SURFACE_CURVE('',#1234,(#1238,#1245),.PCURVE_S1.);
#1234 = LINE('',#1235,#1236);
#1235 = CARTESIAN_POINT('',(5.,5.,-1.));
#1236 = VECTOR('',#1237,1.);
#1237 = DIRECTION('',(0.,0.,1.));
#1238 = PCURVE('',#165,#1239);
#1239 = DEFINITIONAL_REPRESENTATION('',(#1240),#1244);
#1240 = LINE('',#1241,#1242);
#1241 = CARTESIAN_POINT('',(-3.14159265359,0.));
#1242 = VECTOR('',#1243,1.);
#1243 = DIRECTION('',(-0.,-1.));
#1244 = ( GEOMETRIC_REPRESENTATION_CONTEXT(2) 
PARAMETRIC_REPRESENTATION_CONTEXT() REPRESENTATION_CONTEXT('2D SPACE',''
  ) );
#1245 = PCURVE('',#249,#1246);
#1246 = DEFINITIONAL_REPRESENTATION('',(#1247),#1251);
#1247 = LINE('',#1248,#1249);
#1248 = CARTESIAN_POINT('',(0.,-0.));
#1249 = VECTOR('',#1250,1.);
#1250 = DIRECTION('',(0.,-1.));
#1251 = ( GEOMETRIC_REPRESENTATION_CONTEXT(2) 
PARAMETRIC_REPRESENTATION_CONTEXT() REPRESENTATION_CONTEXT('2D SPACE',''
  ) );
#1252 = ADVANCED_FACE('',(#1253),#249,.T.);
#1253 = FACE_BOUND('',#1254,.T.);
#1254 = EDGE_LOOP('',(#1255,#1256,#1257,#1278));
#1255 = ORIENTED_EDGE('',*,*,#236,.T.);
#1256 = ORIENTED_EDGE('',*,*,#1232,.T.);
#1257 = ORIENTED_EDGE('',*,*,#1258,.F.);
#1258 = EDGE_CURVE('',#1259,#1205,#1261,.T.);
#1259 = VERTEX_POINT('',#1260);
#1260 = CARTESIAN_POINT('',(-5.,5.,6.));
#1261 = SURFACE_CURVE('',#1262,(#1266,#1272),.PCURVE_S1.);
#1262 = LINE('',#1263,#1264);
#1263 = CARTESIAN_POINT('',(2.5,5.,6.));
#1264 = VECTOR('',#1265,1.);
#1265 = DIRECTION('',(1.,0.,-0.));
#1266 = PCURVE('',#249,#1267);
#1267 = DEFINITIONAL_REPRESENTATION('',(#1268),#1271);
#1268 = B_SPLINE_CURVE_WITH_KNOTS('',1,(#1269,#1270),.UNSPECIFIED.,.F.,
  .F.,(2,2),(-7.5,2.5),.PIECEWISE_BEZIER_KNOTS.);
#1269 = CARTESIAN_POINT('',(10.,-7.));
#1270 = CARTESIAN_POINT('',(0.,-7.));
#1271 = ( GEOMETRIC_REPRESENTATION_CONTEXT(2) 
PARAMETRIC_REPRESENTATION_CONTEXT() REPRESENTATION_CONTEXT('2D SPACE',''
  ) );
#1272 = PCURVE('',#281,#1273);
#1273 = DEFINITIONAL_REPRESENTATION('',(#1274),#1277);
#1274 = B_SPLINE_CURVE_WITH_KNOTS('',1,(#1275,#1276),.UNSPECIFIED.,.F.,
  .F.,(2,2),(-7.5,2.5),.PIECEWISE_BEZIER_KNOTS.);
#1275 = CARTESIAN_POINT('',(-5.,5.));
#1276 = CARTESIAN_POINT('',(5.,5.));
#1277 = ( GEOMETRIC_REPRESENTATION_CONTEXT(2) 
PARAMETRIC_REPRESENTATION_CONTEXT() REPRESENTATION_CONTEXT('2D SPACE',''
  ) );
#1278 = ORIENTED_EDGE('',*,*,#1279,.F.);
#1279 = EDGE_CURVE('',#204,#1259,#1280,.T.);
#1280 = SURFACE_CURVE('',#1281,(#1285,#1292),.PCURVE_S1.);
#1281 = LINE('',#1282,#1283);
#1282 = CARTESIAN_POINT('',(-5.,5.,-1.));
#1283 = VECTOR('',#1284,1.);
#1284 = DIRECTION('',(0.,0.,1.));
#1285 = PCURVE('',#249,#1286);
#1286 = DEFINITIONAL_REPRESENTATION('',(#1287),#1291);
#1287 = LINE('',#1288,#1289);
#1288 = CARTESIAN_POINT('',(10.,0.));
#1289 = VECTOR('',#1290,1.);
#1290 = DIRECTION('',(0.,-1.));
#1291 = ( GEOMETRIC_REPRESENTATION_CONTEXT(2) 
PARAMETRIC_REPRESENTATION_CONTEXT() REPRESENTATION_CONTEXT('2D SPACE',''
  ) );
#1292 = PCURVE('',#224,#1293);
#1293 = DEFINITIONAL_REPRESENTATION('',(#1294),#1298);
#1294 = LINE('',#1295,#1296);
#1295 = CARTESIAN_POINT('',(-0.,0.));
#1296 = VECTOR('',#1297,1.);
#1297 = DIRECTION('',(-0.,-1.));
#1298 = ( GEOMETRIC_REPRESENTATION_CONTEXT(2) 
PARAMETRIC_REPRESENTATION_CONTEXT() REPRESENTATION_CONTEXT('2D SPACE',''
  ) );
#1299 = ADVANCED_FACE('',(#1300),#224,.F.);
#1300 = FACE_BOUND('',#1301,.T.);
#1301 = EDGE_LOOP('',(#1302,#1303,#1304,#1332));
#1302 = ORIENTED_EDGE('',*,*,#203,.T.);
#1303 = ORIENTED_EDGE('',*,*,#1279,.T.);
#1304 = ORIENTED_EDGE('',*,*,#1305,.F.);
#1305 = EDGE_CURVE('',#1306,#1259,#1308,.T.);
#1306 = VERTEX_POINT('',#1307);
#1307 = CARTESIAN_POINT('',(-5.,-5.,6.));
#1308 = SURFACE_CURVE('',#1309,(#1314,#1321),.PCURVE_S1.);
#1309 = CIRCLE('',#1310,5.);
#1310 = AXIS2_PLACEMENT_3D('',#1311,#1312,#1313);
#1311 = CARTESIAN_POINT('',(-5.,-4.440892098501E-16,6.));
#1312 = DIRECTION('',(0.,-0.,-1.));
#1313 = DIRECTION('',(1.7763568394E-16,1.,-0.));
#1314 = PCURVE('',#224,#1315);
#1315 = DEFINITIONAL_REPRESENTATION('',(#1316),#1320);
#1316 = LINE('',#1317,#1318);
#1317 = CARTESIAN_POINT('',(-6.28318530718,-7.));
#1318 = VECTOR('',#1319,1.);
#1319 = DIRECTION('',(1.,-0.));
#1320 = ( GEOMETRIC_REPRESENTATION_CONTEXT(2) 
PARAMETRIC_REPRESENTATION_CONTEXT() REPRESENTATION_CONTEXT('2D SPACE',''
  ) );
#1321 = PCURVE('',#281,#1322);
#1322 = DEFINITIONAL_REPRESENTATION('',(#1323),#1331);
#1323 = ( BOUNDED_CURVE() B_SPLINE_CURVE(2,(#1324,#1325,#1326,#1327,
#1328,#1329,#1330),.UNSPECIFIED.,.T.,.F.) B_SPLINE_CURVE_WITH_KNOTS((1,2
    ,2,2,2,1),(-2.094395102393,0.,2.094395102393,4.188790204786,
6.28318530718,8.377580409573),.UNSPECIFIED.) CURVE() 
GEOMETRIC_REPRESENTATION_ITEM() RATIONAL_B_SPLINE_CURVE((1.,0.5,1.,0.5,
1.,0.5,1.)) REPRESENTATION_ITEM('') );
#1324 = CARTESIAN_POINT('',(-5.,5.));
#1325 = CARTESIAN_POINT('',(3.660254037844,5.));
#1326 = CARTESIAN_POINT('',(-0.669872981078,-2.5));
#1327 = CARTESIAN_POINT('',(-5.,-10.));
#1328 = CARTESIAN_POINT('',(-9.330127018922,-2.5));
#1329 = CARTESIAN_POINT('',(-13.66025403784,5.));
#1330 = CARTESIAN_POINT('',(-5.,5.));
#1331 = ( GEOMETRIC_REPRESENTATION_CONTEXT(2) 
PARAMETRIC_REPRESENTATION_CONTEXT() REPRESENTATION_CONTEXT('2D SPACE',''
  ) );
#1332 = ORIENTED_EDGE('',*,*,#1333,.F.);
#1333 = EDGE_CURVE('',#178,#1306,#1334,.T.);
#1334 = SURFACE_CURVE('',#1335,(#1339,#1346),.PCURVE_S1.);
#1335 = LINE('',#1336,#1337);
#1336 = CARTESIAN_POINT('',(-5.,-5.,-1.));
#1337 = VECTOR('',#1338,1.);
#1338 = DIRECTION('',(0.,0.,1.));
#1339 = PCURVE('',#224,#1340);
#1340 = DEFINITIONAL_REPRESENTATION('',(#1341),#1345);
#1341 = LINE('',#1342,#1343);
#1342 = CARTESIAN_POINT('',(-3.14159265359,0.));
#1343 = VECTOR('',#1344,1.);
#1344 = DIRECTION('',(-0.,-1.));
#1345 = ( GEOMETRIC_REPRESENTATION_CONTEXT(2) 
PARAMETRIC_REPRESENTATION_CONTEXT() REPRESENTATION_CONTEXT('2D SPACE',''
  ) );
#1346 = PCURVE('',#192,#1347);
#1347 = DEFINITIONAL_REPRESENTATION('',(#1348),#1352);
#1348 = LINE('',#1349,#1350);
#1349 = CARTESIAN_POINT('',(-8.881784197001E-16,0.));
#1350 = VECTOR('',#1351,1.);
#1351 = DIRECTION('',(0.,-1.));
#1352 = ( GEOMETRIC_REPRESENTATION_CONTEXT(2) 
PARAMETRIC_REPRESENTATION_CONTEXT() REPRESENTATION_CONTEXT('2D SPACE',''
  ) );
#1353 = ADVANCED_FACE('',(#1354),#192,.T.);
#1354 = FACE_BOUND('',#1355,.T.);
#1355 = EDGE_LOOP('',(#1356,#1357,#1358,#1377));
#1356 = ORIENTED_EDGE('',*,*,#177,.T.);
#1357 = ORIENTED_EDGE('',*,*,#1333,.T.);
#1358 = ORIENTED_EDGE('',*,*,#1359,.F.);
#1359 = EDGE_CURVE('',#1182,#1306,#1360,.T.);
#1360 = SURFACE_CURVE('',#1361,(#1365,#1371),.PCURVE_S1.);
#1361 = LINE('',#1362,#1363);
#1362 = CARTESIAN_POINT('',(-2.5,-5.,6.));
#1363 = VECTOR('',#1364,1.);
#1364 = DIRECTION('',(-1.,0.,0.));
#1365 = PCURVE('',#192,#1366);
#1366 = DEFINITIONAL_REPRESENTATION('',(#1367),#1370);
#1367 = B_SPLINE_CURVE_WITH_KNOTS('',1,(#1368,#1369),.UNSPECIFIED.,.F.,
  .F.,(2,2),(-7.5,2.5),.PIECEWISE_BEZIER_KNOTS.);
#1368 = CARTESIAN_POINT('',(10.,-7.));
#1369 = CARTESIAN_POINT('',(-8.881784197001E-16,-7.));
#1370 = ( GEOMETRIC_REPRESENTATION_CONTEXT(2) 
PARAMETRIC_REPRESENTATION_CONTEXT() REPRESENTATION_CONTEXT('2D SPACE',''
  ) );
#1371 = PCURVE('',#281,#1372);
#1372 = DEFINITIONAL_REPRESENTATION('',(#1373),#1376);
#1373 = B_SPLINE_CURVE_WITH_KNOTS('',1,(#1374,#1375),.UNSPECIFIED.,.F.,
  .F.,(2,2),(-7.5,2.5),.PIECEWISE_BEZIER_KNOTS.);
#1374 = CARTESIAN_POINT('',(5.,-5.));
#1375 = CARTESIAN_POINT('',(-5.,-5.));
#1376 = ( GEOMETRIC_REPRESENTATION_CONTEXT(2) 
PARAMETRIC_REPRESENTATION_CONTEXT() REPRESENTATION_CONTEXT('2D SPACE',''
  ) );
#1377 = ORIENTED_EDGE('',*,*,#1181,.F.);
#1378 = ADVANCED_FACE('',(#1379,#1385),#281,.T.);
#1379 = FACE_BOUND('',#1380,.T.);
#1380 = EDGE_LOOP('',(#1381,#1382,#1383,#1384));
#1381 = ORIENTED_EDGE('',*,*,#263,.T.);
#1382 = ORIENTED_EDGE('',*,*,#389,.T.);
#1383 = ORIENTED_EDGE('',*,*,#1156,.T.);
#1384 = ORIENTED_EDGE('',*,*,#339,.T.);
#1385 = FACE_BOUND('',#1386,.T.);
#1386 = EDGE_LOOP('',(#1387,#1388,#1389,#1390));
#1387 = ORIENTED_EDGE('',*,*,#1204,.T.);
#1388 = ORIENTED_EDGE('',*,*,#1359,.T.);
#1389 = ORIENTED_EDGE('',*,*,#1305,.T.);
#1390 = ORIENTED_EDGE('',*,*,#1258,.T.);
#1391 = ADVANCED_FACE('',(#1392),#457,.F.);
#1392 = FACE_BOUND('',#1393,.F.);
#1393 = EDGE_LOOP('',(#1394,#1395,#1418,#1446));
#1394 = ORIENTED_EDGE('',*,*,#438,.F.);
#1395 = ORIENTED_EDGE('',*,*,#1396,.T.);
#1396 = EDGE_CURVE('',#439,#1397,#1399,.T.);
#1397 = VERTEX_POINT('',#1398);
#1398 = CARTESIAN_POINT('',(27.,-6.,1.));
#1399 = SURFACE_CURVE('',#1400,(#1404,#1411),.PCURVE_S1.);
#1400 = LINE('',#1401,#1402);
#1401 = CARTESIAN_POINT('',(17.,-6.,1.));
#1402 = VECTOR('',#1403,1.);
#1403 = DIRECTION('',(1.,0.,0.));
#1404 = PCURVE('',#457,#1405);
#1405 = DEFINITIONAL_REPRESENTATION('',(#1406),#1410);
#1406 = LINE('',#1407,#1408);
#1407 = CARTESIAN_POINT('',(0.,0.));
#1408 = VECTOR('',#1409,1.);
#1409 = DIRECTION('',(0.,-1.));
#1410 = ( GEOMETRIC_REPRESENTATION_CONTEXT(2) 
PARAMETRIC_REPRESENTATION_CONTEXT() REPRESENTATION_CONTEXT('2D SPACE',''
  ) );
#1411 = PCURVE('',#573,#1412);
#1412 = DEFINITIONAL_REPRESENTATION('',(#1413),#1417);
#1413 = LINE('',#1414,#1415);
#1414 = CARTESIAN_POINT('',(4.,0.));
#1415 = VECTOR('',#1416,1.);
#1416 = DIRECTION('',(0.,-1.));
#1417 = ( GEOMETRIC_REPRESENTATION_CONTEXT(2) 
PARAMETRIC_REPRESENTATION_CONTEXT() REPRESENTATION_CONTEXT('2D SPACE',''
  ) );
#1418 = ORIENTED_EDGE('',*,*,#1419,.T.);
#1419 = EDGE_CURVE('',#1397,#1420,#1422,.T.);
#1420 = VERTEX_POINT('',#1421);
#1421 = CARTESIAN_POINT('',(27.,-2.,1.));
#1422 = SURFACE_CURVE('',#1423,(#1427,#1434),.PCURVE_S1.);
#1423 = LINE('',#1424,#1425);
#1424 = CARTESIAN_POINT('',(27.,-6.,1.));
#1425 = VECTOR('',#1426,1.);
#1426 = DIRECTION('',(0.,1.,0.));
#1427 = PCURVE('',#457,#1428);
#1428 = DEFINITIONAL_REPRESENTATION('',(#1429),#1433);
#1429 = LINE('',#1430,#1431);
#1430 = CARTESIAN_POINT('',(0.,-10.));
#1431 = VECTOR('',#1432,1.);
#1432 = DIRECTION('',(1.,0.));
#1433 = ( GEOMETRIC_REPRESENTATION_CONTEXT(2) 
PARAMETRIC_REPRESENTATION_CONTEXT() REPRESENTATION_CONTEXT('2D SPACE',''
  ) );
#1434 = PCURVE('',#1435,#1440);
#1435 = PLANE('',#1436);
#1436 = AXIS2_PLACEMENT_3D('',#1437,#1438,#1439);
#1437 = CARTESIAN_POINT('',(27.,-4.,3.));
#1438 = DIRECTION('',(1.,0.,0.));
#1439 = DIRECTION('',(-0.,0.,1.));
#1440 = DEFINITIONAL_REPRESENTATION('',(#1441),#1445);
#1441 = LINE('',#1442,#1443);
#1442 = CARTESIAN_POINT('',(-2.,2.));
#1443 = VECTOR('',#1444,1.);
#1444 = DIRECTION('',(0.,-1.));
#1445 = ( GEOMETRIC_REPRESENTATION_CONTEXT(2) 
PARAMETRIC_REPRESENTATION_CONTEXT() REPRESENTATION_CONTEXT('2D SPACE',''
  ) );
#1446 = ORIENTED_EDGE('',*,*,#1447,.F.);
#1447 = EDGE_CURVE('',#441,#1420,#1448,.T.);
#1448 = SURFACE_CURVE('',#1449,(#1453,#1460),.PCURVE_S1.);
#1449 = LINE('',#1450,#1451);
#1450 = CARTESIAN_POINT('',(17.,-2.,1.));
#1451 = VECTOR('',#1452,1.);
#1452 = DIRECTION('',(1.,0.,0.));
#1453 = PCURVE('',#457,#1454);
#1454 = DEFINITIONAL_REPRESENTATION('',(#1455),#1459);
#1455 = LINE('',#1456,#1457);
#1456 = CARTESIAN_POINT('',(4.,0.));
#1457 = VECTOR('',#1458,1.);
#1458 = DIRECTION('',(0.,-1.));
#1459 = ( GEOMETRIC_REPRESENTATION_CONTEXT(2) 
PARAMETRIC_REPRESENTATION_CONTEXT() REPRESENTATION_CONTEXT('2D SPACE',''
  ) );
#1460 = PCURVE('',#746,#1461);
#1461 = DEFINITIONAL_REPRESENTATION('',(#1462),#1466);
#1462 = LINE('',#1463,#1464);
#1463 = CARTESIAN_POINT('',(0.,0.));
#1464 = VECTOR('',#1465,1.);
#1465 = DIRECTION('',(0.,-1.));
#1466 = ( GEOMETRIC_REPRESENTATION_CONTEXT(2) 
PARAMETRIC_REPRESENTATION_CONTEXT() REPRESENTATION_CONTEXT('2D SPACE',''
  ) );
#1467 = ADVANCED_FACE('',(#1468),#573,.F.);
#1468 = FACE_BOUND('',#1469,.F.);
#1469 = EDGE_LOOP('',(#1470,#1471,#1494,#1515));
#1470 = ORIENTED_EDGE('',*,*,#469,.T.);
#1471 = ORIENTED_EDGE('',*,*,#1472,.T.);
#1472 = EDGE_CURVE('',#470,#1473,#1475,.T.);
#1473 = VERTEX_POINT('',#1474);
#1474 = CARTESIAN_POINT('',(27.,-6.,5.));
#1475 = SURFACE_CURVE('',#1476,(#1480,#1487),.PCURVE_S1.);
#1476 = LINE('',#1477,#1478);
#1477 = CARTESIAN_POINT('',(17.,-6.,5.));
#1478 = VECTOR('',#1479,1.);
#1479 = DIRECTION('',(1.,0.,0.));
#1480 = PCURVE('',#573,#1481);
#1481 = DEFINITIONAL_REPRESENTATION('',(#1482),#1486);
#1482 = LINE('',#1483,#1484);
#1483 = CARTESIAN_POINT('',(0.,0.));
#1484 = VECTOR('',#1485,1.);
#1485 = DIRECTION('',(0.,-1.));
#1486 = ( GEOMETRIC_REPRESENTATION_CONTEXT(2) 
PARAMETRIC_REPRESENTATION_CONTEXT() REPRESENTATION_CONTEXT('2D SPACE',''
  ) );
#1487 = PCURVE('',#646,#1488);
#1488 = DEFINITIONAL_REPRESENTATION('',(#1489),#1493);
#1489 = LINE('',#1490,#1491);
#1490 = CARTESIAN_POINT('',(4.,0.));
#1491 = VECTOR('',#1492,1.);
#1492 = DIRECTION('',(0.,-1.));
#1493 = ( GEOMETRIC_REPRESENTATION_CONTEXT(2) 
PARAMETRIC_REPRESENTATION_CONTEXT() REPRESENTATION_CONTEXT('2D SPACE',''
  ) );
#1494 = ORIENTED_EDGE('',*,*,#1495,.T.);
#1495 = EDGE_CURVE('',#1473,#1397,#1496,.T.);
#1496 = SURFACE_CURVE('',#1497,(#1501,#1508),.PCURVE_S1.);
#1497 = LINE('',#1498,#1499);
#1498 = CARTESIAN_POINT('',(27.,-6.,5.));
#1499 = VECTOR('',#1500,1.);
#1500 = DIRECTION('',(0.,0.,-1.));
#1501 = PCURVE('',#573,#1502);
#1502 = DEFINITIONAL_REPRESENTATION('',(#1503),#1507);
#1503 = LINE('',#1504,#1505);
#1504 = CARTESIAN_POINT('',(0.,-10.));
#1505 = VECTOR('',#1506,1.);
#1506 = DIRECTION('',(1.,0.));
#1507 = ( GEOMETRIC_REPRESENTATION_CONTEXT(2) 
PARAMETRIC_REPRESENTATION_CONTEXT() REPRESENTATION_CONTEXT('2D SPACE',''
  ) );
#1508 = PCURVE('',#1435,#1509);
#1509 = DEFINITIONAL_REPRESENTATION('',(#1510),#1514);
#1510 = LINE('',#1511,#1512);
#1511 = CARTESIAN_POINT('',(2.,2.));
#1512 = VECTOR('',#1513,1.);
#1513 = DIRECTION('',(-1.,0.));
#1514 = ( GEOMETRIC_REPRESENTATION_CONTEXT(2) 
PARAMETRIC_REPRESENTATION_CONTEXT() REPRESENTATION_CONTEXT('2D SPACE',''
  ) );
#1515 = ORIENTED_EDGE('',*,*,#1396,.F.);
#1516 = ADVANCED_FACE('',(#1517),#746,.F.);
#1517 = FACE_BOUND('',#1518,.F.);
#1518 = EDGE_LOOP('',(#1519,#1520,#1521,#1544));
#1519 = ORIENTED_EDGE('',*,*,#662,.F.);
#1520 = ORIENTED_EDGE('',*,*,#1447,.T.);
#1521 = ORIENTED_EDGE('',*,*,#1522,.T.);
#1522 = EDGE_CURVE('',#1420,#1523,#1525,.T.);
#1523 = VERTEX_POINT('',#1524);
#1524 = CARTESIAN_POINT('',(27.,-2.,5.));
#1525 = SURFACE_CURVE('',#1526,(#1530,#1537),.PCURVE_S1.);
#1526 = LINE('',#1527,#1528);
#1527 = CARTESIAN_POINT('',(27.,-2.,1.));
#1528 = VECTOR('',#1529,1.);
#1529 = DIRECTION('',(0.,0.,1.));
#1530 = PCURVE('',#746,#1531);
#1531 = DEFINITIONAL_REPRESENTATION('',(#1532),#1536);
#1532 = LINE('',#1533,#1534);
#1533 = CARTESIAN_POINT('',(0.,-10.));
#1534 = VECTOR('',#1535,1.);
#1535 = DIRECTION('',(1.,0.));
#1536 = ( GEOMETRIC_REPRESENTATION_CONTEXT(2) 
PARAMETRIC_REPRESENTATION_CONTEXT() REPRESENTATION_CONTEXT('2D SPACE',''
  ) );
#1537 = PCURVE('',#1435,#1538);
#1538 = DEFINITIONAL_REPRESENTATION('',(#1539),#1543);
#1539 = LINE('',#1540,#1541);
#1540 = CARTESIAN_POINT('',(-2.,-2.));
#1541 = VECTOR('',#1542,1.);
#1542 = DIRECTION('',(1.,0.));
#1543 = ( GEOMETRIC_REPRESENTATION_CONTEXT(2) 
PARAMETRIC_REPRESENTATION_CONTEXT() REPRESENTATION_CONTEXT('2D SPACE',''
  ) );
#1544 = ORIENTED_EDGE('',*,*,#1545,.F.);
#1545 = EDGE_CURVE('',#630,#1523,#1546,.T.);
#1546 = SURFACE_CURVE('',#1547,(#1551,#1558),.PCURVE_S1.);
#1547 = LINE('',#1548,#1549);
#1548 = CARTESIAN_POINT('',(17.,-2.,5.));
#1549 = VECTOR('',#1550,1.);
#1550 = DIRECTION('',(1.,0.,0.));
#1551 = PCURVE('',#746,#1552);
#1552 = DEFINITIONAL_REPRESENTATION('',(#1553),#1557);
#1553 = LINE('',#1554,#1555);
#1554 = CARTESIAN_POINT('',(4.,0.));
#1555 = VECTOR('',#1556,1.);
#1556 = DIRECTION('',(0.,-1.));
#1557 = ( GEOMETRIC_REPRESENTATION_CONTEXT(2) 
PARAMETRIC_REPRESENTATION_CONTEXT() REPRESENTATION_CONTEXT('2D SPACE',''
  ) );
#1558 = PCURVE('',#646,#1559);
#1559 = DEFINITIONAL_REPRESENTATION('',(#1560),#1564);
#1560 = LINE('',#1561,#1562);
#1561 = CARTESIAN_POINT('',(0.,-0.));
#1562 = VECTOR('',#1563,1.);
#1563 = DIRECTION('',(0.,-1.));
#1564 = ( GEOMETRIC_REPRESENTATION_CONTEXT(2) 
PARAMETRIC_REPRESENTATION_CONTEXT() REPRESENTATION_CONTEXT('2D SPACE',''
  ) );
#1565 = ADVANCED_FACE('',(#1566),#646,.F.);
#1566 = FACE_BOUND('',#1567,.F.);
#1567 = EDGE_LOOP('',(#1568,#1569,#1570,#1591));
#1568 = ORIENTED_EDGE('',*,*,#629,.T.);
#1569 = ORIENTED_EDGE('',*,*,#1545,.T.);
#1570 = ORIENTED_EDGE('',*,*,#1571,.T.);
#1571 = EDGE_CURVE('',#1523,#1473,#1572,.T.);
#1572 = SURFACE_CURVE('',#1573,(#1577,#1584),.PCURVE_S1.);
#1573 = LINE('',#1574,#1575);
#1574 = CARTESIAN_POINT('',(27.,-2.,5.));
#1575 = VECTOR('',#1576,1.);
#1576 = DIRECTION('',(0.,-1.,0.));
#1577 = PCURVE('',#646,#1578);
#1578 = DEFINITIONAL_REPRESENTATION('',(#1579),#1583);
#1579 = LINE('',#1580,#1581);
#1580 = CARTESIAN_POINT('',(0.,-10.));
#1581 = VECTOR('',#1582,1.);
#1582 = DIRECTION('',(1.,0.));
#1583 = ( GEOMETRIC_REPRESENTATION_CONTEXT(2) 
PARAMETRIC_REPRESENTATION_CONTEXT() REPRESENTATION_CONTEXT('2D SPACE',''
  ) );
#1584 = PCURVE('',#1435,#1585);
#1585 = DEFINITIONAL_REPRESENTATION('',(#1586),#1590);
#1586 = LINE('',#1587,#1588);
#1587 = CARTESIAN_POINT('',(2.,-2.));
#1588 = VECTOR('',#1589,1.);
#1589 = DIRECTION('',(0.,1.));
#1590 = ( GEOMETRIC_REPRESENTATION_CONTEXT(2) 
PARAMETRIC_REPRESENTATION_CONTEXT() REPRESENTATION_CONTEXT('2D SPACE',''
  ) );
#1591 = ORIENTED_EDGE('',*,*,#1472,.F.);
#1592 = ADVANCED_FACE('',(#1593),#814,.F.);
#1593 = FACE_BOUND('',#1594,.F.);
#1594 = EDGE_LOOP('',(#1595,#1596,#1619,#1647));
#1595 = ORIENTED_EDGE('',*,*,#795,.F.);
#1596 = ORIENTED_EDGE('',*,*,#1597,.T.);
#1597 = EDGE_CURVE('',#796,#1598,#1600,.T.);
#1598 = VERTEX_POINT('',#1599);
#1599 = CARTESIAN_POINT('',(27.,2.,1.));
#1600 = SURFACE_CURVE('',#1601,(#1605,#1612),.PCURVE_S1.);
#1601 = LINE('',#1602,#1603);
#1602 = CARTESIAN_POINT('',(17.,2.,1.));
#1603 = VECTOR('',#1604,1.);
#1604 = DIRECTION('',(1.,0.,0.));
#1605 = PCURVE('',#814,#1606);
#1606 = DEFINITIONAL_REPRESENTATION('',(#1607),#1611);
#1607 = LINE('',#1608,#1609);
#1608 = CARTESIAN_POINT('',(0.,0.));
#1609 = VECTOR('',#1610,1.);
#1610 = DIRECTION('',(0.,-1.));
#1611 = ( GEOMETRIC_REPRESENTATION_CONTEXT(2) 
PARAMETRIC_REPRESENTATION_CONTEXT() REPRESENTATION_CONTEXT('2D SPACE',''
  ) );
#1612 = PCURVE('',#912,#1613);
#1613 = DEFINITIONAL_REPRESENTATION('',(#1614),#1618);
#1614 = LINE('',#1615,#1616);
#1615 = CARTESIAN_POINT('',(4.,0.));
#1616 = VECTOR('',#1617,1.);
#1617 = DIRECTION('',(0.,-1.));
#1618 = ( GEOMETRIC_REPRESENTATION_CONTEXT(2) 
PARAMETRIC_REPRESENTATION_CONTEXT() REPRESENTATION_CONTEXT('2D SPACE',''
  ) );
#1619 = ORIENTED_EDGE('',*,*,#1620,.T.);
#1620 = EDGE_CURVE('',#1598,#1621,#1623,.T.);
#1621 = VERTEX_POINT('',#1622);
#1622 = CARTESIAN_POINT('',(27.,6.,1.));
#1623 = SURFACE_CURVE('',#1624,(#1628,#1635),.PCURVE_S1.);
#1624 = LINE('',#1625,#1626);
#1625 = CARTESIAN_POINT('',(27.,2.,1.));
#1626 = VECTOR('',#1627,1.);
#1627 = DIRECTION('',(0.,1.,0.));
#1628 = PCURVE('',#814,#1629);
#1629 = DEFINITIONAL_REPRESENTATION('',(#1630),#1634);
#1630 = LINE('',#1631,#1632);
#1631 = CARTESIAN_POINT('',(0.,-10.));
#1632 = VECTOR('',#1633,1.);
#1633 = DIRECTION('',(1.,0.));
#1634 = ( GEOMETRIC_REPRESENTATION_CONTEXT(2) 
PARAMETRIC_REPRESENTATION_CONTEXT() REPRESENTATION_CONTEXT('2D SPACE',''
  ) );
#1635 = PCURVE('',#1636,#1641);
#1636 = PLANE('',#1637);
#1637 = AXIS2_PLACEMENT_3D('',#1638,#1639,#1640);
#1638 = CARTESIAN_POINT('',(27.,4.,3.));
#1639 = DIRECTION('',(1.,0.,0.));
#1640 = DIRECTION('',(-0.,0.,1.));
#1641 = DEFINITIONAL_REPRESENTATION('',(#1642),#1646);
#1642 = LINE('',#1643,#1644);
#1643 = CARTESIAN_POINT('',(-2.,2.));
#1644 = VECTOR('',#1645,1.);
#1645 = DIRECTION('',(0.,-1.));
#1646 = ( GEOMETRIC_REPRESENTATION_CONTEXT(2) 
PARAMETRIC_REPRESENTATION_CONTEXT() REPRESENTATION_CONTEXT('2D SPACE',''
  ) );
#1647 = ORIENTED_EDGE('',*,*,#1648,.F.);
#1648 = EDGE_CURVE('',#798,#1621,#1649,.T.);
#1649 = SURFACE_CURVE('',#1650,(#1654,#1661),.PCURVE_S1.);
#1650 = LINE('',#1651,#1652);
#1651 = CARTESIAN_POINT('',(17.,6.,1.));
#1652 = VECTOR('',#1653,1.);
#1653 = DIRECTION('',(1.,0.,0.));
#1654 = PCURVE('',#814,#1655);
#1655 = DEFINITIONAL_REPRESENTATION('',(#1656),#1660);
#1656 = LINE('',#1657,#1658);
#1657 = CARTESIAN_POINT('',(4.,0.));
#1658 = VECTOR('',#1659,1.);
#1659 = DIRECTION('',(0.,-1.));
#1660 = ( GEOMETRIC_REPRESENTATION_CONTEXT(2) 
PARAMETRIC_REPRESENTATION_CONTEXT() REPRESENTATION_CONTEXT('2D SPACE',''
  ) );
#1661 = PCURVE('',#1094,#1662);
#1662 = DEFINITIONAL_REPRESENTATION('',(#1663),#1667);
#1663 = LINE('',#1664,#1665);
#1664 = CARTESIAN_POINT('',(0.,0.));
#1665 = VECTOR('',#1666,1.);
#1666 = DIRECTION('',(0.,-1.));
#1667 = ( GEOMETRIC_REPRESENTATION_CONTEXT(2) 
PARAMETRIC_REPRESENTATION_CONTEXT() REPRESENTATION_CONTEXT('2D SPACE',''
  ) );
#1668 = ADVANCED_FACE('',(#1669),#1094,.F.);
#1669 = FACE_BOUND('',#1670,.F.);
#1670 = EDGE_LOOP('',(#1671,#1672,#1673,#1696));
#1671 = ORIENTED_EDGE('',*,*,#992,.F.);
#1672 = ORIENTED_EDGE('',*,*,#1648,.T.);
#1673 = ORIENTED_EDGE('',*,*,#1674,.T.);
#1674 = EDGE_CURVE('',#1621,#1675,#1677,.T.);
#1675 = VERTEX_POINT('',#1676);
#1676 = CARTESIAN_POINT('',(27.,6.,5.));
#1677 = SURFACE_CURVE('',#1678,(#1682,#1689),.PCURVE_S1.);
#1678 = LINE('',#1679,#1680);
#1679 = CARTESIAN_POINT('',(27.,6.,1.));
#1680 = VECTOR('',#1681,1.);
#1681 = DIRECTION('',(0.,0.,1.));
#1682 = PCURVE('',#1094,#1683);
#1683 = DEFINITIONAL_REPRESENTATION('',(#1684),#1688);
#1684 = LINE('',#1685,#1686);
#1685 = CARTESIAN_POINT('',(0.,-10.));
#1686 = VECTOR('',#1687,1.);
#1687 = DIRECTION('',(1.,0.));
#1688 = ( GEOMETRIC_REPRESENTATION_CONTEXT(2) 
PARAMETRIC_REPRESENTATION_CONTEXT() REPRESENTATION_CONTEXT('2D SPACE',''
  ) );
#1689 = PCURVE('',#1636,#1690);
#1690 = DEFINITIONAL_REPRESENTATION('',(#1691),#1695);
#1691 = LINE('',#1692,#1693);
#1692 = CARTESIAN_POINT('',(-2.,-2.));
#1693 = VECTOR('',#1694,1.);
#1694 = DIRECTION('',(1.,0.));
#1695 = ( GEOMETRIC_REPRESENTATION_CONTEXT(2) 
PARAMETRIC_REPRESENTATION_CONTEXT() REPRESENTATION_CONTEXT('2D SPACE',''
  ) );
#1696 = ORIENTED_EDGE('',*,*,#1697,.F.);
#1697 = EDGE_CURVE('',#960,#1675,#1698,.T.);
#1698 = SURFACE_CURVE('',#1699,(#1703,#1710),.PCURVE_S1.);
#1699 = LINE('',#1700,#1701);
#1700 = CARTESIAN_POINT('',(17.,6.,5.));
#1701 = VECTOR('',#1702,1.);
#1702 = DIRECTION('',(1.,0.,0.));
#1703 = PCURVE('',#1094,#1704);
#1704 = DEFINITIONAL_REPRESENTATION('',(#1705),#1709);
#1705 = LINE('',#1706,#1707);
#1706 = CARTESIAN_POINT('',(4.,0.));
#1707 = VECTOR('',#1708,1.);
#1708 = DIRECTION('',(0.,-1.));
#1709 = ( GEOMETRIC_REPRESENTATION_CONTEXT(2) 
PARAMETRIC_REPRESENTATION_CONTEXT() REPRESENTATION_CONTEXT('2D SPACE',''
  ) );
#1710 = PCURVE('',#976,#1711);
#1711 = DEFINITIONAL_REPRESENTATION('',(#1712),#1716);
#1712 = LINE('',#1713,#1714);
#1713 = CARTESIAN_POINT('',(0.,-0.));
#1714 = VECTOR('',#1715,1.);
#1715 = DIRECTION('',(0.,-1.));
#1716 = ( GEOMETRIC_REPRESENTATION_CONTEXT(2) 
PARAMETRIC_REPRESENTATION_CONTEXT() REPRESENTATION_CONTEXT('2D SPACE',''
  ) );
#1717 = ADVANCED_FACE('',(#1718),#976,.F.);
#1718 = FACE_BOUND('',#1719,.F.);
#1719 = EDGE_LOOP('',(#1720,#1721,#1722,#1745));
#1720 = ORIENTED_EDGE('',*,*,#959,.T.);
#1721 = ORIENTED_EDGE('',*,*,#1697,.T.);
#1722 = ORIENTED_EDGE('',*,*,#1723,.T.);
#1723 = EDGE_CURVE('',#1675,#1724,#1726,.T.);
#1724 = VERTEX_POINT('',#1725);
#1725 = CARTESIAN_POINT('',(27.,2.,5.));
#1726 = SURFACE_CURVE('',#1727,(#1731,#1738),.PCURVE_S1.);
#1727 = LINE('',#1728,#1729);
#1728 = CARTESIAN_POINT('',(27.,6.,5.));
#1729 = VECTOR('',#1730,1.);
#1730 = DIRECTION('',(0.,-1.,0.));
#1731 = PCURVE('',#976,#1732);
#1732 = DEFINITIONAL_REPRESENTATION('',(#1733),#1737);
#1733 = LINE('',#1734,#1735);
#1734 = CARTESIAN_POINT('',(0.,-10.));
#1735 = VECTOR('',#1736,1.);
#1736 = DIRECTION('',(1.,0.));
#1737 = ( GEOMETRIC_REPRESENTATION_CONTEXT(2) 
PARAMETRIC_REPRESENTATION_CONTEXT() REPRESENTATION_CONTEXT('2D SPACE',''
  ) );
#1738 = PCURVE('',#1636,#1739);
#1739 = DEFINITIONAL_REPRESENTATION('',(#1740),#1744);
#1740 = LINE('',#1741,#1742);
#1741 = CARTESIAN_POINT('',(2.,-2.));
#1742 = VECTOR('',#1743,1.);
#1743 = DIRECTION('',(0.,1.));
#1744 = ( GEOMETRIC_REPRESENTATION_CONTEXT(2) 
PARAMETRIC_REPRESENTATION_CONTEXT() REPRESENTATION_CONTEXT('2D SPACE',''
  ) );
#1745 = ORIENTED_EDGE('',*,*,#1746,.F.);
#1746 = EDGE_CURVE('',#827,#1724,#1747,.T.);
#1747 = SURFACE_CURVE('',#1748,(#1752,#1759),.PCURVE_S1.);
#1748 = LINE('',#1749,#1750);
#1749 = CARTESIAN_POINT('',(17.,2.,5.));
#1750 = VECTOR('',#1751,1.);
#1751 = DIRECTION('',(1.,0.,0.));
#1752 = PCURVE('',#976,#1753);
#1753 = DEFINITIONAL_REPRESENTATION('',(#1754),#1758);
#1754 = LINE('',#1755,#1756);
#1755 = CARTESIAN_POINT('',(4.,0.));
#1756 = VECTOR('',#1757,1.);
#1757 = DIRECTION('',(0.,-1.));
#1758 = ( GEOMETRIC_REPRESENTATION_CONTEXT(2) 
PARAMETRIC_REPRESENTATION_CONTEXT() REPRESENTATION_CONTEXT('2D SPACE',''
  ) );
#1759 = PCURVE('',#912,#1760);
#1760 = DEFINITIONAL_REPRESENTATION('',(#1761),#1765);
#1761 = LINE('',#1762,#1763);
#1762 = CARTESIAN_POINT('',(0.,0.));
#1763 = VECTOR('',#1764,1.);
#1764 = DIRECTION('',(0.,-1.));
#1765 = ( GEOMETRIC_REPRESENTATION_CONTEXT(2) 
PARAMETRIC_REPRESENTATION_CONTEXT() REPRESENTATION_CONTEXT('2D SPACE',''
  ) );
#1766 = ADVANCED_FACE('',(#1767),#912,.F.);
#1767 = FACE_BOUND('',#1768,.F.);
#1768 = EDGE_LOOP('',(#1769,#1770,#1771,#1792));
#1769 = ORIENTED_EDGE('',*,*,#826,.T.);
#1770 = ORIENTED_EDGE('',*,*,#1746,.T.);
#1771 = ORIENTED_EDGE('',*,*,#1772,.T.);
#1772 = EDGE_CURVE('',#1724,#1598,#1773,.T.);
#1773 = SURFACE_CURVE('',#1774,(#1778,#1785),.PCURVE_S1.);
#1774 = LINE('',#1775,#1776);
#1775 = CARTESIAN_POINT('',(27.,2.,5.));
#1776 = VECTOR('',#1777,1.);
#1777 = DIRECTION('',(0.,0.,-1.));
#1778 = PCURVE('',#912,#1779);
#1779 = DEFINITIONAL_REPRESENTATION('',(#1780),#1784);
#1780 = LINE('',#1781,#1782);
#1781 = CARTESIAN_POINT('',(0.,-10.));
#1782 = VECTOR('',#1783,1.);
#1783 = DIRECTION('',(1.,0.));
#1784 = ( GEOMETRIC_REPRESENTATION_CONTEXT(2) 
PARAMETRIC_REPRESENTATION_CONTEXT() REPRESENTATION_CONTEXT('2D SPACE',''
  ) );
#1785 = PCURVE('',#1636,#1786);
#1786 = DEFINITIONAL_REPRESENTATION('',(#1787),#1791);
#1787 = LINE('',#1788,#1789);
#1788 = CARTESIAN_POINT('',(2.,2.));
#1789 = VECTOR('',#1790,1.);
#1790 = DIRECTION('',(-1.,0.));
#1791 = ( GEOMETRIC_REPRESENTATION_CONTEXT(2) 
PARAMETRIC_REPRESENTATION_CONTEXT() REPRESENTATION_CONTEXT('2D SPACE',''
  ) );
#1792 = ORIENTED_EDGE('',*,*,#1597,.F.);
#1793 = ADVANCED_FACE('',(#1794),#1435,.T.);
#1794 = FACE_BOUND('',#1795,.T.);
#1795 = EDGE_LOOP('',(#1796,#1797,#1798,#1799));
#1796 = ORIENTED_EDGE('',*,*,#1419,.T.);
#1797 = ORIENTED_EDGE('',*,*,#1522,.T.);
#1798 = ORIENTED_EDGE('',*,*,#1571,.T.);
#1799 = ORIENTED_EDGE('',*,*,#1495,.T.);
#1800 = ADVANCED_FACE('',(#1801),#1636,.T.);
#1801 = FACE_BOUND('',#1802,.T.);
#1802 = EDGE_LOOP('',(#1803,#1804,#1805,#1806));
#1803 = ORIENTED_EDGE('',*,*,#1620,.T.);
#1804 = ORIENTED_EDGE('',*,*,#1674,.T.);
#1805 = ORIENTED_EDGE('',*,*,#1723,.T.);
#1806 = ORIENTED_EDGE('',*,*,#1772,.T.);
#1807 = ( GEOMETRIC_REPRESENTATION_CONTEXT(3) 
GLOBAL_UNCERTAINTY_ASSIGNED_CONTEXT((#1811)) 
GLOBAL_UNIT_ASSIGNED_CONTEXT((#1808,#1809,#1810)) REPRESENTATION_CONTEXT
('Context #1','3D Context with UNIT and UNCERTAINTY') );
#1808 = ( LENGTH_UNIT() NAMED_UNIT(*) SI_UNIT(.MILLI.,.METRE.) );
#1809 = ( NAMED_UNIT(*) PLANE_ANGLE_UNIT() SI_UNIT($,.RADIAN.) );
#1810 = ( NAMED_UNIT(*) SI_UNIT($,.STERADIAN.) SOLID_ANGLE_UNIT() );
#1811 = UNCERTAINTY_MEASURE_WITH_UNIT(LENGTH_MEASURE(2.E-07),#1808,
  'distance_accuracy_value','confusion accuracy');
#1812 = PRODUCT_RELATED_PRODUCT_CATEGORY('part',$,(#7));
ENDSEC;
END-ISO-10303-21;
