ISO-10303-21;
HEADER;
FILE_DESCRIPTION(('Open CASCADE Model'),'2;1');
FILE_NAME('Open CASCADE Shape Model','2026-08-07T02:34:17',('Author'),(
    'Open CASCADE'),'Open CASCADE STEP processor 7.7','Open CASCADE 7.7'
  ,'Unknown');
FILE_SCHEMA(('AUTOMOTIVE_DESIGN { 1 0 10303 214 1 1 1 1 }'));
ENDSEC;
DATA;
#1 = APPLICATION_PROTOCOL_DEFINITION('international standard',
  'automotive_design',2000,#2);
#2 = APPLICATION_CONTEXT(
  'core data for automotive mechanical design processes');
#3 = SHAPE_DEFINITION_REPRESENTATION(#4,#10);
#4 = PRODUCT_DEFINITION_SHAPE('','',#5);
#5 = PRODUCT_DEFINITION('design','',#6,#9);
#6 = PRODUCT_DEFINITION_FORMATION('','',#7);
#7 = PRODUCT('Open CASCADE STEP translator 7.7 35',
  'Open CASCADE STEP translator 7.7 35','',(#8));
#8 = PRODUCT_CONTEXT('',#2,'mechanical');
#9 = PRODUCT_DEFINITION_CONTEXT('part definition',#2,'design');
#10 = ADVANCED_BREP_SHAPE_REPRESENTATION('',(#11,#15),#296);
#11 = AXIS2_PLACEMENT_3D('',#12,#13,#14);
#12 = CARTESIAN_POINT('',(0.,0.,0.));
#13 = DIRECTION('',(0.,0.,1.));
#14 = DIRECTION('',(1.,0.,-0.));
#15 = MANIFOLD_SOLID_BREP('',#16);
#16 = CLOSED_SHELL('',(#17,#288,#292));
#17 = ADVANCED_FACE('',(#18),#42,.T.);
#18 = FACE_BOUND('',#19,.T.);
#19 = EDGE_LOOP('',(#20,#208,#237,#287));
#20 = ORIENTED_EDGE('',*,*,#21,.T.);
#21 = EDGE_CURVE('',#22,#22,#24,.T.);
#22 = VERTEX_POINT('',#23);
#23 = CARTESIAN_POINT('',(50.,15.,0.));
#24 = SURFACE_CURVE('',#25,(#41,#184),.PCURVE_S1.);
#25 = B_SPLINE_CURVE_WITH_KNOTS('',14,(#26,#27,#28,#29,#30,#31,#32,#33,
    #34,#35,#36,#37,#38,#39,#40),.UNSPECIFIED.,.T.,.F.,(15,15),(0.,1.),
  .PIECEWISE_BEZIER_KNOTS.);
#26 = CARTESIAN_POINT('',(50.,15.,0.));
#27 = CARTESIAN_POINT('',(43.268015742303,15.000000000002,0.));
#28 = CARTESIAN_POINT('',(36.536028999685,11.746284581999,0.));
#29 = CARTESIAN_POINT('',(31.507709801406,5.238849586474,0.));
#30 = CARTESIAN_POINT('',(29.886536062601,-3.549159221086,0.));
#31 = CARTESIAN_POINT('',(32.765347084864,-12.67163490604,0.));
#32 = CARTESIAN_POINT('',(40.01172132101,-19.63562552488,0.));
#33 = CARTESIAN_POINT('',(49.999999999833,-22.25742903073,0.));
#34 = CARTESIAN_POINT('',(59.988278679296,-19.63562552488,0.));
#35 = CARTESIAN_POINT('',(67.234652914902,-12.67163490604,0.));
#36 = CARTESIAN_POINT('',(70.113463937546,-3.549159221086,0.));
#37 = CARTESIAN_POINT('',(68.492290198521,5.238849586474,0.));
#38 = CARTESIAN_POINT('',(63.463971000342,11.746284581999,0.));
#39 = CARTESIAN_POINT('',(56.731984257691,15.000000000002,0.));
#40 = CARTESIAN_POINT('',(50.,15.,0.));
#41 = PCURVE('',#42,#178);
#42 = ( BOUNDED_SURFACE() B_SPLINE_SURFACE(14,8,(
    (#43,#44,#45,#46,#47,#48,#49,#50,#51)
    ,(#52,#53,#54,#55,#56,#57,#58,#59,#60)
    ,(#61,#62,#63,#64,#65,#66,#67,#68,#69)
    ,(#70,#71,#72,#73,#74,#75,#76,#77,#78)
    ,(#79,#80,#81,#82,#83,#84,#85,#86,#87)
    ,(#88,#89,#90,#91,#92,#93,#94,#95,#96)
    ,(#97,#98,#99,#100,#101,#102,#103,#104,#105)
    ,(#106,#107,#108,#109,#110,#111,#112,#113,#114)
    ,(#115,#116,#117,#118,#119,#120,#121,#122,#123)
    ,(#124,#125,#126,#127,#128,#129,#130,#131,#132)
    ,(#133,#134,#135,#136,#137,#138,#139,#140,#141)
    ,(#142,#143,#144,#145,#146,#147,#148,#149,#150)
    ,(#151,#152,#153,#154,#155,#156,#157,#158,#159)
    ,(#160,#161,#162,#163,#164,#165,#166,#167,#168)
    ,(#169,#170,#171,#172,#173,#174,#175,#176,#177
)),.UNSPECIFIED.,.T.,.F.,.F.) B_SPLINE_SURFACE_WITH_KNOTS((15,15),(9,9),
  (0.,1.),(0.,1.),.PIECEWISE_BEZIER_KNOTS.) 
GEOMETRIC_REPRESENTATION_ITEM() RATIONAL_B_SPLINE_SURFACE((
    (1.,1.,1.,1.,1.,1.,1.,1.,1.)
    ,(1.,1.,1.,1.,1.,1.,1.,1.,1.)
    ,(1.,1.,1.,1.,1.,1.,1.,1.,1.)
    ,(1.,1.,1.,1.,1.,1.,1.,1.,1.)
    ,(1.,1.,1.,1.,1.,1.,1.,1.,1.)
    ,(1.,1.,1.,1.,1.,1.,1.,1.,1.)
    ,(1.,1.,1.,1.,1.,1.,1.,1.,1.)
    ,(1.,1.,1.,1.,1.,1.,1.,1.,1.)
    ,(1.,1.,1.,1.,1.,1.,1.,1.,1.)
    ,(1.,1.,1.,1.,1.,1.,1.,1.,1.)
    ,(1.,1.,1.,1.,1.,1.,1.,1.,1.)
    ,(1.,1.,1.,1.,1.,1.,1.,1.,1.)
    ,(1.,1.,1.,1.,1.,1.,1.,1.,1.)
    ,(1.,1.,1.,1.,1.,1.,1.,1.,1.)
,(1.,1.,1.,1.,1.,1.,1.,1.,1.))) REPRESENTATION_ITEM('') SURFACE() );
#43 = CARTESIAN_POINT('',(50.,15.,0.));
#44 = CARTESIAN_POINT('',(50.000000300221,14.07573318619,9.678897341074)
  );
#45 = CARTESIAN_POINT('',(47.858716281567,13.14709612609,19.403576314281
    ));
#46 = CARTESIAN_POINT('',(43.540720964129,12.21435143348,28.618530243212
    ));
#47 = CARTESIAN_POINT('',(37.184905925166,11.277788152858,
    36.746359437637));
#48 = CARTESIAN_POINT('',(29.119321992256,10.337721275518,
    43.255704576417));
#49 = CARTESIAN_POINT('',(19.839059818486,9.394490314482,47.745156173974
    ));
#50 = CARTESIAN_POINT('',(9.932214405368,8.448456666426,50.000002024021)
  );
#51 = CARTESIAN_POINT('',(3.061616997868E-15,7.5,50.));
#52 = CARTESIAN_POINT('',(43.268015742303,15.000000000002,0.));
#53 = CARTESIAN_POINT('',(43.68282527605,14.075733186175,8.375733432861)
  );
#54 = CARTESIAN_POINT('',(42.246619234735,13.147096126168,
    16.974624581683));
#55 = CARTESIAN_POINT('',(38.857536706473,12.21435143332,25.318989696038
    ));
#56 = CARTESIAN_POINT('',(33.561843925012,11.277788153062,32.88261149626
    ));
#57 = CARTESIAN_POINT('',(26.580941383687,10.337721275356,
    39.146959674778));
#58 = CARTESIAN_POINT('',(18.310222013423,9.394490314563,43.680713368255
    ));
#59 = CARTESIAN_POINT('',(9.263579992578,8.448456666409,46.208343582718)
  );
#60 = CARTESIAN_POINT('',(2.855509423541E-15,7.500000000001,
    46.634007871152));
#61 = CARTESIAN_POINT('',(36.536028999685,11.746284581999,0.));
#62 = CARTESIAN_POINT('',(37.365647920079,11.022504513759,7.072569043608
    ));
#63 = CARTESIAN_POINT('',(36.634520116418,10.295302167933,
    14.545671952588));
#64 = CARTESIAN_POINT('',(34.174350719997,9.564883195507,22.019447930719
    ));
#65 = CARTESIAN_POINT('',(29.938780587775,8.831473939073,29.018862129068
    ));
#66 = CARTESIAN_POINT('',(24.042559837894,8.095321069463,35.038213256125
    ));
#67 = CARTESIAN_POINT('',(16.781383644164,7.356690448779,39.616269062484
    ));
#68 = CARTESIAN_POINT('',(8.594945332951,6.615865085578,42.41668374178)
  );
#69 = CARTESIAN_POINT('',(2.649401773135E-15,5.873142291,43.268014499843
    ));
#70 = CARTESIAN_POINT('',(31.507709801406,5.238849586474,0.));
#71 = CARTESIAN_POINT('',(32.647162071449,4.916043265243,6.099197174739)
  );
#72 = CARTESIAN_POINT('',(32.442677972471,4.59171060784,12.731415685505)
  );
#73 = CARTESIAN_POINT('',(30.676341157165,4.265943328463,19.554922994012
    ));
#74 = CARTESIAN_POINT('',(27.23260785805,3.938842389153,26.1329139135));
#75 = CARTESIAN_POINT('',(22.146567890391,3.610517786679,31.969269528175
    ));
#76 = CARTESIAN_POINT('',(15.639449231696,3.281088114227,36.580415885875
    ));
#77 = CARTESIAN_POINT('',(8.095522410176,2.950679580669,39.584581318017)
  );
#78 = CARTESIAN_POINT('',(2.495453897853E-15,2.619424793237,
    40.753854900703));
#79 = CARTESIAN_POINT('',(29.886536062601,-3.549159221086,0.));
#80 = CARTESIAN_POINT('',(31.125881292982,-3.330467881644,5.785373638521
    ));
#81 = CARTESIAN_POINT('',(31.091191694141,-3.110742498398,
    12.146483723506));
#82 = CARTESIAN_POINT('',(29.548552522204,-2.890045197242,
    18.760338769561));
#83 = CARTESIAN_POINT('',(26.3601142906,-2.668444392761,25.202459170146)
  );
#84 = CARTESIAN_POINT('',(21.535283634218,-2.446014581993,
    30.979815439797));
#85 = CARTESIAN_POINT('',(15.2712796696,-2.222836130427,35.601630481818)
  );
#86 = CARTESIAN_POINT('',(7.934504126363,-1.998994525,38.671486922959));
#87 = CARTESIAN_POINT('',(2.445819767101E-15,-1.774579610543,
    39.9432680313));
#88 = CARTESIAN_POINT('',(32.765347084864,-12.67163490604,0.));
#89 = CARTESIAN_POINT('',(33.827306666607,-11.89083679876,6.342648058588
    ));
#90 = CARTESIAN_POINT('',(33.491103252731,-11.10634680903,
    13.185180896508));
#91 = CARTESIAN_POINT('',(31.551231368863,-10.31838680528,
    20.171327467875));
#92 = CARTESIAN_POINT('',(27.909451069496,-9.527200926534,
    26.854720927682));
#93 = CARTESIAN_POINT('',(22.620776084825,-8.733055324102,
    32.736845711988));
#94 = CARTESIAN_POINT('',(15.925059439146,-7.936236756388,
    37.339715760548));
#95 = CARTESIAN_POINT('',(8.22043351144,-7.137050560476,40.292920916068)
  );
#96 = CARTESIAN_POINT('',(2.533957934695E-15,-6.335817453022,
    41.382673542432));
#97 = CARTESIAN_POINT('',(40.01172132101,-19.63562552488,0.));
#98 = CARTESIAN_POINT('',(40.627176153617,-18.42572172114,7.74538653925)
  );
#99 = CARTESIAN_POINT('',(39.532019853428,-17.21009708909,
    15.799728492975));
#100 = CARTESIAN_POINT('',(36.592257080617,-15.98909537637,
    23.722985446336));
#101 = CARTESIAN_POINT('',(31.809350735168,-14.76309500525,
    31.013697314451));
#102 = CARTESIAN_POINT('',(25.353113998624,-13.53250824126,
    37.159539234162));
#103 = CARTESIAN_POINT('',(17.570715529386,-12.29777959164,
    41.714722077072));
#104 = CARTESIAN_POINT('',(8.940158186112,-11.05938209008,
    44.374299449574));
#105 = CARTESIAN_POINT('',(2.755814160038E-15,-9.81781276244,
    45.005860660505));
#106 = CARTESIAN_POINT('',(49.999999999833,-22.25742903073,0.));
#107 = CARTESIAN_POINT('',(50.000000300048,-20.88597549755,
    9.678897341089));
#108 = CARTESIAN_POINT('',(47.858716280578,-19.50803726111,
    19.403576313802));
#109 = CARTESIAN_POINT('',(43.540720965528,-18.12400402181,
    28.618530244209));
#110 = CARTESIAN_POINT('',(37.184905922837,-16.7343046177,
    36.746359435239));
#111 = CARTESIAN_POINT('',(29.119321994238,-15.33940651765,
    43.255704578954));
#112 = CARTESIAN_POINT('',(19.839059817376,-13.93981342586,
    47.745156172246));
#113 = CARTESIAN_POINT('',(9.932214405585,-12.5360616458,50.000002024272
    ));
#114 = CARTESIAN_POINT('',(3.061616997863E-15,-11.12871451536,
    49.999999999917));
#115 = CARTESIAN_POINT('',(59.988278679296,-19.63562552488,0.));
#116 = CARTESIAN_POINT('',(59.372824447152,-18.42572172117,
    11.612408142871));
#117 = CARTESIAN_POINT('',(56.185412711472,-17.21009708891,
    23.007424136467));
#118 = CARTESIAN_POINT('',(50.489184845153,-15.98909537688,
    33.514075038257));
#119 = CARTESIAN_POINT('',(42.560461119348,-14.76309500457,
    42.47902156522));
#120 = CARTESIAN_POINT('',(32.885529982311,-13.53250824178,
    49.351869914024));
#121 = CARTESIAN_POINT('',(22.107404109599,-12.29777959142,
    53.775590274041));
#122 = CARTESIAN_POINT('',(10.924270624229,-11.05938209012,
    55.625704598008));
#123 = CARTESIAN_POINT('',(3.367419835708E-15,-9.81781276244,
    54.994139339648));
#124 = CARTESIAN_POINT('',(67.234652914902,-12.67163490604,0.));
#125 = CARTESIAN_POINT('',(66.172693933576,-11.89083679871,
    13.015146623583));
#126 = CARTESIAN_POINT('',(62.226329309092,-11.10634680933,
    25.621971731376));
#127 = CARTESIAN_POINT('',(55.530210561238,-10.31838680448,
    37.065733019958));
#128 = CARTESIAN_POINT('',(46.460360777706,-9.527200927603,
    46.637997944245));
#129 = CARTESIAN_POINT('',(35.61786790236,-8.733055323288,
    53.774563444359));
#130 = CARTESIAN_POINT('',(23.753060196319,-7.936236756732,
    58.150596585007));
#131 = CARTESIAN_POINT('',(11.643995299591,-7.137050560407,
    59.70708313232));
#132 = CARTESIAN_POINT('',(3.589276061035E-15,-6.335817453022,
    58.617326457451));
#133 = CARTESIAN_POINT('',(70.113463937546,-3.549159221086,0.));
#134 = CARTESIAN_POINT('',(68.874119307648,-3.330467881686,
    13.572421043631));
#135 = CARTESIAN_POINT('',(64.626240869695,-3.110742498148,
    26.660668905395));
#136 = CARTESIAN_POINT('',(57.532889405126,-2.890045197921,
    38.476721716174));
#137 = CARTESIAN_POINT('',(48.009697561422,-2.66844439186,
    48.290259706954));
#138 = CARTESIAN_POINT('',(36.703360348824,-2.446014582678,
    55.531593711071));
#139 = CARTESIAN_POINT('',(24.406839968227,-2.222836130138,
    59.888681867512));
#140 = CARTESIAN_POINT('',(11.929924684207,-1.998994525058,
    61.328517124893));
#141 = CARTESIAN_POINT('',(3.67741422864E-15,-1.774579610543,
    60.056731968773));
#142 = CARTESIAN_POINT('',(68.492290198521,5.238849586474,0.));
#143 = CARTESIAN_POINT('',(67.352838528894,4.916043265271,
    13.258597507417));
#144 = CARTESIAN_POINT('',(63.274754590344,4.591710607684,
    26.075736942847));
#145 = CARTESIAN_POINT('',(56.405100771497,4.265943328879,
    37.682137492843));
#146 = CARTESIAN_POINT('',(47.137203991516,3.938842388606,
    47.359804960768));
#147 = CARTESIAN_POINT('',(36.092076094786,3.610517787095,
    54.542139625697));
#148 = CARTESIAN_POINT('',(24.038670404884,3.281088114051,
    58.909896461362));
#149 = CARTESIAN_POINT('',(11.768906400635,2.950679580705,
    60.415422730126));
#150 = CARTESIAN_POINT('',(3.627780097881E-15,2.619424793237,
    59.24614509926));
#151 = CARTESIAN_POINT('',(63.463971000342,11.746284581999,0.));
#152 = CARTESIAN_POINT('',(62.634352680387,11.022504513746,
    12.285225638546));
#153 = CARTESIAN_POINT('',(59.082912446884,10.295302168001,
    24.261480676011));
#154 = CARTESIAN_POINT('',(52.907091208,9.56488319533,35.21761255564));
#155 = CARTESIAN_POINT('',(44.431031262979,8.831473939305,
    44.473856746448));
#156 = CARTESIAN_POINT('',(34.196084146266,8.095321069286,
    51.473195896436));
#157 = CARTESIAN_POINT('',(22.896735993001,7.356690448855,
    55.874043285671));
#158 = CARTESIAN_POINT('',(11.269483477746,6.615865085563,
    57.583320306238));
#159 = CARTESIAN_POINT('',(3.473832222603E-15,5.873142291,
    56.731985500171));
#160 = CARTESIAN_POINT('',(56.731984257691,15.000000000002,0.));
#161 = CARTESIAN_POINT('',(56.317175324371,14.075733186178,
    10.982061249296));
#162 = CARTESIAN_POINT('',(53.470813328432,13.147096126153,
    21.832528046829));
#163 = CARTESIAN_POINT('',(48.22390522169,12.214351433357,
    31.918070790491));
#164 = CARTESIAN_POINT('',(40.807967925421,11.277788153016,
    40.610107378847));
#165 = CARTESIAN_POINT('',(31.657702600748,10.337721275389,
    47.364449478202));
#166 = CARTESIAN_POINT('',(21.367897623579,9.39449031455,51.809598979609
    ));
#167 = CARTESIAN_POINT('',(10.60084881815,8.448456666411,53.791660465338
    ));
#168 = CARTESIAN_POINT('',(3.267724572196E-15,7.500000000001,
    53.365992128845));
#169 = CARTESIAN_POINT('',(50.,15.,0.));
#170 = CARTESIAN_POINT('',(50.000000300224,14.075733186188,
    9.678897341076));
#171 = CARTESIAN_POINT('',(47.858716281553,13.147096126098,
    19.403576314275));
#172 = CARTESIAN_POINT('',(43.540720964157,12.214351433463,
    28.618530243227));
#173 = CARTESIAN_POINT('',(37.184905925134,11.27778815288,
    36.746359437617));
#174 = CARTESIAN_POINT('',(29.119321992278,10.337721275499,
    43.255704576433));
#175 = CARTESIAN_POINT('',(19.839059818477,9.394490314491,
    47.745156173966));
#176 = CARTESIAN_POINT('',(9.932214405369,8.448456666424,50.000002024023
    ));
#177 = CARTESIAN_POINT('',(3.061616997868E-15,7.5,50.));
#178 = DEFINITIONAL_REPRESENTATION('',(#179),#183);
#179 = LINE('',#180,#181);
#180 = CARTESIAN_POINT('',(0.,0.));
#181 = VECTOR('',#182,1.);
#182 = DIRECTION('',(1.,0.));
#183 = ( GEOMETRIC_REPRESENTATION_CONTEXT(2) 
PARAMETRIC_REPRESENTATION_CONTEXT() REPRESENTATION_CONTEXT('2D SPACE',''
  ) );
#184 = PCURVE('',#185,#190);
#185 = PLANE('',#186);
#186 = AXIS2_PLACEMENT_3D('',#187,#188,#189);
#187 = CARTESIAN_POINT('',(50.,15.,0.));
#188 = DIRECTION('',(0.,-0.,-1.));
#189 = DIRECTION('',(0.,-1.,0.));
#190 = DEFINITIONAL_REPRESENTATION('',(#191),#207);
#191 = B_SPLINE_CURVE_WITH_KNOTS('',14,(#192,#193,#194,#195,#196,#197,
    #198,#199,#200,#201,#202,#203,#204,#205,#206),.UNSPECIFIED.,.F.,.F.,
  (15,15),(0.,1.),.PIECEWISE_BEZIER_KNOTS.);
#192 = CARTESIAN_POINT('',(0.,0.));
#193 = CARTESIAN_POINT('',(-2.412292587906E-12,6.731984257697));
#194 = CARTESIAN_POINT('',(3.253715418001,13.463971000315));
#195 = CARTESIAN_POINT('',(9.761150413526,18.492290198594));
#196 = CARTESIAN_POINT('',(18.549159221086,20.113463937399));
#197 = CARTESIAN_POINT('',(27.671634906045,17.234652915136));
#198 = CARTESIAN_POINT('',(34.63562552488,9.98827867899));
#199 = CARTESIAN_POINT('',(37.25742903073,1.669917537583E-10));
#200 = CARTESIAN_POINT('',(34.63562552488,-9.988278679296));
#201 = CARTESIAN_POINT('',(27.671634906045,-17.2346529149));
#202 = CARTESIAN_POINT('',(18.549159221086,-20.11346393754));
#203 = CARTESIAN_POINT('',(9.761150413526,-18.49229019852));
#204 = CARTESIAN_POINT('',(3.253715418001,-13.46397100034));
#205 = CARTESIAN_POINT('',(-2.472688720445E-12,-6.731984257691));
#206 = CARTESIAN_POINT('',(8.881784197001E-15,0.));
#207 = ( GEOMETRIC_REPRESENTATION_CONTEXT(2) 
PARAMETRIC_REPRESENTATION_CONTEXT() REPRESENTATION_CONTEXT('2D SPACE',''
  ) );
#208 = ORIENTED_EDGE('',*,*,#209,.T.);
#209 = EDGE_CURVE('',#22,#210,#212,.T.);
#210 = VERTEX_POINT('',#211);
#211 = CARTESIAN_POINT('',(3.061616997868E-15,7.5,50.));
#212 = SEAM_CURVE('',#213,(#223,#230),.PCURVE_S1.);
#213 = ( BOUNDED_CURVE() B_SPLINE_CURVE(8,(#214,#215,#216,#217,#218,#219
,#220,#221,#222),.UNSPECIFIED.,.F.,.F.) B_SPLINE_CURVE_WITH_KNOTS((9,9),
(0.,1.),.PIECEWISE_BEZIER_KNOTS.) CURVE() GEOMETRIC_REPRESENTATION_ITEM(
) RATIONAL_B_SPLINE_CURVE((1.,1.,1.,1.,1.,1.,1.,1.,1.)) 
REPRESENTATION_ITEM('') );
#214 = CARTESIAN_POINT('',(50.,15.,0.));
#215 = CARTESIAN_POINT('',(50.000000300221,14.07573318619,9.678897341074
    ));
#216 = CARTESIAN_POINT('',(47.858716281567,13.14709612609,
    19.403576314281));
#217 = CARTESIAN_POINT('',(43.540720964129,12.21435143348,
    28.618530243212));
#218 = CARTESIAN_POINT('',(37.184905925166,11.277788152858,
    36.746359437637));
#219 = CARTESIAN_POINT('',(29.119321992256,10.337721275518,
    43.255704576417));
#220 = CARTESIAN_POINT('',(19.839059818486,9.394490314482,
    47.745156173974));
#221 = CARTESIAN_POINT('',(9.932214405368,8.448456666426,50.000002024021
    ));
#222 = CARTESIAN_POINT('',(3.061616997868E-15,7.5,50.));
#223 = PCURVE('',#42,#224);
#224 = DEFINITIONAL_REPRESENTATION('',(#225),#229);
#225 = LINE('',#226,#227);
#226 = CARTESIAN_POINT('',(1.,0.));
#227 = VECTOR('',#228,1.);
#228 = DIRECTION('',(0.,1.));
#229 = ( GEOMETRIC_REPRESENTATION_CONTEXT(2) 
PARAMETRIC_REPRESENTATION_CONTEXT() REPRESENTATION_CONTEXT('2D SPACE',''
  ) );
#230 = PCURVE('',#42,#231);
#231 = DEFINITIONAL_REPRESENTATION('',(#232),#236);
#232 = LINE('',#233,#234);
#233 = CARTESIAN_POINT('',(0.,0.));
#234 = VECTOR('',#235,1.);
#235 = DIRECTION('',(0.,1.));
#236 = ( GEOMETRIC_REPRESENTATION_CONTEXT(2) 
PARAMETRIC_REPRESENTATION_CONTEXT() REPRESENTATION_CONTEXT('2D SPACE',''
  ) );
#237 = ORIENTED_EDGE('',*,*,#238,.F.);
#238 = EDGE_CURVE('',#210,#210,#239,.T.);
#239 = SURFACE_CURVE('',#240,(#256,#263),.PCURVE_S1.);
#240 = B_SPLINE_CURVE_WITH_KNOTS('',14,(#241,#242,#243,#244,#245,#246,
    #247,#248,#249,#250,#251,#252,#253,#254,#255),.UNSPECIFIED.,.T.,.F.,
  (15,15),(0.,1.),.PIECEWISE_BEZIER_KNOTS.);
#241 = CARTESIAN_POINT('',(3.061616997868E-15,7.5,50.));
#242 = CARTESIAN_POINT('',(2.855509423541E-15,7.500000000001,
    46.634007871152));
#243 = CARTESIAN_POINT('',(2.649401773135E-15,5.873142291,
    43.268014499843));
#244 = CARTESIAN_POINT('',(2.495453897853E-15,2.619424793237,
    40.753854900703));
#245 = CARTESIAN_POINT('',(2.445819767101E-15,-1.774579610543,
    39.9432680313));
#246 = CARTESIAN_POINT('',(2.533957934695E-15,-6.335817453022,
    41.382673542432));
#247 = CARTESIAN_POINT('',(2.755814160038E-15,-9.81781276244,
    45.005860660505));
#248 = CARTESIAN_POINT('',(3.061616997863E-15,-11.12871451536,
    49.999999999917));
#249 = CARTESIAN_POINT('',(3.367419835708E-15,-9.81781276244,
    54.994139339648));
#250 = CARTESIAN_POINT('',(3.589276061035E-15,-6.335817453022,
    58.617326457451));
#251 = CARTESIAN_POINT('',(3.67741422864E-15,-1.774579610543,
    60.056731968773));
#252 = CARTESIAN_POINT('',(3.627780097881E-15,2.619424793237,
    59.24614509926));
#253 = CARTESIAN_POINT('',(3.473832222603E-15,5.873142291,
    56.731985500171));
#254 = CARTESIAN_POINT('',(3.267724572196E-15,7.500000000001,
    53.365992128845));
#255 = CARTESIAN_POINT('',(3.061616997868E-15,7.5,50.));
#256 = PCURVE('',#42,#257);
#257 = DEFINITIONAL_REPRESENTATION('',(#258),#262);
#258 = LINE('',#259,#260);
#259 = CARTESIAN_POINT('',(0.,1.));
#260 = VECTOR('',#261,1.);
#261 = DIRECTION('',(1.,0.));
#262 = ( GEOMETRIC_REPRESENTATION_CONTEXT(2) 
PARAMETRIC_REPRESENTATION_CONTEXT() REPRESENTATION_CONTEXT('2D SPACE',''
  ) );
#263 = PCURVE('',#264,#269);
#264 = PLANE('',#265);
#265 = AXIS2_PLACEMENT_3D('',#266,#267,#268);
#266 = CARTESIAN_POINT('',(3.061616997868E-15,7.5,50.));
#267 = DIRECTION('',(-1.,-5.530082641123E-32,6.123233995737E-17));
#268 = DIRECTION('',(2.629536350911E-32,-1.,-4.736951572048E-16));
#269 = DEFINITIONAL_REPRESENTATION('',(#270),#286);
#270 = B_SPLINE_CURVE_WITH_KNOTS('',14,(#271,#272,#273,#274,#275,#276,
    #277,#278,#279,#280,#281,#282,#283,#284,#285),.UNSPECIFIED.,.F.,.F.,
  (15,15),(0.,1.),.PIECEWISE_BEZIER_KNOTS.);
#271 = CARTESIAN_POINT('',(0.,0.));
#272 = CARTESIAN_POINT('',(-1.204369937113E-12,-3.365992128848));
#273 = CARTESIAN_POINT('',(1.626857709,-6.731985500157));
#274 = CARTESIAN_POINT('',(4.880575206763,-9.246145099297));
#275 = CARTESIAN_POINT('',(9.274579610543,-10.0567319687));
#276 = CARTESIAN_POINT('',(13.835817453022,-8.617326457568));
#277 = CARTESIAN_POINT('',(17.31781276244,-4.994139339495));
#278 = CARTESIAN_POINT('',(18.628714515365,-8.348166602445E-11));
#279 = CARTESIAN_POINT('',(17.31781276244,4.994139339648));
#280 = CARTESIAN_POINT('',(13.835817453022,8.617326457451));
#281 = CARTESIAN_POINT('',(9.274579610543,10.056731968773));
#282 = CARTESIAN_POINT('',(4.880575206763,9.24614509926));
#283 = CARTESIAN_POINT('',(1.626857709,6.731985500171));
#284 = CARTESIAN_POINT('',(-1.237232538642E-12,3.365992128845));
#285 = CARTESIAN_POINT('',(4.440892098501E-15,0.));
#286 = ( GEOMETRIC_REPRESENTATION_CONTEXT(2) 
PARAMETRIC_REPRESENTATION_CONTEXT() REPRESENTATION_CONTEXT('2D SPACE',''
  ) );
#287 = ORIENTED_EDGE('',*,*,#209,.F.);
#288 = ADVANCED_FACE('',(#289),#185,.T.);
#289 = FACE_BOUND('',#290,.T.);
#290 = EDGE_LOOP('',(#291));
#291 = ORIENTED_EDGE('',*,*,#21,.F.);
#292 = ADVANCED_FACE('',(#293),#264,.T.);
#293 = FACE_BOUND('',#294,.T.);
#294 = EDGE_LOOP('',(#295));
#295 = ORIENTED_EDGE('',*,*,#238,.T.);
#296 = ( GEOMETRIC_REPRESENTATION_CONTEXT(3) 
GLOBAL_UNCERTAINTY_ASSIGNED_CONTEXT((#300)) GLOBAL_UNIT_ASSIGNED_CONTEXT
((#297,#298,#299)) REPRESENTATION_CONTEXT('Context #1',
  '3D Context with UNIT and UNCERTAINTY') );
#297 = ( LENGTH_UNIT() NAMED_UNIT(*) SI_UNIT(.MILLI.,.METRE.) );
#298 = ( NAMED_UNIT(*) PLANE_ANGLE_UNIT() SI_UNIT($,.RADIAN.) );
#299 = ( NAMED_UNIT(*) SI_UNIT($,.STERADIAN.) SOLID_ANGLE_UNIT() );
#300 = UNCERTAINTY_MEASURE_WITH_UNIT(LENGTH_MEASURE(1.E-07),#297,
  'distance_accuracy_value','confusion accuracy');
#301 = PRODUCT_RELATED_PRODUCT_CATEGORY('part',$,(#7));
ENDSEC;
END-ISO-10303-21;
