ISO-10303-21;
HEADER;
FILE_DESCRIPTION(('Open CASCADE Model'),'2;1');
FILE_NAME('Open CASCADE Shape Model','2026-08-07T02:34:17',('Author'),(
    'Open CASCADE'),'Open CASCADE STEP processor 7.7','Open CASCADE 7.7'
  ,'Unknown');
FILE_SCHEMA(('AUTOMOTIVE_DESIGN { 1 0 10303 214 1 1 1 1 }'));
ENDSEC;
DATA;
#1 = APPLICATION_PROTOCOL_DEFINITION('international standard',
  'automotive_design',2000,#2);
#2 = APPLICATION_CONTEXT(
  'core data for automotive mechanical design processes');
#3 = SHAPE_DEFINITION_REPRESENTATION(#4,#10);
#4 = PRODUCT_DEFINITION_SHAPE('','',#5);
#5 = PRODUCT_DEFINITION('design','',#6,#9);
#6 = PRODUCT_DEFINITION_FORMATION('','',#7);
#7 = PRODUCT('Open CASCADE STEP translator 7.7 27',
  'Open CASCADE STEP translator 7.7 27','',(#8));
#8 = PRODUCT_CONTEXT('',#2,'mechanical');
#9 = PRODUCT_DEFINITION_CONTEXT('part definition',#2,'design');
#10 = ADVANCED_BREP_SHAPE_REPRESENTATION('',(#11,#15),#962);
#11 = AXIS2_PLACEMENT_3D('',#12,#13,#14);
#12 = CARTESIAN_POINT('',(0.,0.,0.));
#13 = DIRECTION('',(0.,0.,1.));
#14 = DIRECTION('',(1.,0.,-0.));
#15 = MANIFOLD_SOLID_BREP('',#16);
#16 = CLOSED_SHELL('',(#17,#137,#213,#332,#381,#408,#415,#568,#771,#925,
    #952,#957));
#17 = ADVANCED_FACE('',(#18),#32,.F.);
#18 = FACE_BOUND('',#19,.F.);
#19 = EDGE_LOOP('',(#20,#55,#83,#111));
#20 = ORIENTED_EDGE('',*,*,#21,.F.);
#21 = EDGE_CURVE('',#22,#24,#26,.T.);
#22 = VERTEX_POINT('',#23);
#23 = CARTESIAN_POINT('',(-30.,-20.,-20.));
#24 = VERTEX_POINT('',#25);
#25 = CARTESIAN_POINT('',(-30.,-20.,20.));
#26 = SURFACE_CURVE('',#27,(#31,#43),.PCURVE_S1.);
#27 = LINE('',#28,#29);
#28 = CARTESIAN_POINT('',(-30.,-20.,-20.));
#29 = VECTOR('',#30,1.);
#30 = DIRECTION('',(0.,0.,1.));
#31 = PCURVE('',#32,#37);
#32 = PLANE('',#33);
#33 = AXIS2_PLACEMENT_3D('',#34,#35,#36);
#34 = CARTESIAN_POINT('',(-30.,-20.,-20.));
#35 = DIRECTION('',(1.,0.,0.));
#36 = DIRECTION('',(0.,0.,1.));
#37 = DEFINITIONAL_REPRESENTATION('',(#38),#42);
#38 = LINE('',#39,#40);
#39 = CARTESIAN_POINT('',(0.,0.));
#40 = VECTOR('',#41,1.);
#41 = DIRECTION('',(1.,0.));
#42 = ( GEOMETRIC_REPRESENTATION_CONTEXT(2) 
PARAMETRIC_REPRESENTATION_CONTEXT() REPRESENTATION_CONTEXT('2D SPACE',''
  ) );
#43 = PCURVE('',#44,#49);
#44 = PLANE('',#45);
#45 = AXIS2_PLACEMENT_3D('',#46,#47,#48);
#46 = CARTESIAN_POINT('',(-30.,-20.,-20.));
#47 = DIRECTION('',(0.,1.,0.));
#48 = DIRECTION('',(0.,0.,1.));
#49 = DEFINITIONAL_REPRESENTATION('',(#50),#54);
#50 = LINE('',#51,#52);
#51 = CARTESIAN_POINT('',(0.,0.));
#52 = VECTOR('',#53,1.);
#53 = DIRECTION('',(1.,0.));
#54 = ( GEOMETRIC_REPRESENTATION_CONTEXT(2) 
PARAMETRIC_REPRESENTATION_CONTEXT() REPRESENTATION_CONTEXT('2D SPACE',''
  ) );
#55 = ORIENTED_EDGE('',*,*,#56,.T.);
#56 = EDGE_CURVE('',#22,#57,#59,.T.);
#57 = VERTEX_POINT('',#58);
#58 = CARTESIAN_POINT('',(-30.,20.,-20.));
#59 = SURFACE_CURVE('',#60,(#64,#71),.PCURVE_S1.);
#60 = LINE('',#61,#62);
#61 = CARTESIAN_POINT('',(-30.,-20.,-20.));
#62 = VECTOR('',#63,1.);
#63 = DIRECTION('',(0.,1.,0.));
#64 = PCURVE('',#32,#65);
#65 = DEFINITIONAL_REPRESENTATION('',(#66),#70);
#66 = LINE('',#67,#68);
#67 = CARTESIAN_POINT('',(0.,0.));
#68 = VECTOR('',#69,1.);
#69 = DIRECTION('',(0.,-1.));
#70 = ( GEOMETRIC_REPRESENTATION_CONTEXT(2) 
PARAMETRIC_REPRESENTATION_CONTEXT() REPRESENTATION_CONTEXT('2D SPACE',''
  ) );
#71 = PCURVE('',#72,#77);
#72 = PLANE('',#73);
#73 = AXIS2_PLACEMENT_3D('',#74,#75,#76);
#74 = CARTESIAN_POINT('',(-30.,-20.,-20.));
#75 = DIRECTION('',(0.,0.,1.));
#76 = DIRECTION('',(1.,0.,0.));
#77 = DEFINITIONAL_REPRESENTATION('',(#78),#82);
#78 = LINE('',#79,#80);
#79 = CARTESIAN_POINT('',(0.,0.));
#80 = VECTOR('',#81,1.);
#81 = DIRECTION('',(0.,1.));
#82 = ( GEOMETRIC_REPRESENTATION_CONTEXT(2) 
PARAMETRIC_REPRESENTATION_CONTEXT() REPRESENTATION_CONTEXT('2D SPACE',''
  ) );
#83 = ORIENTED_EDGE('',*,*,#84,.T.);
#84 = EDGE_CURVE('',#57,#85,#87,.T.);
#85 = VERTEX_POINT('',#86);
#86 = CARTESIAN_POINT('',(-30.,20.,20.));
#87 = SURFACE_CURVE('',#88,(#92,#99),.PCURVE_S1.);
#88 = LINE('',#89,#90);
#89 = CARTESIAN_POINT('',(-30.,20.,-20.));
#90 = VECTOR('',#91,1.);
#91 = DIRECTION('',(0.,0.,1.));
#92 = PCURVE('',#32,#93);
#93 = DEFINITIONAL_REPRESENTATION('',(#94),#98);
#94 = LINE('',#95,#96);
#95 = CARTESIAN_POINT('',(0.,-40.));
#96 = VECTOR('',#97,1.);
#97 = DIRECTION('',(1.,0.));
#98 = ( GEOMETRIC_REPRESENTATION_CONTEXT(2) 
PARAMETRIC_REPRESENTATION_CONTEXT() REPRESENTATION_CONTEXT('2D SPACE',''
  ) );
#99 = PCURVE('',#100,#105);
#100 = PLANE('',#101);
#101 = AXIS2_PLACEMENT_3D('',#102,#103,#104);
#102 = CARTESIAN_POINT('',(-30.,20.,-20.));
#103 = DIRECTION('',(0.,1.,0.));
#104 = DIRECTION('',(0.,0.,1.));
#105 = DEFINITIONAL_REPRESENTATION('',(#106),#110);
#106 = LINE('',#107,#108);
#107 = CARTESIAN_POINT('',(0.,0.));
#108 = VECTOR('',#109,1.);
#109 = DIRECTION('',(1.,0.));
#110 = ( GEOMETRIC_REPRESENTATION_CONTEXT(2) 
PARAMETRIC_REPRESENTATION_CONTEXT() REPRESENTATION_CONTEXT('2D SPACE',''
  ) );
#111 = ORIENTED_EDGE('',*,*,#112,.F.);
#112 = EDGE_CURVE('',#24,#85,#113,.T.);
#113 = SURFACE_CURVE('',#114,(#118,#125),.PCURVE_S1.);
#114 = LINE('',#115,#116);
#115 = CARTESIAN_POINT('',(-30.,-20.,20.));
#116 = VECTOR('',#117,1.);
#117 = DIRECTION('',(0.,1.,0.));
#118 = PCURVE('',#32,#119);
#119 = DEFINITIONAL_REPRESENTATION('',(#120),#124);
#120 = LINE('',#121,#122);
#121 = CARTESIAN_POINT('',(40.,0.));
#122 = VECTOR('',#123,1.);
#123 = DIRECTION('',(0.,-1.));
#124 = ( GEOMETRIC_REPRESENTATION_CONTEXT(2) 
PARAMETRIC_REPRESENTATION_CONTEXT() REPRESENTATION_CONTEXT('2D SPACE',''
  ) );
#125 = PCURVE('',#126,#131);
#126 = PLANE('',#127);
#127 = AXIS2_PLACEMENT_3D('',#128,#129,#130);
#128 = CARTESIAN_POINT('',(-30.,-20.,20.));
#129 = DIRECTION('',(0.,0.,1.));
#130 = DIRECTION('',(1.,0.,0.));
#131 = DEFINITIONAL_REPRESENTATION('',(#132),#136);
#132 = LINE('',#133,#134);
#133 = CARTESIAN_POINT('',(0.,0.));
#134 = VECTOR('',#135,1.);
#135 = DIRECTION('',(0.,1.));
#136 = ( GEOMETRIC_REPRESENTATION_CONTEXT(2) 
PARAMETRIC_REPRESENTATION_CONTEXT() REPRESENTATION_CONTEXT('2D SPACE',''
  ) );
#137 = ADVANCED_FACE('',(#138),#44,.F.);
#138 = FACE_BOUND('',#139,.F.);
#139 = EDGE_LOOP('',(#140,#163,#164,#187));
#140 = ORIENTED_EDGE('',*,*,#141,.F.);
#141 = EDGE_CURVE('',#22,#142,#144,.T.);
#142 = VERTEX_POINT('',#143);
#143 = CARTESIAN_POINT('',(30.,-20.,-20.));
#144 = SURFACE_CURVE('',#145,(#149,#156),.PCURVE_S1.);
#145 = LINE('',#146,#147);
#146 = CARTESIAN_POINT('',(-30.,-20.,-20.));
#147 = VECTOR('',#148,1.);
#148 = DIRECTION('',(1.,0.,0.));
#149 = PCURVE('',#44,#150);
#150 = DEFINITIONAL_REPRESENTATION('',(#151),#155);
#151 = LINE('',#152,#153);
#152 = CARTESIAN_POINT('',(0.,0.));
#153 = VECTOR('',#154,1.);
#154 = DIRECTION('',(0.,1.));
#155 = ( GEOMETRIC_REPRESENTATION_CONTEXT(2) 
PARAMETRIC_REPRESENTATION_CONTEXT() REPRESENTATION_CONTEXT('2D SPACE',''
  ) );
#156 = PCURVE('',#72,#157);
#157 = DEFINITIONAL_REPRESENTATION('',(#158),#162);
#158 = LINE('',#159,#160);
#159 = CARTESIAN_POINT('',(0.,0.));
#160 = VECTOR('',#161,1.);
#161 = DIRECTION('',(1.,0.));
#162 = ( GEOMETRIC_REPRESENTATION_CONTEXT(2) 
PARAMETRIC_REPRESENTATION_CONTEXT() REPRESENTATION_CONTEXT('2D SPACE',''
  ) );
#163 = ORIENTED_EDGE('',*,*,#21,.T.);
#164 = ORIENTED_EDGE('',*,*,#165,.T.);
#165 = EDGE_CURVE('',#24,#166,#168,.T.);
#166 = VERTEX_POINT('',#167);
#167 = CARTESIAN_POINT('',(30.,-20.,20.));
#168 = SURFACE_CURVE('',#169,(#173,#180),.PCURVE_S1.);
#169 = LINE('',#170,#171);
#170 = CARTESIAN_POINT('',(-30.,-20.,20.));
#171 = VECTOR('',#172,1.);
#172 = DIRECTION('',(1.,0.,0.));
#173 = PCURVE('',#44,#174);
#174 = DEFINITIONAL_REPRESENTATION('',(#175),#179);
#175 = LINE('',#176,#177);
#176 = CARTESIAN_POINT('',(40.,0.));
#177 = VECTOR('',#178,1.);
#178 = DIRECTION('',(0.,1.));
#179 = ( GEOMETRIC_REPRESENTATION_CONTEXT(2) 
PARAMETRIC_REPRESENTATION_CONTEXT() REPRESENTATION_CONTEXT('2D SPACE',''
  ) );
#180 = PCURVE('',#126,#181);
#181 = DEFINITIONAL_REPRESENTATION('',(#182),#186);
#182 = LINE('',#183,#184);
#183 = CARTESIAN_POINT('',(0.,0.));
#184 = VECTOR('',#185,1.);
#185 = DIRECTION('',(1.,0.));
#186 = ( GEOMETRIC_REPRESENTATION_CONTEXT(2) 
PARAMETRIC_REPRESENTATION_CONTEXT() REPRESENTATION_CONTEXT('2D SPACE',''
  ) );
#187 = ORIENTED_EDGE('',*,*,#188,.F.);
#188 = EDGE_CURVE('',#142,#166,#189,.T.);
#189 = SURFACE_CURVE('',#190,(#194,#201),.PCURVE_S1.);
#190 = LINE('',#191,#192);
#191 = CARTESIAN_POINT('',(30.,-20.,-20.));
#192 = VECTOR('',#193,1.);
#193 = DIRECTION('',(0.,0.,1.));
#194 = PCURVE('',#44,#195);
#195 = DEFINITIONAL_REPRESENTATION('',(#196),#200);
#196 = LINE('',#197,#198);
#197 = CARTESIAN_POINT('',(0.,60.));
#198 = VECTOR('',#199,1.);
#199 = DIRECTION('',(1.,0.));
#200 = ( GEOMETRIC_REPRESENTATION_CONTEXT(2) 
PARAMETRIC_REPRESENTATION_CONTEXT() REPRESENTATION_CONTEXT('2D SPACE',''
  ) );
#201 = PCURVE('',#202,#207);
#202 = PLANE('',#203);
#203 = AXIS2_PLACEMENT_3D('',#204,#205,#206);
#204 = CARTESIAN_POINT('',(30.,-20.,-20.));
#205 = DIRECTION('',(1.,0.,0.));
#206 = DIRECTION('',(0.,0.,1.));
#207 = DEFINITIONAL_REPRESENTATION('',(#208),#212);
#208 = LINE('',#209,#210);
#209 = CARTESIAN_POINT('',(0.,0.));
#210 = VECTOR('',#211,1.);
#211 = DIRECTION('',(1.,0.));
#212 = ( GEOMETRIC_REPRESENTATION_CONTEXT(2) 
PARAMETRIC_REPRESENTATION_CONTEXT() REPRESENTATION_CONTEXT('2D SPACE',''
  ) );
#213 = ADVANCED_FACE('',(#214,#262,#297),#126,.T.);
#214 = FACE_BOUND('',#215,.T.);
#215 = EDGE_LOOP('',(#216,#217,#218,#241));
#216 = ORIENTED_EDGE('',*,*,#112,.F.);
#217 = ORIENTED_EDGE('',*,*,#165,.T.);
#218 = ORIENTED_EDGE('',*,*,#219,.T.);
#219 = EDGE_CURVE('',#166,#220,#222,.T.);
#220 = VERTEX_POINT('',#221);
#221 = CARTESIAN_POINT('',(30.,20.,20.));
#222 = SURFACE_CURVE('',#223,(#227,#234),.PCURVE_S1.);
#223 = LINE('',#224,#225);
#224 = CARTESIAN_POINT('',(30.,-20.,20.));
#225 = VECTOR('',#226,1.);
#226 = DIRECTION('',(0.,1.,0.));
#227 = PCURVE('',#126,#228);
#228 = DEFINITIONAL_REPRESENTATION('',(#229),#233);
#229 = LINE('',#230,#231);
#230 = CARTESIAN_POINT('',(60.,0.));
#231 = VECTOR('',#232,1.);
#232 = DIRECTION('',(0.,1.));
#233 = ( GEOMETRIC_REPRESENTATION_CONTEXT(2) 
PARAMETRIC_REPRESENTATION_CONTEXT() REPRESENTATION_CONTEXT('2D SPACE',''
  ) );
#234 = PCURVE('',#202,#235);
#235 = DEFINITIONAL_REPRESENTATION('',(#236),#240);
#236 = LINE('',#237,#238);
#237 = CARTESIAN_POINT('',(40.,0.));
#238 = VECTOR('',#239,1.);
#239 = DIRECTION('',(0.,-1.));
#240 = ( GEOMETRIC_REPRESENTATION_CONTEXT(2) 
PARAMETRIC_REPRESENTATION_CONTEXT() REPRESENTATION_CONTEXT('2D SPACE',''
  ) );
#241 = ORIENTED_EDGE('',*,*,#242,.F.);
#242 = EDGE_CURVE('',#85,#220,#243,.T.);
#243 = SURFACE_CURVE('',#244,(#248,#255),.PCURVE_S1.);
#244 = LINE('',#245,#246);
#245 = CARTESIAN_POINT('',(-30.,20.,20.));
#246 = VECTOR('',#247,1.);
#247 = DIRECTION('',(1.,0.,0.));
#248 = PCURVE('',#126,#249);
#249 = DEFINITIONAL_REPRESENTATION('',(#250),#254);
#250 = LINE('',#251,#252);
#251 = CARTESIAN_POINT('',(0.,40.));
#252 = VECTOR('',#253,1.);
#253 = DIRECTION('',(1.,0.));
#254 = ( GEOMETRIC_REPRESENTATION_CONTEXT(2) 
PARAMETRIC_REPRESENTATION_CONTEXT() REPRESENTATION_CONTEXT('2D SPACE',''
  ) );
#255 = PCURVE('',#100,#256);
#256 = DEFINITIONAL_REPRESENTATION('',(#257),#261);
#257 = LINE('',#258,#259);
#258 = CARTESIAN_POINT('',(40.,0.));
#259 = VECTOR('',#260,1.);
#260 = DIRECTION('',(0.,1.));
#261 = ( GEOMETRIC_REPRESENTATION_CONTEXT(2) 
PARAMETRIC_REPRESENTATION_CONTEXT() REPRESENTATION_CONTEXT('2D SPACE',''
  ) );
#262 = FACE_BOUND('',#263,.T.);
#263 = EDGE_LOOP('',(#264));
#264 = ORIENTED_EDGE('',*,*,#265,.T.);
#265 = EDGE_CURVE('',#266,#266,#268,.T.);
#266 = VERTEX_POINT('',#267);
#267 = CARTESIAN_POINT('',(-20.,-1.224646799147E-15,20.));
#268 = SURFACE_CURVE('',#269,(#274,#285),.PCURVE_S1.);
#269 = CIRCLE('',#270,5.);
#270 = AXIS2_PLACEMENT_3D('',#271,#272,#273);
#271 = CARTESIAN_POINT('',(-15.,0.,20.));
#272 = DIRECTION('',(0.,0.,-1.));
#273 = DIRECTION('',(-1.,0.,0.));
#274 = PCURVE('',#126,#275);
#275 = DEFINITIONAL_REPRESENTATION('',(#276),#284);
#276 = ( BOUNDED_CURVE() B_SPLINE_CURVE(2,(#277,#278,#279,#280,#281,#282
,#283),.UNSPECIFIED.,.T.,.F.) B_SPLINE_CURVE_WITH_KNOTS((1,2,2,2,2,1),(
    -2.094395102393,0.,2.094395102393,4.188790204786,6.28318530718,
8.377580409573),.UNSPECIFIED.) CURVE() GEOMETRIC_REPRESENTATION_ITEM() 
RATIONAL_B_SPLINE_CURVE((1.,0.5,1.,0.5,1.,0.5,1.)) REPRESENTATION_ITEM(
  '') );
#277 = CARTESIAN_POINT('',(10.,20.));
#278 = CARTESIAN_POINT('',(10.,28.660254037844));
#279 = CARTESIAN_POINT('',(17.5,24.330127018922));
#280 = CARTESIAN_POINT('',(25.,20.));
#281 = CARTESIAN_POINT('',(17.5,15.669872981078));
#282 = CARTESIAN_POINT('',(10.,11.339745962156));
#283 = CARTESIAN_POINT('',(10.,20.));
#284 = ( GEOMETRIC_REPRESENTATION_CONTEXT(2) 
PARAMETRIC_REPRESENTATION_CONTEXT() REPRESENTATION_CONTEXT('2D SPACE',''
  ) );
#285 = PCURVE('',#286,#291);
#286 = CYLINDRICAL_SURFACE('',#287,5.);
#287 = AXIS2_PLACEMENT_3D('',#288,#289,#290);
#288 = CARTESIAN_POINT('',(-15.,0.,20.));
#289 = DIRECTION('',(0.,0.,-1.));
#290 = DIRECTION('',(-1.,0.,0.));
#291 = DEFINITIONAL_REPRESENTATION('',(#292),#296);
#292 = LINE('',#293,#294);
#293 = CARTESIAN_POINT('',(0.,0.));
#294 = VECTOR('',#295,1.);
#295 = DIRECTION('',(1.,0.));
#296 = ( GEOMETRIC_REPRESENTATION_CONTEXT(2) 
PARAMETRIC_REPRESENTATION_CONTEXT() REPRESENTATION_CONTEXT('2D SPACE',''
  ) );
#297 = FACE_BOUND('',#298,.T.);
#298 = EDGE_LOOP('',(#299));
#299 = ORIENTED_EDGE('',*,*,#300,.T.);
#300 = EDGE_CURVE('',#301,#301,#303,.T.);
#301 = VERTEX_POINT('',#302);
#302 = CARTESIAN_POINT('',(10.,-1.224646799147E-15,20.));
#303 = SURFACE_CURVE('',#304,(#309,#320),.PCURVE_S1.);
#304 = CIRCLE('',#305,5.);
#305 = AXIS2_PLACEMENT_3D('',#306,#307,#308);
#306 = CARTESIAN_POINT('',(15.,0.,20.));
#307 = DIRECTION('',(0.,0.,-1.));
#308 = DIRECTION('',(-1.,0.,0.));
#309 = PCURVE('',#126,#310);
#310 = DEFINITIONAL_REPRESENTATION('',(#311),#319);
#311 = ( BOUNDED_CURVE() B_SPLINE_CURVE(2,(#312,#313,#314,#315,#316,#317
,#318),.UNSPECIFIED.,.T.,.F.) B_SPLINE_CURVE_WITH_KNOTS((1,2,2,2,2,1),(
    -2.094395102393,0.,2.094395102393,4.188790204786,6.28318530718,
8.377580409573),.UNSPECIFIED.) CURVE() GEOMETRIC_REPRESENTATION_ITEM() 
RATIONAL_B_SPLINE_CURVE((1.,0.5,1.,0.5,1.,0.5,1.)) REPRESENTATION_ITEM(
  '') );
#312 = CARTESIAN_POINT('',(40.,20.));
#313 = CARTESIAN_POINT('',(40.,28.660254037844));
#314 = CARTESIAN_POINT('',(47.5,24.330127018922));
#315 = CARTESIAN_POINT('',(55.,20.));
#316 = CARTESIAN_POINT('',(47.5,15.669872981078));
#317 = CARTESIAN_POINT('',(40.,11.339745962156));
#318 = CARTESIAN_POINT('',(40.,20.));
#319 = ( GEOMETRIC_REPRESENTATION_CONTEXT(2) 
PARAMETRIC_REPRESENTATION_CONTEXT() REPRESENTATION_CONTEXT('2D SPACE',''
  ) );
#320 = PCURVE('',#321,#326);
#321 = CYLINDRICAL_SURFACE('',#322,5.);
#322 = AXIS2_PLACEMENT_3D('',#323,#324,#325);
#323 = CARTESIAN_POINT('',(15.,0.,20.));
#324 = DIRECTION('',(0.,0.,-1.));
#325 = DIRECTION('',(-1.,0.,0.));
#326 = DEFINITIONAL_REPRESENTATION('',(#327),#331);
#327 = LINE('',#328,#329);
#328 = CARTESIAN_POINT('',(0.,0.));
#329 = VECTOR('',#330,1.);
#330 = DIRECTION('',(1.,0.));
#331 = ( GEOMETRIC_REPRESENTATION_CONTEXT(2) 
PARAMETRIC_REPRESENTATION_CONTEXT() REPRESENTATION_CONTEXT('2D SPACE',''
  ) );
#332 = ADVANCED_FACE('',(#333),#100,.T.);
#333 = FACE_BOUND('',#334,.T.);
#334 = EDGE_LOOP('',(#335,#358,#359,#360));
#335 = ORIENTED_EDGE('',*,*,#336,.F.);
#336 = EDGE_CURVE('',#57,#337,#339,.T.);
#337 = VERTEX_POINT('',#338);
#338 = CARTESIAN_POINT('',(30.,20.,-20.));
#339 = SURFACE_CURVE('',#340,(#344,#351),.PCURVE_S1.);
#340 = LINE('',#341,#342);
#341 = CARTESIAN_POINT('',(-30.,20.,-20.));
#342 = VECTOR('',#343,1.);
#343 = DIRECTION('',(1.,0.,0.));
#344 = PCURVE('',#100,#345);
#345 = DEFINITIONAL_REPRESENTATION('',(#346),#350);
#346 = LINE('',#347,#348);
#347 = CARTESIAN_POINT('',(0.,0.));
#348 = VECTOR('',#349,1.);
#349 = DIRECTION('',(0.,1.));
#350 = ( GEOMETRIC_REPRESENTATION_CONTEXT(2) 
PARAMETRIC_REPRESENTATION_CONTEXT() REPRESENTATION_CONTEXT('2D SPACE',''
  ) );
#351 = PCURVE('',#72,#352);
#352 = DEFINITIONAL_REPRESENTATION('',(#353),#357);
#353 = LINE('',#354,#355);
#354 = CARTESIAN_POINT('',(0.,40.));
#355 = VECTOR('',#356,1.);
#356 = DIRECTION('',(1.,0.));
#357 = ( GEOMETRIC_REPRESENTATION_CONTEXT(2) 
PARAMETRIC_REPRESENTATION_CONTEXT() REPRESENTATION_CONTEXT('2D SPACE',''
  ) );
#358 = ORIENTED_EDGE('',*,*,#84,.T.);
#359 = ORIENTED_EDGE('',*,*,#242,.T.);
#360 = ORIENTED_EDGE('',*,*,#361,.F.);
#361 = EDGE_CURVE('',#337,#220,#362,.T.);
#362 = SURFACE_CURVE('',#363,(#367,#374),.PCURVE_S1.);
#363 = LINE('',#364,#365);
#364 = CARTESIAN_POINT('',(30.,20.,-20.));
#365 = VECTOR('',#366,1.);
#366 = DIRECTION('',(0.,0.,1.));
#367 = PCURVE('',#100,#368);
#368 = DEFINITIONAL_REPRESENTATION('',(#369),#373);
#369 = LINE('',#370,#371);
#370 = CARTESIAN_POINT('',(0.,60.));
#371 = VECTOR('',#372,1.);
#372 = DIRECTION('',(1.,0.));
#373 = ( GEOMETRIC_REPRESENTATION_CONTEXT(2) 
PARAMETRIC_REPRESENTATION_CONTEXT() REPRESENTATION_CONTEXT('2D SPACE',''
  ) );
#374 = PCURVE('',#202,#375);
#375 = DEFINITIONAL_REPRESENTATION('',(#376),#380);
#376 = LINE('',#377,#378);
#377 = CARTESIAN_POINT('',(0.,-40.));
#378 = VECTOR('',#379,1.);
#379 = DIRECTION('',(1.,0.));
#380 = ( GEOMETRIC_REPRESENTATION_CONTEXT(2) 
PARAMETRIC_REPRESENTATION_CONTEXT() REPRESENTATION_CONTEXT('2D SPACE',''
  ) );
#381 = ADVANCED_FACE('',(#382),#72,.F.);
#382 = FACE_BOUND('',#383,.F.);
#383 = EDGE_LOOP('',(#384,#385,#386,#407));
#384 = ORIENTED_EDGE('',*,*,#56,.F.);
#385 = ORIENTED_EDGE('',*,*,#141,.T.);
#386 = ORIENTED_EDGE('',*,*,#387,.T.);
#387 = EDGE_CURVE('',#142,#337,#388,.T.);
#388 = SURFACE_CURVE('',#389,(#393,#400),.PCURVE_S1.);
#389 = LINE('',#390,#391);
#390 = CARTESIAN_POINT('',(30.,-20.,-20.));
#391 = VECTOR('',#392,1.);
#392 = DIRECTION('',(0.,1.,0.));
#393 = PCURVE('',#72,#394);
#394 = DEFINITIONAL_REPRESENTATION('',(#395),#399);
#395 = LINE('',#396,#397);
#396 = CARTESIAN_POINT('',(60.,0.));
#397 = VECTOR('',#398,1.);
#398 = DIRECTION('',(0.,1.));
#399 = ( GEOMETRIC_REPRESENTATION_CONTEXT(2) 
PARAMETRIC_REPRESENTATION_CONTEXT() REPRESENTATION_CONTEXT('2D SPACE',''
  ) );
#400 = PCURVE('',#202,#401);
#401 = DEFINITIONAL_REPRESENTATION('',(#402),#406);
#402 = LINE('',#403,#404);
#403 = CARTESIAN_POINT('',(0.,0.));
#404 = VECTOR('',#405,1.);
#405 = DIRECTION('',(0.,-1.));
#406 = ( GEOMETRIC_REPRESENTATION_CONTEXT(2) 
PARAMETRIC_REPRESENTATION_CONTEXT() REPRESENTATION_CONTEXT('2D SPACE',''
  ) );
#407 = ORIENTED_EDGE('',*,*,#336,.F.);
#408 = ADVANCED_FACE('',(#409),#202,.T.);
#409 = FACE_BOUND('',#410,.T.);
#410 = EDGE_LOOP('',(#411,#412,#413,#414));
#411 = ORIENTED_EDGE('',*,*,#188,.F.);
#412 = ORIENTED_EDGE('',*,*,#387,.T.);
#413 = ORIENTED_EDGE('',*,*,#361,.T.);
#414 = ORIENTED_EDGE('',*,*,#219,.F.);
#415 = ADVANCED_FACE('',(#416),#286,.F.);
#416 = FACE_BOUND('',#417,.F.);
#417 = EDGE_LOOP('',(#418,#475,#511,#532,#533,#534));
#418 = ORIENTED_EDGE('',*,*,#419,.F.);
#419 = EDGE_CURVE('',#420,#422,#424,.T.);
#420 = VERTEX_POINT('',#421);
#421 = CARTESIAN_POINT('',(-15.,5.,-10.));
#422 = VERTEX_POINT('',#423);
#423 = CARTESIAN_POINT('',(-15.,-5.,-10.));
#424 = SURFACE_CURVE('',#425,(#430,#450),.PCURVE_S1.);
#425 = ELLIPSE('',#426,7.071067811865,5.);
#426 = AXIS2_PLACEMENT_3D('',#427,#428,#429);
#427 = CARTESIAN_POINT('',(-15.,0.,-10.));
#428 = DIRECTION('',(0.707106781187,0.,-0.707106781187));
#429 = DIRECTION('',(-0.707106781187,0.,-0.707106781187));
#430 = PCURVE('',#286,#431);
#431 = DEFINITIONAL_REPRESENTATION('',(#432),#449);
#432 = B_SPLINE_CURVE_WITH_KNOTS('',8,(#433,#434,#435,#436,#437,#438,
    #439,#440,#441,#442,#443,#444,#445,#446,#447,#448),.UNSPECIFIED.,.F.
  ,.F.,(9,7,9),(1.570796326795,3.141592713982,4.71238910117),
  .UNSPECIFIED.);
#433 = CARTESIAN_POINT('',(1.570796326795,30.));
#434 = CARTESIAN_POINT('',(1.767145875193,29.018252258008));
#435 = CARTESIAN_POINT('',(1.96349542359,28.036504282929));
#436 = CARTESIAN_POINT('',(2.159844971988,27.112433587201));
#437 = CARTESIAN_POINT('',(2.356194520387,26.303706122839));
#438 = CARTESIAN_POINT('',(2.552544068785,25.660909644619));
#439 = CARTESIAN_POINT('',(2.748893617187,25.220303778307));
#440 = CARTESIAN_POINT('',(2.945243165584,24.99999994071));
#441 = CARTESIAN_POINT('',(3.337942262381,25.00000005929));
#442 = CARTESIAN_POINT('',(3.534291810784,25.220304015435));
#443 = CARTESIAN_POINT('',(3.730641359143,25.660909993487));
#444 = CARTESIAN_POINT('',(3.926990907614,26.303706569117));
#445 = CARTESIAN_POINT('',(4.123340455943,27.112434111419));
#446 = CARTESIAN_POINT('',(4.319690004379,28.036504860222));
#447 = CARTESIAN_POINT('',(4.516039552771,29.018252861933));
#448 = CARTESIAN_POINT('',(4.71238910117,30.000000603925));
#449 = ( GEOMETRIC_REPRESENTATION_CONTEXT(2) 
PARAMETRIC_REPRESENTATION_CONTEXT() REPRESENTATION_CONTEXT('2D SPACE',''
  ) );
#450 = PCURVE('',#451,#456);
#451 = CYLINDRICAL_SURFACE('',#452,5.);
#452 = AXIS2_PLACEMENT_3D('',#453,#454,#455);
#453 = CARTESIAN_POINT('',(-20.,0.,-10.));
#454 = DIRECTION('',(-1.,-0.,-0.));
#455 = DIRECTION('',(0.,1.,0.));
#456 = DEFINITIONAL_REPRESENTATION('',(#457),#474);
#457 = B_SPLINE_CURVE_WITH_KNOTS('',8,(#458,#459,#460,#461,#462,#463,
    #464,#465,#466,#467,#468,#469,#470,#471,#472,#473),.UNSPECIFIED.,.F.
  ,.F.,(9,7,9),(1.570796326795,3.141592713982,4.71238910117),
  .UNSPECIFIED.);
#458 = CARTESIAN_POINT('',(0.,-5.));
#459 = CARTESIAN_POINT('',(-0.196349548398,-5.981747741992));
#460 = CARTESIAN_POINT('',(-0.392699096796,-6.963495717062));
#461 = CARTESIAN_POINT('',(-0.589048645196,-7.887566412668));
#462 = CARTESIAN_POINT('',(-0.785398193592,-8.696293877176));
#463 = CARTESIAN_POINT('',(-0.981747741993,-9.339090355312));
#464 = CARTESIAN_POINT('',(-1.17809729039,-9.779696221691));
#465 = CARTESIAN_POINT('',(-1.374446838789,-10.00000005929));
#466 = CARTESIAN_POINT('',(-1.767145935586,-9.99999994071));
#467 = CARTESIAN_POINT('',(-1.963495483985,-9.779695984533));
#468 = CARTESIAN_POINT('',(-2.159845032374,-9.33909000651));
#469 = CARTESIAN_POINT('',(-2.356194580791,-8.696293430752));
#470 = CARTESIAN_POINT('',(-2.552544129174,-7.887565888555));
#471 = CARTESIAN_POINT('',(-2.748893677578,-6.963495139755));
#472 = CARTESIAN_POINT('',(-2.945243225976,-5.981747138067));
#473 = CARTESIAN_POINT('',(-3.141592774375,-4.999999396075));
#474 = ( GEOMETRIC_REPRESENTATION_CONTEXT(2) 
PARAMETRIC_REPRESENTATION_CONTEXT() REPRESENTATION_CONTEXT('2D SPACE',''
  ) );
#475 = ORIENTED_EDGE('',*,*,#476,.F.);
#476 = EDGE_CURVE('',#477,#420,#479,.T.);
#477 = VERTEX_POINT('',#478);
#478 = CARTESIAN_POINT('',(-20.,-4.900134648181E-15,-5.));
#479 = SURFACE_CURVE('',#480,(#485,#498),.PCURVE_S1.);
#480 = ELLIPSE('',#481,7.071067811865,5.);
#481 = AXIS2_PLACEMENT_3D('',#482,#483,#484);
#482 = CARTESIAN_POINT('',(-15.,0.,-10.));
#483 = DIRECTION('',(-0.707106781187,0.,-0.707106781187));
#484 = DIRECTION('',(0.707106781187,0.,-0.707106781187));
#485 = PCURVE('',#286,#486);
#486 = DEFINITIONAL_REPRESENTATION('',(#487),#497);
#487 = B_SPLINE_CURVE_WITH_KNOTS('',8,(#488,#489,#490,#491,#492,#493,
    #494,#495,#496),.UNSPECIFIED.,.F.,.F.,(9,9),(3.14159265359,
    4.712388980385),.PIECEWISE_BEZIER_KNOTS.);
#488 = CARTESIAN_POINT('',(-8.881784197001E-16,25.));
#489 = CARTESIAN_POINT('',(0.196349540849,25.));
#490 = CARTESIAN_POINT('',(0.392699081698,25.220303879931));
#491 = CARTESIAN_POINT('',(0.589048622546,25.66090976815));
#492 = CARTESIAN_POINT('',(0.785398163398,26.303706247068));
#493 = CARTESIAN_POINT('',(0.981747704247,27.112433693852));
#494 = CARTESIAN_POINT('',(1.178097245096,28.036504358406));
#495 = CARTESIAN_POINT('',(1.374446785946,29.018252295753));
#496 = CARTESIAN_POINT('',(1.570796326795,30.));
#497 = ( GEOMETRIC_REPRESENTATION_CONTEXT(2) 
PARAMETRIC_REPRESENTATION_CONTEXT() REPRESENTATION_CONTEXT('2D SPACE',''
  ) );
#498 = PCURVE('',#451,#499);
#499 = DEFINITIONAL_REPRESENTATION('',(#500),#510);
#500 = B_SPLINE_CURVE_WITH_KNOTS('',8,(#501,#502,#503,#504,#505,#506,
    #507,#508,#509),.UNSPECIFIED.,.F.,.F.,(9,9),(3.14159265359,
    4.712388980385),.PIECEWISE_BEZIER_KNOTS.);
#501 = CARTESIAN_POINT('',(-1.570796326795,0.));
#502 = CARTESIAN_POINT('',(-1.374446785946,5.562129806087E-16));
#503 = CARTESIAN_POINT('',(-1.178097245096,-0.220303879932));
#504 = CARTESIAN_POINT('',(-0.981747704243,-0.66090976829));
#505 = CARTESIAN_POINT('',(-0.7853981634,-1.303706247119));
#506 = CARTESIAN_POINT('',(-0.589048622546,-2.112433693937));
#507 = CARTESIAN_POINT('',(-0.392699081699,-3.03650435841));
#508 = CARTESIAN_POINT('',(-0.196349540849,-4.018252295753));
#509 = CARTESIAN_POINT('',(-3.552713678801E-16,-5.));
#510 = ( GEOMETRIC_REPRESENTATION_CONTEXT(2) 
PARAMETRIC_REPRESENTATION_CONTEXT() REPRESENTATION_CONTEXT('2D SPACE',''
  ) );
#511 = ORIENTED_EDGE('',*,*,#512,.F.);
#512 = EDGE_CURVE('',#266,#477,#513,.T.);
#513 = SEAM_CURVE('',#514,(#518,#525),.PCURVE_S1.);
#514 = LINE('',#515,#516);
#515 = CARTESIAN_POINT('',(-20.,-1.224646799147E-15,20.));
#516 = VECTOR('',#517,1.);
#517 = DIRECTION('',(0.,0.,-1.));
#518 = PCURVE('',#286,#519);
#519 = DEFINITIONAL_REPRESENTATION('',(#520),#524);
#520 = LINE('',#521,#522);
#521 = CARTESIAN_POINT('',(6.28318530718,-0.));
#522 = VECTOR('',#523,1.);
#523 = DIRECTION('',(0.,1.));
#524 = ( GEOMETRIC_REPRESENTATION_CONTEXT(2) 
PARAMETRIC_REPRESENTATION_CONTEXT() REPRESENTATION_CONTEXT('2D SPACE',''
  ) );
#525 = PCURVE('',#286,#526);
#526 = DEFINITIONAL_REPRESENTATION('',(#527),#531);
#527 = LINE('',#528,#529);
#528 = CARTESIAN_POINT('',(0.,-0.));
#529 = VECTOR('',#530,1.);
#530 = DIRECTION('',(0.,1.));
#531 = ( GEOMETRIC_REPRESENTATION_CONTEXT(2) 
PARAMETRIC_REPRESENTATION_CONTEXT() REPRESENTATION_CONTEXT('2D SPACE',''
  ) );
#532 = ORIENTED_EDGE('',*,*,#265,.T.);
#533 = ORIENTED_EDGE('',*,*,#512,.T.);
#534 = ORIENTED_EDGE('',*,*,#535,.F.);
#535 = EDGE_CURVE('',#422,#477,#536,.T.);
#536 = SURFACE_CURVE('',#537,(#542,#555),.PCURVE_S1.);
#537 = ELLIPSE('',#538,7.071067811865,5.);
#538 = AXIS2_PLACEMENT_3D('',#539,#540,#541);
#539 = CARTESIAN_POINT('',(-15.,0.,-10.));
#540 = DIRECTION('',(-0.707106781187,0.,-0.707106781187));
#541 = DIRECTION('',(0.707106781187,0.,-0.707106781187));
#542 = PCURVE('',#286,#543);
#543 = DEFINITIONAL_REPRESENTATION('',(#544),#554);
#544 = B_SPLINE_CURVE_WITH_KNOTS('',8,(#545,#546,#547,#548,#549,#550,
    #551,#552,#553),.UNSPECIFIED.,.F.,.F.,(9,9),(1.57079632758,
    3.14159265359),.PIECEWISE_BEZIER_KNOTS.);
#545 = CARTESIAN_POINT('',(4.71238898117,29.999999996075));
#546 = CARTESIAN_POINT('',(4.908738521921,29.018252292319));
#547 = CARTESIAN_POINT('',(5.105088062671,28.036504355605));
#548 = CARTESIAN_POINT('',(5.301437603401,27.11243369196));
#549 = CARTESIAN_POINT('',(5.497787144166,26.303706245715));
#550 = CARTESIAN_POINT('',(5.694136684906,25.660909767743));
#551 = CARTESIAN_POINT('',(5.890486225676,25.220303879683));
#552 = CARTESIAN_POINT('',(6.086835766428,25.));
#553 = CARTESIAN_POINT('',(6.28318530718,25.));
#554 = ( GEOMETRIC_REPRESENTATION_CONTEXT(2) 
PARAMETRIC_REPRESENTATION_CONTEXT() REPRESENTATION_CONTEXT('2D SPACE',''
  ) );
#555 = PCURVE('',#451,#556);
#556 = DEFINITIONAL_REPRESENTATION('',(#557),#567);
#557 = B_SPLINE_CURVE_WITH_KNOTS('',8,(#558,#559,#560,#561,#562,#563,
    #564,#565,#566),.UNSPECIFIED.,.F.,.F.,(9,9),(1.57079632758,
    3.14159265359),.PIECEWISE_BEZIER_KNOTS.);
#558 = CARTESIAN_POINT('',(-3.141592652805,-4.999999996075));
#559 = CARTESIAN_POINT('',(-2.945243112054,-4.018252292319));
#560 = CARTESIAN_POINT('',(-2.748893571303,-3.03650435564));
#561 = CARTESIAN_POINT('',(-2.552544030546,-2.112433691916));
#562 = CARTESIAN_POINT('',(-2.356194489805,-1.303706245838));
#563 = CARTESIAN_POINT('',(-2.159844949043,-0.660909767628));
#564 = CARTESIAN_POINT('',(-1.963495408297,-0.220303879713));
#565 = CARTESIAN_POINT('',(-1.767145867546,-5.562129803307E-16));
#566 = CARTESIAN_POINT('',(-1.570796326795,0.));
#567 = ( GEOMETRIC_REPRESENTATION_CONTEXT(2) 
PARAMETRIC_REPRESENTATION_CONTEXT() REPRESENTATION_CONTEXT('2D SPACE',''
  ) );
#568 = ADVANCED_FACE('',(#569),#321,.F.);
#569 = FACE_BOUND('',#570,.F.);
#570 = EDGE_LOOP('',(#571,#628,#664,#685,#686,#687,#723));
#571 = ORIENTED_EDGE('',*,*,#572,.F.);
#572 = EDGE_CURVE('',#573,#575,#577,.T.);
#573 = VERTEX_POINT('',#574);
#574 = CARTESIAN_POINT('',(15.000000004373,5.,-10.));
#575 = VERTEX_POINT('',#576);
#576 = CARTESIAN_POINT('',(20.,3.061616997868E-16,-5.));
#577 = SURFACE_CURVE('',#578,(#583,#603),.PCURVE_S1.);
#578 = ELLIPSE('',#579,7.071067811865,5.);
#579 = AXIS2_PLACEMENT_3D('',#580,#581,#582);
#580 = CARTESIAN_POINT('',(15.,0.,-10.));
#581 = DIRECTION('',(0.707106781187,0.,-0.707106781187));
#582 = DIRECTION('',(-0.707106781187,0.,-0.707106781187));
#583 = PCURVE('',#321,#584);
#584 = DEFINITIONAL_REPRESENTATION('',(#585),#602);
#585 = B_SPLINE_CURVE_WITH_KNOTS('',8,(#586,#587,#588,#589,#590,#591,
    #592,#593,#594,#595,#596,#597,#598,#599,#600,#601),.UNSPECIFIED.,.F.
  ,.F.,(9,7,9),(1.570796326795,3.141592713982,4.71238910117),
  .UNSPECIFIED.);
#586 = CARTESIAN_POINT('',(1.570796326795,30.));
#587 = CARTESIAN_POINT('',(1.767145875193,29.018252258008));
#588 = CARTESIAN_POINT('',(1.96349542359,28.036504282929));
#589 = CARTESIAN_POINT('',(2.159844971988,27.112433587201));
#590 = CARTESIAN_POINT('',(2.356194520387,26.303706122839));
#591 = CARTESIAN_POINT('',(2.552544068785,25.660909644619));
#592 = CARTESIAN_POINT('',(2.748893617187,25.220303778307));
#593 = CARTESIAN_POINT('',(2.945243165584,24.99999994071));
#594 = CARTESIAN_POINT('',(3.337942262381,25.00000005929));
#595 = CARTESIAN_POINT('',(3.534291810779,25.220304015435));
#596 = CARTESIAN_POINT('',(3.730641359158,25.660909993487));
#597 = CARTESIAN_POINT('',(3.926990907574,26.303706569117));
#598 = CARTESIAN_POINT('',(4.123340455955,27.112434111419));
#599 = CARTESIAN_POINT('',(4.319690004374,28.036504860222));
#600 = CARTESIAN_POINT('',(4.516039552771,29.018252861933));
#601 = CARTESIAN_POINT('',(4.71238910117,30.000000603925));
#602 = ( GEOMETRIC_REPRESENTATION_CONTEXT(2) 
PARAMETRIC_REPRESENTATION_CONTEXT() REPRESENTATION_CONTEXT('2D SPACE',''
  ) );
#603 = PCURVE('',#604,#609);
#604 = CYLINDRICAL_SURFACE('',#605,5.);
#605 = AXIS2_PLACEMENT_3D('',#606,#607,#608);
#606 = CARTESIAN_POINT('',(-20.,0.,-10.));
#607 = DIRECTION('',(-1.,-0.,-0.));
#608 = DIRECTION('',(0.,1.,0.));
#609 = DEFINITIONAL_REPRESENTATION('',(#610),#627);
#610 = B_SPLINE_CURVE_WITH_KNOTS('',8,(#611,#612,#613,#614,#615,#616,
    #617,#618,#619,#620,#621,#622,#623,#624,#625,#626),.UNSPECIFIED.,.F.
  ,.F.,(9,7,9),(1.570796326795,3.141592713982,4.71238910117),
  .UNSPECIFIED.);
#611 = CARTESIAN_POINT('',(0.,-35.));
#612 = CARTESIAN_POINT('',(-0.196349548398,-35.98174774199));
#613 = CARTESIAN_POINT('',(-0.392699096796,-36.9634957171));
#614 = CARTESIAN_POINT('',(-0.589048645196,-37.88756641252));
#615 = CARTESIAN_POINT('',(-0.785398193592,-38.69629387743));
#616 = CARTESIAN_POINT('',(-0.981747741993,-39.33909035511));
#617 = CARTESIAN_POINT('',(-1.17809729039,-39.77969622174));
#618 = CARTESIAN_POINT('',(-1.374446838789,-40.00000005929));
#619 = CARTESIAN_POINT('',(-1.767145935586,-39.99999994071));
#620 = CARTESIAN_POINT('',(-1.963495483985,-39.77969598453));
#621 = CARTESIAN_POINT('',(-2.159845032374,-39.33909000635));
#622 = CARTESIAN_POINT('',(-2.356194580791,-38.69629343092));
#623 = CARTESIAN_POINT('',(-2.552544129174,-37.88756588843));
#624 = CARTESIAN_POINT('',(-2.748893677578,-36.96349513976));
#625 = CARTESIAN_POINT('',(-2.945243225976,-35.98174713806));
#626 = CARTESIAN_POINT('',(-3.141592774375,-34.99999939607));
#627 = ( GEOMETRIC_REPRESENTATION_CONTEXT(2) 
PARAMETRIC_REPRESENTATION_CONTEXT() REPRESENTATION_CONTEXT('2D SPACE',''
  ) );
#628 = ORIENTED_EDGE('',*,*,#629,.F.);
#629 = EDGE_CURVE('',#630,#573,#632,.T.);
#630 = VERTEX_POINT('',#631);
#631 = CARTESIAN_POINT('',(10.,-1.224646799147E-15,-5.));
#632 = SURFACE_CURVE('',#633,(#638,#651),.PCURVE_S1.);
#633 = ELLIPSE('',#634,7.071067811865,5.);
#634 = AXIS2_PLACEMENT_3D('',#635,#636,#637);
#635 = CARTESIAN_POINT('',(15.,0.,-10.));
#636 = DIRECTION('',(-0.707106781187,0.,-0.707106781187));
#637 = DIRECTION('',(0.707106781187,0.,-0.707106781187));
#638 = PCURVE('',#321,#639);
#639 = DEFINITIONAL_REPRESENTATION('',(#640),#650);
#640 = B_SPLINE_CURVE_WITH_KNOTS('',8,(#641,#642,#643,#644,#645,#646,
    #647,#648,#649),.UNSPECIFIED.,.F.,.F.,(9,9),(3.14159265359,
    4.712388980385),.PIECEWISE_BEZIER_KNOTS.);
#641 = CARTESIAN_POINT('',(-8.881784197001E-16,25.));
#642 = CARTESIAN_POINT('',(0.196349540849,25.));
#643 = CARTESIAN_POINT('',(0.392699081699,25.220303879931));
#644 = CARTESIAN_POINT('',(0.589048622544,25.66090976815));
#645 = CARTESIAN_POINT('',(0.785398163398,26.303706247068));
#646 = CARTESIAN_POINT('',(0.981747704243,27.112433693852));
#647 = CARTESIAN_POINT('',(1.178097245097,28.036504358406));
#648 = CARTESIAN_POINT('',(1.374446785946,29.018252295753));
#649 = CARTESIAN_POINT('',(1.570796326795,30.));
#650 = ( GEOMETRIC_REPRESENTATION_CONTEXT(2) 
PARAMETRIC_REPRESENTATION_CONTEXT() REPRESENTATION_CONTEXT('2D SPACE',''
  ) );
#651 = PCURVE('',#451,#652);
#652 = DEFINITIONAL_REPRESENTATION('',(#653),#663);
#653 = B_SPLINE_CURVE_WITH_KNOTS('',8,(#654,#655,#656,#657,#658,#659,
    #660,#661,#662),.UNSPECIFIED.,.F.,.F.,(9,9),(3.14159265359,
    4.712388980385),.PIECEWISE_BEZIER_KNOTS.);
#654 = CARTESIAN_POINT('',(-1.570796326795,-30.));
#655 = CARTESIAN_POINT('',(-1.374446785946,-30.));
#656 = CARTESIAN_POINT('',(-1.178097245096,-30.22030387994));
#657 = CARTESIAN_POINT('',(-0.981747704243,-30.66090976822));
#658 = CARTESIAN_POINT('',(-0.7853981634,-31.30370624721));
#659 = CARTESIAN_POINT('',(-0.589048622546,-32.11243369383));
#660 = CARTESIAN_POINT('',(-0.392699081699,-33.03650435843));
#661 = CARTESIAN_POINT('',(-0.196349540849,-34.01825229575));
#662 = CARTESIAN_POINT('',(-3.552713678801E-16,-35.));
#663 = ( GEOMETRIC_REPRESENTATION_CONTEXT(2) 
PARAMETRIC_REPRESENTATION_CONTEXT() REPRESENTATION_CONTEXT('2D SPACE',''
  ) );
#664 = ORIENTED_EDGE('',*,*,#665,.F.);
#665 = EDGE_CURVE('',#301,#630,#666,.T.);
#666 = SEAM_CURVE('',#667,(#671,#678),.PCURVE_S1.);
#667 = LINE('',#668,#669);
#668 = CARTESIAN_POINT('',(10.,-1.224646799147E-15,20.));
#669 = VECTOR('',#670,1.);
#670 = DIRECTION('',(0.,0.,-1.));
#671 = PCURVE('',#321,#672);
#672 = DEFINITIONAL_REPRESENTATION('',(#673),#677);
#673 = LINE('',#674,#675);
#674 = CARTESIAN_POINT('',(6.28318530718,-0.));
#675 = VECTOR('',#676,1.);
#676 = DIRECTION('',(0.,1.));
#677 = ( GEOMETRIC_REPRESENTATION_CONTEXT(2) 
PARAMETRIC_REPRESENTATION_CONTEXT() REPRESENTATION_CONTEXT('2D SPACE',''
  ) );
#678 = PCURVE('',#321,#679);
#679 = DEFINITIONAL_REPRESENTATION('',(#680),#684);
#680 = LINE('',#681,#682);
#681 = CARTESIAN_POINT('',(0.,-0.));
#682 = VECTOR('',#683,1.);
#683 = DIRECTION('',(0.,1.));
#684 = ( GEOMETRIC_REPRESENTATION_CONTEXT(2) 
PARAMETRIC_REPRESENTATION_CONTEXT() REPRESENTATION_CONTEXT('2D SPACE',''
  ) );
#685 = ORIENTED_EDGE('',*,*,#300,.T.);
#686 = ORIENTED_EDGE('',*,*,#665,.T.);
#687 = ORIENTED_EDGE('',*,*,#688,.F.);
#688 = EDGE_CURVE('',#689,#630,#691,.T.);
#689 = VERTEX_POINT('',#690);
#690 = CARTESIAN_POINT('',(15.,-5.,-10.));
#691 = SURFACE_CURVE('',#692,(#697,#710),.PCURVE_S1.);
#692 = ELLIPSE('',#693,7.071067811865,5.);
#693 = AXIS2_PLACEMENT_3D('',#694,#695,#696);
#694 = CARTESIAN_POINT('',(15.,0.,-10.));
#695 = DIRECTION('',(-0.707106781187,0.,-0.707106781187));
#696 = DIRECTION('',(0.707106781187,0.,-0.707106781187));
#697 = PCURVE('',#321,#698);
#698 = DEFINITIONAL_REPRESENTATION('',(#699),#709);
#699 = B_SPLINE_CURVE_WITH_KNOTS('',8,(#700,#701,#702,#703,#704,#705,
    #706,#707,#708),.UNSPECIFIED.,.F.,.F.,(9,9),(1.57079632758,
    3.14159265359),.PIECEWISE_BEZIER_KNOTS.);
#700 = CARTESIAN_POINT('',(4.71238898117,29.999999996075));
#701 = CARTESIAN_POINT('',(4.908738521921,29.018252292319));
#702 = CARTESIAN_POINT('',(5.105088062671,28.036504355605));
#703 = CARTESIAN_POINT('',(5.301437603401,27.11243369196));
#704 = CARTESIAN_POINT('',(5.497787144166,26.303706245715));
#705 = CARTESIAN_POINT('',(5.694136684906,25.660909767743));
#706 = CARTESIAN_POINT('',(5.890486225676,25.220303879683));
#707 = CARTESIAN_POINT('',(6.086835766428,25.));
#708 = CARTESIAN_POINT('',(6.28318530718,25.));
#709 = ( GEOMETRIC_REPRESENTATION_CONTEXT(2) 
PARAMETRIC_REPRESENTATION_CONTEXT() REPRESENTATION_CONTEXT('2D SPACE',''
  ) );
#710 = PCURVE('',#451,#711);
#711 = DEFINITIONAL_REPRESENTATION('',(#712),#722);
#712 = B_SPLINE_CURVE_WITH_KNOTS('',8,(#713,#714,#715,#716,#717,#718,
    #719,#720,#721),.UNSPECIFIED.,.F.,.F.,(9,9),(1.57079632758,
    3.14159265359),.PIECEWISE_BEZIER_KNOTS.);
#713 = CARTESIAN_POINT('',(-3.141592652805,-34.99999999607));
#714 = CARTESIAN_POINT('',(-2.945243112054,-34.01825229231));
#715 = CARTESIAN_POINT('',(-2.748893571303,-33.0365043556));
#716 = CARTESIAN_POINT('',(-2.552544030546,-32.11243369201));
#717 = CARTESIAN_POINT('',(-2.356194489805,-31.30370624558));
#718 = CARTESIAN_POINT('',(-2.159844949043,-30.66090976765));
#719 = CARTESIAN_POINT('',(-1.963495408297,-30.22030387969));
#720 = CARTESIAN_POINT('',(-1.767145867546,-30.));
#721 = CARTESIAN_POINT('',(-1.570796326795,-30.));
#722 = ( GEOMETRIC_REPRESENTATION_CONTEXT(2) 
PARAMETRIC_REPRESENTATION_CONTEXT() REPRESENTATION_CONTEXT('2D SPACE',''
  ) );
#723 = ORIENTED_EDGE('',*,*,#724,.F.);
#724 = EDGE_CURVE('',#575,#689,#725,.T.);
#725 = SURFACE_CURVE('',#726,(#731,#751),.PCURVE_S1.);
#726 = ELLIPSE('',#727,7.071067811865,5.);
#727 = AXIS2_PLACEMENT_3D('',#728,#729,#730);
#728 = CARTESIAN_POINT('',(15.,0.,-10.));
#729 = DIRECTION('',(0.707106781187,0.,-0.707106781187));
#730 = DIRECTION('',(-0.707106781187,0.,-0.707106781187));
#731 = PCURVE('',#321,#732);
#732 = DEFINITIONAL_REPRESENTATION('',(#733),#750);
#733 = B_SPLINE_CURVE_WITH_KNOTS('',8,(#734,#735,#736,#737,#738,#739,
    #740,#741,#742,#743,#744,#745,#746,#747,#748,#749),.UNSPECIFIED.,.F.
  ,.F.,(9,7,9),(1.570796326795,3.141592713982,4.71238910117),
  .UNSPECIFIED.);
#734 = CARTESIAN_POINT('',(1.570796326795,30.));
#735 = CARTESIAN_POINT('',(1.767145875193,29.018252258008));
#736 = CARTESIAN_POINT('',(1.96349542359,28.036504282929));
#737 = CARTESIAN_POINT('',(2.159844971988,27.112433587201));
#738 = CARTESIAN_POINT('',(2.356194520387,26.303706122839));
#739 = CARTESIAN_POINT('',(2.552544068785,25.660909644619));
#740 = CARTESIAN_POINT('',(2.748893617187,25.220303778307));
#741 = CARTESIAN_POINT('',(2.945243165584,24.99999994071));
#742 = CARTESIAN_POINT('',(3.337942262381,25.00000005929));
#743 = CARTESIAN_POINT('',(3.534291810779,25.220304015435));
#744 = CARTESIAN_POINT('',(3.730641359158,25.660909993487));
#745 = CARTESIAN_POINT('',(3.926990907574,26.303706569117));
#746 = CARTESIAN_POINT('',(4.123340455955,27.112434111419));
#747 = CARTESIAN_POINT('',(4.319690004374,28.036504860222));
#748 = CARTESIAN_POINT('',(4.516039552771,29.018252861933));
#749 = CARTESIAN_POINT('',(4.71238910117,30.000000603925));
#750 = ( GEOMETRIC_REPRESENTATION_CONTEXT(2) 
PARAMETRIC_REPRESENTATION_CONTEXT() REPRESENTATION_CONTEXT('2D SPACE',''
  ) );
#751 = PCURVE('',#451,#752);
#752 = DEFINITIONAL_REPRESENTATION('',(#753),#770);
#753 = B_SPLINE_CURVE_WITH_KNOTS('',8,(#754,#755,#756,#757,#758,#759,
    #760,#761,#762,#763,#764,#765,#766,#767,#768,#769),.UNSPECIFIED.,.F.
  ,.F.,(9,7,9),(1.570796326795,3.141592713982,4.71238910117),
  .UNSPECIFIED.);
#754 = CARTESIAN_POINT('',(0.,-35.));
#755 = CARTESIAN_POINT('',(-0.196349548398,-35.98174774199));
#756 = CARTESIAN_POINT('',(-0.392699096796,-36.9634957171));
#757 = CARTESIAN_POINT('',(-0.589048645196,-37.88756641252));
#758 = CARTESIAN_POINT('',(-0.785398193592,-38.69629387743));
#759 = CARTESIAN_POINT('',(-0.981747741993,-39.33909035511));
#760 = CARTESIAN_POINT('',(-1.17809729039,-39.77969622174));
#761 = CARTESIAN_POINT('',(-1.374446838789,-40.00000005929));
#762 = CARTESIAN_POINT('',(-1.767145935586,-39.99999994071));
#763 = CARTESIAN_POINT('',(-1.963495483985,-39.77969598453));
#764 = CARTESIAN_POINT('',(-2.159845032374,-39.33909000635));
#765 = CARTESIAN_POINT('',(-2.356194580791,-38.69629343092));
#766 = CARTESIAN_POINT('',(-2.552544129174,-37.88756588843));
#767 = CARTESIAN_POINT('',(-2.748893677578,-36.96349513976));
#768 = CARTESIAN_POINT('',(-2.945243225976,-35.98174713806));
#769 = CARTESIAN_POINT('',(-3.141592774375,-34.99999939607));
#770 = ( GEOMETRIC_REPRESENTATION_CONTEXT(2) 
PARAMETRIC_REPRESENTATION_CONTEXT() REPRESENTATION_CONTEXT('2D SPACE',''
  ) );
#771 = ADVANCED_FACE('',(#772),#451,.F.);
#772 = FACE_BOUND('',#773,.T.);
#773 = EDGE_LOOP('',(#774,#775,#776,#777,#806,#827,#848,#871,#898,#899,
    #900,#901,#923,#924));
#774 = ORIENTED_EDGE('',*,*,#629,.F.);
#775 = ORIENTED_EDGE('',*,*,#688,.F.);
#776 = ORIENTED_EDGE('',*,*,#724,.F.);
#777 = ORIENTED_EDGE('',*,*,#778,.T.);
#778 = EDGE_CURVE('',#575,#779,#781,.T.);
#779 = VERTEX_POINT('',#780);
#780 = CARTESIAN_POINT('',(20.,5.,-10.));
#781 = SURFACE_CURVE('',#782,(#787,#794),.PCURVE_S1.);
#782 = CIRCLE('',#783,5.);
#783 = AXIS2_PLACEMENT_3D('',#784,#785,#786);
#784 = CARTESIAN_POINT('',(20.,0.,-10.));
#785 = DIRECTION('',(1.,0.,0.));
#786 = DIRECTION('',(0.,1.,0.));
#787 = PCURVE('',#451,#788);
#788 = DEFINITIONAL_REPRESENTATION('',(#789),#793);
#789 = LINE('',#790,#791);
#790 = CARTESIAN_POINT('',(-0.,-40.));
#791 = VECTOR('',#792,1.);
#792 = DIRECTION('',(-1.,0.));
#793 = ( GEOMETRIC_REPRESENTATION_CONTEXT(2) 
PARAMETRIC_REPRESENTATION_CONTEXT() REPRESENTATION_CONTEXT('2D SPACE',''
  ) );
#794 = PCURVE('',#795,#800);
#795 = PLANE('',#796);
#796 = AXIS2_PLACEMENT_3D('',#797,#798,#799);
#797 = CARTESIAN_POINT('',(20.,-2.734880265079E-16,-10.));
#798 = DIRECTION('',(1.,0.,0.));
#799 = DIRECTION('',(-0.,0.,1.));
#800 = DEFINITIONAL_REPRESENTATION('',(#801),#805);
#801 = CIRCLE('',#802,5.);
#802 = AXIS2_PLACEMENT_2D('',#803,#804);
#803 = CARTESIAN_POINT('',(0.,-2.734880265079E-16));
#804 = DIRECTION('',(0.,-1.));
#805 = ( GEOMETRIC_REPRESENTATION_CONTEXT(2) 
PARAMETRIC_REPRESENTATION_CONTEXT() REPRESENTATION_CONTEXT('2D SPACE',''
  ) );
#806 = ORIENTED_EDGE('',*,*,#807,.F.);
#807 = EDGE_CURVE('',#573,#779,#808,.T.);
#808 = SURFACE_CURVE('',#809,(#813,#820),.PCURVE_S1.);
#809 = LINE('',#810,#811);
#810 = CARTESIAN_POINT('',(-20.,5.,-10.));
#811 = VECTOR('',#812,1.);
#812 = DIRECTION('',(1.,0.,0.));
#813 = PCURVE('',#451,#814);
#814 = DEFINITIONAL_REPRESENTATION('',(#815),#819);
#815 = LINE('',#816,#817);
#816 = CARTESIAN_POINT('',(-6.28318530718,0.));
#817 = VECTOR('',#818,1.);
#818 = DIRECTION('',(-0.,-1.));
#819 = ( GEOMETRIC_REPRESENTATION_CONTEXT(2) 
PARAMETRIC_REPRESENTATION_CONTEXT() REPRESENTATION_CONTEXT('2D SPACE',''
  ) );
#820 = PCURVE('',#604,#821);
#821 = DEFINITIONAL_REPRESENTATION('',(#822),#826);
#822 = LINE('',#823,#824);
#823 = CARTESIAN_POINT('',(-0.,0.));
#824 = VECTOR('',#825,1.);
#825 = DIRECTION('',(-0.,-1.));
#826 = ( GEOMETRIC_REPRESENTATION_CONTEXT(2) 
PARAMETRIC_REPRESENTATION_CONTEXT() REPRESENTATION_CONTEXT('2D SPACE',''
  ) );
#827 = ORIENTED_EDGE('',*,*,#828,.F.);
#828 = EDGE_CURVE('',#420,#573,#829,.T.);
#829 = SEAM_CURVE('',#830,(#834,#841),.PCURVE_S1.);
#830 = LINE('',#831,#832);
#831 = CARTESIAN_POINT('',(-20.,5.,-10.));
#832 = VECTOR('',#833,1.);
#833 = DIRECTION('',(1.,0.,0.));
#834 = PCURVE('',#451,#835);
#835 = DEFINITIONAL_REPRESENTATION('',(#836),#840);
#836 = LINE('',#837,#838);
#837 = CARTESIAN_POINT('',(-6.28318530718,0.));
#838 = VECTOR('',#839,1.);
#839 = DIRECTION('',(-0.,-1.));
#840 = ( GEOMETRIC_REPRESENTATION_CONTEXT(2) 
PARAMETRIC_REPRESENTATION_CONTEXT() REPRESENTATION_CONTEXT('2D SPACE',''
  ) );
#841 = PCURVE('',#451,#842);
#842 = DEFINITIONAL_REPRESENTATION('',(#843),#847);
#843 = LINE('',#844,#845);
#844 = CARTESIAN_POINT('',(-0.,0.));
#845 = VECTOR('',#846,1.);
#846 = DIRECTION('',(-0.,-1.));
#847 = ( GEOMETRIC_REPRESENTATION_CONTEXT(2) 
PARAMETRIC_REPRESENTATION_CONTEXT() REPRESENTATION_CONTEXT('2D SPACE',''
  ) );
#848 = ORIENTED_EDGE('',*,*,#849,.F.);
#849 = EDGE_CURVE('',#850,#420,#852,.T.);
#850 = VERTEX_POINT('',#851);
#851 = CARTESIAN_POINT('',(-20.,5.,-10.));
#852 = SEAM_CURVE('',#853,(#857,#864),.PCURVE_S1.);
#853 = LINE('',#854,#855);
#854 = CARTESIAN_POINT('',(-20.,5.,-10.));
#855 = VECTOR('',#856,1.);
#856 = DIRECTION('',(1.,0.,0.));
#857 = PCURVE('',#451,#858);
#858 = DEFINITIONAL_REPRESENTATION('',(#859),#863);
#859 = LINE('',#860,#861);
#860 = CARTESIAN_POINT('',(-6.28318530718,0.));
#861 = VECTOR('',#862,1.);
#862 = DIRECTION('',(-0.,-1.));
#863 = ( GEOMETRIC_REPRESENTATION_CONTEXT(2) 
PARAMETRIC_REPRESENTATION_CONTEXT() REPRESENTATION_CONTEXT('2D SPACE',''
  ) );
#864 = PCURVE('',#451,#865);
#865 = DEFINITIONAL_REPRESENTATION('',(#866),#870);
#866 = LINE('',#867,#868);
#867 = CARTESIAN_POINT('',(-0.,0.));
#868 = VECTOR('',#869,1.);
#869 = DIRECTION('',(-0.,-1.));
#870 = ( GEOMETRIC_REPRESENTATION_CONTEXT(2) 
PARAMETRIC_REPRESENTATION_CONTEXT() REPRESENTATION_CONTEXT('2D SPACE',''
  ) );
#871 = ORIENTED_EDGE('',*,*,#872,.F.);
#872 = EDGE_CURVE('',#477,#850,#873,.T.);
#873 = SURFACE_CURVE('',#874,(#879,#886),.PCURVE_S1.);
#874 = CIRCLE('',#875,5.);
#875 = AXIS2_PLACEMENT_3D('',#876,#877,#878);
#876 = CARTESIAN_POINT('',(-20.,0.,-10.));
#877 = DIRECTION('',(1.,0.,0.));
#878 = DIRECTION('',(0.,1.,0.));
#879 = PCURVE('',#451,#880);
#880 = DEFINITIONAL_REPRESENTATION('',(#881),#885);
#881 = LINE('',#882,#883);
#882 = CARTESIAN_POINT('',(-0.,0.));
#883 = VECTOR('',#884,1.);
#884 = DIRECTION('',(-1.,0.));
#885 = ( GEOMETRIC_REPRESENTATION_CONTEXT(2) 
PARAMETRIC_REPRESENTATION_CONTEXT() REPRESENTATION_CONTEXT('2D SPACE',''
  ) );
#886 = PCURVE('',#887,#892);
#887 = PLANE('',#888);
#888 = AXIS2_PLACEMENT_3D('',#889,#890,#891);
#889 = CARTESIAN_POINT('',(-20.,-2.734880265079E-16,-10.));
#890 = DIRECTION('',(1.,0.,0.));
#891 = DIRECTION('',(-0.,0.,1.));
#892 = DEFINITIONAL_REPRESENTATION('',(#893),#897);
#893 = CIRCLE('',#894,5.);
#894 = AXIS2_PLACEMENT_2D('',#895,#896);
#895 = CARTESIAN_POINT('',(0.,-2.734880265079E-16));
#896 = DIRECTION('',(0.,-1.));
#897 = ( GEOMETRIC_REPRESENTATION_CONTEXT(2) 
PARAMETRIC_REPRESENTATION_CONTEXT() REPRESENTATION_CONTEXT('2D SPACE',''
  ) );
#898 = ORIENTED_EDGE('',*,*,#535,.F.);
#899 = ORIENTED_EDGE('',*,*,#419,.F.);
#900 = ORIENTED_EDGE('',*,*,#476,.F.);
#901 = ORIENTED_EDGE('',*,*,#902,.F.);
#902 = EDGE_CURVE('',#850,#477,#903,.T.);
#903 = SURFACE_CURVE('',#904,(#909,#916),.PCURVE_S1.);
#904 = CIRCLE('',#905,5.);
#905 = AXIS2_PLACEMENT_3D('',#906,#907,#908);
#906 = CARTESIAN_POINT('',(-20.,0.,-10.));
#907 = DIRECTION('',(1.,0.,0.));
#908 = DIRECTION('',(0.,1.,0.));
#909 = PCURVE('',#451,#910);
#910 = DEFINITIONAL_REPRESENTATION('',(#911),#915);
#911 = LINE('',#912,#913);
#912 = CARTESIAN_POINT('',(-0.,0.));
#913 = VECTOR('',#914,1.);
#914 = DIRECTION('',(-1.,0.));
#915 = ( GEOMETRIC_REPRESENTATION_CONTEXT(2) 
PARAMETRIC_REPRESENTATION_CONTEXT() REPRESENTATION_CONTEXT('2D SPACE',''
  ) );
#916 = PCURVE('',#887,#917);
#917 = DEFINITIONAL_REPRESENTATION('',(#918),#922);
#918 = CIRCLE('',#919,5.);
#919 = AXIS2_PLACEMENT_2D('',#920,#921);
#920 = CARTESIAN_POINT('',(0.,-2.734880265079E-16));
#921 = DIRECTION('',(0.,-1.));
#922 = ( GEOMETRIC_REPRESENTATION_CONTEXT(2) 
PARAMETRIC_REPRESENTATION_CONTEXT() REPRESENTATION_CONTEXT('2D SPACE',''
  ) );
#923 = ORIENTED_EDGE('',*,*,#849,.T.);
#924 = ORIENTED_EDGE('',*,*,#828,.T.);
#925 = ADVANCED_FACE('',(#926),#604,.F.);
#926 = FACE_BOUND('',#927,.T.);
#927 = EDGE_LOOP('',(#928,#929,#930));
#928 = ORIENTED_EDGE('',*,*,#572,.F.);
#929 = ORIENTED_EDGE('',*,*,#807,.T.);
#930 = ORIENTED_EDGE('',*,*,#931,.T.);
#931 = EDGE_CURVE('',#779,#575,#932,.T.);
#932 = SURFACE_CURVE('',#933,(#938,#945),.PCURVE_S1.);
#933 = CIRCLE('',#934,5.);
#934 = AXIS2_PLACEMENT_3D('',#935,#936,#937);
#935 = CARTESIAN_POINT('',(20.,0.,-10.));
#936 = DIRECTION('',(1.,0.,0.));
#937 = DIRECTION('',(0.,1.,0.));
#938 = PCURVE('',#604,#939);
#939 = DEFINITIONAL_REPRESENTATION('',(#940),#944);
#940 = LINE('',#941,#942);
#941 = CARTESIAN_POINT('',(-0.,-40.));
#942 = VECTOR('',#943,1.);
#943 = DIRECTION('',(-1.,0.));
#944 = ( GEOMETRIC_REPRESENTATION_CONTEXT(2) 
PARAMETRIC_REPRESENTATION_CONTEXT() REPRESENTATION_CONTEXT('2D SPACE',''
  ) );
#945 = PCURVE('',#795,#946);
#946 = DEFINITIONAL_REPRESENTATION('',(#947),#951);
#947 = CIRCLE('',#948,5.);
#948 = AXIS2_PLACEMENT_2D('',#949,#950);
#949 = CARTESIAN_POINT('',(0.,-2.734880265079E-16));
#950 = DIRECTION('',(0.,-1.));
#951 = ( GEOMETRIC_REPRESENTATION_CONTEXT(2) 
PARAMETRIC_REPRESENTATION_CONTEXT() REPRESENTATION_CONTEXT('2D SPACE',''
  ) );
#952 = ADVANCED_FACE('',(#953),#795,.F.);
#953 = FACE_BOUND('',#954,.F.);
#954 = EDGE_LOOP('',(#955,#956));
#955 = ORIENTED_EDGE('',*,*,#931,.T.);
#956 = ORIENTED_EDGE('',*,*,#778,.T.);
#957 = ADVANCED_FACE('',(#958),#887,.T.);
#958 = FACE_BOUND('',#959,.T.);
#959 = EDGE_LOOP('',(#960,#961));
#960 = ORIENTED_EDGE('',*,*,#902,.T.);
#961 = ORIENTED_EDGE('',*,*,#872,.T.);
#962 = ( GEOMETRIC_REPRESENTATION_CONTEXT(3) 
GLOBAL_UNCERTAINTY_ASSIGNED_CONTEXT((#966)) GLOBAL_UNIT_ASSIGNED_CONTEXT
((#963,#964,#965)) REPRESENTATION_CONTEXT('Context #1',
  '3D Context with UNIT and UNCERTAINTY') );
#963 = ( LENGTH_UNIT() NAMED_UNIT(*) SI_UNIT(.MILLI.,.METRE.) );
#964 = ( NAMED_UNIT(*) PLANE_ANGLE_UNIT() SI_UNIT($,.RADIAN.) );
#965 = ( NAMED_UNIT(*) SI_UNIT($,.STERADIAN.) SOLID_ANGLE_UNIT() );
#966 = UNCERTAINTY_MEASURE_WITH_UNIT(LENGTH_MEASURE(1.E-07),#963,
  'distance_accuracy_value','confusion accuracy');
#967 = PRODUCT_RELATED_PRODUCT_CATEGORY('part',$,(#7));
ENDSEC;
END-ISO-10303-21;
