ISO-10303-21;
HEADER;
FILE_DESCRIPTION(('Open CASCADE Model'),'2;1');
FILE_NAME('Open CASCADE Shape Model','2026-08-07T02:34:17',('Author'),(
    'Open CASCADE'),'Open CASCADE STEP processor 7.7','Open CASCADE 7.7'
  ,'Unknown');
FILE_SCHEMA(('AUTOMOTIVE_DESIGN { 1 0 10303 214 1 1 1 1 }'));
ENDSEC;
DATA;
#1 = APPLICATION_PROTOCOL_DEFINITION('international standard',
  'automotive_design',2000,#2);
#2 = APPLICATION_CONTEXT(
  'core data for automotive mechanical design processes');
#3 = SHAPE_DEFINITION_REPRESENTATION(#4,#10);
#4 = PRODUCT_DEFINITION_SHAPE('','',#5);
#5 = PRODUCT_DEFINITION('design','',#6,#9);
#6 = PRODUCT_DEFINITION_FORMATION('','',#7);
#7 = PRODUCT('Open CASCADE STEP translator 7.7 33',
  'Open CASCADE STEP translator 7.7 33','',(#8));
#8 = PRODUCT_CONTEXT('',#2,'mechanical');
#9 = PRODUCT_DEFINITION_CONTEXT('part definition',#2,'design');
#10 = ADVANCED_BREP_SHAPE_REPRESENTATION('',(#11,#15),#1328);
#11 = AXIS2_PLACEMENT_3D('',#12,#13,#14);
#12 = CARTESIAN_POINT('',(0.,0.,0.));
#13 = DIRECTION('',(0.,0.,1.));
#14 = DIRECTION('',(1.,0.,-0.));
#15 = MANIFOLD_SOLID_BREP('',#16);
#16 = CLOSED_SHELL('',(#17,#581,#638,#642,#697,#752,#807,#846,#885,#920,
    #955,#1125,#1201,#1299));
#17 = ADVANCED_FACE('',(#18,#260,#367,#474),#33,.T.);
#18 = FACE_BOUND('',#19,.T.);
#19 = EDGE_LOOP('',(#20,#51,#121,#145,#172,#173,#217,#259));
#20 = ORIENTED_EDGE('',*,*,#21,.T.);
#21 = EDGE_CURVE('',#22,#24,#26,.T.);
#22 = VERTEX_POINT('',#23);
#23 = CARTESIAN_POINT('',(1.530808498934E-15,-3.749399456655E-31,-25.));
#24 = VERTEX_POINT('',#25);
#25 = CARTESIAN_POINT('',(20.,-4.898587196589E-15,-15.));
#26 = SEAM_CURVE('',#27,(#32,#44),.PCURVE_S1.);
#27 = CIRCLE('',#28,25.);
#28 = AXIS2_PLACEMENT_3D('',#29,#30,#31);
#29 = CARTESIAN_POINT('',(0.,0.,0.));
#30 = DIRECTION('',(-2.449293598295E-16,-1.,0.));
#31 = DIRECTION('',(1.,-2.449293598295E-16,0.));
#32 = PCURVE('',#33,#38);
#33 = SPHERICAL_SURFACE('',#34,25.);
#34 = AXIS2_PLACEMENT_3D('',#35,#36,#37);
#35 = CARTESIAN_POINT('',(0.,0.,0.));
#36 = DIRECTION('',(0.,0.,1.));
#37 = DIRECTION('',(1.,0.,0.));
#38 = DEFINITIONAL_REPRESENTATION('',(#39),#43);
#39 = LINE('',#40,#41);
#40 = CARTESIAN_POINT('',(6.28318530718,-6.28318530718));
#41 = VECTOR('',#42,1.);
#42 = DIRECTION('',(0.,1.));
#43 = ( GEOMETRIC_REPRESENTATION_CONTEXT(2) 
PARAMETRIC_REPRESENTATION_CONTEXT() REPRESENTATION_CONTEXT('2D SPACE',''
  ) );
#44 = PCURVE('',#33,#45);
#45 = DEFINITIONAL_REPRESENTATION('',(#46),#50);
#46 = LINE('',#47,#48);
#47 = CARTESIAN_POINT('',(0.,-6.28318530718));
#48 = VECTOR('',#49,1.);
#49 = DIRECTION('',(0.,1.));
#50 = ( GEOMETRIC_REPRESENTATION_CONTEXT(2) 
PARAMETRIC_REPRESENTATION_CONTEXT() REPRESENTATION_CONTEXT('2D SPACE',''
  ) );
#51 = ORIENTED_EDGE('',*,*,#52,.T.);
#52 = EDGE_CURVE('',#24,#53,#55,.T.);
#53 = VERTEX_POINT('',#54);
#54 = CARTESIAN_POINT('',(20.,-4.898587196589E-15,15.));
#55 = SURFACE_CURVE('',#56,(#61,#109),.PCURVE_S1.);
#56 = CIRCLE('',#57,15.);
#57 = AXIS2_PLACEMENT_3D('',#58,#59,#60);
#58 = CARTESIAN_POINT('',(20.,0.,0.));
#59 = DIRECTION('',(-1.,-0.,-0.));
#60 = DIRECTION('',(0.,0.,-1.));
#61 = PCURVE('',#33,#62);
#62 = DEFINITIONAL_REPRESENTATION('',(#63),#108);
#63 = B_SPLINE_CURVE_WITH_KNOTS('',8,(#64,#65,#66,#67,#68,#69,#70,#71,
    #72,#73,#74,#75,#76,#77,#78,#79,#80,#81,#82,#83,#84,#85,#86,#87,#88,
    #89,#90,#91,#92,#93,#94,#95,#96,#97,#98,#99,#100,#101,#102,#103,#104
    ,#105,#106,#107),.UNSPECIFIED.,.F.,.F.,(9,7,7,7,7,7,9),(0.,
    0.392699081699,1.079922474671,1.595340019401,2.368466336495,
    2.755029495043,3.14159265359),.UNSPECIFIED.);
#64 = CARTESIAN_POINT('',(6.28318530718,-0.643501108793));
#65 = CARTESIAN_POINT('',(6.24636976827,-0.643501108793));
#66 = CARTESIAN_POINT('',(6.209554259884,-0.641435758395));
#67 = CARTESIAN_POINT('',(6.173025826769,-0.637305083481));
#68 = CARTESIAN_POINT('',(6.137072311262,-0.631137529015));
#69 = CARTESIAN_POINT('',(6.101959368525,-0.622990346042));
#70 = CARTESIAN_POINT('',(6.067912819181,-0.612944440556));
#71 = CARTESIAN_POINT('',(6.035110247803,-0.601096974479));
#72 = CARTESIAN_POINT('',(5.948692894601,-0.56385656944));
#73 = CARTESIAN_POINT('',(5.897920270783,-0.534968767832));
#74 = CARTESIAN_POINT('',(5.852085770496,-0.501465090395));
#75 = CARTESIAN_POINT('',(5.811490690349,-0.464013974992));
#76 = CARTESIAN_POINT('',(5.776062524215,-0.42326704197));
#77 = CARTESIAN_POINT('',(5.745619523867,-0.379803363086));
#78 = CARTESIAN_POINT('',(5.719936670074,-0.334142530439));
#79 = CARTESIAN_POINT('',(5.682963666666,-0.251208547436));
#80 = CARTESIAN_POINT('',(5.669680495667,-0.21469229269));
#81 = CARTESIAN_POINT('',(5.658873090446,-0.177400130953));
#82 = CARTESIAN_POINT('',(5.650460546555,-0.139513019905));
#83 = CARTESIAN_POINT('',(5.64437939585,-0.101198900423));
#84 = CARTESIAN_POINT('',(5.640588422481,-6.261717454413E-02));
#85 = CARTESIAN_POINT('',(5.639069677715,-2.392359414123E-02));
#86 = CARTESIAN_POINT('',(5.640967436146,7.269856437032E-02));
#87 = CARTESIAN_POINT('',(5.647231268568,0.130571250457));
#88 = CARTESIAN_POINT('',(5.658638752902,0.187814742946));
#89 = CARTESIAN_POINT('',(5.675328159568,0.243896481423));
#90 = CARTESIAN_POINT('',(5.697549373814,0.298242436116));
#91 = CARTESIAN_POINT('',(5.725647782795,0.350207758096));
#92 = CARTESIAN_POINT('',(5.759985114529,0.399030763655));
#93 = CARTESIAN_POINT('',(5.821047637956,0.466291012592));
#94 = CARTESIAN_POINT('',(5.842994572201,0.487715390931));
#95 = CARTESIAN_POINT('',(5.866550899406,0.508038986696));
#96 = CARTESIAN_POINT('',(5.891718865645,0.527151894871));
#97 = CARTESIAN_POINT('',(5.918479741996,0.544940380686));
#98 = CARTESIAN_POINT('',(5.94678385815,0.561289716036));
#99 = CARTESIAN_POINT('',(5.976542036879,0.576088754994));
#100 = CARTESIAN_POINT('',(6.038704380532,0.602383541771));
#101 = CARTESIAN_POINT('',(6.071108579806,0.613879284217));
#102 = CARTESIAN_POINT('',(6.104704601849,0.623622009881));
#103 = CARTESIAN_POINT('',(6.139320240801,0.631520017198));
#104 = CARTESIAN_POINT('',(6.17473831325,0.637497195778));
#105 = CARTESIAN_POINT('',(6.21070474185,0.641499796511));
#106 = CARTESIAN_POINT('',(6.246945011066,0.643501108793));
#107 = CARTESIAN_POINT('',(6.28318530718,0.643501108793));
#108 = ( GEOMETRIC_REPRESENTATION_CONTEXT(2) 
PARAMETRIC_REPRESENTATION_CONTEXT() REPRESENTATION_CONTEXT('2D SPACE',''
  ) );
#109 = PCURVE('',#110,#115);
#110 = CYLINDRICAL_SURFACE('',#111,15.);
#111 = AXIS2_PLACEMENT_3D('',#112,#113,#114);
#112 = CARTESIAN_POINT('',(0.,0.,0.));
#113 = DIRECTION('',(-1.,-0.,-0.));
#114 = DIRECTION('',(0.,1.,0.));
#115 = DEFINITIONAL_REPRESENTATION('',(#116),#120);
#116 = LINE('',#117,#118);
#117 = CARTESIAN_POINT('',(-4.712388980385,-20.));
#118 = VECTOR('',#119,1.);
#119 = DIRECTION('',(1.,-0.));
#120 = ( GEOMETRIC_REPRESENTATION_CONTEXT(2) 
PARAMETRIC_REPRESENTATION_CONTEXT() REPRESENTATION_CONTEXT('2D SPACE',''
  ) );
#121 = ORIENTED_EDGE('',*,*,#122,.T.);
#122 = EDGE_CURVE('',#53,#123,#125,.T.);
#123 = VERTEX_POINT('',#124);
#124 = CARTESIAN_POINT('',(10.,-2.449293598295E-15,22.912878474779));
#125 = SEAM_CURVE('',#126,(#131,#138),.PCURVE_S1.);
#126 = CIRCLE('',#127,25.);
#127 = AXIS2_PLACEMENT_3D('',#128,#129,#130);
#128 = CARTESIAN_POINT('',(0.,0.,0.));
#129 = DIRECTION('',(-2.449293598295E-16,-1.,0.));
#130 = DIRECTION('',(1.,-2.449293598295E-16,0.));
#131 = PCURVE('',#33,#132);
#132 = DEFINITIONAL_REPRESENTATION('',(#133),#137);
#133 = LINE('',#134,#135);
#134 = CARTESIAN_POINT('',(0.,-6.28318530718));
#135 = VECTOR('',#136,1.);
#136 = DIRECTION('',(0.,1.));
#137 = ( GEOMETRIC_REPRESENTATION_CONTEXT(2) 
PARAMETRIC_REPRESENTATION_CONTEXT() REPRESENTATION_CONTEXT('2D SPACE',''
  ) );
#138 = PCURVE('',#33,#139);
#139 = DEFINITIONAL_REPRESENTATION('',(#140),#144);
#140 = LINE('',#141,#142);
#141 = CARTESIAN_POINT('',(6.28318530718,-6.28318530718));
#142 = VECTOR('',#143,1.);
#143 = DIRECTION('',(0.,1.));
#144 = ( GEOMETRIC_REPRESENTATION_CONTEXT(2) 
PARAMETRIC_REPRESENTATION_CONTEXT() REPRESENTATION_CONTEXT('2D SPACE',''
  ) );
#145 = ORIENTED_EDGE('',*,*,#146,.F.);
#146 = EDGE_CURVE('',#123,#123,#147,.T.);
#147 = SURFACE_CURVE('',#148,(#153,#160),.PCURVE_S1.);
#148 = CIRCLE('',#149,10.);
#149 = AXIS2_PLACEMENT_3D('',#150,#151,#152);
#150 = CARTESIAN_POINT('',(0.,0.,22.912878474779));
#151 = DIRECTION('',(0.,0.,1.));
#152 = DIRECTION('',(1.,0.,-0.));
#153 = PCURVE('',#33,#154);
#154 = DEFINITIONAL_REPRESENTATION('',(#155),#159);
#155 = LINE('',#156,#157);
#156 = CARTESIAN_POINT('',(0.,1.159279480727));
#157 = VECTOR('',#158,1.);
#158 = DIRECTION('',(1.,0.));
#159 = ( GEOMETRIC_REPRESENTATION_CONTEXT(2) 
PARAMETRIC_REPRESENTATION_CONTEXT() REPRESENTATION_CONTEXT('2D SPACE',''
  ) );
#160 = PCURVE('',#161,#166);
#161 = PLANE('',#162);
#162 = AXIS2_PLACEMENT_3D('',#163,#164,#165);
#163 = CARTESIAN_POINT('',(-100.,-100.,22.912878474779));
#164 = DIRECTION('',(0.,0.,1.));
#165 = DIRECTION('',(1.,0.,0.));
#166 = DEFINITIONAL_REPRESENTATION('',(#167),#171);
#167 = CIRCLE('',#168,10.);
#168 = AXIS2_PLACEMENT_2D('',#169,#170);
#169 = CARTESIAN_POINT('',(100.,100.));
#170 = DIRECTION('',(1.,0.));
#171 = ( GEOMETRIC_REPRESENTATION_CONTEXT(2) 
PARAMETRIC_REPRESENTATION_CONTEXT() REPRESENTATION_CONTEXT('2D SPACE',''
  ) );
#172 = ORIENTED_EDGE('',*,*,#122,.F.);
#173 = ORIENTED_EDGE('',*,*,#174,.T.);
#174 = EDGE_CURVE('',#53,#175,#177,.T.);
#175 = VERTEX_POINT('',#176);
#176 = CARTESIAN_POINT('',(20.,15.,0.));
#177 = SURFACE_CURVE('',#178,(#183,#210),.PCURVE_S1.);
#178 = CIRCLE('',#179,15.);
#179 = AXIS2_PLACEMENT_3D('',#180,#181,#182);
#180 = CARTESIAN_POINT('',(20.,0.,0.));
#181 = DIRECTION('',(-1.,-0.,-0.));
#182 = DIRECTION('',(0.,0.,-1.));
#183 = PCURVE('',#33,#184);
#184 = DEFINITIONAL_REPRESENTATION('',(#185),#209);
#185 = B_SPLINE_CURVE_WITH_KNOTS('',8,(#186,#187,#188,#189,#190,#191,
    #192,#193,#194,#195,#196,#197,#198,#199,#200,#201,#202,#203,#204,
    #205,#206,#207,#208),.UNSPECIFIED.,.F.,.F.,(9,7,7,9),(3.14159265359,
    3.534291735289,4.123340357837,4.712388980385),.UNSPECIFIED.);
#186 = CARTESIAN_POINT('',(0.,0.643501108793));
#187 = CARTESIAN_POINT('',(3.681553890926E-02,0.643501108793));
#188 = CARTESIAN_POINT('',(7.36310472956E-02,0.641435758395));
#189 = CARTESIAN_POINT('',(0.110159480411,0.637305083481));
#190 = CARTESIAN_POINT('',(0.146112995918,0.631137529015));
#191 = CARTESIAN_POINT('',(0.181225938655,0.622990346042));
#192 = CARTESIAN_POINT('',(0.215272487999,0.612944440556));
#193 = CARTESIAN_POINT('',(0.248075059377,0.601096974479));
#194 = CARTESIAN_POINT('',(0.326636289561,0.567242060807));
#195 = CARTESIAN_POINT('',(0.370672420932,0.543116503488));
#196 = CARTESIAN_POINT('',(0.411156036635,0.515539601173));
#197 = CARTESIAN_POINT('',(0.447859402441,0.484923389129));
#198 = CARTESIAN_POINT('',(0.480761244171,0.451680426356));
#199 = CARTESIAN_POINT('',(0.509935873057,0.416192075226));
#200 = CARTESIAN_POINT('',(0.535503478076,0.378807823414));
#201 = CARTESIAN_POINT('',(0.579683583749,0.300884676887));
#202 = CARTESIAN_POINT('',(0.59829607512,0.26034577934));
#203 = CARTESIAN_POINT('',(0.613560695077,0.21854831014));
#204 = CARTESIAN_POINT('',(0.625616485396,0.175780199149));
#205 = CARTESIAN_POINT('',(0.634578891521,0.132302392433));
#206 = CARTESIAN_POINT('',(0.640526988182,8.835728287727E-02));
#207 = CARTESIAN_POINT('',(0.643501108793,4.417864669111E-02));
#208 = CARTESIAN_POINT('',(0.643501108793,1.102182119233E-16));
#209 = ( GEOMETRIC_REPRESENTATION_CONTEXT(2) 
PARAMETRIC_REPRESENTATION_CONTEXT() REPRESENTATION_CONTEXT('2D SPACE',''
  ) );
#210 = PCURVE('',#110,#211);
#211 = DEFINITIONAL_REPRESENTATION('',(#212),#216);
#212 = LINE('',#213,#214);
#213 = CARTESIAN_POINT('',(-4.712388980385,-20.));
#214 = VECTOR('',#215,1.);
#215 = DIRECTION('',(1.,-0.));
#216 = ( GEOMETRIC_REPRESENTATION_CONTEXT(2) 
PARAMETRIC_REPRESENTATION_CONTEXT() REPRESENTATION_CONTEXT('2D SPACE',''
  ) );
#217 = ORIENTED_EDGE('',*,*,#218,.T.);
#218 = EDGE_CURVE('',#175,#24,#219,.T.);
#219 = SURFACE_CURVE('',#220,(#225,#252),.PCURVE_S1.);
#220 = CIRCLE('',#221,15.);
#221 = AXIS2_PLACEMENT_3D('',#222,#223,#224);
#222 = CARTESIAN_POINT('',(20.,0.,0.));
#223 = DIRECTION('',(-1.,-0.,-0.));
#224 = DIRECTION('',(0.,0.,-1.));
#225 = PCURVE('',#33,#226);
#226 = DEFINITIONAL_REPRESENTATION('',(#227),#251);
#227 = B_SPLINE_CURVE_WITH_KNOTS('',8,(#228,#229,#230,#231,#232,#233,
    #234,#235,#236,#237,#238,#239,#240,#241,#242,#243,#244,#245,#246,
    #247,#248,#249,#250),.UNSPECIFIED.,.F.,.F.,(9,7,7,9),(4.712388980385
    ,5.497787143782,5.890486225481,6.28318530718),.UNSPECIFIED.);
#228 = CARTESIAN_POINT('',(0.643501108793,1.102182119233E-16));
#229 = CARTESIAN_POINT('',(0.643501108793,-5.890486225481E-02));
#230 = CARTESIAN_POINT('',(0.638213784695,-0.117809736941));
#231 = CARTESIAN_POINT('',(0.627639443542,-0.176160826903));
#232 = CARTESIAN_POINT('',(0.61165077598,-0.233404943833));
#233 = CARTESIAN_POINT('',(0.5899984296,-0.288948725405));
#234 = CARTESIAN_POINT('',(0.56232751284,-0.342127101926));
#235 = CARTESIAN_POINT('',(0.528252367149,-0.392152060925));
#236 = CARTESIAN_POINT('',(0.467298180498,-0.461147515414));
#237 = CARTESIAN_POINT('',(0.445339869255,-0.48313900897));
#238 = CARTESIAN_POINT('',(0.421721584178,-0.504014178322));
#239 = CARTESIAN_POINT('',(0.396437971651,-0.523658393325));
#240 = CARTESIAN_POINT('',(0.369504955636,-0.541952673733));
#241 = CARTESIAN_POINT('',(0.340970495459,-0.5587765844));
#242 = CARTESIAN_POINT('',(0.310924043524,-0.574013043541));
#243 = CARTESIAN_POINT('',(0.248075059377,-0.601096974479));
#244 = CARTESIAN_POINT('',(0.215272487999,-0.612944440556));
#245 = CARTESIAN_POINT('',(0.181225938655,-0.622990346042));
#246 = CARTESIAN_POINT('',(0.146112995918,-0.631137529015));
#247 = CARTESIAN_POINT('',(0.110159480411,-0.637305083481));
#248 = CARTESIAN_POINT('',(7.363104729563E-02,-0.641435758395));
#249 = CARTESIAN_POINT('',(3.681553890926E-02,-0.643501108793));
#250 = CARTESIAN_POINT('',(1.836970198721E-16,-0.643501108793));
#251 = ( GEOMETRIC_REPRESENTATION_CONTEXT(2) 
PARAMETRIC_REPRESENTATION_CONTEXT() REPRESENTATION_CONTEXT('2D SPACE',''
  ) );
#252 = PCURVE('',#110,#253);
#253 = DEFINITIONAL_REPRESENTATION('',(#254),#258);
#254 = LINE('',#255,#256);
#255 = CARTESIAN_POINT('',(-10.99557428756,-20.));
#256 = VECTOR('',#257,1.);
#257 = DIRECTION('',(1.,-0.));
#258 = ( GEOMETRIC_REPRESENTATION_CONTEXT(2) 
PARAMETRIC_REPRESENTATION_CONTEXT() REPRESENTATION_CONTEXT('2D SPACE',''
  ) );
#259 = ORIENTED_EDGE('',*,*,#21,.F.);
#260 = FACE_BOUND('',#261,.T.);
#261 = EDGE_LOOP('',(#262));
#262 = ORIENTED_EDGE('',*,*,#263,.T.);
#263 = EDGE_CURVE('',#264,#264,#266,.T.);
#264 = VERTEX_POINT('',#265);
#265 = CARTESIAN_POINT('',(15.,-20.,0.));
#266 = SURFACE_CURVE('',#267,(#272,#355),.PCURVE_S1.);
#267 = CIRCLE('',#268,15.);
#268 = AXIS2_PLACEMENT_3D('',#269,#270,#271);
#269 = CARTESIAN_POINT('',(0.,-20.,0.));
#270 = DIRECTION('',(-0.,1.,0.));
#271 = DIRECTION('',(0.,0.,1.));
#272 = PCURVE('',#33,#273);
#273 = DEFINITIONAL_REPRESENTATION('',(#274),#354);
#274 = B_SPLINE_CURVE_WITH_KNOTS('',8,(#275,#276,#277,#278,#279,#280,
    #281,#282,#283,#284,#285,#286,#287,#288,#289,#290,#291,#292,#293,
    #294,#295,#296,#297,#298,#299,#300,#301,#302,#303,#304,#305,#306,
    #307,#308,#309,#310,#311,#312,#313,#314,#315,#316,#317,#318,#319,
    #320,#321,#322,#323,#324,#325,#326,#327,#328,#329,#330,#331,#332,
    #333,#334,#335,#336,#337,#338,#339,#340,#341,#342,#343,#344,#345,
    #346,#347,#348,#349,#350,#351,#352,#353),.UNSPECIFIED.,.F.,.F.,(9,7,
    7,7,7,7,7,7,7,7,7,9),(1.570796326795,2.356194490192,2.699806186679,
    3.021942152135,3.625947087365,4.154451405691,5.079333962762,
    5.772995880565,6.293242318917,6.683427147682,7.268704390828,
    7.853981633974),.UNSPECIFIED.);
#275 = CARTESIAN_POINT('',(5.355890089178,3.673940397442E-17));
#276 = CARTESIAN_POINT('',(5.355890089178,-5.890486225481E-02));
#277 = CARTESIAN_POINT('',(5.350602765078,-0.117809736942));
#278 = CARTESIAN_POINT('',(5.340028423916,-0.176160826901));
#279 = CARTESIAN_POINT('',(5.324039756364,-0.233404943835));
#280 = CARTESIAN_POINT('',(5.302387409967,-0.288948725403));
#281 = CARTESIAN_POINT('',(5.274716493226,-0.342127101926));
#282 = CARTESIAN_POINT('',(5.240641347534,-0.392152060925));
#283 = CARTESIAN_POINT('',(5.18222691866,-0.45827270481));
#284 = CARTESIAN_POINT('',(5.163192794743,-0.477625399726));
#285 = CARTESIAN_POINT('',(5.142889657356,-0.496133879285));
#286 = CARTESIAN_POINT('',(5.121312677695,-0.513721777527));
#287 = CARTESIAN_POINT('',(5.098469057156,-0.530310135777));
#288 = CARTESIAN_POINT('',(5.074383230724,-0.545818734691));
#289 = CARTESIAN_POINT('',(5.049101780947,-0.560168288713));
#290 = CARTESIAN_POINT('',(4.997941035173,-0.5855791472));
#291 = CARTESIAN_POINT('',(4.972197842284,-0.596789892924));
#292 = CARTESIAN_POINT('',(4.945525656642,-0.606853913064));
#293 = CARTESIAN_POINT('',(4.918002419421,-0.615712156757));
#294 = CARTESIAN_POINT('',(4.889727489093,-0.623311105316));
#295 = CARTESIAN_POINT('',(4.860821099434,-0.629605217821));
#296 = CARTESIAN_POINT('',(4.831420798842,-0.634559133857));
#297 = CARTESIAN_POINT('',(4.745901256236,-0.644881820124));
#298 = CARTESIAN_POINT('',(4.688912483437,-0.646820631312));
#299 = CARTESIAN_POINT('',(4.631686417606,-0.643812675094));
#300 = CARTESIAN_POINT('',(4.575330860836,-0.635849219145));
#301 = CARTESIAN_POINT('',(4.520950331282,-0.623105533648));
#302 = CARTESIAN_POINT('',(4.469352101723,-0.605909879472));
#303 = CARTESIAN_POINT('',(4.421067035162,-0.584655690313));
#304 = CARTESIAN_POINT('',(4.337320473385,-0.537982020603));
#305 = CARTESIAN_POINT('',(4.30101048085,-0.513415270289));
#306 = CARTESIAN_POINT('',(4.267678020527,-0.486343973382));
#307 = CARTESIAN_POINT('',(4.237397884466,-0.457063965967));
#308 = CARTESIAN_POINT('',(4.210144083276,-0.425861350911));
#309 = CARTESIAN_POINT('',(4.185844241487,-0.393001082658));
#310 = CARTESIAN_POINT('',(4.164405247523,-0.358726965868));
#311 = CARTESIAN_POINT('',(4.113054836159,-0.261202120523));
#312 = CARTESIAN_POINT('',(4.088848509843,-0.195498081798));
#313 = CARTESIAN_POINT('',(4.072605472464,-0.127354431881));
#314 = CARTESIAN_POINT('',(4.063799215852,-5.779090824387E-02));
#315 = CARTESIAN_POINT('',(4.062181302905,1.230911309949E-02));
#316 = CARTESIAN_POINT('',(4.067736789028,8.209233668723E-02));
#317 = CARTESIAN_POINT('',(4.080739208989,0.150654664686));
#318 = CARTESIAN_POINT('',(4.117272718502,0.266684328717));
#319 = CARTESIAN_POINT('',(4.137359056794,0.315140279389));
#320 = CARTESIAN_POINT('',(4.162054015131,0.361887266582));
#321 = CARTESIAN_POINT('',(4.191588770329,0.406444863135));
#322 = CARTESIAN_POINT('',(4.226201472558,0.448274863136));
#323 = CARTESIAN_POINT('',(4.266101947039,0.4867645164));
#324 = CARTESIAN_POINT('',(4.311268339684,0.521240570873));
#325 = CARTESIAN_POINT('',(4.398833233443,0.573425803925));
#326 = CARTESIAN_POINT('',(4.439100830598,0.593171945215));
#327 = CARTESIAN_POINT('',(4.48194191648,0.610027977649));
#328 = CARTESIAN_POINT('',(4.527072184457,0.623732590696));
#329 = CARTESIAN_POINT('',(4.57406305127,0.634053113071));
#330 = CARTESIAN_POINT('',(4.622318297974,0.640819779837));
#331 = CARTESIAN_POINT('',(4.671163606398,0.6439536703));
#332 = CARTESIAN_POINT('',(4.756507365963,0.643095313755));
#333 = CARTESIAN_POINT('',(4.793039665125,0.640688736125));
#334 = CARTESIAN_POINT('',(4.829246928555,0.636247052168));
#335 = CARTESIAN_POINT('',(4.864849014055,0.629801564068));
#336 = CARTESIAN_POINT('',(4.899589311174,0.6214112736));
#337 = CARTESIAN_POINT('',(4.933251082275,0.611157670455));
#338 = CARTESIAN_POINT('',(4.965664744165,0.599137498534));
#339 = CARTESIAN_POINT('',(5.043260198118,0.564935480979));
#340 = CARTESIAN_POINT('',(5.086722708569,0.540677853962));
#341 = CARTESIAN_POINT('',(5.12666121091,0.513041262868));
#342 = CARTESIAN_POINT('',(5.162864011243,0.482430234688));
#343 = CARTESIAN_POINT('',(5.195316317131,0.449248187945));
#344 = CARTESIAN_POINT('',(5.224093976114,0.413867890391));
#345 = CARTESIAN_POINT('',(5.249316097333,0.37663092327));
#346 = CARTESIAN_POINT('',(5.29290384858,0.299066746694));
#347 = CARTESIAN_POINT('',(5.31126947037,0.258739534412));
#348 = CARTESIAN_POINT('',(5.326334345132,0.217178908591));
#349 = CARTESIAN_POINT('',(5.338234252229,0.174666619672));
#350 = CARTESIAN_POINT('',(5.347081752234,0.131458287838));
#351 = CARTESIAN_POINT('',(5.352953930931,8.779157656759E-02));
#352 = CARTESIAN_POINT('',(5.355890089178,4.389579323598E-02));
#353 = CARTESIAN_POINT('',(5.355890089178,1.836970198721E-16));
#354 = ( GEOMETRIC_REPRESENTATION_CONTEXT(2) 
PARAMETRIC_REPRESENTATION_CONTEXT() REPRESENTATION_CONTEXT('2D SPACE',''
  ) );
#355 = PCURVE('',#356,#361);
#356 = CYLINDRICAL_SURFACE('',#357,15.);
#357 = AXIS2_PLACEMENT_3D('',#358,#359,#360);
#358 = CARTESIAN_POINT('',(0.,0.,0.));
#359 = DIRECTION('',(-0.,1.,-0.));
#360 = DIRECTION('',(1.,0.,0.));
#361 = DEFINITIONAL_REPRESENTATION('',(#362),#366);
#362 = LINE('',#363,#364);
#363 = CARTESIAN_POINT('',(-7.853981633974,-20.));
#364 = VECTOR('',#365,1.);
#365 = DIRECTION('',(1.,-0.));
#366 = ( GEOMETRIC_REPRESENTATION_CONTEXT(2) 
PARAMETRIC_REPRESENTATION_CONTEXT() REPRESENTATION_CONTEXT('2D SPACE',''
  ) );
#367 = FACE_BOUND('',#368,.T.);
#368 = EDGE_LOOP('',(#369));
#369 = ORIENTED_EDGE('',*,*,#370,.T.);
#370 = EDGE_CURVE('',#371,#371,#373,.T.);
#371 = VERTEX_POINT('',#372);
#372 = CARTESIAN_POINT('',(15.,20.,0.));
#373 = SURFACE_CURVE('',#374,(#379,#462),.PCURVE_S1.);
#374 = CIRCLE('',#375,15.);
#375 = AXIS2_PLACEMENT_3D('',#376,#377,#378);
#376 = CARTESIAN_POINT('',(0.,20.,0.));
#377 = DIRECTION('',(0.,-1.,0.));
#378 = DIRECTION('',(0.,-0.,-1.));
#379 = PCURVE('',#33,#380);
#380 = DEFINITIONAL_REPRESENTATION('',(#381),#461);
#381 = B_SPLINE_CURVE_WITH_KNOTS('',8,(#382,#383,#384,#385,#386,#387,
    #388,#389,#390,#391,#392,#393,#394,#395,#396,#397,#398,#399,#400,
    #401,#402,#403,#404,#405,#406,#407,#408,#409,#410,#411,#412,#413,
    #414,#415,#416,#417,#418,#419,#420,#421,#422,#423,#424,#425,#426,
    #427,#428,#429,#430,#431,#432,#433,#434,#435,#436,#437,#438,#439,
    #440,#441,#442,#443,#444,#445,#446,#447,#448,#449,#450,#451,#452,
    #453,#454,#455,#456,#457,#458,#459,#460),.UNSPECIFIED.,.F.,.F.,(9,7,
    7,7,7,7,7,7,7,7,7,9),(1.570796326795,2.356194490192,2.699806186679,
    3.021942152135,3.625947087365,4.154451405691,5.079333962762,
    5.772995880565,6.293242318917,6.683427147682,7.268704390828,
    7.853981633974),.UNSPECIFIED.);
#382 = CARTESIAN_POINT('',(0.927295218002,-1.699661669294E-16));
#383 = CARTESIAN_POINT('',(0.927295218002,5.890486225481E-02));
#384 = CARTESIAN_POINT('',(0.9325825421,0.117809736942));
#385 = CARTESIAN_POINT('',(0.943156883252,0.176160826902));
#386 = CARTESIAN_POINT('',(0.959145550811,0.233404943835));
#387 = CARTESIAN_POINT('',(0.980797897196,0.288948725404));
#388 = CARTESIAN_POINT('',(1.008468813954,0.342127101926));
#389 = CARTESIAN_POINT('',(1.042543959645,0.392152060925));
#390 = CARTESIAN_POINT('',(1.10095838852,0.45827270481));
#391 = CARTESIAN_POINT('',(1.119992512437,0.477625399726));
#392 = CARTESIAN_POINT('',(1.140295649825,0.496133879285));
#393 = CARTESIAN_POINT('',(1.161872629485,0.513721777527));
#394 = CARTESIAN_POINT('',(1.184716250022,0.530310135777));
#395 = CARTESIAN_POINT('',(1.208802076456,0.545818734691));
#396 = CARTESIAN_POINT('',(1.234083526232,0.560168288713));
#397 = CARTESIAN_POINT('',(1.285244272006,0.5855791472));
#398 = CARTESIAN_POINT('',(1.310987464895,0.596789892924));
#399 = CARTESIAN_POINT('',(1.337659650538,0.606853913064));
#400 = CARTESIAN_POINT('',(1.365182887759,0.615712156757));
#401 = CARTESIAN_POINT('',(1.393457818086,0.623311105316));
#402 = CARTESIAN_POINT('',(1.422364207746,0.629605217821));
#403 = CARTESIAN_POINT('',(1.451764508338,0.634559133857));
#404 = CARTESIAN_POINT('',(1.537284050944,0.644881820124));
#405 = CARTESIAN_POINT('',(1.594272823733,0.646820631312));
#406 = CARTESIAN_POINT('',(1.651498889579,0.643812675094));
#407 = CARTESIAN_POINT('',(1.707854446318,0.635849219145));
#408 = CARTESIAN_POINT('',(1.762234975897,0.623105533648));
#409 = CARTESIAN_POINT('',(1.813833205451,0.605909879472));
#410 = CARTESIAN_POINT('',(1.862118272017,0.584655690313));
#411 = CARTESIAN_POINT('',(1.945864833794,0.537982020603));
#412 = CARTESIAN_POINT('',(1.982174826317,0.513415270289));
#413 = CARTESIAN_POINT('',(2.015507286682,0.486343973382));
#414 = CARTESIAN_POINT('',(2.045787422658,0.457063965967));
#415 = CARTESIAN_POINT('',(2.073041223931,0.425861350911));
#416 = CARTESIAN_POINT('',(2.097341065682,0.393001082658));
#417 = CARTESIAN_POINT('',(2.118780059657,0.358726965868));
#418 = CARTESIAN_POINT('',(2.17013047102,0.261202120523));
#419 = CARTESIAN_POINT('',(2.19433679733,0.195498081798));
#420 = CARTESIAN_POINT('',(2.210579834728,0.127354431881));
#421 = CARTESIAN_POINT('',(2.219386091288,5.779090824387E-02));
#422 = CARTESIAN_POINT('',(2.221004004288,-1.230911309949E-02));
#423 = CARTESIAN_POINT('',(2.215448518146,-8.209233668723E-02));
#424 = CARTESIAN_POINT('',(2.202446098191,-0.150654664686));
#425 = CARTESIAN_POINT('',(2.165912588678,-0.266684328717));
#426 = CARTESIAN_POINT('',(2.145826250377,-0.315140279389));
#427 = CARTESIAN_POINT('',(2.12113129206,-0.361887266582));
#428 = CARTESIAN_POINT('',(2.09159653682,-0.406444863135));
#429 = CARTESIAN_POINT('',(2.056983834625,-0.448274863136));
#430 = CARTESIAN_POINT('',(2.017083360133,-0.4867645164));
#431 = CARTESIAN_POINT('',(1.971916967496,-0.521240570873));
#432 = CARTESIAN_POINT('',(1.884352073736,-0.573425803925));
#433 = CARTESIAN_POINT('',(1.844084476585,-0.593171945215));
#434 = CARTESIAN_POINT('',(1.801243390673,-0.610027977649));
#435 = CARTESIAN_POINT('',(1.756113122732,-0.623732590696));
#436 = CARTESIAN_POINT('',(1.709122255886,-0.634053113071));
#437 = CARTESIAN_POINT('',(1.66086700921,-0.640819779837));
#438 = CARTESIAN_POINT('',(1.612021700782,-0.6439536703));
#439 = CARTESIAN_POINT('',(1.526677941216,-0.643095313755));
#440 = CARTESIAN_POINT('',(1.490145642054,-0.640688736125));
#441 = CARTESIAN_POINT('',(1.453938378625,-0.636247052168));
#442 = CARTESIAN_POINT('',(1.418336293125,-0.629801564068));
#443 = CARTESIAN_POINT('',(1.383595996006,-0.6214112736));
#444 = CARTESIAN_POINT('',(1.349934224904,-0.611157670455));
#445 = CARTESIAN_POINT('',(1.317520563014,-0.599137498534));
#446 = CARTESIAN_POINT('',(1.239925109061,-0.564935480979));
#447 = CARTESIAN_POINT('',(1.196462598609,-0.540677853962));
#448 = CARTESIAN_POINT('',(1.156524096271,-0.513041262868));
#449 = CARTESIAN_POINT('',(1.120321295931,-0.482430234688));
#450 = CARTESIAN_POINT('',(1.087868990045,-0.449248187945));
#451 = CARTESIAN_POINT('',(1.059091331065,-0.413867890391));
#452 = CARTESIAN_POINT('',(1.033869209847,-0.37663092327));
#453 = CARTESIAN_POINT('',(0.990281458599,-0.299066746694));
#454 = CARTESIAN_POINT('',(0.97191583681,-0.258739534412));
#455 = CARTESIAN_POINT('',(0.95685096205,-0.217178908591));
#456 = CARTESIAN_POINT('',(0.944951054952,-0.174666619672));
#457 = CARTESIAN_POINT('',(0.936103554944,-0.131458287838));
#458 = CARTESIAN_POINT('',(0.930231376249,-8.779157656759E-02));
#459 = CARTESIAN_POINT('',(0.927295218002,-4.389579323598E-02));
#460 = CARTESIAN_POINT('',(0.927295218002,-1.836970198721E-16));
#461 = ( GEOMETRIC_REPRESENTATION_CONTEXT(2) 
PARAMETRIC_REPRESENTATION_CONTEXT() REPRESENTATION_CONTEXT('2D SPACE',''
  ) );
#462 = PCURVE('',#463,#468);
#463 = CYLINDRICAL_SURFACE('',#464,15.);
#464 = AXIS2_PLACEMENT_3D('',#465,#466,#467);
#465 = CARTESIAN_POINT('',(0.,0.,0.));
#466 = DIRECTION('',(0.,-1.,0.));
#467 = DIRECTION('',(1.,0.,0.));
#468 = DEFINITIONAL_REPRESENTATION('',(#469),#473);
#469 = LINE('',#470,#471);
#470 = CARTESIAN_POINT('',(-1.570796326795,-20.));
#471 = VECTOR('',#472,1.);
#472 = DIRECTION('',(1.,0.));
#473 = ( GEOMETRIC_REPRESENTATION_CONTEXT(2) 
PARAMETRIC_REPRESENTATION_CONTEXT() REPRESENTATION_CONTEXT('2D SPACE',''
  ) );
#474 = FACE_BOUND('',#475,.T.);
#475 = EDGE_LOOP('',(#476));
#476 = ORIENTED_EDGE('',*,*,#477,.T.);
#477 = EDGE_CURVE('',#478,#478,#480,.T.);
#478 = VERTEX_POINT('',#479);
#479 = CARTESIAN_POINT('',(-20.,15.,0.));
#480 = SURFACE_CURVE('',#481,(#486,#569),.PCURVE_S1.);
#481 = CIRCLE('',#482,15.);
#482 = AXIS2_PLACEMENT_3D('',#483,#484,#485);
#483 = CARTESIAN_POINT('',(-20.,0.,0.));
#484 = DIRECTION('',(1.,0.,0.));
#485 = DIRECTION('',(-0.,0.,1.));
#486 = PCURVE('',#33,#487);
#487 = DEFINITIONAL_REPRESENTATION('',(#488),#568);
#488 = B_SPLINE_CURVE_WITH_KNOTS('',8,(#489,#490,#491,#492,#493,#494,
    #495,#496,#497,#498,#499,#500,#501,#502,#503,#504,#505,#506,#507,
    #508,#509,#510,#511,#512,#513,#514,#515,#516,#517,#518,#519,#520,
    #521,#522,#523,#524,#525,#526,#527,#528,#529,#530,#531,#532,#533,
    #534,#535,#536,#537,#538,#539,#540,#541,#542,#543,#544,#545,#546,
    #547,#548,#549,#550,#551,#552,#553,#554,#555,#556,#557,#558,#559,
    #560,#561,#562,#563,#564,#565,#566,#567),.UNSPECIFIED.,.F.,.F.,(9,7,
    7,7,7,7,7,7,7,7,7,9),(4.712388980385,5.497787143782,5.841398840268,
    6.163534805724,6.767539740954,7.296044059281,8.220926616352,
    8.914588534155,9.434834972507,9.825019801271,10.410297044418,
    10.995574287564),.UNSPECIFIED.);
#489 = CARTESIAN_POINT('',(2.498091544797,-1.102182119233E-16));
#490 = CARTESIAN_POINT('',(2.498091544797,5.890486225481E-02));
#491 = CARTESIAN_POINT('',(2.503378868893,0.117809736941));
#492 = CARTESIAN_POINT('',(2.513953210043,0.176160826903));
#493 = CARTESIAN_POINT('',(2.529941877605,0.233404943833));
#494 = CARTESIAN_POINT('',(2.551594223987,0.288948725405));
#495 = CARTESIAN_POINT('',(2.57926514075,0.342127101926));
#496 = CARTESIAN_POINT('',(2.61334028644,0.392152060925));
#497 = CARTESIAN_POINT('',(2.671754715315,0.45827270481));
#498 = CARTESIAN_POINT('',(2.690788839232,0.477625399726));
#499 = CARTESIAN_POINT('',(2.71109197662,0.496133879286));
#500 = CARTESIAN_POINT('',(2.73266895628,0.513721777527));
#501 = CARTESIAN_POINT('',(2.755512576818,0.530310135777));
#502 = CARTESIAN_POINT('',(2.779598403251,0.545818734691));
#503 = CARTESIAN_POINT('',(2.804879853027,0.560168288713));
#504 = CARTESIAN_POINT('',(2.856040598801,0.5855791472));
#505 = CARTESIAN_POINT('',(2.88178379169,0.596789892924));
#506 = CARTESIAN_POINT('',(2.908455977332,0.606853913064));
#507 = CARTESIAN_POINT('',(2.935979214553,0.615712156757));
#508 = CARTESIAN_POINT('',(2.964254144881,0.623311105316));
#509 = CARTESIAN_POINT('',(2.993160534541,0.629605217821));
#510 = CARTESIAN_POINT('',(3.022560835132,0.634559133857));
#511 = CARTESIAN_POINT('',(3.108080377739,0.644881820124));
#512 = CARTESIAN_POINT('',(3.165069150523,0.646820631313));
#513 = CARTESIAN_POINT('',(3.222295216392,0.643812675091));
#514 = CARTESIAN_POINT('',(3.2786507731,0.635849219149));
#515 = CARTESIAN_POINT('',(3.333031302716,0.623105533648));
#516 = CARTESIAN_POINT('',(3.384629532238,0.605909879473));
#517 = CARTESIAN_POINT('',(3.432914598812,0.584655690313));
#518 = CARTESIAN_POINT('',(3.516661160589,0.537982020603));
#519 = CARTESIAN_POINT('',(3.552971153112,0.513415270289));
#520 = CARTESIAN_POINT('',(3.586303613472,0.486343973383));
#521 = CARTESIAN_POINT('',(3.616583749463,0.457063965966));
#522 = CARTESIAN_POINT('',(3.643837550715,0.425861350911));
#523 = CARTESIAN_POINT('',(3.668137392478,0.393001082657));
#524 = CARTESIAN_POINT('',(3.689576386451,0.358726965868));
#525 = CARTESIAN_POINT('',(3.740926797815,0.261202120523));
#526 = CARTESIAN_POINT('',(3.765133124124,0.195498081798));
#527 = CARTESIAN_POINT('',(3.78137616152,0.127354431881));
#528 = CARTESIAN_POINT('',(3.790182418077,5.779090824429E-02));
#529 = CARTESIAN_POINT('',(3.791800331079,-1.230911309959E-02));
#530 = CARTESIAN_POINT('',(3.786244844939,-8.20923366872E-02));
#531 = CARTESIAN_POINT('',(3.773242424986,-0.150654664686));
#532 = CARTESIAN_POINT('',(3.736708915472,-0.266684328717));
#533 = CARTESIAN_POINT('',(3.716622577177,-0.315140279389));
#534 = CARTESIAN_POINT('',(3.691927618833,-0.36188726658));
#535 = CARTESIAN_POINT('',(3.662392863618,-0.406444863135));
#536 = CARTESIAN_POINT('',(3.6277801614,-0.448274863134));
#537 = CARTESIAN_POINT('',(3.587879686934,-0.4867645164));
#538 = CARTESIAN_POINT('',(3.542713294291,-0.521240570873));
#539 = CARTESIAN_POINT('',(3.455148400531,-0.573425803925));
#540 = CARTESIAN_POINT('',(3.414880803378,-0.593171945215));
#541 = CARTESIAN_POINT('',(3.372039717467,-0.610027977648));
#542 = CARTESIAN_POINT('',(3.326909449514,-0.623732590697));
#543 = CARTESIAN_POINT('',(3.279918582679,-0.63405311307));
#544 = CARTESIAN_POINT('',(3.231663336,-0.640819779837));
#545 = CARTESIAN_POINT('',(3.182818027577,-0.6439536703));
#546 = CARTESIAN_POINT('',(3.097474268011,-0.643095313755));
#547 = CARTESIAN_POINT('',(3.060941968849,-0.640688736125));
#548 = CARTESIAN_POINT('',(3.02473470542,-0.636247052168));
#549 = CARTESIAN_POINT('',(2.989132619919,-0.629801564068));
#550 = CARTESIAN_POINT('',(2.954392322801,-0.6214112736));
#551 = CARTESIAN_POINT('',(2.920730551699,-0.611157670455));
#552 = CARTESIAN_POINT('',(2.888316889809,-0.599137498534));
#553 = CARTESIAN_POINT('',(2.810721435856,-0.564935480979));
#554 = CARTESIAN_POINT('',(2.767258925402,-0.540677853962));
#555 = CARTESIAN_POINT('',(2.727320423077,-0.513041262869));
#556 = CARTESIAN_POINT('',(2.691117622713,-0.482430234685));
#557 = CARTESIAN_POINT('',(2.658665316849,-0.449248187947));
#558 = CARTESIAN_POINT('',(2.629887657857,-0.41386789039));
#559 = CARTESIAN_POINT('',(2.604665536642,-0.37663092327));
#560 = CARTESIAN_POINT('',(2.561077785394,-0.299066746694));
#561 = CARTESIAN_POINT('',(2.542712163605,-0.258739534412));
#562 = CARTESIAN_POINT('',(2.527647288844,-0.217178908591));
#563 = CARTESIAN_POINT('',(2.515747381747,-0.174666619672));
#564 = CARTESIAN_POINT('',(2.50689988174,-0.131458287838));
#565 = CARTESIAN_POINT('',(2.501027703044,-8.77915765676E-02));
#566 = CARTESIAN_POINT('',(2.498091544797,-4.389579323598E-02));
#567 = CARTESIAN_POINT('',(2.498091544797,-2.571758278209E-16));
#568 = ( GEOMETRIC_REPRESENTATION_CONTEXT(2) 
PARAMETRIC_REPRESENTATION_CONTEXT() REPRESENTATION_CONTEXT('2D SPACE',''
  ) );
#569 = PCURVE('',#570,#575);
#570 = CYLINDRICAL_SURFACE('',#571,15.);
#571 = AXIS2_PLACEMENT_3D('',#572,#573,#574);
#572 = CARTESIAN_POINT('',(0.,0.,0.));
#573 = DIRECTION('',(1.,0.,0.));
#574 = DIRECTION('',(0.,1.,0.));
#575 = DEFINITIONAL_REPRESENTATION('',(#576),#580);
#576 = LINE('',#577,#578);
#577 = CARTESIAN_POINT('',(-4.712388980385,-20.));
#578 = VECTOR('',#579,1.);
#579 = DIRECTION('',(1.,0.));
#580 = ( GEOMETRIC_REPRESENTATION_CONTEXT(2) 
PARAMETRIC_REPRESENTATION_CONTEXT() REPRESENTATION_CONTEXT('2D SPACE',''
  ) );
#581 = ADVANCED_FACE('',(#582),#110,.T.);
#582 = FACE_BOUND('',#583,.F.);
#583 = EDGE_LOOP('',(#584,#585,#608,#635,#636,#637));
#584 = ORIENTED_EDGE('',*,*,#174,.T.);
#585 = ORIENTED_EDGE('',*,*,#586,.T.);
#586 = EDGE_CURVE('',#175,#587,#589,.T.);
#587 = VERTEX_POINT('',#588);
#588 = CARTESIAN_POINT('',(45.,15.,0.));
#589 = SEAM_CURVE('',#590,(#594,#601),.PCURVE_S1.);
#590 = LINE('',#591,#592);
#591 = CARTESIAN_POINT('',(0.,15.,0.));
#592 = VECTOR('',#593,1.);
#593 = DIRECTION('',(1.,0.,0.));
#594 = PCURVE('',#110,#595);
#595 = DEFINITIONAL_REPRESENTATION('',(#596),#600);
#596 = LINE('',#597,#598);
#597 = CARTESIAN_POINT('',(-6.28318530718,0.));
#598 = VECTOR('',#599,1.);
#599 = DIRECTION('',(-0.,-1.));
#600 = ( GEOMETRIC_REPRESENTATION_CONTEXT(2) 
PARAMETRIC_REPRESENTATION_CONTEXT() REPRESENTATION_CONTEXT('2D SPACE',''
  ) );
#601 = PCURVE('',#110,#602);
#602 = DEFINITIONAL_REPRESENTATION('',(#603),#607);
#603 = LINE('',#604,#605);
#604 = CARTESIAN_POINT('',(-0.,0.));
#605 = VECTOR('',#606,1.);
#606 = DIRECTION('',(-0.,-1.));
#607 = ( GEOMETRIC_REPRESENTATION_CONTEXT(2) 
PARAMETRIC_REPRESENTATION_CONTEXT() REPRESENTATION_CONTEXT('2D SPACE',''
  ) );
#608 = ORIENTED_EDGE('',*,*,#609,.T.);
#609 = EDGE_CURVE('',#587,#587,#610,.T.);
#610 = SURFACE_CURVE('',#611,(#616,#623),.PCURVE_S1.);
#611 = CIRCLE('',#612,15.);
#612 = AXIS2_PLACEMENT_3D('',#613,#614,#615);
#613 = CARTESIAN_POINT('',(45.,0.,0.));
#614 = DIRECTION('',(1.,0.,0.));
#615 = DIRECTION('',(0.,1.,0.));
#616 = PCURVE('',#110,#617);
#617 = DEFINITIONAL_REPRESENTATION('',(#618),#622);
#618 = LINE('',#619,#620);
#619 = CARTESIAN_POINT('',(-0.,-45.));
#620 = VECTOR('',#621,1.);
#621 = DIRECTION('',(-1.,0.));
#622 = ( GEOMETRIC_REPRESENTATION_CONTEXT(2) 
PARAMETRIC_REPRESENTATION_CONTEXT() REPRESENTATION_CONTEXT('2D SPACE',''
  ) );
#623 = PCURVE('',#624,#629);
#624 = PLANE('',#625);
#625 = AXIS2_PLACEMENT_3D('',#626,#627,#628);
#626 = CARTESIAN_POINT('',(45.,-7.29301404021E-16,1.169780044473E-16));
#627 = DIRECTION('',(1.,0.,0.));
#628 = DIRECTION('',(-0.,0.,1.));
#629 = DEFINITIONAL_REPRESENTATION('',(#630),#634);
#630 = CIRCLE('',#631,15.);
#631 = AXIS2_PLACEMENT_2D('',#632,#633);
#632 = CARTESIAN_POINT('',(-1.169780044473E-16,-7.29301404021E-16));
#633 = DIRECTION('',(0.,-1.));
#634 = ( GEOMETRIC_REPRESENTATION_CONTEXT(2) 
PARAMETRIC_REPRESENTATION_CONTEXT() REPRESENTATION_CONTEXT('2D SPACE',''
  ) );
#635 = ORIENTED_EDGE('',*,*,#586,.F.);
#636 = ORIENTED_EDGE('',*,*,#218,.T.);
#637 = ORIENTED_EDGE('',*,*,#52,.T.);
#638 = ADVANCED_FACE('',(#639),#161,.T.);
#639 = FACE_BOUND('',#640,.T.);
#640 = EDGE_LOOP('',(#641));
#641 = ORIENTED_EDGE('',*,*,#146,.T.);
#642 = ADVANCED_FACE('',(#643),#356,.T.);
#643 = FACE_BOUND('',#644,.F.);
#644 = EDGE_LOOP('',(#645,#646,#669,#696));
#645 = ORIENTED_EDGE('',*,*,#263,.T.);
#646 = ORIENTED_EDGE('',*,*,#647,.T.);
#647 = EDGE_CURVE('',#264,#648,#650,.T.);
#648 = VERTEX_POINT('',#649);
#649 = CARTESIAN_POINT('',(15.,-45.,0.));
#650 = SEAM_CURVE('',#651,(#655,#662),.PCURVE_S1.);
#651 = LINE('',#652,#653);
#652 = CARTESIAN_POINT('',(15.,0.,0.));
#653 = VECTOR('',#654,1.);
#654 = DIRECTION('',(0.,-1.,0.));
#655 = PCURVE('',#356,#656);
#656 = DEFINITIONAL_REPRESENTATION('',(#657),#661);
#657 = LINE('',#658,#659);
#658 = CARTESIAN_POINT('',(-6.28318530718,0.));
#659 = VECTOR('',#660,1.);
#660 = DIRECTION('',(-0.,-1.));
#661 = ( GEOMETRIC_REPRESENTATION_CONTEXT(2) 
PARAMETRIC_REPRESENTATION_CONTEXT() REPRESENTATION_CONTEXT('2D SPACE',''
  ) );
#662 = PCURVE('',#356,#663);
#663 = DEFINITIONAL_REPRESENTATION('',(#664),#668);
#664 = LINE('',#665,#666);
#665 = CARTESIAN_POINT('',(-0.,0.));
#666 = VECTOR('',#667,1.);
#667 = DIRECTION('',(-0.,-1.));
#668 = ( GEOMETRIC_REPRESENTATION_CONTEXT(2) 
PARAMETRIC_REPRESENTATION_CONTEXT() REPRESENTATION_CONTEXT('2D SPACE',''
  ) );
#669 = ORIENTED_EDGE('',*,*,#670,.T.);
#670 = EDGE_CURVE('',#648,#648,#671,.T.);
#671 = SURFACE_CURVE('',#672,(#677,#684),.PCURVE_S1.);
#672 = CIRCLE('',#673,15.);
#673 = AXIS2_PLACEMENT_3D('',#674,#675,#676);
#674 = CARTESIAN_POINT('',(0.,-45.,0.));
#675 = DIRECTION('',(0.,-1.,0.));
#676 = DIRECTION('',(1.,0.,0.));
#677 = PCURVE('',#356,#678);
#678 = DEFINITIONAL_REPRESENTATION('',(#679),#683);
#679 = LINE('',#680,#681);
#680 = CARTESIAN_POINT('',(-0.,-45.));
#681 = VECTOR('',#682,1.);
#682 = DIRECTION('',(-1.,0.));
#683 = ( GEOMETRIC_REPRESENTATION_CONTEXT(2) 
PARAMETRIC_REPRESENTATION_CONTEXT() REPRESENTATION_CONTEXT('2D SPACE',''
  ) );
#684 = PCURVE('',#685,#690);
#685 = PLANE('',#686);
#686 = AXIS2_PLACEMENT_3D('',#687,#688,#689);
#687 = CARTESIAN_POINT('',(-7.29301404021E-16,-45.,1.169780044473E-16));
#688 = DIRECTION('',(-0.,-1.,-0.));
#689 = DIRECTION('',(0.,0.,-1.));
#690 = DEFINITIONAL_REPRESENTATION('',(#691),#695);
#691 = CIRCLE('',#692,15.);
#692 = AXIS2_PLACEMENT_2D('',#693,#694);
#693 = CARTESIAN_POINT('',(1.169780044473E-16,7.29301404021E-16));
#694 = DIRECTION('',(0.,1.));
#695 = ( GEOMETRIC_REPRESENTATION_CONTEXT(2) 
PARAMETRIC_REPRESENTATION_CONTEXT() REPRESENTATION_CONTEXT('2D SPACE',''
  ) );
#696 = ORIENTED_EDGE('',*,*,#647,.F.);
#697 = ADVANCED_FACE('',(#698),#463,.T.);
#698 = FACE_BOUND('',#699,.T.);
#699 = EDGE_LOOP('',(#700,#701,#724,#751));
#700 = ORIENTED_EDGE('',*,*,#370,.F.);
#701 = ORIENTED_EDGE('',*,*,#702,.T.);
#702 = EDGE_CURVE('',#371,#703,#705,.T.);
#703 = VERTEX_POINT('',#704);
#704 = CARTESIAN_POINT('',(15.,45.,0.));
#705 = SEAM_CURVE('',#706,(#710,#717),.PCURVE_S1.);
#706 = LINE('',#707,#708);
#707 = CARTESIAN_POINT('',(15.,0.,0.));
#708 = VECTOR('',#709,1.);
#709 = DIRECTION('',(-0.,1.,-0.));
#710 = PCURVE('',#463,#711);
#711 = DEFINITIONAL_REPRESENTATION('',(#712),#716);
#712 = LINE('',#713,#714);
#713 = CARTESIAN_POINT('',(6.28318530718,0.));
#714 = VECTOR('',#715,1.);
#715 = DIRECTION('',(0.,-1.));
#716 = ( GEOMETRIC_REPRESENTATION_CONTEXT(2) 
PARAMETRIC_REPRESENTATION_CONTEXT() REPRESENTATION_CONTEXT('2D SPACE',''
  ) );
#717 = PCURVE('',#463,#718);
#718 = DEFINITIONAL_REPRESENTATION('',(#719),#723);
#719 = LINE('',#720,#721);
#720 = CARTESIAN_POINT('',(0.,0.));
#721 = VECTOR('',#722,1.);
#722 = DIRECTION('',(0.,-1.));
#723 = ( GEOMETRIC_REPRESENTATION_CONTEXT(2) 
PARAMETRIC_REPRESENTATION_CONTEXT() REPRESENTATION_CONTEXT('2D SPACE',''
  ) );
#724 = ORIENTED_EDGE('',*,*,#725,.T.);
#725 = EDGE_CURVE('',#703,#703,#726,.T.);
#726 = SURFACE_CURVE('',#727,(#732,#739),.PCURVE_S1.);
#727 = CIRCLE('',#728,15.);
#728 = AXIS2_PLACEMENT_3D('',#729,#730,#731);
#729 = CARTESIAN_POINT('',(0.,45.,0.));
#730 = DIRECTION('',(0.,-1.,0.));
#731 = DIRECTION('',(1.,0.,0.));
#732 = PCURVE('',#463,#733);
#733 = DEFINITIONAL_REPRESENTATION('',(#734),#738);
#734 = LINE('',#735,#736);
#735 = CARTESIAN_POINT('',(0.,-45.));
#736 = VECTOR('',#737,1.);
#737 = DIRECTION('',(1.,0.));
#738 = ( GEOMETRIC_REPRESENTATION_CONTEXT(2) 
PARAMETRIC_REPRESENTATION_CONTEXT() REPRESENTATION_CONTEXT('2D SPACE',''
  ) );
#739 = PCURVE('',#740,#745);
#740 = PLANE('',#741);
#741 = AXIS2_PLACEMENT_3D('',#742,#743,#744);
#742 = CARTESIAN_POINT('',(-7.29301404021E-16,45.,1.169780044473E-16));
#743 = DIRECTION('',(-0.,-1.,-0.));
#744 = DIRECTION('',(0.,0.,-1.));
#745 = DEFINITIONAL_REPRESENTATION('',(#746),#750);
#746 = CIRCLE('',#747,15.);
#747 = AXIS2_PLACEMENT_2D('',#748,#749);
#748 = CARTESIAN_POINT('',(1.169780044473E-16,7.29301404021E-16));
#749 = DIRECTION('',(0.,1.));
#750 = ( GEOMETRIC_REPRESENTATION_CONTEXT(2) 
PARAMETRIC_REPRESENTATION_CONTEXT() REPRESENTATION_CONTEXT('2D SPACE',''
  ) );
#751 = ORIENTED_EDGE('',*,*,#702,.F.);
#752 = ADVANCED_FACE('',(#753),#570,.T.);
#753 = FACE_BOUND('',#754,.T.);
#754 = EDGE_LOOP('',(#755,#756,#779,#806));
#755 = ORIENTED_EDGE('',*,*,#477,.F.);
#756 = ORIENTED_EDGE('',*,*,#757,.T.);
#757 = EDGE_CURVE('',#478,#758,#760,.T.);
#758 = VERTEX_POINT('',#759);
#759 = CARTESIAN_POINT('',(-45.,15.,0.));
#760 = SEAM_CURVE('',#761,(#765,#772),.PCURVE_S1.);
#761 = LINE('',#762,#763);
#762 = CARTESIAN_POINT('',(0.,15.,0.));
#763 = VECTOR('',#764,1.);
#764 = DIRECTION('',(-1.,-0.,-0.));
#765 = PCURVE('',#570,#766);
#766 = DEFINITIONAL_REPRESENTATION('',(#767),#771);
#767 = LINE('',#768,#769);
#768 = CARTESIAN_POINT('',(6.28318530718,0.));
#769 = VECTOR('',#770,1.);
#770 = DIRECTION('',(0.,-1.));
#771 = ( GEOMETRIC_REPRESENTATION_CONTEXT(2) 
PARAMETRIC_REPRESENTATION_CONTEXT() REPRESENTATION_CONTEXT('2D SPACE',''
  ) );
#772 = PCURVE('',#570,#773);
#773 = DEFINITIONAL_REPRESENTATION('',(#774),#778);
#774 = LINE('',#775,#776);
#775 = CARTESIAN_POINT('',(0.,0.));
#776 = VECTOR('',#777,1.);
#777 = DIRECTION('',(0.,-1.));
#778 = ( GEOMETRIC_REPRESENTATION_CONTEXT(2) 
PARAMETRIC_REPRESENTATION_CONTEXT() REPRESENTATION_CONTEXT('2D SPACE',''
  ) );
#779 = ORIENTED_EDGE('',*,*,#780,.T.);
#780 = EDGE_CURVE('',#758,#758,#781,.T.);
#781 = SURFACE_CURVE('',#782,(#787,#794),.PCURVE_S1.);
#782 = CIRCLE('',#783,15.);
#783 = AXIS2_PLACEMENT_3D('',#784,#785,#786);
#784 = CARTESIAN_POINT('',(-45.,0.,0.));
#785 = DIRECTION('',(1.,0.,0.));
#786 = DIRECTION('',(0.,1.,0.));
#787 = PCURVE('',#570,#788);
#788 = DEFINITIONAL_REPRESENTATION('',(#789),#793);
#789 = LINE('',#790,#791);
#790 = CARTESIAN_POINT('',(0.,-45.));
#791 = VECTOR('',#792,1.);
#792 = DIRECTION('',(1.,0.));
#793 = ( GEOMETRIC_REPRESENTATION_CONTEXT(2) 
PARAMETRIC_REPRESENTATION_CONTEXT() REPRESENTATION_CONTEXT('2D SPACE',''
  ) );
#794 = PCURVE('',#795,#800);
#795 = PLANE('',#796);
#796 = AXIS2_PLACEMENT_3D('',#797,#798,#799);
#797 = CARTESIAN_POINT('',(-45.,-7.29301404021E-16,1.169780044473E-16));
#798 = DIRECTION('',(1.,0.,0.));
#799 = DIRECTION('',(-0.,0.,1.));
#800 = DEFINITIONAL_REPRESENTATION('',(#801),#805);
#801 = CIRCLE('',#802,15.);
#802 = AXIS2_PLACEMENT_2D('',#803,#804);
#803 = CARTESIAN_POINT('',(-1.169780044473E-16,-7.29301404021E-16));
#804 = DIRECTION('',(0.,-1.));
#805 = ( GEOMETRIC_REPRESENTATION_CONTEXT(2) 
PARAMETRIC_REPRESENTATION_CONTEXT() REPRESENTATION_CONTEXT('2D SPACE',''
  ) );
#806 = ORIENTED_EDGE('',*,*,#757,.F.);
#807 = ADVANCED_FACE('',(#808,#811),#624,.T.);
#808 = FACE_BOUND('',#809,.T.);
#809 = EDGE_LOOP('',(#810));
#810 = ORIENTED_EDGE('',*,*,#609,.T.);
#811 = FACE_BOUND('',#812,.T.);
#812 = EDGE_LOOP('',(#813));
#813 = ORIENTED_EDGE('',*,*,#814,.T.);
#814 = EDGE_CURVE('',#815,#815,#817,.T.);
#815 = VERTEX_POINT('',#816);
#816 = CARTESIAN_POINT('',(45.,10.,0.));
#817 = SURFACE_CURVE('',#818,(#823,#834),.PCURVE_S1.);
#818 = CIRCLE('',#819,10.);
#819 = AXIS2_PLACEMENT_3D('',#820,#821,#822);
#820 = CARTESIAN_POINT('',(45.,0.,0.));
#821 = DIRECTION('',(-1.,0.,0.));
#822 = DIRECTION('',(0.,1.,0.));
#823 = PCURVE('',#624,#824);
#824 = DEFINITIONAL_REPRESENTATION('',(#825),#833);
#825 = ( BOUNDED_CURVE() B_SPLINE_CURVE(2,(#826,#827,#828,#829,#830,#831
,#832),.UNSPECIFIED.,.T.,.F.) B_SPLINE_CURVE_WITH_KNOTS((1,2,2,2,2,1),(
    -2.094395102393,0.,2.094395102393,4.188790204786,6.28318530718,
8.377580409573),.UNSPECIFIED.) CURVE() GEOMETRIC_REPRESENTATION_ITEM() 
RATIONAL_B_SPLINE_CURVE((1.,0.5,1.,0.5,1.,0.5,1.)) REPRESENTATION_ITEM(
  '') );
#826 = CARTESIAN_POINT('',(-1.169780044473E-16,-10.));
#827 = CARTESIAN_POINT('',(-17.32050807568,-10.));
#828 = CARTESIAN_POINT('',(-8.660254037844,5.));
#829 = CARTESIAN_POINT('',(-2.566271602742E-15,20.));
#830 = CARTESIAN_POINT('',(8.660254037844,5.));
#831 = CARTESIAN_POINT('',(17.320508075689,-10.));
#832 = CARTESIAN_POINT('',(-1.169780044473E-16,-10.));
#833 = ( GEOMETRIC_REPRESENTATION_CONTEXT(2) 
PARAMETRIC_REPRESENTATION_CONTEXT() REPRESENTATION_CONTEXT('2D SPACE',''
  ) );
#834 = PCURVE('',#835,#840);
#835 = CYLINDRICAL_SURFACE('',#836,10.);
#836 = AXIS2_PLACEMENT_3D('',#837,#838,#839);
#837 = CARTESIAN_POINT('',(0.,0.,0.));
#838 = DIRECTION('',(-1.,-0.,-0.));
#839 = DIRECTION('',(0.,1.,0.));
#840 = DEFINITIONAL_REPRESENTATION('',(#841),#845);
#841 = LINE('',#842,#843);
#842 = CARTESIAN_POINT('',(-6.28318530718,-45.));
#843 = VECTOR('',#844,1.);
#844 = DIRECTION('',(1.,-0.));
#845 = ( GEOMETRIC_REPRESENTATION_CONTEXT(2) 
PARAMETRIC_REPRESENTATION_CONTEXT() REPRESENTATION_CONTEXT('2D SPACE',''
  ) );
#846 = ADVANCED_FACE('',(#847,#850),#685,.T.);
#847 = FACE_BOUND('',#848,.T.);
#848 = EDGE_LOOP('',(#849));
#849 = ORIENTED_EDGE('',*,*,#670,.T.);
#850 = FACE_BOUND('',#851,.T.);
#851 = EDGE_LOOP('',(#852));
#852 = ORIENTED_EDGE('',*,*,#853,.T.);
#853 = EDGE_CURVE('',#854,#854,#856,.T.);
#854 = VERTEX_POINT('',#855);
#855 = CARTESIAN_POINT('',(10.,-45.,0.));
#856 = SURFACE_CURVE('',#857,(#862,#873),.PCURVE_S1.);
#857 = CIRCLE('',#858,10.);
#858 = AXIS2_PLACEMENT_3D('',#859,#860,#861);
#859 = CARTESIAN_POINT('',(0.,-45.,0.));
#860 = DIRECTION('',(-0.,1.,0.));
#861 = DIRECTION('',(1.,0.,0.));
#862 = PCURVE('',#685,#863);
#863 = DEFINITIONAL_REPRESENTATION('',(#864),#872);
#864 = ( BOUNDED_CURVE() B_SPLINE_CURVE(2,(#865,#866,#867,#868,#869,#870
,#871),.UNSPECIFIED.,.T.,.F.) B_SPLINE_CURVE_WITH_KNOTS((1,2,2,2,2,1),(
    -2.094395102393,0.,2.094395102393,4.188790204786,6.28318530718,
8.377580409573),.UNSPECIFIED.) CURVE() GEOMETRIC_REPRESENTATION_ITEM() 
RATIONAL_B_SPLINE_CURVE((1.,0.5,1.,0.5,1.,0.5,1.)) REPRESENTATION_ITEM(
  '') );
#865 = CARTESIAN_POINT('',(1.169780044473E-16,10.));
#866 = CARTESIAN_POINT('',(17.320508075689,10.));
#867 = CARTESIAN_POINT('',(8.660254037844,-5.));
#868 = CARTESIAN_POINT('',(2.566271602742E-15,-20.));
#869 = CARTESIAN_POINT('',(-8.660254037844,-5.));
#870 = CARTESIAN_POINT('',(-17.32050807568,10.));
#871 = CARTESIAN_POINT('',(1.169780044473E-16,10.));
#872 = ( GEOMETRIC_REPRESENTATION_CONTEXT(2) 
PARAMETRIC_REPRESENTATION_CONTEXT() REPRESENTATION_CONTEXT('2D SPACE',''
  ) );
#873 = PCURVE('',#874,#879);
#874 = CYLINDRICAL_SURFACE('',#875,10.);
#875 = AXIS2_PLACEMENT_3D('',#876,#877,#878);
#876 = CARTESIAN_POINT('',(0.,0.,0.));
#877 = DIRECTION('',(-0.,1.,-0.));
#878 = DIRECTION('',(1.,0.,0.));
#879 = DEFINITIONAL_REPRESENTATION('',(#880),#884);
#880 = LINE('',#881,#882);
#881 = CARTESIAN_POINT('',(-6.28318530718,-45.));
#882 = VECTOR('',#883,1.);
#883 = DIRECTION('',(1.,-0.));
#884 = ( GEOMETRIC_REPRESENTATION_CONTEXT(2) 
PARAMETRIC_REPRESENTATION_CONTEXT() REPRESENTATION_CONTEXT('2D SPACE',''
  ) );
#885 = ADVANCED_FACE('',(#886,#889),#740,.F.);
#886 = FACE_BOUND('',#887,.F.);
#887 = EDGE_LOOP('',(#888));
#888 = ORIENTED_EDGE('',*,*,#725,.T.);
#889 = FACE_BOUND('',#890,.F.);
#890 = EDGE_LOOP('',(#891));
#891 = ORIENTED_EDGE('',*,*,#892,.F.);
#892 = EDGE_CURVE('',#893,#893,#895,.T.);
#893 = VERTEX_POINT('',#894);
#894 = CARTESIAN_POINT('',(10.,45.,0.));
#895 = SURFACE_CURVE('',#896,(#901,#908),.PCURVE_S1.);
#896 = CIRCLE('',#897,10.);
#897 = AXIS2_PLACEMENT_3D('',#898,#899,#900);
#898 = CARTESIAN_POINT('',(0.,45.,0.));
#899 = DIRECTION('',(0.,-1.,0.));
#900 = DIRECTION('',(1.,0.,0.));
#901 = PCURVE('',#740,#902);
#902 = DEFINITIONAL_REPRESENTATION('',(#903),#907);
#903 = CIRCLE('',#904,10.);
#904 = AXIS2_PLACEMENT_2D('',#905,#906);
#905 = CARTESIAN_POINT('',(1.169780044473E-16,7.29301404021E-16));
#906 = DIRECTION('',(0.,1.));
#907 = ( GEOMETRIC_REPRESENTATION_CONTEXT(2) 
PARAMETRIC_REPRESENTATION_CONTEXT() REPRESENTATION_CONTEXT('2D SPACE',''
  ) );
#908 = PCURVE('',#909,#914);
#909 = CYLINDRICAL_SURFACE('',#910,10.);
#910 = AXIS2_PLACEMENT_3D('',#911,#912,#913);
#911 = CARTESIAN_POINT('',(0.,0.,0.));
#912 = DIRECTION('',(0.,-1.,0.));
#913 = DIRECTION('',(1.,0.,0.));
#914 = DEFINITIONAL_REPRESENTATION('',(#915),#919);
#915 = LINE('',#916,#917);
#916 = CARTESIAN_POINT('',(0.,-45.));
#917 = VECTOR('',#918,1.);
#918 = DIRECTION('',(1.,0.));
#919 = ( GEOMETRIC_REPRESENTATION_CONTEXT(2) 
PARAMETRIC_REPRESENTATION_CONTEXT() REPRESENTATION_CONTEXT('2D SPACE',''
  ) );
#920 = ADVANCED_FACE('',(#921,#924),#795,.F.);
#921 = FACE_BOUND('',#922,.F.);
#922 = EDGE_LOOP('',(#923));
#923 = ORIENTED_EDGE('',*,*,#780,.T.);
#924 = FACE_BOUND('',#925,.F.);
#925 = EDGE_LOOP('',(#926));
#926 = ORIENTED_EDGE('',*,*,#927,.F.);
#927 = EDGE_CURVE('',#928,#928,#930,.T.);
#928 = VERTEX_POINT('',#929);
#929 = CARTESIAN_POINT('',(-45.,10.,0.));
#930 = SURFACE_CURVE('',#931,(#936,#943),.PCURVE_S1.);
#931 = CIRCLE('',#932,10.);
#932 = AXIS2_PLACEMENT_3D('',#933,#934,#935);
#933 = CARTESIAN_POINT('',(-45.,0.,0.));
#934 = DIRECTION('',(1.,0.,0.));
#935 = DIRECTION('',(-0.,1.,0.));
#936 = PCURVE('',#795,#937);
#937 = DEFINITIONAL_REPRESENTATION('',(#938),#942);
#938 = CIRCLE('',#939,10.);
#939 = AXIS2_PLACEMENT_2D('',#940,#941);
#940 = CARTESIAN_POINT('',(-1.169780044473E-16,-7.29301404021E-16));
#941 = DIRECTION('',(0.,-1.));
#942 = ( GEOMETRIC_REPRESENTATION_CONTEXT(2) 
PARAMETRIC_REPRESENTATION_CONTEXT() REPRESENTATION_CONTEXT('2D SPACE',''
  ) );
#943 = PCURVE('',#944,#949);
#944 = CYLINDRICAL_SURFACE('',#945,10.);
#945 = AXIS2_PLACEMENT_3D('',#946,#947,#948);
#946 = CARTESIAN_POINT('',(0.,0.,0.));
#947 = DIRECTION('',(1.,0.,0.));
#948 = DIRECTION('',(0.,1.,0.));
#949 = DEFINITIONAL_REPRESENTATION('',(#950),#954);
#950 = LINE('',#951,#952);
#951 = CARTESIAN_POINT('',(0.,-45.));
#952 = VECTOR('',#953,1.);
#953 = DIRECTION('',(1.,0.));
#954 = ( GEOMETRIC_REPRESENTATION_CONTEXT(2) 
PARAMETRIC_REPRESENTATION_CONTEXT() REPRESENTATION_CONTEXT('2D SPACE',''
  ) );
#955 = ADVANCED_FACE('',(#956),#835,.F.);
#956 = FACE_BOUND('',#957,.T.);
#957 = EDGE_LOOP('',(#958,#996,#1032,#1053,#1054,#1055,#1091));
#958 = ORIENTED_EDGE('',*,*,#959,.T.);
#959 = EDGE_CURVE('',#960,#962,#964,.T.);
#960 = VERTEX_POINT('',#961);
#961 = CARTESIAN_POINT('',(10.,-10.,0.));
#962 = VERTEX_POINT('',#963);
#963 = CARTESIAN_POINT('',(3.061616997868E-16,-6.186632767922E-14,10.));
#964 = SURFACE_CURVE('',#965,(#970,#983),.PCURVE_S1.);
#965 = ELLIPSE('',#966,14.142135623731,10.);
#966 = AXIS2_PLACEMENT_3D('',#967,#968,#969);
#967 = CARTESIAN_POINT('',(0.,0.,0.));
#968 = DIRECTION('',(-0.707106781187,-0.707106781187,0.));
#969 = DIRECTION('',(-0.707106781187,0.707106781187,0.));
#970 = PCURVE('',#835,#971);
#971 = DEFINITIONAL_REPRESENTATION('',(#972),#982);
#972 = B_SPLINE_CURVE_WITH_KNOTS('',8,(#973,#974,#975,#976,#977,#978,
    #979,#980,#981),.UNSPECIFIED.,.F.,.F.,(9,9),(3.14159265359,
    4.712388980582),.PIECEWISE_BEZIER_KNOTS.);
#973 = CARTESIAN_POINT('',(-3.14159265359,-10.));
#974 = CARTESIAN_POINT('',(-2.945243112716,-10.));
#975 = CARTESIAN_POINT('',(-2.748893571841,-9.559392240018));
#976 = CARTESIAN_POINT('',(-2.552544030967,-8.678180463041));
#977 = CARTESIAN_POINT('',(-2.356194490088,-7.392587505088));
#978 = CARTESIAN_POINT('',(-2.159844949218,-5.775132611092));
#979 = CARTESIAN_POINT('',(-1.963495408344,-3.926991281775));
#980 = CARTESIAN_POINT('',(-1.767145867471,-1.963495406764));
#981 = CARTESIAN_POINT('',(-1.570796326597,1.976772462835E-09));
#982 = ( GEOMETRIC_REPRESENTATION_CONTEXT(2) 
PARAMETRIC_REPRESENTATION_CONTEXT() REPRESENTATION_CONTEXT('2D SPACE',''
  ) );
#983 = PCURVE('',#874,#984);
#984 = DEFINITIONAL_REPRESENTATION('',(#985),#995);
#985 = B_SPLINE_CURVE_WITH_KNOTS('',8,(#986,#987,#988,#989,#990,#991,
    #992,#993,#994),.UNSPECIFIED.,.F.,.F.,(9,9),(3.14159265359,
    4.712388980582),.PIECEWISE_BEZIER_KNOTS.);
#986 = CARTESIAN_POINT('',(8.881784197001E-16,-10.));
#987 = CARTESIAN_POINT('',(-0.196349540874,-10.));
#988 = CARTESIAN_POINT('',(-0.392699081747,-9.559392240018));
#989 = CARTESIAN_POINT('',(-0.589048622624,-8.678180463041));
#990 = CARTESIAN_POINT('',(-0.785398163494,-7.392587505088));
#991 = CARTESIAN_POINT('',(-0.981747704371,-5.775132611092));
#992 = CARTESIAN_POINT('',(-1.178097245243,-3.926991281775));
#993 = CARTESIAN_POINT('',(-1.374446786119,-1.963495406764));
#994 = CARTESIAN_POINT('',(-1.570796326993,1.976772462835E-09));
#995 = ( GEOMETRIC_REPRESENTATION_CONTEXT(2) 
PARAMETRIC_REPRESENTATION_CONTEXT() REPRESENTATION_CONTEXT('2D SPACE',''
  ) );
#996 = ORIENTED_EDGE('',*,*,#997,.T.);
#997 = EDGE_CURVE('',#962,#998,#1000,.T.);
#998 = VERTEX_POINT('',#999);
#999 = CARTESIAN_POINT('',(10.,10.,0.));
#1000 = SURFACE_CURVE('',#1001,(#1006,#1019),.PCURVE_S1.);
#1001 = ELLIPSE('',#1002,14.142135623731,10.);
#1002 = AXIS2_PLACEMENT_3D('',#1003,#1004,#1005);
#1003 = CARTESIAN_POINT('',(0.,0.,0.));
#1004 = DIRECTION('',(-0.707106781187,0.707106781187,0.));
#1005 = DIRECTION('',(-0.707106781187,-0.707106781187,0.));
#1006 = PCURVE('',#835,#1007);
#1007 = DEFINITIONAL_REPRESENTATION('',(#1008),#1018);
#1008 = B_SPLINE_CURVE_WITH_KNOTS('',8,(#1009,#1010,#1011,#1012,#1013,
    #1014,#1015,#1016,#1017),.UNSPECIFIED.,.F.,.F.,(9,9),(1.570796266993
    ,3.14159265359),.PIECEWISE_BEZIER_KNOTS.);
#1009 = CARTESIAN_POINT('',(-1.570796386597,5.98023222666E-07));
#1010 = CARTESIAN_POINT('',(-1.374446838273,-1.963494885223));
#1011 = CARTESIAN_POINT('',(-1.178097289947,-3.926990861019));
#1012 = CARTESIAN_POINT('',(-0.981747741625,-5.775132304178));
#1013 = CARTESIAN_POINT('',(-0.785398193299,-7.392587310031));
#1014 = CARTESIAN_POINT('',(-0.589048644976,-8.678180362709));
#1015 = CARTESIAN_POINT('',(-0.392699096648,-9.559392206591));
#1016 = CARTESIAN_POINT('',(-0.196349548325,-10.));
#1017 = CARTESIAN_POINT('',(-1.224646799147E-16,-10.));
#1018 = ( GEOMETRIC_REPRESENTATION_CONTEXT(2) 
PARAMETRIC_REPRESENTATION_CONTEXT() REPRESENTATION_CONTEXT('2D SPACE',''
  ) );
#1019 = PCURVE('',#909,#1020);
#1020 = DEFINITIONAL_REPRESENTATION('',(#1021),#1031);
#1021 = B_SPLINE_CURVE_WITH_KNOTS('',8,(#1022,#1023,#1024,#1025,#1026,
    #1027,#1028,#1029,#1030),.UNSPECIFIED.,.F.,.F.,(9,9),(1.570796266993
    ,3.14159265359),.PIECEWISE_BEZIER_KNOTS.);
#1022 = CARTESIAN_POINT('',(1.570796386597,5.98023222666E-07));
#1023 = CARTESIAN_POINT('',(1.374446838273,-1.963494885223));
#1024 = CARTESIAN_POINT('',(1.178097289947,-3.926990861019));
#1025 = CARTESIAN_POINT('',(0.981747741625,-5.775132304178));
#1026 = CARTESIAN_POINT('',(0.785398193299,-7.392587310031));
#1027 = CARTESIAN_POINT('',(0.589048644976,-8.678180362709));
#1028 = CARTESIAN_POINT('',(0.392699096648,-9.559392206591));
#1029 = CARTESIAN_POINT('',(0.196349548325,-10.));
#1030 = CARTESIAN_POINT('',(1.224646799147E-16,-10.));
#1031 = ( GEOMETRIC_REPRESENTATION_CONTEXT(2) 
PARAMETRIC_REPRESENTATION_CONTEXT() REPRESENTATION_CONTEXT('2D SPACE',''
  ) );
#1032 = ORIENTED_EDGE('',*,*,#1033,.T.);
#1033 = EDGE_CURVE('',#998,#815,#1034,.T.);
#1034 = SEAM_CURVE('',#1035,(#1039,#1046),.PCURVE_S1.);
#1035 = LINE('',#1036,#1037);
#1036 = CARTESIAN_POINT('',(0.,10.,0.));
#1037 = VECTOR('',#1038,1.);
#1038 = DIRECTION('',(1.,0.,0.));
#1039 = PCURVE('',#835,#1040);
#1040 = DEFINITIONAL_REPRESENTATION('',(#1041),#1045);
#1041 = LINE('',#1042,#1043);
#1042 = CARTESIAN_POINT('',(-6.28318530718,0.));
#1043 = VECTOR('',#1044,1.);
#1044 = DIRECTION('',(-0.,-1.));
#1045 = ( GEOMETRIC_REPRESENTATION_CONTEXT(2) 
PARAMETRIC_REPRESENTATION_CONTEXT() REPRESENTATION_CONTEXT('2D SPACE',''
  ) );
#1046 = PCURVE('',#835,#1047);
#1047 = DEFINITIONAL_REPRESENTATION('',(#1048),#1052);
#1048 = LINE('',#1049,#1050);
#1049 = CARTESIAN_POINT('',(-0.,0.));
#1050 = VECTOR('',#1051,1.);
#1051 = DIRECTION('',(-0.,-1.));
#1052 = ( GEOMETRIC_REPRESENTATION_CONTEXT(2) 
PARAMETRIC_REPRESENTATION_CONTEXT() REPRESENTATION_CONTEXT('2D SPACE',''
  ) );
#1053 = ORIENTED_EDGE('',*,*,#814,.F.);
#1054 = ORIENTED_EDGE('',*,*,#1033,.F.);
#1055 = ORIENTED_EDGE('',*,*,#1056,.T.);
#1056 = EDGE_CURVE('',#998,#1057,#1059,.T.);
#1057 = VERTEX_POINT('',#1058);
#1058 = CARTESIAN_POINT('',(-5.359377197861E-15,-6.753186657687E-14,-10.
    ));
#1059 = SURFACE_CURVE('',#1060,(#1065,#1078),.PCURVE_S1.);
#1060 = ELLIPSE('',#1061,14.142135623731,10.);
#1061 = AXIS2_PLACEMENT_3D('',#1062,#1063,#1064);
#1062 = CARTESIAN_POINT('',(0.,0.,0.));
#1063 = DIRECTION('',(-0.707106781187,0.707106781187,0.));
#1064 = DIRECTION('',(-0.707106781187,-0.707106781187,0.));
#1065 = PCURVE('',#835,#1066);
#1066 = DEFINITIONAL_REPRESENTATION('',(#1067),#1077);
#1067 = B_SPLINE_CURVE_WITH_KNOTS('',8,(#1068,#1069,#1070,#1071,#1072,
    #1073,#1074,#1075,#1076),.UNSPECIFIED.,.F.,.F.,(9,9),(3.14159265359,
    4.712388980582),.PIECEWISE_BEZIER_KNOTS.);
#1068 = CARTESIAN_POINT('',(-6.28318530718,-10.));
#1069 = CARTESIAN_POINT('',(-6.086835766306,-10.));
#1070 = CARTESIAN_POINT('',(-5.890486225433,-9.559392240023));
#1071 = CARTESIAN_POINT('',(-5.694136684555,-8.678180463048));
#1072 = CARTESIAN_POINT('',(-5.49778714369,-7.392587505103));
#1073 = CARTESIAN_POINT('',(-5.301437602809,-5.77513261107));
#1074 = CARTESIAN_POINT('',(-5.105088061936,-3.926991281784));
#1075 = CARTESIAN_POINT('',(-4.908738521061,-1.963495406764));
#1076 = CARTESIAN_POINT('',(-4.712388980187,1.976772462835E-09));
#1077 = ( GEOMETRIC_REPRESENTATION_CONTEXT(2) 
PARAMETRIC_REPRESENTATION_CONTEXT() REPRESENTATION_CONTEXT('2D SPACE',''
  ) );
#1078 = PCURVE('',#909,#1079);
#1079 = DEFINITIONAL_REPRESENTATION('',(#1080),#1090);
#1080 = B_SPLINE_CURVE_WITH_KNOTS('',8,(#1081,#1082,#1083,#1084,#1085,
    #1086,#1087,#1088,#1089),.UNSPECIFIED.,.F.,.F.,(9,9),(3.14159265359,
    4.712388980582),.PIECEWISE_BEZIER_KNOTS.);
#1081 = CARTESIAN_POINT('',(6.28318530718,-10.));
#1082 = CARTESIAN_POINT('',(6.086835766306,-10.));
#1083 = CARTESIAN_POINT('',(5.890486225433,-9.559392240023));
#1084 = CARTESIAN_POINT('',(5.694136684555,-8.678180463048));
#1085 = CARTESIAN_POINT('',(5.49778714369,-7.392587505103));
#1086 = CARTESIAN_POINT('',(5.301437602809,-5.77513261107));
#1087 = CARTESIAN_POINT('',(5.105088061936,-3.926991281784));
#1088 = CARTESIAN_POINT('',(4.908738521061,-1.963495406764));
#1089 = CARTESIAN_POINT('',(4.712388980187,1.976772462835E-09));
#1090 = ( GEOMETRIC_REPRESENTATION_CONTEXT(2) 
PARAMETRIC_REPRESENTATION_CONTEXT() REPRESENTATION_CONTEXT('2D SPACE',''
  ) );
#1091 = ORIENTED_EDGE('',*,*,#1092,.T.);
#1092 = EDGE_CURVE('',#1057,#960,#1093,.T.);
#1093 = SURFACE_CURVE('',#1094,(#1099,#1112),.PCURVE_S1.);
#1094 = ELLIPSE('',#1095,14.142135623731,10.);
#1095 = AXIS2_PLACEMENT_3D('',#1096,#1097,#1098);
#1096 = CARTESIAN_POINT('',(0.,0.,0.));
#1097 = DIRECTION('',(-0.707106781187,-0.707106781187,0.));
#1098 = DIRECTION('',(-0.707106781187,0.707106781187,0.));
#1099 = PCURVE('',#835,#1100);
#1100 = DEFINITIONAL_REPRESENTATION('',(#1101),#1111);
#1101 = B_SPLINE_CURVE_WITH_KNOTS('',8,(#1102,#1103,#1104,#1105,#1106,
    #1107,#1108,#1109,#1110),.UNSPECIFIED.,.F.,.F.,(9,9),(1.570796266993
    ,3.14159265359),.PIECEWISE_BEZIER_KNOTS.);
#1102 = CARTESIAN_POINT('',(-4.712389040187,5.98023222666E-07));
#1103 = CARTESIAN_POINT('',(-4.516039491862,-1.963494885223));
#1104 = CARTESIAN_POINT('',(-4.319689943538,-3.926990861008));
#1105 = CARTESIAN_POINT('',(-4.123340395203,-5.775132304221));
#1106 = CARTESIAN_POINT('',(-3.926990846881,-7.392587309965));
#1107 = CARTESIAN_POINT('',(-3.730641298556,-8.678180362742));
#1108 = CARTESIAN_POINT('',(-3.534291750241,-9.559392206583));
#1109 = CARTESIAN_POINT('',(-3.337942201914,-10.));
#1110 = CARTESIAN_POINT('',(-3.14159265359,-10.));
#1111 = ( GEOMETRIC_REPRESENTATION_CONTEXT(2) 
PARAMETRIC_REPRESENTATION_CONTEXT() REPRESENTATION_CONTEXT('2D SPACE',''
  ) );
#1112 = PCURVE('',#874,#1113);
#1113 = DEFINITIONAL_REPRESENTATION('',(#1114),#1124);
#1114 = B_SPLINE_CURVE_WITH_KNOTS('',8,(#1115,#1116,#1117,#1118,#1119,
    #1120,#1121,#1122,#1123),.UNSPECIFIED.,.F.,.F.,(9,9),(1.570796266993
    ,3.14159265359),.PIECEWISE_BEZIER_KNOTS.);
#1115 = CARTESIAN_POINT('',(-4.712388920582,5.98023222666E-07));
#1116 = CARTESIAN_POINT('',(-4.908738468907,-1.963494885223));
#1117 = CARTESIAN_POINT('',(-5.105088017229,-3.926990861008));
#1118 = CARTESIAN_POINT('',(-5.301437565529,-5.775132304221));
#1119 = CARTESIAN_POINT('',(-5.497787113902,-7.392587309965));
#1120 = CARTESIAN_POINT('',(-5.694136662176,-8.678180362742));
#1121 = CARTESIAN_POINT('',(-5.890486210532,-9.559392206583));
#1122 = CARTESIAN_POINT('',(-6.086835758855,-10.));
#1123 = CARTESIAN_POINT('',(-6.28318530718,-10.));
#1124 = ( GEOMETRIC_REPRESENTATION_CONTEXT(2) 
PARAMETRIC_REPRESENTATION_CONTEXT() REPRESENTATION_CONTEXT('2D SPACE',''
  ) );
#1125 = ADVANCED_FACE('',(#1126),#874,.F.);
#1126 = FACE_BOUND('',#1127,.T.);
#1127 = EDGE_LOOP('',(#1128,#1129,#1150,#1151,#1152,#1153));
#1128 = ORIENTED_EDGE('',*,*,#959,.F.);
#1129 = ORIENTED_EDGE('',*,*,#1130,.T.);
#1130 = EDGE_CURVE('',#960,#854,#1131,.T.);
#1131 = SEAM_CURVE('',#1132,(#1136,#1143),.PCURVE_S1.);
#1132 = LINE('',#1133,#1134);
#1133 = CARTESIAN_POINT('',(10.,0.,0.));
#1134 = VECTOR('',#1135,1.);
#1135 = DIRECTION('',(0.,-1.,0.));
#1136 = PCURVE('',#874,#1137);
#1137 = DEFINITIONAL_REPRESENTATION('',(#1138),#1142);
#1138 = LINE('',#1139,#1140);
#1139 = CARTESIAN_POINT('',(-6.28318530718,0.));
#1140 = VECTOR('',#1141,1.);
#1141 = DIRECTION('',(-0.,-1.));
#1142 = ( GEOMETRIC_REPRESENTATION_CONTEXT(2) 
PARAMETRIC_REPRESENTATION_CONTEXT() REPRESENTATION_CONTEXT('2D SPACE',''
  ) );
#1143 = PCURVE('',#874,#1144);
#1144 = DEFINITIONAL_REPRESENTATION('',(#1145),#1149);
#1145 = LINE('',#1146,#1147);
#1146 = CARTESIAN_POINT('',(-0.,0.));
#1147 = VECTOR('',#1148,1.);
#1148 = DIRECTION('',(-0.,-1.));
#1149 = ( GEOMETRIC_REPRESENTATION_CONTEXT(2) 
PARAMETRIC_REPRESENTATION_CONTEXT() REPRESENTATION_CONTEXT('2D SPACE',''
  ) );
#1150 = ORIENTED_EDGE('',*,*,#853,.F.);
#1151 = ORIENTED_EDGE('',*,*,#1130,.F.);
#1152 = ORIENTED_EDGE('',*,*,#1092,.F.);
#1153 = ORIENTED_EDGE('',*,*,#1154,.F.);
#1154 = EDGE_CURVE('',#962,#1057,#1155,.T.);
#1155 = SURFACE_CURVE('',#1156,(#1161,#1181),.PCURVE_S1.);
#1156 = ELLIPSE('',#1157,14.142135623731,10.);
#1157 = AXIS2_PLACEMENT_3D('',#1158,#1159,#1160);
#1158 = CARTESIAN_POINT('',(0.,0.,0.));
#1159 = DIRECTION('',(0.707106781187,-0.707106781187,0.));
#1160 = DIRECTION('',(0.707106781187,0.707106781187,0.));
#1161 = PCURVE('',#874,#1162);
#1162 = DEFINITIONAL_REPRESENTATION('',(#1163),#1180);
#1163 = B_SPLINE_CURVE_WITH_KNOTS('',8,(#1164,#1165,#1166,#1167,#1168,
    #1169,#1170,#1171,#1172,#1173,#1174,#1175,#1176,#1177,#1178,#1179),
  .UNSPECIFIED.,.F.,.F.,(9,7,9),(1.570796326597,3.141592683392,
    4.712389040187),.UNSPECIFIED.);
#1164 = CARTESIAN_POINT('',(-1.570796326597,1.976777132575E-09));
#1165 = CARTESIAN_POINT('',(-1.767145871197,-1.963495444017));
#1166 = CARTESIAN_POINT('',(-1.963495415793,-3.926991356292));
#1167 = CARTESIAN_POINT('',(-2.1598449604,-5.775132716313));
#1168 = CARTESIAN_POINT('',(-2.356194504986,-7.392587627844));
#1169 = CARTESIAN_POINT('',(-2.552544049599,-8.67818058503));
#1170 = CARTESIAN_POINT('',(-2.748893594191,-9.55939234034));
#1171 = CARTESIAN_POINT('',(-2.945243138793,-10.00000005851));
#1172 = CARTESIAN_POINT('',(-3.337942227991,-9.999999941483));
#1173 = CARTESIAN_POINT('',(-3.53429177258,-9.559392106272));
#1174 = CARTESIAN_POINT('',(-3.730641317206,-8.678180240808));
#1175 = CARTESIAN_POINT('',(-3.92699086175,-7.39258718718));
#1176 = CARTESIAN_POINT('',(-4.123340406408,-5.775132199025));
#1177 = CARTESIAN_POINT('',(-4.319689950978,-3.926990786502));
#1178 = CARTESIAN_POINT('',(-4.516039495588,-1.96349484797));
#1179 = CARTESIAN_POINT('',(-4.712389040187,5.980232202167E-07));
#1180 = ( GEOMETRIC_REPRESENTATION_CONTEXT(2) 
PARAMETRIC_REPRESENTATION_CONTEXT() REPRESENTATION_CONTEXT('2D SPACE',''
  ) );
#1181 = PCURVE('',#944,#1182);
#1182 = DEFINITIONAL_REPRESENTATION('',(#1183),#1200);
#1183 = B_SPLINE_CURVE_WITH_KNOTS('',8,(#1184,#1185,#1186,#1187,#1188,
    #1189,#1190,#1191,#1192,#1193,#1194,#1195,#1196,#1197,#1198,#1199),
  .UNSPECIFIED.,.F.,.F.,(9,7,9),(1.570796326597,3.141592683392,
    4.712389040187),.UNSPECIFIED.);
#1184 = CARTESIAN_POINT('',(1.570796326597,1.976777132575E-09));
#1185 = CARTESIAN_POINT('',(1.767145871197,-1.963495444017));
#1186 = CARTESIAN_POINT('',(1.963495415793,-3.926991356292));
#1187 = CARTESIAN_POINT('',(2.1598449604,-5.775132716313));
#1188 = CARTESIAN_POINT('',(2.356194504986,-7.392587627844));
#1189 = CARTESIAN_POINT('',(2.552544049599,-8.67818058503));
#1190 = CARTESIAN_POINT('',(2.748893594191,-9.55939234034));
#1191 = CARTESIAN_POINT('',(2.945243138793,-10.00000005851));
#1192 = CARTESIAN_POINT('',(3.337942227991,-9.999999941483));
#1193 = CARTESIAN_POINT('',(3.53429177258,-9.559392106272));
#1194 = CARTESIAN_POINT('',(3.730641317206,-8.678180240808));
#1195 = CARTESIAN_POINT('',(3.92699086175,-7.39258718718));
#1196 = CARTESIAN_POINT('',(4.123340406408,-5.775132199025));
#1197 = CARTESIAN_POINT('',(4.319689950978,-3.926990786502));
#1198 = CARTESIAN_POINT('',(4.516039495588,-1.96349484797));
#1199 = CARTESIAN_POINT('',(4.712389040187,5.980232202167E-07));
#1200 = ( GEOMETRIC_REPRESENTATION_CONTEXT(2) 
PARAMETRIC_REPRESENTATION_CONTEXT() REPRESENTATION_CONTEXT('2D SPACE',''
  ) );
#1201 = ADVANCED_FACE('',(#1202),#909,.F.);
#1202 = FACE_BOUND('',#1203,.F.);
#1203 = EDGE_LOOP('',(#1204,#1205,#1226,#1227,#1228,#1229,#1265));
#1204 = ORIENTED_EDGE('',*,*,#997,.T.);
#1205 = ORIENTED_EDGE('',*,*,#1206,.T.);
#1206 = EDGE_CURVE('',#998,#893,#1207,.T.);
#1207 = SEAM_CURVE('',#1208,(#1212,#1219),.PCURVE_S1.);
#1208 = LINE('',#1209,#1210);
#1209 = CARTESIAN_POINT('',(10.,0.,0.));
#1210 = VECTOR('',#1211,1.);
#1211 = DIRECTION('',(-0.,1.,-0.));
#1212 = PCURVE('',#909,#1213);
#1213 = DEFINITIONAL_REPRESENTATION('',(#1214),#1218);
#1214 = LINE('',#1215,#1216);
#1215 = CARTESIAN_POINT('',(6.28318530718,0.));
#1216 = VECTOR('',#1217,1.);
#1217 = DIRECTION('',(0.,-1.));
#1218 = ( GEOMETRIC_REPRESENTATION_CONTEXT(2) 
PARAMETRIC_REPRESENTATION_CONTEXT() REPRESENTATION_CONTEXT('2D SPACE',''
  ) );
#1219 = PCURVE('',#909,#1220);
#1220 = DEFINITIONAL_REPRESENTATION('',(#1221),#1225);
#1221 = LINE('',#1222,#1223);
#1222 = CARTESIAN_POINT('',(0.,0.));
#1223 = VECTOR('',#1224,1.);
#1224 = DIRECTION('',(0.,-1.));
#1225 = ( GEOMETRIC_REPRESENTATION_CONTEXT(2) 
PARAMETRIC_REPRESENTATION_CONTEXT() REPRESENTATION_CONTEXT('2D SPACE',''
  ) );
#1226 = ORIENTED_EDGE('',*,*,#892,.T.);
#1227 = ORIENTED_EDGE('',*,*,#1206,.F.);
#1228 = ORIENTED_EDGE('',*,*,#1056,.T.);
#1229 = ORIENTED_EDGE('',*,*,#1230,.T.);
#1230 = EDGE_CURVE('',#1057,#1231,#1233,.T.);
#1231 = VERTEX_POINT('',#1232);
#1232 = CARTESIAN_POINT('',(-10.,10.,0.));
#1233 = SURFACE_CURVE('',#1234,(#1239,#1252),.PCURVE_S1.);
#1234 = ELLIPSE('',#1235,14.142135623731,10.);
#1235 = AXIS2_PLACEMENT_3D('',#1236,#1237,#1238);
#1236 = CARTESIAN_POINT('',(0.,0.,0.));
#1237 = DIRECTION('',(0.707106781187,0.707106781187,0.));
#1238 = DIRECTION('',(0.707106781187,-0.707106781187,0.));
#1239 = PCURVE('',#909,#1240);
#1240 = DEFINITIONAL_REPRESENTATION('',(#1241),#1251);
#1241 = B_SPLINE_CURVE_WITH_KNOTS('',8,(#1242,#1243,#1244,#1245,#1246,
    #1247,#1248,#1249,#1250),.UNSPECIFIED.,.F.,.F.,(9,9),(1.570796266993
    ,3.14159265359),.PIECEWISE_BEZIER_KNOTS.);
#1242 = CARTESIAN_POINT('',(4.712389040187,5.98023222666E-07));
#1243 = CARTESIAN_POINT('',(4.516039491862,-1.963494885223));
#1244 = CARTESIAN_POINT('',(4.319689943538,-3.926990861008));
#1245 = CARTESIAN_POINT('',(4.123340395203,-5.775132304221));
#1246 = CARTESIAN_POINT('',(3.926990846881,-7.392587309965));
#1247 = CARTESIAN_POINT('',(3.730641298556,-8.678180362742));
#1248 = CARTESIAN_POINT('',(3.534291750241,-9.559392206583));
#1249 = CARTESIAN_POINT('',(3.337942201914,-10.));
#1250 = CARTESIAN_POINT('',(3.14159265359,-10.));
#1251 = ( GEOMETRIC_REPRESENTATION_CONTEXT(2) 
PARAMETRIC_REPRESENTATION_CONTEXT() REPRESENTATION_CONTEXT('2D SPACE',''
  ) );
#1252 = PCURVE('',#944,#1253);
#1253 = DEFINITIONAL_REPRESENTATION('',(#1254),#1264);
#1254 = B_SPLINE_CURVE_WITH_KNOTS('',8,(#1255,#1256,#1257,#1258,#1259,
    #1260,#1261,#1262,#1263),.UNSPECIFIED.,.F.,.F.,(9,9),(1.570796266993
    ,3.14159265359),.PIECEWISE_BEZIER_KNOTS.);
#1255 = CARTESIAN_POINT('',(4.712388920582,5.98023222666E-07));
#1256 = CARTESIAN_POINT('',(4.908738468907,-1.963494885223));
#1257 = CARTESIAN_POINT('',(5.105088017229,-3.926990861008));
#1258 = CARTESIAN_POINT('',(5.301437565529,-5.775132304221));
#1259 = CARTESIAN_POINT('',(5.497787113902,-7.392587309965));
#1260 = CARTESIAN_POINT('',(5.694136662176,-8.678180362742));
#1261 = CARTESIAN_POINT('',(5.890486210532,-9.559392206583));
#1262 = CARTESIAN_POINT('',(6.086835758855,-10.));
#1263 = CARTESIAN_POINT('',(6.28318530718,-10.));
#1264 = ( GEOMETRIC_REPRESENTATION_CONTEXT(2) 
PARAMETRIC_REPRESENTATION_CONTEXT() REPRESENTATION_CONTEXT('2D SPACE',''
  ) );
#1265 = ORIENTED_EDGE('',*,*,#1266,.T.);
#1266 = EDGE_CURVE('',#1231,#962,#1267,.T.);
#1267 = SURFACE_CURVE('',#1268,(#1273,#1286),.PCURVE_S1.);
#1268 = ELLIPSE('',#1269,14.142135623731,10.);
#1269 = AXIS2_PLACEMENT_3D('',#1270,#1271,#1272);
#1270 = CARTESIAN_POINT('',(0.,0.,0.));
#1271 = DIRECTION('',(0.707106781187,0.707106781187,0.));
#1272 = DIRECTION('',(0.707106781187,-0.707106781187,0.));
#1273 = PCURVE('',#909,#1274);
#1274 = DEFINITIONAL_REPRESENTATION('',(#1275),#1285);
#1275 = B_SPLINE_CURVE_WITH_KNOTS('',8,(#1276,#1277,#1278,#1279,#1280,
    #1281,#1282,#1283,#1284),.UNSPECIFIED.,.F.,.F.,(9,9),(3.14159265359,
    4.712388980582),.PIECEWISE_BEZIER_KNOTS.);
#1276 = CARTESIAN_POINT('',(3.14159265359,-10.));
#1277 = CARTESIAN_POINT('',(2.945243112716,-10.));
#1278 = CARTESIAN_POINT('',(2.748893571841,-9.559392240018));
#1279 = CARTESIAN_POINT('',(2.552544030967,-8.678180463041));
#1280 = CARTESIAN_POINT('',(2.356194490088,-7.392587505088));
#1281 = CARTESIAN_POINT('',(2.159844949218,-5.775132611092));
#1282 = CARTESIAN_POINT('',(1.963495408344,-3.926991281775));
#1283 = CARTESIAN_POINT('',(1.767145867471,-1.963495406764));
#1284 = CARTESIAN_POINT('',(1.570796326597,1.976772462835E-09));
#1285 = ( GEOMETRIC_REPRESENTATION_CONTEXT(2) 
PARAMETRIC_REPRESENTATION_CONTEXT() REPRESENTATION_CONTEXT('2D SPACE',''
  ) );
#1286 = PCURVE('',#944,#1287);
#1287 = DEFINITIONAL_REPRESENTATION('',(#1288),#1298);
#1288 = B_SPLINE_CURVE_WITH_KNOTS('',8,(#1289,#1290,#1291,#1292,#1293,
    #1294,#1295,#1296,#1297),.UNSPECIFIED.,.F.,.F.,(9,9),(3.14159265359,
    4.712388980582),.PIECEWISE_BEZIER_KNOTS.);
#1289 = CARTESIAN_POINT('',(-8.881784197001E-16,-10.));
#1290 = CARTESIAN_POINT('',(0.196349540874,-10.));
#1291 = CARTESIAN_POINT('',(0.392699081747,-9.559392240018));
#1292 = CARTESIAN_POINT('',(0.589048622624,-8.678180463041));
#1293 = CARTESIAN_POINT('',(0.785398163494,-7.392587505088));
#1294 = CARTESIAN_POINT('',(0.981747704371,-5.775132611092));
#1295 = CARTESIAN_POINT('',(1.178097245243,-3.926991281775));
#1296 = CARTESIAN_POINT('',(1.374446786119,-1.963495406764));
#1297 = CARTESIAN_POINT('',(1.570796326993,1.976772462835E-09));
#1298 = ( GEOMETRIC_REPRESENTATION_CONTEXT(2) 
PARAMETRIC_REPRESENTATION_CONTEXT() REPRESENTATION_CONTEXT('2D SPACE',''
  ) );
#1299 = ADVANCED_FACE('',(#1300),#944,.F.);
#1300 = FACE_BOUND('',#1301,.F.);
#1301 = EDGE_LOOP('',(#1302,#1303,#1304,#1325,#1326,#1327));
#1302 = ORIENTED_EDGE('',*,*,#1154,.F.);
#1303 = ORIENTED_EDGE('',*,*,#1266,.F.);
#1304 = ORIENTED_EDGE('',*,*,#1305,.T.);
#1305 = EDGE_CURVE('',#1231,#928,#1306,.T.);
#1306 = SEAM_CURVE('',#1307,(#1311,#1318),.PCURVE_S1.);
#1307 = LINE('',#1308,#1309);
#1308 = CARTESIAN_POINT('',(0.,10.,0.));
#1309 = VECTOR('',#1310,1.);
#1310 = DIRECTION('',(-1.,-0.,-0.));
#1311 = PCURVE('',#944,#1312);
#1312 = DEFINITIONAL_REPRESENTATION('',(#1313),#1317);
#1313 = LINE('',#1314,#1315);
#1314 = CARTESIAN_POINT('',(6.28318530718,0.));
#1315 = VECTOR('',#1316,1.);
#1316 = DIRECTION('',(0.,-1.));
#1317 = ( GEOMETRIC_REPRESENTATION_CONTEXT(2) 
PARAMETRIC_REPRESENTATION_CONTEXT() REPRESENTATION_CONTEXT('2D SPACE',''
  ) );
#1318 = PCURVE('',#944,#1319);
#1319 = DEFINITIONAL_REPRESENTATION('',(#1320),#1324);
#1320 = LINE('',#1321,#1322);
#1321 = CARTESIAN_POINT('',(0.,0.));
#1322 = VECTOR('',#1323,1.);
#1323 = DIRECTION('',(0.,-1.));
#1324 = ( GEOMETRIC_REPRESENTATION_CONTEXT(2) 
PARAMETRIC_REPRESENTATION_CONTEXT() REPRESENTATION_CONTEXT('2D SPACE',''
  ) );
#1325 = ORIENTED_EDGE('',*,*,#927,.T.);
#1326 = ORIENTED_EDGE('',*,*,#1305,.F.);
#1327 = ORIENTED_EDGE('',*,*,#1230,.F.);
#1328 = ( GEOMETRIC_REPRESENTATION_CONTEXT(3) 
GLOBAL_UNCERTAINTY_ASSIGNED_CONTEXT((#1332)) 
GLOBAL_UNIT_ASSIGNED_CONTEXT((#1329,#1330,#1331)) REPRESENTATION_CONTEXT
('Context #1','3D Context with UNIT and UNCERTAINTY') );
#1329 = ( LENGTH_UNIT() NAMED_UNIT(*) SI_UNIT(.MILLI.,.METRE.) );
#1330 = ( NAMED_UNIT(*) PLANE_ANGLE_UNIT() SI_UNIT($,.RADIAN.) );
#1331 = ( NAMED_UNIT(*) SI_UNIT($,.STERADIAN.) SOLID_ANGLE_UNIT() );
#1332 = UNCERTAINTY_MEASURE_WITH_UNIT(LENGTH_MEASURE(1.E-07),#1329,
  'distance_accuracy_value','confusion accuracy');
#1333 = PRODUCT_RELATED_PRODUCT_CATEGORY('part',$,(#7));
ENDSEC;
END-ISO-10303-21;
