ISO-10303-21;
HEADER;
FILE_DESCRIPTION(('Open CASCADE Model'),'2;1');
FILE_NAME('Open CASCADE Shape Model','2026-08-07T02:34:18',('Author'),(
    'Open CASCADE'),'Open CASCADE STEP processor 7.7','Open CASCADE 7.7'
  ,'Unknown');
FILE_SCHEMA(('AUTOMOTIVE_DESIGN { 1 0 10303 214 1 1 1 1 }'));
ENDSEC;
DATA;
#1 = APPLICATION_PROTOCOL_DEFINITION('international standard',
  'automotive_design',2000,#2);
#2 = APPLICATION_CONTEXT(
  'core data for automotive mechanical design processes');
#3 = SHAPE_DEFINITION_REPRESENTATION(#4,#10);
#4 = PRODUCT_DEFINITION_SHAPE('','',#5);
#5 = PRODUCT_DEFINITION('design','',#6,#9);
#6 = PRODUCT_DEFINITION_FORMATION('','',#7);
#7 = PRODUCT('Open CASCADE STEP translator 7.7 48',
  'Open CASCADE STEP translator 7.7 48','',(#8));
#8 = PRODUCT_CONTEXT('',#2,'mechanical');
#9 = PRODUCT_DEFINITION_CONTEXT('part definition',#2,'design');
#10 = ADVANCED_BREP_SHAPE_REPRESENTATION('',(#11,#15),#849);
#11 = AXIS2_PLACEMENT_3D('',#12,#13,#14);
#12 = CARTESIAN_POINT('',(0.,0.,0.));
#13 = DIRECTION('',(0.,0.,1.));
#14 = DIRECTION('',(1.,0.,-0.));
#15 = MANIFOLD_SOLID_BREP('',#16);
#16 = CLOSED_SHELL('',(#17,#310,#416,#574,#599,#792,#816,#843));
#17 = ADVANCED_FACE('',(#18),#52,.T.);
#18 = FACE_BOUND('',#19,.T.);
#19 = EDGE_LOOP('',(#20,#115,#143,#231,#258,#285));
#20 = ORIENTED_EDGE('',*,*,#21,.F.);
#21 = EDGE_CURVE('',#22,#24,#26,.T.);
#22 = VERTEX_POINT('',#23);
#23 = CARTESIAN_POINT('',(-10.,17.320508075689,0.));
#24 = VERTEX_POINT('',#25);
#25 = CARTESIAN_POINT('',(1.060575238725E-15,17.320508075689,30.));
#26 = SURFACE_CURVE('',#27,(#51,#83),.PCURVE_S1.);
#27 = B_SPLINE_CURVE_WITH_KNOTS('',8,(#28,#29,#30,#31,#32,#33,#34,#35,
    #36,#37,#38,#39,#40,#41,#42,#43,#44,#45,#46,#47,#48,#49,#50),
  .UNSPECIFIED.,.F.,.F.,(9,7,7,9),(0.,0.370389557722,0.843719864953,1.),
  .UNSPECIFIED.);
#28 = CARTESIAN_POINT('',(-10.,17.320508075689,0.));
#29 = CARTESIAN_POINT('',(-9.469530416861,17.320508075689,1.591408749417
    ));
#30 = CARTESIAN_POINT('',(-8.942012108818,17.320508075689,3.173963673547
    ));
#31 = CARTESIAN_POINT('',(-8.417841305319,17.320508075689,4.746476084042
    ));
#32 = CARTESIAN_POINT('',(-7.897541299954,17.320508075689,6.307376100139
    ));
#33 = CARTESIAN_POINT('',(-7.381760142664,17.320508075689,7.854719572009
    ));
#34 = CARTESIAN_POINT('',(-6.871266077381,17.320508075689,9.386201767857
    ));
#35 = CARTESIAN_POINT('',(-6.366936785252,17.320508075689,
    10.899189644245));
#36 = CARTESIAN_POINT('',(-5.234356055812,17.320508075689,
    14.296931832564));
#37 = CARTESIAN_POINT('',(-4.610417189087,17.320508075689,
    16.168748432741));
#38 = CARTESIAN_POINT('',(-4.000305712662,17.320508075689,
    17.999082862008));
#39 = CARTESIAN_POINT('',(-3.406634935718,17.320508075689,
    19.780095192854));
#40 = CARTESIAN_POINT('',(-2.832114993515,17.320508075689,
    21.503655019452));
#41 = CARTESIAN_POINT('',(-2.279353836901,17.320508075689,
    23.161938489298));
#42 = CARTESIAN_POINT('',(-1.750607026977,17.320508075689,
    24.748178919069));
#43 = CARTESIAN_POINT('',(-1.081593351568,17.320508075689,
    26.755219945296));
#44 = CARTESIAN_POINT('',(-0.918332130721,17.320508075689,
    27.245003607837));
#45 = CARTESIAN_POINT('',(-0.757927714634,17.320508075689,
    27.726216856098));
#46 = CARTESIAN_POINT('',(-0.60042608302,17.320508075689,28.198721750941
    ));
#47 = CARTESIAN_POINT('',(-0.445862405465,17.320508075689,
    28.662412783606));
#48 = CARTESIAN_POINT('',(-0.294261582328,17.320508075689,
    29.117215253016));
#49 = CARTESIAN_POINT('',(-0.145638785639,17.320508075689,
    29.563083643082));
#50 = CARTESIAN_POINT('',(0.,17.320508075689,30.));
#51 = PCURVE('',#52,#57);
#52 = B_SPLINE_SURFACE_WITH_KNOTS('',1,1,(
    (#53,#54)
    ,(#55,#56)),.UNSPECIFIED.,.F.,.F.,.F.,(2,2),(2,2),(0.,60.),(0.,1.),
  .PIECEWISE_BEZIER_KNOTS.);
#53 = CARTESIAN_POINT('',(2.12115047745E-15,34.641016151378,0.));
#54 = CARTESIAN_POINT('',(7.070501591499E-16,11.547005383793,40.));
#55 = CARTESIAN_POINT('',(-30.,-17.32050807568,0.));
#56 = CARTESIAN_POINT('',(-10.,-5.773502691896,40.));
#57 = DEFINITIONAL_REPRESENTATION('',(#58),#82);
#58 = B_SPLINE_CURVE_WITH_KNOTS('',8,(#59,#60,#61,#62,#63,#64,#65,#66,
    #67,#68,#69,#70,#71,#72,#73,#74,#75,#76,#77,#78,#79,#80,#81),
  .UNSPECIFIED.,.F.,.F.,(9,7,7,9),(0.,0.370389557722,0.843719864953,1.),
  .UNSPECIFIED.);
#59 = CARTESIAN_POINT('',(20.,0.));
#60 = CARTESIAN_POINT('',(19.469530416861,3.978521873542E-02));
#61 = CARTESIAN_POINT('',(18.909852312687,7.934909183864E-02));
#62 = CARTESIAN_POINT('',(18.318576358269,0.118661902101));
#63 = CARTESIAN_POINT('',(17.693149536341,0.157684402503));
#64 = CARTESIAN_POINT('',(17.030871378411,0.1963679893));
#65 = CARTESIAN_POINT('',(16.328927827416,0.234655044196));
#66 = CARTESIAN_POINT('',(15.584473829458,0.272479741106));
#67 = CARTESIAN_POINT('',(13.785645914455,0.357423295814));
#68 = CARTESIAN_POINT('',(12.702320175538,0.404218710819));
#69 = CARTESIAN_POINT('',(11.539635507965,0.44997707155));
#70 = CARTESIAN_POINT('',(10.293017595545,0.494502379822));
#71 = CARTESIAN_POINT('',(8.959085691402,0.537591375486));
#72 = CARTESIAN_POINT('',(7.536532983151,0.579048462233));
#73 = CARTESIAN_POINT('',(6.027271471649,0.618704472977));
#74 = CARTESIAN_POINT('',(3.91197577035,0.668880498632));
#75 = CARTESIAN_POINT('',(3.378056015444,0.681125090196));
#76 = CARTESIAN_POINT('',(2.835448942714,0.693155421402));
#77 = CARTESIAN_POINT('',(2.284358380802,0.704968043774));
#78 = CARTESIAN_POINT('',(1.725010824106,0.71656031959));
#79 = CARTESIAN_POINT('',(1.157653951085,0.727930381325));
#80 = CARTESIAN_POINT('',(0.582555142557,0.739077091077));
#81 = CARTESIAN_POINT('',(0.,0.75));
#82 = ( GEOMETRIC_REPRESENTATION_CONTEXT(2) 
PARAMETRIC_REPRESENTATION_CONTEXT() REPRESENTATION_CONTEXT('2D SPACE',''
  ) );
#83 = PCURVE('',#84,#89);
#84 = PLANE('',#85);
#85 = AXIS2_PLACEMENT_3D('',#86,#87,#88);
#86 = CARTESIAN_POINT('',(50.,17.320508075689,-25.));
#87 = DIRECTION('',(1.110223024625E-16,1.,0.));
#88 = DIRECTION('',(0.,0.,1.));
#89 = DEFINITIONAL_REPRESENTATION('',(#90),#114);
#90 = B_SPLINE_CURVE_WITH_KNOTS('',8,(#91,#92,#93,#94,#95,#96,#97,#98,
    #99,#100,#101,#102,#103,#104,#105,#106,#107,#108,#109,#110,#111,#112
    ,#113),.UNSPECIFIED.,.F.,.F.,(9,7,7,9),(0.,0.370389557722,
    0.843719864953,1.),.UNSPECIFIED.);
#91 = CARTESIAN_POINT('',(25.,-60.));
#92 = CARTESIAN_POINT('',(26.591408749417,-59.46953041686));
#93 = CARTESIAN_POINT('',(28.173963673547,-58.94201210881));
#94 = CARTESIAN_POINT('',(29.746476084042,-58.41784130531));
#95 = CARTESIAN_POINT('',(31.307376100139,-57.89754129995));
#96 = CARTESIAN_POINT('',(32.854719572009,-57.38176014266));
#97 = CARTESIAN_POINT('',(34.386201767857,-56.87126607738));
#98 = CARTESIAN_POINT('',(35.899189644245,-56.36693678525));
#99 = CARTESIAN_POINT('',(39.296931832564,-55.23435605581));
#100 = CARTESIAN_POINT('',(41.168748432741,-54.61041718908));
#101 = CARTESIAN_POINT('',(42.999082862008,-54.00030571266));
#102 = CARTESIAN_POINT('',(44.780095192854,-53.40663493571));
#103 = CARTESIAN_POINT('',(46.503655019452,-52.83211499351));
#104 = CARTESIAN_POINT('',(48.161938489298,-52.2793538369));
#105 = CARTESIAN_POINT('',(49.748178919069,-51.75060702697));
#106 = CARTESIAN_POINT('',(51.755219945296,-51.08159335156));
#107 = CARTESIAN_POINT('',(52.245003607837,-50.91833213072));
#108 = CARTESIAN_POINT('',(52.726216856098,-50.75792771463));
#109 = CARTESIAN_POINT('',(53.198721750941,-50.60042608302));
#110 = CARTESIAN_POINT('',(53.662412783606,-50.44586240546));
#111 = CARTESIAN_POINT('',(54.117215253016,-50.29426158232));
#112 = CARTESIAN_POINT('',(54.563083643082,-50.14563878563));
#113 = CARTESIAN_POINT('',(55.,-50.));
#114 = ( GEOMETRIC_REPRESENTATION_CONTEXT(2) 
PARAMETRIC_REPRESENTATION_CONTEXT() REPRESENTATION_CONTEXT('2D SPACE',''
  ) );
#115 = ORIENTED_EDGE('',*,*,#116,.T.);
#116 = EDGE_CURVE('',#22,#117,#119,.T.);
#117 = VERTEX_POINT('',#118);
#118 = CARTESIAN_POINT('',(-20.,-7.105427357601E-15,0.));
#119 = SURFACE_CURVE('',#120,(#124,#131),.PCURVE_S1.);
#120 = LINE('',#121,#122);
#121 = CARTESIAN_POINT('',(2.12115047745E-15,34.641016151378,0.));
#122 = VECTOR('',#123,1.);
#123 = DIRECTION('',(-0.5,-0.866025403784,0.));
#124 = PCURVE('',#52,#125);
#125 = DEFINITIONAL_REPRESENTATION('',(#126),#130);
#126 = LINE('',#127,#128);
#127 = CARTESIAN_POINT('',(0.,0.));
#128 = VECTOR('',#129,1.);
#129 = DIRECTION('',(1.,0.));
#130 = ( GEOMETRIC_REPRESENTATION_CONTEXT(2) 
PARAMETRIC_REPRESENTATION_CONTEXT() REPRESENTATION_CONTEXT('2D SPACE',''
  ) );
#131 = PCURVE('',#132,#137);
#132 = PLANE('',#133);
#133 = AXIS2_PLACEMENT_3D('',#134,#135,#136);
#134 = CARTESIAN_POINT('',(2.12115047745E-15,34.641016151378,0.));
#135 = DIRECTION('',(0.,0.,1.));
#136 = DIRECTION('',(-0.5,-0.866025403784,0.));
#137 = DEFINITIONAL_REPRESENTATION('',(#138),#142);
#138 = LINE('',#139,#140);
#139 = CARTESIAN_POINT('',(0.,0.));
#140 = VECTOR('',#141,1.);
#141 = DIRECTION('',(1.,0.));
#142 = ( GEOMETRIC_REPRESENTATION_CONTEXT(2) 
PARAMETRIC_REPRESENTATION_CONTEXT() REPRESENTATION_CONTEXT('2D SPACE',''
  ) );
#143 = ORIENTED_EDGE('',*,*,#144,.T.);
#144 = EDGE_CURVE('',#117,#145,#147,.T.);
#145 = VERTEX_POINT('',#146);
#146 = CARTESIAN_POINT('',(-15.,-8.660254037844,30.));
#147 = SURFACE_CURVE('',#148,(#172,#199),.PCURVE_S1.);
#148 = B_SPLINE_CURVE_WITH_KNOTS('',8,(#149,#150,#151,#152,#153,#154,
    #155,#156,#157,#158,#159,#160,#161,#162,#163,#164,#165,#166,#167,
    #168,#169,#170,#171),.UNSPECIFIED.,.F.,.F.,(9,7,7,9),(0.,
    0.370389557723,0.843719864954,1.),.UNSPECIFIED.);
#149 = CARTESIAN_POINT('',(-20.,0.,0.));
#150 = CARTESIAN_POINT('',(-19.73476520843,-0.459400134933,
    1.591408749416));
#151 = CARTESIAN_POINT('',(-19.4710060544,-0.91624439066,3.173963673548)
  );
#152 = CARTESIAN_POINT('',(-19.20892065265,-1.370189622412,4.74647608404
    ));
#153 = CARTESIAN_POINT('',(-18.94877064997,-1.820782644648,
    6.307376100139));
#154 = CARTESIAN_POINT('',(-18.69088007133,-2.267462229654,
    7.854719572011));
#155 = CARTESIAN_POINT('',(-18.43563303869,-2.70956305867,9.386201767855
    ));
#156 = CARTESIAN_POINT('',(-18.18346839262,-3.146325037527,
    10.899189644246));
#157 = CARTESIAN_POINT('',(-17.6171780279,-4.127168721056,
    14.296931832556));
#158 = CARTESIAN_POINT('',(-17.30520859453,-4.667515630062,
    16.168748432774));
#159 = CARTESIAN_POINT('',(-17.00015285634,-5.195887667747,
    17.999082861936));
#160 = CARTESIAN_POINT('',(-16.70331746783,-5.71002164213,
    19.780095192947));
#161 = CARTESIAN_POINT('',(-16.41605749677,-6.207570506994,
    21.503655019378));
#162 = CARTESIAN_POINT('',(-16.13967691844,-6.686275710886,
    23.161938489332));
#163 = CARTESIAN_POINT('',(-15.87530351349,-7.144183880436,
    24.748178919061));
#164 = CARTESIAN_POINT('',(-15.54079667578,-7.723566718822,
    26.755219945296));
#165 = CARTESIAN_POINT('',(-15.45916606536,-7.864955083528,
    27.245003607837));
#166 = CARTESIAN_POINT('',(-15.37896385731,-8.003869382739,
    27.726216856098));
#167 = CARTESIAN_POINT('',(-15.30021304151,-8.140269796854,
    28.198721750941));
#168 = CARTESIAN_POINT('',(-15.22293120273,-8.274125868119,
    28.662412783606));
#169 = CARTESIAN_POINT('',(-15.14713079116,-8.405416032191,
    29.117215253016));
#170 = CARTESIAN_POINT('',(-15.07281939282,-8.534127149704,
    29.563083643082));
#171 = CARTESIAN_POINT('',(-15.,-8.660254037844,30.));
#172 = PCURVE('',#52,#173);
#173 = DEFINITIONAL_REPRESENTATION('',(#174),#198);
#174 = B_SPLINE_CURVE_WITH_KNOTS('',8,(#175,#176,#177,#178,#179,#180,
    #181,#182,#183,#184,#185,#186,#187,#188,#189,#190,#191,#192,#193,
    #194,#195,#196,#197),.UNSPECIFIED.,.F.,.F.,(9,7,7,9),(0.,
    0.370389557723,0.843719864954,1.),.UNSPECIFIED.);
#175 = CARTESIAN_POINT('',(40.,0.));
#176 = CARTESIAN_POINT('',(40.530469583139,3.978521873541E-02));
#177 = CARTESIAN_POINT('',(41.090147687316,7.934909183869E-02));
#178 = CARTESIAN_POINT('',(41.681423641727,0.118661902101));
#179 = CARTESIAN_POINT('',(42.306850463659,0.157684402503));
#180 = CARTESIAN_POINT('',(42.969128621592,0.1963679893));
#181 = CARTESIAN_POINT('',(43.671072172581,0.234655044196));
#182 = CARTESIAN_POINT('',(44.415526170542,0.272479741106));
#183 = CARTESIAN_POINT('',(46.214354085541,0.357423295814));
#184 = CARTESIAN_POINT('',(47.297679824484,0.404218710819));
#185 = CARTESIAN_POINT('',(48.46036449198,0.449977071548));
#186 = CARTESIAN_POINT('',(49.706982404532,0.494502379824));
#187 = CARTESIAN_POINT('',(51.040914308532,0.537591375484));
#188 = CARTESIAN_POINT('',(52.463467016882,0.579048462233));
#189 = CARTESIAN_POINT('',(53.972728528343,0.618704472977));
#190 = CARTESIAN_POINT('',(56.088024229649,0.668880498632));
#191 = CARTESIAN_POINT('',(56.621943984556,0.681125090196));
#192 = CARTESIAN_POINT('',(57.164551057286,0.693155421402));
#193 = CARTESIAN_POINT('',(57.715641619198,0.704968043774));
#194 = CARTESIAN_POINT('',(58.274989175894,0.71656031959));
#195 = CARTESIAN_POINT('',(58.842346048915,0.727930381325));
#196 = CARTESIAN_POINT('',(59.417444857443,0.739077091077));
#197 = CARTESIAN_POINT('',(60.,0.75));
#198 = ( GEOMETRIC_REPRESENTATION_CONTEXT(2) 
PARAMETRIC_REPRESENTATION_CONTEXT() REPRESENTATION_CONTEXT('2D SPACE',''
  ) );
#199 = PCURVE('',#200,#205);
#200 = PLANE('',#201);
#201 = AXIS2_PLACEMENT_3D('',#202,#203,#204);
#202 = CARTESIAN_POINT('',(-40.,34.641016151378,-25.));
#203 = DIRECTION('',(-0.866025403784,-0.5,0.));
#204 = DIRECTION('',(0.,0.,1.));
#205 = DEFINITIONAL_REPRESENTATION('',(#206),#230);
#206 = B_SPLINE_CURVE_WITH_KNOTS('',8,(#207,#208,#209,#210,#211,#212,
    #213,#214,#215,#216,#217,#218,#219,#220,#221,#222,#223,#224,#225,
    #226,#227,#228,#229),.UNSPECIFIED.,.F.,.F.,(9,7,7,9),(0.,
    0.370389557723,0.843719864954,1.),.UNSPECIFIED.);
#207 = CARTESIAN_POINT('',(25.,-40.));
#208 = CARTESIAN_POINT('',(26.591408749416,-40.53046958313));
#209 = CARTESIAN_POINT('',(28.173963673548,-41.05798789118));
#210 = CARTESIAN_POINT('',(29.74647608404,-41.58215869468));
#211 = CARTESIAN_POINT('',(31.307376100139,-42.10245870004));
#212 = CARTESIAN_POINT('',(32.854719572011,-42.61823985733));
#213 = CARTESIAN_POINT('',(34.386201767855,-43.12873392261));
#214 = CARTESIAN_POINT('',(35.899189644246,-43.63306321474));
#215 = CARTESIAN_POINT('',(39.296931832556,-44.76564394418));
#216 = CARTESIAN_POINT('',(41.168748432774,-45.38958281092));
#217 = CARTESIAN_POINT('',(42.999082861936,-45.9996942873));
#218 = CARTESIAN_POINT('',(44.780095192947,-46.59336506432));
#219 = CARTESIAN_POINT('',(46.503655019378,-47.16788500645));
#220 = CARTESIAN_POINT('',(48.161938489332,-47.72064616311));
#221 = CARTESIAN_POINT('',(49.748178919061,-48.24939297302));
#222 = CARTESIAN_POINT('',(51.755219945296,-48.91840664843));
#223 = CARTESIAN_POINT('',(52.245003607837,-49.08166786927));
#224 = CARTESIAN_POINT('',(52.726216856098,-49.24207228536));
#225 = CARTESIAN_POINT('',(53.198721750941,-49.39957391698));
#226 = CARTESIAN_POINT('',(53.662412783606,-49.55413759453));
#227 = CARTESIAN_POINT('',(54.117215253016,-49.70573841767));
#228 = CARTESIAN_POINT('',(54.563083643082,-49.85436121436));
#229 = CARTESIAN_POINT('',(55.,-50.));
#230 = ( GEOMETRIC_REPRESENTATION_CONTEXT(2) 
PARAMETRIC_REPRESENTATION_CONTEXT() REPRESENTATION_CONTEXT('2D SPACE',''
  ) );
#231 = ORIENTED_EDGE('',*,*,#232,.T.);
#232 = EDGE_CURVE('',#145,#233,#235,.T.);
#233 = VERTEX_POINT('',#234);
#234 = CARTESIAN_POINT('',(-10.,-5.773502691896,40.));
#235 = SURFACE_CURVE('',#236,(#239,#246),.PCURVE_S1.);
#236 = B_SPLINE_CURVE_WITH_KNOTS('',1,(#237,#238),.UNSPECIFIED.,.F.,.F.,
  (2,2),(0.,1.),.PIECEWISE_BEZIER_KNOTS.);
#237 = CARTESIAN_POINT('',(-30.,-17.32050807568,0.));
#238 = CARTESIAN_POINT('',(-10.,-5.773502691896,40.));
#239 = PCURVE('',#52,#240);
#240 = DEFINITIONAL_REPRESENTATION('',(#241),#245);
#241 = LINE('',#242,#243);
#242 = CARTESIAN_POINT('',(60.,0.));
#243 = VECTOR('',#244,1.);
#244 = DIRECTION('',(0.,1.));
#245 = ( GEOMETRIC_REPRESENTATION_CONTEXT(2) 
PARAMETRIC_REPRESENTATION_CONTEXT() REPRESENTATION_CONTEXT('2D SPACE',''
  ) );
#246 = PCURVE('',#247,#252);
#247 = B_SPLINE_SURFACE_WITH_KNOTS('',1,1,(
    (#248,#249)
    ,(#250,#251
  )),.UNSPECIFIED.,.F.,.F.,.F.,(2,2),(2,2),(0.,60.),(0.,1.),
  .PIECEWISE_BEZIER_KNOTS.);
#248 = CARTESIAN_POINT('',(-30.,-17.32050807568,0.));
#249 = CARTESIAN_POINT('',(-10.,-5.773502691896,40.));
#250 = CARTESIAN_POINT('',(30.,-17.32050807568,0.));
#251 = CARTESIAN_POINT('',(10.,-5.773502691896,40.));
#252 = DEFINITIONAL_REPRESENTATION('',(#253),#257);
#253 = LINE('',#254,#255);
#254 = CARTESIAN_POINT('',(0.,0.));
#255 = VECTOR('',#256,1.);
#256 = DIRECTION('',(0.,1.));
#257 = ( GEOMETRIC_REPRESENTATION_CONTEXT(2) 
PARAMETRIC_REPRESENTATION_CONTEXT() REPRESENTATION_CONTEXT('2D SPACE',''
  ) );
#258 = ORIENTED_EDGE('',*,*,#259,.F.);
#259 = EDGE_CURVE('',#260,#233,#262,.T.);
#260 = VERTEX_POINT('',#261);
#261 = CARTESIAN_POINT('',(7.070501591499E-16,11.547005383793,40.));
#262 = SURFACE_CURVE('',#263,(#267,#273),.PCURVE_S1.);
#263 = LINE('',#264,#265);
#264 = CARTESIAN_POINT('',(7.070501591499E-16,11.547005383793,40.));
#265 = VECTOR('',#266,1.);
#266 = DIRECTION('',(-0.5,-0.866025403784,0.));
#267 = PCURVE('',#52,#268);
#268 = DEFINITIONAL_REPRESENTATION('',(#269),#272);
#269 = B_SPLINE_CURVE_WITH_KNOTS('',1,(#270,#271),.UNSPECIFIED.,.F.,.F.,
  (2,2),(0.,20.),.PIECEWISE_BEZIER_KNOTS.);
#270 = CARTESIAN_POINT('',(0.,1.));
#271 = CARTESIAN_POINT('',(60.,1.));
#272 = ( GEOMETRIC_REPRESENTATION_CONTEXT(2) 
PARAMETRIC_REPRESENTATION_CONTEXT() REPRESENTATION_CONTEXT('2D SPACE',''
  ) );
#273 = PCURVE('',#274,#279);
#274 = PLANE('',#275);
#275 = AXIS2_PLACEMENT_3D('',#276,#277,#278);
#276 = CARTESIAN_POINT('',(7.070501591499E-16,11.547005383793,40.));
#277 = DIRECTION('',(0.,-0.,-1.));
#278 = DIRECTION('',(0.5,-0.866025403784,0.));
#279 = DEFINITIONAL_REPRESENTATION('',(#280),#284);
#280 = LINE('',#281,#282);
#281 = CARTESIAN_POINT('',(0.,0.));
#282 = VECTOR('',#283,1.);
#283 = DIRECTION('',(0.5,0.866025403784));
#284 = ( GEOMETRIC_REPRESENTATION_CONTEXT(2) 
PARAMETRIC_REPRESENTATION_CONTEXT() REPRESENTATION_CONTEXT('2D SPACE',''
  ) );
#285 = ORIENTED_EDGE('',*,*,#286,.F.);
#286 = EDGE_CURVE('',#24,#260,#287,.T.);
#287 = SURFACE_CURVE('',#288,(#291,#298),.PCURVE_S1.);
#288 = B_SPLINE_CURVE_WITH_KNOTS('',1,(#289,#290),.UNSPECIFIED.,.F.,.F.,
  (2,2),(0.,1.),.PIECEWISE_BEZIER_KNOTS.);
#289 = CARTESIAN_POINT('',(2.12115047745E-15,34.641016151378,0.));
#290 = CARTESIAN_POINT('',(7.070501591499E-16,11.547005383793,40.));
#291 = PCURVE('',#52,#292);
#292 = DEFINITIONAL_REPRESENTATION('',(#293),#297);
#293 = LINE('',#294,#295);
#294 = CARTESIAN_POINT('',(0.,0.));
#295 = VECTOR('',#296,1.);
#296 = DIRECTION('',(0.,1.));
#297 = ( GEOMETRIC_REPRESENTATION_CONTEXT(2) 
PARAMETRIC_REPRESENTATION_CONTEXT() REPRESENTATION_CONTEXT('2D SPACE',''
  ) );
#298 = PCURVE('',#299,#304);
#299 = B_SPLINE_SURFACE_WITH_KNOTS('',1,1,(
    (#300,#301)
    ,(#302,#303
  )),.UNSPECIFIED.,.F.,.F.,.F.,(2,2),(2,2),(0.,60.),(0.,1.),
  .PIECEWISE_BEZIER_KNOTS.);
#300 = CARTESIAN_POINT('',(30.,-17.32050807568,0.));
#301 = CARTESIAN_POINT('',(10.,-5.773502691896,40.));
#302 = CARTESIAN_POINT('',(3.552713678801E-15,34.641016151378,0.));
#303 = CARTESIAN_POINT('',(0.,11.547005383793,40.));
#304 = DEFINITIONAL_REPRESENTATION('',(#305),#309);
#305 = LINE('',#306,#307);
#306 = CARTESIAN_POINT('',(60.,0.));
#307 = VECTOR('',#308,1.);
#308 = DIRECTION('',(0.,1.));
#309 = ( GEOMETRIC_REPRESENTATION_CONTEXT(2) 
PARAMETRIC_REPRESENTATION_CONTEXT() REPRESENTATION_CONTEXT('2D SPACE',''
  ) );
#310 = ADVANCED_FACE('',(#311),#84,.T.);
#311 = FACE_BOUND('',#312,.T.);
#312 = EDGE_LOOP('',(#313,#334,#335));
#313 = ORIENTED_EDGE('',*,*,#314,.T.);
#314 = EDGE_CURVE('',#315,#22,#317,.T.);
#315 = VERTEX_POINT('',#316);
#316 = CARTESIAN_POINT('',(10.,17.320508075689,0.));
#317 = SURFACE_CURVE('',#318,(#322,#328),.PCURVE_S1.);
#318 = LINE('',#319,#320);
#319 = CARTESIAN_POINT('',(25.,17.320508075689,0.));
#320 = VECTOR('',#321,1.);
#321 = DIRECTION('',(-1.,1.110223024625E-16,0.));
#322 = PCURVE('',#84,#323);
#323 = DEFINITIONAL_REPRESENTATION('',(#324),#327);
#324 = B_SPLINE_CURVE_WITH_KNOTS('',1,(#325,#326),.UNSPECIFIED.,.F.,.F.,
  (2,2),(-5.,35.),.PIECEWISE_BEZIER_KNOTS.);
#325 = CARTESIAN_POINT('',(25.,-20.));
#326 = CARTESIAN_POINT('',(25.,-60.));
#327 = ( GEOMETRIC_REPRESENTATION_CONTEXT(2) 
PARAMETRIC_REPRESENTATION_CONTEXT() REPRESENTATION_CONTEXT('2D SPACE',''
  ) );
#328 = PCURVE('',#132,#329);
#329 = DEFINITIONAL_REPRESENTATION('',(#330),#333);
#330 = B_SPLINE_CURVE_WITH_KNOTS('',1,(#331,#332),.UNSPECIFIED.,.F.,.F.,
  (2,2),(-5.,35.),.PIECEWISE_BEZIER_KNOTS.);
#331 = CARTESIAN_POINT('',(-3.10862446895E-15,34.641016151378));
#332 = CARTESIAN_POINT('',(20.,-7.105427357601E-15));
#333 = ( GEOMETRIC_REPRESENTATION_CONTEXT(2) 
PARAMETRIC_REPRESENTATION_CONTEXT() REPRESENTATION_CONTEXT('2D SPACE',''
  ) );
#334 = ORIENTED_EDGE('',*,*,#21,.T.);
#335 = ORIENTED_EDGE('',*,*,#336,.F.);
#336 = EDGE_CURVE('',#315,#24,#337,.T.);
#337 = SURFACE_CURVE('',#338,(#362,#389),.PCURVE_S1.);
#338 = B_SPLINE_CURVE_WITH_KNOTS('',8,(#339,#340,#341,#342,#343,#344,
    #345,#346,#347,#348,#349,#350,#351,#352,#353,#354,#355,#356,#357,
    #358,#359,#360,#361),.UNSPECIFIED.,.F.,.F.,(9,7,7,9),(0.,
    0.370389557724,0.843719864954,1.),.UNSPECIFIED.);
#339 = CARTESIAN_POINT('',(10.,17.320508075689,0.));
#340 = CARTESIAN_POINT('',(9.469530416861,17.320508075689,1.591408749417
    ));
#341 = CARTESIAN_POINT('',(8.942012108817,17.320508075689,3.173963673547
    ));
#342 = CARTESIAN_POINT('',(8.41784130532,17.320508075689,4.746476084042)
  );
#343 = CARTESIAN_POINT('',(7.897541299954,17.320508075689,6.307376100139
    ));
#344 = CARTESIAN_POINT('',(7.381760142663,17.320508075689,7.854719572009
    ));
#345 = CARTESIAN_POINT('',(6.871266077381,17.320508075689,9.386201767857
    ));
#346 = CARTESIAN_POINT('',(6.366936785251,17.320508075689,
    10.899189644246));
#347 = CARTESIAN_POINT('',(5.234356055817,17.320508075689,14.29693183255
    ));
#348 = CARTESIAN_POINT('',(4.610417189067,17.320508075689,
    16.168748432808));
#349 = CARTESIAN_POINT('',(4.000305712705,17.320508075689,
    17.999082861858));
#350 = CARTESIAN_POINT('',(3.406634935664,17.320508075689,
    19.780095193045));
#351 = CARTESIAN_POINT('',(2.832114993555,17.320508075689,
    21.503655019308));
#352 = CARTESIAN_POINT('',(2.279353836884,17.320508075689,
    23.161938489358));
#353 = CARTESIAN_POINT('',(1.750607026981,17.320508075689,
    24.748178919057));
#354 = CARTESIAN_POINT('',(1.081593351568,17.320508075689,
    26.755219945296));
#355 = CARTESIAN_POINT('',(0.918332130721,17.320508075689,
    27.245003607837));
#356 = CARTESIAN_POINT('',(0.757927714634,17.320508075689,
    27.726216856098));
#357 = CARTESIAN_POINT('',(0.60042608302,17.320508075689,28.198721750941
    ));
#358 = CARTESIAN_POINT('',(0.445862405465,17.320508075689,
    28.662412783606));
#359 = CARTESIAN_POINT('',(0.294261582328,17.320508075689,
    29.117215253016));
#360 = CARTESIAN_POINT('',(0.145638785639,17.320508075689,
    29.563083643082));
#361 = CARTESIAN_POINT('',(0.,17.320508075689,30.));
#362 = PCURVE('',#84,#363);
#363 = DEFINITIONAL_REPRESENTATION('',(#364),#388);
#364 = B_SPLINE_CURVE_WITH_KNOTS('',8,(#365,#366,#367,#368,#369,#370,
    #371,#372,#373,#374,#375,#376,#377,#378,#379,#380,#381,#382,#383,
    #384,#385,#386,#387),.UNSPECIFIED.,.F.,.F.,(9,7,7,9),(0.,
    0.370389557724,0.843719864954,1.),.UNSPECIFIED.);
#365 = CARTESIAN_POINT('',(25.,-40.));
#366 = CARTESIAN_POINT('',(26.591408749417,-40.53046958313));
#367 = CARTESIAN_POINT('',(28.173963673547,-41.05798789118));
#368 = CARTESIAN_POINT('',(29.746476084042,-41.58215869468));
#369 = CARTESIAN_POINT('',(31.307376100139,-42.10245870004));
#370 = CARTESIAN_POINT('',(32.854719572009,-42.61823985733));
#371 = CARTESIAN_POINT('',(34.386201767857,-43.12873392261));
#372 = CARTESIAN_POINT('',(35.899189644246,-43.63306321474));
#373 = CARTESIAN_POINT('',(39.29693183255,-44.76564394418));
#374 = CARTESIAN_POINT('',(41.168748432808,-45.38958281093));
#375 = CARTESIAN_POINT('',(42.999082861858,-45.99969428729));
#376 = CARTESIAN_POINT('',(44.780095193045,-46.59336506433));
#377 = CARTESIAN_POINT('',(46.503655019308,-47.16788500644));
#378 = CARTESIAN_POINT('',(48.161938489358,-47.72064616311));
#379 = CARTESIAN_POINT('',(49.748178919057,-48.24939297301));
#380 = CARTESIAN_POINT('',(51.755219945296,-48.91840664843));
#381 = CARTESIAN_POINT('',(52.245003607837,-49.08166786927));
#382 = CARTESIAN_POINT('',(52.726216856098,-49.24207228536));
#383 = CARTESIAN_POINT('',(53.198721750941,-49.39957391698));
#384 = CARTESIAN_POINT('',(53.662412783606,-49.55413759453));
#385 = CARTESIAN_POINT('',(54.117215253016,-49.70573841767));
#386 = CARTESIAN_POINT('',(54.563083643082,-49.85436121436));
#387 = CARTESIAN_POINT('',(55.,-50.));
#388 = ( GEOMETRIC_REPRESENTATION_CONTEXT(2) 
PARAMETRIC_REPRESENTATION_CONTEXT() REPRESENTATION_CONTEXT('2D SPACE',''
  ) );
#389 = PCURVE('',#299,#390);
#390 = DEFINITIONAL_REPRESENTATION('',(#391),#415);
#391 = B_SPLINE_CURVE_WITH_KNOTS('',8,(#392,#393,#394,#395,#396,#397,
    #398,#399,#400,#401,#402,#403,#404,#405,#406,#407,#408,#409,#410,
    #411,#412,#413,#414),.UNSPECIFIED.,.F.,.F.,(9,7,7,9),(0.,
    0.370389557724,0.843719864954,1.),.UNSPECIFIED.);
#392 = CARTESIAN_POINT('',(40.,0.));
#393 = CARTESIAN_POINT('',(40.530469583139,3.978521873541E-02));
#394 = CARTESIAN_POINT('',(41.090147687315,7.934909183865E-02));
#395 = CARTESIAN_POINT('',(41.681423641728,0.118661902101));
#396 = CARTESIAN_POINT('',(42.306850463659,0.157684402503));
#397 = CARTESIAN_POINT('',(42.969128621592,0.1963679893));
#398 = CARTESIAN_POINT('',(43.671072172582,0.234655044196));
#399 = CARTESIAN_POINT('',(44.415526170542,0.272479741106));
#400 = CARTESIAN_POINT('',(46.214354085537,0.357423295814));
#401 = CARTESIAN_POINT('',(47.297679824493,0.40421871082));
#402 = CARTESIAN_POINT('',(48.460364491969,0.449977071547));
#403 = CARTESIAN_POINT('',(49.706982404543,0.494502379826));
#404 = CARTESIAN_POINT('',(51.040914308521,0.537591375483));
#405 = CARTESIAN_POINT('',(52.463467016891,0.579048462234));
#406 = CARTESIAN_POINT('',(53.97272852834,0.618704472976));
#407 = CARTESIAN_POINT('',(56.088024229649,0.668880498632));
#408 = CARTESIAN_POINT('',(56.621943984556,0.681125090196));
#409 = CARTESIAN_POINT('',(57.164551057286,0.693155421402));
#410 = CARTESIAN_POINT('',(57.715641619198,0.704968043774));
#411 = CARTESIAN_POINT('',(58.274989175894,0.71656031959));
#412 = CARTESIAN_POINT('',(58.842346048915,0.727930381325));
#413 = CARTESIAN_POINT('',(59.417444857443,0.739077091077));
#414 = CARTESIAN_POINT('',(60.,0.75));
#415 = ( GEOMETRIC_REPRESENTATION_CONTEXT(2) 
PARAMETRIC_REPRESENTATION_CONTEXT() REPRESENTATION_CONTEXT('2D SPACE',''
  ) );
#416 = ADVANCED_FACE('',(#417),#299,.T.);
#417 = FACE_BOUND('',#418,.T.);
#418 = EDGE_LOOP('',(#419,#443,#531,#552,#553,#554));
#419 = ORIENTED_EDGE('',*,*,#420,.F.);
#420 = EDGE_CURVE('',#421,#423,#425,.T.);
#421 = VERTEX_POINT('',#422);
#422 = CARTESIAN_POINT('',(15.,-8.660254037844,30.));
#423 = VERTEX_POINT('',#424);
#424 = CARTESIAN_POINT('',(10.,-5.773502691896,40.));
#425 = SURFACE_CURVE('',#426,(#429,#436),.PCURVE_S1.);
#426 = B_SPLINE_CURVE_WITH_KNOTS('',1,(#427,#428),.UNSPECIFIED.,.F.,.F.,
  (2,2),(0.,1.),.PIECEWISE_BEZIER_KNOTS.);
#427 = CARTESIAN_POINT('',(30.,-17.32050807568,0.));
#428 = CARTESIAN_POINT('',(10.,-5.773502691896,40.));
#429 = PCURVE('',#299,#430);
#430 = DEFINITIONAL_REPRESENTATION('',(#431),#435);
#431 = LINE('',#432,#433);
#432 = CARTESIAN_POINT('',(0.,0.));
#433 = VECTOR('',#434,1.);
#434 = DIRECTION('',(0.,1.));
#435 = ( GEOMETRIC_REPRESENTATION_CONTEXT(2) 
PARAMETRIC_REPRESENTATION_CONTEXT() REPRESENTATION_CONTEXT('2D SPACE',''
  ) );
#436 = PCURVE('',#247,#437);
#437 = DEFINITIONAL_REPRESENTATION('',(#438),#442);
#438 = LINE('',#439,#440);
#439 = CARTESIAN_POINT('',(60.,0.));
#440 = VECTOR('',#441,1.);
#441 = DIRECTION('',(0.,1.));
#442 = ( GEOMETRIC_REPRESENTATION_CONTEXT(2) 
PARAMETRIC_REPRESENTATION_CONTEXT() REPRESENTATION_CONTEXT('2D SPACE',''
  ) );
#443 = ORIENTED_EDGE('',*,*,#444,.F.);
#444 = EDGE_CURVE('',#445,#421,#447,.T.);
#445 = VERTEX_POINT('',#446);
#446 = CARTESIAN_POINT('',(20.,-1.42108547152E-14,0.));
#447 = SURFACE_CURVE('',#448,(#472,#499),.PCURVE_S1.);
#448 = B_SPLINE_CURVE_WITH_KNOTS('',8,(#449,#450,#451,#452,#453,#454,
    #455,#456,#457,#458,#459,#460,#461,#462,#463,#464,#465,#466,#467,
    #468,#469,#470,#471),.UNSPECIFIED.,.F.,.F.,(9,7,7,9),(0.,
    0.370389557724,0.843719864954,1.),.UNSPECIFIED.);
#449 = CARTESIAN_POINT('',(20.,-1.42108547152E-14,0.));
#450 = CARTESIAN_POINT('',(19.734765208431,-0.459400134933,
    1.591408749416));
#451 = CARTESIAN_POINT('',(19.471006054409,-0.916244390661,
    3.173963673548));
#452 = CARTESIAN_POINT('',(19.20892065266,-1.370189622411,4.74647608404)
  );
#453 = CARTESIAN_POINT('',(18.948770649977,-1.820782644648,
    6.307376100139));
#454 = CARTESIAN_POINT('',(18.690880071332,-2.267462229655,
    7.854719572011));
#455 = CARTESIAN_POINT('',(18.435633038691,-2.70956305867,9.386201767855
    ));
#456 = CARTESIAN_POINT('',(18.183468392626,-3.146325037527,
    10.899189644246));
#457 = CARTESIAN_POINT('',(17.617178027908,-4.127168721054,
    14.296931832551));
#458 = CARTESIAN_POINT('',(17.305208594534,-4.667515630067,
    16.168748432797));
#459 = CARTESIAN_POINT('',(17.00015285635,-5.195887667742,
    17.999082861891));
#460 = CARTESIAN_POINT('',(16.703317467836,-5.710021642132,
    19.780095192993));
#461 = CARTESIAN_POINT('',(16.416057496773,-6.207570506994,
    21.503655019353));
#462 = CARTESIAN_POINT('',(16.139676918444,-6.686275710886,
    23.161938489337));
#463 = CARTESIAN_POINT('',(15.87530351349,-7.144183880437,
    24.748178919062));
#464 = CARTESIAN_POINT('',(15.540796675784,-7.723566718822,
    26.755219945296));
#465 = CARTESIAN_POINT('',(15.45916606536,-7.864955083529,
    27.245003607837));
#466 = CARTESIAN_POINT('',(15.378963857317,-8.003869382739,
    27.726216856098));
#467 = CARTESIAN_POINT('',(15.30021304151,-8.140269796854,
    28.198721750941));
#468 = CARTESIAN_POINT('',(15.222931202732,-8.274125868119,
    28.662412783606));
#469 = CARTESIAN_POINT('',(15.147130791164,-8.405416032191,
    29.117215253016));
#470 = CARTESIAN_POINT('',(15.07281939282,-8.534127149704,
    29.563083643082));
#471 = CARTESIAN_POINT('',(15.,-8.660254037844,30.));
#472 = PCURVE('',#299,#473);
#473 = DEFINITIONAL_REPRESENTATION('',(#474),#498);
#474 = B_SPLINE_CURVE_WITH_KNOTS('',8,(#475,#476,#477,#478,#479,#480,
    #481,#482,#483,#484,#485,#486,#487,#488,#489,#490,#491,#492,#493,
    #494,#495,#496,#497),.UNSPECIFIED.,.F.,.F.,(9,7,7,9),(0.,
    0.370389557724,0.843719864954,1.),.UNSPECIFIED.);
#475 = CARTESIAN_POINT('',(20.,0.));
#476 = CARTESIAN_POINT('',(19.469530416861,3.978521873541E-02));
#477 = CARTESIAN_POINT('',(18.909852312685,7.934909183869E-02));
#478 = CARTESIAN_POINT('',(18.318576358272,0.118661902101));
#479 = CARTESIAN_POINT('',(17.693149536341,0.157684402503));
#480 = CARTESIAN_POINT('',(17.030871378409,0.1963679893));
#481 = CARTESIAN_POINT('',(16.328927827418,0.234655044196));
#482 = CARTESIAN_POINT('',(15.584473829458,0.272479741106));
#483 = CARTESIAN_POINT('',(13.785645914462,0.357423295814));
#484 = CARTESIAN_POINT('',(12.702320175508,0.40421871082));
#485 = CARTESIAN_POINT('',(11.53963550803,0.449977071548));
#486 = CARTESIAN_POINT('',(10.293017595464,0.494502379824));
#487 = CARTESIAN_POINT('',(8.959085691466,0.537591375484));
#488 = CARTESIAN_POINT('',(7.53653298312,0.579048462233));
#489 = CARTESIAN_POINT('',(6.027271471656,0.618704472977));
#490 = CARTESIAN_POINT('',(3.91197577035,0.668880498632));
#491 = CARTESIAN_POINT('',(3.378056015444,0.681125090196));
#492 = CARTESIAN_POINT('',(2.835448942714,0.693155421402));
#493 = CARTESIAN_POINT('',(2.284358380802,0.704968043774));
#494 = CARTESIAN_POINT('',(1.725010824106,0.71656031959));
#495 = CARTESIAN_POINT('',(1.157653951085,0.727930381325));
#496 = CARTESIAN_POINT('',(0.582555142557,0.739077091077));
#497 = CARTESIAN_POINT('',(0.,0.75));
#498 = ( GEOMETRIC_REPRESENTATION_CONTEXT(2) 
PARAMETRIC_REPRESENTATION_CONTEXT() REPRESENTATION_CONTEXT('2D SPACE',''
  ) );
#499 = PCURVE('',#500,#505);
#500 = PLANE('',#501);
#501 = AXIS2_PLACEMENT_3D('',#502,#503,#504);
#502 = CARTESIAN_POINT('',(-10.,-51.96152422706,-25.));
#503 = DIRECTION('',(0.866025403784,-0.5,0.));
#504 = DIRECTION('',(0.,0.,1.));
#505 = DEFINITIONAL_REPRESENTATION('',(#506),#530);
#506 = B_SPLINE_CURVE_WITH_KNOTS('',8,(#507,#508,#509,#510,#511,#512,
    #513,#514,#515,#516,#517,#518,#519,#520,#521,#522,#523,#524,#525,
    #526,#527,#528,#529),.UNSPECIFIED.,.F.,.F.,(9,7,7,9),(0.,
    0.370389557724,0.843719864954,1.),.UNSPECIFIED.);
#507 = CARTESIAN_POINT('',(25.,-60.));
#508 = CARTESIAN_POINT('',(26.591408749416,-59.46953041686));
#509 = CARTESIAN_POINT('',(28.173963673548,-58.94201210881));
#510 = CARTESIAN_POINT('',(29.74647608404,-58.41784130532));
#511 = CARTESIAN_POINT('',(31.307376100139,-57.89754129995));
#512 = CARTESIAN_POINT('',(32.854719572011,-57.38176014266));
#513 = CARTESIAN_POINT('',(34.386201767855,-56.87126607738));
#514 = CARTESIAN_POINT('',(35.899189644246,-56.36693678525));
#515 = CARTESIAN_POINT('',(39.296931832551,-55.23435605581));
#516 = CARTESIAN_POINT('',(41.168748432797,-54.61041718906));
#517 = CARTESIAN_POINT('',(42.999082861891,-54.0003057127));
#518 = CARTESIAN_POINT('',(44.780095192993,-53.40663493567));
#519 = CARTESIAN_POINT('',(46.503655019353,-52.83211499354));
#520 = CARTESIAN_POINT('',(48.161938489337,-52.27935383688));
#521 = CARTESIAN_POINT('',(49.748178919062,-51.75060702697));
#522 = CARTESIAN_POINT('',(51.755219945296,-51.08159335156));
#523 = CARTESIAN_POINT('',(52.245003607837,-50.91833213072));
#524 = CARTESIAN_POINT('',(52.726216856098,-50.75792771463));
#525 = CARTESIAN_POINT('',(53.198721750941,-50.60042608302));
#526 = CARTESIAN_POINT('',(53.662412783606,-50.44586240546));
#527 = CARTESIAN_POINT('',(54.117215253016,-50.29426158232));
#528 = CARTESIAN_POINT('',(54.563083643082,-50.14563878563));
#529 = CARTESIAN_POINT('',(55.,-50.));
#530 = ( GEOMETRIC_REPRESENTATION_CONTEXT(2) 
PARAMETRIC_REPRESENTATION_CONTEXT() REPRESENTATION_CONTEXT('2D SPACE',''
  ) );
#531 = ORIENTED_EDGE('',*,*,#532,.T.);
#532 = EDGE_CURVE('',#445,#315,#533,.T.);
#533 = SURFACE_CURVE('',#534,(#538,#545),.PCURVE_S1.);
#534 = LINE('',#535,#536);
#535 = CARTESIAN_POINT('',(30.,-17.32050807568,0.));
#536 = VECTOR('',#537,1.);
#537 = DIRECTION('',(-0.5,0.866025403784,0.));
#538 = PCURVE('',#299,#539);
#539 = DEFINITIONAL_REPRESENTATION('',(#540),#544);
#540 = LINE('',#541,#542);
#541 = CARTESIAN_POINT('',(0.,0.));
#542 = VECTOR('',#543,1.);
#543 = DIRECTION('',(1.,0.));
#544 = ( GEOMETRIC_REPRESENTATION_CONTEXT(2) 
PARAMETRIC_REPRESENTATION_CONTEXT() REPRESENTATION_CONTEXT('2D SPACE',''
  ) );
#545 = PCURVE('',#132,#546);
#546 = DEFINITIONAL_REPRESENTATION('',(#547),#551);
#547 = LINE('',#548,#549);
#548 = CARTESIAN_POINT('',(30.,51.961524227066));
#549 = VECTOR('',#550,1.);
#550 = DIRECTION('',(-0.5,-0.866025403784));
#551 = ( GEOMETRIC_REPRESENTATION_CONTEXT(2) 
PARAMETRIC_REPRESENTATION_CONTEXT() REPRESENTATION_CONTEXT('2D SPACE',''
  ) );
#552 = ORIENTED_EDGE('',*,*,#336,.T.);
#553 = ORIENTED_EDGE('',*,*,#286,.T.);
#554 = ORIENTED_EDGE('',*,*,#555,.F.);
#555 = EDGE_CURVE('',#423,#260,#556,.T.);
#556 = SURFACE_CURVE('',#557,(#561,#567),.PCURVE_S1.);
#557 = LINE('',#558,#559);
#558 = CARTESIAN_POINT('',(10.,-5.773502691896,40.));
#559 = VECTOR('',#560,1.);
#560 = DIRECTION('',(-0.5,0.866025403784,0.));
#561 = PCURVE('',#299,#562);
#562 = DEFINITIONAL_REPRESENTATION('',(#563),#566);
#563 = B_SPLINE_CURVE_WITH_KNOTS('',1,(#564,#565),.UNSPECIFIED.,.F.,.F.,
  (2,2),(0.,20.),.PIECEWISE_BEZIER_KNOTS.);
#564 = CARTESIAN_POINT('',(0.,1.));
#565 = CARTESIAN_POINT('',(60.,1.));
#566 = ( GEOMETRIC_REPRESENTATION_CONTEXT(2) 
PARAMETRIC_REPRESENTATION_CONTEXT() REPRESENTATION_CONTEXT('2D SPACE',''
  ) );
#567 = PCURVE('',#274,#568);
#568 = DEFINITIONAL_REPRESENTATION('',(#569),#573);
#569 = LINE('',#570,#571);
#570 = CARTESIAN_POINT('',(20.,0.));
#571 = VECTOR('',#572,1.);
#572 = DIRECTION('',(-1.,0.));
#573 = ( GEOMETRIC_REPRESENTATION_CONTEXT(2) 
PARAMETRIC_REPRESENTATION_CONTEXT() REPRESENTATION_CONTEXT('2D SPACE',''
  ) );
#574 = ADVANCED_FACE('',(#575),#274,.F.);
#575 = FACE_BOUND('',#576,.T.);
#576 = EDGE_LOOP('',(#577,#578,#598));
#577 = ORIENTED_EDGE('',*,*,#259,.T.);
#578 = ORIENTED_EDGE('',*,*,#579,.T.);
#579 = EDGE_CURVE('',#233,#423,#580,.T.);
#580 = SURFACE_CURVE('',#581,(#585,#592),.PCURVE_S1.);
#581 = LINE('',#582,#583);
#582 = CARTESIAN_POINT('',(-10.,-5.773502691896,40.));
#583 = VECTOR('',#584,1.);
#584 = DIRECTION('',(1.,-2.22044604925E-16,0.));
#585 = PCURVE('',#274,#586);
#586 = DEFINITIONAL_REPRESENTATION('',(#587),#591);
#587 = LINE('',#588,#589);
#588 = CARTESIAN_POINT('',(10.,17.320508075689));
#589 = VECTOR('',#590,1.);
#590 = DIRECTION('',(0.5,-0.866025403784));
#591 = ( GEOMETRIC_REPRESENTATION_CONTEXT(2) 
PARAMETRIC_REPRESENTATION_CONTEXT() REPRESENTATION_CONTEXT('2D SPACE',''
  ) );
#592 = PCURVE('',#247,#593);
#593 = DEFINITIONAL_REPRESENTATION('',(#594),#597);
#594 = B_SPLINE_CURVE_WITH_KNOTS('',1,(#595,#596),.UNSPECIFIED.,.F.,.F.,
  (2,2),(0.,20.),.PIECEWISE_BEZIER_KNOTS.);
#595 = CARTESIAN_POINT('',(0.,1.));
#596 = CARTESIAN_POINT('',(60.,1.));
#597 = ( GEOMETRIC_REPRESENTATION_CONTEXT(2) 
PARAMETRIC_REPRESENTATION_CONTEXT() REPRESENTATION_CONTEXT('2D SPACE',''
  ) );
#598 = ORIENTED_EDGE('',*,*,#555,.T.);
#599 = ADVANCED_FACE('',(#600),#247,.T.);
#600 = FACE_BOUND('',#601,.T.);
#601 = EDGE_LOOP('',(#602,#685,#708,#789,#790,#791));
#602 = ORIENTED_EDGE('',*,*,#603,.F.);
#603 = EDGE_CURVE('',#604,#145,#606,.T.);
#604 = VERTEX_POINT('',#605);
#605 = CARTESIAN_POINT('',(-10.,-17.32050807568,0.));
#606 = SURFACE_CURVE('',#607,(#631,#658),.PCURVE_S1.);
#607 = B_SPLINE_CURVE_WITH_KNOTS('',8,(#608,#609,#610,#611,#612,#613,
    #614,#615,#616,#617,#618,#619,#620,#621,#622,#623,#624,#625,#626,
    #627,#628,#629,#630),.UNSPECIFIED.,.F.,.F.,(9,7,7,9),(0.,
    0.370389557724,0.843719864953,1.),.UNSPECIFIED.);
#608 = CARTESIAN_POINT('',(-10.,-17.32050807568,0.));
#609 = CARTESIAN_POINT('',(-10.26523479157,-16.86110794075,
    1.591408749418));
#610 = CARTESIAN_POINT('',(-10.52899394559,-16.40426368502,
    3.173963673545));
#611 = CARTESIAN_POINT('',(-10.79107934734,-15.95031845327,
    4.746476084044));
#612 = CARTESIAN_POINT('',(-11.05122935002,-15.49972543104,
    6.307376100139));
#613 = CARTESIAN_POINT('',(-11.30911992866,-15.05304584603,
    7.854719572007));
#614 = CARTESIAN_POINT('',(-11.56436696131,-14.61094501701,
    9.386201767859));
#615 = CARTESIAN_POINT('',(-11.81653160737,-14.17418303816,
    10.899189644245));
#616 = CARTESIAN_POINT('',(-12.38282197209,-13.19333935463,
    14.296931832555));
#617 = CARTESIAN_POINT('',(-12.69479140546,-12.65299244562,
    16.168748432777));
#618 = CARTESIAN_POINT('',(-12.99984714365,-12.12462040794,
    17.99908286193));
#619 = CARTESIAN_POINT('',(-13.29668253216,-11.61048643356,
    19.780095192948));
#620 = CARTESIAN_POINT('',(-13.58394250322,-11.11293756869,
    21.503655019385));
#621 = CARTESIAN_POINT('',(-13.86032308155,-10.6342323648,
    23.161938489324));
#622 = CARTESIAN_POINT('',(-14.12469648651,-10.17632419525,
    24.748178919064));
#623 = CARTESIAN_POINT('',(-14.45920332421,-9.596941356867,
    26.755219945296));
#624 = CARTESIAN_POINT('',(-14.54083393464,-9.45555299216,
    27.245003607837));
#625 = CARTESIAN_POINT('',(-14.62103614268,-9.31663869295,
    27.726216856098));
#626 = CARTESIAN_POINT('',(-14.69978695849,-9.180238278834,
    28.198721750941));
#627 = CARTESIAN_POINT('',(-14.77706879726,-9.046382207569,
    28.662412783606));
#628 = CARTESIAN_POINT('',(-14.85286920883,-8.915092043498,
    29.117215253016));
#629 = CARTESIAN_POINT('',(-14.92718060718,-8.786380925984,
    29.563083643082));
#630 = CARTESIAN_POINT('',(-15.,-8.660254037844,30.));
#631 = PCURVE('',#247,#632);
#632 = DEFINITIONAL_REPRESENTATION('',(#633),#657);
#633 = B_SPLINE_CURVE_WITH_KNOTS('',8,(#634,#635,#636,#637,#638,#639,
    #640,#641,#642,#643,#644,#645,#646,#647,#648,#649,#650,#651,#652,
    #653,#654,#655,#656),.UNSPECIFIED.,.F.,.F.,(9,7,7,9),(0.,
    0.370389557724,0.843719864953,1.),.UNSPECIFIED.);
#634 = CARTESIAN_POINT('',(20.,0.));
#635 = CARTESIAN_POINT('',(19.469530416861,3.978521873544E-02));
#636 = CARTESIAN_POINT('',(18.909852312687,7.934909183861E-02));
#637 = CARTESIAN_POINT('',(18.318576358269,0.118661902101));
#638 = CARTESIAN_POINT('',(17.693149536341,0.157684402503));
#639 = CARTESIAN_POINT('',(17.030871378412,0.1963679893));
#640 = CARTESIAN_POINT('',(16.328927827416,0.234655044196));
#641 = CARTESIAN_POINT('',(15.584473829459,0.272479741106));
#642 = CARTESIAN_POINT('',(13.78564591446,0.357423295814));
#643 = CARTESIAN_POINT('',(12.702320175519,0.40421871082));
#644 = CARTESIAN_POINT('',(11.539635508003,0.449977071548));
#645 = CARTESIAN_POINT('',(10.293017595499,0.494502379824));
#646 = CARTESIAN_POINT('',(8.959085691438,0.537591375484));
#647 = CARTESIAN_POINT('',(7.536532983133,0.579048462233));
#648 = CARTESIAN_POINT('',(6.027271471654,0.618704472977));
#649 = CARTESIAN_POINT('',(3.91197577035,0.668880498632));
#650 = CARTESIAN_POINT('',(3.378056015444,0.681125090196));
#651 = CARTESIAN_POINT('',(2.835448942714,0.693155421402));
#652 = CARTESIAN_POINT('',(2.284358380802,0.704968043774));
#653 = CARTESIAN_POINT('',(1.725010824106,0.71656031959));
#654 = CARTESIAN_POINT('',(1.157653951085,0.727930381325));
#655 = CARTESIAN_POINT('',(0.582555142557,0.739077091077));
#656 = CARTESIAN_POINT('',(0.,0.75));
#657 = ( GEOMETRIC_REPRESENTATION_CONTEXT(2) 
PARAMETRIC_REPRESENTATION_CONTEXT() REPRESENTATION_CONTEXT('2D SPACE',''
  ) );
#658 = PCURVE('',#200,#659);
#659 = DEFINITIONAL_REPRESENTATION('',(#660),#684);
#660 = B_SPLINE_CURVE_WITH_KNOTS('',8,(#661,#662,#663,#664,#665,#666,
    #667,#668,#669,#670,#671,#672,#673,#674,#675,#676,#677,#678,#679,
    #680,#681,#682,#683),.UNSPECIFIED.,.F.,.F.,(9,7,7,9),(0.,
    0.370389557724,0.843719864953,1.),.UNSPECIFIED.);
#661 = CARTESIAN_POINT('',(25.,-60.));
#662 = CARTESIAN_POINT('',(26.591408749418,-59.46953041686));
#663 = CARTESIAN_POINT('',(28.173963673545,-58.94201210881));
#664 = CARTESIAN_POINT('',(29.746476084044,-58.41784130531));
#665 = CARTESIAN_POINT('',(31.307376100139,-57.89754129995));
#666 = CARTESIAN_POINT('',(32.854719572007,-57.38176014266));
#667 = CARTESIAN_POINT('',(34.386201767859,-56.87126607738));
#668 = CARTESIAN_POINT('',(35.899189644245,-56.36693678525));
#669 = CARTESIAN_POINT('',(39.296931832555,-55.23435605581));
#670 = CARTESIAN_POINT('',(41.168748432777,-54.61041718907));
#671 = CARTESIAN_POINT('',(42.99908286193,-54.00030571269));
#672 = CARTESIAN_POINT('',(44.780095192948,-53.40663493567));
#673 = CARTESIAN_POINT('',(46.503655019385,-52.83211499354));
#674 = CARTESIAN_POINT('',(48.161938489324,-52.27935383689));
#675 = CARTESIAN_POINT('',(49.748178919064,-51.75060702697));
#676 = CARTESIAN_POINT('',(51.755219945296,-51.08159335156));
#677 = CARTESIAN_POINT('',(52.245003607837,-50.91833213072));
#678 = CARTESIAN_POINT('',(52.726216856098,-50.75792771463));
#679 = CARTESIAN_POINT('',(53.198721750941,-50.60042608302));
#680 = CARTESIAN_POINT('',(53.662412783606,-50.44586240546));
#681 = CARTESIAN_POINT('',(54.117215253016,-50.29426158232));
#682 = CARTESIAN_POINT('',(54.563083643082,-50.14563878563));
#683 = CARTESIAN_POINT('',(55.,-50.));
#684 = ( GEOMETRIC_REPRESENTATION_CONTEXT(2) 
PARAMETRIC_REPRESENTATION_CONTEXT() REPRESENTATION_CONTEXT('2D SPACE',''
  ) );
#685 = ORIENTED_EDGE('',*,*,#686,.T.);
#686 = EDGE_CURVE('',#604,#687,#689,.T.);
#687 = VERTEX_POINT('',#688);
#688 = CARTESIAN_POINT('',(10.,-17.32050807568,0.));
#689 = SURFACE_CURVE('',#690,(#694,#701),.PCURVE_S1.);
#690 = LINE('',#691,#692);
#691 = CARTESIAN_POINT('',(-30.,-17.32050807568,0.));
#692 = VECTOR('',#693,1.);
#693 = DIRECTION('',(1.,-1.7763568394E-16,0.));
#694 = PCURVE('',#247,#695);
#695 = DEFINITIONAL_REPRESENTATION('',(#696),#700);
#696 = LINE('',#697,#698);
#697 = CARTESIAN_POINT('',(0.,0.));
#698 = VECTOR('',#699,1.);
#699 = DIRECTION('',(1.,0.));
#700 = ( GEOMETRIC_REPRESENTATION_CONTEXT(2) 
PARAMETRIC_REPRESENTATION_CONTEXT() REPRESENTATION_CONTEXT('2D SPACE',''
  ) );
#701 = PCURVE('',#132,#702);
#702 = DEFINITIONAL_REPRESENTATION('',(#703),#707);
#703 = LINE('',#704,#705);
#704 = CARTESIAN_POINT('',(60.,0.));
#705 = VECTOR('',#706,1.);
#706 = DIRECTION('',(-0.5,0.866025403784));
#707 = ( GEOMETRIC_REPRESENTATION_CONTEXT(2) 
PARAMETRIC_REPRESENTATION_CONTEXT() REPRESENTATION_CONTEXT('2D SPACE',''
  ) );
#708 = ORIENTED_EDGE('',*,*,#709,.T.);
#709 = EDGE_CURVE('',#687,#421,#710,.T.);
#710 = SURFACE_CURVE('',#711,(#735,#762),.PCURVE_S1.);
#711 = B_SPLINE_CURVE_WITH_KNOTS('',8,(#712,#713,#714,#715,#716,#717,
    #718,#719,#720,#721,#722,#723,#724,#725,#726,#727,#728,#729,#730,
    #731,#732,#733,#734),.UNSPECIFIED.,.F.,.F.,(9,7,7,9),(0.,
    0.370389557723,0.843719864953,1.),.UNSPECIFIED.);
#712 = CARTESIAN_POINT('',(10.,-17.32050807568,0.));
#713 = CARTESIAN_POINT('',(10.265234791569,-16.86110794075,
    1.591408749416));
#714 = CARTESIAN_POINT('',(10.528993945591,-16.40426368502,
    3.173963673549));
#715 = CARTESIAN_POINT('',(10.79107934734,-15.95031845327,4.746476084039
    ));
#716 = CARTESIAN_POINT('',(11.051229350023,-15.49972543104,
    6.307376100139));
#717 = CARTESIAN_POINT('',(11.309119928669,-15.05304584603,
    7.854719572012));
#718 = CARTESIAN_POINT('',(11.564366961309,-14.61094501701,
    9.386201767854));
#719 = CARTESIAN_POINT('',(11.816531607374,-14.17418303816,
    10.899189644247));
#720 = CARTESIAN_POINT('',(12.382821972093,-13.19333935463,
    14.29693183256));
#721 = CARTESIAN_POINT('',(12.69479140546,-12.65299244563,
    16.168748432763));
#722 = CARTESIAN_POINT('',(12.999847143659,-12.12462040793,
    17.99908286195));
#723 = CARTESIAN_POINT('',(13.296682532154,-11.61048643357,
    19.780095192934));
#724 = CARTESIAN_POINT('',(13.583942503233,-11.11293756868,
    21.503655019388));
#725 = CARTESIAN_POINT('',(13.860323081554,-10.6342323648,
    23.161938489326));
#726 = CARTESIAN_POINT('',(14.124696486511,-10.17632419525,
    24.748178919063));
#727 = CARTESIAN_POINT('',(14.459203324216,-9.596941356867,
    26.755219945295));
#728 = CARTESIAN_POINT('',(14.54083393464,-9.45555299216,27.245003607837
    ));
#729 = CARTESIAN_POINT('',(14.621036142683,-9.31663869295,
    27.726216856098));
#730 = CARTESIAN_POINT('',(14.69978695849,-9.180238278834,
    28.198721750941));
#731 = CARTESIAN_POINT('',(14.777068797268,-9.046382207569,
    28.662412783605));
#732 = CARTESIAN_POINT('',(14.852869208836,-8.915092043498,
    29.117215253016));
#733 = CARTESIAN_POINT('',(14.92718060718,-8.786380925984,
    29.563083643082));
#734 = CARTESIAN_POINT('',(15.,-8.660254037844,30.));
#735 = PCURVE('',#247,#736);
#736 = DEFINITIONAL_REPRESENTATION('',(#737),#761);
#737 = B_SPLINE_CURVE_WITH_KNOTS('',8,(#738,#739,#740,#741,#742,#743,
    #744,#745,#746,#747,#748,#749,#750,#751,#752,#753,#754,#755,#756,
    #757,#758,#759,#760),.UNSPECIFIED.,.F.,.F.,(9,7,7,9),(0.,
    0.370389557723,0.843719864953,1.),.UNSPECIFIED.);
#738 = CARTESIAN_POINT('',(40.,0.));
#739 = CARTESIAN_POINT('',(40.530469583139,3.97852187354E-02));
#740 = CARTESIAN_POINT('',(41.090147687316,7.934909183871E-02));
#741 = CARTESIAN_POINT('',(41.681423641727,0.118661902101));
#742 = CARTESIAN_POINT('',(42.30685046366,0.157684402503));
#743 = CARTESIAN_POINT('',(42.969128621593,0.1963679893));
#744 = CARTESIAN_POINT('',(43.671072172581,0.234655044196));
#745 = CARTESIAN_POINT('',(44.415526170542,0.272479741106));
#746 = CARTESIAN_POINT('',(46.214354085543,0.357423295814));
#747 = CARTESIAN_POINT('',(47.297679824471,0.404218710819));
#748 = CARTESIAN_POINT('',(48.460364492014,0.449977071549));
#749 = CARTESIAN_POINT('',(49.706982404484,0.494502379823));
#750 = CARTESIAN_POINT('',(51.040914308571,0.537591375485));
#751 = CARTESIAN_POINT('',(52.463467016866,0.579048462233));
#752 = CARTESIAN_POINT('',(53.972728528346,0.618704472977));
#753 = CARTESIAN_POINT('',(56.088024229649,0.668880498632));
#754 = CARTESIAN_POINT('',(56.621943984556,0.681125090196));
#755 = CARTESIAN_POINT('',(57.164551057286,0.693155421402));
#756 = CARTESIAN_POINT('',(57.715641619198,0.704968043774));
#757 = CARTESIAN_POINT('',(58.274989175894,0.71656031959));
#758 = CARTESIAN_POINT('',(58.842346048915,0.727930381325));
#759 = CARTESIAN_POINT('',(59.417444857443,0.739077091077));
#760 = CARTESIAN_POINT('',(60.,0.75));
#761 = ( GEOMETRIC_REPRESENTATION_CONTEXT(2) 
PARAMETRIC_REPRESENTATION_CONTEXT() REPRESENTATION_CONTEXT('2D SPACE',''
  ) );
#762 = PCURVE('',#500,#763);
#763 = DEFINITIONAL_REPRESENTATION('',(#764),#788);
#764 = B_SPLINE_CURVE_WITH_KNOTS('',8,(#765,#766,#767,#768,#769,#770,
    #771,#772,#773,#774,#775,#776,#777,#778,#779,#780,#781,#782,#783,
    #784,#785,#786,#787),.UNSPECIFIED.,.F.,.F.,(9,7,7,9),(0.,
    0.370389557723,0.843719864953,1.),.UNSPECIFIED.);
#765 = CARTESIAN_POINT('',(25.,-40.));
#766 = CARTESIAN_POINT('',(26.591408749416,-40.53046958313));
#767 = CARTESIAN_POINT('',(28.173963673549,-41.05798789118));
#768 = CARTESIAN_POINT('',(29.746476084039,-41.58215869468));
#769 = CARTESIAN_POINT('',(31.307376100139,-42.10245870004));
#770 = CARTESIAN_POINT('',(32.854719572012,-42.61823985733));
#771 = CARTESIAN_POINT('',(34.386201767854,-43.12873392261));
#772 = CARTESIAN_POINT('',(35.899189644247,-43.63306321474));
#773 = CARTESIAN_POINT('',(39.29693183256,-44.76564394418));
#774 = CARTESIAN_POINT('',(41.168748432763,-45.38958281092));
#775 = CARTESIAN_POINT('',(42.99908286195,-45.99969428731));
#776 = CARTESIAN_POINT('',(44.780095192934,-46.5933650643));
#777 = CARTESIAN_POINT('',(46.503655019388,-47.16788500646));
#778 = CARTESIAN_POINT('',(48.161938489326,-47.7206461631));
#779 = CARTESIAN_POINT('',(49.748178919063,-48.24939297302));
#780 = CARTESIAN_POINT('',(51.755219945295,-48.91840664843));
#781 = CARTESIAN_POINT('',(52.245003607837,-49.08166786927));
#782 = CARTESIAN_POINT('',(52.726216856098,-49.24207228536));
#783 = CARTESIAN_POINT('',(53.198721750941,-49.39957391698));
#784 = CARTESIAN_POINT('',(53.662412783605,-49.55413759453));
#785 = CARTESIAN_POINT('',(54.117215253016,-49.70573841767));
#786 = CARTESIAN_POINT('',(54.563083643082,-49.85436121436));
#787 = CARTESIAN_POINT('',(55.,-50.));
#788 = ( GEOMETRIC_REPRESENTATION_CONTEXT(2) 
PARAMETRIC_REPRESENTATION_CONTEXT() REPRESENTATION_CONTEXT('2D SPACE',''
  ) );
#789 = ORIENTED_EDGE('',*,*,#420,.T.);
#790 = ORIENTED_EDGE('',*,*,#579,.F.);
#791 = ORIENTED_EDGE('',*,*,#232,.F.);
#792 = ADVANCED_FACE('',(#793),#200,.T.);
#793 = FACE_BOUND('',#794,.T.);
#794 = EDGE_LOOP('',(#795,#796,#815));
#795 = ORIENTED_EDGE('',*,*,#144,.F.);
#796 = ORIENTED_EDGE('',*,*,#797,.T.);
#797 = EDGE_CURVE('',#117,#604,#798,.T.);
#798 = SURFACE_CURVE('',#799,(#803,#809),.PCURVE_S1.);
#799 = LINE('',#800,#801);
#800 = CARTESIAN_POINT('',(-35.,25.980762113533,0.));
#801 = VECTOR('',#802,1.);
#802 = DIRECTION('',(0.5,-0.866025403784,0.));
#803 = PCURVE('',#200,#804);
#804 = DEFINITIONAL_REPRESENTATION('',(#805),#808);
#805 = B_SPLINE_CURVE_WITH_KNOTS('',1,(#806,#807),.UNSPECIFIED.,.F.,.F.,
  (2,2),(30.,70.),.PIECEWISE_BEZIER_KNOTS.);
#806 = CARTESIAN_POINT('',(25.,-40.));
#807 = CARTESIAN_POINT('',(25.,-80.));
#808 = ( GEOMETRIC_REPRESENTATION_CONTEXT(2) 
PARAMETRIC_REPRESENTATION_CONTEXT() REPRESENTATION_CONTEXT('2D SPACE',''
  ) );
#809 = PCURVE('',#132,#810);
#810 = DEFINITIONAL_REPRESENTATION('',(#811),#814);
#811 = B_SPLINE_CURVE_WITH_KNOTS('',1,(#812,#813),.UNSPECIFIED.,.F.,.F.,
  (2,2),(30.,70.),.PIECEWISE_BEZIER_KNOTS.);
#812 = CARTESIAN_POINT('',(40.,3.552713678801E-15));
#813 = CARTESIAN_POINT('',(60.,34.641016151378));
#814 = ( GEOMETRIC_REPRESENTATION_CONTEXT(2) 
PARAMETRIC_REPRESENTATION_CONTEXT() REPRESENTATION_CONTEXT('2D SPACE',''
  ) );
#815 = ORIENTED_EDGE('',*,*,#603,.T.);
#816 = ADVANCED_FACE('',(#817),#132,.F.);
#817 = FACE_BOUND('',#818,.F.);
#818 = EDGE_LOOP('',(#819,#838,#839,#840,#841,#842));
#819 = ORIENTED_EDGE('',*,*,#820,.T.);
#820 = EDGE_CURVE('',#687,#445,#821,.T.);
#821 = SURFACE_CURVE('',#822,(#826,#832),.PCURVE_S1.);
#822 = LINE('',#823,#824);
#823 = CARTESIAN_POINT('',(10.,-17.32050807568,0.));
#824 = VECTOR('',#825,1.);
#825 = DIRECTION('',(0.5,0.866025403784,-0.));
#826 = PCURVE('',#132,#827);
#827 = DEFINITIONAL_REPRESENTATION('',(#828),#831);
#828 = B_SPLINE_CURVE_WITH_KNOTS('',1,(#829,#830),.UNSPECIFIED.,.F.,.F.,
  (2,2),(-10.,30.),.PIECEWISE_BEZIER_KNOTS.);
#829 = CARTESIAN_POINT('',(50.,34.641016151378));
#830 = CARTESIAN_POINT('',(10.,34.641016151378));
#831 = ( GEOMETRIC_REPRESENTATION_CONTEXT(2) 
PARAMETRIC_REPRESENTATION_CONTEXT() REPRESENTATION_CONTEXT('2D SPACE',''
  ) );
#832 = PCURVE('',#500,#833);
#833 = DEFINITIONAL_REPRESENTATION('',(#834),#837);
#834 = B_SPLINE_CURVE_WITH_KNOTS('',1,(#835,#836),.UNSPECIFIED.,.F.,.F.,
  (2,2),(-10.,30.),.PIECEWISE_BEZIER_KNOTS.);
#835 = CARTESIAN_POINT('',(25.,-30.));
#836 = CARTESIAN_POINT('',(25.,-70.));
#837 = ( GEOMETRIC_REPRESENTATION_CONTEXT(2) 
PARAMETRIC_REPRESENTATION_CONTEXT() REPRESENTATION_CONTEXT('2D SPACE',''
  ) );
#838 = ORIENTED_EDGE('',*,*,#532,.T.);
#839 = ORIENTED_EDGE('',*,*,#314,.T.);
#840 = ORIENTED_EDGE('',*,*,#116,.T.);
#841 = ORIENTED_EDGE('',*,*,#797,.T.);
#842 = ORIENTED_EDGE('',*,*,#686,.T.);
#843 = ADVANCED_FACE('',(#844),#500,.T.);
#844 = FACE_BOUND('',#845,.T.);
#845 = EDGE_LOOP('',(#846,#847,#848));
#846 = ORIENTED_EDGE('',*,*,#820,.T.);
#847 = ORIENTED_EDGE('',*,*,#444,.T.);
#848 = ORIENTED_EDGE('',*,*,#709,.F.);
#849 = ( GEOMETRIC_REPRESENTATION_CONTEXT(3) 
GLOBAL_UNCERTAINTY_ASSIGNED_CONTEXT((#853)) GLOBAL_UNIT_ASSIGNED_CONTEXT
((#850,#851,#852)) REPRESENTATION_CONTEXT('Context #1',
  '3D Context with UNIT and UNCERTAINTY') );
#850 = ( LENGTH_UNIT() NAMED_UNIT(*) SI_UNIT(.MILLI.,.METRE.) );
#851 = ( NAMED_UNIT(*) PLANE_ANGLE_UNIT() SI_UNIT($,.RADIAN.) );
#852 = ( NAMED_UNIT(*) SI_UNIT($,.STERADIAN.) SOLID_ANGLE_UNIT() );
#853 = UNCERTAINTY_MEASURE_WITH_UNIT(LENGTH_MEASURE(2.E-06),#850,
  'distance_accuracy_value','confusion accuracy');
#854 = PRODUCT_RELATED_PRODUCT_CATEGORY('part',$,(#7));
ENDSEC;
END-ISO-10303-21;
