ISO-10303-21;
HEADER;
FILE_DESCRIPTION(('Open CASCADE Model'),'2;1');
FILE_NAME('Open CASCADE Shape Model','2026-08-07T02:34:18',('Author'),(
    'Open CASCADE'),'Open CASCADE STEP processor 7.7','Open CASCADE 7.7'
  ,'Unknown');
FILE_SCHEMA(('AUTOMOTIVE_DESIGN { 1 0 10303 214 1 1 1 1 }'));
ENDSEC;
DATA;
#1 = APPLICATION_PROTOCOL_DEFINITION('international standard',
  'automotive_design',2000,#2);
#2 = APPLICATION_CONTEXT(
  'core data for automotive mechanical design processes');
#3 = SHAPE_DEFINITION_REPRESENTATION(#4,#10);
#4 = PRODUCT_DEFINITION_SHAPE('','',#5);
#5 = PRODUCT_DEFINITION('design','',#6,#9);
#6 = PRODUCT_DEFINITION_FORMATION('','',#7);
#7 = PRODUCT('Open CASCADE STEP translator 7.7 39',
  'Open CASCADE STEP translator 7.7 39','',(#8));
#8 = PRODUCT_CONTEXT('',#2,'mechanical');
#9 = PRODUCT_DEFINITION_CONTEXT('part definition',#2,'design');
#10 = ADVANCED_BREP_SHAPE_REPRESENTATION('',(#11,#15),#939);
#11 = AXIS2_PLACEMENT_3D('',#12,#13,#14);
#12 = CARTESIAN_POINT('',(0.,0.,0.));
#13 = DIRECTION('',(0.,0.,1.));
#14 = DIRECTION('',(1.,0.,-0.));
#15 = MANIFOLD_SOLID_BREP('',#16);
#16 = CLOSED_SHELL('',(#17,#173,#513,#561,#750,#776,#802,#809,#854,#880,
    #906,#932));
#17 = ADVANCED_FACE('',(#18),#33,.T.);
#18 = FACE_BOUND('',#19,.T.);
#19 = EDGE_LOOP('',(#20,#67,#108,#136));
#20 = ORIENTED_EDGE('',*,*,#21,.T.);
#21 = EDGE_CURVE('',#22,#24,#26,.T.);
#22 = VERTEX_POINT('',#23);
#23 = CARTESIAN_POINT('',(25.,0.,0.));
#24 = VERTEX_POINT('',#25);
#25 = CARTESIAN_POINT('',(17.677669529664,17.677669529664,0.));
#26 = SURFACE_CURVE('',#27,(#32,#55),.PCURVE_S1.);
#27 = CIRCLE('',#28,25.);
#28 = AXIS2_PLACEMENT_3D('',#29,#30,#31);
#29 = CARTESIAN_POINT('',(0.,0.,0.));
#30 = DIRECTION('',(0.,0.,1.));
#31 = DIRECTION('',(1.,0.,0.));
#32 = PCURVE('',#33,#50);
#33 = B_SPLINE_SURFACE_WITH_KNOTS('',7,1,(
    (#34,#35)
    ,(#36,#37)
    ,(#38,#39)
    ,(#40,#41)
    ,(#42,#43)
    ,(#44,#45)
    ,(#46,#47)
    ,(#48,#49)),.UNSPECIFIED.,.F.,.F.,.F.,(8,8),(2,2),(25.,50.),(0.,1.),
  .PIECEWISE_BEZIER_KNOTS.);
#34 = CARTESIAN_POINT('',(25.,0.,0.));
#35 = CARTESIAN_POINT('',(25.,0.,80.));
#36 = CARTESIAN_POINT('',(25.,2.804993440705,0.));
#37 = CARTESIAN_POINT('',(25.,3.571428571429,80.));
#38 = CARTESIAN_POINT('',(24.632827064101,5.609986823895,0.));
#39 = CARTESIAN_POINT('',(25.,7.142857142857,80.));
#40 = CARTESIAN_POINT('',(23.898482335355,8.357305200485,0.));
#41 = CARTESIAN_POINT('',(25.,10.714285714286,80.));
#42 = CARTESIAN_POINT('',(22.808286099105,10.989271739688,0.));
#43 = CARTESIAN_POINT('',(25.,14.285714285714,80.));
#44 = CARTESIAN_POINT('',(21.384898782365,13.451179331279,0.));
#45 = CARTESIAN_POINT('',(25.,17.857142857143,80.));
#46 = CARTESIAN_POINT('',(19.66109941277,15.694239646557,0.));
#47 = CARTESIAN_POINT('',(25.,21.428571428571,80.));
#48 = CARTESIAN_POINT('',(17.677669529664,17.677669529664,0.));
#49 = CARTESIAN_POINT('',(25.,25.,80.));
#50 = DEFINITIONAL_REPRESENTATION('',(#51),#54);
#51 = B_SPLINE_CURVE_WITH_KNOTS('',1,(#52,#53),.UNSPECIFIED.,.F.,.F.,(2,
    2),(0.,0.785398163397),.PIECEWISE_BEZIER_KNOTS.);
#52 = CARTESIAN_POINT('',(25.,0.));
#53 = CARTESIAN_POINT('',(50.,0.));
#54 = ( GEOMETRIC_REPRESENTATION_CONTEXT(2) 
PARAMETRIC_REPRESENTATION_CONTEXT() REPRESENTATION_CONTEXT('2D SPACE',''
  ) );
#55 = PCURVE('',#56,#61);
#56 = PLANE('',#57);
#57 = AXIS2_PLACEMENT_3D('',#58,#59,#60);
#58 = CARTESIAN_POINT('',(0.,0.,0.));
#59 = DIRECTION('',(0.,0.,1.));
#60 = DIRECTION('',(1.,0.,0.));
#61 = DEFINITIONAL_REPRESENTATION('',(#62),#66);
#62 = CIRCLE('',#63,25.);
#63 = AXIS2_PLACEMENT_2D('',#64,#65);
#64 = CARTESIAN_POINT('',(0.,0.));
#65 = DIRECTION('',(1.,0.));
#66 = ( GEOMETRIC_REPRESENTATION_CONTEXT(2) 
PARAMETRIC_REPRESENTATION_CONTEXT() REPRESENTATION_CONTEXT('2D SPACE',''
  ) );
#67 = ORIENTED_EDGE('',*,*,#68,.T.);
#68 = EDGE_CURVE('',#24,#69,#71,.T.);
#69 = VERTEX_POINT('',#70);
#70 = CARTESIAN_POINT('',(25.,25.,80.));
#71 = SURFACE_CURVE('',#72,(#75,#82),.PCURVE_S1.);
#72 = B_SPLINE_CURVE_WITH_KNOTS('',1,(#73,#74),.UNSPECIFIED.,.F.,.F.,(2,
    2),(0.,1.),.PIECEWISE_BEZIER_KNOTS.);
#73 = CARTESIAN_POINT('',(17.677669529664,17.677669529664,0.));
#74 = CARTESIAN_POINT('',(25.,25.,80.));
#75 = PCURVE('',#33,#76);
#76 = DEFINITIONAL_REPRESENTATION('',(#77),#81);
#77 = LINE('',#78,#79);
#78 = CARTESIAN_POINT('',(50.,0.));
#79 = VECTOR('',#80,1.);
#80 = DIRECTION('',(0.,1.));
#81 = ( GEOMETRIC_REPRESENTATION_CONTEXT(2) 
PARAMETRIC_REPRESENTATION_CONTEXT() REPRESENTATION_CONTEXT('2D SPACE',''
  ) );
#82 = PCURVE('',#83,#102);
#83 = B_SPLINE_SURFACE_WITH_KNOTS('',8,1,(
    (#84,#85)
    ,(#86,#87)
    ,(#88,#89)
    ,(#90,#91)
    ,(#92,#93)
    ,(#94,#95)
    ,(#96,#97)
    ,(#98,#99)
    ,(#100,#101
  )),.UNSPECIFIED.,.F.,.F.,.F.,(9,9),(2,2),(0.,50.),(0.,1.),
  .PIECEWISE_BEZIER_KNOTS.);
#84 = CARTESIAN_POINT('',(17.677669529664,17.677669529664,0.));
#85 = CARTESIAN_POINT('',(25.,25.,80.));
#86 = CARTESIAN_POINT('',(14.206667234227,21.1486718251,0.));
#87 = CARTESIAN_POINT('',(18.75,25.,80.));
#88 = CARTESIAN_POINT('',(9.956771779742,23.840783146641,0.));
#89 = CARTESIAN_POINT('',(12.5,25.,80.));
#90 = CARTESIAN_POINT('',(5.131912874764,25.550089085929,0.));
#91 = CARTESIAN_POINT('',(6.25,25.,80.));
#92 = CARTESIAN_POINT('',(1.403321903126E-13,26.136743963175,0.));
#93 = CARTESIAN_POINT('',(1.110223024625E-16,25.,80.));
#94 = CARTESIAN_POINT('',(-5.131912874765,25.550089085929,0.));
#95 = CARTESIAN_POINT('',(-6.25,25.,80.));
#96 = CARTESIAN_POINT('',(-9.956771779742,23.840783146641,0.));
#97 = CARTESIAN_POINT('',(-12.5,25.,80.));
#98 = CARTESIAN_POINT('',(-14.20666723422,21.1486718251,0.));
#99 = CARTESIAN_POINT('',(-18.75,25.,80.));
#100 = CARTESIAN_POINT('',(-17.67766952966,17.677669529664,0.));
#101 = CARTESIAN_POINT('',(-25.,25.,80.));
#102 = DEFINITIONAL_REPRESENTATION('',(#103),#107);
#103 = LINE('',#104,#105);
#104 = CARTESIAN_POINT('',(0.,0.));
#105 = VECTOR('',#106,1.);
#106 = DIRECTION('',(0.,1.));
#107 = ( GEOMETRIC_REPRESENTATION_CONTEXT(2) 
PARAMETRIC_REPRESENTATION_CONTEXT() REPRESENTATION_CONTEXT('2D SPACE',''
  ) );
#108 = ORIENTED_EDGE('',*,*,#109,.F.);
#109 = EDGE_CURVE('',#110,#69,#112,.T.);
#110 = VERTEX_POINT('',#111);
#111 = CARTESIAN_POINT('',(25.,0.,80.));
#112 = SURFACE_CURVE('',#113,(#117,#124),.PCURVE_S1.);
#113 = LINE('',#114,#115);
#114 = CARTESIAN_POINT('',(25.,-25.,80.));
#115 = VECTOR('',#116,1.);
#116 = DIRECTION('',(0.,1.,0.));
#117 = PCURVE('',#33,#118);
#118 = DEFINITIONAL_REPRESENTATION('',(#119),#123);
#119 = LINE('',#120,#121);
#120 = CARTESIAN_POINT('',(0.,1.));
#121 = VECTOR('',#122,1.);
#122 = DIRECTION('',(1.,0.));
#123 = ( GEOMETRIC_REPRESENTATION_CONTEXT(2) 
PARAMETRIC_REPRESENTATION_CONTEXT() REPRESENTATION_CONTEXT('2D SPACE',''
  ) );
#124 = PCURVE('',#125,#130);
#125 = PLANE('',#126);
#126 = AXIS2_PLACEMENT_3D('',#127,#128,#129);
#127 = CARTESIAN_POINT('',(25.,0.,80.));
#128 = DIRECTION('',(0.,0.,1.));
#129 = DIRECTION('',(-0.894427191,0.4472135955,0.));
#130 = DEFINITIONAL_REPRESENTATION('',(#131),#135);
#131 = LINE('',#132,#133);
#132 = CARTESIAN_POINT('',(-11.18033988749,22.360679774998));
#133 = VECTOR('',#134,1.);
#134 = DIRECTION('',(0.4472135955,-0.894427191));
#135 = ( GEOMETRIC_REPRESENTATION_CONTEXT(2) 
PARAMETRIC_REPRESENTATION_CONTEXT() REPRESENTATION_CONTEXT('2D SPACE',''
  ) );
#136 = ORIENTED_EDGE('',*,*,#137,.F.);
#137 = EDGE_CURVE('',#22,#110,#138,.T.);
#138 = SURFACE_CURVE('',#139,(#142,#149),.PCURVE_S1.);
#139 = B_SPLINE_CURVE_WITH_KNOTS('',1,(#140,#141),.UNSPECIFIED.,.F.,.F.,
  (2,2),(0.,1.),.PIECEWISE_BEZIER_KNOTS.);
#140 = CARTESIAN_POINT('',(25.,0.,0.));
#141 = CARTESIAN_POINT('',(25.,0.,80.));
#142 = PCURVE('',#33,#143);
#143 = DEFINITIONAL_REPRESENTATION('',(#144),#148);
#144 = LINE('',#145,#146);
#145 = CARTESIAN_POINT('',(25.,0.));
#146 = VECTOR('',#147,1.);
#147 = DIRECTION('',(0.,1.));
#148 = ( GEOMETRIC_REPRESENTATION_CONTEXT(2) 
PARAMETRIC_REPRESENTATION_CONTEXT() REPRESENTATION_CONTEXT('2D SPACE',''
  ) );
#149 = PCURVE('',#150,#167);
#150 = B_SPLINE_SURFACE_WITH_KNOTS('',7,1,(
    (#151,#152)
    ,(#153,#154)
    ,(#155,#156)
    ,(#157,#158)
    ,(#159,#160)
    ,(#161,#162)
    ,(#163,#164)
    ,(#165,#166
  )),.UNSPECIFIED.,.F.,.F.,.F.,(8,8),(2,2),(0.,25.),(0.,1.),
  .PIECEWISE_BEZIER_KNOTS.);
#151 = CARTESIAN_POINT('',(17.677669529664,-17.67766952966,0.));
#152 = CARTESIAN_POINT('',(25.,-25.,80.));
#153 = CARTESIAN_POINT('',(19.66109941277,-15.69423964655,0.));
#154 = CARTESIAN_POINT('',(25.,-21.42857142857,80.));
#155 = CARTESIAN_POINT('',(21.384898782365,-13.45117933127,0.));
#156 = CARTESIAN_POINT('',(25.,-17.85714285714,80.));
#157 = CARTESIAN_POINT('',(22.808286099105,-10.98927173968,0.));
#158 = CARTESIAN_POINT('',(25.,-14.28571428571,80.));
#159 = CARTESIAN_POINT('',(23.898482335355,-8.357305200485,0.));
#160 = CARTESIAN_POINT('',(25.,-10.71428571428,80.));
#161 = CARTESIAN_POINT('',(24.632827064102,-5.609986823895,0.));
#162 = CARTESIAN_POINT('',(25.,-7.142857142857,80.));
#163 = CARTESIAN_POINT('',(25.,-2.804993440705,0.));
#164 = CARTESIAN_POINT('',(25.,-3.571428571429,80.));
#165 = CARTESIAN_POINT('',(25.,-5.329070518201E-15,0.));
#166 = CARTESIAN_POINT('',(25.,0.,80.));
#167 = DEFINITIONAL_REPRESENTATION('',(#168),#172);
#168 = LINE('',#169,#170);
#169 = CARTESIAN_POINT('',(25.,0.));
#170 = VECTOR('',#171,1.);
#171 = DIRECTION('',(0.,1.));
#172 = ( GEOMETRIC_REPRESENTATION_CONTEXT(2) 
PARAMETRIC_REPRESENTATION_CONTEXT() REPRESENTATION_CONTEXT('2D SPACE',''
  ) );
#173 = ADVANCED_FACE('',(#174,#305),#56,.F.);
#174 = FACE_BOUND('',#175,.F.);
#175 = EDGE_LOOP('',(#176,#177,#200,#242,#284));
#176 = ORIENTED_EDGE('',*,*,#21,.T.);
#177 = ORIENTED_EDGE('',*,*,#178,.T.);
#178 = EDGE_CURVE('',#24,#179,#181,.T.);
#179 = VERTEX_POINT('',#180);
#180 = CARTESIAN_POINT('',(-17.67766952966,17.677669529664,0.));
#181 = SURFACE_CURVE('',#182,(#187,#194),.PCURVE_S1.);
#182 = CIRCLE('',#183,25.);
#183 = AXIS2_PLACEMENT_3D('',#184,#185,#186);
#184 = CARTESIAN_POINT('',(0.,0.,0.));
#185 = DIRECTION('',(0.,0.,1.));
#186 = DIRECTION('',(1.,0.,0.));
#187 = PCURVE('',#56,#188);
#188 = DEFINITIONAL_REPRESENTATION('',(#189),#193);
#189 = CIRCLE('',#190,25.);
#190 = AXIS2_PLACEMENT_2D('',#191,#192);
#191 = CARTESIAN_POINT('',(0.,0.));
#192 = DIRECTION('',(1.,0.));
#193 = ( GEOMETRIC_REPRESENTATION_CONTEXT(2) 
PARAMETRIC_REPRESENTATION_CONTEXT() REPRESENTATION_CONTEXT('2D SPACE',''
  ) );
#194 = PCURVE('',#83,#195);
#195 = DEFINITIONAL_REPRESENTATION('',(#196),#199);
#196 = B_SPLINE_CURVE_WITH_KNOTS('',1,(#197,#198),.UNSPECIFIED.,.F.,.F.,
  (2,2),(0.785398163397,2.356194490192),.PIECEWISE_BEZIER_KNOTS.);
#197 = CARTESIAN_POINT('',(0.,0.));
#198 = CARTESIAN_POINT('',(50.,0.));
#199 = ( GEOMETRIC_REPRESENTATION_CONTEXT(2) 
PARAMETRIC_REPRESENTATION_CONTEXT() REPRESENTATION_CONTEXT('2D SPACE',''
  ) );
#200 = ORIENTED_EDGE('',*,*,#201,.T.);
#201 = EDGE_CURVE('',#179,#202,#204,.T.);
#202 = VERTEX_POINT('',#203);
#203 = CARTESIAN_POINT('',(-17.67766952966,-17.67766952966,0.));
#204 = SURFACE_CURVE('',#205,(#210,#217),.PCURVE_S1.);
#205 = CIRCLE('',#206,25.);
#206 = AXIS2_PLACEMENT_3D('',#207,#208,#209);
#207 = CARTESIAN_POINT('',(0.,0.,0.));
#208 = DIRECTION('',(0.,0.,1.));
#209 = DIRECTION('',(1.,0.,0.));
#210 = PCURVE('',#56,#211);
#211 = DEFINITIONAL_REPRESENTATION('',(#212),#216);
#212 = CIRCLE('',#213,25.);
#213 = AXIS2_PLACEMENT_2D('',#214,#215);
#214 = CARTESIAN_POINT('',(0.,0.));
#215 = DIRECTION('',(1.,0.));
#216 = ( GEOMETRIC_REPRESENTATION_CONTEXT(2) 
PARAMETRIC_REPRESENTATION_CONTEXT() REPRESENTATION_CONTEXT('2D SPACE',''
  ) );
#217 = PCURVE('',#218,#237);
#218 = B_SPLINE_SURFACE_WITH_KNOTS('',8,1,(
    (#219,#220)
    ,(#221,#222)
    ,(#223,#224)
    ,(#225,#226)
    ,(#227,#228)
    ,(#229,#230)
    ,(#231,#232)
    ,(#233,#234)
    ,(#235,#236
  )),.UNSPECIFIED.,.F.,.F.,.F.,(9,9),(2,2),(0.,50.),(0.,1.),
  .PIECEWISE_BEZIER_KNOTS.);
#219 = CARTESIAN_POINT('',(-17.67766952966,17.677669529664,0.));
#220 = CARTESIAN_POINT('',(-25.,25.,80.));
#221 = CARTESIAN_POINT('',(-21.1486718251,14.206667234228,0.));
#222 = CARTESIAN_POINT('',(-25.,18.75,80.));
#223 = CARTESIAN_POINT('',(-23.84078314664,9.956771779742,0.));
#224 = CARTESIAN_POINT('',(-25.,12.5,80.));
#225 = CARTESIAN_POINT('',(-25.55008908593,5.131912874765,0.));
#226 = CARTESIAN_POINT('',(-25.,6.25,80.));
#227 = CARTESIAN_POINT('',(-26.13674396317,-1.261213355974E-13,0.));
#228 = CARTESIAN_POINT('',(-25.,1.110223024625E-16,80.));
#229 = CARTESIAN_POINT('',(-25.55008908593,-5.131912874765,0.));
#230 = CARTESIAN_POINT('',(-25.,-6.25,80.));
#231 = CARTESIAN_POINT('',(-23.84078314664,-9.956771779742,0.));
#232 = CARTESIAN_POINT('',(-25.,-12.5,80.));
#233 = CARTESIAN_POINT('',(-21.1486718251,-14.20666723422,0.));
#234 = CARTESIAN_POINT('',(-25.,-18.75,80.));
#235 = CARTESIAN_POINT('',(-17.67766952966,-17.67766952966,0.));
#236 = CARTESIAN_POINT('',(-25.,-25.,80.));
#237 = DEFINITIONAL_REPRESENTATION('',(#238),#241);
#238 = B_SPLINE_CURVE_WITH_KNOTS('',1,(#239,#240),.UNSPECIFIED.,.F.,.F.,
  (2,2),(2.356194490192,3.926990816987),.PIECEWISE_BEZIER_KNOTS.);
#239 = CARTESIAN_POINT('',(0.,0.));
#240 = CARTESIAN_POINT('',(50.,0.));
#241 = ( GEOMETRIC_REPRESENTATION_CONTEXT(2) 
PARAMETRIC_REPRESENTATION_CONTEXT() REPRESENTATION_CONTEXT('2D SPACE',''
  ) );
#242 = ORIENTED_EDGE('',*,*,#243,.T.);
#243 = EDGE_CURVE('',#202,#244,#246,.T.);
#244 = VERTEX_POINT('',#245);
#245 = CARTESIAN_POINT('',(17.677669529664,-17.67766952966,0.));
#246 = SURFACE_CURVE('',#247,(#252,#259),.PCURVE_S1.);
#247 = CIRCLE('',#248,25.);
#248 = AXIS2_PLACEMENT_3D('',#249,#250,#251);
#249 = CARTESIAN_POINT('',(0.,0.,0.));
#250 = DIRECTION('',(0.,0.,1.));
#251 = DIRECTION('',(1.,0.,0.));
#252 = PCURVE('',#56,#253);
#253 = DEFINITIONAL_REPRESENTATION('',(#254),#258);
#254 = CIRCLE('',#255,25.);
#255 = AXIS2_PLACEMENT_2D('',#256,#257);
#256 = CARTESIAN_POINT('',(0.,0.));
#257 = DIRECTION('',(1.,0.));
#258 = ( GEOMETRIC_REPRESENTATION_CONTEXT(2) 
PARAMETRIC_REPRESENTATION_CONTEXT() REPRESENTATION_CONTEXT('2D SPACE',''
  ) );
#259 = PCURVE('',#260,#279);
#260 = B_SPLINE_SURFACE_WITH_KNOTS('',8,1,(
    (#261,#262)
    ,(#263,#264)
    ,(#265,#266)
    ,(#267,#268)
    ,(#269,#270)
    ,(#271,#272)
    ,(#273,#274)
    ,(#275,#276)
    ,(#277,#278
  )),.UNSPECIFIED.,.F.,.F.,.F.,(9,9),(2,2),(0.,50.),(0.,1.),
  .PIECEWISE_BEZIER_KNOTS.);
#261 = CARTESIAN_POINT('',(-17.67766952966,-17.67766952966,0.));
#262 = CARTESIAN_POINT('',(-25.,-25.,80.));
#263 = CARTESIAN_POINT('',(-14.20666723422,-21.1486718251,0.));
#264 = CARTESIAN_POINT('',(-18.75,-25.,80.));
#265 = CARTESIAN_POINT('',(-9.956771779742,-23.84078314664,0.));
#266 = CARTESIAN_POINT('',(-12.5,-25.,80.));
#267 = CARTESIAN_POINT('',(-5.131912874765,-25.55008908592,0.));
#268 = CARTESIAN_POINT('',(-6.25,-25.,80.));
#269 = CARTESIAN_POINT('',(-2.113864638886E-13,-26.13674396317,0.));
#270 = CARTESIAN_POINT('',(-1.110223024625E-16,-25.,80.));
#271 = CARTESIAN_POINT('',(5.131912874765,-25.55008908592,0.));
#272 = CARTESIAN_POINT('',(6.25,-25.,80.));
#273 = CARTESIAN_POINT('',(9.956771779742,-23.84078314664,0.));
#274 = CARTESIAN_POINT('',(12.5,-25.,80.));
#275 = CARTESIAN_POINT('',(14.206667234227,-21.1486718251,0.));
#276 = CARTESIAN_POINT('',(18.75,-25.,80.));
#277 = CARTESIAN_POINT('',(17.677669529664,-17.67766952966,0.));
#278 = CARTESIAN_POINT('',(25.,-25.,80.));
#279 = DEFINITIONAL_REPRESENTATION('',(#280),#283);
#280 = B_SPLINE_CURVE_WITH_KNOTS('',1,(#281,#282),.UNSPECIFIED.,.F.,.F.,
  (2,2),(3.926990816987,5.497787143782),.PIECEWISE_BEZIER_KNOTS.);
#281 = CARTESIAN_POINT('',(0.,0.));
#282 = CARTESIAN_POINT('',(50.,0.));
#283 = ( GEOMETRIC_REPRESENTATION_CONTEXT(2) 
PARAMETRIC_REPRESENTATION_CONTEXT() REPRESENTATION_CONTEXT('2D SPACE',''
  ) );
#284 = ORIENTED_EDGE('',*,*,#285,.T.);
#285 = EDGE_CURVE('',#244,#22,#286,.T.);
#286 = SURFACE_CURVE('',#287,(#292,#299),.PCURVE_S1.);
#287 = CIRCLE('',#288,25.);
#288 = AXIS2_PLACEMENT_3D('',#289,#290,#291);
#289 = CARTESIAN_POINT('',(0.,0.,0.));
#290 = DIRECTION('',(0.,0.,1.));
#291 = DIRECTION('',(1.,0.,0.));
#292 = PCURVE('',#56,#293);
#293 = DEFINITIONAL_REPRESENTATION('',(#294),#298);
#294 = CIRCLE('',#295,25.);
#295 = AXIS2_PLACEMENT_2D('',#296,#297);
#296 = CARTESIAN_POINT('',(0.,0.));
#297 = DIRECTION('',(1.,0.));
#298 = ( GEOMETRIC_REPRESENTATION_CONTEXT(2) 
PARAMETRIC_REPRESENTATION_CONTEXT() REPRESENTATION_CONTEXT('2D SPACE',''
  ) );
#299 = PCURVE('',#150,#300);
#300 = DEFINITIONAL_REPRESENTATION('',(#301),#304);
#301 = B_SPLINE_CURVE_WITH_KNOTS('',1,(#302,#303),.UNSPECIFIED.,.F.,.F.,
  (2,2),(5.497787143782,6.28318530718),.PIECEWISE_BEZIER_KNOTS.);
#302 = CARTESIAN_POINT('',(0.,0.));
#303 = CARTESIAN_POINT('',(25.,0.));
#304 = ( GEOMETRIC_REPRESENTATION_CONTEXT(2) 
PARAMETRIC_REPRESENTATION_CONTEXT() REPRESENTATION_CONTEXT('2D SPACE',''
  ) );
#305 = FACE_BOUND('',#306,.F.);
#306 = EDGE_LOOP('',(#307,#349,#389,#431,#473));
#307 = ORIENTED_EDGE('',*,*,#308,.F.);
#308 = EDGE_CURVE('',#309,#311,#313,.T.);
#309 = VERTEX_POINT('',#310);
#310 = CARTESIAN_POINT('',(20.,0.,0.));
#311 = VERTEX_POINT('',#312);
#312 = CARTESIAN_POINT('',(14.142135623731,14.142135623731,0.));
#313 = SURFACE_CURVE('',#314,(#319,#326),.PCURVE_S1.);
#314 = CIRCLE('',#315,20.);
#315 = AXIS2_PLACEMENT_3D('',#316,#317,#318);
#316 = CARTESIAN_POINT('',(0.,0.,0.));
#317 = DIRECTION('',(0.,0.,1.));
#318 = DIRECTION('',(1.,0.,0.));
#319 = PCURVE('',#56,#320);
#320 = DEFINITIONAL_REPRESENTATION('',(#321),#325);
#321 = CIRCLE('',#322,20.);
#322 = AXIS2_PLACEMENT_2D('',#323,#324);
#323 = CARTESIAN_POINT('',(0.,0.));
#324 = DIRECTION('',(1.,0.));
#325 = ( GEOMETRIC_REPRESENTATION_CONTEXT(2) 
PARAMETRIC_REPRESENTATION_CONTEXT() REPRESENTATION_CONTEXT('2D SPACE',''
  ) );
#326 = PCURVE('',#327,#344);
#327 = B_SPLINE_SURFACE_WITH_KNOTS('',7,1,(
    (#328,#329)
    ,(#330,#331)
    ,(#332,#333)
    ,(#334,#335)
    ,(#336,#337)
    ,(#338,#339)
    ,(#340,#341)
    ,(#342,#343
    )),.UNSPECIFIED.,.F.,.F.,.F.,(8,8),(2,2),(20.,40.),(0.,1.),
  .PIECEWISE_BEZIER_KNOTS.);
#328 = CARTESIAN_POINT('',(20.,-8.881784197001E-16,0.));
#329 = CARTESIAN_POINT('',(20.,0.,80.));
#330 = CARTESIAN_POINT('',(20.,2.243994752564,0.));
#331 = CARTESIAN_POINT('',(20.,2.857142857143,80.));
#332 = CARTESIAN_POINT('',(19.706261651281,4.487989459116,0.));
#333 = CARTESIAN_POINT('',(20.,5.714285714286,80.));
#334 = CARTESIAN_POINT('',(19.118785868284,6.685844160388,0.));
#335 = CARTESIAN_POINT('',(20.,8.571428571429,80.));
#336 = CARTESIAN_POINT('',(18.246628879284,8.79141739175,0.));
#337 = CARTESIAN_POINT('',(20.,11.428571428571,80.));
#338 = CARTESIAN_POINT('',(17.107919025892,10.760943465023,0.));
#339 = CARTESIAN_POINT('',(20.,14.285714285714,80.));
#340 = CARTESIAN_POINT('',(15.728879530216,12.555391717246,0.));
#341 = CARTESIAN_POINT('',(20.,17.142857142857,80.));
#342 = CARTESIAN_POINT('',(14.142135623731,14.142135623731,0.));
#343 = CARTESIAN_POINT('',(20.,20.,80.));
#344 = DEFINITIONAL_REPRESENTATION('',(#345),#348);
#345 = B_SPLINE_CURVE_WITH_KNOTS('',1,(#346,#347),.UNSPECIFIED.,.F.,.F.,
  (2,2),(0.,0.785398163397),.PIECEWISE_BEZIER_KNOTS.);
#346 = CARTESIAN_POINT('',(20.,0.));
#347 = CARTESIAN_POINT('',(40.,0.));
#348 = ( GEOMETRIC_REPRESENTATION_CONTEXT(2) 
PARAMETRIC_REPRESENTATION_CONTEXT() REPRESENTATION_CONTEXT('2D SPACE',''
  ) );
#349 = ORIENTED_EDGE('',*,*,#350,.F.);
#350 = EDGE_CURVE('',#351,#309,#353,.T.);
#351 = VERTEX_POINT('',#352);
#352 = CARTESIAN_POINT('',(14.142135623731,-14.14213562373,0.));
#353 = SURFACE_CURVE('',#354,(#359,#366),.PCURVE_S1.);
#354 = CIRCLE('',#355,20.);
#355 = AXIS2_PLACEMENT_3D('',#356,#357,#358);
#356 = CARTESIAN_POINT('',(0.,0.,0.));
#357 = DIRECTION('',(0.,0.,1.));
#358 = DIRECTION('',(1.,0.,0.));
#359 = PCURVE('',#56,#360);
#360 = DEFINITIONAL_REPRESENTATION('',(#361),#365);
#361 = CIRCLE('',#362,20.);
#362 = AXIS2_PLACEMENT_2D('',#363,#364);
#363 = CARTESIAN_POINT('',(0.,0.));
#364 = DIRECTION('',(1.,0.));
#365 = ( GEOMETRIC_REPRESENTATION_CONTEXT(2) 
PARAMETRIC_REPRESENTATION_CONTEXT() REPRESENTATION_CONTEXT('2D SPACE',''
  ) );
#366 = PCURVE('',#367,#384);
#367 = B_SPLINE_SURFACE_WITH_KNOTS('',7,1,(
    (#368,#369)
    ,(#370,#371)
    ,(#372,#373)
    ,(#374,#375)
    ,(#376,#377)
    ,(#378,#379)
    ,(#380,#381)
    ,(#382,#383
  )),.UNSPECIFIED.,.F.,.F.,.F.,(8,8),(2,2),(0.,20.),(0.,1.),
  .PIECEWISE_BEZIER_KNOTS.);
#368 = CARTESIAN_POINT('',(14.142135623731,-14.14213562373,0.));
#369 = CARTESIAN_POINT('',(20.,-20.,80.));
#370 = CARTESIAN_POINT('',(15.728879530216,-12.55539171724,0.));
#371 = CARTESIAN_POINT('',(20.,-17.14285714285,80.));
#372 = CARTESIAN_POINT('',(17.107919025892,-10.76094346502,0.));
#373 = CARTESIAN_POINT('',(20.,-14.28571428571,80.));
#374 = CARTESIAN_POINT('',(18.246628879284,-8.79141739175,0.));
#375 = CARTESIAN_POINT('',(20.,-11.42857142857,80.));
#376 = CARTESIAN_POINT('',(19.118785868284,-6.685844160388,0.));
#377 = CARTESIAN_POINT('',(20.,-8.571428571429,80.));
#378 = CARTESIAN_POINT('',(19.706261651281,-4.487989459116,0.));
#379 = CARTESIAN_POINT('',(20.,-5.714285714286,80.));
#380 = CARTESIAN_POINT('',(20.,-2.243994752564,0.));
#381 = CARTESIAN_POINT('',(20.,-2.857142857143,80.));
#382 = CARTESIAN_POINT('',(20.,-3.552713678801E-15,0.));
#383 = CARTESIAN_POINT('',(20.,0.,80.));
#384 = DEFINITIONAL_REPRESENTATION('',(#385),#388);
#385 = B_SPLINE_CURVE_WITH_KNOTS('',1,(#386,#387),.UNSPECIFIED.,.F.,.F.,
  (2,2),(5.497787143782,6.28318530718),.PIECEWISE_BEZIER_KNOTS.);
#386 = CARTESIAN_POINT('',(0.,0.));
#387 = CARTESIAN_POINT('',(20.,0.));
#388 = ( GEOMETRIC_REPRESENTATION_CONTEXT(2) 
PARAMETRIC_REPRESENTATION_CONTEXT() REPRESENTATION_CONTEXT('2D SPACE',''
  ) );
#389 = ORIENTED_EDGE('',*,*,#390,.F.);
#390 = EDGE_CURVE('',#391,#351,#393,.T.);
#391 = VERTEX_POINT('',#392);
#392 = CARTESIAN_POINT('',(-14.14213562373,-14.14213562373,0.));
#393 = SURFACE_CURVE('',#394,(#399,#406),.PCURVE_S1.);
#394 = CIRCLE('',#395,20.);
#395 = AXIS2_PLACEMENT_3D('',#396,#397,#398);
#396 = CARTESIAN_POINT('',(0.,0.,0.));
#397 = DIRECTION('',(0.,0.,1.));
#398 = DIRECTION('',(1.,0.,0.));
#399 = PCURVE('',#56,#400);
#400 = DEFINITIONAL_REPRESENTATION('',(#401),#405);
#401 = CIRCLE('',#402,20.);
#402 = AXIS2_PLACEMENT_2D('',#403,#404);
#403 = CARTESIAN_POINT('',(0.,0.));
#404 = DIRECTION('',(1.,0.));
#405 = ( GEOMETRIC_REPRESENTATION_CONTEXT(2) 
PARAMETRIC_REPRESENTATION_CONTEXT() REPRESENTATION_CONTEXT('2D SPACE',''
  ) );
#406 = PCURVE('',#407,#426);
#407 = B_SPLINE_SURFACE_WITH_KNOTS('',8,1,(
    (#408,#409)
    ,(#410,#411)
    ,(#412,#413)
    ,(#414,#415)
    ,(#416,#417)
    ,(#418,#419)
    ,(#420,#421)
    ,(#422,#423)
    ,(#424,#425
  )),.UNSPECIFIED.,.F.,.F.,.F.,(9,9),(2,2),(0.,40.),(0.,1.),
  .PIECEWISE_BEZIER_KNOTS.);
#408 = CARTESIAN_POINT('',(-14.14213562373,-14.14213562373,0.));
#409 = CARTESIAN_POINT('',(-20.,-20.,80.));
#410 = CARTESIAN_POINT('',(-11.36533378738,-16.91893746008,0.));
#411 = CARTESIAN_POINT('',(-15.,-20.,80.));
#412 = CARTESIAN_POINT('',(-7.965417423793,-19.07262651731,0.));
#413 = CARTESIAN_POINT('',(-10.,-20.,80.));
#414 = CARTESIAN_POINT('',(-4.105530299812,-20.44007126874,0.));
#415 = CARTESIAN_POINT('',(-5.,-20.,80.));
#416 = CARTESIAN_POINT('',(-1.95399252334E-13,-20.90939517054,0.));
#417 = CARTESIAN_POINT('',(1.110223024625E-16,-20.,80.));
#418 = CARTESIAN_POINT('',(4.105530299812,-20.44007126874,0.));
#419 = CARTESIAN_POINT('',(5.,-20.,80.));
#420 = CARTESIAN_POINT('',(7.965417423793,-19.07262651731,0.));
#421 = CARTESIAN_POINT('',(10.,-20.,80.));
#422 = CARTESIAN_POINT('',(11.365333787382,-16.91893746008,0.));
#423 = CARTESIAN_POINT('',(15.,-20.,80.));
#424 = CARTESIAN_POINT('',(14.142135623731,-14.14213562373,0.));
#425 = CARTESIAN_POINT('',(20.,-20.,80.));
#426 = DEFINITIONAL_REPRESENTATION('',(#427),#430);
#427 = B_SPLINE_CURVE_WITH_KNOTS('',1,(#428,#429),.UNSPECIFIED.,.F.,.F.,
  (2,2),(3.926990816987,5.497787143782),.PIECEWISE_BEZIER_KNOTS.);
#428 = CARTESIAN_POINT('',(0.,0.));
#429 = CARTESIAN_POINT('',(40.,0.));
#430 = ( GEOMETRIC_REPRESENTATION_CONTEXT(2) 
PARAMETRIC_REPRESENTATION_CONTEXT() REPRESENTATION_CONTEXT('2D SPACE',''
  ) );
#431 = ORIENTED_EDGE('',*,*,#432,.F.);
#432 = EDGE_CURVE('',#433,#391,#435,.T.);
#433 = VERTEX_POINT('',#434);
#434 = CARTESIAN_POINT('',(-14.14213562373,14.142135623731,0.));
#435 = SURFACE_CURVE('',#436,(#441,#448),.PCURVE_S1.);
#436 = CIRCLE('',#437,20.);
#437 = AXIS2_PLACEMENT_3D('',#438,#439,#440);
#438 = CARTESIAN_POINT('',(0.,0.,0.));
#439 = DIRECTION('',(0.,0.,1.));
#440 = DIRECTION('',(1.,0.,0.));
#441 = PCURVE('',#56,#442);
#442 = DEFINITIONAL_REPRESENTATION('',(#443),#447);
#443 = CIRCLE('',#444,20.);
#444 = AXIS2_PLACEMENT_2D('',#445,#446);
#445 = CARTESIAN_POINT('',(0.,0.));
#446 = DIRECTION('',(1.,0.));
#447 = ( GEOMETRIC_REPRESENTATION_CONTEXT(2) 
PARAMETRIC_REPRESENTATION_CONTEXT() REPRESENTATION_CONTEXT('2D SPACE',''
  ) );
#448 = PCURVE('',#449,#468);
#449 = B_SPLINE_SURFACE_WITH_KNOTS('',8,1,(
    (#450,#451)
    ,(#452,#453)
    ,(#454,#455)
    ,(#456,#457)
    ,(#458,#459)
    ,(#460,#461)
    ,(#462,#463)
    ,(#464,#465)
    ,(#466,#467
  )),.UNSPECIFIED.,.F.,.F.,.F.,(9,9),(2,2),(0.,40.),(0.,1.),
  .PIECEWISE_BEZIER_KNOTS.);
#450 = CARTESIAN_POINT('',(-14.14213562373,14.142135623731,0.));
#451 = CARTESIAN_POINT('',(-20.,20.,80.));
#452 = CARTESIAN_POINT('',(-16.91893746008,11.365333787382,0.));
#453 = CARTESIAN_POINT('',(-20.,15.,80.));
#454 = CARTESIAN_POINT('',(-19.07262651731,7.965417423793,0.));
#455 = CARTESIAN_POINT('',(-20.,10.,80.));
#456 = CARTESIAN_POINT('',(-20.44007126874,4.105530299812,0.));
#457 = CARTESIAN_POINT('',(-20.,5.,80.));
#458 = CARTESIAN_POINT('',(-20.90939517053,-4.23661106197E-13,0.));
#459 = CARTESIAN_POINT('',(-20.,-1.110223024625E-16,80.));
#460 = CARTESIAN_POINT('',(-20.44007126874,-4.105530299811,0.));
#461 = CARTESIAN_POINT('',(-20.,-5.,80.));
#462 = CARTESIAN_POINT('',(-19.07262651731,-7.965417423794,0.));
#463 = CARTESIAN_POINT('',(-20.,-10.,80.));
#464 = CARTESIAN_POINT('',(-16.91893746008,-11.36533378738,0.));
#465 = CARTESIAN_POINT('',(-20.,-15.,80.));
#466 = CARTESIAN_POINT('',(-14.14213562373,-14.14213562373,0.));
#467 = CARTESIAN_POINT('',(-20.,-20.,80.));
#468 = DEFINITIONAL_REPRESENTATION('',(#469),#472);
#469 = B_SPLINE_CURVE_WITH_KNOTS('',1,(#470,#471),.UNSPECIFIED.,.F.,.F.,
  (2,2),(2.356194490192,3.926990816987),.PIECEWISE_BEZIER_KNOTS.);
#470 = CARTESIAN_POINT('',(0.,0.));
#471 = CARTESIAN_POINT('',(40.,0.));
#472 = ( GEOMETRIC_REPRESENTATION_CONTEXT(2) 
PARAMETRIC_REPRESENTATION_CONTEXT() REPRESENTATION_CONTEXT('2D SPACE',''
  ) );
#473 = ORIENTED_EDGE('',*,*,#474,.F.);
#474 = EDGE_CURVE('',#311,#433,#475,.T.);
#475 = SURFACE_CURVE('',#476,(#481,#488),.PCURVE_S1.);
#476 = CIRCLE('',#477,20.);
#477 = AXIS2_PLACEMENT_3D('',#478,#479,#480);
#478 = CARTESIAN_POINT('',(0.,0.,0.));
#479 = DIRECTION('',(0.,0.,1.));
#480 = DIRECTION('',(1.,0.,0.));
#481 = PCURVE('',#56,#482);
#482 = DEFINITIONAL_REPRESENTATION('',(#483),#487);
#483 = CIRCLE('',#484,20.);
#484 = AXIS2_PLACEMENT_2D('',#485,#486);
#485 = CARTESIAN_POINT('',(0.,0.));
#486 = DIRECTION('',(1.,0.));
#487 = ( GEOMETRIC_REPRESENTATION_CONTEXT(2) 
PARAMETRIC_REPRESENTATION_CONTEXT() REPRESENTATION_CONTEXT('2D SPACE',''
  ) );
#488 = PCURVE('',#489,#508);
#489 = B_SPLINE_SURFACE_WITH_KNOTS('',8,1,(
    (#490,#491)
    ,(#492,#493)
    ,(#494,#495)
    ,(#496,#497)
    ,(#498,#499)
    ,(#500,#501)
    ,(#502,#503)
    ,(#504,#505)
    ,(#506,#507
  )),.UNSPECIFIED.,.F.,.F.,.F.,(9,9),(2,2),(0.,40.),(0.,1.),
  .PIECEWISE_BEZIER_KNOTS.);
#490 = CARTESIAN_POINT('',(14.142135623731,14.142135623731,0.));
#491 = CARTESIAN_POINT('',(20.,20.,80.));
#492 = CARTESIAN_POINT('',(11.365333787382,16.91893746008,0.));
#493 = CARTESIAN_POINT('',(15.,20.,80.));
#494 = CARTESIAN_POINT('',(7.965417423793,19.072626517313,0.));
#495 = CARTESIAN_POINT('',(10.,20.,80.));
#496 = CARTESIAN_POINT('',(4.105530299812,20.440071268743,0.));
#497 = CARTESIAN_POINT('',(5.,20.,80.));
#498 = CARTESIAN_POINT('',(1.7763568394E-15,20.909395170541,0.));
#499 = CARTESIAN_POINT('',(-1.110223024625E-16,20.,80.));
#500 = CARTESIAN_POINT('',(-4.105530299812,20.440071268743,0.));
#501 = CARTESIAN_POINT('',(-5.,20.,80.));
#502 = CARTESIAN_POINT('',(-7.965417423794,19.072626517313,0.));
#503 = CARTESIAN_POINT('',(-10.,20.,80.));
#504 = CARTESIAN_POINT('',(-11.36533378738,16.91893746008,0.));
#505 = CARTESIAN_POINT('',(-15.,20.,80.));
#506 = CARTESIAN_POINT('',(-14.14213562373,14.142135623731,0.));
#507 = CARTESIAN_POINT('',(-20.,20.,80.));
#508 = DEFINITIONAL_REPRESENTATION('',(#509),#512);
#509 = B_SPLINE_CURVE_WITH_KNOTS('',1,(#510,#511),.UNSPECIFIED.,.F.,.F.,
  (2,2),(0.785398163397,2.356194490192),.PIECEWISE_BEZIER_KNOTS.);
#510 = CARTESIAN_POINT('',(0.,0.));
#511 = CARTESIAN_POINT('',(40.,0.));
#512 = ( GEOMETRIC_REPRESENTATION_CONTEXT(2) 
PARAMETRIC_REPRESENTATION_CONTEXT() REPRESENTATION_CONTEXT('2D SPACE',''
  ) );
#513 = ADVANCED_FACE('',(#514),#83,.T.);
#514 = FACE_BOUND('',#515,.T.);
#515 = EDGE_LOOP('',(#516,#517,#539,#560));
#516 = ORIENTED_EDGE('',*,*,#178,.T.);
#517 = ORIENTED_EDGE('',*,*,#518,.T.);
#518 = EDGE_CURVE('',#179,#519,#521,.T.);
#519 = VERTEX_POINT('',#520);
#520 = CARTESIAN_POINT('',(-25.,25.,80.));
#521 = SURFACE_CURVE('',#522,(#525,#532),.PCURVE_S1.);
#522 = B_SPLINE_CURVE_WITH_KNOTS('',1,(#523,#524),.UNSPECIFIED.,.F.,.F.,
  (2,2),(0.,1.),.PIECEWISE_BEZIER_KNOTS.);
#523 = CARTESIAN_POINT('',(-17.67766952966,17.677669529664,0.));
#524 = CARTESIAN_POINT('',(-25.,25.,80.));
#525 = PCURVE('',#83,#526);
#526 = DEFINITIONAL_REPRESENTATION('',(#527),#531);
#527 = LINE('',#528,#529);
#528 = CARTESIAN_POINT('',(50.,0.));
#529 = VECTOR('',#530,1.);
#530 = DIRECTION('',(0.,1.));
#531 = ( GEOMETRIC_REPRESENTATION_CONTEXT(2) 
PARAMETRIC_REPRESENTATION_CONTEXT() REPRESENTATION_CONTEXT('2D SPACE',''
  ) );
#532 = PCURVE('',#218,#533);
#533 = DEFINITIONAL_REPRESENTATION('',(#534),#538);
#534 = LINE('',#535,#536);
#535 = CARTESIAN_POINT('',(0.,0.));
#536 = VECTOR('',#537,1.);
#537 = DIRECTION('',(0.,1.));
#538 = ( GEOMETRIC_REPRESENTATION_CONTEXT(2) 
PARAMETRIC_REPRESENTATION_CONTEXT() REPRESENTATION_CONTEXT('2D SPACE',''
  ) );
#539 = ORIENTED_EDGE('',*,*,#540,.F.);
#540 = EDGE_CURVE('',#69,#519,#541,.T.);
#541 = SURFACE_CURVE('',#542,(#546,#553),.PCURVE_S1.);
#542 = LINE('',#543,#544);
#543 = CARTESIAN_POINT('',(25.,25.,80.));
#544 = VECTOR('',#545,1.);
#545 = DIRECTION('',(-1.,0.,0.));
#546 = PCURVE('',#83,#547);
#547 = DEFINITIONAL_REPRESENTATION('',(#548),#552);
#548 = LINE('',#549,#550);
#549 = CARTESIAN_POINT('',(0.,1.));
#550 = VECTOR('',#551,1.);
#551 = DIRECTION('',(1.,0.));
#552 = ( GEOMETRIC_REPRESENTATION_CONTEXT(2) 
PARAMETRIC_REPRESENTATION_CONTEXT() REPRESENTATION_CONTEXT('2D SPACE',''
  ) );
#553 = PCURVE('',#125,#554);
#554 = DEFINITIONAL_REPRESENTATION('',(#555),#559);
#555 = LINE('',#556,#557);
#556 = CARTESIAN_POINT('',(11.180339887499,-22.36067977499));
#557 = VECTOR('',#558,1.);
#558 = DIRECTION('',(0.894427191,0.4472135955));
#559 = ( GEOMETRIC_REPRESENTATION_CONTEXT(2) 
PARAMETRIC_REPRESENTATION_CONTEXT() REPRESENTATION_CONTEXT('2D SPACE',''
  ) );
#560 = ORIENTED_EDGE('',*,*,#68,.F.);
#561 = ADVANCED_FACE('',(#562,#633),#125,.T.);
#562 = FACE_BOUND('',#563,.T.);
#563 = EDGE_LOOP('',(#564,#565,#566,#589,#612));
#564 = ORIENTED_EDGE('',*,*,#109,.T.);
#565 = ORIENTED_EDGE('',*,*,#540,.T.);
#566 = ORIENTED_EDGE('',*,*,#567,.T.);
#567 = EDGE_CURVE('',#519,#568,#570,.T.);
#568 = VERTEX_POINT('',#569);
#569 = CARTESIAN_POINT('',(-25.,-25.,80.));
#570 = SURFACE_CURVE('',#571,(#575,#582),.PCURVE_S1.);
#571 = LINE('',#572,#573);
#572 = CARTESIAN_POINT('',(-25.,25.,80.));
#573 = VECTOR('',#574,1.);
#574 = DIRECTION('',(0.,-1.,0.));
#575 = PCURVE('',#125,#576);
#576 = DEFINITIONAL_REPRESENTATION('',(#577),#581);
#577 = LINE('',#578,#579);
#578 = CARTESIAN_POINT('',(55.901699437495,0.));
#579 = VECTOR('',#580,1.);
#580 = DIRECTION('',(-0.4472135955,0.894427191));
#581 = ( GEOMETRIC_REPRESENTATION_CONTEXT(2) 
PARAMETRIC_REPRESENTATION_CONTEXT() REPRESENTATION_CONTEXT('2D SPACE',''
  ) );
#582 = PCURVE('',#218,#583);
#583 = DEFINITIONAL_REPRESENTATION('',(#584),#588);
#584 = LINE('',#585,#586);
#585 = CARTESIAN_POINT('',(0.,1.));
#586 = VECTOR('',#587,1.);
#587 = DIRECTION('',(1.,0.));
#588 = ( GEOMETRIC_REPRESENTATION_CONTEXT(2) 
PARAMETRIC_REPRESENTATION_CONTEXT() REPRESENTATION_CONTEXT('2D SPACE',''
  ) );
#589 = ORIENTED_EDGE('',*,*,#590,.T.);
#590 = EDGE_CURVE('',#568,#591,#593,.T.);
#591 = VERTEX_POINT('',#592);
#592 = CARTESIAN_POINT('',(25.,-25.,80.));
#593 = SURFACE_CURVE('',#594,(#598,#605),.PCURVE_S1.);
#594 = LINE('',#595,#596);
#595 = CARTESIAN_POINT('',(-25.,-25.,80.));
#596 = VECTOR('',#597,1.);
#597 = DIRECTION('',(1.,0.,0.));
#598 = PCURVE('',#125,#599);
#599 = DEFINITIONAL_REPRESENTATION('',(#600),#604);
#600 = LINE('',#601,#602);
#601 = CARTESIAN_POINT('',(33.541019662497,44.721359549996));
#602 = VECTOR('',#603,1.);
#603 = DIRECTION('',(-0.894427191,-0.4472135955));
#604 = ( GEOMETRIC_REPRESENTATION_CONTEXT(2) 
PARAMETRIC_REPRESENTATION_CONTEXT() REPRESENTATION_CONTEXT('2D SPACE',''
  ) );
#605 = PCURVE('',#260,#606);
#606 = DEFINITIONAL_REPRESENTATION('',(#607),#611);
#607 = LINE('',#608,#609);
#608 = CARTESIAN_POINT('',(0.,1.));
#609 = VECTOR('',#610,1.);
#610 = DIRECTION('',(1.,0.));
#611 = ( GEOMETRIC_REPRESENTATION_CONTEXT(2) 
PARAMETRIC_REPRESENTATION_CONTEXT() REPRESENTATION_CONTEXT('2D SPACE',''
  ) );
#612 = ORIENTED_EDGE('',*,*,#613,.T.);
#613 = EDGE_CURVE('',#591,#110,#614,.T.);
#614 = SURFACE_CURVE('',#615,(#619,#626),.PCURVE_S1.);
#615 = LINE('',#616,#617);
#616 = CARTESIAN_POINT('',(25.,-25.,80.));
#617 = VECTOR('',#618,1.);
#618 = DIRECTION('',(0.,1.,0.));
#619 = PCURVE('',#125,#620);
#620 = DEFINITIONAL_REPRESENTATION('',(#621),#625);
#621 = LINE('',#622,#623);
#622 = CARTESIAN_POINT('',(-11.18033988749,22.360679774998));
#623 = VECTOR('',#624,1.);
#624 = DIRECTION('',(0.4472135955,-0.894427191));
#625 = ( GEOMETRIC_REPRESENTATION_CONTEXT(2) 
PARAMETRIC_REPRESENTATION_CONTEXT() REPRESENTATION_CONTEXT('2D SPACE',''
  ) );
#626 = PCURVE('',#150,#627);
#627 = DEFINITIONAL_REPRESENTATION('',(#628),#632);
#628 = LINE('',#629,#630);
#629 = CARTESIAN_POINT('',(0.,1.));
#630 = VECTOR('',#631,1.);
#631 = DIRECTION('',(1.,0.));
#632 = ( GEOMETRIC_REPRESENTATION_CONTEXT(2) 
PARAMETRIC_REPRESENTATION_CONTEXT() REPRESENTATION_CONTEXT('2D SPACE',''
  ) );
#633 = FACE_BOUND('',#634,.T.);
#634 = EDGE_LOOP('',(#635,#660,#683,#706,#729));
#635 = ORIENTED_EDGE('',*,*,#636,.F.);
#636 = EDGE_CURVE('',#637,#639,#641,.T.);
#637 = VERTEX_POINT('',#638);
#638 = CARTESIAN_POINT('',(20.,0.,80.));
#639 = VERTEX_POINT('',#640);
#640 = CARTESIAN_POINT('',(20.,20.,80.));
#641 = SURFACE_CURVE('',#642,(#646,#653),.PCURVE_S1.);
#642 = LINE('',#643,#644);
#643 = CARTESIAN_POINT('',(20.,-20.,80.));
#644 = VECTOR('',#645,1.);
#645 = DIRECTION('',(0.,1.,0.));
#646 = PCURVE('',#125,#647);
#647 = DEFINITIONAL_REPRESENTATION('',(#648),#652);
#648 = LINE('',#649,#650);
#649 = CARTESIAN_POINT('',(-4.472135955,20.124611797498));
#650 = VECTOR('',#651,1.);
#651 = DIRECTION('',(0.4472135955,-0.894427191));
#652 = ( GEOMETRIC_REPRESENTATION_CONTEXT(2) 
PARAMETRIC_REPRESENTATION_CONTEXT() REPRESENTATION_CONTEXT('2D SPACE',''
  ) );
#653 = PCURVE('',#327,#654);
#654 = DEFINITIONAL_REPRESENTATION('',(#655),#659);
#655 = LINE('',#656,#657);
#656 = CARTESIAN_POINT('',(0.,1.));
#657 = VECTOR('',#658,1.);
#658 = DIRECTION('',(1.,0.));
#659 = ( GEOMETRIC_REPRESENTATION_CONTEXT(2) 
PARAMETRIC_REPRESENTATION_CONTEXT() REPRESENTATION_CONTEXT('2D SPACE',''
  ) );
#660 = ORIENTED_EDGE('',*,*,#661,.F.);
#661 = EDGE_CURVE('',#662,#637,#664,.T.);
#662 = VERTEX_POINT('',#663);
#663 = CARTESIAN_POINT('',(20.,-20.,80.));
#664 = SURFACE_CURVE('',#665,(#669,#676),.PCURVE_S1.);
#665 = LINE('',#666,#667);
#666 = CARTESIAN_POINT('',(20.,-20.,80.));
#667 = VECTOR('',#668,1.);
#668 = DIRECTION('',(0.,1.,0.));
#669 = PCURVE('',#125,#670);
#670 = DEFINITIONAL_REPRESENTATION('',(#671),#675);
#671 = LINE('',#672,#673);
#672 = CARTESIAN_POINT('',(-4.472135955,20.124611797498));
#673 = VECTOR('',#674,1.);
#674 = DIRECTION('',(0.4472135955,-0.894427191));
#675 = ( GEOMETRIC_REPRESENTATION_CONTEXT(2) 
PARAMETRIC_REPRESENTATION_CONTEXT() REPRESENTATION_CONTEXT('2D SPACE',''
  ) );
#676 = PCURVE('',#367,#677);
#677 = DEFINITIONAL_REPRESENTATION('',(#678),#682);
#678 = LINE('',#679,#680);
#679 = CARTESIAN_POINT('',(0.,1.));
#680 = VECTOR('',#681,1.);
#681 = DIRECTION('',(1.,0.));
#682 = ( GEOMETRIC_REPRESENTATION_CONTEXT(2) 
PARAMETRIC_REPRESENTATION_CONTEXT() REPRESENTATION_CONTEXT('2D SPACE',''
  ) );
#683 = ORIENTED_EDGE('',*,*,#684,.F.);
#684 = EDGE_CURVE('',#685,#662,#687,.T.);
#685 = VERTEX_POINT('',#686);
#686 = CARTESIAN_POINT('',(-20.,-20.,80.));
#687 = SURFACE_CURVE('',#688,(#692,#699),.PCURVE_S1.);
#688 = LINE('',#689,#690);
#689 = CARTESIAN_POINT('',(-20.,-20.,80.));
#690 = VECTOR('',#691,1.);
#691 = DIRECTION('',(1.,0.,0.));
#692 = PCURVE('',#125,#693);
#693 = DEFINITIONAL_REPRESENTATION('',(#694),#698);
#694 = LINE('',#695,#696);
#695 = CARTESIAN_POINT('',(31.304951684997,38.013155617496));
#696 = VECTOR('',#697,1.);
#697 = DIRECTION('',(-0.894427191,-0.4472135955));
#698 = ( GEOMETRIC_REPRESENTATION_CONTEXT(2) 
PARAMETRIC_REPRESENTATION_CONTEXT() REPRESENTATION_CONTEXT('2D SPACE',''
  ) );
#699 = PCURVE('',#407,#700);
#700 = DEFINITIONAL_REPRESENTATION('',(#701),#705);
#701 = LINE('',#702,#703);
#702 = CARTESIAN_POINT('',(0.,1.));
#703 = VECTOR('',#704,1.);
#704 = DIRECTION('',(1.,0.));
#705 = ( GEOMETRIC_REPRESENTATION_CONTEXT(2) 
PARAMETRIC_REPRESENTATION_CONTEXT() REPRESENTATION_CONTEXT('2D SPACE',''
  ) );
#706 = ORIENTED_EDGE('',*,*,#707,.F.);
#707 = EDGE_CURVE('',#708,#685,#710,.T.);
#708 = VERTEX_POINT('',#709);
#709 = CARTESIAN_POINT('',(-20.,20.,80.));
#710 = SURFACE_CURVE('',#711,(#715,#722),.PCURVE_S1.);
#711 = LINE('',#712,#713);
#712 = CARTESIAN_POINT('',(-20.,20.,80.));
#713 = VECTOR('',#714,1.);
#714 = DIRECTION('',(0.,-1.,0.));
#715 = PCURVE('',#125,#716);
#716 = DEFINITIONAL_REPRESENTATION('',(#717),#721);
#717 = LINE('',#718,#719);
#718 = CARTESIAN_POINT('',(49.193495504995,2.2360679775));
#719 = VECTOR('',#720,1.);
#720 = DIRECTION('',(-0.4472135955,0.894427191));
#721 = ( GEOMETRIC_REPRESENTATION_CONTEXT(2) 
PARAMETRIC_REPRESENTATION_CONTEXT() REPRESENTATION_CONTEXT('2D SPACE',''
  ) );
#722 = PCURVE('',#449,#723);
#723 = DEFINITIONAL_REPRESENTATION('',(#724),#728);
#724 = LINE('',#725,#726);
#725 = CARTESIAN_POINT('',(0.,1.));
#726 = VECTOR('',#727,1.);
#727 = DIRECTION('',(1.,0.));
#728 = ( GEOMETRIC_REPRESENTATION_CONTEXT(2) 
PARAMETRIC_REPRESENTATION_CONTEXT() REPRESENTATION_CONTEXT('2D SPACE',''
  ) );
#729 = ORIENTED_EDGE('',*,*,#730,.F.);
#730 = EDGE_CURVE('',#639,#708,#731,.T.);
#731 = SURFACE_CURVE('',#732,(#736,#743),.PCURVE_S1.);
#732 = LINE('',#733,#734);
#733 = CARTESIAN_POINT('',(20.,20.,80.));
#734 = VECTOR('',#735,1.);
#735 = DIRECTION('',(-1.,0.,0.));
#736 = PCURVE('',#125,#737);
#737 = DEFINITIONAL_REPRESENTATION('',(#738),#742);
#738 = LINE('',#739,#740);
#739 = CARTESIAN_POINT('',(13.416407864999,-15.65247584249));
#740 = VECTOR('',#741,1.);
#741 = DIRECTION('',(0.894427191,0.4472135955));
#742 = ( GEOMETRIC_REPRESENTATION_CONTEXT(2) 
PARAMETRIC_REPRESENTATION_CONTEXT() REPRESENTATION_CONTEXT('2D SPACE',''
  ) );
#743 = PCURVE('',#489,#744);
#744 = DEFINITIONAL_REPRESENTATION('',(#745),#749);
#745 = LINE('',#746,#747);
#746 = CARTESIAN_POINT('',(0.,1.));
#747 = VECTOR('',#748,1.);
#748 = DIRECTION('',(1.,0.));
#749 = ( GEOMETRIC_REPRESENTATION_CONTEXT(2) 
PARAMETRIC_REPRESENTATION_CONTEXT() REPRESENTATION_CONTEXT('2D SPACE',''
  ) );
#750 = ADVANCED_FACE('',(#751),#150,.T.);
#751 = FACE_BOUND('',#752,.T.);
#752 = EDGE_LOOP('',(#753,#754,#755,#756));
#753 = ORIENTED_EDGE('',*,*,#285,.T.);
#754 = ORIENTED_EDGE('',*,*,#137,.T.);
#755 = ORIENTED_EDGE('',*,*,#613,.F.);
#756 = ORIENTED_EDGE('',*,*,#757,.F.);
#757 = EDGE_CURVE('',#244,#591,#758,.T.);
#758 = SURFACE_CURVE('',#759,(#762,#769),.PCURVE_S1.);
#759 = B_SPLINE_CURVE_WITH_KNOTS('',1,(#760,#761),.UNSPECIFIED.,.F.,.F.,
  (2,2),(0.,1.),.PIECEWISE_BEZIER_KNOTS.);
#760 = CARTESIAN_POINT('',(17.677669529664,-17.67766952966,0.));
#761 = CARTESIAN_POINT('',(25.,-25.,80.));
#762 = PCURVE('',#150,#763);
#763 = DEFINITIONAL_REPRESENTATION('',(#764),#768);
#764 = LINE('',#765,#766);
#765 = CARTESIAN_POINT('',(0.,0.));
#766 = VECTOR('',#767,1.);
#767 = DIRECTION('',(0.,1.));
#768 = ( GEOMETRIC_REPRESENTATION_CONTEXT(2) 
PARAMETRIC_REPRESENTATION_CONTEXT() REPRESENTATION_CONTEXT('2D SPACE',''
  ) );
#769 = PCURVE('',#260,#770);
#770 = DEFINITIONAL_REPRESENTATION('',(#771),#775);
#771 = LINE('',#772,#773);
#772 = CARTESIAN_POINT('',(50.,0.));
#773 = VECTOR('',#774,1.);
#774 = DIRECTION('',(0.,1.));
#775 = ( GEOMETRIC_REPRESENTATION_CONTEXT(2) 
PARAMETRIC_REPRESENTATION_CONTEXT() REPRESENTATION_CONTEXT('2D SPACE',''
  ) );
#776 = ADVANCED_FACE('',(#777),#260,.T.);
#777 = FACE_BOUND('',#778,.T.);
#778 = EDGE_LOOP('',(#779,#780,#781,#782));
#779 = ORIENTED_EDGE('',*,*,#243,.T.);
#780 = ORIENTED_EDGE('',*,*,#757,.T.);
#781 = ORIENTED_EDGE('',*,*,#590,.F.);
#782 = ORIENTED_EDGE('',*,*,#783,.F.);
#783 = EDGE_CURVE('',#202,#568,#784,.T.);
#784 = SURFACE_CURVE('',#785,(#788,#795),.PCURVE_S1.);
#785 = B_SPLINE_CURVE_WITH_KNOTS('',1,(#786,#787),.UNSPECIFIED.,.F.,.F.,
  (2,2),(0.,1.),.PIECEWISE_BEZIER_KNOTS.);
#786 = CARTESIAN_POINT('',(-17.67766952966,-17.67766952966,0.));
#787 = CARTESIAN_POINT('',(-25.,-25.,80.));
#788 = PCURVE('',#260,#789);
#789 = DEFINITIONAL_REPRESENTATION('',(#790),#794);
#790 = LINE('',#791,#792);
#791 = CARTESIAN_POINT('',(0.,0.));
#792 = VECTOR('',#793,1.);
#793 = DIRECTION('',(0.,1.));
#794 = ( GEOMETRIC_REPRESENTATION_CONTEXT(2) 
PARAMETRIC_REPRESENTATION_CONTEXT() REPRESENTATION_CONTEXT('2D SPACE',''
  ) );
#795 = PCURVE('',#218,#796);
#796 = DEFINITIONAL_REPRESENTATION('',(#797),#801);
#797 = LINE('',#798,#799);
#798 = CARTESIAN_POINT('',(50.,0.));
#799 = VECTOR('',#800,1.);
#800 = DIRECTION('',(0.,1.));
#801 = ( GEOMETRIC_REPRESENTATION_CONTEXT(2) 
PARAMETRIC_REPRESENTATION_CONTEXT() REPRESENTATION_CONTEXT('2D SPACE',''
  ) );
#802 = ADVANCED_FACE('',(#803),#218,.T.);
#803 = FACE_BOUND('',#804,.T.);
#804 = EDGE_LOOP('',(#805,#806,#807,#808));
#805 = ORIENTED_EDGE('',*,*,#201,.T.);
#806 = ORIENTED_EDGE('',*,*,#783,.T.);
#807 = ORIENTED_EDGE('',*,*,#567,.F.);
#808 = ORIENTED_EDGE('',*,*,#518,.F.);
#809 = ADVANCED_FACE('',(#810),#327,.F.);
#810 = FACE_BOUND('',#811,.F.);
#811 = EDGE_LOOP('',(#812,#813,#833,#834));
#812 = ORIENTED_EDGE('',*,*,#308,.T.);
#813 = ORIENTED_EDGE('',*,*,#814,.T.);
#814 = EDGE_CURVE('',#311,#639,#815,.T.);
#815 = SURFACE_CURVE('',#816,(#819,#826),.PCURVE_S1.);
#816 = B_SPLINE_CURVE_WITH_KNOTS('',1,(#817,#818),.UNSPECIFIED.,.F.,.F.,
  (2,2),(0.,1.),.PIECEWISE_BEZIER_KNOTS.);
#817 = CARTESIAN_POINT('',(14.142135623731,14.142135623731,0.));
#818 = CARTESIAN_POINT('',(20.,20.,80.));
#819 = PCURVE('',#327,#820);
#820 = DEFINITIONAL_REPRESENTATION('',(#821),#825);
#821 = LINE('',#822,#823);
#822 = CARTESIAN_POINT('',(40.,0.));
#823 = VECTOR('',#824,1.);
#824 = DIRECTION('',(0.,1.));
#825 = ( GEOMETRIC_REPRESENTATION_CONTEXT(2) 
PARAMETRIC_REPRESENTATION_CONTEXT() REPRESENTATION_CONTEXT('2D SPACE',''
  ) );
#826 = PCURVE('',#489,#827);
#827 = DEFINITIONAL_REPRESENTATION('',(#828),#832);
#828 = LINE('',#829,#830);
#829 = CARTESIAN_POINT('',(0.,0.));
#830 = VECTOR('',#831,1.);
#831 = DIRECTION('',(0.,1.));
#832 = ( GEOMETRIC_REPRESENTATION_CONTEXT(2) 
PARAMETRIC_REPRESENTATION_CONTEXT() REPRESENTATION_CONTEXT('2D SPACE',''
  ) );
#833 = ORIENTED_EDGE('',*,*,#636,.F.);
#834 = ORIENTED_EDGE('',*,*,#835,.F.);
#835 = EDGE_CURVE('',#309,#637,#836,.T.);
#836 = SURFACE_CURVE('',#837,(#840,#847),.PCURVE_S1.);
#837 = B_SPLINE_CURVE_WITH_KNOTS('',1,(#838,#839),.UNSPECIFIED.,.F.,.F.,
  (2,2),(0.,1.),.PIECEWISE_BEZIER_KNOTS.);
#838 = CARTESIAN_POINT('',(20.,-8.881784197001E-16,0.));
#839 = CARTESIAN_POINT('',(20.,0.,80.));
#840 = PCURVE('',#327,#841);
#841 = DEFINITIONAL_REPRESENTATION('',(#842),#846);
#842 = LINE('',#843,#844);
#843 = CARTESIAN_POINT('',(20.,0.));
#844 = VECTOR('',#845,1.);
#845 = DIRECTION('',(0.,1.));
#846 = ( GEOMETRIC_REPRESENTATION_CONTEXT(2) 
PARAMETRIC_REPRESENTATION_CONTEXT() REPRESENTATION_CONTEXT('2D SPACE',''
  ) );
#847 = PCURVE('',#367,#848);
#848 = DEFINITIONAL_REPRESENTATION('',(#849),#853);
#849 = LINE('',#850,#851);
#850 = CARTESIAN_POINT('',(20.,0.));
#851 = VECTOR('',#852,1.);
#852 = DIRECTION('',(0.,1.));
#853 = ( GEOMETRIC_REPRESENTATION_CONTEXT(2) 
PARAMETRIC_REPRESENTATION_CONTEXT() REPRESENTATION_CONTEXT('2D SPACE',''
  ) );
#854 = ADVANCED_FACE('',(#855),#489,.F.);
#855 = FACE_BOUND('',#856,.F.);
#856 = EDGE_LOOP('',(#857,#858,#878,#879));
#857 = ORIENTED_EDGE('',*,*,#474,.T.);
#858 = ORIENTED_EDGE('',*,*,#859,.T.);
#859 = EDGE_CURVE('',#433,#708,#860,.T.);
#860 = SURFACE_CURVE('',#861,(#864,#871),.PCURVE_S1.);
#861 = B_SPLINE_CURVE_WITH_KNOTS('',1,(#862,#863),.UNSPECIFIED.,.F.,.F.,
  (2,2),(0.,1.),.PIECEWISE_BEZIER_KNOTS.);
#862 = CARTESIAN_POINT('',(-14.14213562373,14.142135623731,0.));
#863 = CARTESIAN_POINT('',(-20.,20.,80.));
#864 = PCURVE('',#489,#865);
#865 = DEFINITIONAL_REPRESENTATION('',(#866),#870);
#866 = LINE('',#867,#868);
#867 = CARTESIAN_POINT('',(40.,0.));
#868 = VECTOR('',#869,1.);
#869 = DIRECTION('',(0.,1.));
#870 = ( GEOMETRIC_REPRESENTATION_CONTEXT(2) 
PARAMETRIC_REPRESENTATION_CONTEXT() REPRESENTATION_CONTEXT('2D SPACE',''
  ) );
#871 = PCURVE('',#449,#872);
#872 = DEFINITIONAL_REPRESENTATION('',(#873),#877);
#873 = LINE('',#874,#875);
#874 = CARTESIAN_POINT('',(0.,0.));
#875 = VECTOR('',#876,1.);
#876 = DIRECTION('',(0.,1.));
#877 = ( GEOMETRIC_REPRESENTATION_CONTEXT(2) 
PARAMETRIC_REPRESENTATION_CONTEXT() REPRESENTATION_CONTEXT('2D SPACE',''
  ) );
#878 = ORIENTED_EDGE('',*,*,#730,.F.);
#879 = ORIENTED_EDGE('',*,*,#814,.F.);
#880 = ADVANCED_FACE('',(#881),#449,.F.);
#881 = FACE_BOUND('',#882,.F.);
#882 = EDGE_LOOP('',(#883,#884,#904,#905));
#883 = ORIENTED_EDGE('',*,*,#432,.T.);
#884 = ORIENTED_EDGE('',*,*,#885,.T.);
#885 = EDGE_CURVE('',#391,#685,#886,.T.);
#886 = SURFACE_CURVE('',#887,(#890,#897),.PCURVE_S1.);
#887 = B_SPLINE_CURVE_WITH_KNOTS('',1,(#888,#889),.UNSPECIFIED.,.F.,.F.,
  (2,2),(0.,1.),.PIECEWISE_BEZIER_KNOTS.);
#888 = CARTESIAN_POINT('',(-14.14213562373,-14.14213562373,0.));
#889 = CARTESIAN_POINT('',(-20.,-20.,80.));
#890 = PCURVE('',#449,#891);
#891 = DEFINITIONAL_REPRESENTATION('',(#892),#896);
#892 = LINE('',#893,#894);
#893 = CARTESIAN_POINT('',(40.,0.));
#894 = VECTOR('',#895,1.);
#895 = DIRECTION('',(0.,1.));
#896 = ( GEOMETRIC_REPRESENTATION_CONTEXT(2) 
PARAMETRIC_REPRESENTATION_CONTEXT() REPRESENTATION_CONTEXT('2D SPACE',''
  ) );
#897 = PCURVE('',#407,#898);
#898 = DEFINITIONAL_REPRESENTATION('',(#899),#903);
#899 = LINE('',#900,#901);
#900 = CARTESIAN_POINT('',(0.,0.));
#901 = VECTOR('',#902,1.);
#902 = DIRECTION('',(0.,1.));
#903 = ( GEOMETRIC_REPRESENTATION_CONTEXT(2) 
PARAMETRIC_REPRESENTATION_CONTEXT() REPRESENTATION_CONTEXT('2D SPACE',''
  ) );
#904 = ORIENTED_EDGE('',*,*,#707,.F.);
#905 = ORIENTED_EDGE('',*,*,#859,.F.);
#906 = ADVANCED_FACE('',(#907),#407,.F.);
#907 = FACE_BOUND('',#908,.F.);
#908 = EDGE_LOOP('',(#909,#910,#930,#931));
#909 = ORIENTED_EDGE('',*,*,#390,.T.);
#910 = ORIENTED_EDGE('',*,*,#911,.T.);
#911 = EDGE_CURVE('',#351,#662,#912,.T.);
#912 = SURFACE_CURVE('',#913,(#916,#923),.PCURVE_S1.);
#913 = B_SPLINE_CURVE_WITH_KNOTS('',1,(#914,#915),.UNSPECIFIED.,.F.,.F.,
  (2,2),(0.,1.),.PIECEWISE_BEZIER_KNOTS.);
#914 = CARTESIAN_POINT('',(14.142135623731,-14.14213562373,0.));
#915 = CARTESIAN_POINT('',(20.,-20.,80.));
#916 = PCURVE('',#407,#917);
#917 = DEFINITIONAL_REPRESENTATION('',(#918),#922);
#918 = LINE('',#919,#920);
#919 = CARTESIAN_POINT('',(40.,0.));
#920 = VECTOR('',#921,1.);
#921 = DIRECTION('',(0.,1.));
#922 = ( GEOMETRIC_REPRESENTATION_CONTEXT(2) 
PARAMETRIC_REPRESENTATION_CONTEXT() REPRESENTATION_CONTEXT('2D SPACE',''
  ) );
#923 = PCURVE('',#367,#924);
#924 = DEFINITIONAL_REPRESENTATION('',(#925),#929);
#925 = LINE('',#926,#927);
#926 = CARTESIAN_POINT('',(0.,0.));
#927 = VECTOR('',#928,1.);
#928 = DIRECTION('',(0.,1.));
#929 = ( GEOMETRIC_REPRESENTATION_CONTEXT(2) 
PARAMETRIC_REPRESENTATION_CONTEXT() REPRESENTATION_CONTEXT('2D SPACE',''
  ) );
#930 = ORIENTED_EDGE('',*,*,#684,.F.);
#931 = ORIENTED_EDGE('',*,*,#885,.F.);
#932 = ADVANCED_FACE('',(#933),#367,.F.);
#933 = FACE_BOUND('',#934,.F.);
#934 = EDGE_LOOP('',(#935,#936,#937,#938));
#935 = ORIENTED_EDGE('',*,*,#350,.T.);
#936 = ORIENTED_EDGE('',*,*,#835,.T.);
#937 = ORIENTED_EDGE('',*,*,#661,.F.);
#938 = ORIENTED_EDGE('',*,*,#911,.F.);
#939 = ( GEOMETRIC_REPRESENTATION_CONTEXT(3) 
GLOBAL_UNCERTAINTY_ASSIGNED_CONTEXT((#943)) GLOBAL_UNIT_ASSIGNED_CONTEXT
((#940,#941,#942)) REPRESENTATION_CONTEXT('Context #1',
  '3D Context with UNIT and UNCERTAINTY') );
#940 = ( LENGTH_UNIT() NAMED_UNIT(*) SI_UNIT(.MILLI.,.METRE.) );
#941 = ( NAMED_UNIT(*) PLANE_ANGLE_UNIT() SI_UNIT($,.RADIAN.) );
#942 = ( NAMED_UNIT(*) SI_UNIT($,.STERADIAN.) SOLID_ANGLE_UNIT() );
#943 = UNCERTAINTY_MEASURE_WITH_UNIT(LENGTH_MEASURE(1.E-07),#940,
  'distance_accuracy_value','confusion accuracy');
#944 = PRODUCT_RELATED_PRODUCT_CATEGORY('part',$,(#7));
ENDSEC;
END-ISO-10303-21;
