ISO-10303-21;
HEADER;
FILE_DESCRIPTION(('Open CASCADE Model'),'2;1');
FILE_NAME('Open CASCADE Shape Model','2026-08-07T02:34:18',('Author'),(
    'Open CASCADE'),'Open CASCADE STEP processor 7.7','Open CASCADE 7.7'
  ,'Unknown');
FILE_SCHEMA(('AUTOMOTIVE_DESIGN { 1 0 10303 214 1 1 1 1 }'));
ENDSEC;
DATA;
#1 = APPLICATION_PROTOCOL_DEFINITION('international standard',
  'automotive_design',2000,#2);
#2 = APPLICATION_CONTEXT(
  'core data for automotive mechanical design processes');
#3 = SHAPE_DEFINITION_REPRESENTATION(#4,#10);
#4 = PRODUCT_DEFINITION_SHAPE('','',#5);
#5 = PRODUCT_DEFINITION('design','',#6,#9);
#6 = PRODUCT_DEFINITION_FORMATION('','',#7);
#7 = PRODUCT('Open CASCADE STEP translator 7.7 56',
  'Open CASCADE STEP translator 7.7 56','',(#8));
#8 = PRODUCT_CONTEXT('',#2,'mechanical');
#9 = PRODUCT_DEFINITION_CONTEXT('part definition',#2,'design');
#10 = ADVANCED_BREP_SHAPE_REPRESENTATION('',(#11,#15),#983);
#11 = AXIS2_PLACEMENT_3D('',#12,#13,#14);
#12 = CARTESIAN_POINT('',(0.,0.,0.));
#13 = DIRECTION('',(0.,0.,1.));
#14 = DIRECTION('',(1.,0.,-0.));
#15 = MANIFOLD_SOLID_BREP('',#16);
#16 = CLOSED_SHELL('',(#17,#179,#380,#592,#642,#717,#781,#823,#952));
#17 = ADVANCED_FACE('',(#18),#32,.F.);
#18 = FACE_BOUND('',#19,.F.);
#19 = EDGE_LOOP('',(#20,#55,#83,#111,#139));
#20 = ORIENTED_EDGE('',*,*,#21,.F.);
#21 = EDGE_CURVE('',#22,#24,#26,.T.);
#22 = VERTEX_POINT('',#23);
#23 = CARTESIAN_POINT('',(-25.,-25.,25.));
#24 = VERTEX_POINT('',#25);
#25 = CARTESIAN_POINT('',(-25.,18.876275643042,25.));
#26 = SURFACE_CURVE('',#27,(#31,#43),.PCURVE_S1.);
#27 = LINE('',#28,#29);
#28 = CARTESIAN_POINT('',(-25.,-25.,25.));
#29 = VECTOR('',#30,1.);
#30 = DIRECTION('',(0.,1.,0.));
#31 = PCURVE('',#32,#37);
#32 = PLANE('',#33);
#33 = AXIS2_PLACEMENT_3D('',#34,#35,#36);
#34 = CARTESIAN_POINT('',(-25.,-25.,-25.));
#35 = DIRECTION('',(1.,0.,0.));
#36 = DIRECTION('',(0.,0.,1.));
#37 = DEFINITIONAL_REPRESENTATION('',(#38),#42);
#38 = LINE('',#39,#40);
#39 = CARTESIAN_POINT('',(50.,0.));
#40 = VECTOR('',#41,1.);
#41 = DIRECTION('',(0.,-1.));
#42 = ( GEOMETRIC_REPRESENTATION_CONTEXT(2) 
PARAMETRIC_REPRESENTATION_CONTEXT() REPRESENTATION_CONTEXT('2D SPACE',''
  ) );
#43 = PCURVE('',#44,#49);
#44 = PLANE('',#45);
#45 = AXIS2_PLACEMENT_3D('',#46,#47,#48);
#46 = CARTESIAN_POINT('',(-25.,-25.,25.));
#47 = DIRECTION('',(0.,0.,1.));
#48 = DIRECTION('',(1.,0.,0.));
#49 = DEFINITIONAL_REPRESENTATION('',(#50),#54);
#50 = LINE('',#51,#52);
#51 = CARTESIAN_POINT('',(0.,0.));
#52 = VECTOR('',#53,1.);
#53 = DIRECTION('',(0.,1.));
#54 = ( GEOMETRIC_REPRESENTATION_CONTEXT(2) 
PARAMETRIC_REPRESENTATION_CONTEXT() REPRESENTATION_CONTEXT('2D SPACE',''
  ) );
#55 = ORIENTED_EDGE('',*,*,#56,.F.);
#56 = EDGE_CURVE('',#57,#22,#59,.T.);
#57 = VERTEX_POINT('',#58);
#58 = CARTESIAN_POINT('',(-25.,-25.,-25.));
#59 = SURFACE_CURVE('',#60,(#64,#71),.PCURVE_S1.);
#60 = LINE('',#61,#62);
#61 = CARTESIAN_POINT('',(-25.,-25.,-25.));
#62 = VECTOR('',#63,1.);
#63 = DIRECTION('',(0.,0.,1.));
#64 = PCURVE('',#32,#65);
#65 = DEFINITIONAL_REPRESENTATION('',(#66),#70);
#66 = LINE('',#67,#68);
#67 = CARTESIAN_POINT('',(0.,0.));
#68 = VECTOR('',#69,1.);
#69 = DIRECTION('',(1.,0.));
#70 = ( GEOMETRIC_REPRESENTATION_CONTEXT(2) 
PARAMETRIC_REPRESENTATION_CONTEXT() REPRESENTATION_CONTEXT('2D SPACE',''
  ) );
#71 = PCURVE('',#72,#77);
#72 = PLANE('',#73);
#73 = AXIS2_PLACEMENT_3D('',#74,#75,#76);
#74 = CARTESIAN_POINT('',(-25.,-25.,-25.));
#75 = DIRECTION('',(0.,1.,0.));
#76 = DIRECTION('',(0.,0.,1.));
#77 = DEFINITIONAL_REPRESENTATION('',(#78),#82);
#78 = LINE('',#79,#80);
#79 = CARTESIAN_POINT('',(0.,0.));
#80 = VECTOR('',#81,1.);
#81 = DIRECTION('',(1.,0.));
#82 = ( GEOMETRIC_REPRESENTATION_CONTEXT(2) 
PARAMETRIC_REPRESENTATION_CONTEXT() REPRESENTATION_CONTEXT('2D SPACE',''
  ) );
#83 = ORIENTED_EDGE('',*,*,#84,.T.);
#84 = EDGE_CURVE('',#57,#85,#87,.T.);
#85 = VERTEX_POINT('',#86);
#86 = CARTESIAN_POINT('',(-25.,25.,-25.));
#87 = SURFACE_CURVE('',#88,(#92,#99),.PCURVE_S1.);
#88 = LINE('',#89,#90);
#89 = CARTESIAN_POINT('',(-25.,-25.,-25.));
#90 = VECTOR('',#91,1.);
#91 = DIRECTION('',(0.,1.,0.));
#92 = PCURVE('',#32,#93);
#93 = DEFINITIONAL_REPRESENTATION('',(#94),#98);
#94 = LINE('',#95,#96);
#95 = CARTESIAN_POINT('',(0.,0.));
#96 = VECTOR('',#97,1.);
#97 = DIRECTION('',(0.,-1.));
#98 = ( GEOMETRIC_REPRESENTATION_CONTEXT(2) 
PARAMETRIC_REPRESENTATION_CONTEXT() REPRESENTATION_CONTEXT('2D SPACE',''
  ) );
#99 = PCURVE('',#100,#105);
#100 = PLANE('',#101);
#101 = AXIS2_PLACEMENT_3D('',#102,#103,#104);
#102 = CARTESIAN_POINT('',(-25.,-25.,-25.));
#103 = DIRECTION('',(0.,0.,1.));
#104 = DIRECTION('',(1.,0.,0.));
#105 = DEFINITIONAL_REPRESENTATION('',(#106),#110);
#106 = LINE('',#107,#108);
#107 = CARTESIAN_POINT('',(0.,0.));
#108 = VECTOR('',#109,1.);
#109 = DIRECTION('',(0.,1.));
#110 = ( GEOMETRIC_REPRESENTATION_CONTEXT(2) 
PARAMETRIC_REPRESENTATION_CONTEXT() REPRESENTATION_CONTEXT('2D SPACE',''
  ) );
#111 = ORIENTED_EDGE('',*,*,#112,.T.);
#112 = EDGE_CURVE('',#85,#113,#115,.T.);
#113 = VERTEX_POINT('',#114);
#114 = CARTESIAN_POINT('',(-25.,25.,18.876275643042));
#115 = SURFACE_CURVE('',#116,(#120,#127),.PCURVE_S1.);
#116 = LINE('',#117,#118);
#117 = CARTESIAN_POINT('',(-25.,25.,-25.));
#118 = VECTOR('',#119,1.);
#119 = DIRECTION('',(0.,0.,1.));
#120 = PCURVE('',#32,#121);
#121 = DEFINITIONAL_REPRESENTATION('',(#122),#126);
#122 = LINE('',#123,#124);
#123 = CARTESIAN_POINT('',(0.,-50.));
#124 = VECTOR('',#125,1.);
#125 = DIRECTION('',(1.,0.));
#126 = ( GEOMETRIC_REPRESENTATION_CONTEXT(2) 
PARAMETRIC_REPRESENTATION_CONTEXT() REPRESENTATION_CONTEXT('2D SPACE',''
  ) );
#127 = PCURVE('',#128,#133);
#128 = PLANE('',#129);
#129 = AXIS2_PLACEMENT_3D('',#130,#131,#132);
#130 = CARTESIAN_POINT('',(-25.,25.,-25.));
#131 = DIRECTION('',(0.,1.,0.));
#132 = DIRECTION('',(0.,0.,1.));
#133 = DEFINITIONAL_REPRESENTATION('',(#134),#138);
#134 = LINE('',#135,#136);
#135 = CARTESIAN_POINT('',(0.,0.));
#136 = VECTOR('',#137,1.);
#137 = DIRECTION('',(1.,0.));
#138 = ( GEOMETRIC_REPRESENTATION_CONTEXT(2) 
PARAMETRIC_REPRESENTATION_CONTEXT() REPRESENTATION_CONTEXT('2D SPACE',''
  ) );
#139 = ORIENTED_EDGE('',*,*,#140,.F.);
#140 = EDGE_CURVE('',#24,#113,#141,.T.);
#141 = SURFACE_CURVE('',#142,(#147,#154),.PCURVE_S1.);
#142 = ELLIPSE('',#143,8.660254037844,5.);
#143 = AXIS2_PLACEMENT_3D('',#144,#145,#146);
#144 = CARTESIAN_POINT('',(-25.,25.,25.));
#145 = DIRECTION('',(1.,0.,0.));
#146 = DIRECTION('',(0.,-0.707106781187,-0.707106781187));
#147 = PCURVE('',#32,#148);
#148 = DEFINITIONAL_REPRESENTATION('',(#149),#153);
#149 = ELLIPSE('',#150,8.660254037844,5.);
#150 = AXIS2_PLACEMENT_2D('',#151,#152);
#151 = CARTESIAN_POINT('',(50.,-50.));
#152 = DIRECTION('',(-0.707106781187,0.707106781187));
#153 = ( GEOMETRIC_REPRESENTATION_CONTEXT(2) 
PARAMETRIC_REPRESENTATION_CONTEXT() REPRESENTATION_CONTEXT('2D SPACE',''
  ) );
#154 = PCURVE('',#155,#160);
#155 = CYLINDRICAL_SURFACE('',#156,5.);
#156 = AXIS2_PLACEMENT_3D('',#157,#158,#159);
#157 = CARTESIAN_POINT('',(0.,0.,0.));
#158 = DIRECTION('',(0.57735026919,-0.57735026919,-0.57735026919));
#159 = DIRECTION('',(0.408248290464,-0.408248290464,0.816496580928));
#160 = DEFINITIONAL_REPRESENTATION('',(#161),#178);
#161 = B_SPLINE_CURVE_WITH_KNOTS('',8,(#162,#163,#164,#165,#166,#167,
    #168,#169,#170,#171,#172,#173,#174,#175,#176,#177),.UNSPECIFIED.,.F.
  ,.F.,(9,7,9),(4.712388895532,6.28318530718,7.853981718827),
  .UNSPECIFIED.);
#162 = CARTESIAN_POINT('',(-5.759586616434,-43.30127078922));
#163 = CARTESIAN_POINT('',(-5.563237064978,-41.91286979604));
#164 = CARTESIAN_POINT('',(-5.366887513519,-40.52446844673));
#165 = CARTESIAN_POINT('',(-5.170537962074,-39.21763506581));
#166 = CARTESIAN_POINT('',(-4.974188410601,-38.0739216296));
#167 = CARTESIAN_POINT('',(-4.777838859147,-37.16487003614));
#168 = CARTESIAN_POINT('',(-4.581489307697,-36.54175914584));
#169 = CARTESIAN_POINT('',(-4.385139756242,-36.23020237735));
#170 = CARTESIAN_POINT('',(-3.99244065333,-36.23020237735));
#171 = CARTESIAN_POINT('',(-3.796091101873,-36.54175914579));
#172 = CARTESIAN_POINT('',(-3.599741550408,-37.1648700364));
#173 = CARTESIAN_POINT('',(-3.403391998972,-38.07392162946));
#174 = CARTESIAN_POINT('',(-3.207042447499,-39.21763506613));
#175 = CARTESIAN_POINT('',(-3.010692896049,-40.52446844671));
#176 = CARTESIAN_POINT('',(-2.814343344595,-41.91286979604));
#177 = CARTESIAN_POINT('',(-2.617993793139,-43.30127078922));
#178 = ( GEOMETRIC_REPRESENTATION_CONTEXT(2) 
PARAMETRIC_REPRESENTATION_CONTEXT() REPRESENTATION_CONTEXT('2D SPACE',''
  ) );
#179 = ADVANCED_FACE('',(#180),#44,.T.);
#180 = FACE_BOUND('',#181,.T.);
#181 = EDGE_LOOP('',(#182,#183,#206,#241,#271,#299,#322,#352));
#182 = ORIENTED_EDGE('',*,*,#21,.F.);
#183 = ORIENTED_EDGE('',*,*,#184,.T.);
#184 = EDGE_CURVE('',#22,#185,#187,.T.);
#185 = VERTEX_POINT('',#186);
#186 = CARTESIAN_POINT('',(18.876275643042,-25.,25.));
#187 = SURFACE_CURVE('',#188,(#192,#199),.PCURVE_S1.);
#188 = LINE('',#189,#190);
#189 = CARTESIAN_POINT('',(-25.,-25.,25.));
#190 = VECTOR('',#191,1.);
#191 = DIRECTION('',(1.,0.,0.));
#192 = PCURVE('',#44,#193);
#193 = DEFINITIONAL_REPRESENTATION('',(#194),#198);
#194 = LINE('',#195,#196);
#195 = CARTESIAN_POINT('',(0.,0.));
#196 = VECTOR('',#197,1.);
#197 = DIRECTION('',(1.,0.));
#198 = ( GEOMETRIC_REPRESENTATION_CONTEXT(2) 
PARAMETRIC_REPRESENTATION_CONTEXT() REPRESENTATION_CONTEXT('2D SPACE',''
  ) );
#199 = PCURVE('',#72,#200);
#200 = DEFINITIONAL_REPRESENTATION('',(#201),#205);
#201 = LINE('',#202,#203);
#202 = CARTESIAN_POINT('',(50.,0.));
#203 = VECTOR('',#204,1.);
#204 = DIRECTION('',(0.,1.));
#205 = ( GEOMETRIC_REPRESENTATION_CONTEXT(2) 
PARAMETRIC_REPRESENTATION_CONTEXT() REPRESENTATION_CONTEXT('2D SPACE',''
  ) );
#206 = ORIENTED_EDGE('',*,*,#207,.F.);
#207 = EDGE_CURVE('',#208,#185,#210,.T.);
#208 = VERTEX_POINT('',#209);
#209 = CARTESIAN_POINT('',(18.876275643042,-18.87627564304,25.));
#210 = SURFACE_CURVE('',#211,(#216,#223),.PCURVE_S1.);
#211 = ELLIPSE('',#212,8.660254037844,5.);
#212 = AXIS2_PLACEMENT_3D('',#213,#214,#215);
#213 = CARTESIAN_POINT('',(25.,-25.,25.));
#214 = DIRECTION('',(0.,0.,1.));
#215 = DIRECTION('',(-0.707106781187,0.707106781187,0.));
#216 = PCURVE('',#44,#217);
#217 = DEFINITIONAL_REPRESENTATION('',(#218),#222);
#218 = ELLIPSE('',#219,8.660254037844,5.);
#219 = AXIS2_PLACEMENT_2D('',#220,#221);
#220 = CARTESIAN_POINT('',(50.,0.));
#221 = DIRECTION('',(-0.707106781187,0.707106781187));
#222 = ( GEOMETRIC_REPRESENTATION_CONTEXT(2) 
PARAMETRIC_REPRESENTATION_CONTEXT() REPRESENTATION_CONTEXT('2D SPACE',''
  ) );
#223 = PCURVE('',#224,#229);
#224 = CYLINDRICAL_SURFACE('',#225,5.);
#225 = AXIS2_PLACEMENT_3D('',#226,#227,#228);
#226 = CARTESIAN_POINT('',(0.,0.,0.));
#227 = DIRECTION('',(-0.57735026919,0.57735026919,-0.57735026919));
#228 = DIRECTION('',(-0.408248290464,0.408248290464,0.816496580928));
#229 = DEFINITIONAL_REPRESENTATION('',(#230),#240);
#230 = B_SPLINE_CURVE_WITH_KNOTS('',8,(#231,#232,#233,#234,#235,#236,
    #237,#238,#239),.UNSPECIFIED.,.F.,.F.,(9,9),(0.,1.570796411648),
  .PIECEWISE_BEZIER_KNOTS.);
#231 = CARTESIAN_POINT('',(0.,-36.23020237735));
#232 = CARTESIAN_POINT('',(-0.196349551456,-36.23020237735));
#233 = CARTESIAN_POINT('',(-0.392699102911,-36.54175914582));
#234 = CARTESIAN_POINT('',(-0.58904865437,-37.16487003637));
#235 = CARTESIAN_POINT('',(-0.785398205815,-38.07392162951));
#236 = CARTESIAN_POINT('',(-0.981747757282,-39.21763506598));
#237 = CARTESIAN_POINT('',(-1.178097308735,-40.52446844674));
#238 = CARTESIAN_POINT('',(-1.374446860192,-41.91286979604));
#239 = CARTESIAN_POINT('',(-1.570796411648,-43.30127078922));
#240 = ( GEOMETRIC_REPRESENTATION_CONTEXT(2) 
PARAMETRIC_REPRESENTATION_CONTEXT() REPRESENTATION_CONTEXT('2D SPACE',''
  ) );
#241 = ORIENTED_EDGE('',*,*,#242,.F.);
#242 = EDGE_CURVE('',#243,#208,#245,.T.);
#243 = VERTEX_POINT('',#244);
#244 = CARTESIAN_POINT('',(25.,-18.87627564304,25.));
#245 = SURFACE_CURVE('',#246,(#251,#258),.PCURVE_S1.);
#246 = ELLIPSE('',#247,8.660254037844,5.);
#247 = AXIS2_PLACEMENT_3D('',#248,#249,#250);
#248 = CARTESIAN_POINT('',(25.,-25.,25.));
#249 = DIRECTION('',(0.,0.,1.));
#250 = DIRECTION('',(-0.707106781187,0.707106781187,0.));
#251 = PCURVE('',#44,#252);
#252 = DEFINITIONAL_REPRESENTATION('',(#253),#257);
#253 = ELLIPSE('',#254,8.660254037844,5.);
#254 = AXIS2_PLACEMENT_2D('',#255,#256);
#255 = CARTESIAN_POINT('',(50.,0.));
#256 = DIRECTION('',(-0.707106781187,0.707106781187));
#257 = ( GEOMETRIC_REPRESENTATION_CONTEXT(2) 
PARAMETRIC_REPRESENTATION_CONTEXT() REPRESENTATION_CONTEXT('2D SPACE',''
  ) );
#258 = PCURVE('',#224,#259);
#259 = DEFINITIONAL_REPRESENTATION('',(#260),#270);
#260 = B_SPLINE_CURVE_WITH_KNOTS('',8,(#261,#262,#263,#264,#265,#266,
    #267,#268,#269),.UNSPECIFIED.,.F.,.F.,(9,9),(4.712388895532,
    6.28318530718),.PIECEWISE_BEZIER_KNOTS.);
#261 = CARTESIAN_POINT('',(-4.712388895532,-43.30127078922));
#262 = CARTESIAN_POINT('',(-4.908738446988,-41.91286979604));
#263 = CARTESIAN_POINT('',(-5.105087998447,-40.52446844675));
#264 = CARTESIAN_POINT('',(-5.301437549861,-39.21763506581));
#265 = CARTESIAN_POINT('',(-5.497787101373,-38.0739216296));
#266 = CARTESIAN_POINT('',(-5.694136652768,-37.16487003614));
#267 = CARTESIAN_POINT('',(-5.890486204277,-36.54175914584));
#268 = CARTESIAN_POINT('',(-6.086835755724,-36.23020237735));
#269 = CARTESIAN_POINT('',(-6.28318530718,-36.23020237735));
#270 = ( GEOMETRIC_REPRESENTATION_CONTEXT(2) 
PARAMETRIC_REPRESENTATION_CONTEXT() REPRESENTATION_CONTEXT('2D SPACE',''
  ) );
#271 = ORIENTED_EDGE('',*,*,#272,.T.);
#272 = EDGE_CURVE('',#243,#273,#275,.T.);
#273 = VERTEX_POINT('',#274);
#274 = CARTESIAN_POINT('',(25.,25.,25.));
#275 = SURFACE_CURVE('',#276,(#280,#287),.PCURVE_S1.);
#276 = LINE('',#277,#278);
#277 = CARTESIAN_POINT('',(25.,-25.,25.));
#278 = VECTOR('',#279,1.);
#279 = DIRECTION('',(0.,1.,0.));
#280 = PCURVE('',#44,#281);
#281 = DEFINITIONAL_REPRESENTATION('',(#282),#286);
#282 = LINE('',#283,#284);
#283 = CARTESIAN_POINT('',(50.,0.));
#284 = VECTOR('',#285,1.);
#285 = DIRECTION('',(0.,1.));
#286 = ( GEOMETRIC_REPRESENTATION_CONTEXT(2) 
PARAMETRIC_REPRESENTATION_CONTEXT() REPRESENTATION_CONTEXT('2D SPACE',''
  ) );
#287 = PCURVE('',#288,#293);
#288 = PLANE('',#289);
#289 = AXIS2_PLACEMENT_3D('',#290,#291,#292);
#290 = CARTESIAN_POINT('',(25.,-25.,-25.));
#291 = DIRECTION('',(1.,0.,0.));
#292 = DIRECTION('',(0.,0.,1.));
#293 = DEFINITIONAL_REPRESENTATION('',(#294),#298);
#294 = LINE('',#295,#296);
#295 = CARTESIAN_POINT('',(50.,0.));
#296 = VECTOR('',#297,1.);
#297 = DIRECTION('',(0.,-1.));
#298 = ( GEOMETRIC_REPRESENTATION_CONTEXT(2) 
PARAMETRIC_REPRESENTATION_CONTEXT() REPRESENTATION_CONTEXT('2D SPACE',''
  ) );
#299 = ORIENTED_EDGE('',*,*,#300,.F.);
#300 = EDGE_CURVE('',#301,#273,#303,.T.);
#301 = VERTEX_POINT('',#302);
#302 = CARTESIAN_POINT('',(-18.87627564304,25.,25.));
#303 = SURFACE_CURVE('',#304,(#308,#315),.PCURVE_S1.);
#304 = LINE('',#305,#306);
#305 = CARTESIAN_POINT('',(-25.,25.,25.));
#306 = VECTOR('',#307,1.);
#307 = DIRECTION('',(1.,0.,0.));
#308 = PCURVE('',#44,#309);
#309 = DEFINITIONAL_REPRESENTATION('',(#310),#314);
#310 = LINE('',#311,#312);
#311 = CARTESIAN_POINT('',(0.,50.));
#312 = VECTOR('',#313,1.);
#313 = DIRECTION('',(1.,0.));
#314 = ( GEOMETRIC_REPRESENTATION_CONTEXT(2) 
PARAMETRIC_REPRESENTATION_CONTEXT() REPRESENTATION_CONTEXT('2D SPACE',''
  ) );
#315 = PCURVE('',#128,#316);
#316 = DEFINITIONAL_REPRESENTATION('',(#317),#321);
#317 = LINE('',#318,#319);
#318 = CARTESIAN_POINT('',(50.,0.));
#319 = VECTOR('',#320,1.);
#320 = DIRECTION('',(0.,1.));
#321 = ( GEOMETRIC_REPRESENTATION_CONTEXT(2) 
PARAMETRIC_REPRESENTATION_CONTEXT() REPRESENTATION_CONTEXT('2D SPACE',''
  ) );
#322 = ORIENTED_EDGE('',*,*,#323,.F.);
#323 = EDGE_CURVE('',#324,#301,#326,.T.);
#324 = VERTEX_POINT('',#325);
#325 = CARTESIAN_POINT('',(-18.87627564304,18.876275643042,25.));
#326 = SURFACE_CURVE('',#327,(#332,#339),.PCURVE_S1.);
#327 = ELLIPSE('',#328,8.660254037844,5.);
#328 = AXIS2_PLACEMENT_3D('',#329,#330,#331);
#329 = CARTESIAN_POINT('',(-25.,25.,25.));
#330 = DIRECTION('',(0.,0.,1.));
#331 = DIRECTION('',(0.707106781187,-0.707106781187,0.));
#332 = PCURVE('',#44,#333);
#333 = DEFINITIONAL_REPRESENTATION('',(#334),#338);
#334 = ELLIPSE('',#335,8.660254037844,5.);
#335 = AXIS2_PLACEMENT_2D('',#336,#337);
#336 = CARTESIAN_POINT('',(0.,50.));
#337 = DIRECTION('',(0.707106781187,-0.707106781187));
#338 = ( GEOMETRIC_REPRESENTATION_CONTEXT(2) 
PARAMETRIC_REPRESENTATION_CONTEXT() REPRESENTATION_CONTEXT('2D SPACE',''
  ) );
#339 = PCURVE('',#155,#340);
#340 = DEFINITIONAL_REPRESENTATION('',(#341),#351);
#341 = B_SPLINE_CURVE_WITH_KNOTS('',8,(#342,#343,#344,#345,#346,#347,
    #348,#349,#350),.UNSPECIFIED.,.F.,.F.,(9,9),(0.,1.570796411648),
  .PIECEWISE_BEZIER_KNOTS.);
#342 = CARTESIAN_POINT('',(0.,-36.23020237735));
#343 = CARTESIAN_POINT('',(-0.196349551456,-36.23020237735));
#344 = CARTESIAN_POINT('',(-0.392699102911,-36.54175914582));
#345 = CARTESIAN_POINT('',(-0.58904865437,-37.16487003637));
#346 = CARTESIAN_POINT('',(-0.785398205815,-38.07392162951));
#347 = CARTESIAN_POINT('',(-0.981747757282,-39.21763506598));
#348 = CARTESIAN_POINT('',(-1.178097308735,-40.52446844674));
#349 = CARTESIAN_POINT('',(-1.374446860192,-41.91286979604));
#350 = CARTESIAN_POINT('',(-1.570796411648,-43.30127078922));
#351 = ( GEOMETRIC_REPRESENTATION_CONTEXT(2) 
PARAMETRIC_REPRESENTATION_CONTEXT() REPRESENTATION_CONTEXT('2D SPACE',''
  ) );
#352 = ORIENTED_EDGE('',*,*,#353,.F.);
#353 = EDGE_CURVE('',#24,#324,#354,.T.);
#354 = SURFACE_CURVE('',#355,(#360,#367),.PCURVE_S1.);
#355 = ELLIPSE('',#356,8.660254037844,5.);
#356 = AXIS2_PLACEMENT_3D('',#357,#358,#359);
#357 = CARTESIAN_POINT('',(-25.,25.,25.));
#358 = DIRECTION('',(0.,0.,1.));
#359 = DIRECTION('',(0.707106781187,-0.707106781187,0.));
#360 = PCURVE('',#44,#361);
#361 = DEFINITIONAL_REPRESENTATION('',(#362),#366);
#362 = ELLIPSE('',#363,8.660254037844,5.);
#363 = AXIS2_PLACEMENT_2D('',#364,#365);
#364 = CARTESIAN_POINT('',(0.,50.));
#365 = DIRECTION('',(0.707106781187,-0.707106781187));
#366 = ( GEOMETRIC_REPRESENTATION_CONTEXT(2) 
PARAMETRIC_REPRESENTATION_CONTEXT() REPRESENTATION_CONTEXT('2D SPACE',''
  ) );
#367 = PCURVE('',#155,#368);
#368 = DEFINITIONAL_REPRESENTATION('',(#369),#379);
#369 = B_SPLINE_CURVE_WITH_KNOTS('',8,(#370,#371,#372,#373,#374,#375,
    #376,#377,#378),.UNSPECIFIED.,.F.,.F.,(9,9),(4.712388895532,
    6.28318530718),.PIECEWISE_BEZIER_KNOTS.);
#370 = CARTESIAN_POINT('',(-4.712388895532,-43.30127078922));
#371 = CARTESIAN_POINT('',(-4.908738446988,-41.91286979604));
#372 = CARTESIAN_POINT('',(-5.105087998447,-40.52446844675));
#373 = CARTESIAN_POINT('',(-5.301437549861,-39.21763506581));
#374 = CARTESIAN_POINT('',(-5.497787101373,-38.0739216296));
#375 = CARTESIAN_POINT('',(-5.694136652768,-37.16487003614));
#376 = CARTESIAN_POINT('',(-5.890486204277,-36.54175914584));
#377 = CARTESIAN_POINT('',(-6.086835755724,-36.23020237735));
#378 = CARTESIAN_POINT('',(-6.28318530718,-36.23020237735));
#379 = ( GEOMETRIC_REPRESENTATION_CONTEXT(2) 
PARAMETRIC_REPRESENTATION_CONTEXT() REPRESENTATION_CONTEXT('2D SPACE',''
  ) );
#380 = ADVANCED_FACE('',(#381),#155,.F.);
#381 = FACE_BOUND('',#382,.T.);
#382 = EDGE_LOOP('',(#383,#426,#462,#483,#484,#519,#520,#521,#522,#558)
  );
#383 = ORIENTED_EDGE('',*,*,#384,.T.);
#384 = EDGE_CURVE('',#385,#387,#389,.T.);
#385 = VERTEX_POINT('',#386);
#386 = CARTESIAN_POINT('',(-3.535533905933,3.535533905933,
    -2.588190451025));
#387 = VERTEX_POINT('',#388);
#388 = CARTESIAN_POINT('',(3.535533905933,3.535533905933,
    -1.256591626089E-14));
#389 = SURFACE_CURVE('',#390,(#395,#408),.PCURVE_S1.);
#390 = ELLIPSE('',#391,5.630162503052,5.);
#391 = AXIS2_PLACEMENT_3D('',#392,#393,#394);
#392 = CARTESIAN_POINT('',(0.,0.,0.));
#393 = DIRECTION('',(0.325057583672,-0.325057583672,-0.888073833977));
#394 = DIRECTION('',(-0.6279630302,0.6279630302,-0.459700843381));
#395 = PCURVE('',#155,#396);
#396 = DEFINITIONAL_REPRESENTATION('',(#397),#407);
#397 = B_SPLINE_CURVE_WITH_KNOTS('',8,(#398,#399,#400,#401,#402,#403,
    #404,#405,#406),.UNSPECIFIED.,.F.,.F.,(9,9),(0.,1.570796325404),
  .PIECEWISE_BEZIER_KNOTS.);
#398 = CARTESIAN_POINT('',(-3.14159265359,-2.588190451025));
#399 = CARTESIAN_POINT('',(-2.945243112914,-2.588190451025));
#400 = CARTESIAN_POINT('',(-2.748893572236,-2.474152771551));
#401 = CARTESIAN_POINT('',(-2.552544031566,-2.246078381375));
#402 = CARTESIAN_POINT('',(-2.356194490872,-1.913342440249));
#403 = CARTESIAN_POINT('',(-2.159844950215,-1.494714309866));
#404 = CARTESIAN_POINT('',(-1.963495409532,-1.016380136576));
#405 = CARTESIAN_POINT('',(-1.767145868861,-0.508190009839));
#406 = CARTESIAN_POINT('',(-1.570796328186,-3.599224168338E-09));
#407 = ( GEOMETRIC_REPRESENTATION_CONTEXT(2) 
PARAMETRIC_REPRESENTATION_CONTEXT() REPRESENTATION_CONTEXT('2D SPACE',''
  ) );
#408 = PCURVE('',#409,#414);
#409 = CYLINDRICAL_SURFACE('',#410,5.);
#410 = AXIS2_PLACEMENT_3D('',#411,#412,#413);
#411 = CARTESIAN_POINT('',(0.,0.,-25.));
#412 = DIRECTION('',(-0.,-0.,-1.));
#413 = DIRECTION('',(1.,0.,0.));
#414 = DEFINITIONAL_REPRESENTATION('',(#415),#425);
#415 = B_SPLINE_CURVE_WITH_KNOTS('',8,(#416,#417,#418,#419,#420,#421,
    #422,#423,#424),.UNSPECIFIED.,.F.,.F.,(9,9),(0.,1.570796325404),
  .PIECEWISE_BEZIER_KNOTS.);
#416 = CARTESIAN_POINT('',(-2.356194490192,-22.41180954897));
#417 = CARTESIAN_POINT('',(-2.159844949517,-22.41180954897));
#418 = CARTESIAN_POINT('',(-1.963495408842,-22.52584722844));
#419 = CARTESIAN_POINT('',(-1.767145868164,-22.75392161861));
#420 = CARTESIAN_POINT('',(-1.57079632749,-23.08665755968));
#421 = CARTESIAN_POINT('',(-1.374446786815,-23.50528569011));
#422 = CARTESIAN_POINT('',(-1.17809724614,-23.98361986341));
#423 = CARTESIAN_POINT('',(-0.981747705464,-24.49180999016));
#424 = CARTESIAN_POINT('',(-0.785398164788,-24.9999999964));
#425 = ( GEOMETRIC_REPRESENTATION_CONTEXT(2) 
PARAMETRIC_REPRESENTATION_CONTEXT() REPRESENTATION_CONTEXT('2D SPACE',''
  ) );
#426 = ORIENTED_EDGE('',*,*,#427,.T.);
#427 = EDGE_CURVE('',#387,#428,#430,.T.);
#428 = VERTEX_POINT('',#429);
#429 = CARTESIAN_POINT('',(-8.881784197001E-16,8.881784197001E-16,
    6.123724356958));
#430 = SURFACE_CURVE('',#431,(#436,#449),.PCURVE_S1.);
#431 = ELLIPSE('',#432,6.123724356958,5.);
#432 = AXIS2_PLACEMENT_3D('',#433,#434,#435);
#433 = CARTESIAN_POINT('',(0.,0.,0.));
#434 = DIRECTION('',(0.707106781187,-0.707106781187,0.));
#435 = DIRECTION('',(0.,0.,-1.));
#436 = PCURVE('',#155,#437);
#437 = DEFINITIONAL_REPRESENTATION('',(#438),#448);
#438 = B_SPLINE_CURVE_WITH_KNOTS('',8,(#439,#440,#441,#442,#443,#444,
    #445,#446,#447),.UNSPECIFIED.,.F.,.F.,(9,9),(1.570796328834,
    3.14159265359),.PIECEWISE_BEZIER_KNOTS.);
#439 = CARTESIAN_POINT('',(-1.570796324756,-7.208317027669E-09));
#440 = CARTESIAN_POINT('',(-1.374446784162,-0.694200465395));
#441 = CARTESIAN_POINT('',(-1.178097243565,-1.388401088082));
#442 = CARTESIAN_POINT('',(-0.981747702978,-2.041817719863));
#443 = CARTESIAN_POINT('',(-0.785398162367,-2.613674380253));
#444 = CARTESIAN_POINT('',(-0.58904862179,-3.068200128238));
#445 = CARTESIAN_POINT('',(-0.392699081187,-3.37975553891));
#446 = CARTESIAN_POINT('',(-0.196349540595,-3.535533905933));
#447 = CARTESIAN_POINT('',(-1.224646799147E-16,-3.535533905933));
#448 = ( GEOMETRIC_REPRESENTATION_CONTEXT(2) 
PARAMETRIC_REPRESENTATION_CONTEXT() REPRESENTATION_CONTEXT('2D SPACE',''
  ) );
#449 = PCURVE('',#224,#450);
#450 = DEFINITIONAL_REPRESENTATION('',(#451),#461);
#451 = B_SPLINE_CURVE_WITH_KNOTS('',8,(#452,#453,#454,#455,#456,#457,
    #458,#459,#460),.UNSPECIFIED.,.F.,.F.,(9,9),(1.570796328834,
    3.14159265359),.PIECEWISE_BEZIER_KNOTS.);
#452 = CARTESIAN_POINT('',(-4.712388982424,-7.208317027669E-09));
#453 = CARTESIAN_POINT('',(-4.908738523018,-0.694200465395));
#454 = CARTESIAN_POINT('',(-5.105088063607,-1.388401088082));
#455 = CARTESIAN_POINT('',(-5.30143760423,-2.041817719863));
#456 = CARTESIAN_POINT('',(-5.497787144763,-2.613674380253));
#457 = CARTESIAN_POINT('',(-5.694136685412,-3.068200128238));
#458 = CARTESIAN_POINT('',(-5.890486225985,-3.37975553891));
#459 = CARTESIAN_POINT('',(-6.086835766585,-3.535533905933));
#460 = CARTESIAN_POINT('',(-6.28318530718,-3.535533905933));
#461 = ( GEOMETRIC_REPRESENTATION_CONTEXT(2) 
PARAMETRIC_REPRESENTATION_CONTEXT() REPRESENTATION_CONTEXT('2D SPACE',''
  ) );
#462 = ORIENTED_EDGE('',*,*,#463,.T.);
#463 = EDGE_CURVE('',#428,#324,#464,.T.);
#464 = SEAM_CURVE('',#465,(#469,#476),.PCURVE_S1.);
#465 = LINE('',#466,#467);
#466 = CARTESIAN_POINT('',(2.041241452319,-2.041241452319,4.082482904639
    ));
#467 = VECTOR('',#468,1.);
#468 = DIRECTION('',(-0.57735026919,0.57735026919,0.57735026919));
#469 = PCURVE('',#155,#470);
#470 = DEFINITIONAL_REPRESENTATION('',(#471),#475);
#471 = LINE('',#472,#473);
#472 = CARTESIAN_POINT('',(-6.28318530718,0.));
#473 = VECTOR('',#474,1.);
#474 = DIRECTION('',(-0.,-1.));
#475 = ( GEOMETRIC_REPRESENTATION_CONTEXT(2) 
PARAMETRIC_REPRESENTATION_CONTEXT() REPRESENTATION_CONTEXT('2D SPACE',''
  ) );
#476 = PCURVE('',#155,#477);
#477 = DEFINITIONAL_REPRESENTATION('',(#478),#482);
#478 = LINE('',#479,#480);
#479 = CARTESIAN_POINT('',(-0.,0.));
#480 = VECTOR('',#481,1.);
#481 = DIRECTION('',(-0.,-1.));
#482 = ( GEOMETRIC_REPRESENTATION_CONTEXT(2) 
PARAMETRIC_REPRESENTATION_CONTEXT() REPRESENTATION_CONTEXT('2D SPACE',''
  ) );
#483 = ORIENTED_EDGE('',*,*,#323,.T.);
#484 = ORIENTED_EDGE('',*,*,#485,.T.);
#485 = EDGE_CURVE('',#301,#113,#486,.T.);
#486 = SURFACE_CURVE('',#487,(#492,#512),.PCURVE_S1.);
#487 = ELLIPSE('',#488,8.660254037844,5.);
#488 = AXIS2_PLACEMENT_3D('',#489,#490,#491);
#489 = CARTESIAN_POINT('',(-25.,25.,25.));
#490 = DIRECTION('',(0.,1.,0.));
#491 = DIRECTION('',(0.707106781187,0.,-0.707106781187));
#492 = PCURVE('',#155,#493);
#493 = DEFINITIONAL_REPRESENTATION('',(#494),#511);
#494 = B_SPLINE_CURVE_WITH_KNOTS('',8,(#495,#496,#497,#498,#499,#500,
    #501,#502,#503,#504,#505,#506,#507,#508,#509,#510),.UNSPECIFIED.,.F.
  ,.F.,(9,7,9),(4.712388895532,6.28318530718,7.853981718827),
  .UNSPECIFIED.);
#495 = CARTESIAN_POINT('',(-0.523598690745,-43.30127078922));
#496 = CARTESIAN_POINT('',(-0.719948242201,-41.91286979604));
#497 = CARTESIAN_POINT('',(-0.916297793657,-40.52446844673));
#498 = CARTESIAN_POINT('',(-1.112647345114,-39.21763506581));
#499 = CARTESIAN_POINT('',(-1.308996896564,-38.0739216296));
#500 = CARTESIAN_POINT('',(-1.505346448026,-37.16487003614));
#501 = CARTESIAN_POINT('',(-1.701695999481,-36.54175914584));
#502 = CARTESIAN_POINT('',(-1.898045550937,-36.23020237735));
#503 = CARTESIAN_POINT('',(-2.290744653849,-36.23020237735));
#504 = CARTESIAN_POINT('',(-2.487094205303,-36.54175914585));
#505 = CARTESIAN_POINT('',(-2.68344375676,-37.16487003625));
#506 = CARTESIAN_POINT('',(-2.879793308211,-38.07392162975));
#507 = CARTESIAN_POINT('',(-3.07614285968,-39.21763506592));
#508 = CARTESIAN_POINT('',(-3.272492411128,-40.52446844676));
#509 = CARTESIAN_POINT('',(-3.468841962585,-41.91286979604));
#510 = CARTESIAN_POINT('',(-3.665191514041,-43.30127078922));
#511 = ( GEOMETRIC_REPRESENTATION_CONTEXT(2) 
PARAMETRIC_REPRESENTATION_CONTEXT() REPRESENTATION_CONTEXT('2D SPACE',''
  ) );
#512 = PCURVE('',#128,#513);
#513 = DEFINITIONAL_REPRESENTATION('',(#514),#518);
#514 = ELLIPSE('',#515,8.660254037844,5.);
#515 = AXIS2_PLACEMENT_2D('',#516,#517);
#516 = CARTESIAN_POINT('',(50.,0.));
#517 = DIRECTION('',(-0.707106781187,0.707106781187));
#518 = ( GEOMETRIC_REPRESENTATION_CONTEXT(2) 
PARAMETRIC_REPRESENTATION_CONTEXT() REPRESENTATION_CONTEXT('2D SPACE',''
  ) );
#519 = ORIENTED_EDGE('',*,*,#140,.F.);
#520 = ORIENTED_EDGE('',*,*,#353,.T.);
#521 = ORIENTED_EDGE('',*,*,#463,.F.);
#522 = ORIENTED_EDGE('',*,*,#523,.T.);
#523 = EDGE_CURVE('',#428,#524,#526,.T.);
#524 = VERTEX_POINT('',#525);
#525 = CARTESIAN_POINT('',(-3.535533905933,-3.535533905933,
    -2.21308092598E-14));
#526 = SURFACE_CURVE('',#527,(#532,#545),.PCURVE_S1.);
#527 = ELLIPSE('',#528,6.123724356958,5.);
#528 = AXIS2_PLACEMENT_3D('',#529,#530,#531);
#529 = CARTESIAN_POINT('',(0.,0.,0.));
#530 = DIRECTION('',(0.707106781187,-0.707106781187,0.));
#531 = DIRECTION('',(0.,0.,-1.));
#532 = PCURVE('',#155,#533);
#533 = DEFINITIONAL_REPRESENTATION('',(#534),#544);
#534 = B_SPLINE_CURVE_WITH_KNOTS('',8,(#535,#536,#537,#538,#539,#540,
    #541,#542,#543),.UNSPECIFIED.,.F.,.F.,(9,9),(3.14159265359,
    4.712388978346),.PIECEWISE_BEZIER_KNOTS.);
#535 = CARTESIAN_POINT('',(-6.28318530718,-3.535533905933));
#536 = CARTESIAN_POINT('',(-6.086835766585,-3.535533905933));
#537 = CARTESIAN_POINT('',(-5.890486225991,-3.379755538912));
#538 = CARTESIAN_POINT('',(-5.694136685396,-3.068200128242));
#539 = CARTESIAN_POINT('',(-5.497787144802,-2.613674380262));
#540 = CARTESIAN_POINT('',(-5.301437604205,-2.041817719856));
#541 = CARTESIAN_POINT('',(-5.105088063613,-1.388401088084));
#542 = CARTESIAN_POINT('',(-4.908738523018,-0.694200465395));
#543 = CARTESIAN_POINT('',(-4.712388982424,-7.208317108579E-09));
#544 = ( GEOMETRIC_REPRESENTATION_CONTEXT(2) 
PARAMETRIC_REPRESENTATION_CONTEXT() REPRESENTATION_CONTEXT('2D SPACE',''
  ) );
#545 = PCURVE('',#224,#546);
#546 = DEFINITIONAL_REPRESENTATION('',(#547),#557);
#547 = B_SPLINE_CURVE_WITH_KNOTS('',8,(#548,#549,#550,#551,#552,#553,
    #554,#555,#556),.UNSPECIFIED.,.F.,.F.,(9,9),(3.14159265359,
    4.712388978346),.PIECEWISE_BEZIER_KNOTS.);
#548 = CARTESIAN_POINT('',(0.,-3.535533905933));
#549 = CARTESIAN_POINT('',(-0.196349540595,-3.535533905933));
#550 = CARTESIAN_POINT('',(-0.392699081188,-3.379755538912));
#551 = CARTESIAN_POINT('',(-0.589048621784,-3.068200128242));
#552 = CARTESIAN_POINT('',(-0.785398162373,-2.613674380262));
#553 = CARTESIAN_POINT('',(-0.981747702971,-2.041817719856));
#554 = CARTESIAN_POINT('',(-1.178097243567,-1.388401088084));
#555 = CARTESIAN_POINT('',(-1.374446784162,-0.694200465395));
#556 = CARTESIAN_POINT('',(-1.570796324756,-7.208317108579E-09));
#557 = ( GEOMETRIC_REPRESENTATION_CONTEXT(2) 
PARAMETRIC_REPRESENTATION_CONTEXT() REPRESENTATION_CONTEXT('2D SPACE',''
  ) );
#558 = ORIENTED_EDGE('',*,*,#559,.T.);
#559 = EDGE_CURVE('',#524,#385,#560,.T.);
#560 = SURFACE_CURVE('',#561,(#566,#579),.PCURVE_S1.);
#561 = ELLIPSE('',#562,5.630162503052,5.);
#562 = AXIS2_PLACEMENT_3D('',#563,#564,#565);
#563 = CARTESIAN_POINT('',(0.,0.,0.));
#564 = DIRECTION('',(0.325057583672,-0.325057583672,-0.888073833977));
#565 = DIRECTION('',(-0.6279630302,0.6279630302,-0.459700843381));
#566 = PCURVE('',#155,#567);
#567 = DEFINITIONAL_REPRESENTATION('',(#568),#578);
#568 = B_SPLINE_CURVE_WITH_KNOTS('',8,(#569,#570,#571,#572,#573,#574,
    #575,#576,#577),.UNSPECIFIED.,.F.,.F.,(9,9),(4.712388981249,
    6.28318530718),.PIECEWISE_BEZIER_KNOTS.);
#569 = CARTESIAN_POINT('',(-4.712388979521,-2.236532575066E-09));
#570 = CARTESIAN_POINT('',(-4.516039438779,-0.508190008646));
#571 = CARTESIAN_POINT('',(-4.319689898036,-1.016380135617));
#572 = CARTESIAN_POINT('',(-4.12334035729,-1.494714309159));
#573 = CARTESIAN_POINT('',(-3.926990816544,-1.91334243981));
#574 = CARTESIAN_POINT('',(-3.730641275817,-2.246078381138));
#575 = CARTESIAN_POINT('',(-3.534291735071,-2.474152771479));
#576 = CARTESIAN_POINT('',(-3.337942194331,-2.588190451025));
#577 = CARTESIAN_POINT('',(-3.14159265359,-2.588190451025));
#578 = ( GEOMETRIC_REPRESENTATION_CONTEXT(2) 
PARAMETRIC_REPRESENTATION_CONTEXT() REPRESENTATION_CONTEXT('2D SPACE',''
  ) );
#579 = PCURVE('',#409,#580);
#580 = DEFINITIONAL_REPRESENTATION('',(#581),#591);
#581 = B_SPLINE_CURVE_WITH_KNOTS('',8,(#582,#583,#584,#585,#586,#587,
    #588,#589,#590),.UNSPECIFIED.,.F.,.F.,(9,9),(4.712388981249,
    6.28318530718),.PIECEWISE_BEZIER_KNOTS.);
#582 = CARTESIAN_POINT('',(-3.926990816123,-24.99999999776));
#583 = CARTESIAN_POINT('',(-3.730641275382,-24.49180999135));
#584 = CARTESIAN_POINT('',(-3.534291734638,-23.98361986434));
#585 = CARTESIAN_POINT('',(-3.337942193899,-23.50528569096));
#586 = CARTESIAN_POINT('',(-3.141592653159,-23.08665756));
#587 = CARTESIAN_POINT('',(-2.945243112415,-22.75392161897));
#588 = CARTESIAN_POINT('',(-2.748893571674,-22.52584722848));
#589 = CARTESIAN_POINT('',(-2.552544030934,-22.41180954897));
#590 = CARTESIAN_POINT('',(-2.356194490192,-22.41180954897));
#591 = ( GEOMETRIC_REPRESENTATION_CONTEXT(2) 
PARAMETRIC_REPRESENTATION_CONTEXT() REPRESENTATION_CONTEXT('2D SPACE',''
  ) );
#592 = ADVANCED_FACE('',(#593),#128,.T.);
#593 = FACE_BOUND('',#594,.T.);
#594 = EDGE_LOOP('',(#595,#618,#639,#640,#641));
#595 = ORIENTED_EDGE('',*,*,#596,.F.);
#596 = EDGE_CURVE('',#597,#273,#599,.T.);
#597 = VERTEX_POINT('',#598);
#598 = CARTESIAN_POINT('',(25.,25.,-25.));
#599 = SURFACE_CURVE('',#600,(#604,#611),.PCURVE_S1.);
#600 = LINE('',#601,#602);
#601 = CARTESIAN_POINT('',(25.,25.,-25.));
#602 = VECTOR('',#603,1.);
#603 = DIRECTION('',(0.,0.,1.));
#604 = PCURVE('',#128,#605);
#605 = DEFINITIONAL_REPRESENTATION('',(#606),#610);
#606 = LINE('',#607,#608);
#607 = CARTESIAN_POINT('',(0.,50.));
#608 = VECTOR('',#609,1.);
#609 = DIRECTION('',(1.,0.));
#610 = ( GEOMETRIC_REPRESENTATION_CONTEXT(2) 
PARAMETRIC_REPRESENTATION_CONTEXT() REPRESENTATION_CONTEXT('2D SPACE',''
  ) );
#611 = PCURVE('',#288,#612);
#612 = DEFINITIONAL_REPRESENTATION('',(#613),#617);
#613 = LINE('',#614,#615);
#614 = CARTESIAN_POINT('',(0.,-50.));
#615 = VECTOR('',#616,1.);
#616 = DIRECTION('',(1.,0.));
#617 = ( GEOMETRIC_REPRESENTATION_CONTEXT(2) 
PARAMETRIC_REPRESENTATION_CONTEXT() REPRESENTATION_CONTEXT('2D SPACE',''
  ) );
#618 = ORIENTED_EDGE('',*,*,#619,.F.);
#619 = EDGE_CURVE('',#85,#597,#620,.T.);
#620 = SURFACE_CURVE('',#621,(#625,#632),.PCURVE_S1.);
#621 = LINE('',#622,#623);
#622 = CARTESIAN_POINT('',(-25.,25.,-25.));
#623 = VECTOR('',#624,1.);
#624 = DIRECTION('',(1.,0.,0.));
#625 = PCURVE('',#128,#626);
#626 = DEFINITIONAL_REPRESENTATION('',(#627),#631);
#627 = LINE('',#628,#629);
#628 = CARTESIAN_POINT('',(0.,0.));
#629 = VECTOR('',#630,1.);
#630 = DIRECTION('',(0.,1.));
#631 = ( GEOMETRIC_REPRESENTATION_CONTEXT(2) 
PARAMETRIC_REPRESENTATION_CONTEXT() REPRESENTATION_CONTEXT('2D SPACE',''
  ) );
#632 = PCURVE('',#100,#633);
#633 = DEFINITIONAL_REPRESENTATION('',(#634),#638);
#634 = LINE('',#635,#636);
#635 = CARTESIAN_POINT('',(0.,50.));
#636 = VECTOR('',#637,1.);
#637 = DIRECTION('',(1.,0.));
#638 = ( GEOMETRIC_REPRESENTATION_CONTEXT(2) 
PARAMETRIC_REPRESENTATION_CONTEXT() REPRESENTATION_CONTEXT('2D SPACE',''
  ) );
#639 = ORIENTED_EDGE('',*,*,#112,.T.);
#640 = ORIENTED_EDGE('',*,*,#485,.F.);
#641 = ORIENTED_EDGE('',*,*,#300,.T.);
#642 = ADVANCED_FACE('',(#643,#691),#100,.F.);
#643 = FACE_BOUND('',#644,.F.);
#644 = EDGE_LOOP('',(#645,#646,#669,#690));
#645 = ORIENTED_EDGE('',*,*,#84,.F.);
#646 = ORIENTED_EDGE('',*,*,#647,.T.);
#647 = EDGE_CURVE('',#57,#648,#650,.T.);
#648 = VERTEX_POINT('',#649);
#649 = CARTESIAN_POINT('',(25.,-25.,-25.));
#650 = SURFACE_CURVE('',#651,(#655,#662),.PCURVE_S1.);
#651 = LINE('',#652,#653);
#652 = CARTESIAN_POINT('',(-25.,-25.,-25.));
#653 = VECTOR('',#654,1.);
#654 = DIRECTION('',(1.,0.,0.));
#655 = PCURVE('',#100,#656);
#656 = DEFINITIONAL_REPRESENTATION('',(#657),#661);
#657 = LINE('',#658,#659);
#658 = CARTESIAN_POINT('',(0.,0.));
#659 = VECTOR('',#660,1.);
#660 = DIRECTION('',(1.,0.));
#661 = ( GEOMETRIC_REPRESENTATION_CONTEXT(2) 
PARAMETRIC_REPRESENTATION_CONTEXT() REPRESENTATION_CONTEXT('2D SPACE',''
  ) );
#662 = PCURVE('',#72,#663);
#663 = DEFINITIONAL_REPRESENTATION('',(#664),#668);
#664 = LINE('',#665,#666);
#665 = CARTESIAN_POINT('',(0.,0.));
#666 = VECTOR('',#667,1.);
#667 = DIRECTION('',(0.,1.));
#668 = ( GEOMETRIC_REPRESENTATION_CONTEXT(2) 
PARAMETRIC_REPRESENTATION_CONTEXT() REPRESENTATION_CONTEXT('2D SPACE',''
  ) );
#669 = ORIENTED_EDGE('',*,*,#670,.T.);
#670 = EDGE_CURVE('',#648,#597,#671,.T.);
#671 = SURFACE_CURVE('',#672,(#676,#683),.PCURVE_S1.);
#672 = LINE('',#673,#674);
#673 = CARTESIAN_POINT('',(25.,-25.,-25.));
#674 = VECTOR('',#675,1.);
#675 = DIRECTION('',(0.,1.,0.));
#676 = PCURVE('',#100,#677);
#677 = DEFINITIONAL_REPRESENTATION('',(#678),#682);
#678 = LINE('',#679,#680);
#679 = CARTESIAN_POINT('',(50.,0.));
#680 = VECTOR('',#681,1.);
#681 = DIRECTION('',(0.,1.));
#682 = ( GEOMETRIC_REPRESENTATION_CONTEXT(2) 
PARAMETRIC_REPRESENTATION_CONTEXT() REPRESENTATION_CONTEXT('2D SPACE',''
  ) );
#683 = PCURVE('',#288,#684);
#684 = DEFINITIONAL_REPRESENTATION('',(#685),#689);
#685 = LINE('',#686,#687);
#686 = CARTESIAN_POINT('',(0.,0.));
#687 = VECTOR('',#688,1.);
#688 = DIRECTION('',(0.,-1.));
#689 = ( GEOMETRIC_REPRESENTATION_CONTEXT(2) 
PARAMETRIC_REPRESENTATION_CONTEXT() REPRESENTATION_CONTEXT('2D SPACE',''
  ) );
#690 = ORIENTED_EDGE('',*,*,#619,.F.);
#691 = FACE_BOUND('',#692,.F.);
#692 = EDGE_LOOP('',(#693));
#693 = ORIENTED_EDGE('',*,*,#694,.F.);
#694 = EDGE_CURVE('',#695,#695,#697,.T.);
#695 = VERTEX_POINT('',#696);
#696 = CARTESIAN_POINT('',(5.,0.,-25.));
#697 = SURFACE_CURVE('',#698,(#703,#710),.PCURVE_S1.);
#698 = CIRCLE('',#699,5.);
#699 = AXIS2_PLACEMENT_3D('',#700,#701,#702);
#700 = CARTESIAN_POINT('',(0.,0.,-25.));
#701 = DIRECTION('',(0.,0.,1.));
#702 = DIRECTION('',(1.,0.,0.));
#703 = PCURVE('',#100,#704);
#704 = DEFINITIONAL_REPRESENTATION('',(#705),#709);
#705 = CIRCLE('',#706,5.);
#706 = AXIS2_PLACEMENT_2D('',#707,#708);
#707 = CARTESIAN_POINT('',(25.,25.));
#708 = DIRECTION('',(1.,0.));
#709 = ( GEOMETRIC_REPRESENTATION_CONTEXT(2) 
PARAMETRIC_REPRESENTATION_CONTEXT() REPRESENTATION_CONTEXT('2D SPACE',''
  ) );
#710 = PCURVE('',#409,#711);
#711 = DEFINITIONAL_REPRESENTATION('',(#712),#716);
#712 = LINE('',#713,#714);
#713 = CARTESIAN_POINT('',(-0.,0.));
#714 = VECTOR('',#715,1.);
#715 = DIRECTION('',(-1.,0.));
#716 = ( GEOMETRIC_REPRESENTATION_CONTEXT(2) 
PARAMETRIC_REPRESENTATION_CONTEXT() REPRESENTATION_CONTEXT('2D SPACE',''
  ) );
#717 = ADVANCED_FACE('',(#718),#72,.F.);
#718 = FACE_BOUND('',#719,.F.);
#719 = EDGE_LOOP('',(#720,#743,#744,#745,#746));
#720 = ORIENTED_EDGE('',*,*,#721,.F.);
#721 = EDGE_CURVE('',#648,#722,#724,.T.);
#722 = VERTEX_POINT('',#723);
#723 = CARTESIAN_POINT('',(25.,-25.,18.876275643042));
#724 = SURFACE_CURVE('',#725,(#729,#736),.PCURVE_S1.);
#725 = LINE('',#726,#727);
#726 = CARTESIAN_POINT('',(25.,-25.,-25.));
#727 = VECTOR('',#728,1.);
#728 = DIRECTION('',(0.,0.,1.));
#729 = PCURVE('',#72,#730);
#730 = DEFINITIONAL_REPRESENTATION('',(#731),#735);
#731 = LINE('',#732,#733);
#732 = CARTESIAN_POINT('',(0.,50.));
#733 = VECTOR('',#734,1.);
#734 = DIRECTION('',(1.,0.));
#735 = ( GEOMETRIC_REPRESENTATION_CONTEXT(2) 
PARAMETRIC_REPRESENTATION_CONTEXT() REPRESENTATION_CONTEXT('2D SPACE',''
  ) );
#736 = PCURVE('',#288,#737);
#737 = DEFINITIONAL_REPRESENTATION('',(#738),#742);
#738 = LINE('',#739,#740);
#739 = CARTESIAN_POINT('',(0.,0.));
#740 = VECTOR('',#741,1.);
#741 = DIRECTION('',(1.,0.));
#742 = ( GEOMETRIC_REPRESENTATION_CONTEXT(2) 
PARAMETRIC_REPRESENTATION_CONTEXT() REPRESENTATION_CONTEXT('2D SPACE',''
  ) );
#743 = ORIENTED_EDGE('',*,*,#647,.F.);
#744 = ORIENTED_EDGE('',*,*,#56,.T.);
#745 = ORIENTED_EDGE('',*,*,#184,.T.);
#746 = ORIENTED_EDGE('',*,*,#747,.F.);
#747 = EDGE_CURVE('',#722,#185,#748,.T.);
#748 = SURFACE_CURVE('',#749,(#754,#761),.PCURVE_S1.);
#749 = ELLIPSE('',#750,8.660254037844,5.);
#750 = AXIS2_PLACEMENT_3D('',#751,#752,#753);
#751 = CARTESIAN_POINT('',(25.,-25.,25.));
#752 = DIRECTION('',(0.,1.,0.));
#753 = DIRECTION('',(-0.707106781187,0.,-0.707106781187));
#754 = PCURVE('',#72,#755);
#755 = DEFINITIONAL_REPRESENTATION('',(#756),#760);
#756 = ELLIPSE('',#757,8.660254037844,5.);
#757 = AXIS2_PLACEMENT_2D('',#758,#759);
#758 = CARTESIAN_POINT('',(50.,50.));
#759 = DIRECTION('',(-0.707106781187,-0.707106781187));
#760 = ( GEOMETRIC_REPRESENTATION_CONTEXT(2) 
PARAMETRIC_REPRESENTATION_CONTEXT() REPRESENTATION_CONTEXT('2D SPACE',''
  ) );
#761 = PCURVE('',#224,#762);
#762 = DEFINITIONAL_REPRESENTATION('',(#763),#780);
#763 = B_SPLINE_CURVE_WITH_KNOTS('',8,(#764,#765,#766,#767,#768,#769,
    #770,#771,#772,#773,#774,#775,#776,#777,#778,#779),.UNSPECIFIED.,.F.
  ,.F.,(9,7,9),(4.712388895532,6.28318530718,7.853981718827),
  .UNSPECIFIED.);
#764 = CARTESIAN_POINT('',(-3.665191514041,-43.30127078922));
#765 = CARTESIAN_POINT('',(-3.468841962585,-41.91286979604));
#766 = CARTESIAN_POINT('',(-3.272492411136,-40.52446844672));
#767 = CARTESIAN_POINT('',(-3.076142859649,-39.21763506585));
#768 = CARTESIAN_POINT('',(-2.879793308248,-38.07392162951));
#769 = CARTESIAN_POINT('',(-2.683443756743,-37.16487003611));
#770 = CARTESIAN_POINT('',(-2.487094205312,-36.54175914582));
#771 = CARTESIAN_POINT('',(-2.290744653849,-36.23020237735));
#772 = CARTESIAN_POINT('',(-1.898045550937,-36.23020237735));
#773 = CARTESIAN_POINT('',(-1.701695999478,-36.54175914585));
#774 = CARTESIAN_POINT('',(-1.505346448032,-37.16487003625));
#775 = CARTESIAN_POINT('',(-1.308996896559,-38.07392162975));
#776 = CARTESIAN_POINT('',(-1.11264734512,-39.21763506592));
#777 = CARTESIAN_POINT('',(-0.916297793654,-40.52446844676));
#778 = CARTESIAN_POINT('',(-0.719948242201,-41.91286979604));
#779 = CARTESIAN_POINT('',(-0.523598690745,-43.30127078922));
#780 = ( GEOMETRIC_REPRESENTATION_CONTEXT(2) 
PARAMETRIC_REPRESENTATION_CONTEXT() REPRESENTATION_CONTEXT('2D SPACE',''
  ) );
#781 = ADVANCED_FACE('',(#782),#288,.T.);
#782 = FACE_BOUND('',#783,.T.);
#783 = EDGE_LOOP('',(#784,#785,#786,#787,#788));
#784 = ORIENTED_EDGE('',*,*,#721,.F.);
#785 = ORIENTED_EDGE('',*,*,#670,.T.);
#786 = ORIENTED_EDGE('',*,*,#596,.T.);
#787 = ORIENTED_EDGE('',*,*,#272,.F.);
#788 = ORIENTED_EDGE('',*,*,#789,.F.);
#789 = EDGE_CURVE('',#722,#243,#790,.T.);
#790 = SURFACE_CURVE('',#791,(#796,#803),.PCURVE_S1.);
#791 = ELLIPSE('',#792,8.660254037844,5.);
#792 = AXIS2_PLACEMENT_3D('',#793,#794,#795);
#793 = CARTESIAN_POINT('',(25.,-25.,25.));
#794 = DIRECTION('',(1.,0.,0.));
#795 = DIRECTION('',(0.,0.707106781187,-0.707106781187));
#796 = PCURVE('',#288,#797);
#797 = DEFINITIONAL_REPRESENTATION('',(#798),#802);
#798 = ELLIPSE('',#799,8.660254037844,5.);
#799 = AXIS2_PLACEMENT_2D('',#800,#801);
#800 = CARTESIAN_POINT('',(50.,0.));
#801 = DIRECTION('',(-0.707106781187,-0.707106781187));
#802 = ( GEOMETRIC_REPRESENTATION_CONTEXT(2) 
PARAMETRIC_REPRESENTATION_CONTEXT() REPRESENTATION_CONTEXT('2D SPACE',''
  ) );
#803 = PCURVE('',#224,#804);
#804 = DEFINITIONAL_REPRESENTATION('',(#805),#822);
#805 = B_SPLINE_CURVE_WITH_KNOTS('',8,(#806,#807,#808,#809,#810,#811,
    #812,#813,#814,#815,#816,#817,#818,#819,#820,#821),.UNSPECIFIED.,.F.
  ,.F.,(9,7,9),(4.712388895532,6.28318530718,7.853981718827),
  .UNSPECIFIED.);
#806 = CARTESIAN_POINT('',(-2.617993793139,-43.30127078922));
#807 = CARTESIAN_POINT('',(-2.814343344595,-41.91286979604));
#808 = CARTESIAN_POINT('',(-3.01069289605,-40.52446844672));
#809 = CARTESIAN_POINT('',(-3.207042447504,-39.21763506585));
#810 = CARTESIAN_POINT('',(-3.403391998956,-38.07392162951));
#811 = CARTESIAN_POINT('',(-3.599741550419,-37.16487003611));
#812 = CARTESIAN_POINT('',(-3.796091101874,-36.54175914582));
#813 = CARTESIAN_POINT('',(-3.99244065333,-36.23020237735));
#814 = CARTESIAN_POINT('',(-4.385139756242,-36.23020237735));
#815 = CARTESIAN_POINT('',(-4.581489307694,-36.54175914585));
#816 = CARTESIAN_POINT('',(-4.777838859151,-37.16487003625));
#817 = CARTESIAN_POINT('',(-4.974188410604,-38.07392162975));
#818 = CARTESIAN_POINT('',(-5.170537962069,-39.21763506592));
#819 = CARTESIAN_POINT('',(-5.366887513515,-40.52446844676));
#820 = CARTESIAN_POINT('',(-5.563237064978,-41.91286979604));
#821 = CARTESIAN_POINT('',(-5.759586616434,-43.30127078922));
#822 = ( GEOMETRIC_REPRESENTATION_CONTEXT(2) 
PARAMETRIC_REPRESENTATION_CONTEXT() REPRESENTATION_CONTEXT('2D SPACE',''
  ) );
#823 = ADVANCED_FACE('',(#824),#224,.F.);
#824 = FACE_BOUND('',#825,.T.);
#825 = EDGE_LOOP('',(#826,#827,#848,#849,#850,#851,#852,#853,#854,#886,
    #918));
#826 = ORIENTED_EDGE('',*,*,#523,.F.);
#827 = ORIENTED_EDGE('',*,*,#828,.T.);
#828 = EDGE_CURVE('',#428,#208,#829,.T.);
#829 = SEAM_CURVE('',#830,(#834,#841),.PCURVE_S1.);
#830 = LINE('',#831,#832);
#831 = CARTESIAN_POINT('',(-2.041241452319,2.041241452319,4.082482904639
    ));
#832 = VECTOR('',#833,1.);
#833 = DIRECTION('',(0.57735026919,-0.57735026919,0.57735026919));
#834 = PCURVE('',#224,#835);
#835 = DEFINITIONAL_REPRESENTATION('',(#836),#840);
#836 = LINE('',#837,#838);
#837 = CARTESIAN_POINT('',(-6.28318530718,0.));
#838 = VECTOR('',#839,1.);
#839 = DIRECTION('',(-0.,-1.));
#840 = ( GEOMETRIC_REPRESENTATION_CONTEXT(2) 
PARAMETRIC_REPRESENTATION_CONTEXT() REPRESENTATION_CONTEXT('2D SPACE',''
  ) );
#841 = PCURVE('',#224,#842);
#842 = DEFINITIONAL_REPRESENTATION('',(#843),#847);
#843 = LINE('',#844,#845);
#844 = CARTESIAN_POINT('',(-0.,0.));
#845 = VECTOR('',#846,1.);
#846 = DIRECTION('',(-0.,-1.));
#847 = ( GEOMETRIC_REPRESENTATION_CONTEXT(2) 
PARAMETRIC_REPRESENTATION_CONTEXT() REPRESENTATION_CONTEXT('2D SPACE',''
  ) );
#848 = ORIENTED_EDGE('',*,*,#207,.T.);
#849 = ORIENTED_EDGE('',*,*,#747,.F.);
#850 = ORIENTED_EDGE('',*,*,#789,.T.);
#851 = ORIENTED_EDGE('',*,*,#242,.T.);
#852 = ORIENTED_EDGE('',*,*,#828,.F.);
#853 = ORIENTED_EDGE('',*,*,#427,.F.);
#854 = ORIENTED_EDGE('',*,*,#855,.T.);
#855 = EDGE_CURVE('',#387,#856,#858,.T.);
#856 = VERTEX_POINT('',#857);
#857 = CARTESIAN_POINT('',(5.,0.,-1.830127018922));
#858 = SURFACE_CURVE('',#859,(#864,#875),.PCURVE_S1.);
#859 = ELLIPSE('',#860,5.630162503052,5.);
#860 = AXIS2_PLACEMENT_3D('',#861,#862,#863);
#861 = CARTESIAN_POINT('',(0.,0.,0.));
#862 = DIRECTION('',(-0.325057583672,0.325057583672,-0.888073833977));
#863 = DIRECTION('',(0.6279630302,-0.6279630302,-0.459700843381));
#864 = PCURVE('',#224,#865);
#865 = DEFINITIONAL_REPRESENTATION('',(#866),#874);
#866 = B_SPLINE_CURVE_WITH_KNOTS('',6,(#867,#868,#869,#870,#871,#872,
    #873),.UNSPECIFIED.,.F.,.F.,(7,7),(4.712388981259,5.497787143782),
  .PIECEWISE_BEZIER_KNOTS.);
#867 = CARTESIAN_POINT('',(-4.712388979511,-2.261603406255E-09));
#868 = CARTESIAN_POINT('',(-4.581489285757,-0.338793339678));
#869 = CARTESIAN_POINT('',(-4.450589592003,-0.677586166196));
#870 = CARTESIAN_POINT('',(-4.319689898249,-1.005932998185));
#871 = CARTESIAN_POINT('',(-4.188790204495,-1.313370903837));
#872 = CARTESIAN_POINT('',(-4.057890510741,-1.590563952614));
#873 = CARTESIAN_POINT('',(-3.926990816987,-1.830127018922));
#874 = ( GEOMETRIC_REPRESENTATION_CONTEXT(2) 
PARAMETRIC_REPRESENTATION_CONTEXT() REPRESENTATION_CONTEXT('2D SPACE',''
  ) );
#875 = PCURVE('',#409,#876);
#876 = DEFINITIONAL_REPRESENTATION('',(#877),#885);
#877 = B_SPLINE_CURVE_WITH_KNOTS('',6,(#878,#879,#880,#881,#882,#883,
    #884),.UNSPECIFIED.,.F.,.F.,(7,7),(4.712388981259,5.497787143782),
  .PIECEWISE_BEZIER_KNOTS.);
#878 = CARTESIAN_POINT('',(-0.785398162524,-24.99999999773));
#879 = CARTESIAN_POINT('',(-0.65449846877,-24.66120666032));
#880 = CARTESIAN_POINT('',(-0.523598775016,-24.3224138338));
#881 = CARTESIAN_POINT('',(-0.392699081262,-23.99406700181));
#882 = CARTESIAN_POINT('',(-0.261799387508,-23.68662909616));
#883 = CARTESIAN_POINT('',(-0.130899693754,-23.40943604738));
#884 = CARTESIAN_POINT('',(-2.6645352591E-16,-23.16987298107));
#885 = ( GEOMETRIC_REPRESENTATION_CONTEXT(2) 
PARAMETRIC_REPRESENTATION_CONTEXT() REPRESENTATION_CONTEXT('2D SPACE',''
  ) );
#886 = ORIENTED_EDGE('',*,*,#887,.T.);
#887 = EDGE_CURVE('',#856,#888,#890,.T.);
#888 = VERTEX_POINT('',#889);
#889 = CARTESIAN_POINT('',(3.535533905933,-3.535533905933,
    -2.588190451025));
#890 = SURFACE_CURVE('',#891,(#896,#907),.PCURVE_S1.);
#891 = ELLIPSE('',#892,5.630162503052,5.);
#892 = AXIS2_PLACEMENT_3D('',#893,#894,#895);
#893 = CARTESIAN_POINT('',(0.,0.,0.));
#894 = DIRECTION('',(-0.325057583672,0.325057583672,-0.888073833977));
#895 = DIRECTION('',(0.6279630302,-0.6279630302,-0.459700843381));
#896 = PCURVE('',#224,#897);
#897 = DEFINITIONAL_REPRESENTATION('',(#898),#906);
#898 = B_SPLINE_CURVE_WITH_KNOTS('',6,(#899,#900,#901,#902,#903,#904,
    #905),.UNSPECIFIED.,.F.,.F.,(7,7),(5.497787143782,6.28318530718),
  .PIECEWISE_BEZIER_KNOTS.);
#899 = CARTESIAN_POINT('',(-3.926990816987,-1.830127018922));
#900 = CARTESIAN_POINT('',(-3.796091123088,-2.069690085496));
#901 = CARTESIAN_POINT('',(-3.665191429188,-2.271622447065));
#902 = CARTESIAN_POINT('',(-3.534291735288,-2.428537084579));
#903 = CARTESIAN_POINT('',(-3.403392041389,-2.534973108495));
#904 = CARTESIAN_POINT('',(-3.272492347489,-2.588190451025));
#905 = CARTESIAN_POINT('',(-3.14159265359,-2.588190451025));
#906 = ( GEOMETRIC_REPRESENTATION_CONTEXT(2) 
PARAMETRIC_REPRESENTATION_CONTEXT() REPRESENTATION_CONTEXT('2D SPACE',''
  ) );
#907 = PCURVE('',#409,#908);
#908 = DEFINITIONAL_REPRESENTATION('',(#909),#917);
#909 = B_SPLINE_CURVE_WITH_KNOTS('',6,(#910,#911,#912,#913,#914,#915,
    #916),.UNSPECIFIED.,.F.,.F.,(7,7),(5.497787143782,6.28318530718),
  .PIECEWISE_BEZIER_KNOTS.);
#910 = CARTESIAN_POINT('',(-6.28318530718,-23.16987298107));
#911 = CARTESIAN_POINT('',(-6.15228561328,-22.9303099145));
#912 = CARTESIAN_POINT('',(-6.02138591938,-22.72837755293));
#913 = CARTESIAN_POINT('',(-5.890486225481,-22.57146291542));
#914 = CARTESIAN_POINT('',(-5.759586531581,-22.4650268915));
#915 = CARTESIAN_POINT('',(-5.628686837682,-22.41180954897));
#916 = CARTESIAN_POINT('',(-5.497787143782,-22.41180954897));
#917 = ( GEOMETRIC_REPRESENTATION_CONTEXT(2) 
PARAMETRIC_REPRESENTATION_CONTEXT() REPRESENTATION_CONTEXT('2D SPACE',''
  ) );
#918 = ORIENTED_EDGE('',*,*,#919,.T.);
#919 = EDGE_CURVE('',#888,#524,#920,.T.);
#920 = SURFACE_CURVE('',#921,(#926,#939),.PCURVE_S1.);
#921 = ELLIPSE('',#922,5.630162503052,5.);
#922 = AXIS2_PLACEMENT_3D('',#923,#924,#925);
#923 = CARTESIAN_POINT('',(0.,0.,0.));
#924 = DIRECTION('',(-0.325057583672,0.325057583672,-0.888073833977));
#925 = DIRECTION('',(0.6279630302,-0.6279630302,-0.459700843381));
#926 = PCURVE('',#224,#927);
#927 = DEFINITIONAL_REPRESENTATION('',(#928),#938);
#928 = B_SPLINE_CURVE_WITH_KNOTS('',8,(#929,#930,#931,#932,#933,#934,
    #935,#936,#937),.UNSPECIFIED.,.F.,.F.,(9,9),(0.,1.570796325404),
  .PIECEWISE_BEZIER_KNOTS.);
#929 = CARTESIAN_POINT('',(-3.14159265359,-2.588190451025));
#930 = CARTESIAN_POINT('',(-2.945243112914,-2.588190451025));
#931 = CARTESIAN_POINT('',(-2.748893572236,-2.474152771551));
#932 = CARTESIAN_POINT('',(-2.552544031566,-2.246078381375));
#933 = CARTESIAN_POINT('',(-2.356194490872,-1.913342440249));
#934 = CARTESIAN_POINT('',(-2.159844950215,-1.494714309866));
#935 = CARTESIAN_POINT('',(-1.963495409532,-1.016380136576));
#936 = CARTESIAN_POINT('',(-1.767145868861,-0.508190009839));
#937 = CARTESIAN_POINT('',(-1.570796328186,-3.599224168338E-09));
#938 = ( GEOMETRIC_REPRESENTATION_CONTEXT(2) 
PARAMETRIC_REPRESENTATION_CONTEXT() REPRESENTATION_CONTEXT('2D SPACE',''
  ) );
#939 = PCURVE('',#409,#940);
#940 = DEFINITIONAL_REPRESENTATION('',(#941),#951);
#941 = B_SPLINE_CURVE_WITH_KNOTS('',8,(#942,#943,#944,#945,#946,#947,
    #948,#949,#950),.UNSPECIFIED.,.F.,.F.,(9,9),(0.,1.570796325404),
  .PIECEWISE_BEZIER_KNOTS.);
#942 = CARTESIAN_POINT('',(-5.497787143782,-22.41180954897));
#943 = CARTESIAN_POINT('',(-5.301437603107,-22.41180954897));
#944 = CARTESIAN_POINT('',(-5.105088062426,-22.52584722844));
#945 = CARTESIAN_POINT('',(-4.908738521761,-22.75392161861));
#946 = CARTESIAN_POINT('',(-4.712388981057,-23.08665755968));
#947 = CARTESIAN_POINT('',(-4.516039440408,-23.50528569011));
#948 = CARTESIAN_POINT('',(-4.319689899723,-23.98361986341));
#949 = CARTESIAN_POINT('',(-4.123340359053,-24.49180999016));
#950 = CARTESIAN_POINT('',(-3.926990818378,-24.9999999964));
#951 = ( GEOMETRIC_REPRESENTATION_CONTEXT(2) 
PARAMETRIC_REPRESENTATION_CONTEXT() REPRESENTATION_CONTEXT('2D SPACE',''
  ) );
#952 = ADVANCED_FACE('',(#953),#409,.F.);
#953 = FACE_BOUND('',#954,.T.);
#954 = EDGE_LOOP('',(#955,#976,#977,#978,#979,#980,#981,#982));
#955 = ORIENTED_EDGE('',*,*,#956,.F.);
#956 = EDGE_CURVE('',#695,#856,#957,.T.);
#957 = SEAM_CURVE('',#958,(#962,#969),.PCURVE_S1.);
#958 = LINE('',#959,#960);
#959 = CARTESIAN_POINT('',(5.,0.,-25.));
#960 = VECTOR('',#961,1.);
#961 = DIRECTION('',(0.,0.,1.));
#962 = PCURVE('',#409,#963);
#963 = DEFINITIONAL_REPRESENTATION('',(#964),#968);
#964 = LINE('',#965,#966);
#965 = CARTESIAN_POINT('',(-6.28318530718,0.));
#966 = VECTOR('',#967,1.);
#967 = DIRECTION('',(-0.,-1.));
#968 = ( GEOMETRIC_REPRESENTATION_CONTEXT(2) 
PARAMETRIC_REPRESENTATION_CONTEXT() REPRESENTATION_CONTEXT('2D SPACE',''
  ) );
#969 = PCURVE('',#409,#970);
#970 = DEFINITIONAL_REPRESENTATION('',(#971),#975);
#971 = LINE('',#972,#973);
#972 = CARTESIAN_POINT('',(-0.,0.));
#973 = VECTOR('',#974,1.);
#974 = DIRECTION('',(-0.,-1.));
#975 = ( GEOMETRIC_REPRESENTATION_CONTEXT(2) 
PARAMETRIC_REPRESENTATION_CONTEXT() REPRESENTATION_CONTEXT('2D SPACE',''
  ) );
#976 = ORIENTED_EDGE('',*,*,#694,.F.);
#977 = ORIENTED_EDGE('',*,*,#956,.T.);
#978 = ORIENTED_EDGE('',*,*,#855,.F.);
#979 = ORIENTED_EDGE('',*,*,#384,.F.);
#980 = ORIENTED_EDGE('',*,*,#559,.F.);
#981 = ORIENTED_EDGE('',*,*,#919,.F.);
#982 = ORIENTED_EDGE('',*,*,#887,.F.);
#983 = ( GEOMETRIC_REPRESENTATION_CONTEXT(3) 
GLOBAL_UNCERTAINTY_ASSIGNED_CONTEXT((#987)) GLOBAL_UNIT_ASSIGNED_CONTEXT
((#984,#985,#986)) REPRESENTATION_CONTEXT('Context #1',
  '3D Context with UNIT and UNCERTAINTY') );
#984 = ( LENGTH_UNIT() NAMED_UNIT(*) SI_UNIT(.MILLI.,.METRE.) );
#985 = ( NAMED_UNIT(*) PLANE_ANGLE_UNIT() SI_UNIT($,.RADIAN.) );
#986 = ( NAMED_UNIT(*) SI_UNIT($,.STERADIAN.) SOLID_ANGLE_UNIT() );
#987 = UNCERTAINTY_MEASURE_WITH_UNIT(LENGTH_MEASURE(1.E-07),#984,
  'distance_accuracy_value','confusion accuracy');
#988 = PRODUCT_RELATED_PRODUCT_CATEGORY('part',$,(#7));
ENDSEC;
END-ISO-10303-21;
