ISO-10303-21;
HEADER;
FILE_DESCRIPTION(('Open CASCADE Model'),'2;1');
FILE_NAME('Open CASCADE Shape Model','2026-08-07T02:34:18',('Author'),(
    'Open CASCADE'),'Open CASCADE STEP processor 7.7','Open CASCADE 7.7'
  ,'Unknown');
FILE_SCHEMA(('AUTOMOTIVE_DESIGN { 1 0 10303 214 1 1 1 1 }'));
ENDSEC;
DATA;
#1 = APPLICATION_PROTOCOL_DEFINITION('international standard',
  'automotive_design',2000,#2);
#2 = APPLICATION_CONTEXT(
  'core data for automotive mechanical design processes');
#3 = SHAPE_DEFINITION_REPRESENTATION(#4,#10);
#4 = PRODUCT_DEFINITION_SHAPE('','',#5);
#5 = PRODUCT_DEFINITION('design','',#6,#9);
#6 = PRODUCT_DEFINITION_FORMATION('','',#7);
#7 = PRODUCT('Open CASCADE STEP translator 7.7 48',
  'Open CASCADE STEP translator 7.7 48','',(#8));
#8 = PRODUCT_CONTEXT('',#2,'mechanical');
#9 = PRODUCT_DEFINITION_CONTEXT('part definition',#2,'design');
#10 = ADVANCED_BREP_SHAPE_REPRESENTATION('',(#11,#15),#396);
#11 = AXIS2_PLACEMENT_3D('',#12,#13,#14);
#12 = CARTESIAN_POINT('',(0.,0.,0.));
#13 = DIRECTION('',(0.,0.,1.));
#14 = DIRECTION('',(1.,0.,-0.));
#15 = MANIFOLD_SOLID_BREP('',#16);
#16 = CLOSED_SHELL('',(#17,#387,#392));
#17 = ADVANCED_FACE('',(#18,#238),#33,.T.);
#18 = FACE_BOUND('',#19,.T.);
#19 = EDGE_LOOP('',(#20,#51,#52,#136,#160,#161));
#20 = ORIENTED_EDGE('',*,*,#21,.T.);
#21 = EDGE_CURVE('',#22,#24,#26,.T.);
#22 = VERTEX_POINT('',#23);
#23 = CARTESIAN_POINT('',(15.,-3.673940397442E-15,20.));
#24 = VERTEX_POINT('',#25);
#25 = CARTESIAN_POINT('',(1.530808498934E-15,-3.749399456655E-31,25.));
#26 = SEAM_CURVE('',#27,(#32,#44),.PCURVE_S1.);
#27 = CIRCLE('',#28,25.);
#28 = AXIS2_PLACEMENT_3D('',#29,#30,#31);
#29 = CARTESIAN_POINT('',(0.,0.,0.));
#30 = DIRECTION('',(-2.449293598295E-16,-1.,0.));
#31 = DIRECTION('',(1.,-2.449293598295E-16,0.));
#32 = PCURVE('',#33,#38);
#33 = SPHERICAL_SURFACE('',#34,25.);
#34 = AXIS2_PLACEMENT_3D('',#35,#36,#37);
#35 = CARTESIAN_POINT('',(0.,0.,0.));
#36 = DIRECTION('',(0.,0.,1.));
#37 = DIRECTION('',(1.,0.,0.));
#38 = DEFINITIONAL_REPRESENTATION('',(#39),#43);
#39 = LINE('',#40,#41);
#40 = CARTESIAN_POINT('',(6.28318530718,-6.28318530718));
#41 = VECTOR('',#42,1.);
#42 = DIRECTION('',(0.,1.));
#43 = ( GEOMETRIC_REPRESENTATION_CONTEXT(2) 
PARAMETRIC_REPRESENTATION_CONTEXT() REPRESENTATION_CONTEXT('2D SPACE',''
  ) );
#44 = PCURVE('',#33,#45);
#45 = DEFINITIONAL_REPRESENTATION('',(#46),#50);
#46 = LINE('',#47,#48);
#47 = CARTESIAN_POINT('',(0.,-6.28318530718));
#48 = VECTOR('',#49,1.);
#49 = DIRECTION('',(0.,1.));
#50 = ( GEOMETRIC_REPRESENTATION_CONTEXT(2) 
PARAMETRIC_REPRESENTATION_CONTEXT() REPRESENTATION_CONTEXT('2D SPACE',''
  ) );
#51 = ORIENTED_EDGE('',*,*,#21,.F.);
#52 = ORIENTED_EDGE('',*,*,#53,.F.);
#53 = EDGE_CURVE('',#54,#22,#56,.T.);
#54 = VERTEX_POINT('',#55);
#55 = CARTESIAN_POINT('',(15.,-3.673940397442E-15,-20.));
#56 = SURFACE_CURVE('',#57,(#62,#124),.PCURVE_S1.);
#57 = CIRCLE('',#58,20.);
#58 = AXIS2_PLACEMENT_3D('',#59,#60,#61);
#59 = CARTESIAN_POINT('',(15.,0.,0.));
#60 = DIRECTION('',(1.,0.,0.));
#61 = DIRECTION('',(-0.,0.,1.));
#62 = PCURVE('',#33,#63);
#63 = DEFINITIONAL_REPRESENTATION('',(#64),#123);
#64 = B_SPLINE_CURVE_WITH_KNOTS('',8,(#65,#66,#67,#68,#69,#70,#71,#72,
    #73,#74,#75,#76,#77,#78,#79,#80,#81,#82,#83,#84,#85,#86,#87,#88,#89,
    #90,#91,#92,#93,#94,#95,#96,#97,#98,#99,#100,#101,#102,#103,#104,
    #105,#106,#107,#108,#109,#110,#111,#112,#113,#114,#115,#116,#117,
    #118,#119,#120,#121,#122),.UNSPECIFIED.,.F.,.F.,(9,7,7,7,7,7,7,7,9),
  (3.14159265359,3.337942194439,3.706097583532,4.350369514444,
    4.833573462628,5.195976423766,5.739580865473,6.011383086326,
    6.28318530718),.UNSPECIFIED.);
#65 = CARTESIAN_POINT('',(0.,-0.927295218002));
#66 = CARTESIAN_POINT('',(3.272492347489E-02,-0.927295218002));
#67 = CARTESIAN_POINT('',(6.54498097602E-02,-0.926377295505));
#68 = CARTESIAN_POINT('',(9.803800298076E-02,-0.92454140576));
#69 = CARTESIAN_POINT('',(0.13035228952,-0.921795092931));
#70 = CARTESIAN_POINT('',(0.162262617378,-0.918153277253));
#71 = CARTESIAN_POINT('',(0.19365174408,-0.91363754369));
#72 = CARTESIAN_POINT('',(0.224418813139,-0.908274932074));
#73 = CARTESIAN_POINT('',(0.310847195166,-0.890511160017));
#74 = CARTESIAN_POINT('',(0.364734816871,-0.876057062833));
#75 = CARTESIAN_POINT('',(0.415596185372,-0.858937155892));
#76 = CARTESIAN_POINT('',(0.463099890488,-0.839403094996));
#77 = CARTESIAN_POINT('',(0.507159513714,-0.81772103962));
#78 = CARTESIAN_POINT('',(0.547833119155,-0.794139938144));
#79 = CARTESIAN_POINT('',(0.585259234372,-0.768886466715));
#80 = CARTESIAN_POINT('',(0.6797416268,-0.695393991773));
#81 = CARTESIAN_POINT('',(0.730468319709,-0.64412086589));
#82 = CARTESIAN_POINT('',(0.772753252658,-0.589422438202));
#83 = CARTESIAN_POINT('',(0.807929117044,-0.5321401916));
#84 = CARTESIAN_POINT('',(0.837016473507,-0.472864086191));
#85 = CARTESIAN_POINT('',(0.860827834956,-0.41205979366));
#86 = CARTESIAN_POINT('',(0.879962617801,-0.350091183648));
#87 = CARTESIAN_POINT('',(0.906012453562,-0.240146198844));
#88 = CARTESIAN_POINT('',(0.914786480667,-0.192544768938));
#89 = CARTESIAN_POINT('',(0.921350457102,-0.144590563973));
#90 = CARTESIAN_POINT('',(0.925829006693,-9.639416377792E-02));
#91 = CARTESIAN_POINT('',(0.928298377965,-4.805543589867E-02));
#92 = CARTESIAN_POINT('',(0.928790933407,3.308067318923E-04));
#93 = CARTESIAN_POINT('',(0.927296286105,4.866994515731E-02));
#94 = CARTESIAN_POINT('',(0.921104950965,0.133005799584));
#95 = CARTESIAN_POINT('',(0.917302201786,0.169066919467));
#96 = CARTESIAN_POINT('',(0.91232644486,0.205003013763));
#97 = CARTESIAN_POINT('',(0.906139701703,0.240770059781));
#98 = CARTESIAN_POINT('',(0.898688849284,0.276321028481));
#99 = CARTESIAN_POINT('',(0.889904413205,0.311604324106));
#100 = CARTESIAN_POINT('',(0.879699008053,0.346561854965));
#101 = CARTESIAN_POINT('',(0.850365050163,0.432974055973));
#102 = CARTESIAN_POINT('',(0.829326294541,0.483937917735));
#103 = CARTESIAN_POINT('',(0.804487667767,0.53379233015));
#104 = CARTESIAN_POINT('',(0.775388112324,0.58226721297));
#105 = CARTESIAN_POINT('',(0.741457054618,0.629026545782));
#106 = CARTESIAN_POINT('',(0.70201250262,0.673651247501));
#107 = CARTESIAN_POINT('',(0.656282625361,0.715587589851));
#108 = CARTESIAN_POINT('',(0.577459411279,0.773452942168));
#109 = CARTESIAN_POINT('',(0.549480284382,0.791901540643));
#110 = CARTESIAN_POINT('',(0.519729548623,0.809426401473));
#111 = CARTESIAN_POINT('',(0.488155586632,0.825936437631));
#112 = CARTESIAN_POINT('',(0.454730357289,0.841333802883));
#113 = CARTESIAN_POINT('',(0.419465260499,0.855516026237));
#114 = CARTESIAN_POINT('',(0.382427016055,0.868380319967));
#115 = CARTESIAN_POINT('',(0.3050650096,0.891280765695));
#116 = CARTESIAN_POINT('',(0.264741229074,0.901316914881));
#117 = CARTESIAN_POINT('',(0.222904905701,0.909842807065));
#118 = CARTESIAN_POINT('',(0.17974951979,0.916768846979));
#119 = CARTESIAN_POINT('',(0.135538114865,0.922018337728));
#120 = CARTESIAN_POINT('',(9.060074010412E-02,0.925536253517));
#121 = CARTESIAN_POINT('',(4.530037014225E-02,0.927295218002));
#122 = CARTESIAN_POINT('',(3.265724797726E-16,0.927295218002));
#123 = ( GEOMETRIC_REPRESENTATION_CONTEXT(2) 
PARAMETRIC_REPRESENTATION_CONTEXT() REPRESENTATION_CONTEXT('2D SPACE',''
  ) );
#124 = PCURVE('',#125,#130);
#125 = PLANE('',#126);
#126 = AXIS2_PLACEMENT_3D('',#127,#128,#129);
#127 = CARTESIAN_POINT('',(15.,-30.,-30.));
#128 = DIRECTION('',(1.,0.,0.));
#129 = DIRECTION('',(0.,0.,1.));
#130 = DEFINITIONAL_REPRESENTATION('',(#131),#135);
#131 = CIRCLE('',#132,20.);
#132 = AXIS2_PLACEMENT_2D('',#133,#134);
#133 = CARTESIAN_POINT('',(30.,-30.));
#134 = DIRECTION('',(1.,0.));
#135 = ( GEOMETRIC_REPRESENTATION_CONTEXT(2) 
PARAMETRIC_REPRESENTATION_CONTEXT() REPRESENTATION_CONTEXT('2D SPACE',''
  ) );
#136 = ORIENTED_EDGE('',*,*,#137,.F.);
#137 = EDGE_CURVE('',#138,#54,#140,.T.);
#138 = VERTEX_POINT('',#139);
#139 = CARTESIAN_POINT('',(1.530808498934E-15,-3.749399456655E-31,-25.)
  );
#140 = SEAM_CURVE('',#141,(#146,#153),.PCURVE_S1.);
#141 = CIRCLE('',#142,25.);
#142 = AXIS2_PLACEMENT_3D('',#143,#144,#145);
#143 = CARTESIAN_POINT('',(0.,0.,0.));
#144 = DIRECTION('',(-2.449293598295E-16,-1.,0.));
#145 = DIRECTION('',(1.,-2.449293598295E-16,0.));
#146 = PCURVE('',#33,#147);
#147 = DEFINITIONAL_REPRESENTATION('',(#148),#152);
#148 = LINE('',#149,#150);
#149 = CARTESIAN_POINT('',(6.28318530718,-6.28318530718));
#150 = VECTOR('',#151,1.);
#151 = DIRECTION('',(0.,1.));
#152 = ( GEOMETRIC_REPRESENTATION_CONTEXT(2) 
PARAMETRIC_REPRESENTATION_CONTEXT() REPRESENTATION_CONTEXT('2D SPACE',''
  ) );
#153 = PCURVE('',#33,#154);
#154 = DEFINITIONAL_REPRESENTATION('',(#155),#159);
#155 = LINE('',#156,#157);
#156 = CARTESIAN_POINT('',(0.,-6.28318530718));
#157 = VECTOR('',#158,1.);
#158 = DIRECTION('',(0.,1.));
#159 = ( GEOMETRIC_REPRESENTATION_CONTEXT(2) 
PARAMETRIC_REPRESENTATION_CONTEXT() REPRESENTATION_CONTEXT('2D SPACE',''
  ) );
#160 = ORIENTED_EDGE('',*,*,#137,.T.);
#161 = ORIENTED_EDGE('',*,*,#162,.F.);
#162 = EDGE_CURVE('',#22,#54,#163,.T.);
#163 = SURFACE_CURVE('',#164,(#169,#231),.PCURVE_S1.);
#164 = CIRCLE('',#165,20.);
#165 = AXIS2_PLACEMENT_3D('',#166,#167,#168);
#166 = CARTESIAN_POINT('',(15.,0.,0.));
#167 = DIRECTION('',(1.,0.,0.));
#168 = DIRECTION('',(-0.,0.,1.));
#169 = PCURVE('',#33,#170);
#170 = DEFINITIONAL_REPRESENTATION('',(#171),#230);
#171 = B_SPLINE_CURVE_WITH_KNOTS('',8,(#172,#173,#174,#175,#176,#177,
    #178,#179,#180,#181,#182,#183,#184,#185,#186,#187,#188,#189,#190,
    #191,#192,#193,#194,#195,#196,#197,#198,#199,#200,#201,#202,#203,
    #204,#205,#206,#207,#208,#209,#210,#211,#212,#213,#214,#215,#216,
    #217,#218,#219,#220,#221,#222,#223,#224,#225,#226,#227,#228,#229),
  .UNSPECIFIED.,.F.,.F.,(9,7,7,7,7,7,7,7,9),(0.,0.196349540849,
    0.564504929942,1.208776860854,1.691980809038,2.054383770176,
    2.597988211883,2.869790432736,3.14159265359),.UNSPECIFIED.);
#172 = CARTESIAN_POINT('',(6.28318530718,0.927295218002));
#173 = CARTESIAN_POINT('',(6.250460383705,0.927295218002));
#174 = CARTESIAN_POINT('',(6.217735497419,0.926377295505));
#175 = CARTESIAN_POINT('',(6.185147304199,0.92454140576));
#176 = CARTESIAN_POINT('',(6.15283301766,0.921795092931));
#177 = CARTESIAN_POINT('',(6.120922689802,0.918153277253));
#178 = CARTESIAN_POINT('',(6.089533563099,0.91363754369));
#179 = CARTESIAN_POINT('',(6.058766494041,0.908274932074));
#180 = CARTESIAN_POINT('',(5.972338112013,0.890511160017));
#181 = CARTESIAN_POINT('',(5.918450490309,0.876057062834));
#182 = CARTESIAN_POINT('',(5.867589121806,0.858937155891));
#183 = CARTESIAN_POINT('',(5.820085416692,0.839403095003));
#184 = CARTESIAN_POINT('',(5.776025793464,0.817721039621));
#185 = CARTESIAN_POINT('',(5.735352188025,0.794139938145));
#186 = CARTESIAN_POINT('',(5.697926072807,0.768886466715));
#187 = CARTESIAN_POINT('',(5.60344368038,0.695393991773));
#188 = CARTESIAN_POINT('',(5.55271698747,0.64412086589));
#189 = CARTESIAN_POINT('',(5.510432054524,0.589422438198));
#190 = CARTESIAN_POINT('',(5.475256190132,0.532140191604));
#191 = CARTESIAN_POINT('',(5.446168833673,0.472864086186));
#192 = CARTESIAN_POINT('',(5.422357472223,0.412059793661));
#193 = CARTESIAN_POINT('',(5.403222689379,0.350091183648));
#194 = CARTESIAN_POINT('',(5.377172853618,0.240146198844));
#195 = CARTESIAN_POINT('',(5.368398826513,0.192544768938));
#196 = CARTESIAN_POINT('',(5.361834850077,0.144590563973));
#197 = CARTESIAN_POINT('',(5.357356300487,9.639416377794E-02));
#198 = CARTESIAN_POINT('',(5.354886929214,4.805543589868E-02));
#199 = CARTESIAN_POINT('',(5.354394373772,-3.308067318978E-04));
#200 = CARTESIAN_POINT('',(5.355889021074,-4.866994515731E-02));
#201 = CARTESIAN_POINT('',(5.362080356215,-0.133005799584));
#202 = CARTESIAN_POINT('',(5.365883105394,-0.169066919467));
#203 = CARTESIAN_POINT('',(5.37085886232,-0.205003013763));
#204 = CARTESIAN_POINT('',(5.377045605477,-0.240770059781));
#205 = CARTESIAN_POINT('',(5.384496457896,-0.276321028481));
#206 = CARTESIAN_POINT('',(5.393280893974,-0.311604324106));
#207 = CARTESIAN_POINT('',(5.403486299127,-0.346561854965));
#208 = CARTESIAN_POINT('',(5.432820257017,-0.432974055973));
#209 = CARTESIAN_POINT('',(5.453859012637,-0.483937917733));
#210 = CARTESIAN_POINT('',(5.478697639413,-0.533792330154));
#211 = CARTESIAN_POINT('',(5.507797194853,-0.58226721296));
#212 = CARTESIAN_POINT('',(5.541728252567,-0.629026545786));
#213 = CARTESIAN_POINT('',(5.58117280456,-0.673651247499));
#214 = CARTESIAN_POINT('',(5.626902681818,-0.715587589851));
#215 = CARTESIAN_POINT('',(5.7057258959,-0.773452942168));
#216 = CARTESIAN_POINT('',(5.733705022798,-0.791901540643));
#217 = CARTESIAN_POINT('',(5.763455758557,-0.809426401474));
#218 = CARTESIAN_POINT('',(5.795029720548,-0.825936437631));
#219 = CARTESIAN_POINT('',(5.828454949891,-0.841333802882));
#220 = CARTESIAN_POINT('',(5.863720046681,-0.855516026237));
#221 = CARTESIAN_POINT('',(5.900758291125,-0.868380319967));
#222 = CARTESIAN_POINT('',(5.978120297579,-0.891280765695));
#223 = CARTESIAN_POINT('',(6.018444078105,-0.901316914881));
#224 = CARTESIAN_POINT('',(6.060280401479,-0.909842807063));
#225 = CARTESIAN_POINT('',(6.10343578739,-0.916768846982));
#226 = CARTESIAN_POINT('',(6.147647192315,-0.922018337726));
#227 = CARTESIAN_POINT('',(6.192584567075,-0.925536253518));
#228 = CARTESIAN_POINT('',(6.237884937037,-0.927295218002));
#229 = CARTESIAN_POINT('',(6.28318530718,-0.927295218002));
#230 = ( GEOMETRIC_REPRESENTATION_CONTEXT(2) 
PARAMETRIC_REPRESENTATION_CONTEXT() REPRESENTATION_CONTEXT('2D SPACE',''
  ) );
#231 = PCURVE('',#125,#232);
#232 = DEFINITIONAL_REPRESENTATION('',(#233),#237);
#233 = CIRCLE('',#234,20.);
#234 = AXIS2_PLACEMENT_2D('',#235,#236);
#235 = CARTESIAN_POINT('',(30.,-30.));
#236 = DIRECTION('',(1.,0.));
#237 = ( GEOMETRIC_REPRESENTATION_CONTEXT(2) 
PARAMETRIC_REPRESENTATION_CONTEXT() REPRESENTATION_CONTEXT('2D SPACE',''
  ) );
#238 = FACE_BOUND('',#239,.T.);
#239 = EDGE_LOOP('',(#240));
#240 = ORIENTED_EDGE('',*,*,#241,.T.);
#241 = EDGE_CURVE('',#242,#242,#244,.T.);
#242 = VERTEX_POINT('',#243);
#243 = CARTESIAN_POINT('',(-15.,0.,20.));
#244 = SURFACE_CURVE('',#245,(#250,#375),.PCURVE_S1.);
#245 = CIRCLE('',#246,20.);
#246 = AXIS2_PLACEMENT_3D('',#247,#248,#249);
#247 = CARTESIAN_POINT('',(-15.,0.,0.));
#248 = DIRECTION('',(1.,0.,0.));
#249 = DIRECTION('',(-0.,0.,1.));
#250 = PCURVE('',#33,#251);
#251 = DEFINITIONAL_REPRESENTATION('',(#252),#374);
#252 = B_SPLINE_CURVE_WITH_KNOTS('',8,(#253,#254,#255,#256,#257,#258,
    #259,#260,#261,#262,#263,#264,#265,#266,#267,#268,#269,#270,#271,
    #272,#273,#274,#275,#276,#277,#278,#279,#280,#281,#282,#283,#284,
    #285,#286,#287,#288,#289,#290,#291,#292,#293,#294,#295,#296,#297,
    #298,#299,#300,#301,#302,#303,#304,#305,#306,#307,#308,#309,#310,
    #311,#312,#313,#314,#315,#316,#317,#318,#319,#320,#321,#322,#323,
    #324,#325,#326,#327,#328,#329,#330,#331,#332,#333,#334,#335,#336,
    #337,#338,#339,#340,#341,#342,#343,#344,#345,#346,#347,#348,#349,
    #350,#351,#352,#353,#354,#355,#356,#357,#358,#359,#360,#361,#362,
    #363,#364,#365,#366,#367,#368,#369,#370,#371,#372,#373),
  .UNSPECIFIED.,.T.,.F.,(9,7,7,7,7,7,7,7,7,7,7,7,7,7,7,7,7,9),(0.,
    0.196349540849,0.576776776245,0.933427309428,1.602147059147,
    2.187276840151,2.443271119341,2.683265756081,2.908260728024,
    3.119193514221,3.316943001281,3.687723289519,4.336588793934,
    4.823237922245,5.188224768479,5.735705037829,6.009445172504,
    6.28318530718),.UNSPECIFIED.);
#253 = CARTESIAN_POINT('',(3.14159265359,0.927295218002));
#254 = CARTESIAN_POINT('',(3.174317577065,0.927295218002));
#255 = CARTESIAN_POINT('',(3.20704246335,0.926377295505));
#256 = CARTESIAN_POINT('',(3.23963065657,0.92454140576));
#257 = CARTESIAN_POINT('',(3.27194494311,0.921795092931));
#258 = CARTESIAN_POINT('',(3.303855270968,0.918153277253));
#259 = CARTESIAN_POINT('',(3.33524439767,0.91363754369));
#260 = CARTESIAN_POINT('',(3.366011466728,0.908274932074));
#261 = CARTESIAN_POINT('',(3.454318726626,0.890124991059));
#262 = CARTESIAN_POINT('',(3.509917222693,0.875090270502));
#263 = CARTESIAN_POINT('',(3.562264876713,0.857216277118));
#264 = CARTESIAN_POINT('',(3.611003920298,0.836782515989));
#265 = CARTESIAN_POINT('',(3.65605715898,0.81408357508));
#266 = CARTESIAN_POINT('',(3.697504094688,0.789392263074));
#267 = CARTESIAN_POINT('',(3.735509059646,0.762955257549));
#268 = CARTESIAN_POINT('',(3.802869905157,0.708772641949));
#269 = CARTESIAN_POINT('',(3.832617883803,0.681212089629));
#270 = CARTESIAN_POINT('',(3.859687883171,0.652487701059));
#271 = CARTESIAN_POINT('',(3.884278219878,0.622756366346));
#272 = CARTESIAN_POINT('',(3.906584816057,0.592152307474));
#273 = CARTESIAN_POINT('',(3.926788297448,0.560790251409));
#274 = CARTESIAN_POINT('',(3.94505143903,0.528769494091));
#275 = CARTESIAN_POINT('',(3.992391353026,0.435064165434));
#276 = CARTESIAN_POINT('',(4.016947315311,0.371939666576));
#277 = CARTESIAN_POINT('',(4.036130625191,0.307372096762));
#278 = CARTESIAN_POINT('',(4.050645857649,0.241771886748));
#279 = CARTESIAN_POINT('',(4.060950061541,0.175460837785));
#280 = CARTESIAN_POINT('',(4.067330546857,0.108713334286));
#281 = CARTESIAN_POINT('',(4.069910404847,4.178103313394E-02));
#282 = CARTESIAN_POINT('',(4.067550761308,-8.358172864396E-02));
#283 = CARTESIAN_POINT('',(4.063510852099,-0.142029107175));
#284 = CARTESIAN_POINT('',(4.056506580851,-0.200249110458));
#285 = CARTESIAN_POINT('',(4.046417634101,-0.258066673399));
#286 = CARTESIAN_POINT('',(4.033024797171,-0.315289498966));
#287 = CARTESIAN_POINT('',(4.016002580854,-0.371693902695));
#288 = CARTESIAN_POINT('',(3.994884218436,-0.42700275314));
#289 = CARTESIAN_POINT('',(3.957764250739,-0.504409390569));
#290 = CARTESIAN_POINT('',(3.945566472428,-0.527688338275));
#291 = CARTESIAN_POINT('',(3.93241730557,-0.550657097773));
#292 = CARTESIAN_POINT('',(3.918260841398,-0.573281890004));
#293 = CARTESIAN_POINT('',(3.90303588681,-0.595525141277));
#294 = CARTESIAN_POINT('',(3.886676528217,-0.617344882203));
#295 = CARTESIAN_POINT('',(3.869113626529,-0.6386941552));
#296 = CARTESIAN_POINT('',(3.832618133947,-0.679045063782));
#297 = CARTESIAN_POINT('',(3.813839777849,-0.698110044019));
#298 = CARTESIAN_POINT('',(3.793884589119,-0.716672057539));
#299 = CARTESIAN_POINT('',(3.772694694763,-0.734683654419));
#300 = CARTESIAN_POINT('',(3.750213827874,-0.752092676797));
#301 = CARTESIAN_POINT('',(3.726390972826,-0.768842168441));
#302 = CARTESIAN_POINT('',(3.701185762451,-0.784870765665));
#303 = CARTESIAN_POINT('',(3.649628625362,-0.814403698281));
#304 = CARTESIAN_POINT('',(3.623446831979,-0.828003198748));
#305 = CARTESIAN_POINT('',(3.596011627686,-0.840858628667));
#306 = CARTESIAN_POINT('',(3.567318236826,-0.852913959451));
#307 = CARTESIAN_POINT('',(3.537380486265,-0.864111318179));
#308 = CARTESIAN_POINT('',(3.506237240855,-0.874392577601));
#309 = CARTESIAN_POINT('',(3.473957491065,-0.883701658313));
#310 = CARTESIAN_POINT('',(3.409406922001,-0.899755296801));
#311 = CARTESIAN_POINT('',(3.377261654041,-0.90662375345));
#312 = CARTESIAN_POINT('',(3.344287428095,-0.912550711744));
#313 = CARTESIAN_POINT('',(3.310590327392,-0.917497623767));
#314 = CARTESIAN_POINT('',(3.276300645589,-0.921431953245));
#315 = CARTESIAN_POINT('',(3.241569552208,-0.924329105063));
#316 = CARTESIAN_POINT('',(3.20656213267,-0.926173790123));
#317 = CARTESIAN_POINT('',(3.138526181267,-0.927698671287));
#318 = CARTESIAN_POINT('',(3.10551075272,-0.927506925403));
#319 = CARTESIAN_POINT('',(3.07253942096,-0.926381252056));
#320 = CARTESIAN_POINT('',(3.039754230194,-0.924324917415));
#321 = CARTESIAN_POINT('',(3.007293448193,-0.921349129015));
#322 = CARTESIAN_POINT('',(2.975284626984,-0.917472409094));
#323 = CARTESIAN_POINT('',(2.943839472059,-0.912719361866));
#324 = CARTESIAN_POINT('',(2.855326498998,-0.896618881271));
#325 = CARTESIAN_POINT('',(2.799914062576,-0.88314042104));
#326 = CARTESIAN_POINT('',(2.747436579719,-0.866876315861));
#327 = CARTESIAN_POINT('',(2.698301486476,-0.84807647306));
#328 = CARTESIAN_POINT('',(2.652650548082,-0.827013938852));
#329 = CARTESIAN_POINT('',(2.610457202006,-0.80394759328));
#330 = CARTESIAN_POINT('',(2.5716005747,-0.779115055054));
#331 = CARTESIAN_POINT('',(2.473449716607,-0.706551457605));
#332 = CARTESIAN_POINT('',(2.420684143281,-0.655614752143));
#333 = CARTESIAN_POINT('',(2.376695900223,-0.601055298553));
#334 = CARTESIAN_POINT('',(2.340096798764,-0.543769039574));
#335 = CARTESIAN_POINT('',(2.309812444249,-0.484379421706));
#336 = CARTESIAN_POINT('',(2.284986457667,-0.423377971007));
#337 = CARTESIAN_POINT('',(2.264982969728,-0.361146264952));
#338 = CARTESIAN_POINT('',(2.237618738453,-0.250648812432));
#339 = CARTESIAN_POINT('',(2.228347552132,-0.202781018533));
#340 = CARTESIAN_POINT('',(2.221340564784,-0.154536452182));
#341 = CARTESIAN_POINT('',(2.216463550596,-0.106029780838));
#342 = CARTESIAN_POINT('',(2.213632654995,-5.736397144992E-02));
#343 = CARTESIAN_POINT('',(2.212809455315,-8.636254136608E-03));
#344 = CARTESIAN_POINT('',(2.213999478015,4.005683113949E-02));
#345 = CARTESIAN_POINT('',(2.219696681749,0.125031147305));
#346 = CARTESIAN_POINT('',(2.223300183662,0.161372018126));
#347 = CARTESIAN_POINT('',(2.228087629081,0.197593321255));
#348 = CARTESIAN_POINT('',(2.234095757648,0.233650470771));
#349 = CARTESIAN_POINT('',(2.241376763563,0.26949594848));
#350 = CARTESIAN_POINT('',(2.249999503955,0.305077710316));
#351 = CARTESIAN_POINT('',(2.260051100351,0.340337219916));
#352 = CARTESIAN_POINT('',(2.289020682606,0.427511943617));
#353 = CARTESIAN_POINT('',(2.3098589427,0.478940137428));
#354 = CARTESIAN_POINT('',(2.334515810749,0.529264060041));
#355 = CARTESIAN_POINT('',(2.363455060226,0.578211817393));
#356 = CARTESIAN_POINT('',(2.397253258125,0.625444871219));
#357 = CARTESIAN_POINT('',(2.436601775988,0.670540660187));
#358 = CARTESIAN_POINT('',(2.482289906752,0.712939246701));
#359 = CARTESIAN_POINT('',(2.561161853128,0.771469383175));
#360 = CARTESIAN_POINT('',(2.589175781125,0.790134813024));
#361 = CARTESIAN_POINT('',(2.618982373093,0.80787046644));
#362 = CARTESIAN_POINT('',(2.650635866132,0.824583735465));
#363 = CARTESIAN_POINT('',(2.684166934095,0.840174973857));
#364 = CARTESIAN_POINT('',(2.719566367439,0.854539621808));
#365 = CARTESIAN_POINT('',(2.756768578004,0.867572587121));
#366 = CARTESIAN_POINT('',(2.834516738538,0.890778259764));
#367 = CARTESIAN_POINT('',(2.875062708051,0.900950964259));
#368 = CARTESIAN_POINT('',(2.917149824092,0.909595046944));
#369 = CARTESIAN_POINT('',(2.960582470794,0.916618605493));
#370 = CARTESIAN_POINT('',(3.00509340118,0.921942822999));
#371 = CARTESIAN_POINT('',(3.050345942308,0.925511081661));
#372 = CARTESIAN_POINT('',(3.095969297811,0.927295218002));
#373 = CARTESIAN_POINT('',(3.14159265359,0.927295218002));
#374 = ( GEOMETRIC_REPRESENTATION_CONTEXT(2) 
PARAMETRIC_REPRESENTATION_CONTEXT() REPRESENTATION_CONTEXT('2D SPACE',''
  ) );
#375 = PCURVE('',#376,#381);
#376 = PLANE('',#377);
#377 = AXIS2_PLACEMENT_3D('',#378,#379,#380);
#378 = CARTESIAN_POINT('',(-15.,-30.,-30.));
#379 = DIRECTION('',(1.,0.,0.));
#380 = DIRECTION('',(0.,0.,1.));
#381 = DEFINITIONAL_REPRESENTATION('',(#382),#386);
#382 = CIRCLE('',#383,20.);
#383 = AXIS2_PLACEMENT_2D('',#384,#385);
#384 = CARTESIAN_POINT('',(30.,-30.));
#385 = DIRECTION('',(1.,0.));
#386 = ( GEOMETRIC_REPRESENTATION_CONTEXT(2) 
PARAMETRIC_REPRESENTATION_CONTEXT() REPRESENTATION_CONTEXT('2D SPACE',''
  ) );
#387 = ADVANCED_FACE('',(#388),#125,.T.);
#388 = FACE_BOUND('',#389,.T.);
#389 = EDGE_LOOP('',(#390,#391));
#390 = ORIENTED_EDGE('',*,*,#53,.T.);
#391 = ORIENTED_EDGE('',*,*,#162,.T.);
#392 = ADVANCED_FACE('',(#393),#376,.F.);
#393 = FACE_BOUND('',#394,.F.);
#394 = EDGE_LOOP('',(#395));
#395 = ORIENTED_EDGE('',*,*,#241,.T.);
#396 = ( GEOMETRIC_REPRESENTATION_CONTEXT(3) 
GLOBAL_UNCERTAINTY_ASSIGNED_CONTEXT((#400)) GLOBAL_UNIT_ASSIGNED_CONTEXT
((#397,#398,#399)) REPRESENTATION_CONTEXT('Context #1',
  '3D Context with UNIT and UNCERTAINTY') );
#397 = ( LENGTH_UNIT() NAMED_UNIT(*) SI_UNIT(.MILLI.,.METRE.) );
#398 = ( NAMED_UNIT(*) PLANE_ANGLE_UNIT() SI_UNIT($,.RADIAN.) );
#399 = ( NAMED_UNIT(*) SI_UNIT($,.STERADIAN.) SOLID_ANGLE_UNIT() );
#400 = UNCERTAINTY_MEASURE_WITH_UNIT(LENGTH_MEASURE(1.E-07),#397,
  'distance_accuracy_value','confusion accuracy');
#401 = PRODUCT_RELATED_PRODUCT_CATEGORY('part',$,(#7));
ENDSEC;
END-ISO-10303-21;
