ISO-10303-21;
HEADER;
FILE_DESCRIPTION(('Open CASCADE Model'),'2;1');
FILE_NAME('Open CASCADE Shape Model','2026-08-07T02:34:18',('Author'),(
    'Open CASCADE'),'Open CASCADE STEP processor 7.7','Open CASCADE 7.7'
  ,'Unknown');
FILE_SCHEMA(('AUTOMOTIVE_DESIGN { 1 0 10303 214 1 1 1 1 }'));
ENDSEC;
DATA;
#1 = APPLICATION_PROTOCOL_DEFINITION('international standard',
  'automotive_design',2000,#2);
#2 = APPLICATION_CONTEXT(
  'core data for automotive mechanical design processes');
#3 = SHAPE_DEFINITION_REPRESENTATION(#4,#10);
#4 = PRODUCT_DEFINITION_SHAPE('','',#5);
#5 = PRODUCT_DEFINITION('design','',#6,#9);
#6 = PRODUCT_DEFINITION_FORMATION('','',#7);
#7 = PRODUCT('Open CASCADE STEP translator 7.7 49',
  'Open CASCADE STEP translator 7.7 49','',(#8));
#8 = PRODUCT_CONTEXT('',#2,'mechanical');
#9 = PRODUCT_DEFINITION_CONTEXT('part definition',#2,'design');
#10 = ADVANCED_BREP_SHAPE_REPRESENTATION('',(#11,#15),#1460);
#11 = AXIS2_PLACEMENT_3D('',#12,#13,#14);
#12 = CARTESIAN_POINT('',(0.,0.,0.));
#13 = DIRECTION('',(0.,0.,1.));
#14 = DIRECTION('',(1.,0.,-0.));
#15 = MANIFOLD_SOLID_BREP('',#16);
#16 = CLOSED_SHELL('',(#17,#526,#583,#638,#693,#748,#787,#826,#861,#896,
    #1059,#1171,#1283,#1395));
#17 = ADVANCED_FACE('',(#18,#226,#326,#426),#33,.T.);
#18 = FACE_BOUND('',#19,.T.);
#19 = EDGE_LOOP('',(#20,#90,#114,#115,#159,#201,#225));
#20 = ORIENTED_EDGE('',*,*,#21,.T.);
#21 = EDGE_CURVE('',#22,#24,#26,.T.);
#22 = VERTEX_POINT('',#23);
#23 = CARTESIAN_POINT('',(25.980762113533,-6.363451432349E-15,-15.));
#24 = VERTEX_POINT('',#25);
#25 = CARTESIAN_POINT('',(25.980762113533,-6.363451432349E-15,15.));
#26 = SURFACE_CURVE('',#27,(#32,#78),.PCURVE_S1.);
#27 = CIRCLE('',#28,15.);
#28 = AXIS2_PLACEMENT_3D('',#29,#30,#31);
#29 = CARTESIAN_POINT('',(25.980762113533,0.,0.));
#30 = DIRECTION('',(-1.,-0.,-0.));
#31 = DIRECTION('',(0.,0.,-1.));
#32 = PCURVE('',#33,#38);
#33 = SPHERICAL_SURFACE('',#34,30.);
#34 = AXIS2_PLACEMENT_3D('',#35,#36,#37);
#35 = CARTESIAN_POINT('',(0.,0.,0.));
#36 = DIRECTION('',(0.,0.,1.));
#37 = DIRECTION('',(1.,0.,0.));
#38 = DEFINITIONAL_REPRESENTATION('',(#39),#77);
#39 = B_SPLINE_CURVE_WITH_KNOTS('',8,(#40,#41,#42,#43,#44,#45,#46,#47,
    #48,#49,#50,#51,#52,#53,#54,#55,#56,#57,#58,#59,#60,#61,#62,#63,#64,
    #65,#66,#67,#68,#69,#70,#71,#72,#73,#74,#75,#76),.UNSPECIFIED.,.F.,
  .F.,(9,7,7,7,7,9),(0.,0.392699081699,1.079922474671,2.110757564131,
    2.62617510886,3.14159265359),.UNSPECIFIED.);
#40 = CARTESIAN_POINT('',(6.28318530718,-0.523598775598));
#41 = CARTESIAN_POINT('',(6.254844692113,-0.523598775598));
#42 = CARTESIAN_POINT('',(6.226504083992,-0.52200886937));
#43 = CARTESIAN_POINT('',(6.198336868039,-0.518829067166));
#44 = CARTESIAN_POINT('',(6.170516608353,-0.514075681946));
#45 = CARTESIAN_POINT('',(6.143208246096,-0.50778146734));
#46 = CARTESIAN_POINT('',(6.116560464909,-0.499993691475));
#47 = CARTESIAN_POINT('',(6.090700954474,-0.490771142146));
#48 = CARTESIAN_POINT('',(6.022048163262,-0.461648413093));
#49 = CARTESIAN_POINT('',(5.981100519891,-0.438927707761));
#50 = CARTESIAN_POINT('',(5.943464222428,-0.412379249398));
#51 = CARTESIAN_POINT('',(5.90951117207,-0.382443294825));
#52 = CARTESIAN_POINT('',(5.879399107915,-0.349588765005));
#53 = CARTESIAN_POINT('',(5.85316587725,-0.314268759498));
#54 = CARTESIAN_POINT('',(5.830788679665,-0.276915082739));
#55 = CARTESIAN_POINT('',(5.78437372784,-0.17947017593));
#56 = CARTESIAN_POINT('',(5.765099997967,-0.117348552765));
#57 = CARTESIAN_POINT('',(5.754250454486,-5.295475882698E-02));
#58 = CARTESIAN_POINT('',(5.751561958159,1.244255744956E-02));
#59 = CARTESIAN_POINT('',(5.756959343784,7.767128572408E-02));
#60 = CARTESIAN_POINT('',(5.770562906755,0.141551477601));
#61 = CARTESIAN_POINT('',(5.792663049638,0.202787297203));
#62 = CARTESIAN_POINT('',(5.838734216529,0.288561059623));
#63 = CARTESIAN_POINT('',(5.856244754014,0.316139005681));
#64 = CARTESIAN_POINT('',(5.875923631548,0.342527554992));
#65 = CARTESIAN_POINT('',(5.897774539331,0.367543847309));
#66 = CARTESIAN_POINT('',(5.921781221196,0.390998320768));
#67 = CARTESIAN_POINT('',(5.947891163959,0.412697804071));
#68 = CARTESIAN_POINT('',(5.975999310875,0.432452356657));
#69 = CARTESIAN_POINT('',(6.035879400304,0.467720808593));
#70 = CARTESIAN_POINT('',(6.067651360868,0.483234703241));
#71 = CARTESIAN_POINT('',(6.101089081314,0.496452800991));
#72 = CARTESIAN_POINT('',(6.135965568409,0.507214082836));
#73 = CARTESIAN_POINT('',(6.171986263458,0.515382211792));
#74 = CARTESIAN_POINT('',(6.208791192784,0.520859913795));
#75 = CARTESIAN_POINT('',(6.245988249905,0.523598775598));
#76 = CARTESIAN_POINT('',(6.28318530718,0.523598775598));
#77 = ( GEOMETRIC_REPRESENTATION_CONTEXT(2) 
PARAMETRIC_REPRESENTATION_CONTEXT() REPRESENTATION_CONTEXT('2D SPACE',''
  ) );
#78 = PCURVE('',#79,#84);
#79 = CYLINDRICAL_SURFACE('',#80,15.);
#80 = AXIS2_PLACEMENT_3D('',#81,#82,#83);
#81 = CARTESIAN_POINT('',(0.,0.,0.));
#82 = DIRECTION('',(-1.,-0.,-0.));
#83 = DIRECTION('',(0.,1.,0.));
#84 = DEFINITIONAL_REPRESENTATION('',(#85),#89);
#85 = LINE('',#86,#87);
#86 = CARTESIAN_POINT('',(-4.712388980385,-25.98076211353));
#87 = VECTOR('',#88,1.);
#88 = DIRECTION('',(1.,-0.));
#89 = ( GEOMETRIC_REPRESENTATION_CONTEXT(2) 
PARAMETRIC_REPRESENTATION_CONTEXT() REPRESENTATION_CONTEXT('2D SPACE',''
  ) );
#90 = ORIENTED_EDGE('',*,*,#91,.T.);
#91 = EDGE_CURVE('',#24,#92,#94,.T.);
#92 = VERTEX_POINT('',#93);
#93 = CARTESIAN_POINT('',(1.836970198721E-15,-4.499279347986E-31,30.));
#94 = SEAM_CURVE('',#95,(#100,#107),.PCURVE_S1.);
#95 = CIRCLE('',#96,30.);
#96 = AXIS2_PLACEMENT_3D('',#97,#98,#99);
#97 = CARTESIAN_POINT('',(0.,0.,0.));
#98 = DIRECTION('',(-2.449293598295E-16,-1.,0.));
#99 = DIRECTION('',(1.,-2.449293598295E-16,0.));
#100 = PCURVE('',#33,#101);
#101 = DEFINITIONAL_REPRESENTATION('',(#102),#106);
#102 = LINE('',#103,#104);
#103 = CARTESIAN_POINT('',(0.,-6.28318530718));
#104 = VECTOR('',#105,1.);
#105 = DIRECTION('',(0.,1.));
#106 = ( GEOMETRIC_REPRESENTATION_CONTEXT(2) 
PARAMETRIC_REPRESENTATION_CONTEXT() REPRESENTATION_CONTEXT('2D SPACE',''
  ) );
#107 = PCURVE('',#33,#108);
#108 = DEFINITIONAL_REPRESENTATION('',(#109),#113);
#109 = LINE('',#110,#111);
#110 = CARTESIAN_POINT('',(6.28318530718,-6.28318530718));
#111 = VECTOR('',#112,1.);
#112 = DIRECTION('',(0.,1.));
#113 = ( GEOMETRIC_REPRESENTATION_CONTEXT(2) 
PARAMETRIC_REPRESENTATION_CONTEXT() REPRESENTATION_CONTEXT('2D SPACE',''
  ) );
#114 = ORIENTED_EDGE('',*,*,#91,.F.);
#115 = ORIENTED_EDGE('',*,*,#116,.T.);
#116 = EDGE_CURVE('',#24,#117,#119,.T.);
#117 = VERTEX_POINT('',#118);
#118 = CARTESIAN_POINT('',(25.980762113533,15.,0.));
#119 = SURFACE_CURVE('',#120,(#125,#152),.PCURVE_S1.);
#120 = CIRCLE('',#121,15.);
#121 = AXIS2_PLACEMENT_3D('',#122,#123,#124);
#122 = CARTESIAN_POINT('',(25.980762113533,0.,0.));
#123 = DIRECTION('',(-1.,-0.,-0.));
#124 = DIRECTION('',(0.,0.,-1.));
#125 = PCURVE('',#33,#126);
#126 = DEFINITIONAL_REPRESENTATION('',(#127),#151);
#127 = B_SPLINE_CURVE_WITH_KNOTS('',8,(#128,#129,#130,#131,#132,#133,
    #134,#135,#136,#137,#138,#139,#140,#141,#142,#143,#144,#145,#146,
    #147,#148,#149,#150),.UNSPECIFIED.,.F.,.F.,(9,7,7,9),(3.14159265359,
    3.534291735289,4.123340357837,4.712388980385),.UNSPECIFIED.);
#128 = CARTESIAN_POINT('',(0.,0.523598775598));
#129 = CARTESIAN_POINT('',(2.834061506616E-02,0.523598775598));
#130 = CARTESIAN_POINT('',(5.668122318781E-02,0.52200886937));
#131 = CARTESIAN_POINT('',(8.484843914036E-02,0.518829067166));
#132 = CARTESIAN_POINT('',(0.112668698826,0.514075681946));
#133 = CARTESIAN_POINT('',(0.139977061084,0.50778146734));
#134 = CARTESIAN_POINT('',(0.166624842271,0.499993691475));
#135 = CARTESIAN_POINT('',(0.192484352705,0.490771142146));
#136 = CARTESIAN_POINT('',(0.25489598108,0.464295933916));
#137 = CARTESIAN_POINT('',(0.290329535833,0.445333862269));
#138 = CARTESIAN_POINT('',(0.323390155994,0.423521777885));
#139 = CARTESIAN_POINT('',(0.353825827996,0.39912962631));
#140 = CARTESIAN_POINT('',(0.381498732057,0.372447071882));
#141 = CARTESIAN_POINT('',(0.406349399078,0.343761805708));
#142 = CARTESIAN_POINT('',(0.428365478319,0.313352822035));
#143 = CARTESIAN_POINT('',(0.466754451744,0.249622603197));
#144 = CARTESIAN_POINT('',(0.483127344371,0.216301366143));
#145 = CARTESIAN_POINT('',(0.496691593175,0.181791647277));
#146 = CARTESIAN_POINT('',(0.507485454043,0.146349693512));
#147 = CARTESIAN_POINT('',(0.515549889542,0.110218521241));
#148 = CARTESIAN_POINT('',(0.520915810173,7.363107369145E-02));
#149 = CARTESIAN_POINT('',(0.523598775598,3.681553890926E-02));
#150 = CARTESIAN_POINT('',(0.523598775598,9.184850993605E-17));
#151 = ( GEOMETRIC_REPRESENTATION_CONTEXT(2) 
PARAMETRIC_REPRESENTATION_CONTEXT() REPRESENTATION_CONTEXT('2D SPACE',''
  ) );
#152 = PCURVE('',#79,#153);
#153 = DEFINITIONAL_REPRESENTATION('',(#154),#158);
#154 = LINE('',#155,#156);
#155 = CARTESIAN_POINT('',(-4.712388980385,-25.98076211353));
#156 = VECTOR('',#157,1.);
#157 = DIRECTION('',(1.,-0.));
#158 = ( GEOMETRIC_REPRESENTATION_CONTEXT(2) 
PARAMETRIC_REPRESENTATION_CONTEXT() REPRESENTATION_CONTEXT('2D SPACE',''
  ) );
#159 = ORIENTED_EDGE('',*,*,#160,.T.);
#160 = EDGE_CURVE('',#117,#22,#161,.T.);
#161 = SURFACE_CURVE('',#162,(#167,#194),.PCURVE_S1.);
#162 = CIRCLE('',#163,15.);
#163 = AXIS2_PLACEMENT_3D('',#164,#165,#166);
#164 = CARTESIAN_POINT('',(25.980762113533,0.,0.));
#165 = DIRECTION('',(-1.,-0.,-0.));
#166 = DIRECTION('',(0.,0.,-1.));
#167 = PCURVE('',#33,#168);
#168 = DEFINITIONAL_REPRESENTATION('',(#169),#193);
#169 = B_SPLINE_CURVE_WITH_KNOTS('',8,(#170,#171,#172,#173,#174,#175,
    #176,#177,#178,#179,#180,#181,#182,#183,#184,#185,#186,#187,#188,
    #189,#190,#191,#192),.UNSPECIFIED.,.F.,.F.,(9,7,7,9),(4.712388980385
    ,5.497787143782,5.890486225481,6.28318530718),.UNSPECIFIED.);
#170 = CARTESIAN_POINT('',(0.523598775598,9.184850993605E-17));
#171 = CARTESIAN_POINT('',(0.523598775598,-4.908738521234E-02));
#172 = CARTESIAN_POINT('',(0.518829033187,-9.817476986765E-02));
#173 = CARTESIAN_POINT('',(0.509289795028,-0.146721449817));
#174 = CARTESIAN_POINT('',(0.494931011693,-0.194186725346));
#175 = CARTESIAN_POINT('',(0.475657252715,-0.24000894649));
#176 = CARTESIAN_POINT('',(0.451348946792,-0.283585392231));
#177 = CARTESIAN_POINT('',(0.421950699963,-0.32426054854));
#178 = CARTESIAN_POINT('',(0.370419680001,-0.37992041159));
#179 = CARTESIAN_POINT('',(0.352003724334,-0.3975815547));
#180 = CARTESIAN_POINT('',(0.332365544708,-0.414267128175));
#181 = CARTESIAN_POINT('',(0.311533639936,-0.429892995375));
#182 = CARTESIAN_POINT('',(0.28955186309,-0.444375450345));
#183 = CARTESIAN_POINT('',(0.266483455442,-0.457633360848));
#184 = CARTESIAN_POINT('',(0.242413655405,-0.469590975562));
#185 = CARTESIAN_POINT('',(0.192484352705,-0.490771142146));
#186 = CARTESIAN_POINT('',(0.166624842271,-0.499993691475));
#187 = CARTESIAN_POINT('',(0.139977061084,-0.50778146734));
#188 = CARTESIAN_POINT('',(0.112668698826,-0.514075681946));
#189 = CARTESIAN_POINT('',(8.484843914036E-02,-0.518829067166));
#190 = CARTESIAN_POINT('',(5.66812231878E-02,-0.52200886937));
#191 = CARTESIAN_POINT('',(2.834061506616E-02,-0.523598775598));
#192 = CARTESIAN_POINT('',(1.4141003183E-16,-0.523598775598));
#193 = ( GEOMETRIC_REPRESENTATION_CONTEXT(2) 
PARAMETRIC_REPRESENTATION_CONTEXT() REPRESENTATION_CONTEXT('2D SPACE',''
  ) );
#194 = PCURVE('',#79,#195);
#195 = DEFINITIONAL_REPRESENTATION('',(#196),#200);
#196 = LINE('',#197,#198);
#197 = CARTESIAN_POINT('',(-10.99557428756,-25.98076211353));
#198 = VECTOR('',#199,1.);
#199 = DIRECTION('',(1.,-0.));
#200 = ( GEOMETRIC_REPRESENTATION_CONTEXT(2) 
PARAMETRIC_REPRESENTATION_CONTEXT() REPRESENTATION_CONTEXT('2D SPACE',''
  ) );
#201 = ORIENTED_EDGE('',*,*,#202,.F.);
#202 = EDGE_CURVE('',#203,#22,#205,.T.);
#203 = VERTEX_POINT('',#204);
#204 = CARTESIAN_POINT('',(1.836970198721E-15,-4.499279347986E-31,-30.)
  );
#205 = SEAM_CURVE('',#206,(#211,#218),.PCURVE_S1.);
#206 = CIRCLE('',#207,30.);
#207 = AXIS2_PLACEMENT_3D('',#208,#209,#210);
#208 = CARTESIAN_POINT('',(0.,0.,0.));
#209 = DIRECTION('',(-2.449293598295E-16,-1.,0.));
#210 = DIRECTION('',(1.,-2.449293598295E-16,0.));
#211 = PCURVE('',#33,#212);
#212 = DEFINITIONAL_REPRESENTATION('',(#213),#217);
#213 = LINE('',#214,#215);
#214 = CARTESIAN_POINT('',(6.28318530718,-6.28318530718));
#215 = VECTOR('',#216,1.);
#216 = DIRECTION('',(0.,1.));
#217 = ( GEOMETRIC_REPRESENTATION_CONTEXT(2) 
PARAMETRIC_REPRESENTATION_CONTEXT() REPRESENTATION_CONTEXT('2D SPACE',''
  ) );
#218 = PCURVE('',#33,#219);
#219 = DEFINITIONAL_REPRESENTATION('',(#220),#224);
#220 = LINE('',#221,#222);
#221 = CARTESIAN_POINT('',(0.,-6.28318530718));
#222 = VECTOR('',#223,1.);
#223 = DIRECTION('',(0.,1.));
#224 = ( GEOMETRIC_REPRESENTATION_CONTEXT(2) 
PARAMETRIC_REPRESENTATION_CONTEXT() REPRESENTATION_CONTEXT('2D SPACE',''
  ) );
#225 = ORIENTED_EDGE('',*,*,#202,.T.);
#226 = FACE_BOUND('',#227,.T.);
#227 = EDGE_LOOP('',(#228));
#228 = ORIENTED_EDGE('',*,*,#229,.T.);
#229 = EDGE_CURVE('',#230,#230,#232,.T.);
#230 = VERTEX_POINT('',#231);
#231 = CARTESIAN_POINT('',(15.,-25.98076211353,0.));
#232 = SURFACE_CURVE('',#233,(#238,#314),.PCURVE_S1.);
#233 = CIRCLE('',#234,15.);
#234 = AXIS2_PLACEMENT_3D('',#235,#236,#237);
#235 = CARTESIAN_POINT('',(0.,-25.98076211353,0.));
#236 = DIRECTION('',(-0.,1.,0.));
#237 = DIRECTION('',(0.,0.,1.));
#238 = PCURVE('',#33,#239);
#239 = DEFINITIONAL_REPRESENTATION('',(#240),#313);
#240 = B_SPLINE_CURVE_WITH_KNOTS('',8,(#241,#242,#243,#244,#245,#246,
    #247,#248,#249,#250,#251,#252,#253,#254,#255,#256,#257,#258,#259,
    #260,#261,#262,#263,#264,#265,#266,#267,#268,#269,#270,#271,#272,
    #273,#274,#275,#276,#277,#278,#279,#280,#281,#282,#283,#284,#285,
    #286,#287,#288,#289,#290,#291,#292,#293,#294,#295,#296,#297,#298,
    #299,#300,#301,#302,#303,#304,#305,#306,#307,#308,#309,#310,#311,
    #312),.UNSPECIFIED.,.F.,.F.,(9,7,7,7,7,7,7,7,7,7,9),(1.570796326795,
    2.356194490192,3.043417883165,3.644738352016,4.170893762261,
    5.091665730189,5.782244706136,6.300178938095,6.688629612065,
    7.27130562302,7.853981633974),.UNSPECIFIED.);
#241 = CARTESIAN_POINT('',(5.235987755983,3.061616997868E-17));
#242 = CARTESIAN_POINT('',(5.235987755983,-4.908738521234E-02));
#243 = CARTESIAN_POINT('',(5.231218013575,-9.81747698672E-02));
#244 = CARTESIAN_POINT('',(5.22167877539,-0.146721449818));
#245 = CARTESIAN_POINT('',(5.207319992107,-0.194186725345));
#246 = CARTESIAN_POINT('',(5.188046233066,-0.24000894649));
#247 = CARTESIAN_POINT('',(5.16373792718,-0.283585392231));
#248 = CARTESIAN_POINT('',(5.134339680348,-0.32426054854));
#249 = CARTESIAN_POINT('',(5.069925905395,-0.393835377352));
#250 = CARTESIAN_POINT('',(5.036071923701,-0.423571441436));
#251 = CARTESIAN_POINT('',(4.998512820581,-0.450128198432));
#252 = CARTESIAN_POINT('',(4.957450829996,-0.473051792994));
#253 = CARTESIAN_POINT('',(4.91324977982,-0.491901239273));
#254 = CARTESIAN_POINT('',(4.866529407337,-0.506291432715));
#255 = CARTESIAN_POINT('',(4.818118607337,-0.515967400025));
#256 = CARTESIAN_POINT('',(4.725869173645,-0.525067712966));
#257 = CARTESIAN_POINT('',(4.682215475967,-0.525622325928));
#258 = CARTESIAN_POINT('',(4.638562264587,-0.522412393646));
#259 = CARTESIAN_POINT('',(4.595557644978,-0.515451616836));
#260 = CARTESIAN_POINT('',(4.553832444657,-0.504851626854));
#261 = CARTESIAN_POINT('',(4.513903108815,-0.490808845348));
#262 = CARTESIAN_POINT('',(4.476158762369,-0.473570242282));
#263 = CARTESIAN_POINT('',(4.410001418312,-0.435772965071));
#264 = CARTESIAN_POINT('',(4.38101173194,-0.415898654463));
#265 = CARTESIAN_POINT('',(4.354090451947,-0.393973461845));
#266 = CARTESIAN_POINT('',(4.32935498446,-0.370199022537));
#267 = CARTESIAN_POINT('',(4.306864298145,-0.344781086289));
#268 = CARTESIAN_POINT('',(4.286637019909,-0.317921695573));
#269 = CARTESIAN_POINT('',(4.268669808781,-0.289815619378));
#270 = CARTESIAN_POINT('',(4.225432118759,-0.20961098573));
#271 = CARTESIAN_POINT('',(4.204790790316,-0.155327694611));
#272 = CARTESIAN_POINT('',(4.190940246122,-9.880493202773E-02));
#273 = CARTESIAN_POINT('',(4.183686445424,-4.097603791638E-02));
#274 = CARTESIAN_POINT('',(4.182919438073,1.730119949691E-02));
#275 = CARTESIAN_POINT('',(4.188648348045,7.518601745633E-02));
#276 = CARTESIAN_POINT('',(4.2010022747,0.131799682413));
#277 = CARTESIAN_POINT('',(4.234440181802,0.226997448572));
#278 = CARTESIAN_POINT('',(4.25256953202,0.266550590164));
#279 = CARTESIAN_POINT('',(4.274551749406,0.304459825734));
#280 = CARTESIAN_POINT('',(4.300441100309,0.340306508368));
#281 = CARTESIAN_POINT('',(4.330260962686,0.373647431137));
#282 = CARTESIAN_POINT('',(4.363960301246,0.404013515848));
#283 = CARTESIAN_POINT('',(4.401317069105,0.430937317474));
#284 = CARTESIAN_POINT('',(4.472356248868,0.471300477226));
#285 = CARTESIAN_POINT('',(4.504622453957,0.486428205667));
#286 = CARTESIAN_POINT('',(4.538532183458,0.499209245354));
#287 = CARTESIAN_POINT('',(4.573845342595,0.509483647184));
#288 = CARTESIAN_POINT('',(4.61025302738,0.51711811574));
#289 = CARTESIAN_POINT('',(4.64738178302,0.522020816459));
#290 = CARTESIAN_POINT('',(4.684829781218,0.524150553411));
#291 = CARTESIAN_POINT('',(4.750226737989,0.523039061187));
#292 = CARTESIAN_POINT('',(4.77820995038,0.521007465256));
#293 = CARTESIAN_POINT('',(4.805981438744,0.517424057155));
#294 = CARTESIAN_POINT('',(4.833374735907,0.512307864012));
#295 = CARTESIAN_POINT('',(4.860232901283,0.505693415988));
#296 = CARTESIAN_POINT('',(4.886415397433,0.497628763911));
#297 = CARTESIAN_POINT('',(4.911802134738,0.488172566806));
#298 = CARTESIAN_POINT('',(4.973030048445,0.461219168314));
#299 = CARTESIAN_POINT('',(5.007751770635,0.442065517995));
#300 = CARTESIAN_POINT('',(5.04012179824,0.420154294026));
#301 = CARTESIAN_POINT('',(5.06990676534,0.395748819002));
#302 = CARTESIAN_POINT('',(5.096980560451,0.369129674571));
#303 = CARTESIAN_POINT('',(5.121289938589,0.340574901977));
#304 = CARTESIAN_POINT('',(5.142825443154,0.310353908454));
#305 = CARTESIAN_POINT('',(5.180376439394,0.247096297445));
#306 = CARTESIAN_POINT('',(5.19639192991,0.21405967824));
#307 = CARTESIAN_POINT('',(5.209661245067,0.179873703734));
#308 = CARTESIAN_POINT('',(5.220221519173,0.1447858369));
#309 = CARTESIAN_POINT('',(5.22811208151,0.109030978849));
#310 = CARTESIAN_POINT('',(5.233362527659,7.28344976076E-02));
#311 = CARTESIAN_POINT('',(5.235987755983,3.641725068467E-02));
#312 = CARTESIAN_POINT('',(5.235987755983,1.530808498934E-16));
#313 = ( GEOMETRIC_REPRESENTATION_CONTEXT(2) 
PARAMETRIC_REPRESENTATION_CONTEXT() REPRESENTATION_CONTEXT('2D SPACE',''
  ) );
#314 = PCURVE('',#315,#320);
#315 = CYLINDRICAL_SURFACE('',#316,15.);
#316 = AXIS2_PLACEMENT_3D('',#317,#318,#319);
#317 = CARTESIAN_POINT('',(0.,0.,0.));
#318 = DIRECTION('',(-0.,1.,-0.));
#319 = DIRECTION('',(1.,0.,0.));
#320 = DEFINITIONAL_REPRESENTATION('',(#321),#325);
#321 = LINE('',#322,#323);
#322 = CARTESIAN_POINT('',(-7.853981633974,-25.98076211353));
#323 = VECTOR('',#324,1.);
#324 = DIRECTION('',(1.,-0.));
#325 = ( GEOMETRIC_REPRESENTATION_CONTEXT(2) 
PARAMETRIC_REPRESENTATION_CONTEXT() REPRESENTATION_CONTEXT('2D SPACE',''
  ) );
#326 = FACE_BOUND('',#327,.T.);
#327 = EDGE_LOOP('',(#328));
#328 = ORIENTED_EDGE('',*,*,#329,.T.);
#329 = EDGE_CURVE('',#330,#330,#332,.T.);
#330 = VERTEX_POINT('',#331);
#331 = CARTESIAN_POINT('',(15.,25.980762113533,0.));
#332 = SURFACE_CURVE('',#333,(#338,#414),.PCURVE_S1.);
#333 = CIRCLE('',#334,15.);
#334 = AXIS2_PLACEMENT_3D('',#335,#336,#337);
#335 = CARTESIAN_POINT('',(0.,25.980762113533,0.));
#336 = DIRECTION('',(0.,-1.,0.));
#337 = DIRECTION('',(0.,-0.,-1.));
#338 = PCURVE('',#33,#339);
#339 = DEFINITIONAL_REPRESENTATION('',(#340),#413);
#340 = B_SPLINE_CURVE_WITH_KNOTS('',8,(#341,#342,#343,#344,#345,#346,
    #347,#348,#349,#350,#351,#352,#353,#354,#355,#356,#357,#358,#359,
    #360,#361,#362,#363,#364,#365,#366,#367,#368,#369,#370,#371,#372,
    #373,#374,#375,#376,#377,#378,#379,#380,#381,#382,#383,#384,#385,
    #386,#387,#388,#389,#390,#391,#392,#393,#394,#395,#396,#397,#398,
    #399,#400,#401,#402,#403,#404,#405,#406,#407,#408,#409,#410,#411,
    #412),.UNSPECIFIED.,.F.,.F.,(9,7,7,7,7,7,7,7,7,7,9),(1.570796326795,
    2.356194490192,3.043417883165,3.644738352016,4.170893762261,
    5.091665730189,5.782244706136,6.300178938095,6.688629612065,
    7.27130562302,7.853981633974),.UNSPECIFIED.);
#341 = CARTESIAN_POINT('',(1.047197551197,-1.416384724412E-16));
#342 = CARTESIAN_POINT('',(1.047197551197,4.908738521234E-02));
#343 = CARTESIAN_POINT('',(1.051967293607,9.817476986748E-02));
#344 = CARTESIAN_POINT('',(1.061506531764,0.146721449818));
#345 = CARTESIAN_POINT('',(1.075865315101,0.194186725346));
#346 = CARTESIAN_POINT('',(1.095139074075,0.24000894649));
#347 = CARTESIAN_POINT('',(1.119447380002,0.283585392231));
#348 = CARTESIAN_POINT('',(1.148845626832,0.32426054854));
#349 = CARTESIAN_POINT('',(1.213259401784,0.393835377352));
#350 = CARTESIAN_POINT('',(1.24711338348,0.423571441436));
#351 = CARTESIAN_POINT('',(1.28467248658,0.450128198432));
#352 = CARTESIAN_POINT('',(1.325734477186,0.473051792994));
#353 = CARTESIAN_POINT('',(1.369935527327,0.491901239273));
#354 = CARTESIAN_POINT('',(1.416655899841,0.506291432715));
#355 = CARTESIAN_POINT('',(1.465066699843,0.515967400025));
#356 = CARTESIAN_POINT('',(1.557316133534,0.525067712966));
#357 = CARTESIAN_POINT('',(1.600969831217,0.525622325928));
#358 = CARTESIAN_POINT('',(1.644623042574,0.522412393646));
#359 = CARTESIAN_POINT('',(1.687627662205,0.515451616836));
#360 = CARTESIAN_POINT('',(1.729352862495,0.504851626854));
#361 = CARTESIAN_POINT('',(1.76928219837,0.490808845348));
#362 = CARTESIAN_POINT('',(1.80702654481,0.473570242282));
#363 = CARTESIAN_POINT('',(1.873183888868,0.435772965071));
#364 = CARTESIAN_POINT('',(1.902173575239,0.415898654463));
#365 = CARTESIAN_POINT('',(1.929094855233,0.393973461845));
#366 = CARTESIAN_POINT('',(1.95383032272,0.370199022537));
#367 = CARTESIAN_POINT('',(1.976321009034,0.344781086289));
#368 = CARTESIAN_POINT('',(1.996548287271,0.317921695573));
#369 = CARTESIAN_POINT('',(2.014515498398,0.289815619378));
#370 = CARTESIAN_POINT('',(2.057753188421,0.20961098573));
#371 = CARTESIAN_POINT('',(2.078394516865,0.155327694611));
#372 = CARTESIAN_POINT('',(2.092245061054,9.880493202773E-02));
#373 = CARTESIAN_POINT('',(2.099498861757,4.097603791638E-02));
#374 = CARTESIAN_POINT('',(2.100265869109,-1.730119949691E-02));
#375 = CARTESIAN_POINT('',(2.094536959135,-7.518601745633E-02));
#376 = CARTESIAN_POINT('',(2.08218303248,-0.131799682413));
#377 = CARTESIAN_POINT('',(2.048745125377,-0.226997448572));
#378 = CARTESIAN_POINT('',(2.030615775158,-0.266550590164));
#379 = CARTESIAN_POINT('',(2.008633557763,-0.304459825734));
#380 = CARTESIAN_POINT('',(1.982744206869,-0.340306508368));
#381 = CARTESIAN_POINT('',(1.952924344474,-0.373647431137));
#382 = CARTESIAN_POINT('',(1.919225005934,-0.404013515848));
#383 = CARTESIAN_POINT('',(1.881868238075,-0.430937317474));
#384 = CARTESIAN_POINT('',(1.810829058312,-0.471300477226));
#385 = CARTESIAN_POINT('',(1.778562853229,-0.486428205667));
#386 = CARTESIAN_POINT('',(1.744653123686,-0.499209245354));
#387 = CARTESIAN_POINT('',(1.709339964623,-0.509483647184));
#388 = CARTESIAN_POINT('',(1.672932279758,-0.51711811574));
#389 = CARTESIAN_POINT('',(1.635803524166,-0.522020816459));
#390 = CARTESIAN_POINT('',(1.598355525962,-0.524150553411));
#391 = CARTESIAN_POINT('',(1.532958569191,-0.523039061187));
#392 = CARTESIAN_POINT('',(1.5049753568,-0.521007465256));
#393 = CARTESIAN_POINT('',(1.477203868436,-0.517424057155));
#394 = CARTESIAN_POINT('',(1.449810571273,-0.512307864012));
#395 = CARTESIAN_POINT('',(1.422952405898,-0.505693415988));
#396 = CARTESIAN_POINT('',(1.396769909747,-0.497628763911));
#397 = CARTESIAN_POINT('',(1.371383172441,-0.488172566806));
#398 = CARTESIAN_POINT('',(1.310155258735,-0.461219168314));
#399 = CARTESIAN_POINT('',(1.275433536543,-0.442065517995));
#400 = CARTESIAN_POINT('',(1.243063508949,-0.420154294026));
#401 = CARTESIAN_POINT('',(1.213278541844,-0.395748819002));
#402 = CARTESIAN_POINT('',(1.186204746728,-0.369129674571));
#403 = CARTESIAN_POINT('',(1.161895368589,-0.340574901977));
#404 = CARTESIAN_POINT('',(1.140359864025,-0.310353908454));
#405 = CARTESIAN_POINT('',(1.102808867785,-0.247096297445));
#406 = CARTESIAN_POINT('',(1.086793377269,-0.21405967824));
#407 = CARTESIAN_POINT('',(1.073524062113,-0.179873703734));
#408 = CARTESIAN_POINT('',(1.062963788006,-0.1447858369));
#409 = CARTESIAN_POINT('',(1.055073225669,-0.109030978849));
#410 = CARTESIAN_POINT('',(1.049822779521,-7.28344976076E-02));
#411 = CARTESIAN_POINT('',(1.047197551197,-3.641725068467E-02));
#412 = CARTESIAN_POINT('',(1.047197551197,-1.530808498934E-16));
#413 = ( GEOMETRIC_REPRESENTATION_CONTEXT(2) 
PARAMETRIC_REPRESENTATION_CONTEXT() REPRESENTATION_CONTEXT('2D SPACE',''
  ) );
#414 = PCURVE('',#415,#420);
#415 = CYLINDRICAL_SURFACE('',#416,15.);
#416 = AXIS2_PLACEMENT_3D('',#417,#418,#419);
#417 = CARTESIAN_POINT('',(0.,0.,0.));
#418 = DIRECTION('',(0.,-1.,0.));
#419 = DIRECTION('',(1.,0.,0.));
#420 = DEFINITIONAL_REPRESENTATION('',(#421),#425);
#421 = LINE('',#422,#423);
#422 = CARTESIAN_POINT('',(-1.570796326795,-25.98076211353));
#423 = VECTOR('',#424,1.);
#424 = DIRECTION('',(1.,0.));
#425 = ( GEOMETRIC_REPRESENTATION_CONTEXT(2) 
PARAMETRIC_REPRESENTATION_CONTEXT() REPRESENTATION_CONTEXT('2D SPACE',''
  ) );
#426 = FACE_BOUND('',#427,.T.);
#427 = EDGE_LOOP('',(#428));
#428 = ORIENTED_EDGE('',*,*,#429,.T.);
#429 = EDGE_CURVE('',#430,#430,#432,.T.);
#430 = VERTEX_POINT('',#431);
#431 = CARTESIAN_POINT('',(-25.98076211353,15.,0.));
#432 = SURFACE_CURVE('',#433,(#438,#514),.PCURVE_S1.);
#433 = CIRCLE('',#434,15.);
#434 = AXIS2_PLACEMENT_3D('',#435,#436,#437);
#435 = CARTESIAN_POINT('',(-25.98076211353,0.,0.));
#436 = DIRECTION('',(1.,0.,0.));
#437 = DIRECTION('',(-0.,0.,1.));
#438 = PCURVE('',#33,#439);
#439 = DEFINITIONAL_REPRESENTATION('',(#440),#513);
#440 = B_SPLINE_CURVE_WITH_KNOTS('',8,(#441,#442,#443,#444,#445,#446,
    #447,#448,#449,#450,#451,#452,#453,#454,#455,#456,#457,#458,#459,
    #460,#461,#462,#463,#464,#465,#466,#467,#468,#469,#470,#471,#472,
    #473,#474,#475,#476,#477,#478,#479,#480,#481,#482,#483,#484,#485,
    #486,#487,#488,#489,#490,#491,#492,#493,#494,#495,#496,#497,#498,
    #499,#500,#501,#502,#503,#504,#505,#506,#507,#508,#509,#510,#511,
    #512),.UNSPECIFIED.,.F.,.F.,(9,7,7,7,7,7,7,7,7,7,9),(4.712388980385,
    5.497787143782,6.185010536755,6.786331005606,7.312486415851,
    8.233258383779,8.923837359725,9.441771591685,9.830222265655,
    10.41289827661,10.995574287564),.UNSPECIFIED.);
#441 = CARTESIAN_POINT('',(2.617993877991,-9.184850993605E-17));
#442 = CARTESIAN_POINT('',(2.617993877991,4.908738521234E-02));
#443 = CARTESIAN_POINT('',(2.6227636204,9.817476986765E-02));
#444 = CARTESIAN_POINT('',(2.632302858559,0.146721449817));
#445 = CARTESIAN_POINT('',(2.646661641889,0.194186725346));
#446 = CARTESIAN_POINT('',(2.665935400872,0.24000894649));
#447 = CARTESIAN_POINT('',(2.690243706796,0.283585392231));
#448 = CARTESIAN_POINT('',(2.719641953627,0.32426054854));
#449 = CARTESIAN_POINT('',(2.784055728579,0.393835377352));
#450 = CARTESIAN_POINT('',(2.817909710278,0.423571441435));
#451 = CARTESIAN_POINT('',(2.855468813363,0.450128198434));
#452 = CARTESIAN_POINT('',(2.896530803986,0.473051792992));
#453 = CARTESIAN_POINT('',(2.940731854109,0.491901239275));
#454 = CARTESIAN_POINT('',(2.987452226639,0.506291432715));
#455 = CARTESIAN_POINT('',(3.035863026638,0.515967400025));
#456 = CARTESIAN_POINT('',(3.128112460329,0.525067712966));
#457 = CARTESIAN_POINT('',(3.171766158012,0.525622325928));
#458 = CARTESIAN_POINT('',(3.215419369364,0.522412393649));
#459 = CARTESIAN_POINT('',(3.258423989011,0.515451616833));
#460 = CARTESIAN_POINT('',(3.300149189281,0.504851626856));
#461 = CARTESIAN_POINT('',(3.340078525167,0.490808845347));
#462 = CARTESIAN_POINT('',(3.377822871605,0.473570242282));
#463 = CARTESIAN_POINT('',(3.443980215663,0.435772965071));
#464 = CARTESIAN_POINT('',(3.472969902034,0.415898654463));
#465 = CARTESIAN_POINT('',(3.499891182029,0.393973461845));
#466 = CARTESIAN_POINT('',(3.524626649516,0.370199022537));
#467 = CARTESIAN_POINT('',(3.54711733583,0.344781086289));
#468 = CARTESIAN_POINT('',(3.567344614065,0.317921695573));
#469 = CARTESIAN_POINT('',(3.585311825193,0.289815619378));
#470 = CARTESIAN_POINT('',(3.628549515216,0.20961098573));
#471 = CARTESIAN_POINT('',(3.649190843655,0.155327694611));
#472 = CARTESIAN_POINT('',(3.663041387854,9.88049320278E-02));
#473 = CARTESIAN_POINT('',(3.670295188535,4.097603791649E-02));
#474 = CARTESIAN_POINT('',(3.67106219591,-1.730119949691E-02));
#475 = CARTESIAN_POINT('',(3.665333285928,-7.518601745634E-02));
#476 = CARTESIAN_POINT('',(3.652979359275,-0.131799682413));
#477 = CARTESIAN_POINT('',(3.619541452172,-0.226997448572));
#478 = CARTESIAN_POINT('',(3.601412101957,-0.266550590164));
#479 = CARTESIAN_POINT('',(3.579429884543,-0.304459825733));
#480 = CARTESIAN_POINT('',(3.553540533674,-0.340306508368));
#481 = CARTESIAN_POINT('',(3.523720671255,-0.373647431137));
#482 = CARTESIAN_POINT('',(3.490021332729,-0.404013515847));
#483 = CARTESIAN_POINT('',(3.45266456487,-0.430937317474));
#484 = CARTESIAN_POINT('',(3.381625385107,-0.471300477226));
#485 = CARTESIAN_POINT('',(3.349359180019,-0.486428205667));
#486 = CARTESIAN_POINT('',(3.315449450491,-0.499209245355));
#487 = CARTESIAN_POINT('',(3.280136291391,-0.509483647184));
#488 = CARTESIAN_POINT('',(3.243728606561,-0.51711811574));
#489 = CARTESIAN_POINT('',(3.206599850955,-0.52202081646));
#490 = CARTESIAN_POINT('',(3.169151852757,-0.524150553411));
#491 = CARTESIAN_POINT('',(3.103754895985,-0.523039061187));
#492 = CARTESIAN_POINT('',(3.075771683595,-0.521007465256));
#493 = CARTESIAN_POINT('',(3.048000195231,-0.517424057155));
#494 = CARTESIAN_POINT('',(3.020606898068,-0.512307864012));
#495 = CARTESIAN_POINT('',(2.993748732693,-0.505693415988));
#496 = CARTESIAN_POINT('',(2.967566236541,-0.497628763911));
#497 = CARTESIAN_POINT('',(2.942179499236,-0.488172566806));
#498 = CARTESIAN_POINT('',(2.88095158553,-0.461219168314));
#499 = CARTESIAN_POINT('',(2.846229863335,-0.442065517995));
#500 = CARTESIAN_POINT('',(2.813859835753,-0.420154294024));
#501 = CARTESIAN_POINT('',(2.784074868623,-0.395748819002));
#502 = CARTESIAN_POINT('',(2.757001073533,-0.369129674571));
#503 = CARTESIAN_POINT('',(2.73269169538,-0.340574901977));
#504 = CARTESIAN_POINT('',(2.71115619082,-0.310353908454));
#505 = CARTESIAN_POINT('',(2.67360519458,-0.247096297445));
#506 = CARTESIAN_POINT('',(2.657589704064,-0.21405967824));
#507 = CARTESIAN_POINT('',(2.644320388907,-0.179873703734));
#508 = CARTESIAN_POINT('',(2.6337601148,-0.1447858369));
#509 = CARTESIAN_POINT('',(2.625869552463,-0.109030978849));
#510 = CARTESIAN_POINT('',(2.620619106315,-7.283449760757E-02));
#511 = CARTESIAN_POINT('',(2.617993877991,-3.641725068467E-02));
#512 = CARTESIAN_POINT('',(2.617993877991,-2.143131898508E-16));
#513 = ( GEOMETRIC_REPRESENTATION_CONTEXT(2) 
PARAMETRIC_REPRESENTATION_CONTEXT() REPRESENTATION_CONTEXT('2D SPACE',''
  ) );
#514 = PCURVE('',#515,#520);
#515 = CYLINDRICAL_SURFACE('',#516,15.);
#516 = AXIS2_PLACEMENT_3D('',#517,#518,#519);
#517 = CARTESIAN_POINT('',(0.,0.,0.));
#518 = DIRECTION('',(1.,0.,0.));
#519 = DIRECTION('',(0.,1.,0.));
#520 = DEFINITIONAL_REPRESENTATION('',(#521),#525);
#521 = LINE('',#522,#523);
#522 = CARTESIAN_POINT('',(-4.712388980385,-25.98076211353));
#523 = VECTOR('',#524,1.);
#524 = DIRECTION('',(1.,0.));
#525 = ( GEOMETRIC_REPRESENTATION_CONTEXT(2) 
PARAMETRIC_REPRESENTATION_CONTEXT() REPRESENTATION_CONTEXT('2D SPACE',''
  ) );
#526 = ADVANCED_FACE('',(#527),#79,.T.);
#527 = FACE_BOUND('',#528,.F.);
#528 = EDGE_LOOP('',(#529,#530,#553,#580,#581,#582));
#529 = ORIENTED_EDGE('',*,*,#116,.T.);
#530 = ORIENTED_EDGE('',*,*,#531,.T.);
#531 = EDGE_CURVE('',#117,#532,#534,.T.);
#532 = VERTEX_POINT('',#533);
#533 = CARTESIAN_POINT('',(45.,15.,0.));
#534 = SEAM_CURVE('',#535,(#539,#546),.PCURVE_S1.);
#535 = LINE('',#536,#537);
#536 = CARTESIAN_POINT('',(0.,15.,0.));
#537 = VECTOR('',#538,1.);
#538 = DIRECTION('',(1.,0.,0.));
#539 = PCURVE('',#79,#540);
#540 = DEFINITIONAL_REPRESENTATION('',(#541),#545);
#541 = LINE('',#542,#543);
#542 = CARTESIAN_POINT('',(-6.28318530718,0.));
#543 = VECTOR('',#544,1.);
#544 = DIRECTION('',(-0.,-1.));
#545 = ( GEOMETRIC_REPRESENTATION_CONTEXT(2) 
PARAMETRIC_REPRESENTATION_CONTEXT() REPRESENTATION_CONTEXT('2D SPACE',''
  ) );
#546 = PCURVE('',#79,#547);
#547 = DEFINITIONAL_REPRESENTATION('',(#548),#552);
#548 = LINE('',#549,#550);
#549 = CARTESIAN_POINT('',(-0.,0.));
#550 = VECTOR('',#551,1.);
#551 = DIRECTION('',(-0.,-1.));
#552 = ( GEOMETRIC_REPRESENTATION_CONTEXT(2) 
PARAMETRIC_REPRESENTATION_CONTEXT() REPRESENTATION_CONTEXT('2D SPACE',''
  ) );
#553 = ORIENTED_EDGE('',*,*,#554,.T.);
#554 = EDGE_CURVE('',#532,#532,#555,.T.);
#555 = SURFACE_CURVE('',#556,(#561,#568),.PCURVE_S1.);
#556 = CIRCLE('',#557,15.);
#557 = AXIS2_PLACEMENT_3D('',#558,#559,#560);
#558 = CARTESIAN_POINT('',(45.,0.,0.));
#559 = DIRECTION('',(1.,0.,0.));
#560 = DIRECTION('',(0.,1.,0.));
#561 = PCURVE('',#79,#562);
#562 = DEFINITIONAL_REPRESENTATION('',(#563),#567);
#563 = LINE('',#564,#565);
#564 = CARTESIAN_POINT('',(-0.,-45.));
#565 = VECTOR('',#566,1.);
#566 = DIRECTION('',(-1.,0.));
#567 = ( GEOMETRIC_REPRESENTATION_CONTEXT(2) 
PARAMETRIC_REPRESENTATION_CONTEXT() REPRESENTATION_CONTEXT('2D SPACE',''
  ) );
#568 = PCURVE('',#569,#574);
#569 = PLANE('',#570);
#570 = AXIS2_PLACEMENT_3D('',#571,#572,#573);
#571 = CARTESIAN_POINT('',(45.,-7.29301404021E-16,1.169780044473E-16));
#572 = DIRECTION('',(1.,0.,0.));
#573 = DIRECTION('',(-0.,0.,1.));
#574 = DEFINITIONAL_REPRESENTATION('',(#575),#579);
#575 = CIRCLE('',#576,15.);
#576 = AXIS2_PLACEMENT_2D('',#577,#578);
#577 = CARTESIAN_POINT('',(-1.169780044473E-16,-7.29301404021E-16));
#578 = DIRECTION('',(0.,-1.));
#579 = ( GEOMETRIC_REPRESENTATION_CONTEXT(2) 
PARAMETRIC_REPRESENTATION_CONTEXT() REPRESENTATION_CONTEXT('2D SPACE',''
  ) );
#580 = ORIENTED_EDGE('',*,*,#531,.F.);
#581 = ORIENTED_EDGE('',*,*,#160,.T.);
#582 = ORIENTED_EDGE('',*,*,#21,.T.);
#583 = ADVANCED_FACE('',(#584),#315,.T.);
#584 = FACE_BOUND('',#585,.F.);
#585 = EDGE_LOOP('',(#586,#587,#610,#637));
#586 = ORIENTED_EDGE('',*,*,#229,.T.);
#587 = ORIENTED_EDGE('',*,*,#588,.T.);
#588 = EDGE_CURVE('',#230,#589,#591,.T.);
#589 = VERTEX_POINT('',#590);
#590 = CARTESIAN_POINT('',(15.,-45.,0.));
#591 = SEAM_CURVE('',#592,(#596,#603),.PCURVE_S1.);
#592 = LINE('',#593,#594);
#593 = CARTESIAN_POINT('',(15.,0.,0.));
#594 = VECTOR('',#595,1.);
#595 = DIRECTION('',(0.,-1.,0.));
#596 = PCURVE('',#315,#597);
#597 = DEFINITIONAL_REPRESENTATION('',(#598),#602);
#598 = LINE('',#599,#600);
#599 = CARTESIAN_POINT('',(-6.28318530718,0.));
#600 = VECTOR('',#601,1.);
#601 = DIRECTION('',(-0.,-1.));
#602 = ( GEOMETRIC_REPRESENTATION_CONTEXT(2) 
PARAMETRIC_REPRESENTATION_CONTEXT() REPRESENTATION_CONTEXT('2D SPACE',''
  ) );
#603 = PCURVE('',#315,#604);
#604 = DEFINITIONAL_REPRESENTATION('',(#605),#609);
#605 = LINE('',#606,#607);
#606 = CARTESIAN_POINT('',(-0.,0.));
#607 = VECTOR('',#608,1.);
#608 = DIRECTION('',(-0.,-1.));
#609 = ( GEOMETRIC_REPRESENTATION_CONTEXT(2) 
PARAMETRIC_REPRESENTATION_CONTEXT() REPRESENTATION_CONTEXT('2D SPACE',''
  ) );
#610 = ORIENTED_EDGE('',*,*,#611,.T.);
#611 = EDGE_CURVE('',#589,#589,#612,.T.);
#612 = SURFACE_CURVE('',#613,(#618,#625),.PCURVE_S1.);
#613 = CIRCLE('',#614,15.);
#614 = AXIS2_PLACEMENT_3D('',#615,#616,#617);
#615 = CARTESIAN_POINT('',(0.,-45.,0.));
#616 = DIRECTION('',(0.,-1.,0.));
#617 = DIRECTION('',(1.,0.,0.));
#618 = PCURVE('',#315,#619);
#619 = DEFINITIONAL_REPRESENTATION('',(#620),#624);
#620 = LINE('',#621,#622);
#621 = CARTESIAN_POINT('',(-0.,-45.));
#622 = VECTOR('',#623,1.);
#623 = DIRECTION('',(-1.,0.));
#624 = ( GEOMETRIC_REPRESENTATION_CONTEXT(2) 
PARAMETRIC_REPRESENTATION_CONTEXT() REPRESENTATION_CONTEXT('2D SPACE',''
  ) );
#625 = PCURVE('',#626,#631);
#626 = PLANE('',#627);
#627 = AXIS2_PLACEMENT_3D('',#628,#629,#630);
#628 = CARTESIAN_POINT('',(-7.29301404021E-16,-45.,1.169780044473E-16));
#629 = DIRECTION('',(-0.,-1.,-0.));
#630 = DIRECTION('',(0.,0.,-1.));
#631 = DEFINITIONAL_REPRESENTATION('',(#632),#636);
#632 = CIRCLE('',#633,15.);
#633 = AXIS2_PLACEMENT_2D('',#634,#635);
#634 = CARTESIAN_POINT('',(1.169780044473E-16,7.29301404021E-16));
#635 = DIRECTION('',(0.,1.));
#636 = ( GEOMETRIC_REPRESENTATION_CONTEXT(2) 
PARAMETRIC_REPRESENTATION_CONTEXT() REPRESENTATION_CONTEXT('2D SPACE',''
  ) );
#637 = ORIENTED_EDGE('',*,*,#588,.F.);
#638 = ADVANCED_FACE('',(#639),#415,.T.);
#639 = FACE_BOUND('',#640,.T.);
#640 = EDGE_LOOP('',(#641,#642,#665,#692));
#641 = ORIENTED_EDGE('',*,*,#329,.F.);
#642 = ORIENTED_EDGE('',*,*,#643,.T.);
#643 = EDGE_CURVE('',#330,#644,#646,.T.);
#644 = VERTEX_POINT('',#645);
#645 = CARTESIAN_POINT('',(15.,45.,0.));
#646 = SEAM_CURVE('',#647,(#651,#658),.PCURVE_S1.);
#647 = LINE('',#648,#649);
#648 = CARTESIAN_POINT('',(15.,0.,0.));
#649 = VECTOR('',#650,1.);
#650 = DIRECTION('',(-0.,1.,-0.));
#651 = PCURVE('',#415,#652);
#652 = DEFINITIONAL_REPRESENTATION('',(#653),#657);
#653 = LINE('',#654,#655);
#654 = CARTESIAN_POINT('',(6.28318530718,0.));
#655 = VECTOR('',#656,1.);
#656 = DIRECTION('',(0.,-1.));
#657 = ( GEOMETRIC_REPRESENTATION_CONTEXT(2) 
PARAMETRIC_REPRESENTATION_CONTEXT() REPRESENTATION_CONTEXT('2D SPACE',''
  ) );
#658 = PCURVE('',#415,#659);
#659 = DEFINITIONAL_REPRESENTATION('',(#660),#664);
#660 = LINE('',#661,#662);
#661 = CARTESIAN_POINT('',(0.,0.));
#662 = VECTOR('',#663,1.);
#663 = DIRECTION('',(0.,-1.));
#664 = ( GEOMETRIC_REPRESENTATION_CONTEXT(2) 
PARAMETRIC_REPRESENTATION_CONTEXT() REPRESENTATION_CONTEXT('2D SPACE',''
  ) );
#665 = ORIENTED_EDGE('',*,*,#666,.T.);
#666 = EDGE_CURVE('',#644,#644,#667,.T.);
#667 = SURFACE_CURVE('',#668,(#673,#680),.PCURVE_S1.);
#668 = CIRCLE('',#669,15.);
#669 = AXIS2_PLACEMENT_3D('',#670,#671,#672);
#670 = CARTESIAN_POINT('',(0.,45.,0.));
#671 = DIRECTION('',(0.,-1.,0.));
#672 = DIRECTION('',(1.,0.,0.));
#673 = PCURVE('',#415,#674);
#674 = DEFINITIONAL_REPRESENTATION('',(#675),#679);
#675 = LINE('',#676,#677);
#676 = CARTESIAN_POINT('',(0.,-45.));
#677 = VECTOR('',#678,1.);
#678 = DIRECTION('',(1.,0.));
#679 = ( GEOMETRIC_REPRESENTATION_CONTEXT(2) 
PARAMETRIC_REPRESENTATION_CONTEXT() REPRESENTATION_CONTEXT('2D SPACE',''
  ) );
#680 = PCURVE('',#681,#686);
#681 = PLANE('',#682);
#682 = AXIS2_PLACEMENT_3D('',#683,#684,#685);
#683 = CARTESIAN_POINT('',(-7.29301404021E-16,45.,1.169780044473E-16));
#684 = DIRECTION('',(-0.,-1.,-0.));
#685 = DIRECTION('',(0.,0.,-1.));
#686 = DEFINITIONAL_REPRESENTATION('',(#687),#691);
#687 = CIRCLE('',#688,15.);
#688 = AXIS2_PLACEMENT_2D('',#689,#690);
#689 = CARTESIAN_POINT('',(1.169780044473E-16,7.29301404021E-16));
#690 = DIRECTION('',(0.,1.));
#691 = ( GEOMETRIC_REPRESENTATION_CONTEXT(2) 
PARAMETRIC_REPRESENTATION_CONTEXT() REPRESENTATION_CONTEXT('2D SPACE',''
  ) );
#692 = ORIENTED_EDGE('',*,*,#643,.F.);
#693 = ADVANCED_FACE('',(#694),#515,.T.);
#694 = FACE_BOUND('',#695,.T.);
#695 = EDGE_LOOP('',(#696,#697,#720,#747));
#696 = ORIENTED_EDGE('',*,*,#429,.F.);
#697 = ORIENTED_EDGE('',*,*,#698,.T.);
#698 = EDGE_CURVE('',#430,#699,#701,.T.);
#699 = VERTEX_POINT('',#700);
#700 = CARTESIAN_POINT('',(-45.,15.,0.));
#701 = SEAM_CURVE('',#702,(#706,#713),.PCURVE_S1.);
#702 = LINE('',#703,#704);
#703 = CARTESIAN_POINT('',(0.,15.,0.));
#704 = VECTOR('',#705,1.);
#705 = DIRECTION('',(-1.,-0.,-0.));
#706 = PCURVE('',#515,#707);
#707 = DEFINITIONAL_REPRESENTATION('',(#708),#712);
#708 = LINE('',#709,#710);
#709 = CARTESIAN_POINT('',(6.28318530718,0.));
#710 = VECTOR('',#711,1.);
#711 = DIRECTION('',(0.,-1.));
#712 = ( GEOMETRIC_REPRESENTATION_CONTEXT(2) 
PARAMETRIC_REPRESENTATION_CONTEXT() REPRESENTATION_CONTEXT('2D SPACE',''
  ) );
#713 = PCURVE('',#515,#714);
#714 = DEFINITIONAL_REPRESENTATION('',(#715),#719);
#715 = LINE('',#716,#717);
#716 = CARTESIAN_POINT('',(0.,0.));
#717 = VECTOR('',#718,1.);
#718 = DIRECTION('',(0.,-1.));
#719 = ( GEOMETRIC_REPRESENTATION_CONTEXT(2) 
PARAMETRIC_REPRESENTATION_CONTEXT() REPRESENTATION_CONTEXT('2D SPACE',''
  ) );
#720 = ORIENTED_EDGE('',*,*,#721,.T.);
#721 = EDGE_CURVE('',#699,#699,#722,.T.);
#722 = SURFACE_CURVE('',#723,(#728,#735),.PCURVE_S1.);
#723 = CIRCLE('',#724,15.);
#724 = AXIS2_PLACEMENT_3D('',#725,#726,#727);
#725 = CARTESIAN_POINT('',(-45.,0.,0.));
#726 = DIRECTION('',(1.,0.,0.));
#727 = DIRECTION('',(0.,1.,0.));
#728 = PCURVE('',#515,#729);
#729 = DEFINITIONAL_REPRESENTATION('',(#730),#734);
#730 = LINE('',#731,#732);
#731 = CARTESIAN_POINT('',(0.,-45.));
#732 = VECTOR('',#733,1.);
#733 = DIRECTION('',(1.,0.));
#734 = ( GEOMETRIC_REPRESENTATION_CONTEXT(2) 
PARAMETRIC_REPRESENTATION_CONTEXT() REPRESENTATION_CONTEXT('2D SPACE',''
  ) );
#735 = PCURVE('',#736,#741);
#736 = PLANE('',#737);
#737 = AXIS2_PLACEMENT_3D('',#738,#739,#740);
#738 = CARTESIAN_POINT('',(-45.,-7.29301404021E-16,1.169780044473E-16));
#739 = DIRECTION('',(1.,0.,0.));
#740 = DIRECTION('',(-0.,0.,1.));
#741 = DEFINITIONAL_REPRESENTATION('',(#742),#746);
#742 = CIRCLE('',#743,15.);
#743 = AXIS2_PLACEMENT_2D('',#744,#745);
#744 = CARTESIAN_POINT('',(-1.169780044473E-16,-7.29301404021E-16));
#745 = DIRECTION('',(0.,-1.));
#746 = ( GEOMETRIC_REPRESENTATION_CONTEXT(2) 
PARAMETRIC_REPRESENTATION_CONTEXT() REPRESENTATION_CONTEXT('2D SPACE',''
  ) );
#747 = ORIENTED_EDGE('',*,*,#698,.F.);
#748 = ADVANCED_FACE('',(#749,#752),#569,.T.);
#749 = FACE_BOUND('',#750,.T.);
#750 = EDGE_LOOP('',(#751));
#751 = ORIENTED_EDGE('',*,*,#554,.T.);
#752 = FACE_BOUND('',#753,.T.);
#753 = EDGE_LOOP('',(#754));
#754 = ORIENTED_EDGE('',*,*,#755,.T.);
#755 = EDGE_CURVE('',#756,#756,#758,.T.);
#756 = VERTEX_POINT('',#757);
#757 = CARTESIAN_POINT('',(45.,10.,0.));
#758 = SURFACE_CURVE('',#759,(#764,#775),.PCURVE_S1.);
#759 = CIRCLE('',#760,10.);
#760 = AXIS2_PLACEMENT_3D('',#761,#762,#763);
#761 = CARTESIAN_POINT('',(45.,0.,0.));
#762 = DIRECTION('',(-1.,0.,0.));
#763 = DIRECTION('',(0.,1.,0.));
#764 = PCURVE('',#569,#765);
#765 = DEFINITIONAL_REPRESENTATION('',(#766),#774);
#766 = ( BOUNDED_CURVE() B_SPLINE_CURVE(2,(#767,#768,#769,#770,#771,#772
,#773),.UNSPECIFIED.,.T.,.F.) B_SPLINE_CURVE_WITH_KNOTS((1,2,2,2,2,1),(
    -2.094395102393,0.,2.094395102393,4.188790204786,6.28318530718,
8.377580409573),.UNSPECIFIED.) CURVE() GEOMETRIC_REPRESENTATION_ITEM() 
RATIONAL_B_SPLINE_CURVE((1.,0.5,1.,0.5,1.,0.5,1.)) REPRESENTATION_ITEM(
  '') );
#767 = CARTESIAN_POINT('',(-1.169780044473E-16,-10.));
#768 = CARTESIAN_POINT('',(-17.32050807568,-10.));
#769 = CARTESIAN_POINT('',(-8.660254037844,5.));
#770 = CARTESIAN_POINT('',(-2.566271602742E-15,20.));
#771 = CARTESIAN_POINT('',(8.660254037844,5.));
#772 = CARTESIAN_POINT('',(17.320508075689,-10.));
#773 = CARTESIAN_POINT('',(-1.169780044473E-16,-10.));
#774 = ( GEOMETRIC_REPRESENTATION_CONTEXT(2) 
PARAMETRIC_REPRESENTATION_CONTEXT() REPRESENTATION_CONTEXT('2D SPACE',''
  ) );
#775 = PCURVE('',#776,#781);
#776 = CYLINDRICAL_SURFACE('',#777,10.);
#777 = AXIS2_PLACEMENT_3D('',#778,#779,#780);
#778 = CARTESIAN_POINT('',(0.,0.,0.));
#779 = DIRECTION('',(-1.,-0.,-0.));
#780 = DIRECTION('',(0.,1.,0.));
#781 = DEFINITIONAL_REPRESENTATION('',(#782),#786);
#782 = LINE('',#783,#784);
#783 = CARTESIAN_POINT('',(-6.28318530718,-45.));
#784 = VECTOR('',#785,1.);
#785 = DIRECTION('',(1.,-0.));
#786 = ( GEOMETRIC_REPRESENTATION_CONTEXT(2) 
PARAMETRIC_REPRESENTATION_CONTEXT() REPRESENTATION_CONTEXT('2D SPACE',''
  ) );
#787 = ADVANCED_FACE('',(#788,#791),#626,.T.);
#788 = FACE_BOUND('',#789,.T.);
#789 = EDGE_LOOP('',(#790));
#790 = ORIENTED_EDGE('',*,*,#611,.T.);
#791 = FACE_BOUND('',#792,.T.);
#792 = EDGE_LOOP('',(#793));
#793 = ORIENTED_EDGE('',*,*,#794,.T.);
#794 = EDGE_CURVE('',#795,#795,#797,.T.);
#795 = VERTEX_POINT('',#796);
#796 = CARTESIAN_POINT('',(10.,-45.,0.));
#797 = SURFACE_CURVE('',#798,(#803,#814),.PCURVE_S1.);
#798 = CIRCLE('',#799,10.);
#799 = AXIS2_PLACEMENT_3D('',#800,#801,#802);
#800 = CARTESIAN_POINT('',(0.,-45.,0.));
#801 = DIRECTION('',(-0.,1.,0.));
#802 = DIRECTION('',(1.,0.,0.));
#803 = PCURVE('',#626,#804);
#804 = DEFINITIONAL_REPRESENTATION('',(#805),#813);
#805 = ( BOUNDED_CURVE() B_SPLINE_CURVE(2,(#806,#807,#808,#809,#810,#811
,#812),.UNSPECIFIED.,.T.,.F.) B_SPLINE_CURVE_WITH_KNOTS((1,2,2,2,2,1),(
    -2.094395102393,0.,2.094395102393,4.188790204786,6.28318530718,
8.377580409573),.UNSPECIFIED.) CURVE() GEOMETRIC_REPRESENTATION_ITEM() 
RATIONAL_B_SPLINE_CURVE((1.,0.5,1.,0.5,1.,0.5,1.)) REPRESENTATION_ITEM(
  '') );
#806 = CARTESIAN_POINT('',(1.169780044473E-16,10.));
#807 = CARTESIAN_POINT('',(17.320508075689,10.));
#808 = CARTESIAN_POINT('',(8.660254037844,-5.));
#809 = CARTESIAN_POINT('',(2.566271602742E-15,-20.));
#810 = CARTESIAN_POINT('',(-8.660254037844,-5.));
#811 = CARTESIAN_POINT('',(-17.32050807568,10.));
#812 = CARTESIAN_POINT('',(1.169780044473E-16,10.));
#813 = ( GEOMETRIC_REPRESENTATION_CONTEXT(2) 
PARAMETRIC_REPRESENTATION_CONTEXT() REPRESENTATION_CONTEXT('2D SPACE',''
  ) );
#814 = PCURVE('',#815,#820);
#815 = CYLINDRICAL_SURFACE('',#816,10.);
#816 = AXIS2_PLACEMENT_3D('',#817,#818,#819);
#817 = CARTESIAN_POINT('',(0.,0.,0.));
#818 = DIRECTION('',(-0.,1.,-0.));
#819 = DIRECTION('',(1.,0.,0.));
#820 = DEFINITIONAL_REPRESENTATION('',(#821),#825);
#821 = LINE('',#822,#823);
#822 = CARTESIAN_POINT('',(-6.28318530718,-45.));
#823 = VECTOR('',#824,1.);
#824 = DIRECTION('',(1.,-0.));
#825 = ( GEOMETRIC_REPRESENTATION_CONTEXT(2) 
PARAMETRIC_REPRESENTATION_CONTEXT() REPRESENTATION_CONTEXT('2D SPACE',''
  ) );
#826 = ADVANCED_FACE('',(#827,#830),#681,.F.);
#827 = FACE_BOUND('',#828,.F.);
#828 = EDGE_LOOP('',(#829));
#829 = ORIENTED_EDGE('',*,*,#666,.T.);
#830 = FACE_BOUND('',#831,.F.);
#831 = EDGE_LOOP('',(#832));
#832 = ORIENTED_EDGE('',*,*,#833,.F.);
#833 = EDGE_CURVE('',#834,#834,#836,.T.);
#834 = VERTEX_POINT('',#835);
#835 = CARTESIAN_POINT('',(10.,45.,0.));
#836 = SURFACE_CURVE('',#837,(#842,#849),.PCURVE_S1.);
#837 = CIRCLE('',#838,10.);
#838 = AXIS2_PLACEMENT_3D('',#839,#840,#841);
#839 = CARTESIAN_POINT('',(0.,45.,0.));
#840 = DIRECTION('',(0.,-1.,0.));
#841 = DIRECTION('',(1.,0.,0.));
#842 = PCURVE('',#681,#843);
#843 = DEFINITIONAL_REPRESENTATION('',(#844),#848);
#844 = CIRCLE('',#845,10.);
#845 = AXIS2_PLACEMENT_2D('',#846,#847);
#846 = CARTESIAN_POINT('',(1.169780044473E-16,7.29301404021E-16));
#847 = DIRECTION('',(0.,1.));
#848 = ( GEOMETRIC_REPRESENTATION_CONTEXT(2) 
PARAMETRIC_REPRESENTATION_CONTEXT() REPRESENTATION_CONTEXT('2D SPACE',''
  ) );
#849 = PCURVE('',#850,#855);
#850 = CYLINDRICAL_SURFACE('',#851,10.);
#851 = AXIS2_PLACEMENT_3D('',#852,#853,#854);
#852 = CARTESIAN_POINT('',(0.,0.,0.));
#853 = DIRECTION('',(0.,-1.,0.));
#854 = DIRECTION('',(1.,0.,0.));
#855 = DEFINITIONAL_REPRESENTATION('',(#856),#860);
#856 = LINE('',#857,#858);
#857 = CARTESIAN_POINT('',(0.,-45.));
#858 = VECTOR('',#859,1.);
#859 = DIRECTION('',(1.,0.));
#860 = ( GEOMETRIC_REPRESENTATION_CONTEXT(2) 
PARAMETRIC_REPRESENTATION_CONTEXT() REPRESENTATION_CONTEXT('2D SPACE',''
  ) );
#861 = ADVANCED_FACE('',(#862,#865),#736,.F.);
#862 = FACE_BOUND('',#863,.F.);
#863 = EDGE_LOOP('',(#864));
#864 = ORIENTED_EDGE('',*,*,#721,.T.);
#865 = FACE_BOUND('',#866,.F.);
#866 = EDGE_LOOP('',(#867));
#867 = ORIENTED_EDGE('',*,*,#868,.F.);
#868 = EDGE_CURVE('',#869,#869,#871,.T.);
#869 = VERTEX_POINT('',#870);
#870 = CARTESIAN_POINT('',(-45.,10.,0.));
#871 = SURFACE_CURVE('',#872,(#877,#884),.PCURVE_S1.);
#872 = CIRCLE('',#873,10.);
#873 = AXIS2_PLACEMENT_3D('',#874,#875,#876);
#874 = CARTESIAN_POINT('',(-45.,0.,0.));
#875 = DIRECTION('',(1.,0.,0.));
#876 = DIRECTION('',(-0.,1.,0.));
#877 = PCURVE('',#736,#878);
#878 = DEFINITIONAL_REPRESENTATION('',(#879),#883);
#879 = CIRCLE('',#880,10.);
#880 = AXIS2_PLACEMENT_2D('',#881,#882);
#881 = CARTESIAN_POINT('',(-1.169780044473E-16,-7.29301404021E-16));
#882 = DIRECTION('',(0.,-1.));
#883 = ( GEOMETRIC_REPRESENTATION_CONTEXT(2) 
PARAMETRIC_REPRESENTATION_CONTEXT() REPRESENTATION_CONTEXT('2D SPACE',''
  ) );
#884 = PCURVE('',#885,#890);
#885 = CYLINDRICAL_SURFACE('',#886,10.);
#886 = AXIS2_PLACEMENT_3D('',#887,#888,#889);
#887 = CARTESIAN_POINT('',(0.,0.,0.));
#888 = DIRECTION('',(1.,0.,0.));
#889 = DIRECTION('',(0.,1.,0.));
#890 = DEFINITIONAL_REPRESENTATION('',(#891),#895);
#891 = LINE('',#892,#893);
#892 = CARTESIAN_POINT('',(0.,-45.));
#893 = VECTOR('',#894,1.);
#894 = DIRECTION('',(1.,0.));
#895 = ( GEOMETRIC_REPRESENTATION_CONTEXT(2) 
PARAMETRIC_REPRESENTATION_CONTEXT() REPRESENTATION_CONTEXT('2D SPACE',''
  ) );
#896 = ADVANCED_FACE('',(#897),#776,.F.);
#897 = FACE_BOUND('',#898,.T.);
#898 = EDGE_LOOP('',(#899,#943,#964,#965,#966,#1003));
#899 = ORIENTED_EDGE('',*,*,#900,.T.);
#900 = EDGE_CURVE('',#901,#903,#905,.T.);
#901 = VERTEX_POINT('',#902);
#902 = CARTESIAN_POINT('',(22.912878474779,-5.612036656678E-15,10.));
#903 = VERTEX_POINT('',#904);
#904 = CARTESIAN_POINT('',(22.912878474779,10.,0.));
#905 = SURFACE_CURVE('',#906,(#911,#918),.PCURVE_S1.);
#906 = CIRCLE('',#907,10.);
#907 = AXIS2_PLACEMENT_3D('',#908,#909,#910);
#908 = CARTESIAN_POINT('',(22.912878474779,0.,0.));
#909 = DIRECTION('',(-1.,-0.,-0.));
#910 = DIRECTION('',(0.,0.,-1.));
#911 = PCURVE('',#776,#912);
#912 = DEFINITIONAL_REPRESENTATION('',(#913),#917);
#913 = LINE('',#914,#915);
#914 = CARTESIAN_POINT('',(-4.712388980385,-22.91287847477));
#915 = VECTOR('',#916,1.);
#916 = DIRECTION('',(1.,-0.));
#917 = ( GEOMETRIC_REPRESENTATION_CONTEXT(2) 
PARAMETRIC_REPRESENTATION_CONTEXT() REPRESENTATION_CONTEXT('2D SPACE',''
  ) );
#918 = PCURVE('',#919,#924);
#919 = SPHERICAL_SURFACE('',#920,25.);
#920 = AXIS2_PLACEMENT_3D('',#921,#922,#923);
#921 = CARTESIAN_POINT('',(0.,0.,0.));
#922 = DIRECTION('',(0.,0.,1.));
#923 = DIRECTION('',(1.,0.,0.));
#924 = DEFINITIONAL_REPRESENTATION('',(#925),#942);
#925 = B_SPLINE_CURVE_WITH_KNOTS('',8,(#926,#927,#928,#929,#930,#931,
    #932,#933,#934,#935,#936,#937,#938,#939,#940,#941),.UNSPECIFIED.,.F.
  ,.F.,(9,7,9),(3.14159265359,3.926990816987,4.712388980385),
  .UNSPECIFIED.);
#926 = CARTESIAN_POINT('',(0.,0.411516846067));
#927 = CARTESIAN_POINT('',(4.284698255295E-02,0.411516846067));
#928 = CARTESIAN_POINT('',(8.569394027043E-02,0.40670940492));
#929 = CARTESIAN_POINT('',(0.127672058251,0.397094715591));
#930 = CARTESIAN_POINT('',(0.167911586997,0.382827260896));
#931 = CARTESIAN_POINT('',(0.205655035228,0.364220199445));
#932 = CARTESIAN_POINT('',(0.24036484262,0.341691142284));
#933 = CARTESIAN_POINT('',(0.27167119032,0.315706712604));
#934 = CARTESIAN_POINT('',(0.326996862516,0.257806391819));
#935 = CARTESIAN_POINT('',(0.35101616054,0.225890486866));
#936 = CARTESIAN_POINT('',(0.371151443084,0.191498292149));
#937 = CARTESIAN_POINT('',(0.387290608159,0.155141703256));
#938 = CARTESIAN_POINT('',(0.399402203844,0.117325266144));
#939 = CARTESIAN_POINT('',(0.407478603588,7.853981370945E-02));
#940 = CARTESIAN_POINT('',(0.411516846067,3.926990816987E-02));
#941 = CARTESIAN_POINT('',(0.411516846067,7.347880794884E-17));
#942 = ( GEOMETRIC_REPRESENTATION_CONTEXT(2) 
PARAMETRIC_REPRESENTATION_CONTEXT() REPRESENTATION_CONTEXT('2D SPACE',''
  ) );
#943 = ORIENTED_EDGE('',*,*,#944,.T.);
#944 = EDGE_CURVE('',#903,#756,#945,.T.);
#945 = SEAM_CURVE('',#946,(#950,#957),.PCURVE_S1.);
#946 = LINE('',#947,#948);
#947 = CARTESIAN_POINT('',(0.,10.,0.));
#948 = VECTOR('',#949,1.);
#949 = DIRECTION('',(1.,0.,0.));
#950 = PCURVE('',#776,#951);
#951 = DEFINITIONAL_REPRESENTATION('',(#952),#956);
#952 = LINE('',#953,#954);
#953 = CARTESIAN_POINT('',(-6.28318530718,0.));
#954 = VECTOR('',#955,1.);
#955 = DIRECTION('',(-0.,-1.));
#956 = ( GEOMETRIC_REPRESENTATION_CONTEXT(2) 
PARAMETRIC_REPRESENTATION_CONTEXT() REPRESENTATION_CONTEXT('2D SPACE',''
  ) );
#957 = PCURVE('',#776,#958);
#958 = DEFINITIONAL_REPRESENTATION('',(#959),#963);
#959 = LINE('',#960,#961);
#960 = CARTESIAN_POINT('',(-0.,0.));
#961 = VECTOR('',#962,1.);
#962 = DIRECTION('',(-0.,-1.));
#963 = ( GEOMETRIC_REPRESENTATION_CONTEXT(2) 
PARAMETRIC_REPRESENTATION_CONTEXT() REPRESENTATION_CONTEXT('2D SPACE',''
  ) );
#964 = ORIENTED_EDGE('',*,*,#755,.F.);
#965 = ORIENTED_EDGE('',*,*,#944,.F.);
#966 = ORIENTED_EDGE('',*,*,#967,.T.);
#967 = EDGE_CURVE('',#903,#968,#970,.T.);
#968 = VERTEX_POINT('',#969);
#969 = CARTESIAN_POINT('',(22.912878474779,-5.612036656678E-15,-10.));
#970 = SURFACE_CURVE('',#971,(#976,#983),.PCURVE_S1.);
#971 = CIRCLE('',#972,10.);
#972 = AXIS2_PLACEMENT_3D('',#973,#974,#975);
#973 = CARTESIAN_POINT('',(22.912878474779,0.,0.));
#974 = DIRECTION('',(-1.,-0.,-0.));
#975 = DIRECTION('',(0.,0.,-1.));
#976 = PCURVE('',#776,#977);
#977 = DEFINITIONAL_REPRESENTATION('',(#978),#982);
#978 = LINE('',#979,#980);
#979 = CARTESIAN_POINT('',(-10.99557428756,-22.91287847477));
#980 = VECTOR('',#981,1.);
#981 = DIRECTION('',(1.,-0.));
#982 = ( GEOMETRIC_REPRESENTATION_CONTEXT(2) 
PARAMETRIC_REPRESENTATION_CONTEXT() REPRESENTATION_CONTEXT('2D SPACE',''
  ) );
#983 = PCURVE('',#919,#984);
#984 = DEFINITIONAL_REPRESENTATION('',(#985),#1002);
#985 = B_SPLINE_CURVE_WITH_KNOTS('',8,(#986,#987,#988,#989,#990,#991,
    #992,#993,#994,#995,#996,#997,#998,#999,#1000,#1001),.UNSPECIFIED.,
  .F.,.F.,(9,7,9),(4.712388980385,5.497787143782,6.28318530718),
  .UNSPECIFIED.);
#986 = CARTESIAN_POINT('',(0.411516846067,7.347880794884E-17));
#987 = CARTESIAN_POINT('',(0.411516846067,-3.926990816987E-02));
#988 = CARTESIAN_POINT('',(0.407478603588,-7.853981370951E-02));
#989 = CARTESIAN_POINT('',(0.399402203845,-0.117325266144));
#990 = CARTESIAN_POINT('',(0.387290608159,-0.155141703257));
#991 = CARTESIAN_POINT('',(0.371151443085,-0.191498292149));
#992 = CARTESIAN_POINT('',(0.35101616054,-0.225890486866));
#993 = CARTESIAN_POINT('',(0.326996862516,-0.257806391819));
#994 = CARTESIAN_POINT('',(0.27167119032,-0.315706712604));
#995 = CARTESIAN_POINT('',(0.24036484262,-0.341691142283));
#996 = CARTESIAN_POINT('',(0.205655035226,-0.364220199446));
#997 = CARTESIAN_POINT('',(0.167911587,-0.382827260896));
#998 = CARTESIAN_POINT('',(0.127672058249,-0.397094715592));
#999 = CARTESIAN_POINT('',(8.569394027106E-02,-0.406709404919));
#1000 = CARTESIAN_POINT('',(4.284698255295E-02,-0.411516846067));
#1001 = CARTESIAN_POINT('',(1.068959363177E-16,-0.411516846067));
#1002 = ( GEOMETRIC_REPRESENTATION_CONTEXT(2) 
PARAMETRIC_REPRESENTATION_CONTEXT() REPRESENTATION_CONTEXT('2D SPACE',''
  ) );
#1003 = ORIENTED_EDGE('',*,*,#1004,.T.);
#1004 = EDGE_CURVE('',#968,#901,#1005,.T.);
#1005 = SURFACE_CURVE('',#1006,(#1011,#1018),.PCURVE_S1.);
#1006 = CIRCLE('',#1007,10.);
#1007 = AXIS2_PLACEMENT_3D('',#1008,#1009,#1010);
#1008 = CARTESIAN_POINT('',(22.912878474779,0.,0.));
#1009 = DIRECTION('',(-1.,-0.,-0.));
#1010 = DIRECTION('',(0.,0.,-1.));
#1011 = PCURVE('',#776,#1012);
#1012 = DEFINITIONAL_REPRESENTATION('',(#1013),#1017);
#1013 = LINE('',#1014,#1015);
#1014 = CARTESIAN_POINT('',(-4.712388980385,-22.91287847477));
#1015 = VECTOR('',#1016,1.);
#1016 = DIRECTION('',(1.,-0.));
#1017 = ( GEOMETRIC_REPRESENTATION_CONTEXT(2) 
PARAMETRIC_REPRESENTATION_CONTEXT() REPRESENTATION_CONTEXT('2D SPACE',''
  ) );
#1018 = PCURVE('',#919,#1019);
#1019 = DEFINITIONAL_REPRESENTATION('',(#1020),#1058);
#1020 = B_SPLINE_CURVE_WITH_KNOTS('',8,(#1021,#1022,#1023,#1024,#1025,
    #1026,#1027,#1028,#1029,#1030,#1031,#1032,#1033,#1034,#1035,#1036,
    #1037,#1038,#1039,#1040,#1041,#1042,#1043,#1044,#1045,#1046,#1047,
    #1048,#1049,#1050,#1051,#1052,#1053,#1054,#1055,#1056,#1057),
  .UNSPECIFIED.,.F.,.F.,(9,7,7,7,7,9),(0.,0.785398163397,1.374446785946,
    2.258019719768,2.699806186679,3.14159265359),.UNSPECIFIED.);
#1021 = CARTESIAN_POINT('',(6.28318530718,-0.411516846067));
#1022 = CARTESIAN_POINT('',(6.240338324627,-0.411516846067));
#1023 = CARTESIAN_POINT('',(6.197491366909,-0.406709404919));
#1024 = CARTESIAN_POINT('',(6.155513248929,-0.397094715594));
#1025 = CARTESIAN_POINT('',(6.115273720181,-0.382827260895));
#1026 = CARTESIAN_POINT('',(6.077530271953,-0.364220199446));
#1027 = CARTESIAN_POINT('',(6.04282046456,-0.341691142283));
#1028 = CARTESIAN_POINT('',(6.01151411686,-0.315706712604));
#1029 = CARTESIAN_POINT('',(5.963104153689,-0.265043931917));
#1030 = CARTESIAN_POINT('',(5.9444065107,-0.241663080475));
#1031 = CARTESIAN_POINT('',(5.927859846191,-0.216820485057));
#1032 = CARTESIAN_POINT('',(5.913524858854,-0.190729741506));
#1033 = CARTESIAN_POINT('',(5.901433326919,-0.163604453745));
#1034 = CARTESIAN_POINT('',(5.891600177273,-0.135655396726));
#1035 = CARTESIAN_POINT('',(5.884032754934,-0.107090417458));
#1036 = CARTESIAN_POINT('',(5.870786615944,-3.465324529108E-02));
#1037 = CARTESIAN_POINT('',(5.867944149153,9.73131167234E-03));
#1038 = CARTESIAN_POINT('',(5.870217897183,5.434280161967E-02));
#1039 = CARTESIAN_POINT('',(5.877600184446,9.84952213563E-02));
#1040 = CARTESIAN_POINT('',(5.89009341194,0.141504098726));
#1041 = CARTESIAN_POINT('',(5.90770114409,0.182666718261));
#1042 = CARTESIAN_POINT('',(5.930351960562,0.221256546605));
#1043 = CARTESIAN_POINT('',(5.971534044532,0.274215848358));
#1044 = CARTESIAN_POINT('',(5.986462420545,0.291048034027));
#1045 = CARTESIAN_POINT('',(6.002561782704,0.30697047947));
#1046 = CARTESIAN_POINT('',(6.019792120523,0.321895243507));
#1047 = CARTESIAN_POINT('',(6.03809985353,0.335736612916));
#1048 = CARTESIAN_POINT('',(6.05741545333,0.348412946029));
#1049 = CARTESIAN_POINT('',(6.077652275779,0.359849016089));
#1050 = CARTESIAN_POINT('',(6.119760930738,0.380108692682));
#1051 = CARTESIAN_POINT('',(6.141632768555,0.388932270489));
#1052 = CARTESIAN_POINT('',(6.16421868068,0.396383665568));
#1053 = CARTESIAN_POINT('',(6.187398285093,0.402405802172));
#1054 = CARTESIAN_POINT('',(6.211035615153,0.406953522838));
#1055 = CARTESIAN_POINT('',(6.234982487928,0.409995765519));
#1056 = CARTESIAN_POINT('',(6.259083879494,0.411516846067));
#1057 = CARTESIAN_POINT('',(6.28318530718,0.411516846067));
#1058 = ( GEOMETRIC_REPRESENTATION_CONTEXT(2) 
PARAMETRIC_REPRESENTATION_CONTEXT() REPRESENTATION_CONTEXT('2D SPACE',''
  ) );
#1059 = ADVANCED_FACE('',(#1060),#815,.F.);
#1060 = FACE_BOUND('',#1061,.T.);
#1061 = EDGE_LOOP('',(#1062,#1148,#1169,#1170));
#1062 = ORIENTED_EDGE('',*,*,#1063,.T.);
#1063 = EDGE_CURVE('',#1064,#1064,#1066,.T.);
#1064 = VERTEX_POINT('',#1065);
#1065 = CARTESIAN_POINT('',(10.,-22.91287847477,0.));
#1066 = SURFACE_CURVE('',#1067,(#1072,#1079),.PCURVE_S1.);
#1067 = CIRCLE('',#1068,10.);
#1068 = AXIS2_PLACEMENT_3D('',#1069,#1070,#1071);
#1069 = CARTESIAN_POINT('',(0.,-22.91287847477,0.));
#1070 = DIRECTION('',(-0.,1.,0.));
#1071 = DIRECTION('',(0.,0.,1.));
#1072 = PCURVE('',#815,#1073);
#1073 = DEFINITIONAL_REPRESENTATION('',(#1074),#1078);
#1074 = LINE('',#1075,#1076);
#1075 = CARTESIAN_POINT('',(-7.853981633974,-22.91287847477));
#1076 = VECTOR('',#1077,1.);
#1077 = DIRECTION('',(1.,-0.));
#1078 = ( GEOMETRIC_REPRESENTATION_CONTEXT(2) 
PARAMETRIC_REPRESENTATION_CONTEXT() REPRESENTATION_CONTEXT('2D SPACE',''
  ) );
#1079 = PCURVE('',#919,#1080);
#1080 = DEFINITIONAL_REPRESENTATION('',(#1081),#1147);
#1081 = B_SPLINE_CURVE_WITH_KNOTS('',8,(#1082,#1083,#1084,#1085,#1086,
    #1087,#1088,#1089,#1090,#1091,#1092,#1093,#1094,#1095,#1096,#1097,
    #1098,#1099,#1100,#1101,#1102,#1103,#1104,#1105,#1106,#1107,#1108,
    #1109,#1110,#1111,#1112,#1113,#1114,#1115,#1116,#1117,#1118,#1119,
    #1120,#1121,#1122,#1123,#1124,#1125,#1126,#1127,#1128,#1129,#1130,
    #1131,#1132,#1133,#1134,#1135,#1136,#1137,#1138,#1139,#1140,#1141,
    #1142,#1143,#1144,#1145,#1146),.UNSPECIFIED.,.F.,.F.,(9,7,7,7,7,7,7,
    7,7,9),(1.570796326795,2.356194490192,3.043417883165,3.644738352016,
    4.170893762261,5.09166573019,5.782244706136,6.300178938096,
    7.077080286035,7.853981633974),.UNSPECIFIED.);
#1082 = CARTESIAN_POINT('',(5.123905826452,2.449293598295E-17));
#1083 = CARTESIAN_POINT('',(5.123905826452,-3.926990816987E-02));
#1084 = CARTESIAN_POINT('',(5.119867583974,-7.853981370948E-02));
#1085 = CARTESIAN_POINT('',(5.111791184205,-0.117325266144));
#1086 = CARTESIAN_POINT('',(5.099679588548,-0.155141703257));
#1087 = CARTESIAN_POINT('',(5.083540423457,-0.191498292149));
#1088 = CARTESIAN_POINT('',(5.063405140927,-0.225890486866));
#1089 = CARTESIAN_POINT('',(5.0393858429,-0.257806391819));
#1090 = CARTESIAN_POINT('',(4.987518025217,-0.312087942555));
#1091 = CARTESIAN_POINT('',(4.960523465715,-0.335148686127));
#1092 = CARTESIAN_POINT('',(4.930900248217,-0.355610827173));
#1093 = CARTESIAN_POINT('',(4.898884930266,-0.373159632446));
#1094 = CARTESIAN_POINT('',(4.864810509909,-0.387507752396));
#1095 = CARTESIAN_POINT('',(4.829130214825,-0.398420491394));
#1096 = CARTESIAN_POINT('',(4.79238352897,-0.405744836232));
#1097 = CARTESIAN_POINT('',(4.722553978072,-0.412628736741));
#1098 = CARTESIAN_POINT('',(4.689587356858,-0.413044436997));
#1099 = CARTESIAN_POINT('',(4.656623295957,-0.410620257182));
#1100 = CARTESIAN_POINT('',(4.624063541232,-0.405364680076));
#1101 = CARTESIAN_POINT('',(4.592299183428,-0.397343271857));
#1102 = CARTESIAN_POINT('',(4.561679720712,-0.386672391209));
#1103 = CARTESIAN_POINT('',(4.532493717793,-0.373506950839));
#1104 = CARTESIAN_POINT('',(4.480892845301,-0.344484071569));
#1105 = CARTESIAN_POINT('',(4.45808757273,-0.329168854998));
#1106 = CARTESIAN_POINT('',(4.436712694509,-0.31220379573));
#1107 = CARTESIAN_POINT('',(4.416889465819,-0.293725882488));
#1108 = CARTESIAN_POINT('',(4.398705452008,-0.273881385074));
#1109 = CARTESIAN_POINT('',(4.382220668049,-0.252820789302));
#1110 = CARTESIAN_POINT('',(4.367475496245,-0.230695441553));
#1111 = CARTESIAN_POINT('',(4.331782804811,-0.167337894591));
#1112 = CARTESIAN_POINT('',(4.314477647922,-0.124221045369));
#1113 = CARTESIAN_POINT('',(4.302722890245,-7.911493857877E-02));
#1114 = CARTESIAN_POINT('',(4.296528846509,-3.282430361136E-02));
#1115 = CARTESIAN_POINT('',(4.295879798023,1.387412625866E-02));
#1116 = CARTESIAN_POINT('',(4.300781250289,6.021190040239E-02));
#1117 = CARTESIAN_POINT('',(4.311246396363,0.10540266135));
#1118 = CARTESIAN_POINT('',(4.339199172279,0.181079010727));
#1119 = CARTESIAN_POINT('',(4.35427707868,0.212416491149));
#1120 = CARTESIAN_POINT('',(4.372429979759,0.242321018784));
#1121 = CARTESIAN_POINT('',(4.393611855602,0.270451093483));
#1122 = CARTESIAN_POINT('',(4.417739966487,0.29646084353));
#1123 = CARTESIAN_POINT('',(4.444661967045,0.320008389845));
#1124 = CARTESIAN_POINT('',(4.474126681884,0.340773054454));
#1125 = CARTESIAN_POINT('',(4.52952215775,0.371762501295));
#1126 = CARTESIAN_POINT('',(4.55449490255,0.38332444428));
#1127 = CARTESIAN_POINT('',(4.580550608174,0.393051675119));
#1128 = CARTESIAN_POINT('',(4.607508991952,0.400843343305));
#1129 = CARTESIAN_POINT('',(4.635156986905,0.406618885248));
#1130 = CARTESIAN_POINT('',(4.663256088886,0.410323909297));
#1131 = CARTESIAN_POINT('',(4.691555120749,0.41193396014));
#1132 = CARTESIAN_POINT('',(4.762180108956,0.410733636605));
#1133 = CARTESIAN_POINT('',(4.804444708289,0.405310526456));
#1134 = CARTESIAN_POINT('',(4.845758509462,0.395200930808));
#1135 = CARTESIAN_POINT('',(4.885289224516,0.380568965684));
#1136 = CARTESIAN_POINT('',(4.922320304813,0.361727717367));
#1137 = CARTESIAN_POINT('',(4.95634495733,0.339086384223));
#1138 = CARTESIAN_POINT('',(4.987015159763,0.313099230748));
#1139 = CARTESIAN_POINT('',(5.041195257468,0.255383356615));
#1140 = CARTESIAN_POINT('',(5.064705126718,0.223654624165));
#1141 = CARTESIAN_POINT('',(5.084408709557,0.189529972053));
#1142 = CARTESIAN_POINT('',(5.100200877543,0.153504561892));
#1143 = CARTESIAN_POINT('',(5.112051886172,0.116066296343));
#1144 = CARTESIAN_POINT('',(5.119954487338,7.769013247943E-02));
#1145 = CARTESIAN_POINT('',(5.123905826452,3.884506739698E-02));
#1146 = CARTESIAN_POINT('',(5.123905826452,1.224646799147E-16));
#1147 = ( GEOMETRIC_REPRESENTATION_CONTEXT(2) 
PARAMETRIC_REPRESENTATION_CONTEXT() REPRESENTATION_CONTEXT('2D SPACE',''
  ) );
#1148 = ORIENTED_EDGE('',*,*,#1149,.T.);
#1149 = EDGE_CURVE('',#1064,#795,#1150,.T.);
#1150 = SEAM_CURVE('',#1151,(#1155,#1162),.PCURVE_S1.);
#1151 = LINE('',#1152,#1153);
#1152 = CARTESIAN_POINT('',(10.,0.,0.));
#1153 = VECTOR('',#1154,1.);
#1154 = DIRECTION('',(0.,-1.,0.));
#1155 = PCURVE('',#815,#1156);
#1156 = DEFINITIONAL_REPRESENTATION('',(#1157),#1161);
#1157 = LINE('',#1158,#1159);
#1158 = CARTESIAN_POINT('',(-6.28318530718,0.));
#1159 = VECTOR('',#1160,1.);
#1160 = DIRECTION('',(-0.,-1.));
#1161 = ( GEOMETRIC_REPRESENTATION_CONTEXT(2) 
PARAMETRIC_REPRESENTATION_CONTEXT() REPRESENTATION_CONTEXT('2D SPACE',''
  ) );
#1162 = PCURVE('',#815,#1163);
#1163 = DEFINITIONAL_REPRESENTATION('',(#1164),#1168);
#1164 = LINE('',#1165,#1166);
#1165 = CARTESIAN_POINT('',(-0.,0.));
#1166 = VECTOR('',#1167,1.);
#1167 = DIRECTION('',(-0.,-1.));
#1168 = ( GEOMETRIC_REPRESENTATION_CONTEXT(2) 
PARAMETRIC_REPRESENTATION_CONTEXT() REPRESENTATION_CONTEXT('2D SPACE',''
  ) );
#1169 = ORIENTED_EDGE('',*,*,#794,.F.);
#1170 = ORIENTED_EDGE('',*,*,#1149,.F.);
#1171 = ADVANCED_FACE('',(#1172),#850,.F.);
#1172 = FACE_BOUND('',#1173,.F.);
#1173 = EDGE_LOOP('',(#1174,#1260,#1281,#1282));
#1174 = ORIENTED_EDGE('',*,*,#1175,.F.);
#1175 = EDGE_CURVE('',#1176,#1176,#1178,.T.);
#1176 = VERTEX_POINT('',#1177);
#1177 = CARTESIAN_POINT('',(10.,22.912878474779,0.));
#1178 = SURFACE_CURVE('',#1179,(#1184,#1191),.PCURVE_S1.);
#1179 = CIRCLE('',#1180,10.);
#1180 = AXIS2_PLACEMENT_3D('',#1181,#1182,#1183);
#1181 = CARTESIAN_POINT('',(0.,22.912878474779,0.));
#1182 = DIRECTION('',(0.,-1.,0.));
#1183 = DIRECTION('',(0.,-0.,-1.));
#1184 = PCURVE('',#850,#1185);
#1185 = DEFINITIONAL_REPRESENTATION('',(#1186),#1190);
#1186 = LINE('',#1187,#1188);
#1187 = CARTESIAN_POINT('',(-1.570796326795,-22.91287847477));
#1188 = VECTOR('',#1189,1.);
#1189 = DIRECTION('',(1.,0.));
#1190 = ( GEOMETRIC_REPRESENTATION_CONTEXT(2) 
PARAMETRIC_REPRESENTATION_CONTEXT() REPRESENTATION_CONTEXT('2D SPACE',''
  ) );
#1191 = PCURVE('',#919,#1192);
#1192 = DEFINITIONAL_REPRESENTATION('',(#1193),#1259);
#1193 = B_SPLINE_CURVE_WITH_KNOTS('',8,(#1194,#1195,#1196,#1197,#1198,
    #1199,#1200,#1201,#1202,#1203,#1204,#1205,#1206,#1207,#1208,#1209,
    #1210,#1211,#1212,#1213,#1214,#1215,#1216,#1217,#1218,#1219,#1220,
    #1221,#1222,#1223,#1224,#1225,#1226,#1227,#1228,#1229,#1230,#1231,
    #1232,#1233,#1234,#1235,#1236,#1237,#1238,#1239,#1240,#1241,#1242,
    #1243,#1244,#1245,#1246,#1247,#1248,#1249,#1250,#1251,#1252,#1253,
    #1254,#1255,#1256,#1257,#1258),.UNSPECIFIED.,.F.,.F.,(9,7,7,7,7,7,7,
    7,7,9),(1.570796326795,2.356194490192,3.043417883165,3.644738352016,
    4.170893762261,5.091665730189,5.782244706136,6.300178938095,
    7.077080286035,7.853981633974),.UNSPECIFIED.);
#1194 = CARTESIAN_POINT('',(1.159279480727,-1.13310777953E-16));
#1195 = CARTESIAN_POINT('',(1.159279480727,3.926990816987E-02));
#1196 = CARTESIAN_POINT('',(1.163317723208,7.853981370963E-02));
#1197 = CARTESIAN_POINT('',(1.171394122945,0.117325266143));
#1198 = CARTESIAN_POINT('',(1.183505718638,0.155141703257));
#1199 = CARTESIAN_POINT('',(1.199644883704,0.191498292149));
#1200 = CARTESIAN_POINT('',(1.219780166255,0.225890486866));
#1201 = CARTESIAN_POINT('',(1.243799464279,0.257806391819));
#1202 = CARTESIAN_POINT('',(1.295667281963,0.312087942555));
#1203 = CARTESIAN_POINT('',(1.322661841455,0.335148686127));
#1204 = CARTESIAN_POINT('',(1.352285058991,0.355610827173));
#1205 = CARTESIAN_POINT('',(1.384300376872,0.373159632446));
#1206 = CARTESIAN_POINT('',(1.418374797291,0.387507752396));
#1207 = CARTESIAN_POINT('',(1.454055092348,0.398420491394));
#1208 = CARTESIAN_POINT('',(1.490801778209,0.405744836232));
#1209 = CARTESIAN_POINT('',(1.560631329108,0.412628736741));
#1210 = CARTESIAN_POINT('',(1.593597950322,0.413044436997));
#1211 = CARTESIAN_POINT('',(1.626562011221,0.410620257182));
#1212 = CARTESIAN_POINT('',(1.659121765948,0.405364680076));
#1213 = CARTESIAN_POINT('',(1.690886123753,0.397343271857));
#1214 = CARTESIAN_POINT('',(1.721505586467,0.386672391209));
#1215 = CARTESIAN_POINT('',(1.750691589387,0.373506950839));
#1216 = CARTESIAN_POINT('',(1.802292461878,0.344484071569));
#1217 = CARTESIAN_POINT('',(1.825097734451,0.329168854998));
#1218 = CARTESIAN_POINT('',(1.84647261267,0.31220379573));
#1219 = CARTESIAN_POINT('',(1.866295841361,0.293725882488));
#1220 = CARTESIAN_POINT('',(1.884479855173,0.273881385074));
#1221 = CARTESIAN_POINT('',(1.90096463913,0.252820789302));
#1222 = CARTESIAN_POINT('',(1.915709810934,0.230695441553));
#1223 = CARTESIAN_POINT('',(1.951402502369,0.167337894591));
#1224 = CARTESIAN_POINT('',(1.968707659257,0.124221045369));
#1225 = CARTESIAN_POINT('',(1.980462416936,7.911493857877E-02));
#1226 = CARTESIAN_POINT('',(1.986656460671,3.282430361136E-02));
#1227 = CARTESIAN_POINT('',(1.987305509156,-1.387412625866E-02));
#1228 = CARTESIAN_POINT('',(1.982404056892,-6.021190040239E-02));
#1229 = CARTESIAN_POINT('',(1.971938910817,-0.10540266135));
#1230 = CARTESIAN_POINT('',(1.9439861349,-0.181079010727));
#1231 = CARTESIAN_POINT('',(1.9289082285,-0.212416491149));
#1232 = CARTESIAN_POINT('',(1.91075532742,-0.242321018784));
#1233 = CARTESIAN_POINT('',(1.889573451578,-0.270451093483));
#1234 = CARTESIAN_POINT('',(1.865445340692,-0.29646084353));
#1235 = CARTESIAN_POINT('',(1.838523340133,-0.320008389845));
#1236 = CARTESIAN_POINT('',(1.809058625295,-0.340773054454));
#1237 = CARTESIAN_POINT('',(1.75366314943,-0.371762501295));
#1238 = CARTESIAN_POINT('',(1.72869040463,-0.38332444428));
#1239 = CARTESIAN_POINT('',(1.702634699006,-0.393051675119));
#1240 = CARTESIAN_POINT('',(1.675676315228,-0.400843343305));
#1241 = CARTESIAN_POINT('',(1.648028320275,-0.406618885248));
#1242 = CARTESIAN_POINT('',(1.619929218293,-0.410323909297));
#1243 = CARTESIAN_POINT('',(1.591630186431,-0.41193396014));
#1244 = CARTESIAN_POINT('',(1.521005198223,-0.410733636605));
#1245 = CARTESIAN_POINT('',(1.478740598887,-0.405310526456));
#1246 = CARTESIAN_POINT('',(1.437426797735,-0.395200930808));
#1247 = CARTESIAN_POINT('',(1.397896082653,-0.380568965684));
#1248 = CARTESIAN_POINT('',(1.360865002391,-0.361727717367));
#1249 = CARTESIAN_POINT('',(1.32684034985,-0.339086384223));
#1250 = CARTESIAN_POINT('',(1.296170147417,-0.313099230748));
#1251 = CARTESIAN_POINT('',(1.241990049712,-0.255383356615));
#1252 = CARTESIAN_POINT('',(1.218480180463,-0.223654624164));
#1253 = CARTESIAN_POINT('',(1.198776597603,-0.189529972054));
#1254 = CARTESIAN_POINT('',(1.182984429646,-0.153504561892));
#1255 = CARTESIAN_POINT('',(1.171133420979,-0.116066296344));
#1256 = CARTESIAN_POINT('',(1.16323081984,-7.769013247932E-02));
#1257 = CARTESIAN_POINT('',(1.159279480727,-3.884506739698E-02));
#1258 = CARTESIAN_POINT('',(1.159279480727,-1.224646799147E-16));
#1259 = ( GEOMETRIC_REPRESENTATION_CONTEXT(2) 
PARAMETRIC_REPRESENTATION_CONTEXT() REPRESENTATION_CONTEXT('2D SPACE',''
  ) );
#1260 = ORIENTED_EDGE('',*,*,#1261,.T.);
#1261 = EDGE_CURVE('',#1176,#834,#1262,.T.);
#1262 = SEAM_CURVE('',#1263,(#1267,#1274),.PCURVE_S1.);
#1263 = LINE('',#1264,#1265);
#1264 = CARTESIAN_POINT('',(10.,0.,0.));
#1265 = VECTOR('',#1266,1.);
#1266 = DIRECTION('',(-0.,1.,-0.));
#1267 = PCURVE('',#850,#1268);
#1268 = DEFINITIONAL_REPRESENTATION('',(#1269),#1273);
#1269 = LINE('',#1270,#1271);
#1270 = CARTESIAN_POINT('',(6.28318530718,0.));
#1271 = VECTOR('',#1272,1.);
#1272 = DIRECTION('',(0.,-1.));
#1273 = ( GEOMETRIC_REPRESENTATION_CONTEXT(2) 
PARAMETRIC_REPRESENTATION_CONTEXT() REPRESENTATION_CONTEXT('2D SPACE',''
  ) );
#1274 = PCURVE('',#850,#1275);
#1275 = DEFINITIONAL_REPRESENTATION('',(#1276),#1280);
#1276 = LINE('',#1277,#1278);
#1277 = CARTESIAN_POINT('',(0.,0.));
#1278 = VECTOR('',#1279,1.);
#1279 = DIRECTION('',(0.,-1.));
#1280 = ( GEOMETRIC_REPRESENTATION_CONTEXT(2) 
PARAMETRIC_REPRESENTATION_CONTEXT() REPRESENTATION_CONTEXT('2D SPACE',''
  ) );
#1281 = ORIENTED_EDGE('',*,*,#833,.T.);
#1282 = ORIENTED_EDGE('',*,*,#1261,.F.);
#1283 = ADVANCED_FACE('',(#1284),#885,.F.);
#1284 = FACE_BOUND('',#1285,.F.);
#1285 = EDGE_LOOP('',(#1286,#1372,#1393,#1394));
#1286 = ORIENTED_EDGE('',*,*,#1287,.F.);
#1287 = EDGE_CURVE('',#1288,#1288,#1290,.T.);
#1288 = VERTEX_POINT('',#1289);
#1289 = CARTESIAN_POINT('',(-22.91287847477,10.,0.));
#1290 = SURFACE_CURVE('',#1291,(#1296,#1303),.PCURVE_S1.);
#1291 = CIRCLE('',#1292,10.);
#1292 = AXIS2_PLACEMENT_3D('',#1293,#1294,#1295);
#1293 = CARTESIAN_POINT('',(-22.91287847477,0.,0.));
#1294 = DIRECTION('',(1.,0.,0.));
#1295 = DIRECTION('',(-0.,0.,1.));
#1296 = PCURVE('',#885,#1297);
#1297 = DEFINITIONAL_REPRESENTATION('',(#1298),#1302);
#1298 = LINE('',#1299,#1300);
#1299 = CARTESIAN_POINT('',(-4.712388980385,-22.91287847477));
#1300 = VECTOR('',#1301,1.);
#1301 = DIRECTION('',(1.,0.));
#1302 = ( GEOMETRIC_REPRESENTATION_CONTEXT(2) 
PARAMETRIC_REPRESENTATION_CONTEXT() REPRESENTATION_CONTEXT('2D SPACE',''
  ) );
#1303 = PCURVE('',#919,#1304);
#1304 = DEFINITIONAL_REPRESENTATION('',(#1305),#1371);
#1305 = B_SPLINE_CURVE_WITH_KNOTS('',8,(#1306,#1307,#1308,#1309,#1310,
    #1311,#1312,#1313,#1314,#1315,#1316,#1317,#1318,#1319,#1320,#1321,
    #1322,#1323,#1324,#1325,#1326,#1327,#1328,#1329,#1330,#1331,#1332,
    #1333,#1334,#1335,#1336,#1337,#1338,#1339,#1340,#1341,#1342,#1343,
    #1344,#1345,#1346,#1347,#1348,#1349,#1350,#1351,#1352,#1353,#1354,
    #1355,#1356,#1357,#1358,#1359,#1360,#1361,#1362,#1363,#1364,#1365,
    #1366,#1367,#1368,#1369,#1370),.UNSPECIFIED.,.F.,.F.,(9,7,7,7,7,7,7,
    7,7,9),(4.712388980385,5.497787143782,6.185010536755,6.786331005606,
    7.312486415851,8.233258383779,8.923837359725,9.441771591685,
    10.218672939625,10.995574287564),.UNSPECIFIED.);
#1306 = CARTESIAN_POINT('',(2.730075807522,-7.347880794884E-17));
#1307 = CARTESIAN_POINT('',(2.730075807522,3.926990816987E-02));
#1308 = CARTESIAN_POINT('',(2.734114050002,7.853981370951E-02));
#1309 = CARTESIAN_POINT('',(2.74219044973,0.117325266144));
#1310 = CARTESIAN_POINT('',(2.754302045436,0.155141703257));
#1311 = CARTESIAN_POINT('',(2.770441210492,0.191498292149));
#1312 = CARTESIAN_POINT('',(2.79057649305,0.225890486866));
#1313 = CARTESIAN_POINT('',(2.814595791074,0.257806391819));
#1314 = CARTESIAN_POINT('',(2.866463608758,0.312087942555));
#1315 = CARTESIAN_POINT('',(2.893458168252,0.335148686127));
#1316 = CARTESIAN_POINT('',(2.923081385781,0.355610827172));
#1317 = CARTESIAN_POINT('',(2.955096703679,0.373159632446));
#1318 = CARTESIAN_POINT('',(2.98917112408,0.387507752394));
#1319 = CARTESIAN_POINT('',(3.024851419143,0.398420491394));
#1320 = CARTESIAN_POINT('',(3.061598105004,0.405744836232));
#1321 = CARTESIAN_POINT('',(3.131427655903,0.412628736741));
#1322 = CARTESIAN_POINT('',(3.164394277117,0.413044436997));
#1323 = CARTESIAN_POINT('',(3.197358338017,0.410620257181));
#1324 = CARTESIAN_POINT('',(3.229918092743,0.405364680076));
#1325 = CARTESIAN_POINT('',(3.261682450548,0.397343271857));
#1326 = CARTESIAN_POINT('',(3.292301913262,0.386672391209));
#1327 = CARTESIAN_POINT('',(3.321487916182,0.373506950839));
#1328 = CARTESIAN_POINT('',(3.373088788673,0.344484071569));
#1329 = CARTESIAN_POINT('',(3.395894061246,0.329168854998));
#1330 = CARTESIAN_POINT('',(3.417268939465,0.31220379573));
#1331 = CARTESIAN_POINT('',(3.437092168156,0.293725882488));
#1332 = CARTESIAN_POINT('',(3.455276181968,0.273881385074));
#1333 = CARTESIAN_POINT('',(3.471760965925,0.252820789301));
#1334 = CARTESIAN_POINT('',(3.486506137729,0.230695441553));
#1335 = CARTESIAN_POINT('',(3.522198829164,0.167337894591));
#1336 = CARTESIAN_POINT('',(3.539503986051,0.124221045369));
#1337 = CARTESIAN_POINT('',(3.551258743732,7.911493857876E-02));
#1338 = CARTESIAN_POINT('',(3.557452787466,3.282430361135E-02));
#1339 = CARTESIAN_POINT('',(3.55810183595,-1.387412625865E-02));
#1340 = CARTESIAN_POINT('',(3.553200383687,-6.021190040239E-02));
#1341 = CARTESIAN_POINT('',(3.542735237612,-0.10540266135));
#1342 = CARTESIAN_POINT('',(3.514782461695,-0.181079010727));
#1343 = CARTESIAN_POINT('',(3.499704555294,-0.212416491149));
#1344 = CARTESIAN_POINT('',(3.481551654215,-0.242321018784));
#1345 = CARTESIAN_POINT('',(3.460369778373,-0.270451093483));
#1346 = CARTESIAN_POINT('',(3.436241667488,-0.296460843529));
#1347 = CARTESIAN_POINT('',(3.409319666928,-0.320008389845));
#1348 = CARTESIAN_POINT('',(3.37985495209,-0.340773054454));
#1349 = CARTESIAN_POINT('',(3.324459476225,-0.371762501295));
#1350 = CARTESIAN_POINT('',(3.299486731425,-0.38332444428));
#1351 = CARTESIAN_POINT('',(3.273431025801,-0.393051675119));
#1352 = CARTESIAN_POINT('',(3.246472642023,-0.400843343305));
#1353 = CARTESIAN_POINT('',(3.21882464707,-0.406618885248));
#1354 = CARTESIAN_POINT('',(3.190725545088,-0.410323909297));
#1355 = CARTESIAN_POINT('',(3.162426513226,-0.41193396014));
#1356 = CARTESIAN_POINT('',(3.091801525018,-0.410733636605));
#1357 = CARTESIAN_POINT('',(3.049536925684,-0.405310526455));
#1358 = CARTESIAN_POINT('',(3.00822312452,-0.395200930811));
#1359 = CARTESIAN_POINT('',(2.968692409464,-0.380568965681));
#1360 = CARTESIAN_POINT('',(2.931661329167,-0.361727717369));
#1361 = CARTESIAN_POINT('',(2.897636676646,-0.339086384222));
#1362 = CARTESIAN_POINT('',(2.866966474212,-0.313099230748));
#1363 = CARTESIAN_POINT('',(2.812786376507,-0.255383356615));
#1364 = CARTESIAN_POINT('',(2.789276507255,-0.223654624164));
#1365 = CARTESIAN_POINT('',(2.76957292441,-0.189529972055));
#1366 = CARTESIAN_POINT('',(2.753780756417,-0.15350456189));
#1367 = CARTESIAN_POINT('',(2.741929747788,-0.116066296345));
#1368 = CARTESIAN_POINT('',(2.734027146631,-7.769013247901E-02));
#1369 = CARTESIAN_POINT('',(2.730075807522,-3.884506739698E-02));
#1370 = CARTESIAN_POINT('',(2.730075807522,-1.714505518806E-16));
#1371 = ( GEOMETRIC_REPRESENTATION_CONTEXT(2) 
PARAMETRIC_REPRESENTATION_CONTEXT() REPRESENTATION_CONTEXT('2D SPACE',''
  ) );
#1372 = ORIENTED_EDGE('',*,*,#1373,.T.);
#1373 = EDGE_CURVE('',#1288,#869,#1374,.T.);
#1374 = SEAM_CURVE('',#1375,(#1379,#1386),.PCURVE_S1.);
#1375 = LINE('',#1376,#1377);
#1376 = CARTESIAN_POINT('',(0.,10.,0.));
#1377 = VECTOR('',#1378,1.);
#1378 = DIRECTION('',(-1.,-0.,-0.));
#1379 = PCURVE('',#885,#1380);
#1380 = DEFINITIONAL_REPRESENTATION('',(#1381),#1385);
#1381 = LINE('',#1382,#1383);
#1382 = CARTESIAN_POINT('',(6.28318530718,0.));
#1383 = VECTOR('',#1384,1.);
#1384 = DIRECTION('',(0.,-1.));
#1385 = ( GEOMETRIC_REPRESENTATION_CONTEXT(2) 
PARAMETRIC_REPRESENTATION_CONTEXT() REPRESENTATION_CONTEXT('2D SPACE',''
  ) );
#1386 = PCURVE('',#885,#1387);
#1387 = DEFINITIONAL_REPRESENTATION('',(#1388),#1392);
#1388 = LINE('',#1389,#1390);
#1389 = CARTESIAN_POINT('',(0.,0.));
#1390 = VECTOR('',#1391,1.);
#1391 = DIRECTION('',(0.,-1.));
#1392 = ( GEOMETRIC_REPRESENTATION_CONTEXT(2) 
PARAMETRIC_REPRESENTATION_CONTEXT() REPRESENTATION_CONTEXT('2D SPACE',''
  ) );
#1393 = ORIENTED_EDGE('',*,*,#868,.T.);
#1394 = ORIENTED_EDGE('',*,*,#1373,.F.);
#1395 = ADVANCED_FACE('',(#1396,#1451,#1454,#1457),#919,.F.);
#1396 = FACE_BOUND('',#1397,.F.);
#1397 = EDGE_LOOP('',(#1398,#1399,#1423,#1424,#1425,#1426,#1450));
#1398 = ORIENTED_EDGE('',*,*,#1004,.T.);
#1399 = ORIENTED_EDGE('',*,*,#1400,.T.);
#1400 = EDGE_CURVE('',#901,#1401,#1403,.T.);
#1401 = VERTEX_POINT('',#1402);
#1402 = CARTESIAN_POINT('',(1.530808498934E-15,-3.749399456655E-31,25.)
  );
#1403 = SEAM_CURVE('',#1404,(#1409,#1416),.PCURVE_S1.);
#1404 = CIRCLE('',#1405,25.);
#1405 = AXIS2_PLACEMENT_3D('',#1406,#1407,#1408);
#1406 = CARTESIAN_POINT('',(0.,0.,0.));
#1407 = DIRECTION('',(-2.449293598295E-16,-1.,0.));
#1408 = DIRECTION('',(1.,-2.449293598295E-16,0.));
#1409 = PCURVE('',#919,#1410);
#1410 = DEFINITIONAL_REPRESENTATION('',(#1411),#1415);
#1411 = LINE('',#1412,#1413);
#1412 = CARTESIAN_POINT('',(0.,-6.28318530718));
#1413 = VECTOR('',#1414,1.);
#1414 = DIRECTION('',(0.,1.));
#1415 = ( GEOMETRIC_REPRESENTATION_CONTEXT(2) 
PARAMETRIC_REPRESENTATION_CONTEXT() REPRESENTATION_CONTEXT('2D SPACE',''
  ) );
#1416 = PCURVE('',#919,#1417);
#1417 = DEFINITIONAL_REPRESENTATION('',(#1418),#1422);
#1418 = LINE('',#1419,#1420);
#1419 = CARTESIAN_POINT('',(6.28318530718,-6.28318530718));
#1420 = VECTOR('',#1421,1.);
#1421 = DIRECTION('',(0.,1.));
#1422 = ( GEOMETRIC_REPRESENTATION_CONTEXT(2) 
PARAMETRIC_REPRESENTATION_CONTEXT() REPRESENTATION_CONTEXT('2D SPACE',''
  ) );
#1423 = ORIENTED_EDGE('',*,*,#1400,.F.);
#1424 = ORIENTED_EDGE('',*,*,#900,.T.);
#1425 = ORIENTED_EDGE('',*,*,#967,.T.);
#1426 = ORIENTED_EDGE('',*,*,#1427,.F.);
#1427 = EDGE_CURVE('',#1428,#968,#1430,.T.);
#1428 = VERTEX_POINT('',#1429);
#1429 = CARTESIAN_POINT('',(1.530808498934E-15,-3.749399456655E-31,-25.)
  );
#1430 = SEAM_CURVE('',#1431,(#1436,#1443),.PCURVE_S1.);
#1431 = CIRCLE('',#1432,25.);
#1432 = AXIS2_PLACEMENT_3D('',#1433,#1434,#1435);
#1433 = CARTESIAN_POINT('',(0.,0.,0.));
#1434 = DIRECTION('',(-2.449293598295E-16,-1.,0.));
#1435 = DIRECTION('',(1.,-2.449293598295E-16,0.));
#1436 = PCURVE('',#919,#1437);
#1437 = DEFINITIONAL_REPRESENTATION('',(#1438),#1442);
#1438 = LINE('',#1439,#1440);
#1439 = CARTESIAN_POINT('',(6.28318530718,-6.28318530718));
#1440 = VECTOR('',#1441,1.);
#1441 = DIRECTION('',(0.,1.));
#1442 = ( GEOMETRIC_REPRESENTATION_CONTEXT(2) 
PARAMETRIC_REPRESENTATION_CONTEXT() REPRESENTATION_CONTEXT('2D SPACE',''
  ) );
#1443 = PCURVE('',#919,#1444);
#1444 = DEFINITIONAL_REPRESENTATION('',(#1445),#1449);
#1445 = LINE('',#1446,#1447);
#1446 = CARTESIAN_POINT('',(0.,-6.28318530718));
#1447 = VECTOR('',#1448,1.);
#1448 = DIRECTION('',(0.,1.));
#1449 = ( GEOMETRIC_REPRESENTATION_CONTEXT(2) 
PARAMETRIC_REPRESENTATION_CONTEXT() REPRESENTATION_CONTEXT('2D SPACE',''
  ) );
#1450 = ORIENTED_EDGE('',*,*,#1427,.T.);
#1451 = FACE_BOUND('',#1452,.F.);
#1452 = EDGE_LOOP('',(#1453));
#1453 = ORIENTED_EDGE('',*,*,#1063,.T.);
#1454 = FACE_BOUND('',#1455,.F.);
#1455 = EDGE_LOOP('',(#1456));
#1456 = ORIENTED_EDGE('',*,*,#1175,.T.);
#1457 = FACE_BOUND('',#1458,.F.);
#1458 = EDGE_LOOP('',(#1459));
#1459 = ORIENTED_EDGE('',*,*,#1287,.T.);
#1460 = ( GEOMETRIC_REPRESENTATION_CONTEXT(3) 
GLOBAL_UNCERTAINTY_ASSIGNED_CONTEXT((#1464)) 
GLOBAL_UNIT_ASSIGNED_CONTEXT((#1461,#1462,#1463)) REPRESENTATION_CONTEXT
('Context #1','3D Context with UNIT and UNCERTAINTY') );
#1461 = ( LENGTH_UNIT() NAMED_UNIT(*) SI_UNIT(.MILLI.,.METRE.) );
#1462 = ( NAMED_UNIT(*) PLANE_ANGLE_UNIT() SI_UNIT($,.RADIAN.) );
#1463 = ( NAMED_UNIT(*) SI_UNIT($,.STERADIAN.) SOLID_ANGLE_UNIT() );
#1464 = UNCERTAINTY_MEASURE_WITH_UNIT(LENGTH_MEASURE(1.E-07),#1461,
  'distance_accuracy_value','confusion accuracy');
#1465 = PRODUCT_RELATED_PRODUCT_CATEGORY('part',$,(#7));
ENDSEC;
END-ISO-10303-21;
