ISO-10303-21;
HEADER;
FILE_DESCRIPTION(('Open CASCADE Model'),'2;1');
FILE_NAME('Open CASCADE Shape Model','2026-08-07T02:34:19',('Author'),(
    'Open CASCADE'),'Open CASCADE STEP processor 7.7','Open CASCADE 7.7'
  ,'Unknown');
FILE_SCHEMA(('AUTOMOTIVE_DESIGN { 1 0 10303 214 1 1 1 1 }'));
ENDSEC;
DATA;
#1 = APPLICATION_PROTOCOL_DEFINITION('international standard',
  'automotive_design',2000,#2);
#2 = APPLICATION_CONTEXT(
  'core data for automotive mechanical design processes');
#3 = SHAPE_DEFINITION_REPRESENTATION(#4,#10);
#4 = PRODUCT_DEFINITION_SHAPE('','',#5);
#5 = PRODUCT_DEFINITION('design','',#6,#9);
#6 = PRODUCT_DEFINITION_FORMATION('','',#7);
#7 = PRODUCT('Open CASCADE STEP translator 7.7 42',
  'Open CASCADE STEP translator 7.7 42','',(#8));
#8 = PRODUCT_CONTEXT('',#2,'mechanical');
#9 = PRODUCT_DEFINITION_CONTEXT('part definition',#2,'design');
#10 = ADVANCED_BREP_SHAPE_REPRESENTATION('',(#11,#15),#319);
#11 = AXIS2_PLACEMENT_3D('',#12,#13,#14);
#12 = CARTESIAN_POINT('',(0.,0.,0.));
#13 = DIRECTION('',(0.,0.,1.));
#14 = DIRECTION('',(1.,0.,-0.));
#15 = MANIFOLD_SOLID_BREP('',#16);
#16 = CLOSED_SHELL('',(#17,#311,#315));
#17 = ADVANCED_FACE('',(#18,#22,#169),#35,.T.);
#18 = FACE_BOUND('',#19,.T.);
#19 = VERTEX_LOOP('',#20);
#20 = VERTEX_POINT('',#21);
#21 = CARTESIAN_POINT('',(2.449293598295E-15,-5.999039130647E-31,-40.));
#22 = FACE_BOUND('',#23,.T.);
#23 = EDGE_LOOP('',(#24));
#24 = ORIENTED_EDGE('',*,*,#25,.F.);
#25 = EDGE_CURVE('',#26,#26,#28,.T.);
#26 = VERTEX_POINT('',#27);
#27 = CARTESIAN_POINT('',(0.,25.,31.224989991992));
#28 = SURFACE_CURVE('',#29,(#34,#157),.PCURVE_S1.);
#29 = CIRCLE('',#30,31.224989991992);
#30 = AXIS2_PLACEMENT_3D('',#31,#32,#33);
#31 = CARTESIAN_POINT('',(0.,25.,0.));
#32 = DIRECTION('',(0.,1.,0.));
#33 = DIRECTION('',(0.,-0.,1.));
#34 = PCURVE('',#35,#40);
#35 = SPHERICAL_SURFACE('',#36,40.);
#36 = AXIS2_PLACEMENT_3D('',#37,#38,#39);
#37 = CARTESIAN_POINT('',(0.,0.,0.));
#38 = DIRECTION('',(0.,0.,1.));
#39 = DIRECTION('',(1.,0.,0.));
#40 = DEFINITIONAL_REPRESENTATION('',(#41),#156);
#41 = B_SPLINE_CURVE_WITH_KNOTS('',8,(#42,#43,#44,#45,#46,#47,#48,#49,
    #50,#51,#52,#53,#54,#55,#56,#57,#58,#59,#60,#61,#62,#63,#64,#65,#66,
    #67,#68,#69,#70,#71,#72,#73,#74,#75,#76,#77,#78,#79,#80,#81,#82,#83,
    #84,#85,#86,#87,#88,#89,#90,#91,#92,#93,#94,#95,#96,#97,#98,#99,#100
    ,#101,#102,#103,#104,#105,#106,#107,#108,#109,#110,#111,#112,#113,
    #114,#115,#116,#117,#118,#119,#120,#121,#122,#123,#124,#125,#126,
    #127,#128,#129,#130,#131,#132,#133,#134,#135,#136,#137,#138,#139,
    #140,#141,#142,#143,#144,#145,#146,#147,#148,#149,#150,#151,#152,
    #153,#154,#155),.UNSPECIFIED.,.F.,.F.,(9,7,7,7,7,7,7,7,7,7,7,7,7,7,7
    ,7,9),(0.,0.196349540849,0.576776776245,0.933427309428,
    1.602147059147,2.187276840151,2.443271119341,2.923260392821,
    3.133255699968,3.330126300419,3.699258676264,4.022249505128,
    4.587483455641,5.011408918526,5.647297112853,5.965241210016,
    6.28318530718),.UNSPECIFIED.);
#42 = CARTESIAN_POINT('',(1.570796326795,0.895664793858));
#43 = CARTESIAN_POINT('',(1.540141264555,0.895664793858));
#44 = CARTESIAN_POINT('',(1.509486229102,0.894804927861));
#45 = CARTESIAN_POINT('',(1.478947018445,0.893085165213));
#46 = CARTESIAN_POINT('',(1.448639826738,0.89051183242));
#47 = CARTESIAN_POINT('',(1.418675479148,0.887097467903));
#48 = CARTESIAN_POINT('',(1.389155099407,0.882860285884));
#49 = CARTESIAN_POINT('',(1.360167210069,0.877823249393));
#50 = CARTESIAN_POINT('',(1.276798185269,0.860754914503));
#51 = CARTESIAN_POINT('',(1.224088619138,0.846593611319));
#52 = CARTESIAN_POINT('',(1.174199579388,0.829721024476));
#53 = CARTESIAN_POINT('',(1.127479463003,0.810379369763));
#54 = CARTESIAN_POINT('',(1.084048271324,0.788829645174));
#55 = CARTESIAN_POINT('',(1.043880891514,0.765319724586));
#56 = CARTESIAN_POINT('',(1.00686921705,0.740077717651));
#57 = CARTESIAN_POINT('',(0.940977446502,0.688211620241));
#58 = CARTESIAN_POINT('',(0.911733713156,0.661772510819));
#59 = CARTESIAN_POINT('',(0.885003640241,0.634159376108));
#60 = CARTESIAN_POINT('',(0.86062732652,0.605522617923));
#61 = CARTESIAN_POINT('',(0.838439883841,0.575993031724));
#62 = CARTESIAN_POINT('',(0.818284890225,0.545683912091));
#63 = CARTESIAN_POINT('',(0.800018873668,0.514694330095));
#64 = CARTESIAN_POINT('',(0.752566205032,0.423892906428));
#65 = CARTESIAN_POINT('',(0.727808951031,0.362587997373));
#66 = CARTESIAN_POINT('',(0.70839596915,0.29976992349));
#67 = CARTESIAN_POINT('',(0.693670813137,0.235863485888));
#68 = CARTESIAN_POINT('',(0.68320136012,0.171205176839));
#69 = CARTESIAN_POINT('',(0.676714184506,0.106084545421));
#70 = CARTESIAN_POINT('',(0.674092225696,4.076827629343E-02));
#71 = CARTESIAN_POINT('',(0.676490585966,-8.15564753407E-02));
#72 = CARTESIAN_POINT('',(0.68059660375,-0.138582870996));
#73 = CARTESIAN_POINT('',(0.687713748287,-0.195368548615));
#74 = CARTESIAN_POINT('',(0.697956398114,-0.251728373492));
#75 = CARTESIAN_POINT('',(0.711532488909,-0.307459964802));
#76 = CARTESIAN_POINT('',(0.728748591866,-0.362329873308));
#77 = CARTESIAN_POINT('',(0.750038123974,-0.416051876931));
#78 = CARTESIAN_POINT('',(0.787283227929,-0.491096707917));
#79 = CARTESIAN_POINT('',(0.799502994363,-0.51364609795));
#80 = CARTESIAN_POINT('',(0.812652896754,-0.535874234158));
#81 = CARTESIAN_POINT('',(0.826782708003,-0.557747216223));
#82 = CARTESIAN_POINT('',(0.841946222233,-0.579227615413));
#83 = CARTESIAN_POINT('',(0.858200472824,-0.600273984793));
#84 = CARTESIAN_POINT('',(0.875604084219,-0.62084042042));
#85 = CARTESIAN_POINT('',(0.9291097699,-0.678443210613));
#86 = CARTESIAN_POINT('',(0.968248354259,-0.714144539968));
#87 = CARTESIAN_POINT('',(1.012009883719,-0.747646118893));
#88 = CARTESIAN_POINT('',(1.060762536536,-0.778552887798));
#89 = CARTESIAN_POINT('',(1.114782108785,-0.806409756));
#90 = CARTESIAN_POINT('',(1.174156267138,-0.830690033071));
#91 = CARTESIAN_POINT('',(1.238415466937,-0.850870695428));
#92 = CARTESIAN_POINT('',(1.336409765144,-0.873394176469));
#93 = CARTESIAN_POINT('',(1.366982663002,-0.87938548545));
#94 = CARTESIAN_POINT('',(1.398222473024,-0.884478553004));
#95 = CARTESIAN_POINT('',(1.430029161905,-0.888642759466));
#96 = CARTESIAN_POINT('',(1.462284551886,-0.891853034482));
#97 = CARTESIAN_POINT('',(1.494856125128,-0.894091413303));
#98 = CARTESIAN_POINT('',(1.527603158798,-0.895348076288));
#99 = CARTESIAN_POINT('',(1.59111598436,-0.895877620743));
#100 = CARTESIAN_POINT('',(1.621877678514,-0.895269579741));
#101 = CARTESIAN_POINT('',(1.652552302706,-0.893795927406));
#102 = CARTESIAN_POINT('',(1.683022192949,-0.891461647347));
#103 = CARTESIAN_POINT('',(1.713173938331,-0.888278163613));
#104 = CARTESIAN_POINT('',(1.742903264711,-0.88426277012));
#105 = CARTESIAN_POINT('',(1.772118547595,-0.879437640413));
#106 = CARTESIAN_POINT('',(1.854410585147,-0.863311897555));
#107 = CARTESIAN_POINT('',(1.905998166566,-0.850039481709));
#108 = CARTESIAN_POINT('',(1.954991296678,-0.8341822282));
#109 = CARTESIAN_POINT('',(2.001045902614,-0.815957425708));
#110 = CARTESIAN_POINT('',(2.044022369681,-0.795602394932));
#111 = CARTESIAN_POINT('',(2.083919994941,-0.773345727631));
#112 = CARTESIAN_POINT('',(2.120820208198,-0.749399853485));
#113 = CARTESIAN_POINT('',(2.184628776136,-0.701694277393));
#114 = CARTESIAN_POINT('',(2.212209540521,-0.678285458699));
#115 = CARTESIAN_POINT('',(2.237679683502,-0.653859167863));
#116 = CARTESIAN_POINT('',(2.261152519942,-0.628532285744));
#117 = CARTESIAN_POINT('',(2.282749397386,-0.602408397089));
#118 = CARTESIAN_POINT('',(2.302589414311,-0.575578727696));
#119 = CARTESIAN_POINT('',(2.320784835235,-0.548124008034));
#120 = CARTESIAN_POINT('',(2.366583362199,-0.471101491088));
#121 = CARTESIAN_POINT('',(2.391007290025,-0.42039217004));
#122 = CARTESIAN_POINT('',(2.411263749673,-0.368371631583));
#123 = CARTESIAN_POINT('',(2.427819884977,-0.315338325585));
#124 = CARTESIAN_POINT('',(2.441023450645,-0.261531955632));
#125 = CARTESIAN_POINT('',(2.451129653024,-0.207155928824));
#126 = CARTESIAN_POINT('',(2.458306567538,-0.152390364514));
#127 = CARTESIAN_POINT('',(2.465893695847,-5.616590667093E-02));
#128 = CARTESIAN_POINT('',(2.467547025537,-1.480320532142E-02));
#129 = CARTESIAN_POINT('',(2.467639060047,2.661163157751E-02));
#130 = CARTESIAN_POINT('',(2.466181287209,6.801024524478E-02));
#131 = CARTESIAN_POINT('',(2.463160707853,0.109324871187));
#132 = CARTESIAN_POINT('',(2.458539679818,0.150485551452));
#133 = CARTESIAN_POINT('',(2.452254579237,0.191417118502));
#134 = CARTESIAN_POINT('',(2.432151328899,0.292964199017));
#135 = CARTESIAN_POINT('',(2.416137987171,0.353188795481));
#136 = CARTESIAN_POINT('',(2.395862121904,0.412426999721));
#137 = CARTESIAN_POINT('',(2.370871025892,0.470353799225));
#138 = CARTESIAN_POINT('',(2.340545446349,0.526568650645));
#139 = CARTESIAN_POINT('',(2.304101957681,0.580572704988));
#140 = CARTESIAN_POINT('',(2.260534105312,0.63168667331));
#141 = CARTESIAN_POINT('',(2.183248293,0.702718786925));
#142 = CARTESIAN_POINT('',(2.155497351872,0.725456360447));
#143 = CARTESIAN_POINT('',(2.125653480605,0.747145547399));
#144 = CARTESIAN_POINT('',(2.09362357604,0.767665972224));
#145 = CARTESIAN_POINT('',(2.059338160065,0.786885612789));
#146 = CARTESIAN_POINT('',(2.022769161405,0.804661971504));
#147 = CARTESIAN_POINT('',(1.983961065093,0.820848078137));
#148 = CARTESIAN_POINT('',(1.902133844854,0.849758202518));
#149 = CARTESIAN_POINT('',(1.859114726378,0.862482222473));
#150 = CARTESIAN_POINT('',(1.814123603873,0.873334368722));
#151 = CARTESIAN_POINT('',(1.767383404278,0.882180084372));
#152 = CARTESIAN_POINT('',(1.719221124042,0.888900917725));
#153 = CARTESIAN_POINT('',(1.670074336105,0.893410157536));
#154 = CARTESIAN_POINT('',(1.620435333055,0.895664793858));
#155 = CARTESIAN_POINT('',(1.570796326795,0.895664793858));
#156 = ( GEOMETRIC_REPRESENTATION_CONTEXT(2) 
PARAMETRIC_REPRESENTATION_CONTEXT() REPRESENTATION_CONTEXT('2D SPACE',''
  ) );
#157 = PCURVE('',#158,#163);
#158 = PLANE('',#159);
#159 = AXIS2_PLACEMENT_3D('',#160,#161,#162);
#160 = CARTESIAN_POINT('',(-120.,25.,-120.));
#161 = DIRECTION('',(0.,1.,0.));
#162 = DIRECTION('',(0.,0.,1.));
#163 = DEFINITIONAL_REPRESENTATION('',(#164),#168);
#164 = CIRCLE('',#165,31.224989991992);
#165 = AXIS2_PLACEMENT_2D('',#166,#167);
#166 = CARTESIAN_POINT('',(120.,120.));
#167 = DIRECTION('',(1.,0.));
#168 = ( GEOMETRIC_REPRESENTATION_CONTEXT(2) 
PARAMETRIC_REPRESENTATION_CONTEXT() REPRESENTATION_CONTEXT('2D SPACE',''
  ) );
#169 = FACE_BOUND('',#170,.T.);
#170 = EDGE_LOOP('',(#171));
#171 = ORIENTED_EDGE('',*,*,#172,.T.);
#172 = EDGE_CURVE('',#173,#173,#175,.T.);
#173 = VERTEX_POINT('',#174);
#174 = CARTESIAN_POINT('',(0.,-25.,31.224989991992));
#175 = SURFACE_CURVE('',#176,(#181,#299),.PCURVE_S1.);
#176 = CIRCLE('',#177,31.224989991992);
#177 = AXIS2_PLACEMENT_3D('',#178,#179,#180);
#178 = CARTESIAN_POINT('',(0.,-25.,0.));
#179 = DIRECTION('',(0.,1.,0.));
#180 = DIRECTION('',(0.,-0.,1.));
#181 = PCURVE('',#35,#182);
#182 = DEFINITIONAL_REPRESENTATION('',(#183),#298);
#183 = B_SPLINE_CURVE_WITH_KNOTS('',8,(#184,#185,#186,#187,#188,#189,
    #190,#191,#192,#193,#194,#195,#196,#197,#198,#199,#200,#201,#202,
    #203,#204,#205,#206,#207,#208,#209,#210,#211,#212,#213,#214,#215,
    #216,#217,#218,#219,#220,#221,#222,#223,#224,#225,#226,#227,#228,
    #229,#230,#231,#232,#233,#234,#235,#236,#237,#238,#239,#240,#241,
    #242,#243,#244,#245,#246,#247,#248,#249,#250,#251,#252,#253,#254,
    #255,#256,#257,#258,#259,#260,#261,#262,#263,#264,#265,#266,#267,
    #268,#269,#270,#271,#272,#273,#274,#275,#276,#277,#278,#279,#280,
    #281,#282,#283,#284,#285,#286,#287,#288,#289,#290,#291,#292,#293,
    #294,#295,#296,#297),.UNSPECIFIED.,.F.,.F.,(9,7,7,7,7,7,7,7,7,7,7,7,
    7,7,7,7,9),(0.,0.196349540849,0.576776776245,0.933427309428,
    1.602147059147,2.187276840151,2.443271119341,2.923260392821,
    3.133255699968,3.330126300419,3.699258676264,4.022249505128,
    4.587483455641,5.011408918526,5.647297112853,5.965241210016,
    6.28318530718),.UNSPECIFIED.);
#184 = CARTESIAN_POINT('',(4.712388980385,0.895664793858));
#185 = CARTESIAN_POINT('',(4.743044042624,0.895664793858));
#186 = CARTESIAN_POINT('',(4.773699078077,0.894804927861));
#187 = CARTESIAN_POINT('',(4.804238288735,0.893085165213));
#188 = CARTESIAN_POINT('',(4.834545480441,0.89051183242));
#189 = CARTESIAN_POINT('',(4.864509828031,0.887097467903));
#190 = CARTESIAN_POINT('',(4.894030207772,0.882860285884));
#191 = CARTESIAN_POINT('',(4.923018097111,0.877823249393));
#192 = CARTESIAN_POINT('',(5.006387121911,0.860754914503));
#193 = CARTESIAN_POINT('',(5.059096688042,0.846593611319));
#194 = CARTESIAN_POINT('',(5.108985727795,0.829721024476));
#195 = CARTESIAN_POINT('',(5.155705844183,0.810379369763));
#196 = CARTESIAN_POINT('',(5.199137035845,0.788829645174));
#197 = CARTESIAN_POINT('',(5.239304415662,0.765319724586));
#198 = CARTESIAN_POINT('',(5.276316090129,0.740077717651));
#199 = CARTESIAN_POINT('',(5.342207860678,0.688211620241));
#200 = CARTESIAN_POINT('',(5.371451594024,0.661772510819));
#201 = CARTESIAN_POINT('',(5.398181666939,0.634159376108));
#202 = CARTESIAN_POINT('',(5.42255798066,0.605522617923));
#203 = CARTESIAN_POINT('',(5.444745423339,0.575993031724));
#204 = CARTESIAN_POINT('',(5.464900416955,0.545683912091));
#205 = CARTESIAN_POINT('',(5.483166433511,0.514694330095));
#206 = CARTESIAN_POINT('',(5.530619102147,0.423892906428));
#207 = CARTESIAN_POINT('',(5.555376356155,0.362587997373));
#208 = CARTESIAN_POINT('',(5.574789337996,0.29976992349));
#209 = CARTESIAN_POINT('',(5.58951449404,0.235863485888));
#210 = CARTESIAN_POINT('',(5.599983947024,0.171205176839));
#211 = CARTESIAN_POINT('',(5.606471122679,0.106084545421));
#212 = CARTESIAN_POINT('',(5.609093081483,4.076827629343E-02));
#213 = CARTESIAN_POINT('',(5.606694721213,-8.15564753407E-02));
#214 = CARTESIAN_POINT('',(5.602588703428,-0.138582870996));
#215 = CARTESIAN_POINT('',(5.595471558885,-0.195368548615));
#216 = CARTESIAN_POINT('',(5.585228909054,-0.251728373492));
#217 = CARTESIAN_POINT('',(5.571652818253,-0.307459964802));
#218 = CARTESIAN_POINT('',(5.554436715312,-0.362329873308));
#219 = CARTESIAN_POINT('',(5.533147183206,-0.416051876931));
#220 = CARTESIAN_POINT('',(5.49590207925,-0.491096707917));
#221 = CARTESIAN_POINT('',(5.483682312817,-0.51364609795));
#222 = CARTESIAN_POINT('',(5.470532410426,-0.535874234158));
#223 = CARTESIAN_POINT('',(5.456402599177,-0.557747216223));
#224 = CARTESIAN_POINT('',(5.441239084946,-0.579227615413));
#225 = CARTESIAN_POINT('',(5.424984834355,-0.600273984793));
#226 = CARTESIAN_POINT('',(5.40758122296,-0.62084042042));
#227 = CARTESIAN_POINT('',(5.35407553728,-0.678443210613));
#228 = CARTESIAN_POINT('',(5.314936952921,-0.714144539968));
#229 = CARTESIAN_POINT('',(5.271175423455,-0.747646118893));
#230 = CARTESIAN_POINT('',(5.222422770628,-0.778552887798));
#231 = CARTESIAN_POINT('',(5.168403198386,-0.806409756));
#232 = CARTESIAN_POINT('',(5.109029040043,-0.830690033071));
#233 = CARTESIAN_POINT('',(5.044769840243,-0.850870695428));
#234 = CARTESIAN_POINT('',(4.946775542035,-0.873394176469));
#235 = CARTESIAN_POINT('',(4.916202644178,-0.87938548545));
#236 = CARTESIAN_POINT('',(4.884962834155,-0.884478553004));
#237 = CARTESIAN_POINT('',(4.853156145276,-0.888642759466));
#238 = CARTESIAN_POINT('',(4.820900755295,-0.891853034482));
#239 = CARTESIAN_POINT('',(4.788329182051,-0.894091413303));
#240 = CARTESIAN_POINT('',(4.755582148382,-0.895348076288));
#241 = CARTESIAN_POINT('',(4.69206932282,-0.895877620743));
#242 = CARTESIAN_POINT('',(4.661307628665,-0.895269579741));
#243 = CARTESIAN_POINT('',(4.630633004473,-0.893795927406));
#244 = CARTESIAN_POINT('',(4.600163114231,-0.891461647347));
#245 = CARTESIAN_POINT('',(4.570011368849,-0.888278163613));
#246 = CARTESIAN_POINT('',(4.540282042469,-0.88426277012));
#247 = CARTESIAN_POINT('',(4.511066759584,-0.879437640413));
#248 = CARTESIAN_POINT('',(4.428774722032,-0.863311897555));
#249 = CARTESIAN_POINT('',(4.377187140609,-0.850039481709));
#250 = CARTESIAN_POINT('',(4.328194010513,-0.834182228202));
#251 = CARTESIAN_POINT('',(4.28213940455,-0.815957425706));
#252 = CARTESIAN_POINT('',(4.239162937512,-0.795602394932));
#253 = CARTESIAN_POINT('',(4.199265312232,-0.77334572763));
#254 = CARTESIAN_POINT('',(4.162365098982,-0.749399853485));
#255 = CARTESIAN_POINT('',(4.098556531043,-0.701694277393));
#256 = CARTESIAN_POINT('',(4.070975766659,-0.678285458699));
#257 = CARTESIAN_POINT('',(4.045505623679,-0.653859167863));
#258 = CARTESIAN_POINT('',(4.022032787239,-0.628532285744));
#259 = CARTESIAN_POINT('',(4.000435909794,-0.602408397089));
#260 = CARTESIAN_POINT('',(3.980595892868,-0.575578727696));
#261 = CARTESIAN_POINT('',(3.962400471945,-0.548124008034));
#262 = CARTESIAN_POINT('',(3.916601944981,-0.471101491088));
#263 = CARTESIAN_POINT('',(3.892178017148,-0.42039217004));
#264 = CARTESIAN_POINT('',(3.871921557513,-0.368371631583));
#265 = CARTESIAN_POINT('',(3.855365422205,-0.315338325585));
#266 = CARTESIAN_POINT('',(3.842161856539,-0.261531955632));
#267 = CARTESIAN_POINT('',(3.832055654152,-0.207155928824));
#268 = CARTESIAN_POINT('',(3.824878739642,-0.152390364514));
#269 = CARTESIAN_POINT('',(3.817291611333,-5.616590667093E-02));
#270 = CARTESIAN_POINT('',(3.815638281643,-1.480320532142E-02));
#271 = CARTESIAN_POINT('',(3.815546247132,2.661163157751E-02));
#272 = CARTESIAN_POINT('',(3.817004019971,6.801024524478E-02));
#273 = CARTESIAN_POINT('',(3.820024599327,0.109324871187));
#274 = CARTESIAN_POINT('',(3.824645627361,0.150485551452));
#275 = CARTESIAN_POINT('',(3.830930727943,0.191417118502));
#276 = CARTESIAN_POINT('',(3.851033978281,0.292964199017));
#277 = CARTESIAN_POINT('',(3.867047320004,0.353188795481));
#278 = CARTESIAN_POINT('',(3.887323185281,0.412426999721));
#279 = CARTESIAN_POINT('',(3.912314281268,0.470353799225));
#280 = CARTESIAN_POINT('',(3.942639860836,0.526568650645));
#281 = CARTESIAN_POINT('',(3.979083349493,0.580572704988));
#282 = CARTESIAN_POINT('',(4.022651201868,0.63168667331));
#283 = CARTESIAN_POINT('',(4.099937014179,0.702718786925));
#284 = CARTESIAN_POINT('',(4.127687955306,0.725456360447));
#285 = CARTESIAN_POINT('',(4.157531826575,0.747145547399));
#286 = CARTESIAN_POINT('',(4.189561731135,0.767665972224));
#287 = CARTESIAN_POINT('',(4.223847147123,0.786885612789));
#288 = CARTESIAN_POINT('',(4.260416145772,0.804661971504));
#289 = CARTESIAN_POINT('',(4.299224242087,0.820848078137));
#290 = CARTESIAN_POINT('',(4.381051462326,0.849758202518));
#291 = CARTESIAN_POINT('',(4.4240705808,0.862482222473));
#292 = CARTESIAN_POINT('',(4.469061703297,0.873334368722));
#293 = CARTESIAN_POINT('',(4.51580190289,0.882180084372));
#294 = CARTESIAN_POINT('',(4.563964183126,0.888900917725));
#295 = CARTESIAN_POINT('',(4.613110971074,0.893410157536));
#296 = CARTESIAN_POINT('',(4.662749974125,0.895664793858));
#297 = CARTESIAN_POINT('',(4.712388980385,0.895664793858));
#298 = ( GEOMETRIC_REPRESENTATION_CONTEXT(2) 
PARAMETRIC_REPRESENTATION_CONTEXT() REPRESENTATION_CONTEXT('2D SPACE',''
  ) );
#299 = PCURVE('',#300,#305);
#300 = PLANE('',#301);
#301 = AXIS2_PLACEMENT_3D('',#302,#303,#304);
#302 = CARTESIAN_POINT('',(-120.,-25.,-120.));
#303 = DIRECTION('',(0.,1.,0.));
#304 = DIRECTION('',(0.,0.,1.));
#305 = DEFINITIONAL_REPRESENTATION('',(#306),#310);
#306 = CIRCLE('',#307,31.224989991992);
#307 = AXIS2_PLACEMENT_2D('',#308,#309);
#308 = CARTESIAN_POINT('',(120.,120.));
#309 = DIRECTION('',(1.,0.));
#310 = ( GEOMETRIC_REPRESENTATION_CONTEXT(2) 
PARAMETRIC_REPRESENTATION_CONTEXT() REPRESENTATION_CONTEXT('2D SPACE',''
  ) );
#311 = ADVANCED_FACE('',(#312),#158,.T.);
#312 = FACE_BOUND('',#313,.T.);
#313 = EDGE_LOOP('',(#314));
#314 = ORIENTED_EDGE('',*,*,#25,.T.);
#315 = ADVANCED_FACE('',(#316),#300,.F.);
#316 = FACE_BOUND('',#317,.F.);
#317 = EDGE_LOOP('',(#318));
#318 = ORIENTED_EDGE('',*,*,#172,.T.);
#319 = ( GEOMETRIC_REPRESENTATION_CONTEXT(3) 
GLOBAL_UNCERTAINTY_ASSIGNED_CONTEXT((#323)) GLOBAL_UNIT_ASSIGNED_CONTEXT
((#320,#321,#322)) REPRESENTATION_CONTEXT('Context #1',
  '3D Context with UNIT and UNCERTAINTY') );
#320 = ( LENGTH_UNIT() NAMED_UNIT(*) SI_UNIT(.MILLI.,.METRE.) );
#321 = ( NAMED_UNIT(*) PLANE_ANGLE_UNIT() SI_UNIT($,.RADIAN.) );
#322 = ( NAMED_UNIT(*) SI_UNIT($,.STERADIAN.) SOLID_ANGLE_UNIT() );
#323 = UNCERTAINTY_MEASURE_WITH_UNIT(LENGTH_MEASURE(1.E-07),#320,
  'distance_accuracy_value','confusion accuracy');
#324 = PRODUCT_RELATED_PRODUCT_CATEGORY('part',$,(#7));
ENDSEC;
END-ISO-10303-21;
