ISO-10303-21;
HEADER;
FILE_DESCRIPTION(('Open CASCADE Model'),'2;1');
FILE_NAME('Open CASCADE Shape Model','2026-08-07T04:35:43',('Author'),(
    'Open CASCADE'),'Open CASCADE STEP processor 7.7','Open CASCADE 7.7'
  ,'Unknown');
FILE_SCHEMA(('AUTOMOTIVE_DESIGN { 1 0 10303 214 1 1 1 1 }'));
ENDSEC;
DATA;
#1 = APPLICATION_PROTOCOL_DEFINITION('international standard',
  'automotive_design',2000,#2);
#2 = APPLICATION_CONTEXT(
  'core data for automotive mechanical design processes');
#3 = SHAPE_DEFINITION_REPRESENTATION(#4,#10);
#4 = PRODUCT_DEFINITION_SHAPE('','',#5);
#5 = PRODUCT_DEFINITION('design','',#6,#9);
#6 = PRODUCT_DEFINITION_FORMATION('','',#7);
#7 = PRODUCT('Open CASCADE STEP translator 7.7 13',
  'Open CASCADE STEP translator 7.7 13','',(#8));
#8 = PRODUCT_CONTEXT('',#2,'mechanical');
#9 = PRODUCT_DEFINITION_CONTEXT('part definition',#2,'design');
#10 = ADVANCED_BREP_SHAPE_REPRESENTATION('',(#11,#15),#1423);
#11 = AXIS2_PLACEMENT_3D('',#12,#13,#14);
#12 = CARTESIAN_POINT('',(0.,0.,0.));
#13 = DIRECTION('',(0.,0.,1.));
#14 = DIRECTION('',(1.,0.,-0.));
#15 = MANIFOLD_SOLID_BREP('',#16);
#16 = CLOSED_SHELL('',(#17,#251,#358,#407,#531,#1126,#1202,#1251,#1326,
    #1354,#1365,#1394));
#17 = ADVANCED_FACE('',(#18),#32,.F.);
#18 = FACE_BOUND('',#19,.F.);
#19 = EDGE_LOOP('',(#20,#55,#83,#111,#140,#168,#196,#224));
#20 = ORIENTED_EDGE('',*,*,#21,.F.);
#21 = EDGE_CURVE('',#22,#24,#26,.T.);
#22 = VERTEX_POINT('',#23);
#23 = CARTESIAN_POINT('',(27.,0.,0.));
#24 = VERTEX_POINT('',#25);
#25 = CARTESIAN_POINT('',(17.5,1.071565949254E-15,0.));
#26 = SURFACE_CURVE('',#27,(#31,#43),.PCURVE_S1.);
#27 = LINE('',#28,#29);
#28 = CARTESIAN_POINT('',(27.,0.,0.));
#29 = VECTOR('',#30,1.);
#30 = DIRECTION('',(-1.,1.127964157109E-16,0.));
#31 = PCURVE('',#32,#37);
#32 = PLANE('',#33);
#33 = AXIS2_PLACEMENT_3D('',#34,#35,#36);
#34 = CARTESIAN_POINT('',(-2.991758887411E-15,11.319103961744,0.));
#35 = DIRECTION('',(0.,0.,1.));
#36 = DIRECTION('',(1.,0.,-0.));
#37 = DEFINITIONAL_REPRESENTATION('',(#38),#42);
#38 = LINE('',#39,#40);
#39 = CARTESIAN_POINT('',(27.,-11.31910396174));
#40 = VECTOR('',#41,1.);
#41 = DIRECTION('',(-1.,1.127964157109E-16));
#42 = ( GEOMETRIC_REPRESENTATION_CONTEXT(2) 
PARAMETRIC_REPRESENTATION_CONTEXT() REPRESENTATION_CONTEXT('2D SPACE',''
  ) );
#43 = PCURVE('',#44,#49);
#44 = PLANE('',#45);
#45 = AXIS2_PLACEMENT_3D('',#46,#47,#48);
#46 = CARTESIAN_POINT('',(17.5,2.143131898508E-15,0.));
#47 = DIRECTION('',(2.85750919801E-16,1.,-0.));
#48 = DIRECTION('',(1.,-2.85750919801E-16,0.));
#49 = DEFINITIONAL_REPRESENTATION('',(#50),#54);
#50 = LINE('',#51,#52);
#51 = CARTESIAN_POINT('',(9.5,0.));
#52 = VECTOR('',#53,1.);
#53 = DIRECTION('',(-1.,-0.));
#54 = ( GEOMETRIC_REPRESENTATION_CONTEXT(2) 
PARAMETRIC_REPRESENTATION_CONTEXT() REPRESENTATION_CONTEXT('2D SPACE',''
  ) );
#55 = ORIENTED_EDGE('',*,*,#56,.T.);
#56 = EDGE_CURVE('',#22,#57,#59,.T.);
#57 = VERTEX_POINT('',#58);
#58 = CARTESIAN_POINT('',(27.,8.,0.));
#59 = SURFACE_CURVE('',#60,(#64,#71),.PCURVE_S1.);
#60 = LINE('',#61,#62);
#61 = CARTESIAN_POINT('',(27.,0.,0.));
#62 = VECTOR('',#63,1.);
#63 = DIRECTION('',(0.,1.,0.));
#64 = PCURVE('',#32,#65);
#65 = DEFINITIONAL_REPRESENTATION('',(#66),#70);
#66 = LINE('',#67,#68);
#67 = CARTESIAN_POINT('',(27.,-11.31910396174));
#68 = VECTOR('',#69,1.);
#69 = DIRECTION('',(0.,1.));
#70 = ( GEOMETRIC_REPRESENTATION_CONTEXT(2) 
PARAMETRIC_REPRESENTATION_CONTEXT() REPRESENTATION_CONTEXT('2D SPACE',''
  ) );
#71 = PCURVE('',#72,#77);
#72 = PLANE('',#73);
#73 = AXIS2_PLACEMENT_3D('',#74,#75,#76);
#74 = CARTESIAN_POINT('',(27.,0.,0.));
#75 = DIRECTION('',(-1.,0.,0.));
#76 = DIRECTION('',(0.,1.,0.));
#77 = DEFINITIONAL_REPRESENTATION('',(#78),#82);
#78 = LINE('',#79,#80);
#79 = CARTESIAN_POINT('',(0.,0.));
#80 = VECTOR('',#81,1.);
#81 = DIRECTION('',(1.,0.));
#82 = ( GEOMETRIC_REPRESENTATION_CONTEXT(2) 
PARAMETRIC_REPRESENTATION_CONTEXT() REPRESENTATION_CONTEXT('2D SPACE',''
  ) );
#83 = ORIENTED_EDGE('',*,*,#84,.T.);
#84 = EDGE_CURVE('',#57,#85,#87,.T.);
#85 = VERTEX_POINT('',#86);
#86 = CARTESIAN_POINT('',(23.685438564654,8.,0.));
#87 = SURFACE_CURVE('',#88,(#92,#99),.PCURVE_S1.);
#88 = LINE('',#89,#90);
#89 = CARTESIAN_POINT('',(27.,8.,0.));
#90 = VECTOR('',#91,1.);
#91 = DIRECTION('',(-1.,0.,0.));
#92 = PCURVE('',#32,#93);
#93 = DEFINITIONAL_REPRESENTATION('',(#94),#98);
#94 = LINE('',#95,#96);
#95 = CARTESIAN_POINT('',(27.,-3.319103961744));
#96 = VECTOR('',#97,1.);
#97 = DIRECTION('',(-1.,0.));
#98 = ( GEOMETRIC_REPRESENTATION_CONTEXT(2) 
PARAMETRIC_REPRESENTATION_CONTEXT() REPRESENTATION_CONTEXT('2D SPACE',''
  ) );
#99 = PCURVE('',#100,#105);
#100 = PLANE('',#101);
#101 = AXIS2_PLACEMENT_3D('',#102,#103,#104);
#102 = CARTESIAN_POINT('',(27.,8.,0.));
#103 = DIRECTION('',(0.,-1.,0.));
#104 = DIRECTION('',(-1.,0.,0.));
#105 = DEFINITIONAL_REPRESENTATION('',(#106),#110);
#106 = LINE('',#107,#108);
#107 = CARTESIAN_POINT('',(0.,-0.));
#108 = VECTOR('',#109,1.);
#109 = DIRECTION('',(1.,0.));
#110 = ( GEOMETRIC_REPRESENTATION_CONTEXT(2) 
PARAMETRIC_REPRESENTATION_CONTEXT() REPRESENTATION_CONTEXT('2D SPACE',''
  ) );
#111 = ORIENTED_EDGE('',*,*,#112,.T.);
#112 = EDGE_CURVE('',#85,#113,#115,.T.);
#113 = VERTEX_POINT('',#114);
#114 = CARTESIAN_POINT('',(-23.68543856465,8.,0.));
#115 = SURFACE_CURVE('',#116,(#121,#128),.PCURVE_S1.);
#116 = CIRCLE('',#117,25.);
#117 = AXIS2_PLACEMENT_3D('',#118,#119,#120);
#118 = CARTESIAN_POINT('',(-2.6645352591E-15,8.881784197001E-16,0.));
#119 = DIRECTION('',(0.,0.,1.));
#120 = DIRECTION('',(1.,-3.552713678801E-17,0.));
#121 = PCURVE('',#32,#122);
#122 = DEFINITIONAL_REPRESENTATION('',(#123),#127);
#123 = CIRCLE('',#124,25.);
#124 = AXIS2_PLACEMENT_2D('',#125,#126);
#125 = CARTESIAN_POINT('',(3.272236283106E-16,-11.31910396174));
#126 = DIRECTION('',(1.,-3.552713678801E-17));
#127 = ( GEOMETRIC_REPRESENTATION_CONTEXT(2) 
PARAMETRIC_REPRESENTATION_CONTEXT() REPRESENTATION_CONTEXT('2D SPACE',''
  ) );
#128 = PCURVE('',#129,#134);
#129 = CYLINDRICAL_SURFACE('',#130,25.);
#130 = AXIS2_PLACEMENT_3D('',#131,#132,#133);
#131 = CARTESIAN_POINT('',(-2.6645352591E-15,8.881784197001E-16,0.));
#132 = DIRECTION('',(-0.,-0.,-1.));
#133 = DIRECTION('',(1.,-3.552713678801E-17,0.));
#134 = DEFINITIONAL_REPRESENTATION('',(#135),#139);
#135 = LINE('',#136,#137);
#136 = CARTESIAN_POINT('',(-0.,0.));
#137 = VECTOR('',#138,1.);
#138 = DIRECTION('',(-1.,0.));
#139 = ( GEOMETRIC_REPRESENTATION_CONTEXT(2) 
PARAMETRIC_REPRESENTATION_CONTEXT() REPRESENTATION_CONTEXT('2D SPACE',''
  ) );
#140 = ORIENTED_EDGE('',*,*,#141,.T.);
#141 = EDGE_CURVE('',#113,#142,#144,.T.);
#142 = VERTEX_POINT('',#143);
#143 = CARTESIAN_POINT('',(-27.,8.,0.));
#144 = SURFACE_CURVE('',#145,(#149,#156),.PCURVE_S1.);
#145 = LINE('',#146,#147);
#146 = CARTESIAN_POINT('',(27.,8.,0.));
#147 = VECTOR('',#148,1.);
#148 = DIRECTION('',(-1.,0.,0.));
#149 = PCURVE('',#32,#150);
#150 = DEFINITIONAL_REPRESENTATION('',(#151),#155);
#151 = LINE('',#152,#153);
#152 = CARTESIAN_POINT('',(27.,-3.319103961744));
#153 = VECTOR('',#154,1.);
#154 = DIRECTION('',(-1.,0.));
#155 = ( GEOMETRIC_REPRESENTATION_CONTEXT(2) 
PARAMETRIC_REPRESENTATION_CONTEXT() REPRESENTATION_CONTEXT('2D SPACE',''
  ) );
#156 = PCURVE('',#157,#162);
#157 = PLANE('',#158);
#158 = AXIS2_PLACEMENT_3D('',#159,#160,#161);
#159 = CARTESIAN_POINT('',(27.,8.,0.));
#160 = DIRECTION('',(0.,-1.,0.));
#161 = DIRECTION('',(-1.,0.,0.));
#162 = DEFINITIONAL_REPRESENTATION('',(#163),#167);
#163 = LINE('',#164,#165);
#164 = CARTESIAN_POINT('',(0.,-0.));
#165 = VECTOR('',#166,1.);
#166 = DIRECTION('',(1.,0.));
#167 = ( GEOMETRIC_REPRESENTATION_CONTEXT(2) 
PARAMETRIC_REPRESENTATION_CONTEXT() REPRESENTATION_CONTEXT('2D SPACE',''
  ) );
#168 = ORIENTED_EDGE('',*,*,#169,.T.);
#169 = EDGE_CURVE('',#142,#170,#172,.T.);
#170 = VERTEX_POINT('',#171);
#171 = CARTESIAN_POINT('',(-27.,0.,0.));
#172 = SURFACE_CURVE('',#173,(#177,#184),.PCURVE_S1.);
#173 = LINE('',#174,#175);
#174 = CARTESIAN_POINT('',(-27.,8.,0.));
#175 = VECTOR('',#176,1.);
#176 = DIRECTION('',(0.,-1.,0.));
#177 = PCURVE('',#32,#178);
#178 = DEFINITIONAL_REPRESENTATION('',(#179),#183);
#179 = LINE('',#180,#181);
#180 = CARTESIAN_POINT('',(-27.,-3.319103961744));
#181 = VECTOR('',#182,1.);
#182 = DIRECTION('',(0.,-1.));
#183 = ( GEOMETRIC_REPRESENTATION_CONTEXT(2) 
PARAMETRIC_REPRESENTATION_CONTEXT() REPRESENTATION_CONTEXT('2D SPACE',''
  ) );
#184 = PCURVE('',#185,#190);
#185 = PLANE('',#186);
#186 = AXIS2_PLACEMENT_3D('',#187,#188,#189);
#187 = CARTESIAN_POINT('',(-27.,8.,0.));
#188 = DIRECTION('',(1.,0.,-0.));
#189 = DIRECTION('',(0.,-1.,0.));
#190 = DEFINITIONAL_REPRESENTATION('',(#191),#195);
#191 = LINE('',#192,#193);
#192 = CARTESIAN_POINT('',(0.,0.));
#193 = VECTOR('',#194,1.);
#194 = DIRECTION('',(1.,0.));
#195 = ( GEOMETRIC_REPRESENTATION_CONTEXT(2) 
PARAMETRIC_REPRESENTATION_CONTEXT() REPRESENTATION_CONTEXT('2D SPACE',''
  ) );
#196 = ORIENTED_EDGE('',*,*,#197,.F.);
#197 = EDGE_CURVE('',#198,#170,#200,.T.);
#198 = VERTEX_POINT('',#199);
#199 = CARTESIAN_POINT('',(-17.5,1.428754594739E-15,0.));
#200 = SURFACE_CURVE('',#201,(#205,#212),.PCURVE_S1.);
#201 = LINE('',#202,#203);
#202 = CARTESIAN_POINT('',(-17.5,1.428754594739E-15,0.));
#203 = VECTOR('',#204,1.);
#204 = DIRECTION('',(-1.,-1.503952204988E-16,0.));
#205 = PCURVE('',#32,#206);
#206 = DEFINITIONAL_REPRESENTATION('',(#207),#211);
#207 = LINE('',#208,#209);
#208 = CARTESIAN_POINT('',(-17.5,-11.31910396174));
#209 = VECTOR('',#210,1.);
#210 = DIRECTION('',(-1.,-1.503952204988E-16));
#211 = ( GEOMETRIC_REPRESENTATION_CONTEXT(2) 
PARAMETRIC_REPRESENTATION_CONTEXT() REPRESENTATION_CONTEXT('2D SPACE',''
  ) );
#212 = PCURVE('',#213,#218);
#213 = PLANE('',#214);
#214 = AXIS2_PLACEMENT_3D('',#215,#216,#217);
#215 = CARTESIAN_POINT('',(-25.,4.837973837269E-15,0.));
#216 = DIRECTION('',(6.450631783025E-16,1.,-0.));
#217 = DIRECTION('',(1.,-6.450631783025E-16,0.));
#218 = DEFINITIONAL_REPRESENTATION('',(#219),#223);
#219 = LINE('',#220,#221);
#220 = CARTESIAN_POINT('',(7.5,0.));
#221 = VECTOR('',#222,1.);
#222 = DIRECTION('',(-1.,-0.));
#223 = ( GEOMETRIC_REPRESENTATION_CONTEXT(2) 
PARAMETRIC_REPRESENTATION_CONTEXT() REPRESENTATION_CONTEXT('2D SPACE',''
  ) );
#224 = ORIENTED_EDGE('',*,*,#225,.F.);
#225 = EDGE_CURVE('',#24,#198,#226,.T.);
#226 = SURFACE_CURVE('',#227,(#232,#239),.PCURVE_S1.);
#227 = CIRCLE('',#228,17.5);
#228 = AXIS2_PLACEMENT_3D('',#229,#230,#231);
#229 = CARTESIAN_POINT('',(1.7763568394E-15,0.,0.));
#230 = DIRECTION('',(0.,0.,1.));
#231 = DIRECTION('',(1.,6.123233995737E-17,-0.));
#232 = PCURVE('',#32,#233);
#233 = DEFINITIONAL_REPRESENTATION('',(#234),#238);
#234 = CIRCLE('',#235,17.5);
#235 = AXIS2_PLACEMENT_2D('',#236,#237);
#236 = CARTESIAN_POINT('',(4.768115726811E-15,-11.31910396174));
#237 = DIRECTION('',(1.,6.123233995737E-17));
#238 = ( GEOMETRIC_REPRESENTATION_CONTEXT(2) 
PARAMETRIC_REPRESENTATION_CONTEXT() REPRESENTATION_CONTEXT('2D SPACE',''
  ) );
#239 = PCURVE('',#240,#245);
#240 = CYLINDRICAL_SURFACE('',#241,17.5);
#241 = AXIS2_PLACEMENT_3D('',#242,#243,#244);
#242 = CARTESIAN_POINT('',(1.7763568394E-15,0.,0.));
#243 = DIRECTION('',(0.,0.,-1.));
#244 = DIRECTION('',(-1.,0.,0.));
#245 = DEFINITIONAL_REPRESENTATION('',(#246),#250);
#246 = LINE('',#247,#248);
#247 = CARTESIAN_POINT('',(3.14159265359,0.));
#248 = VECTOR('',#249,1.);
#249 = DIRECTION('',(-1.,-0.));
#250 = ( GEOMETRIC_REPRESENTATION_CONTEXT(2) 
PARAMETRIC_REPRESENTATION_CONTEXT() REPRESENTATION_CONTEXT('2D SPACE',''
  ) );
#251 = ADVANCED_FACE('',(#252,#327),#44,.F.);
#252 = FACE_BOUND('',#253,.F.);
#253 = EDGE_LOOP('',(#254,#277,#305,#326));
#254 = ORIENTED_EDGE('',*,*,#255,.T.);
#255 = EDGE_CURVE('',#24,#256,#258,.T.);
#256 = VERTEX_POINT('',#257);
#257 = CARTESIAN_POINT('',(17.5,1.071565949254E-15,40.));
#258 = SURFACE_CURVE('',#259,(#263,#270),.PCURVE_S1.);
#259 = LINE('',#260,#261);
#260 = CARTESIAN_POINT('',(17.5,2.143131898508E-15,0.));
#261 = VECTOR('',#262,1.);
#262 = DIRECTION('',(0.,0.,1.));
#263 = PCURVE('',#44,#264);
#264 = DEFINITIONAL_REPRESENTATION('',(#265),#269);
#265 = LINE('',#266,#267);
#266 = CARTESIAN_POINT('',(0.,0.));
#267 = VECTOR('',#268,1.);
#268 = DIRECTION('',(0.,-1.));
#269 = ( GEOMETRIC_REPRESENTATION_CONTEXT(2) 
PARAMETRIC_REPRESENTATION_CONTEXT() REPRESENTATION_CONTEXT('2D SPACE',''
  ) );
#270 = PCURVE('',#240,#271);
#271 = DEFINITIONAL_REPRESENTATION('',(#272),#276);
#272 = LINE('',#273,#274);
#273 = CARTESIAN_POINT('',(3.14159265359,0.));
#274 = VECTOR('',#275,1.);
#275 = DIRECTION('',(0.,-1.));
#276 = ( GEOMETRIC_REPRESENTATION_CONTEXT(2) 
PARAMETRIC_REPRESENTATION_CONTEXT() REPRESENTATION_CONTEXT('2D SPACE',''
  ) );
#277 = ORIENTED_EDGE('',*,*,#278,.F.);
#278 = EDGE_CURVE('',#279,#256,#281,.T.);
#279 = VERTEX_POINT('',#280);
#280 = CARTESIAN_POINT('',(27.,0.,40.));
#281 = SURFACE_CURVE('',#282,(#286,#293),.PCURVE_S1.);
#282 = LINE('',#283,#284);
#283 = CARTESIAN_POINT('',(27.,0.,40.));
#284 = VECTOR('',#285,1.);
#285 = DIRECTION('',(-1.,1.127964157109E-16,0.));
#286 = PCURVE('',#44,#287);
#287 = DEFINITIONAL_REPRESENTATION('',(#288),#292);
#288 = LINE('',#289,#290);
#289 = CARTESIAN_POINT('',(9.5,-40.));
#290 = VECTOR('',#291,1.);
#291 = DIRECTION('',(-1.,-0.));
#292 = ( GEOMETRIC_REPRESENTATION_CONTEXT(2) 
PARAMETRIC_REPRESENTATION_CONTEXT() REPRESENTATION_CONTEXT('2D SPACE',''
  ) );
#293 = PCURVE('',#294,#299);
#294 = PLANE('',#295);
#295 = AXIS2_PLACEMENT_3D('',#296,#297,#298);
#296 = CARTESIAN_POINT('',(-2.991758887411E-15,11.319103961744,40.));
#297 = DIRECTION('',(0.,0.,1.));
#298 = DIRECTION('',(1.,0.,-0.));
#299 = DEFINITIONAL_REPRESENTATION('',(#300),#304);
#300 = LINE('',#301,#302);
#301 = CARTESIAN_POINT('',(27.,-11.31910396174));
#302 = VECTOR('',#303,1.);
#303 = DIRECTION('',(-1.,1.127964157109E-16));
#304 = ( GEOMETRIC_REPRESENTATION_CONTEXT(2) 
PARAMETRIC_REPRESENTATION_CONTEXT() REPRESENTATION_CONTEXT('2D SPACE',''
  ) );
#305 = ORIENTED_EDGE('',*,*,#306,.F.);
#306 = EDGE_CURVE('',#22,#279,#307,.T.);
#307 = SURFACE_CURVE('',#308,(#312,#319),.PCURVE_S1.);
#308 = LINE('',#309,#310);
#309 = CARTESIAN_POINT('',(27.,0.,0.));
#310 = VECTOR('',#311,1.);
#311 = DIRECTION('',(0.,0.,1.));
#312 = PCURVE('',#44,#313);
#313 = DEFINITIONAL_REPRESENTATION('',(#314),#318);
#314 = LINE('',#315,#316);
#315 = CARTESIAN_POINT('',(9.5,0.));
#316 = VECTOR('',#317,1.);
#317 = DIRECTION('',(0.,-1.));
#318 = ( GEOMETRIC_REPRESENTATION_CONTEXT(2) 
PARAMETRIC_REPRESENTATION_CONTEXT() REPRESENTATION_CONTEXT('2D SPACE',''
  ) );
#319 = PCURVE('',#72,#320);
#320 = DEFINITIONAL_REPRESENTATION('',(#321),#325);
#321 = LINE('',#322,#323);
#322 = CARTESIAN_POINT('',(0.,0.));
#323 = VECTOR('',#324,1.);
#324 = DIRECTION('',(0.,-1.));
#325 = ( GEOMETRIC_REPRESENTATION_CONTEXT(2) 
PARAMETRIC_REPRESENTATION_CONTEXT() REPRESENTATION_CONTEXT('2D SPACE',''
  ) );
#326 = ORIENTED_EDGE('',*,*,#21,.T.);
#327 = FACE_BOUND('',#328,.F.);
#328 = EDGE_LOOP('',(#329));
#329 = ORIENTED_EDGE('',*,*,#330,.F.);
#330 = EDGE_CURVE('',#331,#331,#333,.T.);
#331 = VERTEX_POINT('',#332);
#332 = CARTESIAN_POINT('',(25.25,0.,20.));
#333 = SURFACE_CURVE('',#334,(#339,#346),.PCURVE_S1.);
#334 = CIRCLE('',#335,3.);
#335 = AXIS2_PLACEMENT_3D('',#336,#337,#338);
#336 = CARTESIAN_POINT('',(22.25,0.,20.));
#337 = DIRECTION('',(-0.,1.,0.));
#338 = DIRECTION('',(1.,0.,0.));
#339 = PCURVE('',#44,#340);
#340 = DEFINITIONAL_REPRESENTATION('',(#341),#345);
#341 = CIRCLE('',#342,3.);
#342 = AXIS2_PLACEMENT_2D('',#343,#344);
#343 = CARTESIAN_POINT('',(4.75,-20.));
#344 = DIRECTION('',(1.,0.));
#345 = ( GEOMETRIC_REPRESENTATION_CONTEXT(2) 
PARAMETRIC_REPRESENTATION_CONTEXT() REPRESENTATION_CONTEXT('2D SPACE',''
  ) );
#346 = PCURVE('',#347,#352);
#347 = CYLINDRICAL_SURFACE('',#348,3.);
#348 = AXIS2_PLACEMENT_3D('',#349,#350,#351);
#349 = CARTESIAN_POINT('',(22.25,20.,20.));
#350 = DIRECTION('',(-0.,1.,-0.));
#351 = DIRECTION('',(1.,0.,0.));
#352 = DEFINITIONAL_REPRESENTATION('',(#353),#357);
#353 = LINE('',#354,#355);
#354 = CARTESIAN_POINT('',(-6.28318530718,-20.));
#355 = VECTOR('',#356,1.);
#356 = DIRECTION('',(1.,-0.));
#357 = ( GEOMETRIC_REPRESENTATION_CONTEXT(2) 
PARAMETRIC_REPRESENTATION_CONTEXT() REPRESENTATION_CONTEXT('2D SPACE',''
  ) );
#358 = ADVANCED_FACE('',(#359),#72,.F.);
#359 = FACE_BOUND('',#360,.F.);
#360 = EDGE_LOOP('',(#361,#362,#385,#406));
#361 = ORIENTED_EDGE('',*,*,#306,.T.);
#362 = ORIENTED_EDGE('',*,*,#363,.T.);
#363 = EDGE_CURVE('',#279,#364,#366,.T.);
#364 = VERTEX_POINT('',#365);
#365 = CARTESIAN_POINT('',(27.,8.,40.));
#366 = SURFACE_CURVE('',#367,(#371,#378),.PCURVE_S1.);
#367 = LINE('',#368,#369);
#368 = CARTESIAN_POINT('',(27.,0.,40.));
#369 = VECTOR('',#370,1.);
#370 = DIRECTION('',(0.,1.,0.));
#371 = PCURVE('',#72,#372);
#372 = DEFINITIONAL_REPRESENTATION('',(#373),#377);
#373 = LINE('',#374,#375);
#374 = CARTESIAN_POINT('',(0.,-40.));
#375 = VECTOR('',#376,1.);
#376 = DIRECTION('',(1.,0.));
#377 = ( GEOMETRIC_REPRESENTATION_CONTEXT(2) 
PARAMETRIC_REPRESENTATION_CONTEXT() REPRESENTATION_CONTEXT('2D SPACE',''
  ) );
#378 = PCURVE('',#294,#379);
#379 = DEFINITIONAL_REPRESENTATION('',(#380),#384);
#380 = LINE('',#381,#382);
#381 = CARTESIAN_POINT('',(27.,-11.31910396174));
#382 = VECTOR('',#383,1.);
#383 = DIRECTION('',(0.,1.));
#384 = ( GEOMETRIC_REPRESENTATION_CONTEXT(2) 
PARAMETRIC_REPRESENTATION_CONTEXT() REPRESENTATION_CONTEXT('2D SPACE',''
  ) );
#385 = ORIENTED_EDGE('',*,*,#386,.F.);
#386 = EDGE_CURVE('',#57,#364,#387,.T.);
#387 = SURFACE_CURVE('',#388,(#392,#399),.PCURVE_S1.);
#388 = LINE('',#389,#390);
#389 = CARTESIAN_POINT('',(27.,8.,0.));
#390 = VECTOR('',#391,1.);
#391 = DIRECTION('',(0.,0.,1.));
#392 = PCURVE('',#72,#393);
#393 = DEFINITIONAL_REPRESENTATION('',(#394),#398);
#394 = LINE('',#395,#396);
#395 = CARTESIAN_POINT('',(8.,0.));
#396 = VECTOR('',#397,1.);
#397 = DIRECTION('',(0.,-1.));
#398 = ( GEOMETRIC_REPRESENTATION_CONTEXT(2) 
PARAMETRIC_REPRESENTATION_CONTEXT() REPRESENTATION_CONTEXT('2D SPACE',''
  ) );
#399 = PCURVE('',#100,#400);
#400 = DEFINITIONAL_REPRESENTATION('',(#401),#405);
#401 = LINE('',#402,#403);
#402 = CARTESIAN_POINT('',(0.,-0.));
#403 = VECTOR('',#404,1.);
#404 = DIRECTION('',(0.,-1.));
#405 = ( GEOMETRIC_REPRESENTATION_CONTEXT(2) 
PARAMETRIC_REPRESENTATION_CONTEXT() REPRESENTATION_CONTEXT('2D SPACE',''
  ) );
#406 = ORIENTED_EDGE('',*,*,#56,.F.);
#407 = ADVANCED_FACE('',(#408),#100,.F.);
#408 = FACE_BOUND('',#409,.F.);
#409 = EDGE_LOOP('',(#410,#411,#412,#435,#456,#484,#512));
#410 = ORIENTED_EDGE('',*,*,#84,.F.);
#411 = ORIENTED_EDGE('',*,*,#386,.T.);
#412 = ORIENTED_EDGE('',*,*,#413,.T.);
#413 = EDGE_CURVE('',#364,#414,#416,.T.);
#414 = VERTEX_POINT('',#415);
#415 = CARTESIAN_POINT('',(23.685438564654,8.,40.));
#416 = SURFACE_CURVE('',#417,(#421,#428),.PCURVE_S1.);
#417 = LINE('',#418,#419);
#418 = CARTESIAN_POINT('',(27.,8.,40.));
#419 = VECTOR('',#420,1.);
#420 = DIRECTION('',(-1.,0.,0.));
#421 = PCURVE('',#100,#422);
#422 = DEFINITIONAL_REPRESENTATION('',(#423),#427);
#423 = LINE('',#424,#425);
#424 = CARTESIAN_POINT('',(0.,-40.));
#425 = VECTOR('',#426,1.);
#426 = DIRECTION('',(1.,0.));
#427 = ( GEOMETRIC_REPRESENTATION_CONTEXT(2) 
PARAMETRIC_REPRESENTATION_CONTEXT() REPRESENTATION_CONTEXT('2D SPACE',''
  ) );
#428 = PCURVE('',#294,#429);
#429 = DEFINITIONAL_REPRESENTATION('',(#430),#434);
#430 = LINE('',#431,#432);
#431 = CARTESIAN_POINT('',(27.,-3.319103961744));
#432 = VECTOR('',#433,1.);
#433 = DIRECTION('',(-1.,0.));
#434 = ( GEOMETRIC_REPRESENTATION_CONTEXT(2) 
PARAMETRIC_REPRESENTATION_CONTEXT() REPRESENTATION_CONTEXT('2D SPACE',''
  ) );
#435 = ORIENTED_EDGE('',*,*,#436,.T.);
#436 = EDGE_CURVE('',#414,#437,#439,.T.);
#437 = VERTEX_POINT('',#438);
#438 = CARTESIAN_POINT('',(23.685438564654,8.,22.634296135043));
#439 = SURFACE_CURVE('',#440,(#444,#450),.PCURVE_S1.);
#440 = LINE('',#441,#442);
#441 = CARTESIAN_POINT('',(23.685438564654,8.,0.));
#442 = VECTOR('',#443,1.);
#443 = DIRECTION('',(-0.,-0.,-1.));
#444 = PCURVE('',#100,#445);
#445 = DEFINITIONAL_REPRESENTATION('',(#446),#449);
#446 = B_SPLINE_CURVE_WITH_KNOTS('',1,(#447,#448),.UNSPECIFIED.,.F.,.F.,
  (2,2),(-40.0000006,6.E-07),.PIECEWISE_BEZIER_KNOTS.);
#447 = CARTESIAN_POINT('',(3.314561435346,-40.0000006));
#448 = CARTESIAN_POINT('',(3.314561435346,6.E-07));
#449 = ( GEOMETRIC_REPRESENTATION_CONTEXT(2) 
PARAMETRIC_REPRESENTATION_CONTEXT() REPRESENTATION_CONTEXT('2D SPACE',''
  ) );
#450 = PCURVE('',#129,#451);
#451 = DEFINITIONAL_REPRESENTATION('',(#452),#455);
#452 = B_SPLINE_CURVE_WITH_KNOTS('',1,(#453,#454),.UNSPECIFIED.,.F.,.F.,
  (2,2),(-40.0000006,6.E-07),.PIECEWISE_BEZIER_KNOTS.);
#453 = CARTESIAN_POINT('',(-0.325729487295,-40.0000006));
#454 = CARTESIAN_POINT('',(-0.325729487295,6.E-07));
#455 = ( GEOMETRIC_REPRESENTATION_CONTEXT(2) 
PARAMETRIC_REPRESENTATION_CONTEXT() REPRESENTATION_CONTEXT('2D SPACE',''
  ) );
#456 = ORIENTED_EDGE('',*,*,#457,.T.);
#457 = EDGE_CURVE('',#437,#458,#460,.T.);
#458 = VERTEX_POINT('',#459);
#459 = CARTESIAN_POINT('',(25.25,8.,20.));
#460 = SURFACE_CURVE('',#461,(#466,#477),.PCURVE_S1.);
#461 = CIRCLE('',#462,3.);
#462 = AXIS2_PLACEMENT_3D('',#463,#464,#465);
#463 = CARTESIAN_POINT('',(22.25,8.,20.));
#464 = DIRECTION('',(-0.,1.,0.));
#465 = DIRECTION('',(1.,0.,0.));
#466 = PCURVE('',#100,#467);
#467 = DEFINITIONAL_REPRESENTATION('',(#468),#476);
#468 = ( BOUNDED_CURVE() B_SPLINE_CURVE(2,(#469,#470,#471,#472,#473,#474
,#475),.UNSPECIFIED.,.T.,.F.) B_SPLINE_CURVE_WITH_KNOTS((1,2,2,2,2,1),(
    -2.094395102393,0.,2.094395102393,4.188790204786,6.28318530718,
8.377580409573),.UNSPECIFIED.) CURVE() GEOMETRIC_REPRESENTATION_ITEM() 
RATIONAL_B_SPLINE_CURVE((1.,0.5,1.,0.5,1.,0.5,1.)) REPRESENTATION_ITEM(
  '') );
#469 = CARTESIAN_POINT('',(1.75,-20.));
#470 = CARTESIAN_POINT('',(1.75,-14.80384757729));
#471 = CARTESIAN_POINT('',(6.25,-17.40192378864));
#472 = CARTESIAN_POINT('',(10.75,-20.));
#473 = CARTESIAN_POINT('',(6.25,-22.59807621135));
#474 = CARTESIAN_POINT('',(1.75,-25.1961524227));
#475 = CARTESIAN_POINT('',(1.75,-20.));
#476 = ( GEOMETRIC_REPRESENTATION_CONTEXT(2) 
PARAMETRIC_REPRESENTATION_CONTEXT() REPRESENTATION_CONTEXT('2D SPACE',''
  ) );
#477 = PCURVE('',#347,#478);
#478 = DEFINITIONAL_REPRESENTATION('',(#479),#483);
#479 = LINE('',#480,#481);
#480 = CARTESIAN_POINT('',(-6.28318530718,-12.));
#481 = VECTOR('',#482,1.);
#482 = DIRECTION('',(1.,-0.));
#483 = ( GEOMETRIC_REPRESENTATION_CONTEXT(2) 
PARAMETRIC_REPRESENTATION_CONTEXT() REPRESENTATION_CONTEXT('2D SPACE',''
  ) );
#484 = ORIENTED_EDGE('',*,*,#485,.T.);
#485 = EDGE_CURVE('',#458,#486,#488,.T.);
#486 = VERTEX_POINT('',#487);
#487 = CARTESIAN_POINT('',(23.685438564654,8.,17.365703864957));
#488 = SURFACE_CURVE('',#489,(#494,#505),.PCURVE_S1.);
#489 = CIRCLE('',#490,3.);
#490 = AXIS2_PLACEMENT_3D('',#491,#492,#493);
#491 = CARTESIAN_POINT('',(22.25,8.,20.));
#492 = DIRECTION('',(-0.,1.,0.));
#493 = DIRECTION('',(1.,0.,0.));
#494 = PCURVE('',#100,#495);
#495 = DEFINITIONAL_REPRESENTATION('',(#496),#504);
#496 = ( BOUNDED_CURVE() B_SPLINE_CURVE(2,(#497,#498,#499,#500,#501,#502
,#503),.UNSPECIFIED.,.T.,.F.) B_SPLINE_CURVE_WITH_KNOTS((1,2,2,2,2,1),(
    -2.094395102393,0.,2.094395102393,4.188790204786,6.28318530718,
8.377580409573),.UNSPECIFIED.) CURVE() GEOMETRIC_REPRESENTATION_ITEM() 
RATIONAL_B_SPLINE_CURVE((1.,0.5,1.,0.5,1.,0.5,1.)) REPRESENTATION_ITEM(
  '') );
#497 = CARTESIAN_POINT('',(1.75,-20.));
#498 = CARTESIAN_POINT('',(1.75,-14.80384757729));
#499 = CARTESIAN_POINT('',(6.25,-17.40192378864));
#500 = CARTESIAN_POINT('',(10.75,-20.));
#501 = CARTESIAN_POINT('',(6.25,-22.59807621135));
#502 = CARTESIAN_POINT('',(1.75,-25.1961524227));
#503 = CARTESIAN_POINT('',(1.75,-20.));
#504 = ( GEOMETRIC_REPRESENTATION_CONTEXT(2) 
PARAMETRIC_REPRESENTATION_CONTEXT() REPRESENTATION_CONTEXT('2D SPACE',''
  ) );
#505 = PCURVE('',#347,#506);
#506 = DEFINITIONAL_REPRESENTATION('',(#507),#511);
#507 = LINE('',#508,#509);
#508 = CARTESIAN_POINT('',(-6.28318530718,-12.));
#509 = VECTOR('',#510,1.);
#510 = DIRECTION('',(1.,-0.));
#511 = ( GEOMETRIC_REPRESENTATION_CONTEXT(2) 
PARAMETRIC_REPRESENTATION_CONTEXT() REPRESENTATION_CONTEXT('2D SPACE',''
  ) );
#512 = ORIENTED_EDGE('',*,*,#513,.T.);
#513 = EDGE_CURVE('',#486,#85,#514,.T.);
#514 = SURFACE_CURVE('',#515,(#519,#525),.PCURVE_S1.);
#515 = LINE('',#516,#517);
#516 = CARTESIAN_POINT('',(23.685438564654,8.,0.));
#517 = VECTOR('',#518,1.);
#518 = DIRECTION('',(-0.,-0.,-1.));
#519 = PCURVE('',#100,#520);
#520 = DEFINITIONAL_REPRESENTATION('',(#521),#524);
#521 = B_SPLINE_CURVE_WITH_KNOTS('',1,(#522,#523),.UNSPECIFIED.,.F.,.F.,
  (2,2),(-40.0000006,6.E-07),.PIECEWISE_BEZIER_KNOTS.);
#522 = CARTESIAN_POINT('',(3.314561435346,-40.0000006));
#523 = CARTESIAN_POINT('',(3.314561435346,6.E-07));
#524 = ( GEOMETRIC_REPRESENTATION_CONTEXT(2) 
PARAMETRIC_REPRESENTATION_CONTEXT() REPRESENTATION_CONTEXT('2D SPACE',''
  ) );
#525 = PCURVE('',#129,#526);
#526 = DEFINITIONAL_REPRESENTATION('',(#527),#530);
#527 = B_SPLINE_CURVE_WITH_KNOTS('',1,(#528,#529),.UNSPECIFIED.,.F.,.F.,
  (2,2),(-40.0000006,6.E-07),.PIECEWISE_BEZIER_KNOTS.);
#528 = CARTESIAN_POINT('',(-0.325729487295,-40.0000006));
#529 = CARTESIAN_POINT('',(-0.325729487295,6.E-07));
#530 = ( GEOMETRIC_REPRESENTATION_CONTEXT(2) 
PARAMETRIC_REPRESENTATION_CONTEXT() REPRESENTATION_CONTEXT('2D SPACE',''
  ) );
#531 = ADVANCED_FACE('',(#532),#129,.T.);
#532 = FACE_BOUND('',#533,.F.);
#533 = EDGE_LOOP('',(#534,#535,#536,#806,#807,#831,#852,#982,#1107));
#534 = ORIENTED_EDGE('',*,*,#112,.F.);
#535 = ORIENTED_EDGE('',*,*,#513,.F.);
#536 = ORIENTED_EDGE('',*,*,#537,.F.);
#537 = EDGE_CURVE('',#437,#486,#538,.T.);
#538 = SURFACE_CURVE('',#539,(#626,#716),.PCURVE_S1.);
#539 = B_SPLINE_CURVE_WITH_KNOTS('',8,(#540,#541,#542,#543,#544,#545,
    #546,#547,#548,#549,#550,#551,#552,#553,#554,#555,#556,#557,#558,
    #559,#560,#561,#562,#563,#564,#565,#566,#567,#568,#569,#570,#571,
    #572,#573,#574,#575,#576,#577,#578,#579,#580,#581,#582,#583,#584,
    #585,#586,#587,#588,#589,#590,#591,#592,#593,#594,#595,#596,#597,
    #598,#599,#600,#601,#602,#603,#604,#605,#606,#607,#608,#609,#610,
    #611,#612,#613,#614,#615,#616,#617,#618,#619,#620,#621,#622,#623,
    #624,#625),.UNSPECIFIED.,.F.,.F.,(9,7,7,7,7,7,7,7,7,7,7,7,9),(0.,
    0.257730096084,0.385846763337,0.428101886411,0.451811961614,
    0.46724062235,0.500390917516,0.538993414377,0.55552712292,
    0.583819541449,0.640751712555,0.727812507951,1.),.UNSPECIFIED.);
#540 = CARTESIAN_POINT('',(23.685438564654,8.,22.634296135043));
#541 = CARTESIAN_POINT('',(23.47313366187,8.628566841482,22.749981930906
    ));
#542 = CARTESIAN_POINT('',(23.241975189109,9.250071650066,
    22.850579607313));
#543 = CARTESIAN_POINT('',(22.990185723932,9.869994980413,
    22.933636569335));
#544 = CARTESIAN_POINT('',(22.716026491208,10.490362894315,
    22.995183361106));
#545 = CARTESIAN_POINT('',(22.41850637338,11.1103757207,23.02939593266)
  );
#546 = CARTESIAN_POINT('',(22.097911216735,11.726736940647,
    23.028425791381));
#547 = CARTESIAN_POINT('',(21.756752076389,12.333456563821,
    22.982157056813));
#548 = CARTESIAN_POINT('',(21.226072780376,13.212496935373,
    22.825830185795));
#549 = CARTESIAN_POINT('',(21.045751810513,13.500907293838,
    22.759311332672));
#550 = CARTESIAN_POINT('',(20.862178461569,13.78450922755,
    22.676369208518));
#551 = CARTESIAN_POINT('',(20.676648062378,14.061511104162,
    22.575011160671));
#552 = CARTESIAN_POINT('',(20.490955648591,14.329689053805,
    22.453065620826));
#553 = CARTESIAN_POINT('',(20.3075590404,14.586308670896,22.30823161998)
  );
#554 = CARTESIAN_POINT('',(20.129829061832,14.827924814887,
    22.138193588518));
#555 = CARTESIAN_POINT('',(19.907148417051,15.123288611867,
    21.875722348084));
#556 = CARTESIAN_POINT('',(19.853076420676,15.194370711855,
    21.807696911163));
#557 = CARTESIAN_POINT('',(19.800373128252,15.263057335206,
    21.736731832222));
#558 = CARTESIAN_POINT('',(19.749255646816,15.329129660816,
    21.662829634896));
#559 = CARTESIAN_POINT('',(19.69994501499,15.392371886888,
    21.586007061246));
#560 = CARTESIAN_POINT('',(19.652665112653,15.452570776999,
    21.506295196763));
#561 = CARTESIAN_POINT('',(19.607641570601,15.509515206161,
    21.423739595377));
#562 = CARTESIAN_POINT('',(19.541230256078,15.593004534272,
    21.290515118909));
#563 = CARTESIAN_POINT('',(19.518146255079,15.621916732744,
    21.241762896989));
#564 = CARTESIAN_POINT('',(19.495894190515,15.649688369769,
    21.192167089159));
#565 = CARTESIAN_POINT('',(19.474518284445,15.676277467263,
    21.141753242472));
#566 = CARTESIAN_POINT('',(19.454061340357,15.701643954598,
    21.090549096862));
#567 = CARTESIAN_POINT('',(19.434564615816,15.725749621589,
    21.038584581442));
#568 = CARTESIAN_POINT('',(19.416067695124,15.748558071491,
    20.985891810792));
#569 = CARTESIAN_POINT('',(19.3872471948,15.78400996555,20.897765177191)
  );
#570 = CARTESIAN_POINT('',(19.376326161151,15.797420321358,
    20.86273398878));
#571 = CARTESIAN_POINT('',(19.365856080059,15.810255750453,
    20.827422273028));
#572 = CARTESIAN_POINT('',(19.355847324644,15.822506686666,
    20.791841525459));
#573 = CARTESIAN_POINT('',(19.346309822112,15.834163988617,
    20.756003980107));
#574 = CARTESIAN_POINT('',(19.33725305375,15.845218939717,
    20.719922609521));
#575 = CARTESIAN_POINT('',(19.328686054925,15.855663248171,
    20.683611124764));
#576 = CARTESIAN_POINT('',(19.303280991882,15.886600933232,
    20.568601091947));
#577 = CARTESIAN_POINT('',(19.288241603846,15.904861700179,
    20.489106966964));
#578 = CARTESIAN_POINT('',(19.275587609547,15.920189240695,
    20.408758457119));
#579 = CARTESIAN_POINT('',(19.265390672599,15.932517878076,
    20.327717006937));
#580 = CARTESIAN_POINT('',(19.257705360822,15.941798227005,
    20.246148447588));
#581 = CARTESIAN_POINT('',(19.252568745393,15.947997054512,
    20.164222795651));
#582 = CARTESIAN_POINT('',(19.25,15.951097140949,20.082114051886));
#583 = CARTESIAN_POINT('',(19.25,15.951097140949,19.904380717751));
#584 = CARTESIAN_POINT('',(19.253482944235,15.946893665823,
    19.808777360629));
#585 = CARTESIAN_POINT('',(19.260447184166,15.938489387732,
    19.713463396475));
#586 = CARTESIAN_POINT('',(19.27085727525,15.925916069573,
    19.618710276124));
#587 = CARTESIAN_POINT('',(19.284645317619,15.909234452202,
    19.524784075035));
#588 = CARTESIAN_POINT('',(19.301712296761,15.888534141676,
    19.431942134921));
#589 = CARTESIAN_POINT('',(19.321929424206,15.863933496485,
    19.340429705375));
#590 = CARTESIAN_POINT('',(19.355080500133,15.82343531408,
    19.211949060404));
#591 = CARTESIAN_POINT('',(19.365571904649,15.810601009427,
    19.173702794007));
#592 = CARTESIAN_POINT('',(19.376601995762,15.797087324064,
    19.135753863973));
#593 = CARTESIAN_POINT('',(19.38815859335,15.782905461835,
    19.098117430684));
#594 = CARTESIAN_POINT('',(19.400229033153,15.768067107186,
    19.060807737246));
#595 = CARTESIAN_POINT('',(19.412800166775,15.752584425167,
    19.023838109481));
#596 = CARTESIAN_POINT('',(19.425858361681,15.736470061428,
    18.987220955936));
#597 = CARTESIAN_POINT('',(19.462543935155,15.691103835176,
    18.888931451762));
#598 = CARTESIAN_POINT('',(19.487079243198,15.66066432569,18.82797223766
    ));
#599 = CARTESIAN_POINT('',(19.512928412179,15.628480182504,
    18.768136781453));
#600 = CARTESIAN_POINT('',(19.540021984288,15.594615513892,
    18.709467576805));
#601 = CARTESIAN_POINT('',(19.568288330082,15.559137068743,
    18.65200295502));
#602 = CARTESIAN_POINT('',(19.597653921517,15.522114337631,
    18.595777084917));
#603 = CARTESIAN_POINT('',(19.628043604973,15.483619653888,
    18.540819972689));
#604 = CARTESIAN_POINT('',(19.722440127293,15.363455846931,
    18.37917364801));
#605 = CARTESIAN_POINT('',(19.78929295922,15.277583517885,
    18.276506690078));
#606 = CARTESIAN_POINT('',(19.859408794605,15.186607226192,
    18.179178691398));
#607 = CARTESIAN_POINT('',(19.932284437197,15.091003886527,
    18.087172711477));
#608 = CARTESIAN_POINT('',(20.007443040098,14.991236611931,
    18.000437228246));
#609 = CARTESIAN_POINT('',(20.08443307591,14.887759916148,
    17.918890600411));
#610 = CARTESIAN_POINT('',(20.162827306883,14.781024915972,
    17.842425529783));
#611 = CARTESIAN_POINT('',(20.363631911626,14.503975151217,
    17.661557213923));
#612 = CARTESIAN_POINT('',(20.487469163592,14.329783340635,
    17.563703119826));
#613 = CARTESIAN_POINT('',(20.612651396975,14.150015649759,
    17.476599600888));
#614 = CARTESIAN_POINT('',(20.738306389058,13.965610597324,
    17.399505829929));
#615 = CARTESIAN_POINT('',(20.863739282207,13.777360251933,
    17.331702303917));
#616 = CARTESIAN_POINT('',(20.988401915588,13.585931052481,
    17.272500602598));
#617 = CARTESIAN_POINT('',(21.111864014777,13.391883869941,
    17.221252394907));
#618 = CARTESIAN_POINT('',(21.614964752019,12.582321745388,
    17.040124984261));
#619 = CARTESIAN_POINT('',(21.984187713407,11.943019034015,
    16.973650230369));
#620 = CARTESIAN_POINT('',(22.330863117512,11.291398657904,
    16.961535015893));
#621 = CARTESIAN_POINT('',(22.651554293902,10.635179597072,
    16.990925937415));
#622 = CARTESIAN_POINT('',(22.945647158856,9.978973694424,
    17.051996648589));
#623 = CARTESIAN_POINT('',(23.214523136332,9.323560829815,17.1376025508)
  );
#624 = CARTESIAN_POINT('',(23.460365903071,8.666368087314,
    17.243060865945));
#625 = CARTESIAN_POINT('',(23.685438564654,8.,17.365703864957));
#626 = PCURVE('',#129,#627);
#627 = DEFINITIONAL_REPRESENTATION('',(#628),#715);
#628 = B_SPLINE_CURVE_WITH_KNOTS('',8,(#629,#630,#631,#632,#633,#634,
    #635,#636,#637,#638,#639,#640,#641,#642,#643,#644,#645,#646,#647,
    #648,#649,#650,#651,#652,#653,#654,#655,#656,#657,#658,#659,#660,
    #661,#662,#663,#664,#665,#666,#667,#668,#669,#670,#671,#672,#673,
    #674,#675,#676,#677,#678,#679,#680,#681,#682,#683,#684,#685,#686,
    #687,#688,#689,#690,#691,#692,#693,#694,#695,#696,#697,#698,#699,
    #700,#701,#702,#703,#704,#705,#706,#707,#708,#709,#710,#711,#712,
    #713,#714),.UNSPECIFIED.,.F.,.F.,(9,7,7,7,7,7,7,7,7,7,7,7,9),(0.,
    0.257730096084,0.385846763337,0.428101886411,0.451811961614,
    0.46724062235,0.500390917516,0.538993414377,0.55552712292,
    0.583819541449,0.640751712555,0.727812507951,1.),.UNSPECIFIED.);
#629 = CARTESIAN_POINT('',(-0.325729487295,-22.63429613504));
#630 = CARTESIAN_POINT('',(-0.352267600143,-22.7499819309));
#631 = CARTESIAN_POINT('',(-0.378779412159,-22.85057960731));
#632 = CARTESIAN_POINT('',(-0.40552384001,-22.93363656933));
#633 = CARTESIAN_POINT('',(-0.432628198241,-22.9951833611));
#634 = CARTESIAN_POINT('',(-0.460108560851,-23.02939593266));
#635 = CARTESIAN_POINT('',(-0.487874134044,-23.02842579138));
#636 = CARTESIAN_POINT('',(-0.515703208571,-22.98215705681));
#637 = CARTESIAN_POINT('',(-0.556775486132,-22.82583018579));
#638 = CARTESIAN_POINT('',(-0.57037948048,-22.75931133267));
#639 = CARTESIAN_POINT('',(-0.583889929042,-22.67636920851));
#640 = CARTESIAN_POINT('',(-0.597222455099,-22.57501116067));
#641 = CARTESIAN_POINT('',(-0.610267179339,-22.45306562082));
#642 = CARTESIAN_POINT('',(-0.622881852438,-22.30823161998));
#643 = CARTESIAN_POINT('',(-0.634878773121,-22.13819358851));
#644 = CARTESIAN_POINT('',(-0.649674796485,-21.87572234808));
#645 = CARTESIAN_POINT('',(-0.653247200832,-21.80769691116));
#646 = CARTESIAN_POINT('',(-0.656710212036,-21.73673183222));
#647 = CARTESIAN_POINT('',(-0.66005167042,-21.66282963489));
#648 = CARTESIAN_POINT('',(-0.663259398347,-21.58600706124));
#649 = CARTESIAN_POINT('',(-0.666321211753,-21.50629519676));
#650 = CARTESIAN_POINT('',(-0.669224931679,-21.42373959537));
#651 = CARTESIAN_POINT('',(-0.67349218946,-21.2905151189));
#652 = CARTESIAN_POINT('',(-0.674972071496,-21.24176289698));
#653 = CARTESIAN_POINT('',(-0.676395538869,-21.19216708915));
#654 = CARTESIAN_POINT('',(-0.67776018016,-21.14175324247));
#655 = CARTESIAN_POINT('',(-0.679063677441,-21.09054909686));
#656 = CARTESIAN_POINT('',(-0.680303808157,-21.03858458144));
#657 = CARTESIAN_POINT('',(-0.681478447,-20.98589181079));
#658 = CARTESIAN_POINT('',(-0.683305995317,-20.89776517719));
#659 = CARTESIAN_POINT('',(-0.683997783053,-20.86273398878));
#660 = CARTESIAN_POINT('',(-0.684660348428,-20.82742227302));
#661 = CARTESIAN_POINT('',(-0.685293133173,-20.79184152545));
#662 = CARTESIAN_POINT('',(-0.685895603317,-20.7560039801));
#663 = CARTESIAN_POINT('',(-0.686467249183,-20.71992260952));
#664 = CARTESIAN_POINT('',(-0.68700758539,-20.68361112476));
#665 = CARTESIAN_POINT('',(-0.688608863672,-20.56860109194));
#666 = CARTESIAN_POINT('',(-0.689555130217,-20.48910696696));
#667 = CARTESIAN_POINT('',(-0.690350171086,-20.40875845711));
#668 = CARTESIAN_POINT('',(-0.690990136751,-20.32771700693));
#669 = CARTESIAN_POINT('',(-0.691472114214,-20.24614844758));
#670 = CARTESIAN_POINT('',(-0.691794133663,-20.16422279565));
#671 = CARTESIAN_POINT('',(-0.691955175126,-20.08211405188));
#672 = CARTESIAN_POINT('',(-0.691955175126,-19.90438071775));
#673 = CARTESIAN_POINT('',(-0.691736817442,-19.80877736062));
#674 = CARTESIAN_POINT('',(-0.691300225775,-19.71346339647));
#675 = CARTESIAN_POINT('',(-0.690647283642,-19.61871027612));
#676 = CARTESIAN_POINT('',(-0.68978159501,-19.52478407503));
#677 = CARTESIAN_POINT('',(-0.688708444938,-19.43194213492));
#678 = CARTESIAN_POINT('',(-0.687434760214,-19.34042970537));
#679 = CARTESIAN_POINT('',(-0.685341305036,-19.2119490604));
#680 = CARTESIAN_POINT('',(-0.68467823479,-19.173702794));
#681 = CARTESIAN_POINT('',(-0.683980487193,-19.13575386397));
#682 = CARTESIAN_POINT('',(-0.68324871708,-19.09811743068));
#683 = CARTESIAN_POINT('',(-0.682483606181,-19.06080773724));
#684 = CARTESIAN_POINT('',(-0.681685863124,-19.02383810948));
#685 = CARTESIAN_POINT('',(-0.680856223432,-18.98722095593));
#686 = CARTESIAN_POINT('',(-0.67852249653,-18.88893145176));
#687 = CARTESIAN_POINT('',(-0.676958633965,-18.82797223766));
#688 = CARTESIAN_POINT('',(-0.67530745757,-18.76813678145));
#689 = CARTESIAN_POINT('',(-0.673572700779,-18.7094675768));
#690 = CARTESIAN_POINT('',(-0.671758230843,-18.65200295502));
#691 = CARTESIAN_POINT('',(-0.66986804495,-18.59577708491));
#692 = CARTESIAN_POINT('',(-0.667906266339,-18.54081997268));
#693 = CARTESIAN_POINT('',(-0.661793977874,-18.37917364801));
#694 = CARTESIAN_POINT('',(-0.657440930108,-18.27650669007));
#695 = CARTESIAN_POINT('',(-0.652846608602,-18.17917869139));
#696 = CARTESIAN_POINT('',(-0.648038282634,-18.08717271147));
#697 = CARTESIAN_POINT('',(-0.643042079706,-18.00043722824));
#698 = CARTESIAN_POINT('',(-0.637883185969,-17.91889060041));
#699 = CARTESIAN_POINT('',(-0.632586046641,-17.84242552978));
#700 = CARTESIAN_POINT('',(-0.618899319556,-17.66155721392));
#701 = CARTESIAN_POINT('',(-0.610350670373,-17.56370311982));
#702 = CARTESIAN_POINT('',(-0.601588997046,-17.47659960088));
#703 = CARTESIAN_POINT('',(-0.592664064468,-17.39950582992));
#704 = CARTESIAN_POINT('',(-0.583616596292,-17.33170230391));
#705 = CARTESIAN_POINT('',(-0.574479752597,-17.27250060259));
#706 = CARTESIAN_POINT('',(-0.565280513183,-17.2212523949));
#707 = CARTESIAN_POINT('',(-0.52715438177,-17.04012498426));
#708 = CARTESIAN_POINT('',(-0.497639224579,-16.97365023036));
#709 = CARTESIAN_POINT('',(-0.468144940538,-16.96153501589));
#710 = CARTESIAN_POINT('',(-0.438962733412,-16.99092593741));
#711 = CARTESIAN_POINT('',(-0.410229328175,-17.05199664859));
#712 = CARTESIAN_POINT('',(-0.381915793979,-17.13760255079));
#713 = CARTESIAN_POINT('',(-0.353863569993,-17.24306086594));
#714 = CARTESIAN_POINT('',(-0.325729487295,-17.36570386495));
#715 = ( GEOMETRIC_REPRESENTATION_CONTEXT(2) 
PARAMETRIC_REPRESENTATION_CONTEXT() REPRESENTATION_CONTEXT('2D SPACE',''
  ) );
#716 = PCURVE('',#347,#717);
#717 = DEFINITIONAL_REPRESENTATION('',(#718),#805);
#718 = B_SPLINE_CURVE_WITH_KNOTS('',8,(#719,#720,#721,#722,#723,#724,
    #725,#726,#727,#728,#729,#730,#731,#732,#733,#734,#735,#736,#737,
    #738,#739,#740,#741,#742,#743,#744,#745,#746,#747,#748,#749,#750,
    #751,#752,#753,#754,#755,#756,#757,#758,#759,#760,#761,#762,#763,
    #764,#765,#766,#767,#768,#769,#770,#771,#772,#773,#774,#775,#776,
    #777,#778,#779,#780,#781,#782,#783,#784,#785,#786,#787,#788,#789,
    #790,#791,#792,#793,#794,#795,#796,#797,#798,#799,#800,#801,#802,
    #803,#804),.UNSPECIFIED.,.F.,.F.,(9,7,7,7,7,7,7,7,7,7,7,7,9),(0.,
    0.257730096084,0.385846763337,0.428101886411,0.451811961614,
    0.46724062235,0.500390917516,0.538993414377,0.55552712292,
    0.583819541449,0.640751712555,0.727812507951,1.),.UNSPECIFIED.);
#719 = CARTESIAN_POINT('',(-1.071873990464,-12.));
#720 = CARTESIAN_POINT('',(-1.152466639088,-11.37143315851));
#721 = CARTESIAN_POINT('',(-1.23617165496,-10.74992834993));
#722 = CARTESIAN_POINT('',(-1.323912846462,-10.13000501958));
#723 = CARTESIAN_POINT('',(-1.416632869957,-9.509637105684));
#724 = CARTESIAN_POINT('',(-1.515204312028,-8.889624279301));
#725 = CARTESIAN_POINT('',(-1.620651085794,-8.273263059352));
#726 = CARTESIAN_POINT('',(-1.734094673215,-7.666543436179));
#727 = CARTESIAN_POINT('',(-1.918503218998,-6.787503064627));
#728 = CARTESIAN_POINT('',(-1.982425883791,-6.499092706162));
#729 = CARTESIAN_POINT('',(-2.049286123053,-6.21549077245));
#730 = CARTESIAN_POINT('',(-2.119333955492,-5.938488895838));
#731 = CARTESIAN_POINT('',(-2.192860892246,-5.670310946195));
#732 = CARTESIAN_POINT('',(-2.270201763799,-5.413691329104));
#733 = CARTESIAN_POINT('',(-2.351749083663,-5.172075185113));
#734 = CARTESIAN_POINT('',(-2.466484441778,-4.876711388133));
#735 = CARTESIAN_POINT('',(-2.495435616268,-4.805629288145));
#736 = CARTESIAN_POINT('',(-2.524873938877,-4.736942664794));
#737 = CARTESIAN_POINT('',(-2.554792206092,-4.670870339184));
#738 = CARTESIAN_POINT('',(-2.585183962643,-4.607628113112));
#739 = CARTESIAN_POINT('',(-2.61604376152,-4.547429223001));
#740 = CARTESIAN_POINT('',(-2.647367423987,-4.490484793839));
#741 = CARTESIAN_POINT('',(-2.69698733915,-4.406995465728));
#742 = CARTESIAN_POINT('',(-2.71496405641,-4.378083267256));
#743 = CARTESIAN_POINT('',(-2.73307735778,-4.350311630231));
#744 = CARTESIAN_POINT('',(-2.751322270316,-4.323722532737));
#745 = CARTESIAN_POINT('',(-2.769693913232,-4.298356045402));
#746 = CARTESIAN_POINT('',(-2.788187469405,-4.274250378411));
#747 = CARTESIAN_POINT('',(-2.806798156868,-4.251441928509));
#748 = CARTESIAN_POINT('',(-2.837704691217,-4.21599003445));
#749 = CARTESIAN_POINT('',(-2.849934854181,-4.202579678642));
#750 = CARTESIAN_POINT('',(-2.862209936197,-4.189744249547));
#751 = CARTESIAN_POINT('',(-2.874528065661,-4.177493313334));
#752 = CARTESIAN_POINT('',(-2.886887252378,-4.165836011383));
#753 = CARTESIAN_POINT('',(-2.899285387565,-4.154781060283));
#754 = CARTESIAN_POINT('',(-2.911720243846,-4.144336751829));
#755 = CARTESIAN_POINT('',(-2.950981087893,-4.113399066768));
#756 = CARTESIAN_POINT('',(-2.977936703,-4.095138299821));
#757 = CARTESIAN_POINT('',(-3.005028189348,-4.079810759305));
#758 = CARTESIAN_POINT('',(-3.032228672457,-4.067482121924));
#759 = CARTESIAN_POINT('',(-3.059511920032,-4.058201772995));
#760 = CARTESIAN_POINT('',(-3.086851727404,-4.052002945488));
#761 = CARTESIAN_POINT('',(-3.114221302961,-4.048902859051));
#762 = CARTESIAN_POINT('',(-3.173465747673,-4.048902859051));
#763 = CARTESIAN_POINT('',(-3.205333509253,-4.053106334177));
#764 = CARTESIAN_POINT('',(-3.237154197485,-4.061510612268));
#765 = CARTESIAN_POINT('',(-3.268886550081,-4.074083930427));
#766 = CARTESIAN_POINT('',(-3.300489510673,-4.090765547798));
#767 = CARTESIAN_POINT('',(-3.33192195619,-4.111465858324));
#768 = CARTESIAN_POINT('',(-3.363142424226,-4.136066503515));
#769 = CARTESIAN_POINT('',(-3.407371964339,-4.17656468592));
#770 = CARTESIAN_POINT('',(-3.420590133102,-4.189398990573));
#771 = CARTESIAN_POINT('',(-3.433760762469,-4.202912675936));
#772 = CARTESIAN_POINT('',(-3.446881397325,-4.217094538165));
#773 = CARTESIAN_POINT('',(-3.459949711676,-4.231932892814));
#774 = CARTESIAN_POINT('',(-3.472963508646,-4.247415574833));
#775 = CARTESIAN_POINT('',(-3.485920720477,-4.263529938572));
#776 = CARTESIAN_POINT('',(-3.520891593963,-4.308896164824));
#777 = CARTESIAN_POINT('',(-3.542788361951,-4.33933567431));
#778 = CARTESIAN_POINT('',(-3.564503725784,-4.371519817496));
#779 = CARTESIAN_POINT('',(-3.586031604127,-4.405384486108));
#780 = CARTESIAN_POINT('',(-3.60736579056,-4.440862931257));
#781 = CARTESIAN_POINT('',(-3.628499923128,-4.477885662369));
#782 = CARTESIAN_POINT('',(-3.649427453889,-4.516380346112));
#783 = CARTESIAN_POINT('',(-3.711824246638,-4.636544153069));
#784 = CARTESIAN_POINT('',(-3.752614178015,-4.722416482115));
#785 = CARTESIAN_POINT('',(-3.79252600416,-4.813392773808));
#786 = CARTESIAN_POINT('',(-3.831570702107,-4.908996113473));
#787 = CARTESIAN_POINT('',(-3.869755743428,-5.008763388069));
#788 = CARTESIAN_POINT('',(-3.907085203303,-5.112240083852));
#789 = CARTESIAN_POINT('',(-3.943559869595,-5.218975084028));
#790 = CARTESIAN_POINT('',(-4.033643680552,-5.496024848783));
#791 = CARTESIAN_POINT('',(-4.086145233778,-5.670216659365));
#792 = CARTESIAN_POINT('',(-4.136827489653,-5.849984350241));
#793 = CARTESIAN_POINT('',(-4.185812125226,-6.034389402676));
#794 = CARTESIAN_POINT('',(-4.233206967916,-6.222639748067));
#795 = CARTESIAN_POINT('',(-4.279111716214,-6.414068947519));
#796 = CARTESIAN_POINT('',(-4.323619429718,-6.608116130059));
#797 = CARTESIAN_POINT('',(-4.501856940018,-7.417678254612));
#798 = CARTESIAN_POINT('',(-4.625161804132,-8.056980965985));
#799 = CARTESIAN_POINT('',(-4.739004206879,-8.708601342098));
#800 = CARTESIAN_POINT('',(-4.844799377689,-9.364820402926));
#801 = CARTESIAN_POINT('',(-4.943792844925,-10.02102630557));
#802 = CARTESIAN_POINT('',(-5.037093375564,-10.67643917018));
#803 = CARTESIAN_POINT('',(-5.125871924163,-11.33363191268));
#804 = CARTESIAN_POINT('',(-5.211311316716,-12.));
#805 = ( GEOMETRIC_REPRESENTATION_CONTEXT(2) 
PARAMETRIC_REPRESENTATION_CONTEXT() REPRESENTATION_CONTEXT('2D SPACE',''
  ) );
#806 = ORIENTED_EDGE('',*,*,#436,.F.);
#807 = ORIENTED_EDGE('',*,*,#808,.T.);
#808 = EDGE_CURVE('',#414,#809,#811,.T.);
#809 = VERTEX_POINT('',#810);
#810 = CARTESIAN_POINT('',(-23.68543856465,8.,40.));
#811 = SURFACE_CURVE('',#812,(#817,#824),.PCURVE_S1.);
#812 = CIRCLE('',#813,25.);
#813 = AXIS2_PLACEMENT_3D('',#814,#815,#816);
#814 = CARTESIAN_POINT('',(-2.6645352591E-15,8.881784197001E-16,40.));
#815 = DIRECTION('',(0.,0.,1.));
#816 = DIRECTION('',(1.,-3.552713678801E-17,0.));
#817 = PCURVE('',#129,#818);
#818 = DEFINITIONAL_REPRESENTATION('',(#819),#823);
#819 = LINE('',#820,#821);
#820 = CARTESIAN_POINT('',(-0.,-40.));
#821 = VECTOR('',#822,1.);
#822 = DIRECTION('',(-1.,0.));
#823 = ( GEOMETRIC_REPRESENTATION_CONTEXT(2) 
PARAMETRIC_REPRESENTATION_CONTEXT() REPRESENTATION_CONTEXT('2D SPACE',''
  ) );
#824 = PCURVE('',#294,#825);
#825 = DEFINITIONAL_REPRESENTATION('',(#826),#830);
#826 = CIRCLE('',#827,25.);
#827 = AXIS2_PLACEMENT_2D('',#828,#829);
#828 = CARTESIAN_POINT('',(3.272236283106E-16,-11.31910396174));
#829 = DIRECTION('',(1.,-3.552713678801E-17));
#830 = ( GEOMETRIC_REPRESENTATION_CONTEXT(2) 
PARAMETRIC_REPRESENTATION_CONTEXT() REPRESENTATION_CONTEXT('2D SPACE',''
  ) );
#831 = ORIENTED_EDGE('',*,*,#832,.T.);
#832 = EDGE_CURVE('',#809,#833,#835,.T.);
#833 = VERTEX_POINT('',#834);
#834 = CARTESIAN_POINT('',(-23.68543856465,8.,22.634296135043));
#835 = SURFACE_CURVE('',#836,(#840,#846),.PCURVE_S1.);
#836 = LINE('',#837,#838);
#837 = CARTESIAN_POINT('',(-23.68543856465,8.,0.));
#838 = VECTOR('',#839,1.);
#839 = DIRECTION('',(-0.,-0.,-1.));
#840 = PCURVE('',#129,#841);
#841 = DEFINITIONAL_REPRESENTATION('',(#842),#845);
#842 = B_SPLINE_CURVE_WITH_KNOTS('',1,(#843,#844),.UNSPECIFIED.,.F.,.F.,
  (2,2),(-40.0000006,6.E-07),.PIECEWISE_BEZIER_KNOTS.);
#843 = CARTESIAN_POINT('',(-2.815863166295,-40.0000006));
#844 = CARTESIAN_POINT('',(-2.815863166295,6.E-07));
#845 = ( GEOMETRIC_REPRESENTATION_CONTEXT(2) 
PARAMETRIC_REPRESENTATION_CONTEXT() REPRESENTATION_CONTEXT('2D SPACE',''
  ) );
#846 = PCURVE('',#157,#847);
#847 = DEFINITIONAL_REPRESENTATION('',(#848),#851);
#848 = B_SPLINE_CURVE_WITH_KNOTS('',1,(#849,#850),.UNSPECIFIED.,.F.,.F.,
  (2,2),(-40.0000006,6.E-07),.PIECEWISE_BEZIER_KNOTS.);
#849 = CARTESIAN_POINT('',(50.685438564654,-40.0000006));
#850 = CARTESIAN_POINT('',(50.685438564654,6.E-07));
#851 = ( GEOMETRIC_REPRESENTATION_CONTEXT(2) 
PARAMETRIC_REPRESENTATION_CONTEXT() REPRESENTATION_CONTEXT('2D SPACE',''
  ) );
#852 = ORIENTED_EDGE('',*,*,#853,.F.);
#853 = EDGE_CURVE('',#854,#833,#856,.T.);
#854 = VERTEX_POINT('',#855);
#855 = CARTESIAN_POINT('',(-19.25,15.951097140949,20.));
#856 = SURFACE_CURVE('',#857,(#895,#936),.PCURVE_S1.);
#857 = B_SPLINE_CURVE_WITH_KNOTS('',8,(#858,#859,#860,#861,#862,#863,
    #864,#865,#866,#867,#868,#869,#870,#871,#872,#873,#874,#875,#876,
    #877,#878,#879,#880,#881,#882,#883,#884,#885,#886,#887,#888,#889,
    #890,#891,#892,#893,#894),.UNSPECIFIED.,.F.,.F.,(9,7,7,7,7,9),(0.,
    0.110313128978,0.166945140992,0.280904412263,0.455171168729,1.),
  .UNSPECIFIED.);
#858 = CARTESIAN_POINT('',(-19.25,15.951097140949,20.));
#859 = CARTESIAN_POINT('',(-19.25,15.951097140949,20.136621590127));
#860 = CARTESIAN_POINT('',(-19.25711071583,15.942515749563,
    20.273145788057));
#861 = CARTESIAN_POINT('',(-19.27131412102,15.925375089924,
    20.408802701953));
#862 = CARTESIAN_POINT('',(-19.29246291522,15.899808748114,
    20.542835859423));
#863 = CARTESIAN_POINT('',(-19.32028489294,15.866058762604,
    20.674519702464));
#864 = CARTESIAN_POINT('',(-19.35439100742,15.824474265468,
    20.803176416607));
#865 = CARTESIAN_POINT('',(-19.39428712944,15.775511775353,
    20.928192094238));
#866 = CARTESIAN_POINT('',(-19.46254393515,15.691103835175,
    21.111068548239));
#867 = CARTESIAN_POINT('',(-19.48707924319,15.66066432569,21.17202776234
    ));
#868 = CARTESIAN_POINT('',(-19.51292841217,15.628480182504,
    21.231863218547));
#869 = CARTESIAN_POINT('',(-19.54002198428,15.594615513892,
    21.290532423195));
#870 = CARTESIAN_POINT('',(-19.56828833008,15.559137068743,
    21.34799704498));
#871 = CARTESIAN_POINT('',(-19.59765392151,15.522114337631,
    21.404222915083));
#872 = CARTESIAN_POINT('',(-19.62804360497,15.483619653888,
    21.459180027311));
#873 = CARTESIAN_POINT('',(-19.72244012729,15.363455846931,
    21.620826351991));
#874 = CARTESIAN_POINT('',(-19.78929295922,15.277583517884,
    21.723493309922));
#875 = CARTESIAN_POINT('',(-19.8594087946,15.186607226192,
    21.820821308602));
#876 = CARTESIAN_POINT('',(-19.93228443719,15.091003886527,
    21.912827288523));
#877 = CARTESIAN_POINT('',(-20.00744304009,14.991236611931,
    21.999562771753));
#878 = CARTESIAN_POINT('',(-20.08443307591,14.887759916148,
    22.081109399589));
#879 = CARTESIAN_POINT('',(-20.16282730688,14.781024915972,
    22.157574470217));
#880 = CARTESIAN_POINT('',(-20.36363191159,14.503975151256,
    22.338442786051));
#881 = CARTESIAN_POINT('',(-20.48746916361,14.329783340609,
    22.436296880196));
#882 = CARTESIAN_POINT('',(-20.612651397,14.150015649713,22.523400399132
    ));
#883 = CARTESIAN_POINT('',(-20.73830638905,13.965610597325,
    22.600494170061));
#884 = CARTESIAN_POINT('',(-20.86373928217,13.777360251985,
    22.668297696064));
#885 = CARTESIAN_POINT('',(-20.98840191557,13.58593105251,
    22.727499397402));
#886 = CARTESIAN_POINT('',(-21.11186401481,13.391883869879,
    22.778747605106));
#887 = CARTESIAN_POINT('',(-21.61496475201,12.582321745391,
    22.959875015738));
#888 = CARTESIAN_POINT('',(-21.98418771341,11.943019034008,
    23.026349769633));
#889 = CARTESIAN_POINT('',(-22.3308631175,11.291398657909,
    23.038464984103));
#890 = CARTESIAN_POINT('',(-22.6515542939,10.635179597077,23.00907406259
    ));
#891 = CARTESIAN_POINT('',(-22.94564715886,9.97897369441,22.948003351407
    ));
#892 = CARTESIAN_POINT('',(-23.21452313632,9.323560829827,
    22.862397449203));
#893 = CARTESIAN_POINT('',(-23.46036590307,8.66636808731,22.756939134054
    ));
#894 = CARTESIAN_POINT('',(-23.68543856465,8.,22.634296135043));
#895 = PCURVE('',#129,#896);
#896 = DEFINITIONAL_REPRESENTATION('',(#897),#935);
#897 = B_SPLINE_CURVE_WITH_KNOTS('',8,(#898,#899,#900,#901,#902,#903,
    #904,#905,#906,#907,#908,#909,#910,#911,#912,#913,#914,#915,#916,
    #917,#918,#919,#920,#921,#922,#923,#924,#925,#926,#927,#928,#929,
    #930,#931,#932,#933,#934),.UNSPECIFIED.,.F.,.F.,(9,7,7,7,7,9),(0.,
    0.110313128978,0.166945140992,0.280904412263,0.455171168729,1.),
  .UNSPECIFIED.);
#898 = CARTESIAN_POINT('',(-2.449637478463,-20.));
#899 = CARTESIAN_POINT('',(-2.449637478463,-20.13662159012));
#900 = CARTESIAN_POINT('',(-2.450083262873,-20.27314578805));
#901 = CARTESIAN_POINT('',(-2.45097369198,-20.40880270195));
#902 = CARTESIAN_POINT('',(-2.452300889276,-20.54283585942));
#903 = CARTESIAN_POINT('',(-2.454050453565,-20.67451970246));
#904 = CARTESIAN_POINT('',(-2.456201716917,-20.8031764166));
#905 = CARTESIAN_POINT('',(-2.458728048468,-20.92819209423));
#906 = CARTESIAN_POINT('',(-2.46307015706,-21.11106854823));
#907 = CARTESIAN_POINT('',(-2.464634019625,-21.17202776234));
#908 = CARTESIAN_POINT('',(-2.46628519602,-21.23186321854));
#909 = CARTESIAN_POINT('',(-2.468019952811,-21.29053242319));
#910 = CARTESIAN_POINT('',(-2.469834422747,-21.34799704498));
#911 = CARTESIAN_POINT('',(-2.47172460864,-21.40422291508));
#912 = CARTESIAN_POINT('',(-2.473686387251,-21.45918002731));
#913 = CARTESIAN_POINT('',(-2.479798675716,-21.62082635199));
#914 = CARTESIAN_POINT('',(-2.484151723482,-21.72349330992));
#915 = CARTESIAN_POINT('',(-2.488746044988,-21.8208213086));
#916 = CARTESIAN_POINT('',(-2.493554370956,-21.91282728852));
#917 = CARTESIAN_POINT('',(-2.498550573884,-21.99956277175));
#918 = CARTESIAN_POINT('',(-2.503709467621,-22.08110939958));
#919 = CARTESIAN_POINT('',(-2.509006606949,-22.15757447021));
#920 = CARTESIAN_POINT('',(-2.522693334032,-22.33844278605));
#921 = CARTESIAN_POINT('',(-2.531241983218,-22.43629688019));
#922 = CARTESIAN_POINT('',(-2.540003656546,-22.52340039913));
#923 = CARTESIAN_POINT('',(-2.548928589122,-22.60049417006));
#924 = CARTESIAN_POINT('',(-2.557976057296,-22.66829769606));
#925 = CARTESIAN_POINT('',(-2.567112900991,-22.7274993974));
#926 = CARTESIAN_POINT('',(-2.57631214041,-22.7787476051));
#927 = CARTESIAN_POINT('',(-2.61443827182,-22.95987501573));
#928 = CARTESIAN_POINT('',(-2.643953429011,-23.02634976963));
#929 = CARTESIAN_POINT('',(-2.673447713052,-23.0384649841));
#930 = CARTESIAN_POINT('',(-2.702629920177,-23.00907406258));
#931 = CARTESIAN_POINT('',(-2.731363325415,-22.9480033514));
#932 = CARTESIAN_POINT('',(-2.75967685961,-22.8623974492));
#933 = CARTESIAN_POINT('',(-2.787729083597,-22.75693913405));
#934 = CARTESIAN_POINT('',(-2.815863166295,-22.63429613504));
#935 = ( GEOMETRIC_REPRESENTATION_CONTEXT(2) 
PARAMETRIC_REPRESENTATION_CONTEXT() REPRESENTATION_CONTEXT('2D SPACE',''
  ) );
#936 = PCURVE('',#937,#942);
#937 = CYLINDRICAL_SURFACE('',#938,3.);
#938 = AXIS2_PLACEMENT_3D('',#939,#940,#941);
#939 = CARTESIAN_POINT('',(-22.25,20.,20.));
#940 = DIRECTION('',(-0.,1.,-0.));
#941 = DIRECTION('',(1.,0.,0.));
#942 = DEFINITIONAL_REPRESENTATION('',(#943),#981);
#943 = B_SPLINE_CURVE_WITH_KNOTS('',8,(#944,#945,#946,#947,#948,#949,
    #950,#951,#952,#953,#954,#955,#956,#957,#958,#959,#960,#961,#962,
    #963,#964,#965,#966,#967,#968,#969,#970,#971,#972,#973,#974,#975,
    #976,#977,#978,#979,#980),.UNSPECIFIED.,.F.,.F.,(9,7,7,7,7,9),(0.,
    0.110313128978,0.166945140992,0.280904412263,0.455171168729,1.),
  .UNSPECIFIED.);
#944 = CARTESIAN_POINT('',(0.,-4.048902859051));
#945 = CARTESIAN_POINT('',(-4.554053004231E-02,-4.048902859051));
#946 = CARTESIAN_POINT('',(-9.104861643788E-02,-4.057484250437));
#947 = CARTESIAN_POINT('',(-0.136411460353,-4.074624910076));
#948 = CARTESIAN_POINT('',(-0.181520099819,-4.100191251886));
#949 = CARTESIAN_POINT('',(-0.226266408379,-4.133941237396));
#950 = CARTESIAN_POINT('',(-0.270541063975,-4.175525734532));
#951 = CARTESIAN_POINT('',(-0.314232488057,-4.224488224647));
#952 = CARTESIAN_POINT('',(-0.379298940374,-4.308896164825));
#953 = CARTESIAN_POINT('',(-0.401195708361,-4.33933567431));
#954 = CARTESIAN_POINT('',(-0.422911072194,-4.371519817496));
#955 = CARTESIAN_POINT('',(-0.444438950537,-4.405384486108));
#956 = CARTESIAN_POINT('',(-0.46577313697,-4.440862931257));
#957 = CARTESIAN_POINT('',(-0.486907269538,-4.477885662369));
#958 = CARTESIAN_POINT('',(-0.5078348003,-4.516380346112));
#959 = CARTESIAN_POINT('',(-0.570231593049,-4.636544153069));
#960 = CARTESIAN_POINT('',(-0.611021524425,-4.722416482116));
#961 = CARTESIAN_POINT('',(-0.65093335057,-4.813392773808));
#962 = CARTESIAN_POINT('',(-0.689978048517,-4.908996113473));
#963 = CARTESIAN_POINT('',(-0.728163089838,-5.008763388069));
#964 = CARTESIAN_POINT('',(-0.765492549713,-5.112240083852));
#965 = CARTESIAN_POINT('',(-0.801967216006,-5.218975084028));
#966 = CARTESIAN_POINT('',(-0.892051026949,-5.496024848744));
#967 = CARTESIAN_POINT('',(-0.944552580198,-5.670216659391));
#968 = CARTESIAN_POINT('',(-0.995234836076,-5.849984350287));
#969 = CARTESIAN_POINT('',(-1.044219471634,-6.034389402675));
#970 = CARTESIAN_POINT('',(-1.091614314312,-6.222639748015));
#971 = CARTESIAN_POINT('',(-1.137519062619,-6.41406894749));
#972 = CARTESIAN_POINT('',(-1.182026776142,-6.608116130121));
#973 = CARTESIAN_POINT('',(-1.360264286427,-7.417678254609));
#974 = CARTESIAN_POINT('',(-1.483569150544,-8.056980965992));
#975 = CARTESIAN_POINT('',(-1.597411553286,-8.708601342091));
#976 = CARTESIAN_POINT('',(-1.703206724101,-9.364820402923));
#977 = CARTESIAN_POINT('',(-1.802200191335,-10.02102630559));
#978 = CARTESIAN_POINT('',(-1.895500721973,-10.67643917017));
#979 = CARTESIAN_POINT('',(-1.984279270573,-11.33363191269));
#980 = CARTESIAN_POINT('',(-2.069718663126,-12.));
#981 = ( GEOMETRIC_REPRESENTATION_CONTEXT(2) 
PARAMETRIC_REPRESENTATION_CONTEXT() REPRESENTATION_CONTEXT('2D SPACE',''
  ) );
#982 = ORIENTED_EDGE('',*,*,#983,.F.);
#983 = EDGE_CURVE('',#984,#854,#986,.T.);
#984 = VERTEX_POINT('',#985);
#985 = CARTESIAN_POINT('',(-23.68543856465,8.,17.365703864957));
#986 = SURFACE_CURVE('',#987,(#1025,#1066),.PCURVE_S1.);
#987 = B_SPLINE_CURVE_WITH_KNOTS('',8,(#988,#989,#990,#991,#992,#993,
    #994,#995,#996,#997,#998,#999,#1000,#1001,#1002,#1003,#1004,#1005,
    #1006,#1007,#1008,#1009,#1010,#1011,#1012,#1013,#1014,#1015,#1016,
    #1017,#1018,#1019,#1020,#1021,#1022,#1023,#1024),.UNSPECIFIED.,.F.,
  .F.,(9,7,7,7,7,9),(0.,0.515072704669,0.771113420589,0.85556013775,
    0.90294464095,1.),.UNSPECIFIED.);
#988 = CARTESIAN_POINT('',(-23.68543856465,8.,17.365703864957));
#989 = CARTESIAN_POINT('',(-23.47313366187,8.62856684148,17.250018069094
    ));
#990 = CARTESIAN_POINT('',(-23.2419751891,9.25007165007,17.149420392686)
  );
#991 = CARTESIAN_POINT('',(-22.99018572393,9.869994980407,
    17.066363430666));
#992 = CARTESIAN_POINT('',(-22.7160264912,10.490362894322,
    17.004816638893));
#993 = CARTESIAN_POINT('',(-22.41850637338,11.110375720694,
    16.97060406734));
#994 = CARTESIAN_POINT('',(-22.09791121673,11.72673694065,
    16.971574208619));
#995 = CARTESIAN_POINT('',(-21.75675207638,12.33345656382,
    17.017842943187));
#996 = CARTESIAN_POINT('',(-21.22607278037,13.212496935373,
    17.174169814205));
#997 = CARTESIAN_POINT('',(-21.04575181051,13.500907293838,
    17.240688667328));
#998 = CARTESIAN_POINT('',(-20.86217846156,13.784509227551,
    17.323630791483));
#999 = CARTESIAN_POINT('',(-20.67664806237,14.061511104161,
    17.424988839328));
#1000 = CARTESIAN_POINT('',(-20.49095564859,14.329689053803,
    17.546934379173));
#1001 = CARTESIAN_POINT('',(-20.30755904039,14.586308670898,
    17.691768380022));
#1002 = CARTESIAN_POINT('',(-20.12982906183,14.827924814886,
    17.861806411481));
#1003 = CARTESIAN_POINT('',(-19.90714841705,15.123288611867,
    18.124277651916));
#1004 = CARTESIAN_POINT('',(-19.85307642067,15.194370711855,
    18.192303088837));
#1005 = CARTESIAN_POINT('',(-19.80037312825,15.263057335206,
    18.263268167778));
#1006 = CARTESIAN_POINT('',(-19.74925564681,15.329129660816,
    18.337170365104));
#1007 = CARTESIAN_POINT('',(-19.69994501499,15.392371886888,
    18.413992938754));
#1008 = CARTESIAN_POINT('',(-19.65266511265,15.452570776999,
    18.493704803237));
#1009 = CARTESIAN_POINT('',(-19.6076415706,15.509515206161,
    18.576260404623));
#1010 = CARTESIAN_POINT('',(-19.54123025607,15.593004534272,
    18.709484881091));
#1011 = CARTESIAN_POINT('',(-19.51814625507,15.621916732744,
    18.758237103011));
#1012 = CARTESIAN_POINT('',(-19.49589419051,15.649688369769,
    18.807832910841));
#1013 = CARTESIAN_POINT('',(-19.47451828444,15.676277467263,
    18.858246757528));
#1014 = CARTESIAN_POINT('',(-19.45406134035,15.701643954598,
    18.909450903138));
#1015 = CARTESIAN_POINT('',(-19.43456461581,15.725749621589,
    18.961415418558));
#1016 = CARTESIAN_POINT('',(-19.41606769512,15.748558071491,
    19.014108189208));
#1017 = CARTESIAN_POINT('',(-19.36284726427,15.814024147901,
    19.176844344277));
#1018 = CARTESIAN_POINT('',(-19.33142220695,15.852447006683,
    19.289156973192));
#1019 = CARTESIAN_POINT('',(-19.3047026293,15.884950092732,
    19.404028334482));
#1020 = CARTESIAN_POINT('',(-19.2829974386,15.911249134489,
    19.521009263493));
#1021 = CARTESIAN_POINT('',(-19.26654725822,15.931127731636,
    19.639615035649));
#1022 = CARTESIAN_POINT('',(-19.25551860561,15.944437180683,
    19.759334765366));
#1023 = CARTESIAN_POINT('',(-19.25,15.951097140949,19.879641070171));
#1024 = CARTESIAN_POINT('',(-19.25,15.951097140949,20.));
#1025 = PCURVE('',#129,#1026);
#1026 = DEFINITIONAL_REPRESENTATION('',(#1027),#1065);
#1027 = B_SPLINE_CURVE_WITH_KNOTS('',8,(#1028,#1029,#1030,#1031,#1032,
    #1033,#1034,#1035,#1036,#1037,#1038,#1039,#1040,#1041,#1042,#1043,
    #1044,#1045,#1046,#1047,#1048,#1049,#1050,#1051,#1052,#1053,#1054,
    #1055,#1056,#1057,#1058,#1059,#1060,#1061,#1062,#1063,#1064),
  .UNSPECIFIED.,.F.,.F.,(9,7,7,7,7,9),(0.,0.515072704669,0.771113420589,
    0.85556013775,0.90294464095,1.),.UNSPECIFIED.);
#1028 = CARTESIAN_POINT('',(-2.815863166295,-17.36570386495));
#1029 = CARTESIAN_POINT('',(-2.789325053447,-17.25001806909));
#1030 = CARTESIAN_POINT('',(-2.76281324143,-17.14942039268));
#1031 = CARTESIAN_POINT('',(-2.73606881358,-17.06636343066));
#1032 = CARTESIAN_POINT('',(-2.708964455349,-17.00481663889));
#1033 = CARTESIAN_POINT('',(-2.681484092739,-16.97060406734));
#1034 = CARTESIAN_POINT('',(-2.653718519546,-16.97157420861));
#1035 = CARTESIAN_POINT('',(-2.625889445019,-17.01784294318));
#1036 = CARTESIAN_POINT('',(-2.584817167458,-17.1741698142));
#1037 = CARTESIAN_POINT('',(-2.57121317311,-17.24068866732));
#1038 = CARTESIAN_POINT('',(-2.557702724547,-17.32363079148));
#1039 = CARTESIAN_POINT('',(-2.544370198491,-17.42498883932));
#1040 = CARTESIAN_POINT('',(-2.53132547425,-17.54693437917));
#1041 = CARTESIAN_POINT('',(-2.518710801152,-17.69176838002));
#1042 = CARTESIAN_POINT('',(-2.506713880469,-17.86180641148));
#1043 = CARTESIAN_POINT('',(-2.491917857105,-18.12427765191));
#1044 = CARTESIAN_POINT('',(-2.488345452758,-18.19230308883));
#1045 = CARTESIAN_POINT('',(-2.484882441553,-18.26326816777));
#1046 = CARTESIAN_POINT('',(-2.48154098317,-18.3371703651));
#1047 = CARTESIAN_POINT('',(-2.478333255243,-18.41399293875));
#1048 = CARTESIAN_POINT('',(-2.475271441837,-18.49370480323));
#1049 = CARTESIAN_POINT('',(-2.472367721911,-18.57626040462));
#1050 = CARTESIAN_POINT('',(-2.46810046413,-18.70948488109));
#1051 = CARTESIAN_POINT('',(-2.466620582094,-18.75823710301));
#1052 = CARTESIAN_POINT('',(-2.46519711472,-18.80783291084));
#1053 = CARTESIAN_POINT('',(-2.46383247343,-18.85824675752));
#1054 = CARTESIAN_POINT('',(-2.462528976149,-18.90945090313));
#1055 = CARTESIAN_POINT('',(-2.461288845432,-18.96141541855));
#1056 = CARTESIAN_POINT('',(-2.46011420659,-19.0141081892));
#1057 = CARTESIAN_POINT('',(-2.456739424482,-19.17684434427));
#1058 = CARTESIAN_POINT('',(-2.454753945867,-19.28915697319));
#1059 = CARTESIAN_POINT('',(-2.453070914361,-19.40402833448));
#1060 = CARTESIAN_POINT('',(-2.451706949693,-19.52100926349));
#1061 = CARTESIAN_POINT('',(-2.450674851566,-19.63961503564));
#1062 = CARTESIAN_POINT('',(-2.449983449588,-19.75933476536));
#1063 = CARTESIAN_POINT('',(-2.449637478463,-19.87964107017));
#1064 = CARTESIAN_POINT('',(-2.449637478463,-20.));
#1065 = ( GEOMETRIC_REPRESENTATION_CONTEXT(2) 
PARAMETRIC_REPRESENTATION_CONTEXT() REPRESENTATION_CONTEXT('2D SPACE',''
  ) );
#1066 = PCURVE('',#937,#1067);
#1067 = DEFINITIONAL_REPRESENTATION('',(#1068),#1106);
#1068 = B_SPLINE_CURVE_WITH_KNOTS('',8,(#1069,#1070,#1071,#1072,#1073,
    #1074,#1075,#1076,#1077,#1078,#1079,#1080,#1081,#1082,#1083,#1084,
    #1085,#1086,#1087,#1088,#1089,#1090,#1091,#1092,#1093,#1094,#1095,
    #1096,#1097,#1098,#1099,#1100,#1101,#1102,#1103,#1104,#1105),
  .UNSPECIFIED.,.F.,.F.,(9,7,7,7,7,9),(0.,0.515072704669,0.771113420589,
    0.85556013775,0.90294464095,1.),.UNSPECIFIED.);
#1069 = CARTESIAN_POINT('',(-4.213466644053,-12.));
#1070 = CARTESIAN_POINT('',(-4.294059292677,-11.37143315852));
#1071 = CARTESIAN_POINT('',(-4.377764308551,-10.74992834993));
#1072 = CARTESIAN_POINT('',(-4.46550550005,-10.13000501959));
#1073 = CARTESIAN_POINT('',(-4.558225523548,-9.509637105676));
#1074 = CARTESIAN_POINT('',(-4.656796965617,-8.889624279307));
#1075 = CARTESIAN_POINT('',(-4.762243739384,-8.273263059349));
#1076 = CARTESIAN_POINT('',(-4.875687326805,-7.66654343618));
#1077 = CARTESIAN_POINT('',(-5.060095872588,-6.787503064627));
#1078 = CARTESIAN_POINT('',(-5.124018537381,-6.499092706162));
#1079 = CARTESIAN_POINT('',(-5.190878776643,-6.215490772449));
#1080 = CARTESIAN_POINT('',(-5.260926609082,-5.938488895839));
#1081 = CARTESIAN_POINT('',(-5.334453545835,-5.670310946196));
#1082 = CARTESIAN_POINT('',(-5.41179441739,-5.413691329102));
#1083 = CARTESIAN_POINT('',(-5.493341737253,-5.172075185114));
#1084 = CARTESIAN_POINT('',(-5.608077095368,-4.876711388133));
#1085 = CARTESIAN_POINT('',(-5.637028269858,-4.805629288145));
#1086 = CARTESIAN_POINT('',(-5.666466592467,-4.736942664794));
#1087 = CARTESIAN_POINT('',(-5.696384859681,-4.670870339184));
#1088 = CARTESIAN_POINT('',(-5.726776616233,-4.607628113112));
#1089 = CARTESIAN_POINT('',(-5.75763641511,-4.547429223001));
#1090 = CARTESIAN_POINT('',(-5.788960077577,-4.490484793839));
#1091 = CARTESIAN_POINT('',(-5.83857999274,-4.406995465728));
#1092 = CARTESIAN_POINT('',(-5.85655671,-4.378083267256));
#1093 = CARTESIAN_POINT('',(-5.87467001137,-4.350311630231));
#1094 = CARTESIAN_POINT('',(-5.892914923905,-4.323722532737));
#1095 = CARTESIAN_POINT('',(-5.911286566822,-4.298356045402));
#1096 = CARTESIAN_POINT('',(-5.929780122994,-4.274250378411));
#1097 = CARTESIAN_POINT('',(-5.948390810458,-4.251441928509));
#1098 = CARTESIAN_POINT('',(-6.005463347566,-4.185975852099));
#1099 = CARTESIAN_POINT('',(-6.044302389462,-4.147552993317));
#1100 = CARTESIAN_POINT('',(-6.083550465933,-4.115049907268));
#1101 = CARTESIAN_POINT('',(-6.123128487174,-4.088750865511));
#1102 = CARTESIAN_POINT('',(-6.16295859759,-4.068872268364));
#1103 = CARTESIAN_POINT('',(-6.202963552887,-4.055562819317));
#1104 = CARTESIAN_POINT('',(-6.243065663903,-4.048902859051));
#1105 = CARTESIAN_POINT('',(-6.28318530718,-4.048902859051));
#1106 = ( GEOMETRIC_REPRESENTATION_CONTEXT(2) 
PARAMETRIC_REPRESENTATION_CONTEXT() REPRESENTATION_CONTEXT('2D SPACE',''
  ) );
#1107 = ORIENTED_EDGE('',*,*,#1108,.T.);
#1108 = EDGE_CURVE('',#984,#113,#1109,.T.);
#1109 = SURFACE_CURVE('',#1110,(#1114,#1120),.PCURVE_S1.);
#1110 = LINE('',#1111,#1112);
#1111 = CARTESIAN_POINT('',(-23.68543856465,8.,0.));
#1112 = VECTOR('',#1113,1.);
#1113 = DIRECTION('',(-0.,-0.,-1.));
#1114 = PCURVE('',#129,#1115);
#1115 = DEFINITIONAL_REPRESENTATION('',(#1116),#1119);
#1116 = B_SPLINE_CURVE_WITH_KNOTS('',1,(#1117,#1118),.UNSPECIFIED.,.F.,
  .F.,(2,2),(-40.0000006,6.E-07),.PIECEWISE_BEZIER_KNOTS.);
#1117 = CARTESIAN_POINT('',(-2.815863166295,-40.0000006));
#1118 = CARTESIAN_POINT('',(-2.815863166295,6.E-07));
#1119 = ( GEOMETRIC_REPRESENTATION_CONTEXT(2) 
PARAMETRIC_REPRESENTATION_CONTEXT() REPRESENTATION_CONTEXT('2D SPACE',''
  ) );
#1120 = PCURVE('',#157,#1121);
#1121 = DEFINITIONAL_REPRESENTATION('',(#1122),#1125);
#1122 = B_SPLINE_CURVE_WITH_KNOTS('',1,(#1123,#1124),.UNSPECIFIED.,.F.,
  .F.,(2,2),(-40.0000006,6.E-07),.PIECEWISE_BEZIER_KNOTS.);
#1123 = CARTESIAN_POINT('',(50.685438564654,-40.0000006));
#1124 = CARTESIAN_POINT('',(50.685438564654,6.E-07));
#1125 = ( GEOMETRIC_REPRESENTATION_CONTEXT(2) 
PARAMETRIC_REPRESENTATION_CONTEXT() REPRESENTATION_CONTEXT('2D SPACE',''
  ) );
#1126 = ADVANCED_FACE('',(#1127),#157,.F.);
#1127 = FACE_BOUND('',#1128,.F.);
#1128 = EDGE_LOOP('',(#1129,#1130,#1131,#1157,#1158,#1181));
#1129 = ORIENTED_EDGE('',*,*,#141,.F.);
#1130 = ORIENTED_EDGE('',*,*,#1108,.F.);
#1131 = ORIENTED_EDGE('',*,*,#1132,.T.);
#1132 = EDGE_CURVE('',#984,#833,#1133,.T.);
#1133 = SURFACE_CURVE('',#1134,(#1139,#1150),.PCURVE_S1.);
#1134 = CIRCLE('',#1135,3.);
#1135 = AXIS2_PLACEMENT_3D('',#1136,#1137,#1138);
#1136 = CARTESIAN_POINT('',(-22.25,8.,20.));
#1137 = DIRECTION('',(-0.,1.,0.));
#1138 = DIRECTION('',(1.,0.,0.));
#1139 = PCURVE('',#157,#1140);
#1140 = DEFINITIONAL_REPRESENTATION('',(#1141),#1149);
#1141 = ( BOUNDED_CURVE() B_SPLINE_CURVE(2,(#1142,#1143,#1144,#1145,
#1146,#1147,#1148),.UNSPECIFIED.,.T.,.F.) B_SPLINE_CURVE_WITH_KNOTS((1,2
    ,2,2,2,1),(-2.094395102393,0.,2.094395102393,4.188790204786,
6.28318530718,8.377580409573),.UNSPECIFIED.) CURVE() 
GEOMETRIC_REPRESENTATION_ITEM() RATIONAL_B_SPLINE_CURVE((1.,0.5,1.,0.5,
1.,0.5,1.)) REPRESENTATION_ITEM('') );
#1142 = CARTESIAN_POINT('',(46.25,-20.));
#1143 = CARTESIAN_POINT('',(46.25,-14.80384757729));
#1144 = CARTESIAN_POINT('',(50.75,-17.40192378864));
#1145 = CARTESIAN_POINT('',(55.25,-20.));
#1146 = CARTESIAN_POINT('',(50.75,-22.59807621135));
#1147 = CARTESIAN_POINT('',(46.25,-25.1961524227));
#1148 = CARTESIAN_POINT('',(46.25,-20.));
#1149 = ( GEOMETRIC_REPRESENTATION_CONTEXT(2) 
PARAMETRIC_REPRESENTATION_CONTEXT() REPRESENTATION_CONTEXT('2D SPACE',''
  ) );
#1150 = PCURVE('',#937,#1151);
#1151 = DEFINITIONAL_REPRESENTATION('',(#1152),#1156);
#1152 = LINE('',#1153,#1154);
#1153 = CARTESIAN_POINT('',(-6.28318530718,-12.));
#1154 = VECTOR('',#1155,1.);
#1155 = DIRECTION('',(1.,-0.));
#1156 = ( GEOMETRIC_REPRESENTATION_CONTEXT(2) 
PARAMETRIC_REPRESENTATION_CONTEXT() REPRESENTATION_CONTEXT('2D SPACE',''
  ) );
#1157 = ORIENTED_EDGE('',*,*,#832,.F.);
#1158 = ORIENTED_EDGE('',*,*,#1159,.T.);
#1159 = EDGE_CURVE('',#809,#1160,#1162,.T.);
#1160 = VERTEX_POINT('',#1161);
#1161 = CARTESIAN_POINT('',(-27.,8.,40.));
#1162 = SURFACE_CURVE('',#1163,(#1167,#1174),.PCURVE_S1.);
#1163 = LINE('',#1164,#1165);
#1164 = CARTESIAN_POINT('',(27.,8.,40.));
#1165 = VECTOR('',#1166,1.);
#1166 = DIRECTION('',(-1.,0.,0.));
#1167 = PCURVE('',#157,#1168);
#1168 = DEFINITIONAL_REPRESENTATION('',(#1169),#1173);
#1169 = LINE('',#1170,#1171);
#1170 = CARTESIAN_POINT('',(0.,-40.));
#1171 = VECTOR('',#1172,1.);
#1172 = DIRECTION('',(1.,0.));
#1173 = ( GEOMETRIC_REPRESENTATION_CONTEXT(2) 
PARAMETRIC_REPRESENTATION_CONTEXT() REPRESENTATION_CONTEXT('2D SPACE',''
  ) );
#1174 = PCURVE('',#294,#1175);
#1175 = DEFINITIONAL_REPRESENTATION('',(#1176),#1180);
#1176 = LINE('',#1177,#1178);
#1177 = CARTESIAN_POINT('',(27.,-3.319103961744));
#1178 = VECTOR('',#1179,1.);
#1179 = DIRECTION('',(-1.,0.));
#1180 = ( GEOMETRIC_REPRESENTATION_CONTEXT(2) 
PARAMETRIC_REPRESENTATION_CONTEXT() REPRESENTATION_CONTEXT('2D SPACE',''
  ) );
#1181 = ORIENTED_EDGE('',*,*,#1182,.F.);
#1182 = EDGE_CURVE('',#142,#1160,#1183,.T.);
#1183 = SURFACE_CURVE('',#1184,(#1188,#1195),.PCURVE_S1.);
#1184 = LINE('',#1185,#1186);
#1185 = CARTESIAN_POINT('',(-27.,8.,0.));
#1186 = VECTOR('',#1187,1.);
#1187 = DIRECTION('',(0.,0.,1.));
#1188 = PCURVE('',#157,#1189);
#1189 = DEFINITIONAL_REPRESENTATION('',(#1190),#1194);
#1190 = LINE('',#1191,#1192);
#1191 = CARTESIAN_POINT('',(54.,0.));
#1192 = VECTOR('',#1193,1.);
#1193 = DIRECTION('',(0.,-1.));
#1194 = ( GEOMETRIC_REPRESENTATION_CONTEXT(2) 
PARAMETRIC_REPRESENTATION_CONTEXT() REPRESENTATION_CONTEXT('2D SPACE',''
  ) );
#1195 = PCURVE('',#185,#1196);
#1196 = DEFINITIONAL_REPRESENTATION('',(#1197),#1201);
#1197 = LINE('',#1198,#1199);
#1198 = CARTESIAN_POINT('',(0.,0.));
#1199 = VECTOR('',#1200,1.);
#1200 = DIRECTION('',(0.,-1.));
#1201 = ( GEOMETRIC_REPRESENTATION_CONTEXT(2) 
PARAMETRIC_REPRESENTATION_CONTEXT() REPRESENTATION_CONTEXT('2D SPACE',''
  ) );
#1202 = ADVANCED_FACE('',(#1203),#185,.F.);
#1203 = FACE_BOUND('',#1204,.F.);
#1204 = EDGE_LOOP('',(#1205,#1206,#1229,#1250));
#1205 = ORIENTED_EDGE('',*,*,#1182,.T.);
#1206 = ORIENTED_EDGE('',*,*,#1207,.T.);
#1207 = EDGE_CURVE('',#1160,#1208,#1210,.T.);
#1208 = VERTEX_POINT('',#1209);
#1209 = CARTESIAN_POINT('',(-27.,0.,40.));
#1210 = SURFACE_CURVE('',#1211,(#1215,#1222),.PCURVE_S1.);
#1211 = LINE('',#1212,#1213);
#1212 = CARTESIAN_POINT('',(-27.,8.,40.));
#1213 = VECTOR('',#1214,1.);
#1214 = DIRECTION('',(0.,-1.,0.));
#1215 = PCURVE('',#185,#1216);
#1216 = DEFINITIONAL_REPRESENTATION('',(#1217),#1221);
#1217 = LINE('',#1218,#1219);
#1218 = CARTESIAN_POINT('',(0.,-40.));
#1219 = VECTOR('',#1220,1.);
#1220 = DIRECTION('',(1.,0.));
#1221 = ( GEOMETRIC_REPRESENTATION_CONTEXT(2) 
PARAMETRIC_REPRESENTATION_CONTEXT() REPRESENTATION_CONTEXT('2D SPACE',''
  ) );
#1222 = PCURVE('',#294,#1223);
#1223 = DEFINITIONAL_REPRESENTATION('',(#1224),#1228);
#1224 = LINE('',#1225,#1226);
#1225 = CARTESIAN_POINT('',(-27.,-3.319103961744));
#1226 = VECTOR('',#1227,1.);
#1227 = DIRECTION('',(0.,-1.));
#1228 = ( GEOMETRIC_REPRESENTATION_CONTEXT(2) 
PARAMETRIC_REPRESENTATION_CONTEXT() REPRESENTATION_CONTEXT('2D SPACE',''
  ) );
#1229 = ORIENTED_EDGE('',*,*,#1230,.F.);
#1230 = EDGE_CURVE('',#170,#1208,#1231,.T.);
#1231 = SURFACE_CURVE('',#1232,(#1236,#1243),.PCURVE_S1.);
#1232 = LINE('',#1233,#1234);
#1233 = CARTESIAN_POINT('',(-27.,0.,0.));
#1234 = VECTOR('',#1235,1.);
#1235 = DIRECTION('',(0.,0.,1.));
#1236 = PCURVE('',#185,#1237);
#1237 = DEFINITIONAL_REPRESENTATION('',(#1238),#1242);
#1238 = LINE('',#1239,#1240);
#1239 = CARTESIAN_POINT('',(8.,0.));
#1240 = VECTOR('',#1241,1.);
#1241 = DIRECTION('',(0.,-1.));
#1242 = ( GEOMETRIC_REPRESENTATION_CONTEXT(2) 
PARAMETRIC_REPRESENTATION_CONTEXT() REPRESENTATION_CONTEXT('2D SPACE',''
  ) );
#1243 = PCURVE('',#213,#1244);
#1244 = DEFINITIONAL_REPRESENTATION('',(#1245),#1249);
#1245 = LINE('',#1246,#1247);
#1246 = CARTESIAN_POINT('',(-2.,-0.));
#1247 = VECTOR('',#1248,1.);
#1248 = DIRECTION('',(0.,-1.));
#1249 = ( GEOMETRIC_REPRESENTATION_CONTEXT(2) 
PARAMETRIC_REPRESENTATION_CONTEXT() REPRESENTATION_CONTEXT('2D SPACE',''
  ) );
#1250 = ORIENTED_EDGE('',*,*,#169,.F.);
#1251 = ADVANCED_FACE('',(#1252,#1300),#213,.F.);
#1252 = FACE_BOUND('',#1253,.F.);
#1253 = EDGE_LOOP('',(#1254,#1277,#1278,#1279));
#1254 = ORIENTED_EDGE('',*,*,#1255,.F.);
#1255 = EDGE_CURVE('',#198,#1256,#1258,.T.);
#1256 = VERTEX_POINT('',#1257);
#1257 = CARTESIAN_POINT('',(-17.5,1.428754594739E-15,40.));
#1258 = SURFACE_CURVE('',#1259,(#1263,#1270),.PCURVE_S1.);
#1259 = LINE('',#1260,#1261);
#1260 = CARTESIAN_POINT('',(-17.5,0.,0.));
#1261 = VECTOR('',#1262,1.);
#1262 = DIRECTION('',(0.,0.,1.));
#1263 = PCURVE('',#213,#1264);
#1264 = DEFINITIONAL_REPRESENTATION('',(#1265),#1269);
#1265 = LINE('',#1266,#1267);
#1266 = CARTESIAN_POINT('',(7.5,0.));
#1267 = VECTOR('',#1268,1.);
#1268 = DIRECTION('',(0.,-1.));
#1269 = ( GEOMETRIC_REPRESENTATION_CONTEXT(2) 
PARAMETRIC_REPRESENTATION_CONTEXT() REPRESENTATION_CONTEXT('2D SPACE',''
  ) );
#1270 = PCURVE('',#240,#1271);
#1271 = DEFINITIONAL_REPRESENTATION('',(#1272),#1276);
#1272 = LINE('',#1273,#1274);
#1273 = CARTESIAN_POINT('',(0.,0.));
#1274 = VECTOR('',#1275,1.);
#1275 = DIRECTION('',(0.,-1.));
#1276 = ( GEOMETRIC_REPRESENTATION_CONTEXT(2) 
PARAMETRIC_REPRESENTATION_CONTEXT() REPRESENTATION_CONTEXT('2D SPACE',''
  ) );
#1277 = ORIENTED_EDGE('',*,*,#197,.T.);
#1278 = ORIENTED_EDGE('',*,*,#1230,.T.);
#1279 = ORIENTED_EDGE('',*,*,#1280,.T.);
#1280 = EDGE_CURVE('',#1208,#1256,#1281,.T.);
#1281 = SURFACE_CURVE('',#1282,(#1286,#1293),.PCURVE_S1.);
#1282 = LINE('',#1283,#1284);
#1283 = CARTESIAN_POINT('',(-27.,0.,40.));
#1284 = VECTOR('',#1285,1.);
#1285 = DIRECTION('',(1.,1.503952204988E-16,0.));
#1286 = PCURVE('',#213,#1287);
#1287 = DEFINITIONAL_REPRESENTATION('',(#1288),#1292);
#1288 = LINE('',#1289,#1290);
#1289 = CARTESIAN_POINT('',(-2.,-40.));
#1290 = VECTOR('',#1291,1.);
#1291 = DIRECTION('',(1.,0.));
#1292 = ( GEOMETRIC_REPRESENTATION_CONTEXT(2) 
PARAMETRIC_REPRESENTATION_CONTEXT() REPRESENTATION_CONTEXT('2D SPACE',''
  ) );
#1293 = PCURVE('',#294,#1294);
#1294 = DEFINITIONAL_REPRESENTATION('',(#1295),#1299);
#1295 = LINE('',#1296,#1297);
#1296 = CARTESIAN_POINT('',(-27.,-11.31910396174));
#1297 = VECTOR('',#1298,1.);
#1298 = DIRECTION('',(1.,1.503952204988E-16));
#1299 = ( GEOMETRIC_REPRESENTATION_CONTEXT(2) 
PARAMETRIC_REPRESENTATION_CONTEXT() REPRESENTATION_CONTEXT('2D SPACE',''
  ) );
#1300 = FACE_BOUND('',#1301,.F.);
#1301 = EDGE_LOOP('',(#1302));
#1302 = ORIENTED_EDGE('',*,*,#1303,.F.);
#1303 = EDGE_CURVE('',#1304,#1304,#1306,.T.);
#1304 = VERTEX_POINT('',#1305);
#1305 = CARTESIAN_POINT('',(-19.25,0.,20.));
#1306 = SURFACE_CURVE('',#1307,(#1312,#1319),.PCURVE_S1.);
#1307 = CIRCLE('',#1308,3.);
#1308 = AXIS2_PLACEMENT_3D('',#1309,#1310,#1311);
#1309 = CARTESIAN_POINT('',(-22.25,3.552713678801E-15,20.));
#1310 = DIRECTION('',(-0.,1.,0.));
#1311 = DIRECTION('',(1.,0.,0.));
#1312 = PCURVE('',#213,#1313);
#1313 = DEFINITIONAL_REPRESENTATION('',(#1314),#1318);
#1314 = CIRCLE('',#1315,3.);
#1315 = AXIS2_PLACEMENT_2D('',#1316,#1317);
#1316 = CARTESIAN_POINT('',(2.75,-20.));
#1317 = DIRECTION('',(1.,0.));
#1318 = ( GEOMETRIC_REPRESENTATION_CONTEXT(2) 
PARAMETRIC_REPRESENTATION_CONTEXT() REPRESENTATION_CONTEXT('2D SPACE',''
  ) );
#1319 = PCURVE('',#937,#1320);
#1320 = DEFINITIONAL_REPRESENTATION('',(#1321),#1325);
#1321 = LINE('',#1322,#1323);
#1322 = CARTESIAN_POINT('',(-6.28318530718,-20.));
#1323 = VECTOR('',#1324,1.);
#1324 = DIRECTION('',(1.,-0.));
#1325 = ( GEOMETRIC_REPRESENTATION_CONTEXT(2) 
PARAMETRIC_REPRESENTATION_CONTEXT() REPRESENTATION_CONTEXT('2D SPACE',''
  ) );
#1326 = ADVANCED_FACE('',(#1327),#240,.F.);
#1327 = FACE_BOUND('',#1328,.F.);
#1328 = EDGE_LOOP('',(#1329,#1330,#1331,#1353));
#1329 = ORIENTED_EDGE('',*,*,#225,.T.);
#1330 = ORIENTED_EDGE('',*,*,#1255,.T.);
#1331 = ORIENTED_EDGE('',*,*,#1332,.F.);
#1332 = EDGE_CURVE('',#256,#1256,#1333,.T.);
#1333 = SURFACE_CURVE('',#1334,(#1339,#1346),.PCURVE_S1.);
#1334 = CIRCLE('',#1335,17.5);
#1335 = AXIS2_PLACEMENT_3D('',#1336,#1337,#1338);
#1336 = CARTESIAN_POINT('',(1.7763568394E-15,0.,40.));
#1337 = DIRECTION('',(0.,0.,1.));
#1338 = DIRECTION('',(1.,6.123233995737E-17,-0.));
#1339 = PCURVE('',#240,#1340);
#1340 = DEFINITIONAL_REPRESENTATION('',(#1341),#1345);
#1341 = LINE('',#1342,#1343);
#1342 = CARTESIAN_POINT('',(3.14159265359,-40.));
#1343 = VECTOR('',#1344,1.);
#1344 = DIRECTION('',(-1.,-0.));
#1345 = ( GEOMETRIC_REPRESENTATION_CONTEXT(2) 
PARAMETRIC_REPRESENTATION_CONTEXT() REPRESENTATION_CONTEXT('2D SPACE',''
  ) );
#1346 = PCURVE('',#294,#1347);
#1347 = DEFINITIONAL_REPRESENTATION('',(#1348),#1352);
#1348 = CIRCLE('',#1349,17.5);
#1349 = AXIS2_PLACEMENT_2D('',#1350,#1351);
#1350 = CARTESIAN_POINT('',(4.768115726811E-15,-11.31910396174));
#1351 = DIRECTION('',(1.,6.123233995737E-17));
#1352 = ( GEOMETRIC_REPRESENTATION_CONTEXT(2) 
PARAMETRIC_REPRESENTATION_CONTEXT() REPRESENTATION_CONTEXT('2D SPACE',''
  ) );
#1353 = ORIENTED_EDGE('',*,*,#255,.F.);
#1354 = ADVANCED_FACE('',(#1355),#294,.T.);
#1355 = FACE_BOUND('',#1356,.T.);
#1356 = EDGE_LOOP('',(#1357,#1358,#1359,#1360,#1361,#1362,#1363,#1364));
#1357 = ORIENTED_EDGE('',*,*,#278,.F.);
#1358 = ORIENTED_EDGE('',*,*,#363,.T.);
#1359 = ORIENTED_EDGE('',*,*,#413,.T.);
#1360 = ORIENTED_EDGE('',*,*,#808,.T.);
#1361 = ORIENTED_EDGE('',*,*,#1159,.T.);
#1362 = ORIENTED_EDGE('',*,*,#1207,.T.);
#1363 = ORIENTED_EDGE('',*,*,#1280,.T.);
#1364 = ORIENTED_EDGE('',*,*,#1332,.F.);
#1365 = ADVANCED_FACE('',(#1366),#347,.F.);
#1366 = FACE_BOUND('',#1367,.T.);
#1367 = EDGE_LOOP('',(#1368,#1369,#1390,#1391,#1392,#1393));
#1368 = ORIENTED_EDGE('',*,*,#457,.T.);
#1369 = ORIENTED_EDGE('',*,*,#1370,.T.);
#1370 = EDGE_CURVE('',#458,#331,#1371,.T.);
#1371 = SEAM_CURVE('',#1372,(#1376,#1383),.PCURVE_S1.);
#1372 = LINE('',#1373,#1374);
#1373 = CARTESIAN_POINT('',(25.25,20.,20.));
#1374 = VECTOR('',#1375,1.);
#1375 = DIRECTION('',(0.,-1.,0.));
#1376 = PCURVE('',#347,#1377);
#1377 = DEFINITIONAL_REPRESENTATION('',(#1378),#1382);
#1378 = LINE('',#1379,#1380);
#1379 = CARTESIAN_POINT('',(-6.28318530718,0.));
#1380 = VECTOR('',#1381,1.);
#1381 = DIRECTION('',(-0.,-1.));
#1382 = ( GEOMETRIC_REPRESENTATION_CONTEXT(2) 
PARAMETRIC_REPRESENTATION_CONTEXT() REPRESENTATION_CONTEXT('2D SPACE',''
  ) );
#1383 = PCURVE('',#347,#1384);
#1384 = DEFINITIONAL_REPRESENTATION('',(#1385),#1389);
#1385 = LINE('',#1386,#1387);
#1386 = CARTESIAN_POINT('',(-0.,0.));
#1387 = VECTOR('',#1388,1.);
#1388 = DIRECTION('',(-0.,-1.));
#1389 = ( GEOMETRIC_REPRESENTATION_CONTEXT(2) 
PARAMETRIC_REPRESENTATION_CONTEXT() REPRESENTATION_CONTEXT('2D SPACE',''
  ) );
#1390 = ORIENTED_EDGE('',*,*,#330,.F.);
#1391 = ORIENTED_EDGE('',*,*,#1370,.F.);
#1392 = ORIENTED_EDGE('',*,*,#485,.T.);
#1393 = ORIENTED_EDGE('',*,*,#537,.F.);
#1394 = ADVANCED_FACE('',(#1395),#937,.F.);
#1395 = FACE_BOUND('',#1396,.T.);
#1396 = EDGE_LOOP('',(#1397,#1398,#1419,#1420,#1421,#1422));
#1397 = ORIENTED_EDGE('',*,*,#853,.F.);
#1398 = ORIENTED_EDGE('',*,*,#1399,.T.);
#1399 = EDGE_CURVE('',#854,#1304,#1400,.T.);
#1400 = SEAM_CURVE('',#1401,(#1405,#1412),.PCURVE_S1.);
#1401 = LINE('',#1402,#1403);
#1402 = CARTESIAN_POINT('',(-19.25,20.,20.));
#1403 = VECTOR('',#1404,1.);
#1404 = DIRECTION('',(0.,-1.,0.));
#1405 = PCURVE('',#937,#1406);
#1406 = DEFINITIONAL_REPRESENTATION('',(#1407),#1411);
#1407 = LINE('',#1408,#1409);
#1408 = CARTESIAN_POINT('',(-6.28318530718,0.));
#1409 = VECTOR('',#1410,1.);
#1410 = DIRECTION('',(-0.,-1.));
#1411 = ( GEOMETRIC_REPRESENTATION_CONTEXT(2) 
PARAMETRIC_REPRESENTATION_CONTEXT() REPRESENTATION_CONTEXT('2D SPACE',''
  ) );
#1412 = PCURVE('',#937,#1413);
#1413 = DEFINITIONAL_REPRESENTATION('',(#1414),#1418);
#1414 = LINE('',#1415,#1416);
#1415 = CARTESIAN_POINT('',(-0.,0.));
#1416 = VECTOR('',#1417,1.);
#1417 = DIRECTION('',(-0.,-1.));
#1418 = ( GEOMETRIC_REPRESENTATION_CONTEXT(2) 
PARAMETRIC_REPRESENTATION_CONTEXT() REPRESENTATION_CONTEXT('2D SPACE',''
  ) );
#1419 = ORIENTED_EDGE('',*,*,#1303,.F.);
#1420 = ORIENTED_EDGE('',*,*,#1399,.F.);
#1421 = ORIENTED_EDGE('',*,*,#983,.F.);
#1422 = ORIENTED_EDGE('',*,*,#1132,.T.);
#1423 = ( GEOMETRIC_REPRESENTATION_CONTEXT(3) 
GLOBAL_UNCERTAINTY_ASSIGNED_CONTEXT((#1427)) 
GLOBAL_UNIT_ASSIGNED_CONTEXT((#1424,#1425,#1426)) REPRESENTATION_CONTEXT
('Context #1','3D Context with UNIT and UNCERTAINTY') );
#1424 = ( LENGTH_UNIT() NAMED_UNIT(*) SI_UNIT(.MILLI.,.METRE.) );
#1425 = ( NAMED_UNIT(*) PLANE_ANGLE_UNIT() SI_UNIT($,.RADIAN.) );
#1426 = ( NAMED_UNIT(*) SI_UNIT($,.STERADIAN.) SOLID_ANGLE_UNIT() );
#1427 = UNCERTAINTY_MEASURE_WITH_UNIT(LENGTH_MEASURE(1.E-07),#1424,
  'distance_accuracy_value','confusion accuracy');
#1428 = PRODUCT_RELATED_PRODUCT_CATEGORY('part',$,(#7));
ENDSEC;
END-ISO-10303-21;
