ISO-10303-21;
HEADER;
FILE_DESCRIPTION(('Open CASCADE Model'),'2;1');
FILE_NAME('Open CASCADE Shape Model','2026-08-07T02:34:19',('Author'),(
    'Open CASCADE'),'Open CASCADE STEP processor 7.7','Open CASCADE 7.7'
  ,'Unknown');
FILE_SCHEMA(('AUTOMOTIVE_DESIGN { 1 0 10303 214 1 1 1 1 }'));
ENDSEC;
DATA;
#1 = APPLICATION_PROTOCOL_DEFINITION('international standard',
  'automotive_design',2000,#2);
#2 = APPLICATION_CONTEXT(
  'core data for automotive mechanical design processes');
#3 = SHAPE_DEFINITION_REPRESENTATION(#4,#10);
#4 = PRODUCT_DEFINITION_SHAPE('','',#5);
#5 = PRODUCT_DEFINITION('design','',#6,#9);
#6 = PRODUCT_DEFINITION_FORMATION('','',#7);
#7 = PRODUCT('Open CASCADE STEP translator 7.7 45',
  'Open CASCADE STEP translator 7.7 45','',(#8));
#8 = PRODUCT_CONTEXT('',#2,'mechanical');
#9 = PRODUCT_DEFINITION_CONTEXT('part definition',#2,'design');
#10 = ADVANCED_BREP_SHAPE_REPRESENTATION('',(#11,#15),#1342);
#11 = AXIS2_PLACEMENT_3D('',#12,#13,#14);
#12 = CARTESIAN_POINT('',(0.,0.,0.));
#13 = DIRECTION('',(0.,0.,1.));
#14 = DIRECTION('',(1.,0.,-0.));
#15 = MANIFOLD_SOLID_BREP('',#16);
#16 = CLOSED_SHELL('',(#17,#137,#213,#678,#817,#946,#1033,#1060,#1250,
    #1277,#1326,#1334));
#17 = ADVANCED_FACE('',(#18),#32,.T.);
#18 = FACE_BOUND('',#19,.T.);
#19 = EDGE_LOOP('',(#20,#55,#83,#111));
#20 = ORIENTED_EDGE('',*,*,#21,.T.);
#21 = EDGE_CURVE('',#22,#24,#26,.T.);
#22 = VERTEX_POINT('',#23);
#23 = CARTESIAN_POINT('',(0.,45.,-5.));
#24 = VERTEX_POINT('',#25);
#25 = CARTESIAN_POINT('',(50.,45.,-5.));
#26 = SURFACE_CURVE('',#27,(#31,#43),.PCURVE_S1.);
#27 = LINE('',#28,#29);
#28 = CARTESIAN_POINT('',(0.,45.,-5.));
#29 = VECTOR('',#30,1.);
#30 = DIRECTION('',(1.,0.,0.));
#31 = PCURVE('',#32,#37);
#32 = PLANE('',#33);
#33 = AXIS2_PLACEMENT_3D('',#34,#35,#36);
#34 = CARTESIAN_POINT('',(0.,45.,-5.));
#35 = DIRECTION('',(0.,0.,-1.));
#36 = DIRECTION('',(0.,-1.,0.));
#37 = DEFINITIONAL_REPRESENTATION('',(#38),#42);
#38 = LINE('',#39,#40);
#39 = CARTESIAN_POINT('',(0.,-0.));
#40 = VECTOR('',#41,1.);
#41 = DIRECTION('',(0.,-1.));
#42 = ( GEOMETRIC_REPRESENTATION_CONTEXT(2) 
PARAMETRIC_REPRESENTATION_CONTEXT() REPRESENTATION_CONTEXT('2D SPACE',''
  ) );
#43 = PCURVE('',#44,#49);
#44 = PLANE('',#45);
#45 = AXIS2_PLACEMENT_3D('',#46,#47,#48);
#46 = CARTESIAN_POINT('',(0.,45.,0.));
#47 = DIRECTION('',(-0.,1.,0.));
#48 = DIRECTION('',(0.,0.,-1.));
#49 = DEFINITIONAL_REPRESENTATION('',(#50),#54);
#50 = LINE('',#51,#52);
#51 = CARTESIAN_POINT('',(5.,0.));
#52 = VECTOR('',#53,1.);
#53 = DIRECTION('',(0.,-1.));
#54 = ( GEOMETRIC_REPRESENTATION_CONTEXT(2) 
PARAMETRIC_REPRESENTATION_CONTEXT() REPRESENTATION_CONTEXT('2D SPACE',''
  ) );
#55 = ORIENTED_EDGE('',*,*,#56,.T.);
#56 = EDGE_CURVE('',#24,#57,#59,.T.);
#57 = VERTEX_POINT('',#58);
#58 = CARTESIAN_POINT('',(50.,5.,-5.));
#59 = SURFACE_CURVE('',#60,(#64,#71),.PCURVE_S1.);
#60 = LINE('',#61,#62);
#61 = CARTESIAN_POINT('',(50.,45.,-5.));
#62 = VECTOR('',#63,1.);
#63 = DIRECTION('',(0.,-1.,0.));
#64 = PCURVE('',#32,#65);
#65 = DEFINITIONAL_REPRESENTATION('',(#66),#70);
#66 = LINE('',#67,#68);
#67 = CARTESIAN_POINT('',(0.,-50.));
#68 = VECTOR('',#69,1.);
#69 = DIRECTION('',(1.,0.));
#70 = ( GEOMETRIC_REPRESENTATION_CONTEXT(2) 
PARAMETRIC_REPRESENTATION_CONTEXT() REPRESENTATION_CONTEXT('2D SPACE',''
  ) );
#71 = PCURVE('',#72,#77);
#72 = PLANE('',#73);
#73 = AXIS2_PLACEMENT_3D('',#74,#75,#76);
#74 = CARTESIAN_POINT('',(50.,10.389514484649,10.389514484649));
#75 = DIRECTION('',(-1.,-0.,-0.));
#76 = DIRECTION('',(0.,0.,-1.));
#77 = DEFINITIONAL_REPRESENTATION('',(#78),#82);
#78 = LINE('',#79,#80);
#79 = CARTESIAN_POINT('',(15.389514484649,-34.61048551535));
#80 = VECTOR('',#81,1.);
#81 = DIRECTION('',(0.,1.));
#82 = ( GEOMETRIC_REPRESENTATION_CONTEXT(2) 
PARAMETRIC_REPRESENTATION_CONTEXT() REPRESENTATION_CONTEXT('2D SPACE',''
  ) );
#83 = ORIENTED_EDGE('',*,*,#84,.F.);
#84 = EDGE_CURVE('',#85,#57,#87,.T.);
#85 = VERTEX_POINT('',#86);
#86 = CARTESIAN_POINT('',(0.,5.,-5.));
#87 = SURFACE_CURVE('',#88,(#92,#99),.PCURVE_S1.);
#88 = LINE('',#89,#90);
#89 = CARTESIAN_POINT('',(0.,5.,-5.));
#90 = VECTOR('',#91,1.);
#91 = DIRECTION('',(1.,0.,0.));
#92 = PCURVE('',#32,#93);
#93 = DEFINITIONAL_REPRESENTATION('',(#94),#98);
#94 = LINE('',#95,#96);
#95 = CARTESIAN_POINT('',(40.,0.));
#96 = VECTOR('',#97,1.);
#97 = DIRECTION('',(0.,-1.));
#98 = ( GEOMETRIC_REPRESENTATION_CONTEXT(2) 
PARAMETRIC_REPRESENTATION_CONTEXT() REPRESENTATION_CONTEXT('2D SPACE',''
  ) );
#99 = PCURVE('',#100,#105);
#100 = CYLINDRICAL_SURFACE('',#101,10.);
#101 = AXIS2_PLACEMENT_3D('',#102,#103,#104);
#102 = CARTESIAN_POINT('',(0.,5.,5.));
#103 = DIRECTION('',(-1.,0.,0.));
#104 = DIRECTION('',(-0.,-3.5527136788E-16,-1.));
#105 = DEFINITIONAL_REPRESENTATION('',(#106),#110);
#106 = LINE('',#107,#108);
#107 = CARTESIAN_POINT('',(0.,0.));
#108 = VECTOR('',#109,1.);
#109 = DIRECTION('',(0.,-1.));
#110 = ( GEOMETRIC_REPRESENTATION_CONTEXT(2) 
PARAMETRIC_REPRESENTATION_CONTEXT() REPRESENTATION_CONTEXT('2D SPACE',''
  ) );
#111 = ORIENTED_EDGE('',*,*,#112,.F.);
#112 = EDGE_CURVE('',#22,#85,#113,.T.);
#113 = SURFACE_CURVE('',#114,(#118,#125),.PCURVE_S1.);
#114 = LINE('',#115,#116);
#115 = CARTESIAN_POINT('',(0.,45.,-5.));
#116 = VECTOR('',#117,1.);
#117 = DIRECTION('',(0.,-1.,0.));
#118 = PCURVE('',#32,#119);
#119 = DEFINITIONAL_REPRESENTATION('',(#120),#124);
#120 = LINE('',#121,#122);
#121 = CARTESIAN_POINT('',(0.,-0.));
#122 = VECTOR('',#123,1.);
#123 = DIRECTION('',(1.,0.));
#124 = ( GEOMETRIC_REPRESENTATION_CONTEXT(2) 
PARAMETRIC_REPRESENTATION_CONTEXT() REPRESENTATION_CONTEXT('2D SPACE',''
  ) );
#125 = PCURVE('',#126,#131);
#126 = PLANE('',#127);
#127 = AXIS2_PLACEMENT_3D('',#128,#129,#130);
#128 = CARTESIAN_POINT('',(0.,10.389514484649,10.389514484649));
#129 = DIRECTION('',(-1.,-0.,-0.));
#130 = DIRECTION('',(0.,0.,-1.));
#131 = DEFINITIONAL_REPRESENTATION('',(#132),#136);
#132 = LINE('',#133,#134);
#133 = CARTESIAN_POINT('',(15.389514484649,-34.61048551535));
#134 = VECTOR('',#135,1.);
#135 = DIRECTION('',(0.,1.));
#136 = ( GEOMETRIC_REPRESENTATION_CONTEXT(2) 
PARAMETRIC_REPRESENTATION_CONTEXT() REPRESENTATION_CONTEXT('2D SPACE',''
  ) );
#137 = ADVANCED_FACE('',(#138),#44,.T.);
#138 = FACE_BOUND('',#139,.T.);
#139 = EDGE_LOOP('',(#140,#170,#191,#192));
#140 = ORIENTED_EDGE('',*,*,#141,.T.);
#141 = EDGE_CURVE('',#142,#144,#146,.T.);
#142 = VERTEX_POINT('',#143);
#143 = CARTESIAN_POINT('',(0.,45.,0.));
#144 = VERTEX_POINT('',#145);
#145 = CARTESIAN_POINT('',(50.,45.,0.));
#146 = SURFACE_CURVE('',#147,(#151,#158),.PCURVE_S1.);
#147 = LINE('',#148,#149);
#148 = CARTESIAN_POINT('',(0.,45.,0.));
#149 = VECTOR('',#150,1.);
#150 = DIRECTION('',(1.,0.,0.));
#151 = PCURVE('',#44,#152);
#152 = DEFINITIONAL_REPRESENTATION('',(#153),#157);
#153 = LINE('',#154,#155);
#154 = CARTESIAN_POINT('',(0.,0.));
#155 = VECTOR('',#156,1.);
#156 = DIRECTION('',(0.,-1.));
#157 = ( GEOMETRIC_REPRESENTATION_CONTEXT(2) 
PARAMETRIC_REPRESENTATION_CONTEXT() REPRESENTATION_CONTEXT('2D SPACE',''
  ) );
#158 = PCURVE('',#159,#164);
#159 = PLANE('',#160);
#160 = AXIS2_PLACEMENT_3D('',#161,#162,#163);
#161 = CARTESIAN_POINT('',(0.,5.,0.));
#162 = DIRECTION('',(0.,0.,1.));
#163 = DIRECTION('',(0.,1.,0.));
#164 = DEFINITIONAL_REPRESENTATION('',(#165),#169);
#165 = LINE('',#166,#167);
#166 = CARTESIAN_POINT('',(40.,0.));
#167 = VECTOR('',#168,1.);
#168 = DIRECTION('',(0.,-1.));
#169 = ( GEOMETRIC_REPRESENTATION_CONTEXT(2) 
PARAMETRIC_REPRESENTATION_CONTEXT() REPRESENTATION_CONTEXT('2D SPACE',''
  ) );
#170 = ORIENTED_EDGE('',*,*,#171,.T.);
#171 = EDGE_CURVE('',#144,#24,#172,.T.);
#172 = SURFACE_CURVE('',#173,(#177,#184),.PCURVE_S1.);
#173 = LINE('',#174,#175);
#174 = CARTESIAN_POINT('',(50.,45.,0.));
#175 = VECTOR('',#176,1.);
#176 = DIRECTION('',(0.,0.,-1.));
#177 = PCURVE('',#44,#178);
#178 = DEFINITIONAL_REPRESENTATION('',(#179),#183);
#179 = LINE('',#180,#181);
#180 = CARTESIAN_POINT('',(0.,-50.));
#181 = VECTOR('',#182,1.);
#182 = DIRECTION('',(1.,0.));
#183 = ( GEOMETRIC_REPRESENTATION_CONTEXT(2) 
PARAMETRIC_REPRESENTATION_CONTEXT() REPRESENTATION_CONTEXT('2D SPACE',''
  ) );
#184 = PCURVE('',#72,#185);
#185 = DEFINITIONAL_REPRESENTATION('',(#186),#190);
#186 = LINE('',#187,#188);
#187 = CARTESIAN_POINT('',(10.389514484649,-34.61048551535));
#188 = VECTOR('',#189,1.);
#189 = DIRECTION('',(1.,0.));
#190 = ( GEOMETRIC_REPRESENTATION_CONTEXT(2) 
PARAMETRIC_REPRESENTATION_CONTEXT() REPRESENTATION_CONTEXT('2D SPACE',''
  ) );
#191 = ORIENTED_EDGE('',*,*,#21,.F.);
#192 = ORIENTED_EDGE('',*,*,#193,.F.);
#193 = EDGE_CURVE('',#142,#22,#194,.T.);
#194 = SURFACE_CURVE('',#195,(#199,#206),.PCURVE_S1.);
#195 = LINE('',#196,#197);
#196 = CARTESIAN_POINT('',(0.,45.,0.));
#197 = VECTOR('',#198,1.);
#198 = DIRECTION('',(0.,0.,-1.));
#199 = PCURVE('',#44,#200);
#200 = DEFINITIONAL_REPRESENTATION('',(#201),#205);
#201 = LINE('',#202,#203);
#202 = CARTESIAN_POINT('',(0.,0.));
#203 = VECTOR('',#204,1.);
#204 = DIRECTION('',(1.,0.));
#205 = ( GEOMETRIC_REPRESENTATION_CONTEXT(2) 
PARAMETRIC_REPRESENTATION_CONTEXT() REPRESENTATION_CONTEXT('2D SPACE',''
  ) );
#206 = PCURVE('',#126,#207);
#207 = DEFINITIONAL_REPRESENTATION('',(#208),#212);
#208 = LINE('',#209,#210);
#209 = CARTESIAN_POINT('',(10.389514484649,-34.61048551535));
#210 = VECTOR('',#211,1.);
#211 = DIRECTION('',(1.,0.));
#212 = ( GEOMETRIC_REPRESENTATION_CONTEXT(2) 
PARAMETRIC_REPRESENTATION_CONTEXT() REPRESENTATION_CONTEXT('2D SPACE',''
  ) );
#213 = ADVANCED_FACE('',(#214,#291),#100,.T.);
#214 = FACE_BOUND('',#215,.T.);
#215 = EDGE_LOOP('',(#216,#217,#241,#269));
#216 = ORIENTED_EDGE('',*,*,#84,.T.);
#217 = ORIENTED_EDGE('',*,*,#218,.T.);
#218 = EDGE_CURVE('',#57,#219,#221,.T.);
#219 = VERTEX_POINT('',#220);
#220 = CARTESIAN_POINT('',(50.,-5.,5.));
#221 = SURFACE_CURVE('',#222,(#227,#234),.PCURVE_S1.);
#222 = CIRCLE('',#223,10.);
#223 = AXIS2_PLACEMENT_3D('',#224,#225,#226);
#224 = CARTESIAN_POINT('',(50.,5.,5.));
#225 = DIRECTION('',(-1.,0.,0.));
#226 = DIRECTION('',(-0.,-3.5527136788E-16,-1.));
#227 = PCURVE('',#100,#228);
#228 = DEFINITIONAL_REPRESENTATION('',(#229),#233);
#229 = LINE('',#230,#231);
#230 = CARTESIAN_POINT('',(0.,-50.));
#231 = VECTOR('',#232,1.);
#232 = DIRECTION('',(1.,0.));
#233 = ( GEOMETRIC_REPRESENTATION_CONTEXT(2) 
PARAMETRIC_REPRESENTATION_CONTEXT() REPRESENTATION_CONTEXT('2D SPACE',''
  ) );
#234 = PCURVE('',#72,#235);
#235 = DEFINITIONAL_REPRESENTATION('',(#236),#240);
#236 = CIRCLE('',#237,10.);
#237 = AXIS2_PLACEMENT_2D('',#238,#239);
#238 = CARTESIAN_POINT('',(5.389514484649,5.389514484649));
#239 = DIRECTION('',(1.,3.5527136788E-16));
#240 = ( GEOMETRIC_REPRESENTATION_CONTEXT(2) 
PARAMETRIC_REPRESENTATION_CONTEXT() REPRESENTATION_CONTEXT('2D SPACE',''
  ) );
#241 = ORIENTED_EDGE('',*,*,#242,.F.);
#242 = EDGE_CURVE('',#243,#219,#245,.T.);
#243 = VERTEX_POINT('',#244);
#244 = CARTESIAN_POINT('',(0.,-5.,5.));
#245 = SURFACE_CURVE('',#246,(#250,#257),.PCURVE_S1.);
#246 = LINE('',#247,#248);
#247 = CARTESIAN_POINT('',(0.,-5.,5.));
#248 = VECTOR('',#249,1.);
#249 = DIRECTION('',(1.,0.,0.));
#250 = PCURVE('',#100,#251);
#251 = DEFINITIONAL_REPRESENTATION('',(#252),#256);
#252 = LINE('',#253,#254);
#253 = CARTESIAN_POINT('',(1.570796326795,0.));
#254 = VECTOR('',#255,1.);
#255 = DIRECTION('',(0.,-1.));
#256 = ( GEOMETRIC_REPRESENTATION_CONTEXT(2) 
PARAMETRIC_REPRESENTATION_CONTEXT() REPRESENTATION_CONTEXT('2D SPACE',''
  ) );
#257 = PCURVE('',#258,#263);
#258 = PLANE('',#259);
#259 = AXIS2_PLACEMENT_3D('',#260,#261,#262);
#260 = CARTESIAN_POINT('',(0.,-5.,5.));
#261 = DIRECTION('',(0.,-1.,0.));
#262 = DIRECTION('',(0.,0.,1.));
#263 = DEFINITIONAL_REPRESENTATION('',(#264),#268);
#264 = LINE('',#265,#266);
#265 = CARTESIAN_POINT('',(0.,0.));
#266 = VECTOR('',#267,1.);
#267 = DIRECTION('',(0.,-1.));
#268 = ( GEOMETRIC_REPRESENTATION_CONTEXT(2) 
PARAMETRIC_REPRESENTATION_CONTEXT() REPRESENTATION_CONTEXT('2D SPACE',''
  ) );
#269 = ORIENTED_EDGE('',*,*,#270,.F.);
#270 = EDGE_CURVE('',#85,#243,#271,.T.);
#271 = SURFACE_CURVE('',#272,(#277,#284),.PCURVE_S1.);
#272 = CIRCLE('',#273,10.);
#273 = AXIS2_PLACEMENT_3D('',#274,#275,#276);
#274 = CARTESIAN_POINT('',(0.,5.,5.));
#275 = DIRECTION('',(-1.,0.,0.));
#276 = DIRECTION('',(-0.,-3.5527136788E-16,-1.));
#277 = PCURVE('',#100,#278);
#278 = DEFINITIONAL_REPRESENTATION('',(#279),#283);
#279 = LINE('',#280,#281);
#280 = CARTESIAN_POINT('',(0.,0.));
#281 = VECTOR('',#282,1.);
#282 = DIRECTION('',(1.,0.));
#283 = ( GEOMETRIC_REPRESENTATION_CONTEXT(2) 
PARAMETRIC_REPRESENTATION_CONTEXT() REPRESENTATION_CONTEXT('2D SPACE',''
  ) );
#284 = PCURVE('',#126,#285);
#285 = DEFINITIONAL_REPRESENTATION('',(#286),#290);
#286 = CIRCLE('',#287,10.);
#287 = AXIS2_PLACEMENT_2D('',#288,#289);
#288 = CARTESIAN_POINT('',(5.389514484649,5.389514484649));
#289 = DIRECTION('',(1.,3.5527136788E-16));
#290 = ( GEOMETRIC_REPRESENTATION_CONTEXT(2) 
PARAMETRIC_REPRESENTATION_CONTEXT() REPRESENTATION_CONTEXT('2D SPACE',''
  ) );
#291 = FACE_BOUND('',#292,.T.);
#292 = EDGE_LOOP('',(#293));
#293 = ORIENTED_EDGE('',*,*,#294,.T.);
#294 = EDGE_CURVE('',#295,#295,#297,.T.);
#295 = VERTEX_POINT('',#296);
#296 = CARTESIAN_POINT('',(30.,-2.071067811865,-2.071067811865));
#297 = SURFACE_CURVE('',#298,(#421,#547),.PCURVE_S1.);
#298 = B_SPLINE_CURVE_WITH_KNOTS('',7,(#299,#300,#301,#302,#303,#304,
    #305,#306,#307,#308,#309,#310,#311,#312,#313,#314,#315,#316,#317,
    #318,#319,#320,#321,#322,#323,#324,#325,#326,#327,#328,#329,#330,
    #331,#332,#333,#334,#335,#336,#337,#338,#339,#340,#341,#342,#343,
    #344,#345,#346,#347,#348,#349,#350,#351,#352,#353,#354,#355,#356,
    #357,#358,#359,#360,#361,#362,#363,#364,#365,#366,#367,#368,#369,
    #370,#371,#372,#373,#374,#375,#376,#377,#378,#379,#380,#381,#382,
    #383,#384,#385,#386,#387,#388,#389,#390,#391,#392,#393,#394,#395,
    #396,#397,#398,#399,#400,#401,#402,#403,#404,#405,#406,#407,#408,
    #409,#410,#411,#412,#413,#414,#415,#416,#417,#418,#419,#420),
  .UNSPECIFIED.,.T.,.F.,(8,6,6,6,6,6,6,6,6,6,6,6,6,6,6,6,6,6,6,6,8),(0.,
    5.893490524922E-02,8.556423448995E-02,0.121938151166,0.167890429667,
    0.206871510113,0.250173047016,0.33165757015,0.379378602195,
    0.415529912405,0.465607966005,0.525170700863,0.559712022368,
    0.607561506689,0.669425096809,0.750480559915,0.793894948299,
    0.831618519954,0.915120044041,0.964999419845,1.),.UNSPECIFIED.);
#299 = CARTESIAN_POINT('',(30.,-2.071067811865,-2.071067811865));
#300 = CARTESIAN_POINT('',(30.,-1.838705607134,-2.303430016597));
#301 = CARTESIAN_POINT('',(29.974803398121,-1.599242941824,
    -2.525075952243));
#302 = CARTESIAN_POINT('',(29.925117212051,-1.355419050378,
    -2.733766599974));
#303 = CARTESIAN_POINT('',(29.852455860334,-1.110402194232,
    -2.927827953019));
#304 = CARTESIAN_POINT('',(29.759137894988,-0.867682774532,
    -3.10619266196));
#305 = CARTESIAN_POINT('',(29.648329572376,-0.630901884407,
    -3.268367913735));
#306 = CARTESIAN_POINT('',(29.468018922479,-0.300917430313,
    -3.480281297418));
#307 = CARTESIAN_POINT('',(29.408934879589,-0.199728284618,
    -3.543198728138));
#308 = CARTESIAN_POINT('',(29.347083136084,-0.100154290578,
    -3.603190711013));
#309 = CARTESIAN_POINT('',(29.282651675127,-2.293169833133E-03,
    -3.660366251996));
#310 = CARTESIAN_POINT('',(29.215816656493,9.376630059547E-02,
    -3.714834057956));
#311 = CARTESIAN_POINT('',(29.146742612452,0.187944527706,
    -3.766702106156));
#312 = CARTESIAN_POINT('',(28.978382794837,0.406147119426,
    -3.883520371321));
#313 = CARTESIAN_POINT('',(28.877272378856,0.52850664024,-3.946325506565
    ));
#314 = CARTESIAN_POINT('',(28.772595898894,0.647121427679,
    -4.004789663904));
#315 = CARTESIAN_POINT('',(28.664655484013,0.761880016068,
    -4.059191740797));
#316 = CARTESIAN_POINT('',(28.553710773958,0.872686904877,
    -4.109793452195));
#317 = CARTESIAN_POINT('',(28.439978803961,0.979461512847,
    -4.156840295016));
#318 = CARTESIAN_POINT('',(28.176651810148,1.211850374004,
    -4.255798123821));
#319 = CARTESIAN_POINT('',(28.02547694116,1.335040896353,-4.305735827107
    ));
#320 = CARTESIAN_POINT('',(27.870522140595,1.451511501554,
    -4.350811206867));
#321 = CARTESIAN_POINT('',(27.712132978623,1.561083299904,
    -4.391421010153));
#322 = CARTESIAN_POINT('',(27.550597554182,1.663587931461,
    -4.427922590753));
#323 = CARTESIAN_POINT('',(27.386156311573,1.758859787896,
    -4.460633353273));
#324 = CARTESIAN_POINT('',(27.07722407983,1.921266583496,-4.514597729081
    ));
#325 = CARTESIAN_POINT('',(26.933498709562,1.99047351217,-4.536835281858
    ));
#326 = CARTESIAN_POINT('',(26.788022219765,2.054212844453,
    -4.556701226206));
#327 = CARTESIAN_POINT('',(26.640970081358,2.112359165883,-4.57433897555
    ));
#328 = CARTESIAN_POINT('',(26.492506891672,2.164797865529,
    -4.589875253956));
#329 = CARTESIAN_POINT('',(26.342786503442,2.211425178079,
    -4.603418364017));
#330 = CARTESIAN_POINT('',(26.024400123893,2.297384800668,
    -4.627984449774));
#331 = CARTESIAN_POINT('',(25.85548319084,2.335333219999,-4.638560840019
    ));
#332 = CARTESIAN_POINT('',(25.685480801596,2.365844244218,
    -4.646900923001));
#333 = CARTESIAN_POINT('',(25.514666435204,2.388805293409,-4.65309443781
    ));
#334 = CARTESIAN_POINT('',(25.343307757806,2.40414029794,-4.657203121065
    ));
#335 = CARTESIAN_POINT('',(25.171666777632,2.411809548975,
    -4.659258262891));
#336 = CARTESIAN_POINT('',(24.676958682903,2.411809548975,
    -4.659258262891));
#337 = CARTESIAN_POINT('',(24.354385758057,2.384651499845,
    -4.651981242415));
#338 = CARTESIAN_POINT('',(24.033755033301,2.330474637071,
    -4.637464730808));
#339 = CARTESIAN_POINT('',(23.716574466207,2.249742887847,-4.61531702784
    ));
#340 = CARTESIAN_POINT('',(23.404450780177,2.143260738743,
    -4.584737251932));
#341 = CARTESIAN_POINT('',(23.099150620536,2.012188478864,
    -4.544597474868));
#342 = CARTESIAN_POINT('',(22.629018872946,1.767790328352,
    -4.463712862215));
#343 = CARTESIAN_POINT('',(22.458265251202,1.669544802162,
    -4.430087187277));
#344 = CARTESIAN_POINT('',(22.290620341778,1.563510767535,
    -4.392404404516));
#345 = CARTESIAN_POINT('',(22.126350267865,1.449872497189,-4.35031210534
    ));
#346 = CARTESIAN_POINT('',(21.965776092364,1.328817342369,
    -4.303411662352));
#347 = CARTESIAN_POINT('',(21.809285590803,1.200545066267,
    -4.251258905466));
#348 = CARTESIAN_POINT('',(21.542241676329,0.962804301217,
    -4.149506822888));
#349 = CARTESIAN_POINT('',(21.429733335839,0.856302734375,
    -4.102347960765));
#350 = CARTESIAN_POINT('',(21.319993488467,0.745838065374,-4.05166137152
    ));
#351 = CARTESIAN_POINT('',(21.213237467484,0.631489916647,-3.99720552229
    ));
#352 = CARTESIAN_POINT('',(21.109722367171,0.513352952846,
    -3.938723316114));
#353 = CARTESIAN_POINT('',(21.009746956247,0.391537889084,
    -3.875941220551));
#354 = CARTESIAN_POINT('',(20.78053694595,9.251199615293E-02,
    -3.715241214406));
#355 = CARTESIAN_POINT('',(20.65456957515,-8.835098349991E-02,
    -3.612895420232));
#356 = CARTESIAN_POINT('',(20.537028340778,-0.275726112195,
    -3.500904211934));
#357 = CARTESIAN_POINT('',(20.42923371679,-0.468809099005,
    -3.378655810356));
#358 = CARTESIAN_POINT('',(20.332561414353,-0.666685919168,
    -3.245575938605));
#359 = CARTESIAN_POINT('',(20.248458912115,-0.868339787334,
    -3.101155750035));
#360 = CARTESIAN_POINT('',(20.095214146304,-1.315679959209,
    -2.75923627638));
#361 = CARTESIAN_POINT('',(20.031740416557,-1.563002180334,
    -2.556459700023));
#362 = CARTESIAN_POINT('',(19.991932974363,-1.809463263566,
    -2.338376708125));
#363 = CARTESIAN_POINT('',(19.977954597606,-2.050283586022,
    -2.107562169083));
#364 = CARTESIAN_POINT('',(19.990366244448,-2.281386337447,
    -1.867508474925));
#365 = CARTESIAN_POINT('',(20.028140493009,-2.499558935511,
    -1.622524797512));
#366 = CARTESIAN_POINT('',(20.123604095415,-2.820121723157,
    -1.235361761504));
#367 = CARTESIAN_POINT('',(20.166225717203,-2.932529082813,
    -1.093373525143));
#368 = CARTESIAN_POINT('',(20.2159754298,-3.039592884494,-0.952030459989
    ));
#369 = CARTESIAN_POINT('',(20.272364308275,-3.141276968937,
    -0.811860748323));
#370 = CARTESIAN_POINT('',(20.334864074837,-3.237590157885,
    -0.67339114871));
#371 = CARTESIAN_POINT('',(20.402903488988,-3.328580504595,
    -0.537140845914));
#372 = CARTESIAN_POINT('',(20.576936670439,-3.533116178864,
    -0.218644714885));
#373 = CARTESIAN_POINT('',(20.687586721856,-3.642001514713,
    -3.865860382744E-02));
#374 = CARTESIAN_POINT('',(20.806654122707,-3.741669189259,
    0.135776626106));
#375 = CARTESIAN_POINT('',(20.933139594863,-3.832799343249,
    0.304202412547));
#376 = CARTESIAN_POINT('',(21.066188109143,-3.916049489987,0.46625341502
    ));
#377 = CARTESIAN_POINT('',(21.205074143923,-3.992041397144,
    0.621639232027));
#378 = CARTESIAN_POINT('',(21.535513080123,-4.150966760811,
    0.962093290617));
#379 = CARTESIAN_POINT('',(21.73078660783,-4.229515634971,1.142741807518
    ));
#380 = CARTESIAN_POINT('',(21.933754028027,-4.298216642219,
    1.311531932302));
#381 = CARTESIAN_POINT('',(22.143435690711,-4.358153336229,1.46802393967
    ));
#382 = CARTESIAN_POINT('',(22.359079615914,-4.410274466692,
    1.611830708067));
#383 = CARTESIAN_POINT('',(22.580112814176,-4.455391660162,
    1.742573973108));
#384 = CARTESIAN_POINT('',(23.1021778605,-4.544994905932,2.013486678689)
  );
#385 = CARTESIAN_POINT('',(23.407028271404,-4.584989497302,
    2.144139160969));
#386 = CARTESIAN_POINT('',(23.718669940669,-4.615463266741,
    2.250275926067));
#387 = CARTESIAN_POINT('',(24.035344817543,-4.637536715997,
    2.330743294666));
#388 = CARTESIAN_POINT('',(24.355453462592,-4.652005357334,
    2.384741495493));
#389 = CARTESIAN_POINT('',(24.677494391545,-4.659258262891,
    2.411809548975));
#390 = CARTESIAN_POINT('',(25.172738310351,-4.659258262891,
    2.411809548975));
#391 = CARTESIAN_POINT('',(25.345450015262,-4.657177381967,
    2.404044261321));
#392 = CARTESIAN_POINT('',(25.517874047049,-4.653017279727,
    2.388517316031));
#393 = CARTESIAN_POINT('',(25.689743666221,-4.646745865979,
    2.365269411716));
#394 = CARTESIAN_POINT('',(25.860786299796,-4.638299833716,2.33437847015
    ));
#395 = CARTESIAN_POINT('',(26.030723379607,-4.627587192096,
    2.295959790846));
#396 = CARTESIAN_POINT('',(26.345723639064,-4.603109230701,
    2.210375305477));
#397 = CARTESIAN_POINT('',(26.49112230283,-4.58992864095,2.165017546631)
  );
#398 = CARTESIAN_POINT('',(26.635334151142,-4.574866765211,
    2.114178344537));
#399 = CARTESIAN_POINT('',(26.778217764782,-4.557824457447,
    2.057952890917));
#400 = CARTESIAN_POINT('',(26.919622217547,-4.538686198996,
    1.996446117402));
#401 = CARTESIAN_POINT('',(27.059386967693,-4.517321607028,
    1.929772659153));
#402 = CARTESIAN_POINT('',(27.502706114997,-4.441050013596,
    1.699313048112));
#403 = CARTESIAN_POINT('',(27.798775480293,-4.376973974808,
    1.516085102785));
#404 = CARTESIAN_POINT('',(28.084672230041,-4.299698025122,
    1.309360741527));
#405 = CARTESIAN_POINT('',(28.358990605822,-4.207072122546,
    1.079963345275));
#406 = CARTESIAN_POINT('',(28.619617743297,-4.096477293836,
    0.828750576446));
#407 = CARTESIAN_POINT('',(28.863505287982,-3.964804552065,
    0.556892189261));
#408 = CARTESIAN_POINT('',(29.21946305405,-3.715241214406,
    9.251199615285E-02));
#409 = CARTESIAN_POINT('',(29.34543042485,-3.612895420232,
    -8.83509834999E-02));
#410 = CARTESIAN_POINT('',(29.462971659222,-3.500904211934,
    -0.275726112195));
#411 = CARTESIAN_POINT('',(29.57076628321,-3.378655810356,
    -0.468809099005));
#412 = CARTESIAN_POINT('',(29.667438585647,-3.245575938605,
    -0.666685919168));
#413 = CARTESIAN_POINT('',(29.751541087885,-3.101155750035,
    -0.868339787334));
#414 = CARTESIAN_POINT('',(29.870650224329,-2.83539963742,
    -1.216033891514));
#415 = CARTESIAN_POINT('',(29.912798119648,-2.72007367219,
    -1.360660915598));
#416 = CARTESIAN_POINT('',(29.947263925902,-2.599305360776,
    -1.50559250957));
#417 = CARTESIAN_POINT('',(29.973507155686,-2.473485566644,
    -1.649916779152));
#418 = CARTESIAN_POINT('',(29.991155099672,-2.343102209076,
    -1.79277912918));
#419 = CARTESIAN_POINT('',(30.,-2.208738876909,-1.933396746822));
#420 = CARTESIAN_POINT('',(30.,-2.071067811865,-2.071067811865));
#421 = PCURVE('',#100,#422);
#422 = DEFINITIONAL_REPRESENTATION('',(#423),#546);
#423 = B_SPLINE_CURVE_WITH_KNOTS('',7,(#424,#425,#426,#427,#428,#429,
    #430,#431,#432,#433,#434,#435,#436,#437,#438,#439,#440,#441,#442,
    #443,#444,#445,#446,#447,#448,#449,#450,#451,#452,#453,#454,#455,
    #456,#457,#458,#459,#460,#461,#462,#463,#464,#465,#466,#467,#468,
    #469,#470,#471,#472,#473,#474,#475,#476,#477,#478,#479,#480,#481,
    #482,#483,#484,#485,#486,#487,#488,#489,#490,#491,#492,#493,#494,
    #495,#496,#497,#498,#499,#500,#501,#502,#503,#504,#505,#506,#507,
    #508,#509,#510,#511,#512,#513,#514,#515,#516,#517,#518,#519,#520,
    #521,#522,#523,#524,#525,#526,#527,#528,#529,#530,#531,#532,#533,
    #534,#535,#536,#537,#538,#539,#540,#541,#542,#543,#544,#545),
  .UNSPECIFIED.,.T.,.F.,(8,6,6,6,6,6,6,6,6,6,6,6,6,6,6,6,6,6,6,6,8),(0.,
    5.893490524922E-02,8.556423448995E-02,0.121938151166,0.167890429667,
    0.206871510113,0.250173047016,0.33165757015,0.379378602195,
    0.415529912405,0.465607966005,0.525170700863,0.559712022368,
    0.607561506689,0.669425096809,0.750480559915,0.793894948299,
    0.831618519954,0.915120044041,0.964999419845,1.),.UNSPECIFIED.);
#424 = CARTESIAN_POINT('',(0.785398163397,-30.));
#425 = CARTESIAN_POINT('',(0.752537185266,-30.));
#426 = CARTESIAN_POINT('',(0.719931837289,-29.97480339812));
#427 = CARTESIAN_POINT('',(0.687876433612,-29.92511721205));
#428 = CARTESIAN_POINT('',(0.656658855887,-29.85245586033));
#429 = CARTESIAN_POINT('',(0.626565448583,-29.75913789498));
#430 = CARTESIAN_POINT('',(0.597878557309,-29.64832957237));
#431 = CARTESIAN_POINT('',(0.558661593871,-29.46801892247));
#432 = CARTESIAN_POINT('',(0.546747389685,-29.40893487958));
#433 = CARTESIAN_POINT('',(0.535124200265,-29.34708313608));
#434 = CARTESIAN_POINT('',(0.523792024973,-29.28265167512));
#435 = CARTESIAN_POINT('',(0.512750690674,-29.21581665649));
#436 = CARTESIAN_POINT('',(0.501999782551,-29.14674261245));
#437 = CARTESIAN_POINT('',(0.477249251625,-28.97838279483));
#438 = CARTESIAN_POINT('',(0.46349764154,-28.87727237885));
#439 = CARTESIAN_POINT('',(0.450276306631,-28.77259589889));
#440 = CARTESIAN_POINT('',(0.43757873264,-28.66465548401));
#441 = CARTESIAN_POINT('',(0.425399090951,-28.55371077395));
#442 = CARTESIAN_POINT('',(0.41373200045,-28.43997880396));
#443 = CARTESIAN_POINT('',(0.388473885977,-28.17665181014));
#444 = CARTESIAN_POINT('',(0.375183163133,-28.02547694116));
#445 = CARTESIAN_POINT('',(0.362696664647,-27.87052214059));
#446 = CARTESIAN_POINT('',(0.351013033217,-27.71213297862));
#447 = CARTESIAN_POINT('',(0.340133207967,-27.55059755418));
#448 = CARTESIAN_POINT('',(0.33006062197,-27.38615631157));
#449 = CARTESIAN_POINT('',(0.312946849413,-27.07722407983));
#450 = CARTESIAN_POINT('',(0.305678016821,-26.93349870956));
#451 = CARTESIAN_POINT('',(0.299002047423,-26.78802221976));
#452 = CARTESIAN_POINT('',(0.292926051313,-26.64097008135));
#453 = CARTESIAN_POINT('',(0.287456998415,-26.49250689167));
#454 = CARTESIAN_POINT('',(0.282601613658,-26.34278650344));
#455 = CARTESIAN_POINT('',(0.273661507794,-26.02440012389));
#456 = CARTESIAN_POINT('',(0.269722115059,-25.85548319084));
#457 = CARTESIAN_POINT('',(0.266559132507,-25.68548080159));
#458 = CARTESIAN_POINT('',(0.264180966381,-25.5146664352));
#459 = CARTESIAN_POINT('',(0.262593364105,-25.3433077578));
#460 = CARTESIAN_POINT('',(0.261799387799,-25.17166677763));
#461 = CARTESIAN_POINT('',(0.261799387799,-24.6769586829));
#462 = CARTESIAN_POINT('',(0.264610973889,-24.35438575805));
#463 = CARTESIAN_POINT('',(0.270219850023,-24.0337550333));
#464 = CARTESIAN_POINT('',(0.278591066301,-23.7165744662));
#465 = CARTESIAN_POINT('',(0.289667930138,-23.40445078017));
#466 = CARTESIAN_POINT('',(0.30337253057,-23.09915062053));
#467 = CARTESIAN_POINT('',(0.329116030048,-22.62901887294));
#468 = CARTESIAN_POINT('',(0.339499540859,-22.4582652512));
#469 = CARTESIAN_POINT('',(0.350751373539,-22.29062034177));
#470 = CARTESIAN_POINT('',(0.362867614943,-22.12635026786));
#471 = CARTESIAN_POINT('',(0.375847236028,-21.96577609236));
#472 = CARTESIAN_POINT('',(0.389691854536,-21.8092855908));
#473 = CARTESIAN_POINT('',(0.415551892757,-21.54224167632));
#474 = CARTESIAN_POINT('',(0.427198535632,-21.42973333583));
#475 = CARTESIAN_POINT('',(0.439350603191,-21.31999348846));
#476 = CARTESIAN_POINT('',(0.452013433146,-21.21323746748));
#477 = CARTESIAN_POINT('',(0.465192754544,-21.10972236717));
#478 = CARTESIAN_POINT('',(0.478894918293,-21.00974695624));
#479 = CARTESIAN_POINT('',(0.512842079679,-20.78053694595));
#480 = CARTESIAN_POINT('',(0.533618389114,-20.65456957515));
#481 = CARTESIAN_POINT('',(0.555437453193,-20.53702834077));
#482 = CARTESIAN_POINT('',(0.578275924761,-20.42923371679));
#483 = CARTESIAN_POINT('',(0.602106489896,-20.33256141435));
#484 = CARTESIAN_POINT('',(0.626898004892,-20.24845891211));
#485 = CARTESIAN_POINT('',(0.683202725461,-20.0952141463));
#486 = CARTESIAN_POINT('',(0.715166515136,-20.03174041655));
#487 = CARTESIAN_POINT('',(0.748037499599,-19.99193297436));
#488 = CARTESIAN_POINT('',(0.781347070684,-19.9779545976));
#489 = CARTESIAN_POINT('',(0.814627708228,-19.99036624444));
#490 = CARTESIAN_POINT('',(0.847411512287,-20.028140493));
#491 = CARTESIAN_POINT('',(0.897676382452,-20.12360409541));
#492 = CARTESIAN_POINT('',(0.915781697474,-20.1662257172));
#493 = CARTESIAN_POINT('',(0.933506839028,-20.2159754298));
#494 = CARTESIAN_POINT('',(0.950817274925,-20.27236430827));
#495 = CARTESIAN_POINT('',(0.967679455531,-20.33486407483));
#496 = CARTESIAN_POINT('',(0.984060789022,-20.40290348898));
#497 = CARTESIAN_POINT('',(1.021912424063,-20.57693667043));
#498 = CARTESIAN_POINT('',(1.042940792081,-20.68758672185));
#499 = CARTESIAN_POINT('',(1.06302136018,-20.8066541227));
#500 = CARTESIAN_POINT('',(1.082162849746,-20.93313959486));
#501 = CARTESIAN_POINT('',(1.100375434807,-21.06618810914));
#502 = CARTESIAN_POINT('',(1.117669857052,-21.20507414392));
#503 = CARTESIAN_POINT('',(1.155241952712,-21.53551308012));
#504 = CARTESIAN_POINT('',(1.174933755579,-21.73078660783));
#505 = CARTESIAN_POINT('',(1.193149773659,-21.93375402802));
#506 = CARTESIAN_POINT('',(1.209902071977,-22.14343569071));
#507 = CARTESIAN_POINT('',(1.225195236915,-22.35907961591));
#508 = CARTESIAN_POINT('',(1.23902491248,-22.58011281417));
#509 = CARTESIAN_POINT('',(1.267559529299,-23.1021778605));
#510 = CARTESIAN_POINT('',(1.281219774066,-23.4070282714));
#511 = CARTESIAN_POINT('',(1.292260532492,-23.71866994066));
#512 = CARTESIAN_POINT('',(1.30060429085,-24.03534481754));
#513 = CARTESIAN_POINT('',(1.306194669685,-24.35545346259));
#514 = CARTESIAN_POINT('',(1.308996938996,-24.67749439154));
#515 = CARTESIAN_POINT('',(1.308996938996,-25.17273831035));
#516 = CARTESIAN_POINT('',(1.308193020362,-25.34545001526));
#517 = CARTESIAN_POINT('',(1.306585546692,-25.51787404704));
#518 = CARTESIAN_POINT('',(1.304177656357,-25.68974366622));
#519 = CARTESIAN_POINT('',(1.30097523492,-25.86078629979));
#520 = CARTESIAN_POINT('',(1.296986887549,-26.0307233796));
#521 = CARTESIAN_POINT('',(1.288085272679,-26.34572363906));
#522 = CARTESIAN_POINT('',(1.283361913166,-26.49112230283));
#523 = CARTESIAN_POINT('',(1.278059687301,-26.63533415114));
#524 = CARTESIAN_POINT('',(1.272184767498,-26.77821776478));
#525 = CARTESIAN_POINT('',(1.265743554292,-26.91962221754));
#526 = CARTESIAN_POINT('',(1.258742586456,-27.05938696769));
#527 = CARTESIAN_POINT('',(1.234467292784,-27.50270611499));
#528 = CARTESIAN_POINT('',(1.215059153903,-27.79877548029));
#529 = CARTESIAN_POINT('',(1.192998004098,-28.08467223004));
#530 = CARTESIAN_POINT('',(1.168275731924,-28.35899060582));
#531 = CARTESIAN_POINT('',(1.140853381978,-28.61961774329));
#532 = CARTESIAN_POINT('',(1.110673391954,-28.86350528798));
#533 = CARTESIAN_POINT('',(1.057954247115,-29.21946305405));
#534 = CARTESIAN_POINT('',(1.037177937681,-29.34543042485));
#535 = CARTESIAN_POINT('',(1.015358873602,-29.46297165922));
#536 = CARTESIAN_POINT('',(0.992520402034,-29.57076628321));
#537 = CARTESIAN_POINT('',(0.968689836899,-29.66743858564));
#538 = CARTESIAN_POINT('',(0.943898321903,-29.75154108788));
#539 = CARTESIAN_POINT('',(0.900135609296,-29.87065022432));
#540 = CARTESIAN_POINT('',(0.88164165629,-29.91279811964));
#541 = CARTESIAN_POINT('',(0.862783423197,-29.9472639259));
#542 = CARTESIAN_POINT('',(0.843645318519,-29.97350715568));
#543 = CARTESIAN_POINT('',(0.824311884235,-29.99115509967));
#544 = CARTESIAN_POINT('',(0.80486779213,-30.));
#545 = CARTESIAN_POINT('',(0.785398163397,-30.));
#546 = ( GEOMETRIC_REPRESENTATION_CONTEXT(2) 
PARAMETRIC_REPRESENTATION_CONTEXT() REPRESENTATION_CONTEXT('2D SPACE',''
  ) );
#547 = PCURVE('',#548,#553);
#548 = CYLINDRICAL_SURFACE('',#549,5.);
#549 = AXIS2_PLACEMENT_3D('',#550,#551,#552);
#550 = CARTESIAN_POINT('',(25.,-44.49747468305,-44.49747468305));
#551 = DIRECTION('',(0.,-0.707106781187,-0.707106781187));
#552 = DIRECTION('',(1.,0.,0.));
#553 = DEFINITIONAL_REPRESENTATION('',(#554),#677);
#554 = B_SPLINE_CURVE_WITH_KNOTS('',7,(#555,#556,#557,#558,#559,#560,
    #561,#562,#563,#564,#565,#566,#567,#568,#569,#570,#571,#572,#573,
    #574,#575,#576,#577,#578,#579,#580,#581,#582,#583,#584,#585,#586,
    #587,#588,#589,#590,#591,#592,#593,#594,#595,#596,#597,#598,#599,
    #600,#601,#602,#603,#604,#605,#606,#607,#608,#609,#610,#611,#612,
    #613,#614,#615,#616,#617,#618,#619,#620,#621,#622,#623,#624,#625,
    #626,#627,#628,#629,#630,#631,#632,#633,#634,#635,#636,#637,#638,
    #639,#640,#641,#642,#643,#644,#645,#646,#647,#648,#649,#650,#651,
    #652,#653,#654,#655,#656,#657,#658,#659,#660,#661,#662,#663,#664,
    #665,#666,#667,#668,#669,#670,#671,#672,#673,#674,#675,#676),
  .UNSPECIFIED.,.F.,.F.,(8,6,6,6,6,6,6,6,6,6,6,6,6,6,6,6,6,6,6,6,8),(0.,
    5.893490524922E-02,8.556423448995E-02,0.121938151166,0.167890429667,
    0.206871510113,0.250173047016,0.33165757015,0.379378602195,
    0.415529912405,0.465607966005,0.525170700863,0.559712022368,
    0.607561506689,0.669425096809,0.750480559915,0.793894948299,
    0.831618519954,0.915120044041,0.964999419845,1.),.UNSPECIFIED.);
#555 = CARTESIAN_POINT('',(0.,-60.));
#556 = CARTESIAN_POINT('',(-6.572195626289E-02,-60.));
#557 = CARTESIAN_POINT('',(-0.130932517267,-60.01259833036));
#558 = CARTESIAN_POINT('',(-0.195391583302,-60.03744128524));
#559 = CARTESIAN_POINT('',(-0.258844789656,-60.07347226702));
#560 = CARTESIAN_POINT('',(-0.320998444537,-60.1189779194));
#561 = CARTESIAN_POINT('',(-0.381485559371,-60.17173207219));
#562 = CARTESIAN_POINT('',(-0.466182327611,-60.25522092674));
#563 = CARTESIAN_POINT('',(-0.492213070147,-60.28228311592));
#564 = CARTESIAN_POINT('',(-0.51792837154,-60.31027182443));
#565 = CARTESIAN_POINT('',(-0.54334025858,-60.33904087378));
#566 = CARTESIAN_POINT('',(-0.568459968989,-60.36845062176));
#567 = CARTESIAN_POINT('',(-0.593298307996,-60.39836843619));
#568 = CARTESIAN_POINT('',(-0.651423867077,-60.470057981));
#569 = CARTESIAN_POINT('',(-0.684483316661,-60.51216929088));
#570 = CARTESIAN_POINT('',(-0.71708550327,-60.55470220932));
#571 = CARTESIAN_POINT('',(-0.749268338513,-60.59738070789));
#572 = CARTESIAN_POINT('',(-0.781068258042,-60.6399521971));
#573 = CARTESIAN_POINT('',(-0.812521983606,-60.68218610486));
#574 = CARTESIAN_POINT('',(-0.883016357891,-60.77653609266));
#575 = CARTESIAN_POINT('',(-0.921879734217,-60.82833365776));
#576 = CARTESIAN_POINT('',(-0.960318463034,-60.87881770581));
#577 = CARTESIAN_POINT('',(-0.99839010544,-60.92758120016));
#578 = CARTESIAN_POINT('',(-1.036150599183,-60.97425240508));
#579 = CARTESIAN_POINT('',(-1.073655123175,-61.01848977882));
#580 = CARTESIAN_POINT('',(-1.142603615752,-61.09517014922));
#581 = CARTESIAN_POINT('',(-1.174102126245,-61.12838251343));
#582 = CARTESIAN_POINT('',(-1.205474230101,-61.15940568355));
#583 = CARTESIAN_POINT('',(-1.236739213867,-61.18804956957));
#584 = CARTESIAN_POINT('',(-1.267916419086,-61.21414352187));
#585 = CARTESIAN_POINT('',(-1.299025747369,-61.2375375858));
#586 = CARTESIAN_POINT('',(-1.364593377426,-61.28094937202));
#587 = CARTESIAN_POINT('',(-1.399038701082,-61.3003043194));
#588 = CARTESIAN_POINT('',(-1.433435847622,-61.31598154229));
#589 = CARTESIAN_POINT('',(-1.467796944323,-61.32783797956));
#590 = CARTESIAN_POINT('',(-1.5021347668,-61.33577618746));
#591 = CARTESIAN_POINT('',(-1.536462971269,-61.33974596215));
#592 = CARTESIAN_POINT('',(-1.635404590214,-61.33974596215));
#593 = CARTESIAN_POINT('',(-1.699919138309,-61.32568795197));
#594 = CARTESIAN_POINT('',(-1.764485888617,-61.29764384872));
#595 = CARTESIAN_POINT('',(-1.829237641213,-61.25621867234));
#596 = CARTESIAN_POINT('',(-1.894299570276,-61.20254758955));
#597 = CARTESIAN_POINT('',(-1.959788083098,-61.13824861432));
#598 = CARTESIAN_POINT('',(-2.064464402884,-61.02262708288));
#599 = CARTESIAN_POINT('',(-2.103336343031,-60.97693394786));
#600 = CARTESIAN_POINT('',(-2.142480516623,-60.92860231417));
#601 = CARTESIAN_POINT('',(-2.181958394248,-60.87801167278));
#602 = CARTESIAN_POINT('',(-2.221832304463,-60.82557637319));
#603 = CARTESIAN_POINT('',(-2.262166470833,-60.77175174497));
#604 = CARTESIAN_POINT('',(-2.333982945002,-60.67559322543));
#605 = CARTESIAN_POINT('',(-2.365244811919,-60.63363159651));
#606 = CARTESIAN_POINT('',(-2.396851634257,-60.59136211095));
#607 = CARTESIAN_POINT('',(-2.428839376504,-60.54901185983));
#608 = CARTESIAN_POINT('',(-2.461243687794,-60.50682957619));
#609 = CARTESIAN_POINT('',(-2.494101606611,-60.46508696406));
#610 = CARTESIAN_POINT('',(-2.573653144612,-60.3672757915));
#611 = CARTESIAN_POINT('',(-2.62090413546,-60.31175575721));
#612 = CARTESIAN_POINT('',(-2.669212466208,-60.2584512759));
#613 = CARTESIAN_POINT('',(-2.7185979674,-60.20836366034));
#614 = CARTESIAN_POINT('',(-2.769092518563,-60.16254529872));
#615 = CARTESIAN_POINT('',(-2.820741748464,-60.12207497577));
#616 = CARTESIAN_POINT('',(-2.936491366568,-60.04753128518));
#617 = CARTESIAN_POINT('',(-3.001234250713,-60.01603275769));
#618 = CARTESIAN_POINT('',(-3.067100362031,-59.99596641687));
#619 = CARTESIAN_POINT('',(-3.133485371345,-59.98889125957));
#620 = CARTESIAN_POINT('',(-3.199840392327,-59.99522053187));
#621 = CARTESIAN_POINT('',(-3.265595919663,-60.01417882789));
#622 = CARTESIAN_POINT('',(-3.367488258947,-60.06127231514));
#623 = CARTESIAN_POINT('',(-3.404425308447,-60.08218915365));
#624 = CARTESIAN_POINT('',(-3.440882918332,-60.1064282533));
#625 = CARTESIAN_POINT('',(-3.476840431969,-60.13364170129));
#626 = CARTESIAN_POINT('',(-3.512271693397,-60.16345078514));
#627 = CARTESIAN_POINT('',(-3.547143761652,-60.19545440701));
#628 = CARTESIAN_POINT('',(-3.628891833903,-60.27603661877));
#629 = CARTESIAN_POINT('',(-3.675278878077,-60.32631245907));
#630 = CARTESIAN_POINT('',(-3.720667617581,-60.37918110449));
#631 = CARTESIAN_POINT('',(-3.765140212512,-60.43383737036));
#632 = CARTESIAN_POINT('',(-3.808774409239,-60.48955798981));
#633 = CARTESIAN_POINT('',(-3.851646049635,-60.54569796185));
#634 = CARTESIAN_POINT('',(-3.948368289941,-60.67405813301));
#635 = CARTESIAN_POINT('',(-4.001818542899,-60.74625348275));
#636 = CARTESIAN_POINT('',(-4.054342762597,-60.81702717648));
#637 = CARTESIAN_POINT('',(-4.106092800034,-60.88530209332));
#638 = CARTESIAN_POINT('',(-4.157214237809,-60.95013362964));
#639 = CARTESIAN_POINT('',(-4.207850470998,-61.01068040549));
#640 = CARTESIAN_POINT('',(-4.32404647578,-61.13888555402));
#641 = CARTESIAN_POINT('',(-4.389422970548,-61.20299036345));
#642 = CARTESIAN_POINT('',(-4.454375448211,-61.25649218076));
#643 = CARTESIAN_POINT('',(-4.519019563415,-61.29778291711));
#644 = CARTESIAN_POINT('',(-4.583479709606,-61.32573453668));
#645 = CARTESIAN_POINT('',(-4.647887858694,-61.33974596215));
#646 = CARTESIAN_POINT('',(-4.746936642455,-61.33974596215));
#647 = CARTESIAN_POINT('',(-4.781478992225,-61.3357264796));
#648 = CARTESIAN_POINT('',(-4.816031130471,-61.3276889078));
#649 = CARTESIAN_POINT('',(-4.850607010647,-61.3156847162));
#650 = CARTESIAN_POINT('',(-4.885219679284,-61.29981376863));
#651 = CARTESIAN_POINT('',(-4.91988151638,-61.28022264151));
#652 = CARTESIAN_POINT('',(-4.984775902748,-61.23701380403));
#653 = CARTESIAN_POINT('',(-5.01499241789,-61.21426110956));
#654 = CARTESIAN_POINT('',(-5.045273102447,-61.18896271948));
#655 = CARTESIAN_POINT('',(-5.075636107572,-61.16125605134));
#656 = CARTESIAN_POINT('',(-5.106099087365,-61.13129698703));
#657 = CARTESIAN_POINT('',(-5.136679631878,-61.09925878044));
#658 = CARTESIAN_POINT('',(-5.23538604145,-60.99023138761));
#659 = CARTESIAN_POINT('',(-5.303945355319,-60.9059782665));
#660 = CARTESIAN_POINT('',(-5.373471301796,-60.81444441687));
#661 = CARTESIAN_POINT('',(-5.444345343785,-60.71773236621));
#662 = CARTESIAN_POINT('',(-5.516955923875,-60.6183004672));
#663 = CARTESIAN_POINT('',(-5.591704126887,-60.5191742467));
#664 = CARTESIAN_POINT('',(-5.715245798202,-60.3672757915));
#665 = CARTESIAN_POINT('',(-5.76249678905,-60.31175575721));
#666 = CARTESIAN_POINT('',(-5.810805119798,-60.2584512759));
#667 = CARTESIAN_POINT('',(-5.86019062099,-60.20836366034));
#668 = CARTESIAN_POINT('',(-5.910685172152,-60.16254529872));
#669 = CARTESIAN_POINT('',(-5.962334402053,-60.12207497577));
#670 = CARTESIAN_POINT('',(-6.052300522483,-60.06413606629));
#671 = CARTESIAN_POINT('',(-6.089983287008,-60.04341708888));
#672 = CARTESIAN_POINT('',(-6.128126356826,-60.02633106793));
#673 = CARTESIAN_POINT('',(-6.166618650502,-60.01324642786));
#674 = CARTESIAN_POINT('',(-6.205357872947,-60.00442244767));
#675 = CARTESIAN_POINT('',(-6.244246049714,-60.));
#676 = CARTESIAN_POINT('',(-6.28318530718,-60.));
#677 = ( GEOMETRIC_REPRESENTATION_CONTEXT(2) 
PARAMETRIC_REPRESENTATION_CONTEXT() REPRESENTATION_CONTEXT('2D SPACE',''
  ) );
#678 = ADVANCED_FACE('',(#679),#126,.T.);
#679 = FACE_BOUND('',#680,.T.);
#680 = EDGE_LOOP('',(#681,#682,#683,#706,#734,#762,#795,#816));
#681 = ORIENTED_EDGE('',*,*,#112,.T.);
#682 = ORIENTED_EDGE('',*,*,#270,.T.);
#683 = ORIENTED_EDGE('',*,*,#684,.T.);
#684 = EDGE_CURVE('',#243,#685,#687,.T.);
#685 = VERTEX_POINT('',#686);
#686 = CARTESIAN_POINT('',(0.,-5.,45.));
#687 = SURFACE_CURVE('',#688,(#692,#699),.PCURVE_S1.);
#688 = LINE('',#689,#690);
#689 = CARTESIAN_POINT('',(0.,-5.,5.));
#690 = VECTOR('',#691,1.);
#691 = DIRECTION('',(0.,0.,1.));
#692 = PCURVE('',#126,#693);
#693 = DEFINITIONAL_REPRESENTATION('',(#694),#698);
#694 = LINE('',#695,#696);
#695 = CARTESIAN_POINT('',(5.389514484649,15.389514484649));
#696 = VECTOR('',#697,1.);
#697 = DIRECTION('',(-1.,0.));
#698 = ( GEOMETRIC_REPRESENTATION_CONTEXT(2) 
PARAMETRIC_REPRESENTATION_CONTEXT() REPRESENTATION_CONTEXT('2D SPACE',''
  ) );
#699 = PCURVE('',#258,#700);
#700 = DEFINITIONAL_REPRESENTATION('',(#701),#705);
#701 = LINE('',#702,#703);
#702 = CARTESIAN_POINT('',(0.,0.));
#703 = VECTOR('',#704,1.);
#704 = DIRECTION('',(1.,0.));
#705 = ( GEOMETRIC_REPRESENTATION_CONTEXT(2) 
PARAMETRIC_REPRESENTATION_CONTEXT() REPRESENTATION_CONTEXT('2D SPACE',''
  ) );
#706 = ORIENTED_EDGE('',*,*,#707,.T.);
#707 = EDGE_CURVE('',#685,#708,#710,.T.);
#708 = VERTEX_POINT('',#709);
#709 = CARTESIAN_POINT('',(0.,0.,45.));
#710 = SURFACE_CURVE('',#711,(#715,#722),.PCURVE_S1.);
#711 = LINE('',#712,#713);
#712 = CARTESIAN_POINT('',(0.,-5.,45.));
#713 = VECTOR('',#714,1.);
#714 = DIRECTION('',(0.,1.,0.));
#715 = PCURVE('',#126,#716);
#716 = DEFINITIONAL_REPRESENTATION('',(#717),#721);
#717 = LINE('',#718,#719);
#718 = CARTESIAN_POINT('',(-34.61048551535,15.389514484649));
#719 = VECTOR('',#720,1.);
#720 = DIRECTION('',(0.,-1.));
#721 = ( GEOMETRIC_REPRESENTATION_CONTEXT(2) 
PARAMETRIC_REPRESENTATION_CONTEXT() REPRESENTATION_CONTEXT('2D SPACE',''
  ) );
#722 = PCURVE('',#723,#728);
#723 = PLANE('',#724);
#724 = AXIS2_PLACEMENT_3D('',#725,#726,#727);
#725 = CARTESIAN_POINT('',(0.,-5.,45.));
#726 = DIRECTION('',(0.,0.,1.));
#727 = DIRECTION('',(0.,1.,0.));
#728 = DEFINITIONAL_REPRESENTATION('',(#729),#733);
#729 = LINE('',#730,#731);
#730 = CARTESIAN_POINT('',(0.,0.));
#731 = VECTOR('',#732,1.);
#732 = DIRECTION('',(1.,0.));
#733 = ( GEOMETRIC_REPRESENTATION_CONTEXT(2) 
PARAMETRIC_REPRESENTATION_CONTEXT() REPRESENTATION_CONTEXT('2D SPACE',''
  ) );
#734 = ORIENTED_EDGE('',*,*,#735,.T.);
#735 = EDGE_CURVE('',#708,#736,#738,.T.);
#736 = VERTEX_POINT('',#737);
#737 = CARTESIAN_POINT('',(0.,0.,5.));
#738 = SURFACE_CURVE('',#739,(#743,#750),.PCURVE_S1.);
#739 = LINE('',#740,#741);
#740 = CARTESIAN_POINT('',(0.,0.,45.));
#741 = VECTOR('',#742,1.);
#742 = DIRECTION('',(0.,0.,-1.));
#743 = PCURVE('',#126,#744);
#744 = DEFINITIONAL_REPRESENTATION('',(#745),#749);
#745 = LINE('',#746,#747);
#746 = CARTESIAN_POINT('',(-34.61048551535,10.389514484649));
#747 = VECTOR('',#748,1.);
#748 = DIRECTION('',(1.,0.));
#749 = ( GEOMETRIC_REPRESENTATION_CONTEXT(2) 
PARAMETRIC_REPRESENTATION_CONTEXT() REPRESENTATION_CONTEXT('2D SPACE',''
  ) );
#750 = PCURVE('',#751,#756);
#751 = PLANE('',#752);
#752 = AXIS2_PLACEMENT_3D('',#753,#754,#755);
#753 = CARTESIAN_POINT('',(0.,0.,45.));
#754 = DIRECTION('',(-0.,1.,0.));
#755 = DIRECTION('',(0.,0.,-1.));
#756 = DEFINITIONAL_REPRESENTATION('',(#757),#761);
#757 = LINE('',#758,#759);
#758 = CARTESIAN_POINT('',(0.,0.));
#759 = VECTOR('',#760,1.);
#760 = DIRECTION('',(1.,0.));
#761 = ( GEOMETRIC_REPRESENTATION_CONTEXT(2) 
PARAMETRIC_REPRESENTATION_CONTEXT() REPRESENTATION_CONTEXT('2D SPACE',''
  ) );
#762 = ORIENTED_EDGE('',*,*,#763,.T.);
#763 = EDGE_CURVE('',#736,#764,#766,.T.);
#764 = VERTEX_POINT('',#765);
#765 = CARTESIAN_POINT('',(0.,5.,0.));
#766 = SURFACE_CURVE('',#767,(#772,#783),.PCURVE_S1.);
#767 = CIRCLE('',#768,5.);
#768 = AXIS2_PLACEMENT_3D('',#769,#770,#771);
#769 = CARTESIAN_POINT('',(0.,5.,5.));
#770 = DIRECTION('',(1.,0.,0.));
#771 = DIRECTION('',(0.,-1.,-3.5527136788E-16));
#772 = PCURVE('',#126,#773);
#773 = DEFINITIONAL_REPRESENTATION('',(#774),#782);
#774 = ( BOUNDED_CURVE() B_SPLINE_CURVE(2,(#775,#776,#777,#778,#779,#780
,#781),.UNSPECIFIED.,.T.,.F.) B_SPLINE_CURVE_WITH_KNOTS((1,2,2,2,2,1),(
    -2.094395102393,0.,2.094395102393,4.188790204786,6.28318530718,
8.377580409573),.UNSPECIFIED.) CURVE() GEOMETRIC_REPRESENTATION_ITEM() 
RATIONAL_B_SPLINE_CURVE((1.,0.5,1.,0.5,1.,0.5,1.)) REPRESENTATION_ITEM(
  '') );
#775 = CARTESIAN_POINT('',(5.389514484649,10.389514484649));
#776 = CARTESIAN_POINT('',(14.049768522494,10.389514484649));
#777 = CARTESIAN_POINT('',(9.719641503572,2.889514484649));
#778 = CARTESIAN_POINT('',(5.389514484649,-4.610485515351));
#779 = CARTESIAN_POINT('',(1.059387465727,2.889514484649));
#780 = CARTESIAN_POINT('',(-3.270739553195,10.389514484649));
#781 = CARTESIAN_POINT('',(5.389514484649,10.389514484649));
#782 = ( GEOMETRIC_REPRESENTATION_CONTEXT(2) 
PARAMETRIC_REPRESENTATION_CONTEXT() REPRESENTATION_CONTEXT('2D SPACE',''
  ) );
#783 = PCURVE('',#784,#789);
#784 = CYLINDRICAL_SURFACE('',#785,5.);
#785 = AXIS2_PLACEMENT_3D('',#786,#787,#788);
#786 = CARTESIAN_POINT('',(0.,5.,5.));
#787 = DIRECTION('',(-1.,-0.,-0.));
#788 = DIRECTION('',(0.,-1.,-3.5527136788E-16));
#789 = DEFINITIONAL_REPRESENTATION('',(#790),#794);
#790 = LINE('',#791,#792);
#791 = CARTESIAN_POINT('',(-0.,0.));
#792 = VECTOR('',#793,1.);
#793 = DIRECTION('',(-1.,0.));
#794 = ( GEOMETRIC_REPRESENTATION_CONTEXT(2) 
PARAMETRIC_REPRESENTATION_CONTEXT() REPRESENTATION_CONTEXT('2D SPACE',''
  ) );
#795 = ORIENTED_EDGE('',*,*,#796,.T.);
#796 = EDGE_CURVE('',#764,#142,#797,.T.);
#797 = SURFACE_CURVE('',#798,(#802,#809),.PCURVE_S1.);
#798 = LINE('',#799,#800);
#799 = CARTESIAN_POINT('',(0.,5.,0.));
#800 = VECTOR('',#801,1.);
#801 = DIRECTION('',(0.,1.,0.));
#802 = PCURVE('',#126,#803);
#803 = DEFINITIONAL_REPRESENTATION('',(#804),#808);
#804 = LINE('',#805,#806);
#805 = CARTESIAN_POINT('',(10.389514484649,5.389514484649));
#806 = VECTOR('',#807,1.);
#807 = DIRECTION('',(0.,-1.));
#808 = ( GEOMETRIC_REPRESENTATION_CONTEXT(2) 
PARAMETRIC_REPRESENTATION_CONTEXT() REPRESENTATION_CONTEXT('2D SPACE',''
  ) );
#809 = PCURVE('',#159,#810);
#810 = DEFINITIONAL_REPRESENTATION('',(#811),#815);
#811 = LINE('',#812,#813);
#812 = CARTESIAN_POINT('',(0.,0.));
#813 = VECTOR('',#814,1.);
#814 = DIRECTION('',(1.,0.));
#815 = ( GEOMETRIC_REPRESENTATION_CONTEXT(2) 
PARAMETRIC_REPRESENTATION_CONTEXT() REPRESENTATION_CONTEXT('2D SPACE',''
  ) );
#816 = ORIENTED_EDGE('',*,*,#193,.T.);
#817 = ADVANCED_FACE('',(#818),#72,.F.);
#818 = FACE_BOUND('',#819,.F.);
#819 = EDGE_LOOP('',(#820,#821,#822,#845,#868,#891,#924,#945));
#820 = ORIENTED_EDGE('',*,*,#56,.T.);
#821 = ORIENTED_EDGE('',*,*,#218,.T.);
#822 = ORIENTED_EDGE('',*,*,#823,.T.);
#823 = EDGE_CURVE('',#219,#824,#826,.T.);
#824 = VERTEX_POINT('',#825);
#825 = CARTESIAN_POINT('',(50.,-5.,45.));
#826 = SURFACE_CURVE('',#827,(#831,#838),.PCURVE_S1.);
#827 = LINE('',#828,#829);
#828 = CARTESIAN_POINT('',(50.,-5.,5.));
#829 = VECTOR('',#830,1.);
#830 = DIRECTION('',(0.,0.,1.));
#831 = PCURVE('',#72,#832);
#832 = DEFINITIONAL_REPRESENTATION('',(#833),#837);
#833 = LINE('',#834,#835);
#834 = CARTESIAN_POINT('',(5.389514484649,15.389514484649));
#835 = VECTOR('',#836,1.);
#836 = DIRECTION('',(-1.,0.));
#837 = ( GEOMETRIC_REPRESENTATION_CONTEXT(2) 
PARAMETRIC_REPRESENTATION_CONTEXT() REPRESENTATION_CONTEXT('2D SPACE',''
  ) );
#838 = PCURVE('',#258,#839);
#839 = DEFINITIONAL_REPRESENTATION('',(#840),#844);
#840 = LINE('',#841,#842);
#841 = CARTESIAN_POINT('',(0.,-50.));
#842 = VECTOR('',#843,1.);
#843 = DIRECTION('',(1.,0.));
#844 = ( GEOMETRIC_REPRESENTATION_CONTEXT(2) 
PARAMETRIC_REPRESENTATION_CONTEXT() REPRESENTATION_CONTEXT('2D SPACE',''
  ) );
#845 = ORIENTED_EDGE('',*,*,#846,.T.);
#846 = EDGE_CURVE('',#824,#847,#849,.T.);
#847 = VERTEX_POINT('',#848);
#848 = CARTESIAN_POINT('',(50.,0.,45.));
#849 = SURFACE_CURVE('',#850,(#854,#861),.PCURVE_S1.);
#850 = LINE('',#851,#852);
#851 = CARTESIAN_POINT('',(50.,-5.,45.));
#852 = VECTOR('',#853,1.);
#853 = DIRECTION('',(0.,1.,0.));
#854 = PCURVE('',#72,#855);
#855 = DEFINITIONAL_REPRESENTATION('',(#856),#860);
#856 = LINE('',#857,#858);
#857 = CARTESIAN_POINT('',(-34.61048551535,15.389514484649));
#858 = VECTOR('',#859,1.);
#859 = DIRECTION('',(0.,-1.));
#860 = ( GEOMETRIC_REPRESENTATION_CONTEXT(2) 
PARAMETRIC_REPRESENTATION_CONTEXT() REPRESENTATION_CONTEXT('2D SPACE',''
  ) );
#861 = PCURVE('',#723,#862);
#862 = DEFINITIONAL_REPRESENTATION('',(#863),#867);
#863 = LINE('',#864,#865);
#864 = CARTESIAN_POINT('',(0.,-50.));
#865 = VECTOR('',#866,1.);
#866 = DIRECTION('',(1.,0.));
#867 = ( GEOMETRIC_REPRESENTATION_CONTEXT(2) 
PARAMETRIC_REPRESENTATION_CONTEXT() REPRESENTATION_CONTEXT('2D SPACE',''
  ) );
#868 = ORIENTED_EDGE('',*,*,#869,.T.);
#869 = EDGE_CURVE('',#847,#870,#872,.T.);
#870 = VERTEX_POINT('',#871);
#871 = CARTESIAN_POINT('',(50.,0.,5.));
#872 = SURFACE_CURVE('',#873,(#877,#884),.PCURVE_S1.);
#873 = LINE('',#874,#875);
#874 = CARTESIAN_POINT('',(50.,0.,45.));
#875 = VECTOR('',#876,1.);
#876 = DIRECTION('',(0.,0.,-1.));
#877 = PCURVE('',#72,#878);
#878 = DEFINITIONAL_REPRESENTATION('',(#879),#883);
#879 = LINE('',#880,#881);
#880 = CARTESIAN_POINT('',(-34.61048551535,10.389514484649));
#881 = VECTOR('',#882,1.);
#882 = DIRECTION('',(1.,0.));
#883 = ( GEOMETRIC_REPRESENTATION_CONTEXT(2) 
PARAMETRIC_REPRESENTATION_CONTEXT() REPRESENTATION_CONTEXT('2D SPACE',''
  ) );
#884 = PCURVE('',#751,#885);
#885 = DEFINITIONAL_REPRESENTATION('',(#886),#890);
#886 = LINE('',#887,#888);
#887 = CARTESIAN_POINT('',(0.,-50.));
#888 = VECTOR('',#889,1.);
#889 = DIRECTION('',(1.,0.));
#890 = ( GEOMETRIC_REPRESENTATION_CONTEXT(2) 
PARAMETRIC_REPRESENTATION_CONTEXT() REPRESENTATION_CONTEXT('2D SPACE',''
  ) );
#891 = ORIENTED_EDGE('',*,*,#892,.T.);
#892 = EDGE_CURVE('',#870,#893,#895,.T.);
#893 = VERTEX_POINT('',#894);
#894 = CARTESIAN_POINT('',(50.,5.,0.));
#895 = SURFACE_CURVE('',#896,(#901,#912),.PCURVE_S1.);
#896 = CIRCLE('',#897,5.);
#897 = AXIS2_PLACEMENT_3D('',#898,#899,#900);
#898 = CARTESIAN_POINT('',(50.,5.,5.));
#899 = DIRECTION('',(1.,0.,0.));
#900 = DIRECTION('',(0.,-1.,-3.5527136788E-16));
#901 = PCURVE('',#72,#902);
#902 = DEFINITIONAL_REPRESENTATION('',(#903),#911);
#903 = ( BOUNDED_CURVE() B_SPLINE_CURVE(2,(#904,#905,#906,#907,#908,#909
,#910),.UNSPECIFIED.,.T.,.F.) B_SPLINE_CURVE_WITH_KNOTS((1,2,2,2,2,1),(
    -2.094395102393,0.,2.094395102393,4.188790204786,6.28318530718,
8.377580409573),.UNSPECIFIED.) CURVE() GEOMETRIC_REPRESENTATION_ITEM() 
RATIONAL_B_SPLINE_CURVE((1.,0.5,1.,0.5,1.,0.5,1.)) REPRESENTATION_ITEM(
  '') );
#904 = CARTESIAN_POINT('',(5.389514484649,10.389514484649));
#905 = CARTESIAN_POINT('',(14.049768522494,10.389514484649));
#906 = CARTESIAN_POINT('',(9.719641503572,2.889514484649));
#907 = CARTESIAN_POINT('',(5.389514484649,-4.610485515351));
#908 = CARTESIAN_POINT('',(1.059387465727,2.889514484649));
#909 = CARTESIAN_POINT('',(-3.270739553195,10.389514484649));
#910 = CARTESIAN_POINT('',(5.389514484649,10.389514484649));
#911 = ( GEOMETRIC_REPRESENTATION_CONTEXT(2) 
PARAMETRIC_REPRESENTATION_CONTEXT() REPRESENTATION_CONTEXT('2D SPACE',''
  ) );
#912 = PCURVE('',#913,#918);
#913 = CYLINDRICAL_SURFACE('',#914,5.);
#914 = AXIS2_PLACEMENT_3D('',#915,#916,#917);
#915 = CARTESIAN_POINT('',(0.,5.,5.));
#916 = DIRECTION('',(-1.,-0.,-0.));
#917 = DIRECTION('',(0.,-1.,-3.5527136788E-16));
#918 = DEFINITIONAL_REPRESENTATION('',(#919),#923);
#919 = LINE('',#920,#921);
#920 = CARTESIAN_POINT('',(-0.,-50.));
#921 = VECTOR('',#922,1.);
#922 = DIRECTION('',(-1.,0.));
#923 = ( GEOMETRIC_REPRESENTATION_CONTEXT(2) 
PARAMETRIC_REPRESENTATION_CONTEXT() REPRESENTATION_CONTEXT('2D SPACE',''
  ) );
#924 = ORIENTED_EDGE('',*,*,#925,.T.);
#925 = EDGE_CURVE('',#893,#144,#926,.T.);
#926 = SURFACE_CURVE('',#927,(#931,#938),.PCURVE_S1.);
#927 = LINE('',#928,#929);
#928 = CARTESIAN_POINT('',(50.,5.,0.));
#929 = VECTOR('',#930,1.);
#930 = DIRECTION('',(0.,1.,0.));
#931 = PCURVE('',#72,#932);
#932 = DEFINITIONAL_REPRESENTATION('',(#933),#937);
#933 = LINE('',#934,#935);
#934 = CARTESIAN_POINT('',(10.389514484649,5.389514484649));
#935 = VECTOR('',#936,1.);
#936 = DIRECTION('',(0.,-1.));
#937 = ( GEOMETRIC_REPRESENTATION_CONTEXT(2) 
PARAMETRIC_REPRESENTATION_CONTEXT() REPRESENTATION_CONTEXT('2D SPACE',''
  ) );
#938 = PCURVE('',#159,#939);
#939 = DEFINITIONAL_REPRESENTATION('',(#940),#944);
#940 = LINE('',#941,#942);
#941 = CARTESIAN_POINT('',(0.,-50.));
#942 = VECTOR('',#943,1.);
#943 = DIRECTION('',(1.,0.));
#944 = ( GEOMETRIC_REPRESENTATION_CONTEXT(2) 
PARAMETRIC_REPRESENTATION_CONTEXT() REPRESENTATION_CONTEXT('2D SPACE',''
  ) );
#945 = ORIENTED_EDGE('',*,*,#171,.T.);
#946 = ADVANCED_FACE('',(#947),#159,.T.);
#947 = FACE_BOUND('',#948,.T.);
#948 = EDGE_LOOP('',(#949,#950,#973,#1010,#1031,#1032));
#949 = ORIENTED_EDGE('',*,*,#796,.F.);
#950 = ORIENTED_EDGE('',*,*,#951,.T.);
#951 = EDGE_CURVE('',#764,#952,#954,.T.);
#952 = VERTEX_POINT('',#953);
#953 = CARTESIAN_POINT('',(21.464466094067,5.,0.));
#954 = SURFACE_CURVE('',#955,(#959,#966),.PCURVE_S1.);
#955 = LINE('',#956,#957);
#956 = CARTESIAN_POINT('',(0.,5.,0.));
#957 = VECTOR('',#958,1.);
#958 = DIRECTION('',(1.,0.,0.));
#959 = PCURVE('',#159,#960);
#960 = DEFINITIONAL_REPRESENTATION('',(#961),#965);
#961 = LINE('',#962,#963);
#962 = CARTESIAN_POINT('',(0.,0.));
#963 = VECTOR('',#964,1.);
#964 = DIRECTION('',(0.,-1.));
#965 = ( GEOMETRIC_REPRESENTATION_CONTEXT(2) 
PARAMETRIC_REPRESENTATION_CONTEXT() REPRESENTATION_CONTEXT('2D SPACE',''
  ) );
#966 = PCURVE('',#784,#967);
#967 = DEFINITIONAL_REPRESENTATION('',(#968),#972);
#968 = LINE('',#969,#970);
#969 = CARTESIAN_POINT('',(-1.570796326795,0.));
#970 = VECTOR('',#971,1.);
#971 = DIRECTION('',(-0.,-1.));
#972 = ( GEOMETRIC_REPRESENTATION_CONTEXT(2) 
PARAMETRIC_REPRESENTATION_CONTEXT() REPRESENTATION_CONTEXT('2D SPACE',''
  ) );
#973 = ORIENTED_EDGE('',*,*,#974,.F.);
#974 = EDGE_CURVE('',#975,#952,#977,.T.);
#975 = VERTEX_POINT('',#976);
#976 = CARTESIAN_POINT('',(28.535533905933,5.,0.));
#977 = SURFACE_CURVE('',#978,(#983,#990),.PCURVE_S1.);
#978 = ELLIPSE('',#979,7.071067811865,5.);
#979 = AXIS2_PLACEMENT_3D('',#980,#981,#982);
#980 = CARTESIAN_POINT('',(25.,0.,0.));
#981 = DIRECTION('',(0.,0.,1.));
#982 = DIRECTION('',(0.,-1.,0.));
#983 = PCURVE('',#159,#984);
#984 = DEFINITIONAL_REPRESENTATION('',(#985),#989);
#985 = ELLIPSE('',#986,7.071067811865,5.);
#986 = AXIS2_PLACEMENT_2D('',#987,#988);
#987 = CARTESIAN_POINT('',(-5.,-25.));
#988 = DIRECTION('',(-1.,0.));
#989 = ( GEOMETRIC_REPRESENTATION_CONTEXT(2) 
PARAMETRIC_REPRESENTATION_CONTEXT() REPRESENTATION_CONTEXT('2D SPACE',''
  ) );
#990 = PCURVE('',#548,#991);
#991 = DEFINITIONAL_REPRESENTATION('',(#992),#1009);
#992 = B_SPLINE_CURVE_WITH_KNOTS('',8,(#993,#994,#995,#996,#997,#998,
    #999,#1000,#1001,#1002,#1003,#1004,#1005,#1006,#1007,#1008),
  .UNSPECIFIED.,.F.,.F.,(9,7,9),(1.712693381399,3.14159265359,
    4.570491925781),.UNSPECIFIED.);
#993 = CARTESIAN_POINT('',(-0.141897054604,-63.63603896932));
#994 = CARTESIAN_POINT('',(-0.320509463628,-64.52012528869));
#995 = CARTESIAN_POINT('',(-0.499121872651,-65.37843067419));
#996 = CARTESIAN_POINT('',(-0.677734281676,-66.16797603617));
#997 = CARTESIAN_POINT('',(-0.856346690696,-66.84754150634));
#998 = CARTESIAN_POINT('',(-1.034959099723,-67.38203451884));
#999 = CARTESIAN_POINT('',(-1.213571508747,-67.74663271829));
#1000 = CARTESIAN_POINT('',(-1.392183917771,-67.92893218813));
#1001 = CARTESIAN_POINT('',(-1.749408735819,-67.92893218813));
#1002 = CARTESIAN_POINT('',(-1.928021144842,-67.74663271838));
#1003 = CARTESIAN_POINT('',(-2.106633553863,-67.38203451831));
#1004 = CARTESIAN_POINT('',(-2.285245962894,-66.84754150698));
#1005 = CARTESIAN_POINT('',(-2.463858371912,-66.16797603582));
#1006 = CARTESIAN_POINT('',(-2.642470780936,-65.3784306743));
#1007 = CARTESIAN_POINT('',(-2.821083189962,-64.52012528869));
#1008 = CARTESIAN_POINT('',(-2.999695598986,-63.63603896932));
#1009 = ( GEOMETRIC_REPRESENTATION_CONTEXT(2) 
PARAMETRIC_REPRESENTATION_CONTEXT() REPRESENTATION_CONTEXT('2D SPACE',''
  ) );
#1010 = ORIENTED_EDGE('',*,*,#1011,.T.);
#1011 = EDGE_CURVE('',#975,#893,#1012,.T.);
#1012 = SURFACE_CURVE('',#1013,(#1017,#1024),.PCURVE_S1.);
#1013 = LINE('',#1014,#1015);
#1014 = CARTESIAN_POINT('',(0.,5.,0.));
#1015 = VECTOR('',#1016,1.);
#1016 = DIRECTION('',(1.,0.,0.));
#1017 = PCURVE('',#159,#1018);
#1018 = DEFINITIONAL_REPRESENTATION('',(#1019),#1023);
#1019 = LINE('',#1020,#1021);
#1020 = CARTESIAN_POINT('',(0.,0.));
#1021 = VECTOR('',#1022,1.);
#1022 = DIRECTION('',(0.,-1.));
#1023 = ( GEOMETRIC_REPRESENTATION_CONTEXT(2) 
PARAMETRIC_REPRESENTATION_CONTEXT() REPRESENTATION_CONTEXT('2D SPACE',''
  ) );
#1024 = PCURVE('',#913,#1025);
#1025 = DEFINITIONAL_REPRESENTATION('',(#1026),#1030);
#1026 = LINE('',#1027,#1028);
#1027 = CARTESIAN_POINT('',(-1.570796326795,0.));
#1028 = VECTOR('',#1029,1.);
#1029 = DIRECTION('',(-0.,-1.));
#1030 = ( GEOMETRIC_REPRESENTATION_CONTEXT(2) 
PARAMETRIC_REPRESENTATION_CONTEXT() REPRESENTATION_CONTEXT('2D SPACE',''
  ) );
#1031 = ORIENTED_EDGE('',*,*,#925,.T.);
#1032 = ORIENTED_EDGE('',*,*,#141,.F.);
#1033 = ADVANCED_FACE('',(#1034),#258,.T.);
#1034 = FACE_BOUND('',#1035,.T.);
#1035 = EDGE_LOOP('',(#1036,#1037,#1038,#1059));
#1036 = ORIENTED_EDGE('',*,*,#242,.T.);
#1037 = ORIENTED_EDGE('',*,*,#823,.T.);
#1038 = ORIENTED_EDGE('',*,*,#1039,.F.);
#1039 = EDGE_CURVE('',#685,#824,#1040,.T.);
#1040 = SURFACE_CURVE('',#1041,(#1045,#1052),.PCURVE_S1.);
#1041 = LINE('',#1042,#1043);
#1042 = CARTESIAN_POINT('',(0.,-5.,45.));
#1043 = VECTOR('',#1044,1.);
#1044 = DIRECTION('',(1.,0.,0.));
#1045 = PCURVE('',#258,#1046);
#1046 = DEFINITIONAL_REPRESENTATION('',(#1047),#1051);
#1047 = LINE('',#1048,#1049);
#1048 = CARTESIAN_POINT('',(40.,0.));
#1049 = VECTOR('',#1050,1.);
#1050 = DIRECTION('',(0.,-1.));
#1051 = ( GEOMETRIC_REPRESENTATION_CONTEXT(2) 
PARAMETRIC_REPRESENTATION_CONTEXT() REPRESENTATION_CONTEXT('2D SPACE',''
  ) );
#1052 = PCURVE('',#723,#1053);
#1053 = DEFINITIONAL_REPRESENTATION('',(#1054),#1058);
#1054 = LINE('',#1055,#1056);
#1055 = CARTESIAN_POINT('',(0.,0.));
#1056 = VECTOR('',#1057,1.);
#1057 = DIRECTION('',(0.,-1.));
#1058 = ( GEOMETRIC_REPRESENTATION_CONTEXT(2) 
PARAMETRIC_REPRESENTATION_CONTEXT() REPRESENTATION_CONTEXT('2D SPACE',''
  ) );
#1059 = ORIENTED_EDGE('',*,*,#684,.F.);
#1060 = ADVANCED_FACE('',(#1061),#548,.F.);
#1061 = FACE_BOUND('',#1062,.T.);
#1062 = EDGE_LOOP('',(#1063,#1064,#1087,#1117,#1118,#1150,#1182,#1219,
    #1249));
#1063 = ORIENTED_EDGE('',*,*,#294,.F.);
#1064 = ORIENTED_EDGE('',*,*,#1065,.T.);
#1065 = EDGE_CURVE('',#295,#1066,#1068,.T.);
#1066 = VERTEX_POINT('',#1067);
#1067 = CARTESIAN_POINT('',(30.,1.464466094067,1.464466094067));
#1068 = SEAM_CURVE('',#1069,(#1073,#1080),.PCURVE_S1.);
#1069 = LINE('',#1070,#1071);
#1070 = CARTESIAN_POINT('',(30.,-44.49747468305,-44.49747468305));
#1071 = VECTOR('',#1072,1.);
#1072 = DIRECTION('',(0.,0.707106781187,0.707106781187));
#1073 = PCURVE('',#548,#1074);
#1074 = DEFINITIONAL_REPRESENTATION('',(#1075),#1079);
#1075 = LINE('',#1076,#1077);
#1076 = CARTESIAN_POINT('',(-6.28318530718,0.));
#1077 = VECTOR('',#1078,1.);
#1078 = DIRECTION('',(-0.,-1.));
#1079 = ( GEOMETRIC_REPRESENTATION_CONTEXT(2) 
PARAMETRIC_REPRESENTATION_CONTEXT() REPRESENTATION_CONTEXT('2D SPACE',''
  ) );
#1080 = PCURVE('',#548,#1081);
#1081 = DEFINITIONAL_REPRESENTATION('',(#1082),#1086);
#1082 = LINE('',#1083,#1084);
#1083 = CARTESIAN_POINT('',(-0.,0.));
#1084 = VECTOR('',#1085,1.);
#1085 = DIRECTION('',(-0.,-1.));
#1086 = ( GEOMETRIC_REPRESENTATION_CONTEXT(2) 
PARAMETRIC_REPRESENTATION_CONTEXT() REPRESENTATION_CONTEXT('2D SPACE',''
  ) );
#1087 = ORIENTED_EDGE('',*,*,#1088,.F.);
#1088 = EDGE_CURVE('',#975,#1066,#1089,.T.);
#1089 = SURFACE_CURVE('',#1090,(#1095,#1106),.PCURVE_S1.);
#1090 = ELLIPSE('',#1091,7.071067811865,5.);
#1091 = AXIS2_PLACEMENT_3D('',#1092,#1093,#1094);
#1092 = CARTESIAN_POINT('',(25.,5.,5.));
#1093 = DIRECTION('',(-0.707106781187,-0.5,-0.5));
#1094 = DIRECTION('',(-0.707106781187,0.5,0.5));
#1095 = PCURVE('',#548,#1096);
#1096 = DEFINITIONAL_REPRESENTATION('',(#1097),#1105);
#1097 = B_SPLINE_CURVE_WITH_KNOTS('',6,(#1098,#1099,#1100,#1101,#1102,
    #1103,#1104),.UNSPECIFIED.,.F.,.F.,(7,7),(2.356194490192,
    3.14159265359),.PIECEWISE_BEZIER_KNOTS.);
#1098 = CARTESIAN_POINT('',(-0.785398163397,-66.46446609406));
#1099 = CARTESIAN_POINT('',(-0.654498469498,-66.001665788));
#1100 = CARTESIAN_POINT('',(-0.523598775598,-65.6115624216));
#1101 = CARTESIAN_POINT('',(-0.392699081699,-65.3084266198));
#1102 = CARTESIAN_POINT('',(-0.261799387799,-65.10280801111));
#1103 = CARTESIAN_POINT('',(-0.1308996939,-65.));
#1104 = CARTESIAN_POINT('',(-1.33226762955E-16,-65.));
#1105 = ( GEOMETRIC_REPRESENTATION_CONTEXT(2) 
PARAMETRIC_REPRESENTATION_CONTEXT() REPRESENTATION_CONTEXT('2D SPACE',''
  ) );
#1106 = PCURVE('',#913,#1107);
#1107 = DEFINITIONAL_REPRESENTATION('',(#1108),#1116);
#1108 = B_SPLINE_CURVE_WITH_KNOTS('',6,(#1109,#1110,#1111,#1112,#1113,
    #1114,#1115),.UNSPECIFIED.,.F.,.F.,(7,7),(2.356194490192,
    3.14159265359),.PIECEWISE_BEZIER_KNOTS.);
#1109 = CARTESIAN_POINT('',(-1.570796326795,-28.53553390593));
#1110 = CARTESIAN_POINT('',(-1.439896632895,-28.99833421199));
#1111 = CARTESIAN_POINT('',(-1.308996938996,-29.38843757839));
#1112 = CARTESIAN_POINT('',(-1.178097245096,-29.69157338019));
#1113 = CARTESIAN_POINT('',(-1.047197551197,-29.89719198888));
#1114 = CARTESIAN_POINT('',(-0.916297857297,-30.));
#1115 = CARTESIAN_POINT('',(-0.785398163397,-30.));
#1116 = ( GEOMETRIC_REPRESENTATION_CONTEXT(2) 
PARAMETRIC_REPRESENTATION_CONTEXT() REPRESENTATION_CONTEXT('2D SPACE',''
  ) );
#1117 = ORIENTED_EDGE('',*,*,#974,.T.);
#1118 = ORIENTED_EDGE('',*,*,#1119,.T.);
#1119 = EDGE_CURVE('',#952,#1120,#1122,.T.);
#1120 = VERTEX_POINT('',#1121);
#1121 = CARTESIAN_POINT('',(20.,1.464466094067,1.464466094067));
#1122 = SURFACE_CURVE('',#1123,(#1128,#1139),.PCURVE_S1.);
#1123 = ELLIPSE('',#1124,7.071067811865,5.);
#1124 = AXIS2_PLACEMENT_3D('',#1125,#1126,#1127);
#1125 = CARTESIAN_POINT('',(25.,5.,5.));
#1126 = DIRECTION('',(-0.707106781187,0.5,0.5));
#1127 = DIRECTION('',(-0.707106781187,-0.5,-0.5));
#1128 = PCURVE('',#548,#1129);
#1129 = DEFINITIONAL_REPRESENTATION('',(#1130),#1138);
#1130 = B_SPLINE_CURVE_WITH_KNOTS('',6,(#1131,#1132,#1133,#1134,#1135,
    #1136,#1137),.UNSPECIFIED.,.F.,.F.,(7,7),(5.497787143782,
    6.28318530718),.PIECEWISE_BEZIER_KNOTS.);
#1131 = CARTESIAN_POINT('',(-2.356194490192,-66.46446609406));
#1132 = CARTESIAN_POINT('',(-2.487094184092,-66.001665788));
#1133 = CARTESIAN_POINT('',(-2.617993877991,-65.6115624216));
#1134 = CARTESIAN_POINT('',(-2.748893571891,-65.3084266198));
#1135 = CARTESIAN_POINT('',(-2.879793265791,-65.10280801111));
#1136 = CARTESIAN_POINT('',(-3.01069295969,-65.));
#1137 = CARTESIAN_POINT('',(-3.14159265359,-65.));
#1138 = ( GEOMETRIC_REPRESENTATION_CONTEXT(2) 
PARAMETRIC_REPRESENTATION_CONTEXT() REPRESENTATION_CONTEXT('2D SPACE',''
  ) );
#1139 = PCURVE('',#784,#1140);
#1140 = DEFINITIONAL_REPRESENTATION('',(#1141),#1149);
#1141 = B_SPLINE_CURVE_WITH_KNOTS('',6,(#1142,#1143,#1144,#1145,#1146,
    #1147,#1148),.UNSPECIFIED.,.F.,.F.,(7,7),(5.497787143782,
    6.28318530718),.PIECEWISE_BEZIER_KNOTS.);
#1142 = CARTESIAN_POINT('',(-1.570796326795,-21.46446609406));
#1143 = CARTESIAN_POINT('',(-1.439896632895,-21.001665788));
#1144 = CARTESIAN_POINT('',(-1.308996938996,-20.6115624216));
#1145 = CARTESIAN_POINT('',(-1.178097245096,-20.3084266198));
#1146 = CARTESIAN_POINT('',(-1.047197551197,-20.10280801111));
#1147 = CARTESIAN_POINT('',(-0.916297857297,-20.));
#1148 = CARTESIAN_POINT('',(-0.785398163397,-20.));
#1149 = ( GEOMETRIC_REPRESENTATION_CONTEXT(2) 
PARAMETRIC_REPRESENTATION_CONTEXT() REPRESENTATION_CONTEXT('2D SPACE',''
  ) );
#1150 = ORIENTED_EDGE('',*,*,#1151,.T.);
#1151 = EDGE_CURVE('',#1120,#1152,#1154,.T.);
#1152 = VERTEX_POINT('',#1153);
#1153 = CARTESIAN_POINT('',(21.464466094067,0.,5.));
#1154 = SURFACE_CURVE('',#1155,(#1160,#1171),.PCURVE_S1.);
#1155 = ELLIPSE('',#1156,7.071067811865,5.);
#1156 = AXIS2_PLACEMENT_3D('',#1157,#1158,#1159);
#1157 = CARTESIAN_POINT('',(25.,5.,5.));
#1158 = DIRECTION('',(-0.707106781187,0.5,0.5));
#1159 = DIRECTION('',(-0.707106781187,-0.5,-0.5));
#1160 = PCURVE('',#548,#1161);
#1161 = DEFINITIONAL_REPRESENTATION('',(#1162),#1170);
#1162 = B_SPLINE_CURVE_WITH_KNOTS('',6,(#1163,#1164,#1165,#1166,#1167,
    #1168,#1169),.UNSPECIFIED.,.F.,.F.,(7,7),(0.,0.785398163397),
  .PIECEWISE_BEZIER_KNOTS.);
#1163 = CARTESIAN_POINT('',(-3.14159265359,-65.));
#1164 = CARTESIAN_POINT('',(-3.272492347489,-65.));
#1165 = CARTESIAN_POINT('',(-3.403392041389,-65.10280801111));
#1166 = CARTESIAN_POINT('',(-3.534291735288,-65.3084266198));
#1167 = CARTESIAN_POINT('',(-3.665191429188,-65.6115624216));
#1168 = CARTESIAN_POINT('',(-3.796091123088,-66.001665788));
#1169 = CARTESIAN_POINT('',(-3.926990816987,-66.46446609406));
#1170 = ( GEOMETRIC_REPRESENTATION_CONTEXT(2) 
PARAMETRIC_REPRESENTATION_CONTEXT() REPRESENTATION_CONTEXT('2D SPACE',''
  ) );
#1171 = PCURVE('',#784,#1172);
#1172 = DEFINITIONAL_REPRESENTATION('',(#1173),#1181);
#1173 = B_SPLINE_CURVE_WITH_KNOTS('',6,(#1174,#1175,#1176,#1177,#1178,
    #1179,#1180),.UNSPECIFIED.,.F.,.F.,(7,7),(0.,0.785398163397),
  .PIECEWISE_BEZIER_KNOTS.);
#1174 = CARTESIAN_POINT('',(-0.785398163397,-20.));
#1175 = CARTESIAN_POINT('',(-0.654498469498,-20.));
#1176 = CARTESIAN_POINT('',(-0.523598775598,-20.10280801111));
#1177 = CARTESIAN_POINT('',(-0.392699081699,-20.3084266198));
#1178 = CARTESIAN_POINT('',(-0.261799387799,-20.6115624216));
#1179 = CARTESIAN_POINT('',(-0.1308996939,-21.001665788));
#1180 = CARTESIAN_POINT('',(0.,-21.46446609406));
#1181 = ( GEOMETRIC_REPRESENTATION_CONTEXT(2) 
PARAMETRIC_REPRESENTATION_CONTEXT() REPRESENTATION_CONTEXT('2D SPACE',''
  ) );
#1182 = ORIENTED_EDGE('',*,*,#1183,.T.);
#1183 = EDGE_CURVE('',#1152,#1184,#1186,.T.);
#1184 = VERTEX_POINT('',#1185);
#1185 = CARTESIAN_POINT('',(28.535533905933,0.,5.));
#1186 = SURFACE_CURVE('',#1187,(#1192,#1212),.PCURVE_S1.);
#1187 = ELLIPSE('',#1188,7.071067811865,5.);
#1188 = AXIS2_PLACEMENT_3D('',#1189,#1190,#1191);
#1189 = CARTESIAN_POINT('',(25.,0.,0.));
#1190 = DIRECTION('',(0.,1.,0.));
#1191 = DIRECTION('',(0.,0.,-1.));
#1192 = PCURVE('',#548,#1193);
#1193 = DEFINITIONAL_REPRESENTATION('',(#1194),#1211);
#1194 = B_SPLINE_CURVE_WITH_KNOTS('',8,(#1195,#1196,#1197,#1198,#1199,
    #1200,#1201,#1202,#1203,#1204,#1205,#1206,#1207,#1208,#1209,#1210),
  .UNSPECIFIED.,.F.,.F.,(9,7,9),(1.712693381399,3.14159265359,
    4.570491925781),.UNSPECIFIED.);
#1195 = CARTESIAN_POINT('',(-3.283489708194,-63.63603896932));
#1196 = CARTESIAN_POINT('',(-3.462102117218,-64.52012528869));
#1197 = CARTESIAN_POINT('',(-3.640714526249,-65.37843067419));
#1198 = CARTESIAN_POINT('',(-3.819326935234,-66.16797603617));
#1199 = CARTESIAN_POINT('',(-3.997939344306,-66.84754150634));
#1200 = CARTESIAN_POINT('',(-4.176551753279,-67.38203451884));
#1201 = CARTESIAN_POINT('',(-4.355164162342,-67.74663271829));
#1202 = CARTESIAN_POINT('',(-4.533776571361,-67.92893218813));
#1203 = CARTESIAN_POINT('',(-4.891001389409,-67.92893218813));
#1204 = CARTESIAN_POINT('',(-5.06961379843,-67.74663271838));
#1205 = CARTESIAN_POINT('',(-5.248226207434,-67.38203451831));
#1206 = CARTESIAN_POINT('',(-5.426838616477,-66.84754150698));
#1207 = CARTESIAN_POINT('',(-5.605451025476,-66.16797603582));
#1208 = CARTESIAN_POINT('',(-5.784063434524,-65.3784306743));
#1209 = CARTESIAN_POINT('',(-5.962675843552,-64.52012528869));
#1210 = CARTESIAN_POINT('',(-6.141288252575,-63.63603896932));
#1211 = ( GEOMETRIC_REPRESENTATION_CONTEXT(2) 
PARAMETRIC_REPRESENTATION_CONTEXT() REPRESENTATION_CONTEXT('2D SPACE',''
  ) );
#1212 = PCURVE('',#751,#1213);
#1213 = DEFINITIONAL_REPRESENTATION('',(#1214),#1218);
#1214 = ELLIPSE('',#1215,7.071067811865,5.);
#1215 = AXIS2_PLACEMENT_2D('',#1216,#1217);
#1216 = CARTESIAN_POINT('',(45.,-25.));
#1217 = DIRECTION('',(1.,0.));
#1218 = ( GEOMETRIC_REPRESENTATION_CONTEXT(2) 
PARAMETRIC_REPRESENTATION_CONTEXT() REPRESENTATION_CONTEXT('2D SPACE',''
  ) );
#1219 = ORIENTED_EDGE('',*,*,#1220,.F.);
#1220 = EDGE_CURVE('',#1066,#1184,#1221,.T.);
#1221 = SURFACE_CURVE('',#1222,(#1227,#1238),.PCURVE_S1.);
#1222 = ELLIPSE('',#1223,7.071067811865,5.);
#1223 = AXIS2_PLACEMENT_3D('',#1224,#1225,#1226);
#1224 = CARTESIAN_POINT('',(25.,5.,5.));
#1225 = DIRECTION('',(-0.707106781187,-0.5,-0.5));
#1226 = DIRECTION('',(-0.707106781187,0.5,0.5));
#1227 = PCURVE('',#548,#1228);
#1228 = DEFINITIONAL_REPRESENTATION('',(#1229),#1237);
#1229 = B_SPLINE_CURVE_WITH_KNOTS('',6,(#1230,#1231,#1232,#1233,#1234,
    #1235,#1236),.UNSPECIFIED.,.F.,.F.,(7,7),(3.14159265359,
    3.926990816987),.PIECEWISE_BEZIER_KNOTS.);
#1230 = CARTESIAN_POINT('',(-6.28318530718,-65.));
#1231 = CARTESIAN_POINT('',(-6.15228561328,-65.));
#1232 = CARTESIAN_POINT('',(-6.02138591938,-65.10280801111));
#1233 = CARTESIAN_POINT('',(-5.890486225481,-65.3084266198));
#1234 = CARTESIAN_POINT('',(-5.759586531581,-65.6115624216));
#1235 = CARTESIAN_POINT('',(-5.628686837682,-66.001665788));
#1236 = CARTESIAN_POINT('',(-5.497787143782,-66.46446609406));
#1237 = ( GEOMETRIC_REPRESENTATION_CONTEXT(2) 
PARAMETRIC_REPRESENTATION_CONTEXT() REPRESENTATION_CONTEXT('2D SPACE',''
  ) );
#1238 = PCURVE('',#913,#1239);
#1239 = DEFINITIONAL_REPRESENTATION('',(#1240),#1248);
#1240 = B_SPLINE_CURVE_WITH_KNOTS('',6,(#1241,#1242,#1243,#1244,#1245,
    #1246,#1247),.UNSPECIFIED.,.F.,.F.,(7,7),(3.14159265359,
    3.926990816987),.PIECEWISE_BEZIER_KNOTS.);
#1241 = CARTESIAN_POINT('',(-0.785398163397,-30.));
#1242 = CARTESIAN_POINT('',(-0.654498469498,-30.));
#1243 = CARTESIAN_POINT('',(-0.523598775598,-29.89719198888));
#1244 = CARTESIAN_POINT('',(-0.392699081699,-29.69157338018));
#1245 = CARTESIAN_POINT('',(-0.261799387799,-29.38843757839));
#1246 = CARTESIAN_POINT('',(-0.1308996939,-28.99833421199));
#1247 = CARTESIAN_POINT('',(-1.7763568394E-16,-28.53553390593));
#1248 = ( GEOMETRIC_REPRESENTATION_CONTEXT(2) 
PARAMETRIC_REPRESENTATION_CONTEXT() REPRESENTATION_CONTEXT('2D SPACE',''
  ) );
#1249 = ORIENTED_EDGE('',*,*,#1065,.F.);
#1250 = ADVANCED_FACE('',(#1251),#723,.T.);
#1251 = FACE_BOUND('',#1252,.T.);
#1252 = EDGE_LOOP('',(#1253,#1254,#1255,#1276));
#1253 = ORIENTED_EDGE('',*,*,#1039,.T.);
#1254 = ORIENTED_EDGE('',*,*,#846,.T.);
#1255 = ORIENTED_EDGE('',*,*,#1256,.F.);
#1256 = EDGE_CURVE('',#708,#847,#1257,.T.);
#1257 = SURFACE_CURVE('',#1258,(#1262,#1269),.PCURVE_S1.);
#1258 = LINE('',#1259,#1260);
#1259 = CARTESIAN_POINT('',(0.,0.,45.));
#1260 = VECTOR('',#1261,1.);
#1261 = DIRECTION('',(1.,0.,0.));
#1262 = PCURVE('',#723,#1263);
#1263 = DEFINITIONAL_REPRESENTATION('',(#1264),#1268);
#1264 = LINE('',#1265,#1266);
#1265 = CARTESIAN_POINT('',(5.,0.));
#1266 = VECTOR('',#1267,1.);
#1267 = DIRECTION('',(0.,-1.));
#1268 = ( GEOMETRIC_REPRESENTATION_CONTEXT(2) 
PARAMETRIC_REPRESENTATION_CONTEXT() REPRESENTATION_CONTEXT('2D SPACE',''
  ) );
#1269 = PCURVE('',#751,#1270);
#1270 = DEFINITIONAL_REPRESENTATION('',(#1271),#1275);
#1271 = LINE('',#1272,#1273);
#1272 = CARTESIAN_POINT('',(0.,0.));
#1273 = VECTOR('',#1274,1.);
#1274 = DIRECTION('',(0.,-1.));
#1275 = ( GEOMETRIC_REPRESENTATION_CONTEXT(2) 
PARAMETRIC_REPRESENTATION_CONTEXT() REPRESENTATION_CONTEXT('2D SPACE',''
  ) );
#1276 = ORIENTED_EDGE('',*,*,#707,.F.);
#1277 = ADVANCED_FACE('',(#1278),#751,.T.);
#1278 = FACE_BOUND('',#1279,.T.);
#1279 = EDGE_LOOP('',(#1280,#1281,#1282,#1283,#1304,#1305));
#1280 = ORIENTED_EDGE('',*,*,#735,.F.);
#1281 = ORIENTED_EDGE('',*,*,#1256,.T.);
#1282 = ORIENTED_EDGE('',*,*,#869,.T.);
#1283 = ORIENTED_EDGE('',*,*,#1284,.F.);
#1284 = EDGE_CURVE('',#1184,#870,#1285,.T.);
#1285 = SURFACE_CURVE('',#1286,(#1290,#1297),.PCURVE_S1.);
#1286 = LINE('',#1287,#1288);
#1287 = CARTESIAN_POINT('',(0.,0.,5.));
#1288 = VECTOR('',#1289,1.);
#1289 = DIRECTION('',(1.,0.,0.));
#1290 = PCURVE('',#751,#1291);
#1291 = DEFINITIONAL_REPRESENTATION('',(#1292),#1296);
#1292 = LINE('',#1293,#1294);
#1293 = CARTESIAN_POINT('',(40.,0.));
#1294 = VECTOR('',#1295,1.);
#1295 = DIRECTION('',(0.,-1.));
#1296 = ( GEOMETRIC_REPRESENTATION_CONTEXT(2) 
PARAMETRIC_REPRESENTATION_CONTEXT() REPRESENTATION_CONTEXT('2D SPACE',''
  ) );
#1297 = PCURVE('',#913,#1298);
#1298 = DEFINITIONAL_REPRESENTATION('',(#1299),#1303);
#1299 = LINE('',#1300,#1301);
#1300 = CARTESIAN_POINT('',(-0.,0.));
#1301 = VECTOR('',#1302,1.);
#1302 = DIRECTION('',(-0.,-1.));
#1303 = ( GEOMETRIC_REPRESENTATION_CONTEXT(2) 
PARAMETRIC_REPRESENTATION_CONTEXT() REPRESENTATION_CONTEXT('2D SPACE',''
  ) );
#1304 = ORIENTED_EDGE('',*,*,#1183,.F.);
#1305 = ORIENTED_EDGE('',*,*,#1306,.F.);
#1306 = EDGE_CURVE('',#736,#1152,#1307,.T.);
#1307 = SURFACE_CURVE('',#1308,(#1312,#1319),.PCURVE_S1.);
#1308 = LINE('',#1309,#1310);
#1309 = CARTESIAN_POINT('',(0.,0.,5.));
#1310 = VECTOR('',#1311,1.);
#1311 = DIRECTION('',(1.,0.,0.));
#1312 = PCURVE('',#751,#1313);
#1313 = DEFINITIONAL_REPRESENTATION('',(#1314),#1318);
#1314 = LINE('',#1315,#1316);
#1315 = CARTESIAN_POINT('',(40.,0.));
#1316 = VECTOR('',#1317,1.);
#1317 = DIRECTION('',(0.,-1.));
#1318 = ( GEOMETRIC_REPRESENTATION_CONTEXT(2) 
PARAMETRIC_REPRESENTATION_CONTEXT() REPRESENTATION_CONTEXT('2D SPACE',''
  ) );
#1319 = PCURVE('',#784,#1320);
#1320 = DEFINITIONAL_REPRESENTATION('',(#1321),#1325);
#1321 = LINE('',#1322,#1323);
#1322 = CARTESIAN_POINT('',(-0.,0.));
#1323 = VECTOR('',#1324,1.);
#1324 = DIRECTION('',(-0.,-1.));
#1325 = ( GEOMETRIC_REPRESENTATION_CONTEXT(2) 
PARAMETRIC_REPRESENTATION_CONTEXT() REPRESENTATION_CONTEXT('2D SPACE',''
  ) );
#1326 = ADVANCED_FACE('',(#1327),#784,.F.);
#1327 = FACE_BOUND('',#1328,.T.);
#1328 = EDGE_LOOP('',(#1329,#1330,#1331,#1332,#1333));
#1329 = ORIENTED_EDGE('',*,*,#763,.F.);
#1330 = ORIENTED_EDGE('',*,*,#1306,.T.);
#1331 = ORIENTED_EDGE('',*,*,#1151,.F.);
#1332 = ORIENTED_EDGE('',*,*,#1119,.F.);
#1333 = ORIENTED_EDGE('',*,*,#951,.F.);
#1334 = ADVANCED_FACE('',(#1335),#913,.F.);
#1335 = FACE_BOUND('',#1336,.T.);
#1336 = EDGE_LOOP('',(#1337,#1338,#1339,#1340,#1341));
#1337 = ORIENTED_EDGE('',*,*,#1220,.T.);
#1338 = ORIENTED_EDGE('',*,*,#1284,.T.);
#1339 = ORIENTED_EDGE('',*,*,#892,.T.);
#1340 = ORIENTED_EDGE('',*,*,#1011,.F.);
#1341 = ORIENTED_EDGE('',*,*,#1088,.T.);
#1342 = ( GEOMETRIC_REPRESENTATION_CONTEXT(3) 
GLOBAL_UNCERTAINTY_ASSIGNED_CONTEXT((#1346)) 
GLOBAL_UNIT_ASSIGNED_CONTEXT((#1343,#1344,#1345)) REPRESENTATION_CONTEXT
('Context #1','3D Context with UNIT and UNCERTAINTY') );
#1343 = ( LENGTH_UNIT() NAMED_UNIT(*) SI_UNIT(.MILLI.,.METRE.) );
#1344 = ( NAMED_UNIT(*) PLANE_ANGLE_UNIT() SI_UNIT($,.RADIAN.) );
#1345 = ( NAMED_UNIT(*) SI_UNIT($,.STERADIAN.) SOLID_ANGLE_UNIT() );
#1346 = UNCERTAINTY_MEASURE_WITH_UNIT(LENGTH_MEASURE(1.E-07),#1343,
  'distance_accuracy_value','confusion accuracy');
#1347 = PRODUCT_RELATED_PRODUCT_CATEGORY('part',$,(#7));
ENDSEC;
END-ISO-10303-21;
