ISO-10303-21;
HEADER;
FILE_DESCRIPTION(('Open CASCADE Model'),'2;1');
FILE_NAME('Open CASCADE Shape Model','2026-08-07T02:34:18',('Author'),(
    'Open CASCADE'),'Open CASCADE STEP processor 7.7','Open CASCADE 7.7'
  ,'Unknown');
FILE_SCHEMA(('AUTOMOTIVE_DESIGN { 1 0 10303 214 1 1 1 1 }'));
ENDSEC;
DATA;
#1 = APPLICATION_PROTOCOL_DEFINITION('international standard',
  'automotive_design',2000,#2);
#2 = APPLICATION_CONTEXT(
  'core data for automotive mechanical design processes');
#3 = SHAPE_DEFINITION_REPRESENTATION(#4,#10);
#4 = PRODUCT_DEFINITION_SHAPE('','',#5);
#5 = PRODUCT_DEFINITION('design','',#6,#9);
#6 = PRODUCT_DEFINITION_FORMATION('','',#7);
#7 = PRODUCT('Open CASCADE STEP translator 7.7 47',
  'Open CASCADE STEP translator 7.7 47','',(#8));
#8 = PRODUCT_CONTEXT('',#2,'mechanical');
#9 = PRODUCT_DEFINITION_CONTEXT('part definition',#2,'design');
#10 = ADVANCED_BREP_SHAPE_REPRESENTATION('',(#11,#15),#323);
#11 = AXIS2_PLACEMENT_3D('',#12,#13,#14);
#12 = CARTESIAN_POINT('',(0.,0.,0.));
#13 = DIRECTION('',(0.,0.,1.));
#14 = DIRECTION('',(1.,0.,-0.));
#15 = MANIFOLD_SOLID_BREP('',#16);
#16 = CLOSED_SHELL('',(#17,#197,#201,#264,#319));
#17 = ADVANCED_FACE('',(#18),#31,.T.);
#18 = FACE_BOUND('',#19,.F.);
#19 = EDGE_LOOP('',(#20,#54,#77,#140,#196));
#20 = ORIENTED_EDGE('',*,*,#21,.F.);
#21 = EDGE_CURVE('',#22,#22,#24,.T.);
#22 = VERTEX_POINT('',#23);
#23 = CARTESIAN_POINT('',(20.,0.,0.));
#24 = SURFACE_CURVE('',#25,(#30,#42),.PCURVE_S1.);
#25 = CIRCLE('',#26,20.);
#26 = AXIS2_PLACEMENT_3D('',#27,#28,#29);
#27 = CARTESIAN_POINT('',(0.,0.,0.));
#28 = DIRECTION('',(0.,0.,1.));
#29 = DIRECTION('',(1.,0.,0.));
#30 = PCURVE('',#31,#36);
#31 = CYLINDRICAL_SURFACE('',#32,20.);
#32 = AXIS2_PLACEMENT_3D('',#33,#34,#35);
#33 = CARTESIAN_POINT('',(0.,0.,0.));
#34 = DIRECTION('',(-0.,-0.,-1.));
#35 = DIRECTION('',(1.,0.,0.));
#36 = DEFINITIONAL_REPRESENTATION('',(#37),#41);
#37 = LINE('',#38,#39);
#38 = CARTESIAN_POINT('',(-0.,0.));
#39 = VECTOR('',#40,1.);
#40 = DIRECTION('',(-1.,0.));
#41 = ( GEOMETRIC_REPRESENTATION_CONTEXT(2) 
PARAMETRIC_REPRESENTATION_CONTEXT() REPRESENTATION_CONTEXT('2D SPACE',''
  ) );
#42 = PCURVE('',#43,#48);
#43 = PLANE('',#44);
#44 = AXIS2_PLACEMENT_3D('',#45,#46,#47);
#45 = CARTESIAN_POINT('',(-1.093952106032E-15,1.371473012632E-15,0.));
#46 = DIRECTION('',(0.,0.,1.));
#47 = DIRECTION('',(1.,0.,-0.));
#48 = DEFINITIONAL_REPRESENTATION('',(#49),#53);
#49 = CIRCLE('',#50,20.);
#50 = AXIS2_PLACEMENT_2D('',#51,#52);
#51 = CARTESIAN_POINT('',(1.093952106032E-15,-1.371473012632E-15));
#52 = DIRECTION('',(1.,0.));
#53 = ( GEOMETRIC_REPRESENTATION_CONTEXT(2) 
PARAMETRIC_REPRESENTATION_CONTEXT() REPRESENTATION_CONTEXT('2D SPACE',''
  ) );
#54 = ORIENTED_EDGE('',*,*,#55,.T.);
#55 = EDGE_CURVE('',#22,#56,#58,.T.);
#56 = VERTEX_POINT('',#57);
#57 = CARTESIAN_POINT('',(20.,0.,60.));
#58 = SEAM_CURVE('',#59,(#63,#70),.PCURVE_S1.);
#59 = LINE('',#60,#61);
#60 = CARTESIAN_POINT('',(20.,0.,0.));
#61 = VECTOR('',#62,1.);
#62 = DIRECTION('',(0.,0.,1.));
#63 = PCURVE('',#31,#64);
#64 = DEFINITIONAL_REPRESENTATION('',(#65),#69);
#65 = LINE('',#66,#67);
#66 = CARTESIAN_POINT('',(-6.28318530718,0.));
#67 = VECTOR('',#68,1.);
#68 = DIRECTION('',(-0.,-1.));
#69 = ( GEOMETRIC_REPRESENTATION_CONTEXT(2) 
PARAMETRIC_REPRESENTATION_CONTEXT() REPRESENTATION_CONTEXT('2D SPACE',''
  ) );
#70 = PCURVE('',#31,#71);
#71 = DEFINITIONAL_REPRESENTATION('',(#72),#76);
#72 = LINE('',#73,#74);
#73 = CARTESIAN_POINT('',(-0.,0.));
#74 = VECTOR('',#75,1.);
#75 = DIRECTION('',(-0.,-1.));
#76 = ( GEOMETRIC_REPRESENTATION_CONTEXT(2) 
PARAMETRIC_REPRESENTATION_CONTEXT() REPRESENTATION_CONTEXT('2D SPACE',''
  ) );
#77 = ORIENTED_EDGE('',*,*,#78,.F.);
#78 = EDGE_CURVE('',#79,#56,#81,.T.);
#79 = VERTEX_POINT('',#80);
#80 = CARTESIAN_POINT('',(-20.,0.,20.));
#81 = SURFACE_CURVE('',#82,(#87,#128),.PCURVE_S1.);
#82 = ELLIPSE('',#83,28.284271247462,20.);
#83 = AXIS2_PLACEMENT_3D('',#84,#85,#86);
#84 = CARTESIAN_POINT('',(0.,0.,40.));
#85 = DIRECTION('',(0.707106781187,0.,-0.707106781187));
#86 = DIRECTION('',(-0.707106781187,0.,-0.707106781187));
#87 = PCURVE('',#31,#88);
#88 = DEFINITIONAL_REPRESENTATION('',(#89),#127);
#89 = B_SPLINE_CURVE_WITH_KNOTS('',8,(#90,#91,#92,#93,#94,#95,#96,#97,
    #98,#99,#100,#101,#102,#103,#104,#105,#106,#107,#108,#109,#110,#111,
    #112,#113,#114,#115,#116,#117,#118,#119,#120,#121,#122,#123,#124,
    #125,#126),.UNSPECIFIED.,.F.,.F.,(9,7,7,7,7,9),(3.14159265359,
    4.712388980385,5.890486225481,6.774059159303,8.099418560036,
    9.424777960769),.UNSPECIFIED.);
#90 = CARTESIAN_POINT('',(-6.28318530718,-60.));
#91 = CARTESIAN_POINT('',(-6.08683576633,-60.));
#92 = CARTESIAN_POINT('',(-5.890486225482,-59.11878448029));
#93 = CARTESIAN_POINT('',(-5.69413668463,-57.35636092684));
#94 = CARTESIAN_POINT('',(-5.497787143789,-54.78517501161));
#95 = CARTESIAN_POINT('',(-5.301437602933,-51.55026522421));
#96 = CARTESIAN_POINT('',(-5.105088062084,-47.85398256636));
#97 = CARTESIAN_POINT('',(-4.908738521234,-43.92699081698));
#98 = CARTESIAN_POINT('',(-4.565126824748,-37.05475688726));
#99 = CARTESIAN_POINT('',(-4.417864669108,-34.10951369346));
#100 = CARTESIAN_POINT('',(-4.270602513491,-31.26159833767));
#101 = CARTESIAN_POINT('',(-4.123340357815,-28.60833477767));
#102 = CARTESIAN_POINT('',(-3.97607820222,-26.24030546726));
#103 = CARTESIAN_POINT('',(-3.828816046561,-24.2345525293));
#104 = CARTESIAN_POINT('',(-3.681553890926,-22.6495050933));
#105 = CARTESIAN_POINT('',(-3.423845118561,-20.67708754212));
#106 = CARTESIAN_POINT('',(-3.313398501833,-20.0893634725));
#107 = CARTESIAN_POINT('',(-3.202951885105,-19.77494990185));
#108 = CARTESIAN_POINT('',(-3.092505268377,-19.7428582134));
#109 = CARTESIAN_POINT('',(-2.98205865165,-19.99477517895));
#110 = CARTESIAN_POINT('',(-2.871612034922,-20.52490708502));
#111 = CARTESIAN_POINT('',(-2.761165418194,-21.32029121865));
#112 = CARTESIAN_POINT('',(-2.485048876375,-23.9234999546));
#113 = CARTESIAN_POINT('',(-2.31937895129,-26.03869797205));
#114 = CARTESIAN_POINT('',(-2.153709026175,-28.64184173068));
#115 = CARTESIAN_POINT('',(-1.988039101142,-31.63522027025));
#116 = CARTESIAN_POINT('',(-1.82236917599,-34.89442883382));
#117 = CARTESIAN_POINT('',(-1.656699250926,-38.27896973874));
#118 = CARTESIAN_POINT('',(-1.491029325825,-41.64550349699));
#119 = CARTESIAN_POINT('',(-1.159689475642,-48.07370369913));
#120 = CARTESIAN_POINT('',(-0.994019550554,-51.13537057524));
#121 = CARTESIAN_POINT('',(-0.828349625473,-53.91017840185));
#122 = CARTESIAN_POINT('',(-0.662679700388,-56.27263556316));
#123 = CARTESIAN_POINT('',(-0.497009775277,-58.11795357029));
#124 = CARTESIAN_POINT('',(-0.331339850183,-59.37265071933));
#125 = CARTESIAN_POINT('',(-0.165669925092,-60.));
#126 = CARTESIAN_POINT('',(-7.105427357601E-15,-60.));
#127 = ( GEOMETRIC_REPRESENTATION_CONTEXT(2) 
PARAMETRIC_REPRESENTATION_CONTEXT() REPRESENTATION_CONTEXT('2D SPACE',''
  ) );
#128 = PCURVE('',#129,#134);
#129 = PLANE('',#130);
#130 = AXIS2_PLACEMENT_3D('',#131,#132,#133);
#131 = CARTESIAN_POINT('',(20.,0.,60.));
#132 = DIRECTION('',(0.707106781187,0.,-0.707106781187));
#133 = DIRECTION('',(-0.707106781187,0.,-0.707106781187));
#134 = DEFINITIONAL_REPRESENTATION('',(#135),#139);
#135 = ELLIPSE('',#136,28.284271247462,20.);
#136 = AXIS2_PLACEMENT_2D('',#137,#138);
#137 = CARTESIAN_POINT('',(28.284271247462,0.));
#138 = DIRECTION('',(1.,0.));
#139 = ( GEOMETRIC_REPRESENTATION_CONTEXT(2) 
PARAMETRIC_REPRESENTATION_CONTEXT() REPRESENTATION_CONTEXT('2D SPACE',''
  ) );
#140 = ORIENTED_EDGE('',*,*,#141,.F.);
#141 = EDGE_CURVE('',#56,#79,#142,.T.);
#142 = SURFACE_CURVE('',#143,(#148,#189),.PCURVE_S1.);
#143 = ELLIPSE('',#144,28.284271247462,20.);
#144 = AXIS2_PLACEMENT_3D('',#145,#146,#147);
#145 = CARTESIAN_POINT('',(0.,0.,40.));
#146 = DIRECTION('',(0.707106781187,0.,-0.707106781187));
#147 = DIRECTION('',(-0.707106781187,0.,-0.707106781187));
#148 = PCURVE('',#31,#149);
#149 = DEFINITIONAL_REPRESENTATION('',(#150),#188);
#150 = B_SPLINE_CURVE_WITH_KNOTS('',8,(#151,#152,#153,#154,#155,#156,
    #157,#158,#159,#160,#161,#162,#163,#164,#165,#166,#167,#168,#169,
    #170,#171,#172,#173,#174,#175,#176,#177,#178,#179,#180,#181,#182,
    #183,#184,#185,#186,#187),.UNSPECIFIED.,.F.,.F.,(9,7,7,7,7,9),(
    3.14159265359,4.712388980385,5.890486225481,6.774059159303,
    8.099418560036,9.424777960769),.UNSPECIFIED.);
#151 = CARTESIAN_POINT('',(-6.28318530718,-60.));
#152 = CARTESIAN_POINT('',(-6.08683576633,-60.));
#153 = CARTESIAN_POINT('',(-5.890486225482,-59.11878448029));
#154 = CARTESIAN_POINT('',(-5.69413668463,-57.35636092684));
#155 = CARTESIAN_POINT('',(-5.497787143789,-54.78517501161));
#156 = CARTESIAN_POINT('',(-5.301437602933,-51.55026522421));
#157 = CARTESIAN_POINT('',(-5.105088062084,-47.85398256636));
#158 = CARTESIAN_POINT('',(-4.908738521234,-43.92699081698));
#159 = CARTESIAN_POINT('',(-4.565126824748,-37.05475688726));
#160 = CARTESIAN_POINT('',(-4.417864669108,-34.10951369346));
#161 = CARTESIAN_POINT('',(-4.270602513491,-31.26159833767));
#162 = CARTESIAN_POINT('',(-4.123340357815,-28.60833477767));
#163 = CARTESIAN_POINT('',(-3.97607820222,-26.24030546726));
#164 = CARTESIAN_POINT('',(-3.828816046561,-24.2345525293));
#165 = CARTESIAN_POINT('',(-3.681553890926,-22.6495050933));
#166 = CARTESIAN_POINT('',(-3.423845118561,-20.67708754212));
#167 = CARTESIAN_POINT('',(-3.313398501833,-20.0893634725));
#168 = CARTESIAN_POINT('',(-3.202951885105,-19.77494990185));
#169 = CARTESIAN_POINT('',(-3.092505268377,-19.7428582134));
#170 = CARTESIAN_POINT('',(-2.98205865165,-19.99477517895));
#171 = CARTESIAN_POINT('',(-2.871612034922,-20.52490708502));
#172 = CARTESIAN_POINT('',(-2.761165418194,-21.32029121865));
#173 = CARTESIAN_POINT('',(-2.485048876375,-23.9234999546));
#174 = CARTESIAN_POINT('',(-2.31937895129,-26.03869797205));
#175 = CARTESIAN_POINT('',(-2.153709026175,-28.64184173068));
#176 = CARTESIAN_POINT('',(-1.988039101142,-31.63522027025));
#177 = CARTESIAN_POINT('',(-1.82236917599,-34.89442883382));
#178 = CARTESIAN_POINT('',(-1.656699250926,-38.27896973874));
#179 = CARTESIAN_POINT('',(-1.491029325825,-41.64550349699));
#180 = CARTESIAN_POINT('',(-1.159689475642,-48.07370369913));
#181 = CARTESIAN_POINT('',(-0.994019550554,-51.13537057524));
#182 = CARTESIAN_POINT('',(-0.828349625473,-53.91017840185));
#183 = CARTESIAN_POINT('',(-0.662679700388,-56.27263556316));
#184 = CARTESIAN_POINT('',(-0.497009775277,-58.11795357029));
#185 = CARTESIAN_POINT('',(-0.331339850183,-59.37265071933));
#186 = CARTESIAN_POINT('',(-0.165669925092,-60.));
#187 = CARTESIAN_POINT('',(-7.105427357601E-15,-60.));
#188 = ( GEOMETRIC_REPRESENTATION_CONTEXT(2) 
PARAMETRIC_REPRESENTATION_CONTEXT() REPRESENTATION_CONTEXT('2D SPACE',''
  ) );
#189 = PCURVE('',#129,#190);
#190 = DEFINITIONAL_REPRESENTATION('',(#191),#195);
#191 = ELLIPSE('',#192,28.284271247462,20.);
#192 = AXIS2_PLACEMENT_2D('',#193,#194);
#193 = CARTESIAN_POINT('',(28.284271247462,0.));
#194 = DIRECTION('',(1.,0.));
#195 = ( GEOMETRIC_REPRESENTATION_CONTEXT(2) 
PARAMETRIC_REPRESENTATION_CONTEXT() REPRESENTATION_CONTEXT('2D SPACE',''
  ) );
#196 = ORIENTED_EDGE('',*,*,#55,.F.);
#197 = ADVANCED_FACE('',(#198),#43,.F.);
#198 = FACE_BOUND('',#199,.F.);
#199 = EDGE_LOOP('',(#200));
#200 = ORIENTED_EDGE('',*,*,#21,.T.);
#201 = ADVANCED_FACE('',(#202,#206),#129,.F.);
#202 = FACE_BOUND('',#203,.F.);
#203 = EDGE_LOOP('',(#204,#205));
#204 = ORIENTED_EDGE('',*,*,#78,.T.);
#205 = ORIENTED_EDGE('',*,*,#141,.T.);
#206 = FACE_BOUND('',#207,.F.);
#207 = EDGE_LOOP('',(#208));
#208 = ORIENTED_EDGE('',*,*,#209,.F.);
#209 = EDGE_CURVE('',#210,#210,#212,.T.);
#210 = VERTEX_POINT('',#211);
#211 = CARTESIAN_POINT('',(7.5,0.,47.5));
#212 = SURFACE_CURVE('',#213,(#218,#225),.PCURVE_S1.);
#213 = ELLIPSE('',#214,10.606601717798,7.5);
#214 = AXIS2_PLACEMENT_3D('',#215,#216,#217);
#215 = CARTESIAN_POINT('',(0.,0.,40.));
#216 = DIRECTION('',(0.707106781187,0.,-0.707106781187));
#217 = DIRECTION('',(-0.707106781187,0.,-0.707106781187));
#218 = PCURVE('',#129,#219);
#219 = DEFINITIONAL_REPRESENTATION('',(#220),#224);
#220 = ELLIPSE('',#221,10.606601717798,7.5);
#221 = AXIS2_PLACEMENT_2D('',#222,#223);
#222 = CARTESIAN_POINT('',(28.284271247462,0.));
#223 = DIRECTION('',(1.,0.));
#224 = ( GEOMETRIC_REPRESENTATION_CONTEXT(2) 
PARAMETRIC_REPRESENTATION_CONTEXT() REPRESENTATION_CONTEXT('2D SPACE',''
  ) );
#225 = PCURVE('',#226,#231);
#226 = CYLINDRICAL_SURFACE('',#227,7.5);
#227 = AXIS2_PLACEMENT_3D('',#228,#229,#230);
#228 = CARTESIAN_POINT('',(0.,0.,25.));
#229 = DIRECTION('',(-0.,-0.,-1.));
#230 = DIRECTION('',(1.,0.,0.));
#231 = DEFINITIONAL_REPRESENTATION('',(#232),#263);
#232 = B_SPLINE_CURVE_WITH_KNOTS('',8,(#233,#234,#235,#236,#237,#238,
    #239,#240,#241,#242,#243,#244,#245,#246,#247,#248,#249,#250,#251,
    #252,#253,#254,#255,#256,#257,#258,#259,#260,#261,#262),
  .UNSPECIFIED.,.F.,.F.,(9,7,7,7,9),(3.14159265359,4.712388980385,
    5.890486225481,7.657632093125,9.424777960769),.UNSPECIFIED.);
#233 = CARTESIAN_POINT('',(-6.28318530718,-22.5));
#234 = CARTESIAN_POINT('',(-6.08683576633,-22.5));
#235 = CARTESIAN_POINT('',(-5.890486225482,-22.16954418009));
#236 = CARTESIAN_POINT('',(-5.69413668463,-21.50863534751));
#237 = CARTESIAN_POINT('',(-5.497787143789,-20.54444062938));
#238 = CARTESIAN_POINT('',(-5.301437602933,-19.33134945908));
#239 = CARTESIAN_POINT('',(-5.105088062084,-17.94524346237));
#240 = CARTESIAN_POINT('',(-4.908738521234,-16.47262155637));
#241 = CARTESIAN_POINT('',(-4.565126824748,-13.89553383272));
#242 = CARTESIAN_POINT('',(-4.41786466911,-12.79106806965));
#243 = CARTESIAN_POINT('',(-4.270602513474,-11.72309772794));
#244 = CARTESIAN_POINT('',(-4.123340357837,-10.72812797348));
#245 = CARTESIAN_POINT('',(-3.976078202199,-9.840112903414));
#246 = CARTESIAN_POINT('',(-3.828816046563,-9.087957632054));
#247 = CARTESIAN_POINT('',(-3.681553890926,-8.49356440999));
#248 = CARTESIAN_POINT('',(-3.313398501833,-7.436912150428));
#249 = CARTESIAN_POINT('',(-3.092505268374,-7.189318037661));
#250 = CARTESIAN_POINT('',(-2.871612034941,-7.375255058727));
#251 = CARTESIAN_POINT('',(-2.650718801447,-8.001660609967));
#252 = CARTESIAN_POINT('',(-2.429825568029,-9.027820651172));
#253 = CARTESIAN_POINT('',(-2.208932334554,-10.3686825622));
#254 = CARTESIAN_POINT('',(-1.9880391011,-11.91195634552));
#255 = CARTESIAN_POINT('',(-1.546252634189,-15.16168882423));
#256 = CARTESIAN_POINT('',(-1.325359400744,-16.8681493183));
#257 = CARTESIAN_POINT('',(-1.10446616726,-18.53538119582));
#258 = CARTESIAN_POINT('',(-0.883572933896,-20.03412230635));
#259 = CARTESIAN_POINT('',(-0.662679700348,-21.24530762936));
#260 = CARTESIAN_POINT('',(-0.441786466926,-22.08176625816));
#261 = CARTESIAN_POINT('',(-0.220893233456,-22.5));
#262 = CARTESIAN_POINT('',(-8.881784197001E-15,-22.5));
#263 = ( GEOMETRIC_REPRESENTATION_CONTEXT(2) 
PARAMETRIC_REPRESENTATION_CONTEXT() REPRESENTATION_CONTEXT('2D SPACE',''
  ) );
#264 = ADVANCED_FACE('',(#265),#226,.F.);
#265 = FACE_BOUND('',#266,.T.);
#266 = EDGE_LOOP('',(#267,#296,#317,#318));
#267 = ORIENTED_EDGE('',*,*,#268,.F.);
#268 = EDGE_CURVE('',#269,#269,#271,.T.);
#269 = VERTEX_POINT('',#270);
#270 = CARTESIAN_POINT('',(7.5,0.,25.));
#271 = SURFACE_CURVE('',#272,(#277,#284),.PCURVE_S1.);
#272 = CIRCLE('',#273,7.5);
#273 = AXIS2_PLACEMENT_3D('',#274,#275,#276);
#274 = CARTESIAN_POINT('',(0.,0.,25.));
#275 = DIRECTION('',(0.,0.,1.));
#276 = DIRECTION('',(1.,0.,0.));
#277 = PCURVE('',#226,#278);
#278 = DEFINITIONAL_REPRESENTATION('',(#279),#283);
#279 = LINE('',#280,#281);
#280 = CARTESIAN_POINT('',(-0.,0.));
#281 = VECTOR('',#282,1.);
#282 = DIRECTION('',(-1.,0.));
#283 = ( GEOMETRIC_REPRESENTATION_CONTEXT(2) 
PARAMETRIC_REPRESENTATION_CONTEXT() REPRESENTATION_CONTEXT('2D SPACE',''
  ) );
#284 = PCURVE('',#285,#290);
#285 = PLANE('',#286);
#286 = AXIS2_PLACEMENT_3D('',#287,#288,#289);
#287 = CARTESIAN_POINT('',(-3.646507020105E-16,5.848900222367E-17,25.));
#288 = DIRECTION('',(0.,0.,1.));
#289 = DIRECTION('',(1.,0.,-0.));
#290 = DEFINITIONAL_REPRESENTATION('',(#291),#295);
#291 = CIRCLE('',#292,7.5);
#292 = AXIS2_PLACEMENT_2D('',#293,#294);
#293 = CARTESIAN_POINT('',(3.646507020105E-16,-5.848900222367E-17));
#294 = DIRECTION('',(1.,0.));
#295 = ( GEOMETRIC_REPRESENTATION_CONTEXT(2) 
PARAMETRIC_REPRESENTATION_CONTEXT() REPRESENTATION_CONTEXT('2D SPACE',''
  ) );
#296 = ORIENTED_EDGE('',*,*,#297,.T.);
#297 = EDGE_CURVE('',#269,#210,#298,.T.);
#298 = SEAM_CURVE('',#299,(#303,#310),.PCURVE_S1.);
#299 = LINE('',#300,#301);
#300 = CARTESIAN_POINT('',(7.5,0.,25.));
#301 = VECTOR('',#302,1.);
#302 = DIRECTION('',(0.,0.,1.));
#303 = PCURVE('',#226,#304);
#304 = DEFINITIONAL_REPRESENTATION('',(#305),#309);
#305 = LINE('',#306,#307);
#306 = CARTESIAN_POINT('',(-6.28318530718,0.));
#307 = VECTOR('',#308,1.);
#308 = DIRECTION('',(-0.,-1.));
#309 = ( GEOMETRIC_REPRESENTATION_CONTEXT(2) 
PARAMETRIC_REPRESENTATION_CONTEXT() REPRESENTATION_CONTEXT('2D SPACE',''
  ) );
#310 = PCURVE('',#226,#311);
#311 = DEFINITIONAL_REPRESENTATION('',(#312),#316);
#312 = LINE('',#313,#314);
#313 = CARTESIAN_POINT('',(-0.,0.));
#314 = VECTOR('',#315,1.);
#315 = DIRECTION('',(-0.,-1.));
#316 = ( GEOMETRIC_REPRESENTATION_CONTEXT(2) 
PARAMETRIC_REPRESENTATION_CONTEXT() REPRESENTATION_CONTEXT('2D SPACE',''
  ) );
#317 = ORIENTED_EDGE('',*,*,#209,.F.);
#318 = ORIENTED_EDGE('',*,*,#297,.F.);
#319 = ADVANCED_FACE('',(#320),#285,.T.);
#320 = FACE_BOUND('',#321,.T.);
#321 = EDGE_LOOP('',(#322));
#322 = ORIENTED_EDGE('',*,*,#268,.T.);
#323 = ( GEOMETRIC_REPRESENTATION_CONTEXT(3) 
GLOBAL_UNCERTAINTY_ASSIGNED_CONTEXT((#327)) GLOBAL_UNIT_ASSIGNED_CONTEXT
((#324,#325,#326)) REPRESENTATION_CONTEXT('Context #1',
  '3D Context with UNIT and UNCERTAINTY') );
#324 = ( LENGTH_UNIT() NAMED_UNIT(*) SI_UNIT(.MILLI.,.METRE.) );
#325 = ( NAMED_UNIT(*) PLANE_ANGLE_UNIT() SI_UNIT($,.RADIAN.) );
#326 = ( NAMED_UNIT(*) SI_UNIT($,.STERADIAN.) SOLID_ANGLE_UNIT() );
#327 = UNCERTAINTY_MEASURE_WITH_UNIT(LENGTH_MEASURE(1.E-07),#324,
  'distance_accuracy_value','confusion accuracy');
#328 = PRODUCT_RELATED_PRODUCT_CATEGORY('part',$,(#7));
ENDSEC;
END-ISO-10303-21;
