ISO-10303-21;
HEADER;
FILE_DESCRIPTION(('Open CASCADE Model'),'2;1');
FILE_NAME('Open CASCADE Shape Model','2026-08-07T02:34:17',('Author'),(
    'Open CASCADE'),'Open CASCADE STEP processor 7.7','Open CASCADE 7.7'
  ,'Unknown');
FILE_SCHEMA(('AUTOMOTIVE_DESIGN { 1 0 10303 214 1 1 1 1 }'));
ENDSEC;
DATA;
#1 = APPLICATION_PROTOCOL_DEFINITION('international standard',
  'automotive_design',2000,#2);
#2 = APPLICATION_CONTEXT(
  'core data for automotive mechanical design processes');
#3 = SHAPE_DEFINITION_REPRESENTATION(#4,#10);
#4 = PRODUCT_DEFINITION_SHAPE('','',#5);
#5 = PRODUCT_DEFINITION('design','',#6,#9);
#6 = PRODUCT_DEFINITION_FORMATION('','',#7);
#7 = PRODUCT('Open CASCADE STEP translator 7.7 26',
  'Open CASCADE STEP translator 7.7 26','',(#8));
#8 = PRODUCT_CONTEXT('',#2,'mechanical');
#9 = PRODUCT_DEFINITION_CONTEXT('part definition',#2,'design');
#10 = ADVANCED_BREP_SHAPE_REPRESENTATION('',(#11,#15),#939);
#11 = AXIS2_PLACEMENT_3D('',#12,#13,#14);
#12 = CARTESIAN_POINT('',(0.,0.,0.));
#13 = DIRECTION('',(0.,0.,1.));
#14 = DIRECTION('',(1.,0.,-0.));
#15 = MANIFOLD_SOLID_BREP('',#16);
#16 = CLOSED_SHELL('',(#17,#907,#933));
#17 = ADVANCED_FACE('',(#18),#33,.T.);
#18 = FACE_BOUND('',#19,.T.);
#19 = EDGE_LOOP('',(#20,#51,#52,#239,#426,#450,#451,#679));
#20 = ORIENTED_EDGE('',*,*,#21,.T.);
#21 = EDGE_CURVE('',#22,#24,#26,.T.);
#22 = VERTEX_POINT('',#23);
#23 = CARTESIAN_POINT('',(10.,-2.449293598295E-15,38.729833462074));
#24 = VERTEX_POINT('',#25);
#25 = CARTESIAN_POINT('',(2.449293598295E-15,-5.999039130647E-31,40.));
#26 = SEAM_CURVE('',#27,(#32,#44),.PCURVE_S1.);
#27 = CIRCLE('',#28,40.);
#28 = AXIS2_PLACEMENT_3D('',#29,#30,#31);
#29 = CARTESIAN_POINT('',(0.,0.,0.));
#30 = DIRECTION('',(-2.449293598295E-16,-1.,0.));
#31 = DIRECTION('',(1.,-2.449293598295E-16,0.));
#32 = PCURVE('',#33,#38);
#33 = SPHERICAL_SURFACE('',#34,40.);
#34 = AXIS2_PLACEMENT_3D('',#35,#36,#37);
#35 = CARTESIAN_POINT('',(0.,0.,0.));
#36 = DIRECTION('',(0.,0.,1.));
#37 = DIRECTION('',(1.,0.,0.));
#38 = DEFINITIONAL_REPRESENTATION('',(#39),#43);
#39 = LINE('',#40,#41);
#40 = CARTESIAN_POINT('',(6.28318530718,-6.28318530718));
#41 = VECTOR('',#42,1.);
#42 = DIRECTION('',(0.,1.));
#43 = ( GEOMETRIC_REPRESENTATION_CONTEXT(2) 
PARAMETRIC_REPRESENTATION_CONTEXT() REPRESENTATION_CONTEXT('2D SPACE',''
  ) );
#44 = PCURVE('',#33,#45);
#45 = DEFINITIONAL_REPRESENTATION('',(#46),#50);
#46 = LINE('',#47,#48);
#47 = CARTESIAN_POINT('',(0.,-6.28318530718));
#48 = VECTOR('',#49,1.);
#49 = DIRECTION('',(0.,1.));
#50 = ( GEOMETRIC_REPRESENTATION_CONTEXT(2) 
PARAMETRIC_REPRESENTATION_CONTEXT() REPRESENTATION_CONTEXT('2D SPACE',''
  ) );
#51 = ORIENTED_EDGE('',*,*,#21,.F.);
#52 = ORIENTED_EDGE('',*,*,#53,.F.);
#53 = EDGE_CURVE('',#54,#22,#56,.T.);
#54 = VERTEX_POINT('',#55);
#55 = CARTESIAN_POINT('',(40.,0.,0.));
#56 = SURFACE_CURVE('',#57,(#114,#174),.PCURVE_S1.);
#57 = B_SPLINE_CURVE_WITH_KNOTS('',7,(#58,#59,#60,#61,#62,#63,#64,#65,
    #66,#67,#68,#69,#70,#71,#72,#73,#74,#75,#76,#77,#78,#79,#80,#81,#82,
    #83,#84,#85,#86,#87,#88,#89,#90,#91,#92,#93,#94,#95,#96,#97,#98,#99,
    #100,#101,#102,#103,#104,#105,#106,#107,#108,#109,#110,#111,#112,
    #113),.UNSPECIFIED.,.F.,.F.,(8,6,6,6,6,6,6,6,6,8),(0.,0.213973825304
    ,0.406454176605,0.530507174585,0.661500268375,0.788326354273,
    0.883064663545,0.922307642287,0.961664851909,1.),.UNSPECIFIED.);
#58 = CARTESIAN_POINT('',(40.,0.,0.));
#59 = CARTESIAN_POINT('',(40.000000076648,1.100145907544,1.420281683587)
  );
#60 = CARTESIAN_POINT('',(39.905863757317,2.200237954498,2.840496809808)
  );
#61 = CARTESIAN_POINT('',(39.717608219108,3.292554009378,4.260025325353)
  );
#62 = CARTESIAN_POINT('',(39.435493822965,4.369271661874,5.678139126514)
  );
#63 = CARTESIAN_POINT('',(39.060103354067,5.422411447926,7.094027958717)
  );
#64 = CARTESIAN_POINT('',(38.592373297461,6.4437466352,8.506834955717));
#65 = CARTESIAN_POINT('',(37.530911559757,8.30707869155,11.183049300249)
  );
#66 = CARTESIAN_POINT('',(36.954605955581,9.156696598897,12.447082516124
    ));
#67 = CARTESIAN_POINT('',(36.305591017047,9.967321614099,13.707233424222
    ));
#68 = CARTESIAN_POINT('',(35.585090055318,10.732330026503,
    14.962700675056));
#69 = CARTESIAN_POINT('',(34.794731436311,11.444634424209,
    16.212494840925));
#70 = CARTESIAN_POINT('',(33.936633547139,12.096667727787,
    17.455467048629));
#71 = CARTESIAN_POINT('',(32.418370156108,13.056157192405,
    19.486275787715));
#72 = CARTESIAN_POINT('',(31.796336546829,13.403674739485,
    20.278759069897));
#73 = CARTESIAN_POINT('',(31.148000236316,13.72045881626,21.067494557697
    ));
#74 = CARTESIAN_POINT('',(30.474214500084,14.004121624832,
    21.852046974748));
#75 = CARTESIAN_POINT('',(29.776008006473,14.25211344128,22.631890564715
    ));
#76 = CARTESIAN_POINT('',(29.054603091495,14.461701339749,
    23.406420116075));
#77 = CARTESIAN_POINT('',(27.526667781482,14.80754345568,24.986500454402
    ));
#78 = CARTESIAN_POINT('',(26.717757687408,14.939010698395,
    25.791233565565));
#79 = CARTESIAN_POINT('',(25.886290616122,15.020868060932,26.58846961577
    ));
#80 = CARTESIAN_POINT('',(25.034336837944,15.049287943552,
    27.377177742756));
#81 = CARTESIAN_POINT('',(24.164522533552,15.020086709445,
    28.156028415739));
#82 = CARTESIAN_POINT('',(23.280085561537,14.928775805943,
    28.923422400194));
#83 = CARTESIAN_POINT('',(21.518217214121,14.616836089925,
    30.407600664146));
#84 = CARTESIAN_POINT('',(20.64188261287,14.400489112008,31.124860594161
    ));
#85 = CARTESIAN_POINT('',(19.759153005708,14.116693137713,
    31.827879414568));
#86 = CARTESIAN_POINT('',(18.874635145299,13.760436470995,
    32.514309021361));
#87 = CARTESIAN_POINT('',(17.994445745784,13.326462626571,
    33.180988415876));
#88 = CARTESIAN_POINT('',(17.126221834197,12.809651222087,
    33.824058046082));
#89 = CARTESIAN_POINT('',(15.646626460381,11.752404967067,
    34.898131723732));
#90 = CARTESIAN_POINT('',(15.026196700469,11.251278585267,
    35.341371290946));
#91 = CARTESIAN_POINT('',(14.42188644843,10.698903426226,35.766661359553
    ));
#92 = CARTESIAN_POINT('',(13.838771749531,10.09345826001,36.171347798513
    ));
#93 = CARTESIAN_POINT('',(13.282982782698,9.433841300022,36.552224590293
    ));
#94 = CARTESIAN_POINT('',(12.761545004592,8.71997619681,36.905642215732)
  );
#95 = CARTESIAN_POINT('',(12.083456531558,7.635654456642,37.361008587406
    ));
#96 = CARTESIAN_POINT('',(11.892080008793,7.309044226485,37.488968887208
    ));
#97 = CARTESIAN_POINT('',(11.708498059296,6.973562368315,37.611218787642
    ));
#98 = CARTESIAN_POINT('',(11.533291856464,6.629417423013,37.727451931566
    ));
#99 = CARTESIAN_POINT('',(11.367054548699,6.276892962193,37.837355320972
    ));
#100 = CARTESIAN_POINT('',(11.21037839086,5.916357979439,37.940616190099
    ));
#101 = CARTESIAN_POINT('',(10.916872076003,5.179129156911,
    38.133524970957));
#102 = CARTESIAN_POINT('',(10.780096228986,4.802378599526,
    38.223135526879));
#103 = CARTESIAN_POINT('',(10.654099652285,4.418518939749,
    38.305449649038));
#104 = CARTESIAN_POINT('',(10.539443262274,4.028120267283,
    38.380170660692));
#105 = CARTESIAN_POINT('',(10.436643653228,3.631836313772,
    38.447025921366));
#106 = CARTESIAN_POINT('',(10.346156540095,3.230409335712,
    38.505775119277));
#107 = CARTESIAN_POINT('',(10.192584144024,2.429477113753,38.60535204992
    ));
#108 = CARTESIAN_POINT('',(10.128842756776,2.030165621484,
    38.646609162202));
#109 = CARTESIAN_POINT('',(10.077489577283,1.627521947369,
    38.679802820721));
#110 = CARTESIAN_POINT('',(10.038791226198,1.222348876881,
    38.704793835118));
#111 = CARTESIAN_POINT('',(10.012929847496,0.815468421266,
    38.721487280805));
#112 = CARTESIAN_POINT('',(10.,0.407725865915,38.729833462074));
#113 = CARTESIAN_POINT('',(10.,-3.061616997868E-16,38.729833462074));
#114 = PCURVE('',#33,#115);
#115 = DEFINITIONAL_REPRESENTATION('',(#116),#173);
#116 = B_SPLINE_CURVE_WITH_KNOTS('',7,(#117,#118,#119,#120,#121,#122,
    #123,#124,#125,#126,#127,#128,#129,#130,#131,#132,#133,#134,#135,
    #136,#137,#138,#139,#140,#141,#142,#143,#144,#145,#146,#147,#148,
    #149,#150,#151,#152,#153,#154,#155,#156,#157,#158,#159,#160,#161,
    #162,#163,#164,#165,#166,#167,#168,#169,#170,#171,#172),
  .UNSPECIFIED.,.F.,.F.,(8,6,6,6,6,6,6,6,6,8),(0.,0.213973825304,
    0.406454176605,0.530507174585,0.661500268375,0.788326354273,
    0.883064663545,0.922307642287,0.961664851909,1.),.UNSPECIFIED.);
#117 = CARTESIAN_POINT('',(0.,0.));
#118 = CARTESIAN_POINT('',(2.750364269982E-02,3.550703480921E-02));
#119 = CARTESIAN_POINT('',(5.5005964934E-02,7.101244330574E-02));
#120 = CARTESIAN_POINT('',(8.251771663747E-02,0.106573717321));
#121 = CARTESIAN_POINT('',(0.110047284726,0.142245936908));
#122 = CARTESIAN_POINT('',(0.137600912831,0.17808430476));
#123 = CARTESIAN_POINT('',(0.165181967167,0.214147849094));
#124 = CARTESIAN_POINT('',(0.217623403901,0.283208769337));
#125 = CARTESIAN_POINT('',(0.242476312369,0.316147013113));
#126 = CARTESIAN_POINT('',(0.267348099457,0.349369735222));
#127 = CARTESIAN_POINT('',(0.292231401309,0.382927444856));
#128 = CARTESIAN_POINT('',(0.317109521113,0.416873962967));
#129 = CARTESIAN_POINT('',(0.34195466046,0.451269278885));
#130 = CARTESIAN_POINT('',(0.382675058983,0.508693842427));
#131 = CARTESIAN_POINT('',(0.39859781375,0.531414950531));
#132 = CARTESIAN_POINT('',(0.414471027221,0.554371758517));
#133 = CARTESIAN_POINT('',(0.430275189757,0.577584434248));
#134 = CARTESIAN_POINT('',(0.445984149308,0.601074009039));
#135 = CARTESIAN_POINT('',(0.461561974683,0.624863562264));
#136 = CARTESIAN_POINT('',(0.493213964948,0.674445555542));
#137 = CARTESIAN_POINT('',(0.50926456092,0.70027154494));
#138 = CARTESIAN_POINT('',(0.525050370238,0.72649243957));
#139 = CARTESIAN_POINT('',(0.54048875424,0.753139892609));
#140 = CARTESIAN_POINT('',(0.555461433165,0.780244595871));
#141 = CARTESIAN_POINT('',(0.56980565707,0.807837978612));
#142 = CARTESIAN_POINT('',(0.596278606779,0.863179034481));
#143 = CARTESIAN_POINT('',(0.608457127997,0.890880570868));
#144 = CARTESIAN_POINT('',(0.619554797205,0.919101146373));
#145 = CARTESIAN_POINT('',(0.62923815293,0.947861174674));
#146 = CARTESIAN_POINT('',(0.637001175612,0.977156063589));
#147 = CARTESIAN_POINT('',(0.642134367989,1.006959367724));
#148 = CARTESIAN_POINT('',(0.644179150609,1.059749491909));
#149 = CARTESIAN_POINT('',(0.64284096565,1.082540637505));
#150 = CARTESIAN_POINT('',(0.638742607454,1.105509627266));
#151 = CARTESIAN_POINT('',(0.631121082225,1.128569912335));
#152 = CARTESIAN_POINT('',(0.618984421181,1.151575337243));
#153 = CARTESIAN_POINT('',(0.600823110432,1.174291306053));
#154 = CARTESIAN_POINT('',(0.563809660556,1.205411993123));
#155 = CARTESIAN_POINT('',(0.551596066529,1.214403699552));
#156 = CARTESIAN_POINT('',(0.537871202025,1.223240934218));
#157 = CARTESIAN_POINT('',(0.522486220704,1.23188710178));
#158 = CARTESIAN_POINT('',(0.505282753487,1.240298641055));
#159 = CARTESIAN_POINT('',(0.486105914134,1.248424457596));
#160 = CARTESIAN_POINT('',(0.443491882046,1.264010435592));
#161 = CARTESIAN_POINT('',(0.420041438788,1.271468569679));
#162 = CARTESIAN_POINT('',(0.394354598113,1.27852228938));
#163 = CARTESIAN_POINT('',(0.36633237685,1.285104355904));
#164 = CARTESIAN_POINT('',(0.335939203055,1.29114272167));
#165 = CARTESIAN_POINT('',(0.303241374393,1.296564726523));
#166 = CARTESIAN_POINT('',(0.234553267098,1.305914858131));
#167 = CARTESIAN_POINT('',(0.198668049439,1.309878689566));
#168 = CARTESIAN_POINT('',(0.160979415437,1.313130110006));
#169 = CARTESIAN_POINT('',(0.121792812242,1.315611979861));
#170 = CARTESIAN_POINT('',(8.154660377786E-02,1.317281506796));
#171 = CARTESIAN_POINT('',(4.077258659153E-02,1.318116071653));
#172 = CARTESIAN_POINT('',(0.,1.318116071653));
#173 = ( GEOMETRIC_REPRESENTATION_CONTEXT(2) 
PARAMETRIC_REPRESENTATION_CONTEXT() REPRESENTATION_CONTEXT('2D SPACE',''
  ) );
#174 = PCURVE('',#175,#180);
#175 = CYLINDRICAL_SURFACE('',#176,15.);
#176 = AXIS2_PLACEMENT_3D('',#177,#178,#179);
#177 = CARTESIAN_POINT('',(25.,0.,0.));
#178 = DIRECTION('',(-0.,-0.,-1.));
#179 = DIRECTION('',(1.,0.,0.));
#180 = DEFINITIONAL_REPRESENTATION('',(#181),#238);
#181 = B_SPLINE_CURVE_WITH_KNOTS('',7,(#182,#183,#184,#185,#186,#187,
    #188,#189,#190,#191,#192,#193,#194,#195,#196,#197,#198,#199,#200,
    #201,#202,#203,#204,#205,#206,#207,#208,#209,#210,#211,#212,#213,
    #214,#215,#216,#217,#218,#219,#220,#221,#222,#223,#224,#225,#226,
    #227,#228,#229,#230,#231,#232,#233,#234,#235,#236,#237),
  .UNSPECIFIED.,.F.,.F.,(8,6,6,6,6,6,6,6,6,8),(0.,0.213973825304,
    0.406454176605,0.530507174585,0.661500268375,0.788326354273,
    0.883064663545,0.922307642287,0.961664851909,1.),.UNSPECIFIED.);
#182 = CARTESIAN_POINT('',(0.,0.));
#183 = CARTESIAN_POINT('',(-7.334301211857E-02,-1.420281683588));
#184 = CARTESIAN_POINT('',(-0.146682683507,-2.840496809807));
#185 = CARTESIAN_POINT('',(-0.220147776716,-4.260025325353));
#186 = CARTESIAN_POINT('',(-0.293862223868,-5.678139126514));
#187 = CARTESIAN_POINT('',(-0.367950879905,-7.094027958717));
#188 = CARTESIAN_POINT('',(-0.442548257898,-8.506834955717));
#189 = CARTESIAN_POINT('',(-0.585512237399,-11.18304930024));
#190 = CARTESIAN_POINT('',(-0.653745311895,-12.44708251612));
#191 = CARTESIAN_POINT('',(-0.722625887521,-13.70723342422));
#192 = CARTESIAN_POINT('',(-0.792272181114,-14.96270067505));
#193 = CARTESIAN_POINT('',(-0.862812861925,-16.21249484092));
#194 = CARTESIAN_POINT('',(-0.934394148608,-17.45546704862));
#195 = CARTESIAN_POINT('',(-1.054129853062,-19.48627578771));
#196 = CARTESIAN_POINT('',(-1.101562132337,-20.27875906989));
#197 = CARTESIAN_POINT('',(-1.149550828299,-21.06749455769));
#198 = CARTESIAN_POINT('',(-1.198148258505,-21.85204697474));
#199 = CARTESIAN_POINT('',(-1.247410771005,-22.63189056471));
#200 = CARTESIAN_POINT('',(-1.297402473971,-23.40642011607));
#201 = CARTESIAN_POINT('',(-1.401841570115,-24.9865004544));
#202 = CARTESIAN_POINT('',(-1.456373249645,-25.79123356556));
#203 = CARTESIAN_POINT('',(-1.511893677743,-26.58846961577));
#204 = CARTESIAN_POINT('',(-1.568501313797,-27.37717774275));
#205 = CARTESIAN_POINT('',(-1.626303816576,-28.15602841573));
#206 = CARTESIAN_POINT('',(-1.685424594468,-28.92342240019));
#207 = CARTESIAN_POINT('',(-1.8047092486,-30.40760066414));
#208 = CARTESIAN_POINT('',(-1.86475132089,-31.12486059416));
#209 = CARTESIAN_POINT('',(-1.926327445531,-31.82787941457));
#210 = CARTESIAN_POINT('',(-1.989591213656,-32.51430902135));
#211 = CARTESIAN_POINT('',(-2.05470041767,-33.18098841587));
#212 = CARTESIAN_POINT('',(-2.121825698367,-33.82405804608));
#213 = CARTESIAN_POINT('',(-2.243059579109,-34.89813172373));
#214 = CARTESIAN_POINT('',(-2.29613602181,-35.34137129094));
#215 = CARTESIAN_POINT('',(-2.350551921256,-35.76666135956));
#216 = CARTESIAN_POINT('',(-2.406379158963,-36.1713477985));
#217 = CARTESIAN_POINT('',(-2.463667269945,-36.55222459029));
#218 = CARTESIAN_POINT('',(-2.522449546187,-36.90564221573));
#219 = CARTESIAN_POINT('',(-2.607708826906,-37.3610085874));
#220 = CARTESIAN_POINT('',(-2.632934924849,-37.4889688872));
#221 = CARTESIAN_POINT('',(-2.658412403895,-37.61121878764));
#222 = CARTESIAN_POINT('',(-2.684136682977,-37.72745193156));
#223 = CARTESIAN_POINT('',(-2.710100863132,-37.83735532097));
#224 = CARTESIAN_POINT('',(-2.736295336977,-37.94061619009));
#225 = CARTESIAN_POINT('',(-2.789195758888,-38.13352497095));
#226 = CARTESIAN_POINT('',(-2.81590390579,-38.22313552687));
#227 = CARTESIAN_POINT('',(-2.842816858325,-38.30544964903));
#228 = CARTESIAN_POINT('',(-2.869918207525,-38.38017066069));
#229 = CARTESIAN_POINT('',(-2.897189212046,-38.44702592136));
#230 = CARTESIAN_POINT('',(-2.924608184954,-38.50577511927));
#231 = CARTESIAN_POINT('',(-2.978976349863,-38.60535204992));
#232 = CARTESIAN_POINT('',(-3.005921067398,-38.6466091622));
#233 = CARTESIAN_POINT('',(-3.032959972534,-38.67980282072));
#234 = CARTESIAN_POINT('',(-3.060069922894,-38.70479383511));
#235 = CARTESIAN_POINT('',(-3.087228093344,-38.7214872808));
#236 = CARTESIAN_POINT('',(-3.114410929195,-38.72983346207));
#237 = CARTESIAN_POINT('',(-3.14159265359,-38.72983346207));
#238 = ( GEOMETRIC_REPRESENTATION_CONTEXT(2) 
PARAMETRIC_REPRESENTATION_CONTEXT() REPRESENTATION_CONTEXT('2D SPACE',''
  ) );
#239 = ORIENTED_EDGE('',*,*,#240,.T.);
#240 = EDGE_CURVE('',#54,#241,#243,.T.);
#241 = VERTEX_POINT('',#242);
#242 = CARTESIAN_POINT('',(10.,-2.449293598295E-15,-38.72983346207));
#243 = SURFACE_CURVE('',#244,(#301,#361),.PCURVE_S1.);
#244 = B_SPLINE_CURVE_WITH_KNOTS('',7,(#245,#246,#247,#248,#249,#250,
    #251,#252,#253,#254,#255,#256,#257,#258,#259,#260,#261,#262,#263,
    #264,#265,#266,#267,#268,#269,#270,#271,#272,#273,#274,#275,#276,
    #277,#278,#279,#280,#281,#282,#283,#284,#285,#286,#287,#288,#289,
    #290,#291,#292,#293,#294,#295,#296,#297,#298,#299,#300),
  .UNSPECIFIED.,.F.,.F.,(8,6,6,6,6,6,6,6,6,8),(0.,0.213973825304,
    0.406454176605,0.530507174585,0.661500268375,0.788326354273,
    0.883064663545,0.922307642287,0.961664851909,1.),.UNSPECIFIED.);
#245 = CARTESIAN_POINT('',(40.,0.,0.));
#246 = CARTESIAN_POINT('',(40.000000076644,1.100145907546,
    -1.420281683591));
#247 = CARTESIAN_POINT('',(39.905863757324,2.200237954494,
    -2.840496809799));
#248 = CARTESIAN_POINT('',(39.717608219105,3.29255400938,-4.260025325357
    ));
#249 = CARTESIAN_POINT('',(39.435493822961,4.369271661877,
    -5.678139126519));
#250 = CARTESIAN_POINT('',(39.060103354072,5.422411447921,
    -7.094027958709));
#251 = CARTESIAN_POINT('',(38.59237329746,6.443746635202,-8.50683495572)
  );
#252 = CARTESIAN_POINT('',(37.530911559755,8.307078691553,
    -11.18304930025));
#253 = CARTESIAN_POINT('',(36.954605955587,9.156696598887,-12.4470825161
    ));
#254 = CARTESIAN_POINT('',(36.305591017035,9.967321614115,
    -13.70723342425));
#255 = CARTESIAN_POINT('',(35.585090055331,10.732330026488,
    -14.96270067502));
#256 = CARTESIAN_POINT('',(34.794731436303,11.444634424217,
    -16.21249484094));
#257 = CARTESIAN_POINT('',(33.936633547142,12.096667727786,
    -17.45546704862));
#258 = CARTESIAN_POINT('',(32.418370156109,13.056157192405,
    -19.48627578771));
#259 = CARTESIAN_POINT('',(31.796336546829,13.403674739485,
    -20.27875906989));
#260 = CARTESIAN_POINT('',(31.148000236316,13.72045881626,
    -21.06749455769));
#261 = CARTESIAN_POINT('',(30.474214500084,14.004121624832,
    -21.85204697474));
#262 = CARTESIAN_POINT('',(29.776008006473,14.25211344128,
    -22.63189056471));
#263 = CARTESIAN_POINT('',(29.054603091495,14.461701339749,
    -23.40642011607));
#264 = CARTESIAN_POINT('',(27.526667781482,14.80754345568,-24.9865004544
    ));
#265 = CARTESIAN_POINT('',(26.717757687406,14.939010698396,
    -25.79123356556));
#266 = CARTESIAN_POINT('',(25.886290616126,15.020868060928,
    -26.58846961577));
#267 = CARTESIAN_POINT('',(25.03433683794,15.049287943555,
    -27.37717774275));
#268 = CARTESIAN_POINT('',(24.164522533554,15.020086709444,
    -28.15602841573));
#269 = CARTESIAN_POINT('',(23.280085561536,14.928775805943,
    -28.92342240019));
#270 = CARTESIAN_POINT('',(21.518217214121,14.616836089925,
    -30.40760066414));
#271 = CARTESIAN_POINT('',(20.641882612871,14.400489112007,
    -31.12486059416));
#272 = CARTESIAN_POINT('',(19.759153005709,14.116693137716,
    -31.82787941457));
#273 = CARTESIAN_POINT('',(18.874635145297,13.76043647099,
    -32.51430902136));
#274 = CARTESIAN_POINT('',(17.994445745786,13.326462626573,
    -33.18098841587));
#275 = CARTESIAN_POINT('',(17.126221834197,12.809651222087,
    -33.82405804608));
#276 = CARTESIAN_POINT('',(15.646626460379,11.752404967066,
    -34.89813172373));
#277 = CARTESIAN_POINT('',(15.026196700472,11.25127858527,
    -35.34137129093));
#278 = CARTESIAN_POINT('',(14.421886448426,10.698903426225,
    -35.76666135956));
#279 = CARTESIAN_POINT('',(13.838771749534,10.09345826001,-36.1713477985
    ));
#280 = CARTESIAN_POINT('',(13.282982782697,9.433841300023,
    -36.55222459029));
#281 = CARTESIAN_POINT('',(12.761545004591,8.71997619681,-36.90564221573
    ));
#282 = CARTESIAN_POINT('',(12.083456531558,7.635654456642,-37.3610085874
    ));
#283 = CARTESIAN_POINT('',(11.892080008793,7.309044226485,-37.4889688872
    ));
#284 = CARTESIAN_POINT('',(11.708498059296,6.973562368315,
    -37.61121878764));
#285 = CARTESIAN_POINT('',(11.533291856464,6.629417423013,
    -37.72745193156));
#286 = CARTESIAN_POINT('',(11.367054548699,6.276892962193,
    -37.83735532097));
#287 = CARTESIAN_POINT('',(11.21037839086,5.916357979439,-37.94061619009
    ));
#288 = CARTESIAN_POINT('',(10.916872076003,5.179129156911,
    -38.13352497095));
#289 = CARTESIAN_POINT('',(10.780096228986,4.802378599526,
    -38.22313552687));
#290 = CARTESIAN_POINT('',(10.654099652285,4.418518939749,
    -38.30544964903));
#291 = CARTESIAN_POINT('',(10.539443262274,4.028120267283,
    -38.38017066069));
#292 = CARTESIAN_POINT('',(10.436643653228,3.631836313772,
    -38.44702592136));
#293 = CARTESIAN_POINT('',(10.346156540095,3.230409335712,
    -38.50577511927));
#294 = CARTESIAN_POINT('',(10.192584144024,2.429477113753,
    -38.60535204992));
#295 = CARTESIAN_POINT('',(10.128842756776,2.030165621484,-38.6466091622
    ));
#296 = CARTESIAN_POINT('',(10.077489577283,1.627521947368,
    -38.67980282072));
#297 = CARTESIAN_POINT('',(10.038791226198,1.222348876881,
    -38.70479383511));
#298 = CARTESIAN_POINT('',(10.012929847496,0.815468421266,-38.7214872808
    ));
#299 = CARTESIAN_POINT('',(10.,0.407725865915,-38.72983346207));
#300 = CARTESIAN_POINT('',(10.,-3.061616997868E-16,-38.72983346207));
#301 = PCURVE('',#33,#302);
#302 = DEFINITIONAL_REPRESENTATION('',(#303),#360);
#303 = B_SPLINE_CURVE_WITH_KNOTS('',7,(#304,#305,#306,#307,#308,#309,
    #310,#311,#312,#313,#314,#315,#316,#317,#318,#319,#320,#321,#322,
    #323,#324,#325,#326,#327,#328,#329,#330,#331,#332,#333,#334,#335,
    #336,#337,#338,#339,#340,#341,#342,#343,#344,#345,#346,#347,#348,
    #349,#350,#351,#352,#353,#354,#355,#356,#357,#358,#359),
  .UNSPECIFIED.,.F.,.F.,(8,6,6,6,6,6,6,6,6,8),(0.,0.213973825304,
    0.406454176605,0.530507174585,0.661500268375,0.788326354273,
    0.883064663545,0.922307642287,0.961664851909,1.),.UNSPECIFIED.);
#304 = CARTESIAN_POINT('',(0.,0.));
#305 = CARTESIAN_POINT('',(2.750364269987E-02,-3.550703480932E-02));
#306 = CARTESIAN_POINT('',(5.500596493388E-02,-7.101244330552E-02));
#307 = CARTESIAN_POINT('',(8.251771663754E-02,-0.106573717321));
#308 = CARTESIAN_POINT('',(0.110047284726,-0.142245936908));
#309 = CARTESIAN_POINT('',(0.137600912831,-0.17808430476));
#310 = CARTESIAN_POINT('',(0.165181967168,-0.214147849094));
#311 = CARTESIAN_POINT('',(0.217623403901,-0.283208769337));
#312 = CARTESIAN_POINT('',(0.242476312369,-0.316147013113));
#313 = CARTESIAN_POINT('',(0.267348099457,-0.349369735223));
#314 = CARTESIAN_POINT('',(0.292231401308,-0.382927444856));
#315 = CARTESIAN_POINT('',(0.317109521114,-0.416873962967));
#316 = CARTESIAN_POINT('',(0.34195466046,-0.451269278884));
#317 = CARTESIAN_POINT('',(0.382675058983,-0.508693842427));
#318 = CARTESIAN_POINT('',(0.39859781375,-0.531414950531));
#319 = CARTESIAN_POINT('',(0.414471027221,-0.554371758517));
#320 = CARTESIAN_POINT('',(0.430275189757,-0.577584434248));
#321 = CARTESIAN_POINT('',(0.445984149308,-0.601074009039));
#322 = CARTESIAN_POINT('',(0.461561974683,-0.624863562264));
#323 = CARTESIAN_POINT('',(0.493213964948,-0.674445555542));
#324 = CARTESIAN_POINT('',(0.50926456092,-0.70027154494));
#325 = CARTESIAN_POINT('',(0.525050370238,-0.72649243957));
#326 = CARTESIAN_POINT('',(0.54048875424,-0.753139892609));
#327 = CARTESIAN_POINT('',(0.555461433165,-0.780244595871));
#328 = CARTESIAN_POINT('',(0.56980565707,-0.807837978613));
#329 = CARTESIAN_POINT('',(0.596278606779,-0.863179034481));
#330 = CARTESIAN_POINT('',(0.608457127997,-0.890880570868));
#331 = CARTESIAN_POINT('',(0.619554797205,-0.919101146373));
#332 = CARTESIAN_POINT('',(0.62923815293,-0.947861174675));
#333 = CARTESIAN_POINT('',(0.637001175612,-0.977156063589));
#334 = CARTESIAN_POINT('',(0.642134367989,-1.006959367724));
#335 = CARTESIAN_POINT('',(0.644179150609,-1.059749491909));
#336 = CARTESIAN_POINT('',(0.64284096565,-1.082540637505));
#337 = CARTESIAN_POINT('',(0.638742607454,-1.105509627266));
#338 = CARTESIAN_POINT('',(0.631121082225,-1.128569912335));
#339 = CARTESIAN_POINT('',(0.618984421181,-1.151575337243));
#340 = CARTESIAN_POINT('',(0.600823110432,-1.174291306053));
#341 = CARTESIAN_POINT('',(0.563809660556,-1.205411993123));
#342 = CARTESIAN_POINT('',(0.551596066529,-1.214403699552));
#343 = CARTESIAN_POINT('',(0.537871202025,-1.223240934218));
#344 = CARTESIAN_POINT('',(0.522486220704,-1.23188710178));
#345 = CARTESIAN_POINT('',(0.505282753487,-1.240298641055));
#346 = CARTESIAN_POINT('',(0.486105914134,-1.248424457596));
#347 = CARTESIAN_POINT('',(0.443491882046,-1.264010435592));
#348 = CARTESIAN_POINT('',(0.420041438788,-1.271468569679));
#349 = CARTESIAN_POINT('',(0.394354598113,-1.27852228938));
#350 = CARTESIAN_POINT('',(0.36633237685,-1.285104355904));
#351 = CARTESIAN_POINT('',(0.335939203055,-1.29114272167));
#352 = CARTESIAN_POINT('',(0.303241374393,-1.296564726523));
#353 = CARTESIAN_POINT('',(0.234553267098,-1.305914858131));
#354 = CARTESIAN_POINT('',(0.198668049439,-1.309878689566));
#355 = CARTESIAN_POINT('',(0.160979415437,-1.313130110006));
#356 = CARTESIAN_POINT('',(0.121792812242,-1.315611979861));
#357 = CARTESIAN_POINT('',(8.154660377786E-02,-1.317281506796));
#358 = CARTESIAN_POINT('',(4.077258659153E-02,-1.318116071653));
#359 = CARTESIAN_POINT('',(0.,-1.318116071653));
#360 = ( GEOMETRIC_REPRESENTATION_CONTEXT(2) 
PARAMETRIC_REPRESENTATION_CONTEXT() REPRESENTATION_CONTEXT('2D SPACE',''
  ) );
#361 = PCURVE('',#362,#367);
#362 = CYLINDRICAL_SURFACE('',#363,15.);
#363 = AXIS2_PLACEMENT_3D('',#364,#365,#366);
#364 = CARTESIAN_POINT('',(25.,0.,0.));
#365 = DIRECTION('',(0.,0.,1.));
#366 = DIRECTION('',(1.,0.,0.));
#367 = DEFINITIONAL_REPRESENTATION('',(#368),#425);
#368 = B_SPLINE_CURVE_WITH_KNOTS('',7,(#369,#370,#371,#372,#373,#374,
    #375,#376,#377,#378,#379,#380,#381,#382,#383,#384,#385,#386,#387,
    #388,#389,#390,#391,#392,#393,#394,#395,#396,#397,#398,#399,#400,
    #401,#402,#403,#404,#405,#406,#407,#408,#409,#410,#411,#412,#413,
    #414,#415,#416,#417,#418,#419,#420,#421,#422,#423,#424),
  .UNSPECIFIED.,.F.,.F.,(8,6,6,6,6,6,6,6,6,8),(0.,0.213973825304,
    0.406454176605,0.530507174585,0.661500268375,0.788326354273,
    0.883064663545,0.922307642287,0.961664851909,1.),.UNSPECIFIED.);
#369 = CARTESIAN_POINT('',(0.,0.));
#370 = CARTESIAN_POINT('',(7.334301211871E-02,-1.420281683591));
#371 = CARTESIAN_POINT('',(0.146682683507,-2.840496809799));
#372 = CARTESIAN_POINT('',(0.220147776716,-4.260025325357));
#373 = CARTESIAN_POINT('',(0.293862223868,-5.678139126519));
#374 = CARTESIAN_POINT('',(0.367950879905,-7.094027958709));
#375 = CARTESIAN_POINT('',(0.442548257898,-8.50683495572));
#376 = CARTESIAN_POINT('',(0.5855122374,-11.18304930025));
#377 = CARTESIAN_POINT('',(0.653745311894,-12.4470825161));
#378 = CARTESIAN_POINT('',(0.722625887523,-13.70723342425));
#379 = CARTESIAN_POINT('',(0.792272181112,-14.96270067502));
#380 = CARTESIAN_POINT('',(0.862812861926,-16.21249484094));
#381 = CARTESIAN_POINT('',(0.934394148608,-17.45546704862));
#382 = CARTESIAN_POINT('',(1.054129853062,-19.48627578771));
#383 = CARTESIAN_POINT('',(1.101562132337,-20.27875906989));
#384 = CARTESIAN_POINT('',(1.149550828299,-21.06749455769));
#385 = CARTESIAN_POINT('',(1.198148258505,-21.85204697474));
#386 = CARTESIAN_POINT('',(1.247410771005,-22.63189056471));
#387 = CARTESIAN_POINT('',(1.297402473971,-23.40642011607));
#388 = CARTESIAN_POINT('',(1.401841570114,-24.9865004544));
#389 = CARTESIAN_POINT('',(1.456373249645,-25.79123356556));
#390 = CARTESIAN_POINT('',(1.511893677743,-26.58846961577));
#391 = CARTESIAN_POINT('',(1.568501313798,-27.37717774275));
#392 = CARTESIAN_POINT('',(1.626303816576,-28.15602841573));
#393 = CARTESIAN_POINT('',(1.685424594468,-28.92342240019));
#394 = CARTESIAN_POINT('',(1.8047092486,-30.40760066414));
#395 = CARTESIAN_POINT('',(1.86475132089,-31.12486059416));
#396 = CARTESIAN_POINT('',(1.926327445531,-31.82787941457));
#397 = CARTESIAN_POINT('',(1.989591213656,-32.51430902136));
#398 = CARTESIAN_POINT('',(2.05470041767,-33.18098841587));
#399 = CARTESIAN_POINT('',(2.121825698367,-33.82405804608));
#400 = CARTESIAN_POINT('',(2.24305957911,-34.89813172373));
#401 = CARTESIAN_POINT('',(2.29613602181,-35.34137129093));
#402 = CARTESIAN_POINT('',(2.350551921257,-35.76666135956));
#403 = CARTESIAN_POINT('',(2.406379158963,-36.1713477985));
#404 = CARTESIAN_POINT('',(2.463667269945,-36.55222459029));
#405 = CARTESIAN_POINT('',(2.522449546187,-36.90564221573));
#406 = CARTESIAN_POINT('',(2.607708826906,-37.3610085874));
#407 = CARTESIAN_POINT('',(2.632934924849,-37.4889688872));
#408 = CARTESIAN_POINT('',(2.658412403895,-37.61121878764));
#409 = CARTESIAN_POINT('',(2.684136682977,-37.72745193156));
#410 = CARTESIAN_POINT('',(2.710100863132,-37.83735532097));
#411 = CARTESIAN_POINT('',(2.736295336977,-37.94061619009));
#412 = CARTESIAN_POINT('',(2.789195758888,-38.13352497095));
#413 = CARTESIAN_POINT('',(2.81590390579,-38.22313552687));
#414 = CARTESIAN_POINT('',(2.842816858325,-38.30544964903));
#415 = CARTESIAN_POINT('',(2.869918207525,-38.38017066069));
#416 = CARTESIAN_POINT('',(2.897189212046,-38.44702592136));
#417 = CARTESIAN_POINT('',(2.924608184954,-38.50577511927));
#418 = CARTESIAN_POINT('',(2.978976349863,-38.60535204992));
#419 = CARTESIAN_POINT('',(3.005921067398,-38.6466091622));
#420 = CARTESIAN_POINT('',(3.032959972534,-38.67980282072));
#421 = CARTESIAN_POINT('',(3.060069922894,-38.70479383511));
#422 = CARTESIAN_POINT('',(3.087228093344,-38.7214872808));
#423 = CARTESIAN_POINT('',(3.114410929195,-38.72983346207));
#424 = CARTESIAN_POINT('',(3.14159265359,-38.72983346207));
#425 = ( GEOMETRIC_REPRESENTATION_CONTEXT(2) 
PARAMETRIC_REPRESENTATION_CONTEXT() REPRESENTATION_CONTEXT('2D SPACE',''
  ) );
#426 = ORIENTED_EDGE('',*,*,#427,.F.);
#427 = EDGE_CURVE('',#428,#241,#430,.T.);
#428 = VERTEX_POINT('',#429);
#429 = CARTESIAN_POINT('',(2.449293598295E-15,-5.999039130647E-31,-40.)
  );
#430 = SEAM_CURVE('',#431,(#436,#443),.PCURVE_S1.);
#431 = CIRCLE('',#432,40.);
#432 = AXIS2_PLACEMENT_3D('',#433,#434,#435);
#433 = CARTESIAN_POINT('',(0.,0.,0.));
#434 = DIRECTION('',(-2.449293598295E-16,-1.,0.));
#435 = DIRECTION('',(1.,-2.449293598295E-16,0.));
#436 = PCURVE('',#33,#437);
#437 = DEFINITIONAL_REPRESENTATION('',(#438),#442);
#438 = LINE('',#439,#440);
#439 = CARTESIAN_POINT('',(6.28318530718,-6.28318530718));
#440 = VECTOR('',#441,1.);
#441 = DIRECTION('',(0.,1.));
#442 = ( GEOMETRIC_REPRESENTATION_CONTEXT(2) 
PARAMETRIC_REPRESENTATION_CONTEXT() REPRESENTATION_CONTEXT('2D SPACE',''
  ) );
#443 = PCURVE('',#33,#444);
#444 = DEFINITIONAL_REPRESENTATION('',(#445),#449);
#445 = LINE('',#446,#447);
#446 = CARTESIAN_POINT('',(0.,-6.28318530718));
#447 = VECTOR('',#448,1.);
#448 = DIRECTION('',(0.,1.));
#449 = ( GEOMETRIC_REPRESENTATION_CONTEXT(2) 
PARAMETRIC_REPRESENTATION_CONTEXT() REPRESENTATION_CONTEXT('2D SPACE',''
  ) );
#450 = ORIENTED_EDGE('',*,*,#427,.T.);
#451 = ORIENTED_EDGE('',*,*,#452,.T.);
#452 = EDGE_CURVE('',#241,#54,#453,.T.);
#453 = SURFACE_CURVE('',#454,(#527,#603),.PCURVE_S1.);
#454 = B_SPLINE_CURVE_WITH_KNOTS('',8,(#455,#456,#457,#458,#459,#460,
    #461,#462,#463,#464,#465,#466,#467,#468,#469,#470,#471,#472,#473,
    #474,#475,#476,#477,#478,#479,#480,#481,#482,#483,#484,#485,#486,
    #487,#488,#489,#490,#491,#492,#493,#494,#495,#496,#497,#498,#499,
    #500,#501,#502,#503,#504,#505,#506,#507,#508,#509,#510,#511,#512,
    #513,#514,#515,#516,#517,#518,#519,#520,#521,#522,#523,#524,#525,
    #526),.UNSPECIFIED.,.F.,.F.,(9,7,7,7,7,7,7,7,7,7,9),(0.,
    7.167141953147E-02,0.105681407524,0.179893757632,0.304551922962,
    0.435791929722,0.562793614097,0.774499731846,0.980262242311,
    0.990130586181,1.),.UNSPECIFIED.);
#455 = CARTESIAN_POINT('',(10.,0.,-38.72983346207));
#456 = CARTESIAN_POINT('',(10.,-0.667034958774,-38.72983346207));
#457 = CARTESIAN_POINT('',(10.033899840606,-1.334312717524,
    -38.70795120709));
#458 = CARTESIAN_POINT('',(10.101742857283,-1.997965398854,
    -38.66415874078));
#459 = CARTESIAN_POINT('',(10.202899878911,-2.654527763039,
    -38.59879288507));
#460 = CARTESIAN_POINT('',(10.336252360905,-3.300813896996,
    -38.51243696478));
#461 = CARTESIAN_POINT('',(10.500226487778,-3.933881846631,
    -38.40591164429));
#462 = CARTESIAN_POINT('',(10.692856620103,-4.551086118296,
    -38.28025304251));
#463 = CARTESIAN_POINT('',(11.015729549806,-5.434313851937,
    -38.06859810952));
#464 = CARTESIAN_POINT('',(11.125590244832,-5.714516623166,
    -37.99644139894));
#465 = CARTESIAN_POINT('',(11.241177560424,-5.990470660296,
    -37.92036276631));
#466 = CARTESIAN_POINT('',(11.362255813199,-6.261990138783,
    -37.84048680543));
#467 = CARTESIAN_POINT('',(11.488585275687,-6.528915720554,
    -37.75694017558));
#468 = CARTESIAN_POINT('',(11.619925073541,-6.791112554803,
    -37.66985007639));
#469 = CARTESIAN_POINT('',(11.756035678837,-7.04846848917,
    -37.57934292192));
#470 = CARTESIAN_POINT('',(12.20357966039,-7.851700637029,
    -37.28086520012));
#471 = CARTESIAN_POINT('',(12.532026890532,-8.37894783864,
    -37.06053869982));
#472 = CARTESIAN_POINT('',(12.879619904956,-8.881809144973,
    -36.82582440963));
#473 = CARTESIAN_POINT('',(13.244028656864,-9.359850674684,
    -36.57794199656));
#474 = CARTESIAN_POINT('',(13.623060172443,-9.812950381083,
    -36.31803968141));
#475 = CARTESIAN_POINT('',(14.014702127956,-10.24123955518,
    -36.04717137325));
#476 = CARTESIAN_POINT('',(14.417154972986,-10.6450533584,
    -35.76627498673));
#477 = CARTESIAN_POINT('',(15.520426455624,-11.66289010173,
    -34.98880081023));
#478 = CARTESIAN_POINT('',(16.237659646462,-12.23280972258,
    -34.47571620252));
#479 = CARTESIAN_POINT('',(16.973460327398,-12.73740107026,
    -33.94048158762));
#480 = CARTESIAN_POINT('',(17.721709128692,-13.17949724595,
    -33.38620583771));
#481 = CARTESIAN_POINT('',(18.47721511314,-13.56215396664,
    -32.81556154054));
#482 = CARTESIAN_POINT('',(19.235714385146,-13.88856611812,
    -32.23075836198));
#483 = CARTESIAN_POINT('',(19.993871090717,-14.16188772368,
    -31.63347799395));
#484 = CARTESIAN_POINT('',(21.544473747897,-14.62008791075,
    -30.38399171383));
#485 = CARTESIAN_POINT('',(22.33616813817,-14.7994018902,-29.73091223718
    ));
#486 = CARTESIAN_POINT('',(23.121189921826,-14.92653480666,
    -29.06706936482));
#487 = CARTESIAN_POINT('',(23.896849090453,-15.00464830792,-28.393788842
    ));
#488 = CARTESIAN_POINT('',(24.660866567539,-15.03670949355,
    -27.71221679796));
#489 = CARTESIAN_POINT('',(25.41135048182,-15.02551297447,
    -27.02330918359));
#490 = CARTESIAN_POINT('',(26.146767129702,-14.97365043845,
    -26.3278147623));
#491 = CARTESIAN_POINT('',(27.561811809948,-14.79625030174,
    -24.94735095514));
#492 = CARTESIAN_POINT('',(28.242347730401,-14.67316213936,
    -24.26289071499));
#493 = CARTESIAN_POINT('',(28.906341199394,-14.51640977288,
    -23.57342454748));
#494 = CARTESIAN_POINT('',(29.552762684691,-14.32801961593,
    -22.8794546499));
#495 = CARTESIAN_POINT('',(30.180716721804,-14.10989358134,
    -22.18142948986));
#496 = CARTESIAN_POINT('',(30.789434078677,-13.86382570819,
    -21.47973838468));
#497 = CARTESIAN_POINT('',(31.378260537238,-13.59150667449,
    -20.77470593204));
#498 = CARTESIAN_POINT('',(32.894109211257,-12.79944637292,
    -18.88618257788));
#499 = CARTESIAN_POINT('',(33.784597408825,-12.23591018866,
    -17.6974100347));
#500 = CARTESIAN_POINT('',(34.615596799676,-11.61126123232,
    -16.50142623687));
#501 = CARTESIAN_POINT('',(35.384989828231,-10.93221355104,
    -15.29931769898));
#502 = CARTESIAN_POINT('',(36.091063864317,-10.20504329266,
    -14.09205116849));
#503 = CARTESIAN_POINT('',(36.732474749186,-9.435651481941,
    -12.88044622048));
#504 = CARTESIAN_POINT('',(37.30818008411,-8.629570869159,
    -11.66515365592));
#505 = CARTESIAN_POINT('',(38.312246475153,-6.977943353519,
    -9.262304727646));
#506 = CARTESIAN_POINT('',(38.744230537492,-6.134238551487,
    -8.075070846862));
#507 = CARTESIAN_POINT('',(39.112554891427,-5.265719593559,
    -6.885414746022));
#508 = CARTESIAN_POINT('',(39.416610845555,-4.37704948576,
    -5.693824998922));
#509 = CARTESIAN_POINT('',(39.655943524339,-3.472759765881,
    -4.500772924196));
#510 = CARTESIAN_POINT('',(39.830246528489,-2.557282885861,
    -3.306700355088));
#511 = CARTESIAN_POINT('',(39.939346898276,-1.634977241511,
    -2.11200882496));
#512 = CARTESIAN_POINT('',(39.985282627972,-0.665790005508,
    -0.859740103163));
#513 = CARTESIAN_POINT('',(39.987234749712,-0.621429414186,
    -0.802429505414));
#514 = CARTESIAN_POINT('',(39.989036738476,-0.577063554777,
    -0.745118419743));
#515 = CARTESIAN_POINT('',(39.990688588404,-0.532692906391,
    -0.687806890564));
#516 = CARTESIAN_POINT('',(39.992190294291,-0.488317948073,
    -0.630494962271));
#517 = CARTESIAN_POINT('',(39.99354185158,-0.443939158808,
    -0.573182679242));
#518 = CARTESIAN_POINT('',(39.994743256368,-0.399557017514,
    -0.515870085839));
#519 = CARTESIAN_POINT('',(39.996845868415,-0.310782176253,
    -0.401238152977));
#520 = CARTESIAN_POINT('',(39.997747043111,-0.266389176587,
    -0.343918929934));
#521 = CARTESIAN_POINT('',(39.99849802624,-0.221995167557,
    -0.286598945924));
#522 = CARTESIAN_POINT('',(39.999098815193,-0.177596794073,
    -0.229279737538));
#523 = CARTESIAN_POINT('',(39.999549408021,-0.133198296261,
    -0.171959885413));
#524 = CARTESIAN_POINT('',(39.999849803426,-8.880113460235E-02,
    -0.11463905183));
#525 = CARTESIAN_POINT('',(40.00000000075,-4.439817058168E-02,
    -5.73202455931E-02));
#526 = CARTESIAN_POINT('',(40.,-4.470348393681E-07,5.999999999062E-07));
#527 = PCURVE('',#33,#528);
#528 = DEFINITIONAL_REPRESENTATION('',(#529),#602);
#529 = B_SPLINE_CURVE_WITH_KNOTS('',8,(#530,#531,#532,#533,#534,#535,
    #536,#537,#538,#539,#540,#541,#542,#543,#544,#545,#546,#547,#548,
    #549,#550,#551,#552,#553,#554,#555,#556,#557,#558,#559,#560,#561,
    #562,#563,#564,#565,#566,#567,#568,#569,#570,#571,#572,#573,#574,
    #575,#576,#577,#578,#579,#580,#581,#582,#583,#584,#585,#586,#587,
    #588,#589,#590,#591,#592,#593,#594,#595,#596,#597,#598,#599,#600,
    #601),.UNSPECIFIED.,.F.,.F.,(9,7,7,7,7,7,7,7,7,7,9),(0.,
    7.167141953147E-02,0.105681407524,0.179893757632,0.304551922962,
    0.435791929722,0.562793614097,0.774499731846,0.980262242311,
    0.990130586181,1.),.UNSPECIFIED.);
#530 = CARTESIAN_POINT('',(6.28318530718,-1.318116071653));
#531 = CARTESIAN_POINT('',(6.216481811302,-1.318116071653));
#532 = CARTESIAN_POINT('',(6.149755344874,-1.315927790911));
#533 = CARTESIAN_POINT('',(6.085191369954,-1.311548920716));
#534 = CARTESIAN_POINT('',(6.024990158807,-1.305114783318));
#535 = CARTESIAN_POINT('',(5.970504915143,-1.296899386669));
#536 = CARTESIAN_POINT('',(5.921993836156,-1.287192026865));
#537 = CARTESIAN_POINT('',(5.879358067456,-1.276266651327));
#538 = CARTESIAN_POINT('',(5.824582740917,-1.258725388895));
#539 = CARTESIAN_POINT('',(5.808187057373,-1.252860382672));
#540 = CARTESIAN_POINT('',(5.792981404882,-1.246800885895));
#541 = CARTESIAN_POINT('',(5.778911544,-1.240570467899));
#542 = CARTESIAN_POINT('',(5.765916809164,-1.234190615458));
#543 = CARTESIAN_POINT('',(5.753934414062,-1.227680679129));
#544 = CARTESIAN_POINT('',(5.742902121379,-1.221057964413));
#545 = CARTESIAN_POINT('',(5.710626827928,-1.199674429892));
#546 = CARTESIAN_POINT('',(5.692732861166,-1.184549722529));
#547 = CARTESIAN_POINT('',(5.678440101883,-1.169122102956));
#548 = CARTESIAN_POINT('',(5.667165226634,-1.153508231578));
#549 = CARTESIAN_POINT('',(5.65842780399,-1.137793883656));
#550 = CARTESIAN_POINT('',(5.651839477485,-1.122042307623));
#551 = CARTESIAN_POINT('',(5.647075871856,-1.10629987746));
#552 = CARTESIAN_POINT('',(5.638494862881,-1.064224617716));
#553 = CARTESIAN_POINT('',(5.637524404758,-1.037983870265));
#554 = CARTESIAN_POINT('',(5.639698466429,-1.012015350903));
#555 = CARTESIAN_POINT('',(5.644230196143,-0.986387582988));
#556 = CARTESIAN_POINT('',(5.650573462936,-0.961136617732));
#557 = CARTESIAN_POINT('',(5.65832657694,-0.936277508317));
#558 = CARTESIAN_POINT('',(5.667201177046,-0.911804726493));
#559 = CARTESIAN_POINT('',(5.687278097789,-0.862316203715));
#560 = CARTESIAN_POINT('',(5.698572958634,-0.837354273562));
#561 = CARTESIAN_POINT('',(5.710610593893,-0.812793530872));
#562 = CARTESIAN_POINT('',(5.723219711326,-0.788616257903));
#563 = CARTESIAN_POINT('',(5.736274954706,-0.764804126753));
#564 = CARTESIAN_POINT('',(5.749681186391,-0.741337584104));
#565 = CARTESIAN_POINT('',(5.763368022198,-0.71819516343));
#566 = CARTESIAN_POINT('',(5.79074739177,-0.673248108419));
#567 = CARTESIAN_POINT('',(5.804423020314,-0.65142842928));
#568 = CARTESIAN_POINT('',(5.81825993156,-0.629874225327));
#569 = CARTESIAN_POINT('',(5.832221286938,-0.608568304337));
#570 = CARTESIAN_POINT('',(5.846279053846,-0.587494941673));
#571 = CARTESIAN_POINT('',(5.860411439999,-0.566639199773));
#572 = CARTESIAN_POINT('',(5.874601456922,-0.54598643977));
#573 = CARTESIAN_POINT('',(5.912565979314,-0.491408763089));
#574 = CARTESIAN_POINT('',(5.936416470485,-0.457824905727));
#575 = CARTESIAN_POINT('',(5.960330210332,-0.424701558218));
#576 = CARTESIAN_POINT('',(5.98427185064,-0.391983233667));
#577 = CARTESIAN_POINT('',(6.008218617795,-0.359621281142));
#578 = CARTESIAN_POINT('',(6.032156456404,-0.327570644415));
#579 = CARTESIAN_POINT('',(6.056078993659,-0.295788024511));
#580 = CARTESIAN_POINT('',(6.10322191768,-0.233557012453));
#581 = CARTESIAN_POINT('',(6.126440353809,-0.203099919548));
#582 = CARTESIAN_POINT('',(6.149639793475,-0.172819905273));
#583 = CARTESIAN_POINT('',(6.172820907778,-0.142682545137));
#584 = CARTESIAN_POINT('',(6.195985997319,-0.112655785397));
#585 = CARTESIAN_POINT('',(6.219138609456,-8.270863419012E-02));
#586 = CARTESIAN_POINT('',(6.242283377929,-5.28100836601E-02));
#587 = CARTESIAN_POINT('',(6.266536006117,-2.149513475928E-02));
#588 = CARTESIAN_POINT('',(6.267645921054,-2.006204695495E-02));
#589 = CARTESIAN_POINT('',(6.268755830168,-1.862899628716E-02));
#590 = CARTESIAN_POINT('',(6.269865733988,-1.719597937747E-02));
#591 = CARTESIAN_POINT('',(6.27097563304,-1.576299284817E-02));
#592 = CARTESIAN_POINT('',(6.272085527853,-1.433003332228E-02));
#593 = CARTESIAN_POINT('',(6.273195418955,-1.289709742358E-02));
#594 = CARTESIAN_POINT('',(6.275415315133,-1.003111076941E-02));
#595 = CARTESIAN_POINT('',(6.276525327686,-8.598062930015E-03));
#596 = CARTESIAN_POINT('',(6.277635302951,-7.16501848844E-03));
#597 = CARTESIAN_POINT('',(6.278745337312,-5.732011374518E-03));
#598 = CARTESIAN_POINT('',(6.279855337269,-4.299001619369E-03));
#599 = CARTESIAN_POINT('',(6.280965278815,-2.865976295652E-03));
#600 = CARTESIAN_POINT('',(6.282075352915,-1.433006139858E-03));
#601 = CARTESIAN_POINT('',(6.283185296004,1.499999990884E-08));
#602 = ( GEOMETRIC_REPRESENTATION_CONTEXT(2) 
PARAMETRIC_REPRESENTATION_CONTEXT() REPRESENTATION_CONTEXT('2D SPACE',''
  ) );
#603 = PCURVE('',#362,#604);
#604 = DEFINITIONAL_REPRESENTATION('',(#605),#678);
#605 = B_SPLINE_CURVE_WITH_KNOTS('',8,(#606,#607,#608,#609,#610,#611,
    #612,#613,#614,#615,#616,#617,#618,#619,#620,#621,#622,#623,#624,
    #625,#626,#627,#628,#629,#630,#631,#632,#633,#634,#635,#636,#637,
    #638,#639,#640,#641,#642,#643,#644,#645,#646,#647,#648,#649,#650,
    #651,#652,#653,#654,#655,#656,#657,#658,#659,#660,#661,#662,#663,
    #664,#665,#666,#667,#668,#669,#670,#671,#672,#673,#674,#675,#676,
    #677),.UNSPECIFIED.,.F.,.F.,(9,7,7,7,7,7,7,7,7,7,9),(0.,
    7.167141953147E-02,0.105681407524,0.179893757632,0.304551922962,
    0.435791929722,0.562793614097,0.774499731846,0.980262242311,
    0.990130586181,1.),.UNSPECIFIED.);
#606 = CARTESIAN_POINT('',(3.14159265359,-38.72983346207));
#607 = CARTESIAN_POINT('',(3.186061650841,-38.72983346207));
#608 = CARTESIAN_POINT('',(3.230546833354,-38.70795120709));
#609 = CARTESIAN_POINT('',(3.274924353087,-38.66415874078));
#610 = CARTESIAN_POINT('',(3.319097560327,-38.59879288507));
#611 = CARTESIAN_POINT('',(3.362980304835,-38.51243696478));
#612 = CARTESIAN_POINT('',(3.406489662228,-38.40591164429));
#613 = CARTESIAN_POINT('',(3.449544516757,-38.28025304251));
#614 = CARTESIAN_POINT('',(3.512237353782,-38.06859810952));
#615 = CARTESIAN_POINT('',(3.5322966292,-37.99644139894));
#616 = CARTESIAN_POINT('',(3.552233467221,-37.92036276631));
#617 = CARTESIAN_POINT('',(3.572042744041,-37.84048680543));
#618 = CARTESIAN_POINT('',(3.59172021868,-37.75694017558));
#619 = CARTESIAN_POINT('',(3.611262431053,-37.66985007639));
#620 = CARTESIAN_POINT('',(3.630666634297,-37.57934292192));
#621 = CARTESIAN_POINT('',(3.69196653456,-37.28086520012));
#622 = CARTESIAN_POINT('',(3.733329404465,-37.06053869982));
#623 = CARTESIAN_POINT('',(3.774006559797,-36.82582440963));
#624 = CARTESIAN_POINT('',(3.813995052625,-36.57794199656));
#625 = CARTESIAN_POINT('',(3.85329913523,-36.31803968141));
#626 = CARTESIAN_POINT('',(3.891929561643,-36.04717137325));
#627 = CARTESIAN_POINT('',(3.929903963054,-35.76627498673));
#628 = CARTESIAN_POINT('',(4.029975040027,-34.98880081023));
#629 = CARTESIAN_POINT('',(4.090882361219,-34.47571620252));
#630 = CARTESIAN_POINT('',(4.150122235632,-33.94048158762));
#631 = CARTESIAN_POINT('',(4.20780796203,-33.38620583771));
#632 = CARTESIAN_POINT('',(4.264040910122,-32.81556154054));
#633 = CARTESIAN_POINT('',(4.318922084809,-32.23075836198));
#634 = CARTESIAN_POINT('',(4.372557524492,-31.63347799395));
#635 = CARTESIAN_POINT('',(4.480349835327,-30.38399171383));
#636 = CARTESIAN_POINT('',(4.534353500799,-29.73091223718));
#637 = CARTESIAN_POINT('',(4.587202109808,-29.06706936482));
#638 = CARTESIAN_POINT('',(4.638991122894,-28.393788842));
#639 = CARTESIAN_POINT('',(4.689802380062,-27.71221679796));
#640 = CARTESIAN_POINT('',(4.739710848613,-27.02330918359));
#641 = CARTESIAN_POINT('',(4.788787898088,-26.3278147623));
#642 = CARTESIAN_POINT('',(4.883862658276,-24.94735095514));
#643 = CARTESIAN_POINT('',(4.929900119183,-24.26289071499));
#644 = CARTESIAN_POINT('',(4.975278161814,-23.57342454748));
#645 = CARTESIAN_POINT('',(5.020047728358,-22.8794546499));
#646 = CARTESIAN_POINT('',(5.06425360761,-22.18142948986));
#647 = CARTESIAN_POINT('',(5.107936832442,-21.47973838468));
#648 = CARTESIAN_POINT('',(5.151136263905,-20.77470593204));
#649 = CARTESIAN_POINT('',(5.265156860949,-18.88618257788));
#650 = CARTESIAN_POINT('',(5.335171527056,-17.6974100347));
#651 = CARTESIAN_POINT('',(5.404109420597,-16.50142623687));
#652 = CARTESIAN_POINT('',(5.472108766591,-15.29931769898));
#653 = CARTESIAN_POINT('',(5.539288219813,-14.09205116849));
#654 = CARTESIAN_POINT('',(5.605755521594,-12.88044622048));
#655 = CARTESIAN_POINT('',(5.671612034965,-11.66515365592));
#656 = CARTESIAN_POINT('',(5.800470661513,-9.262304727646));
#657 = CARTESIAN_POINT('',(5.863493328493,-8.075070846862));
#658 = CARTESIAN_POINT('',(5.926115154349,-6.885414746022));
#659 = CARTESIAN_POINT('',(5.988414980325,-5.693824998922));
#660 = CARTESIAN_POINT('',(6.05046570636,-4.500772924196));
#661 = CARTESIAN_POINT('',(6.112337417222,-3.306700355088));
#662 = CARTESIAN_POINT('',(6.174099908707,-2.11200882496));
#663 = CARTESIAN_POINT('',(6.238784922932,-0.859740103163));
#664 = CARTESIAN_POINT('',(6.241745140847,-0.802429505414));
#665 = CARTESIAN_POINT('',(6.244705275255,-0.745118419743));
#666 = CARTESIAN_POINT('',(6.247665333754,-0.687806890564));
#667 = CARTESIAN_POINT('',(6.250625323939,-0.630494962271));
#668 = CARTESIAN_POINT('',(6.253585253405,-0.573182679242));
#669 = CARTESIAN_POINT('',(6.256545129743,-0.515870085839));
#670 = CARTESIAN_POINT('',(6.262465112258,-0.401238152977));
#671 = CARTESIAN_POINT('',(6.265425238363,-0.343918929934));
#672 = CARTESIAN_POINT('',(6.268385234156,-0.286598945924));
#673 = CARTESIAN_POINT('',(6.271345362834,-0.229279737538));
#674 = CARTESIAN_POINT('',(6.274305381244,-0.171959885413));
#675 = CARTESIAN_POINT('',(6.277265231539,-0.11463905183));
#676 = CARTESIAN_POINT('',(6.280225429141,-5.73202455931E-02));
#677 = CARTESIAN_POINT('',(6.283185277377,5.999999999062E-07));
#678 = ( GEOMETRIC_REPRESENTATION_CONTEXT(2) 
PARAMETRIC_REPRESENTATION_CONTEXT() REPRESENTATION_CONTEXT('2D SPACE',''
  ) );
#679 = ORIENTED_EDGE('',*,*,#680,.F.);
#680 = EDGE_CURVE('',#22,#54,#681,.T.);
#681 = SURFACE_CURVE('',#682,(#755,#831),.PCURVE_S1.);
#682 = B_SPLINE_CURVE_WITH_KNOTS('',8,(#683,#684,#685,#686,#687,#688,
    #689,#690,#691,#692,#693,#694,#695,#696,#697,#698,#699,#700,#701,
    #702,#703,#704,#705,#706,#707,#708,#709,#710,#711,#712,#713,#714,
    #715,#716,#717,#718,#719,#720,#721,#722,#723,#724,#725,#726,#727,
    #728,#729,#730,#731,#732,#733,#734,#735,#736,#737,#738,#739,#740,
    #741,#742,#743,#744,#745,#746,#747,#748,#749,#750,#751,#752,#753,
    #754),.UNSPECIFIED.,.F.,.F.,(9,7,7,7,7,7,7,7,7,7,9),(0.,
    7.167141953302E-02,0.105681407525,0.179893757633,0.304551922963,
    0.435791929723,0.562793614097,0.774499731846,0.98026224231,
    0.99013058618,1.),.UNSPECIFIED.);
#683 = CARTESIAN_POINT('',(10.,0.,38.729833462074));
#684 = CARTESIAN_POINT('',(10.,-0.667034958765,38.729833462074));
#685 = CARTESIAN_POINT('',(10.033899840608,-1.334312717564,
    38.707951207099));
#686 = CARTESIAN_POINT('',(10.101742857271,-1.997965398766,
    38.66415874077));
#687 = CARTESIAN_POINT('',(10.202899878933,-2.654527763157,
    38.598792885085));
#688 = CARTESIAN_POINT('',(10.336252360881,-3.300813896898,
    38.512436964789));
#689 = CARTESIAN_POINT('',(10.500226487793,-3.93388184668,
    38.405911644285));
#690 = CARTESIAN_POINT('',(10.692856620099,-4.551086118285,
    38.280253042516));
#691 = CARTESIAN_POINT('',(11.015729549806,-5.434313851936,
    38.068598109525));
#692 = CARTESIAN_POINT('',(11.125590244832,-5.714516623166,
    37.996441398949));
#693 = CARTESIAN_POINT('',(11.241177560424,-5.990470660296,
    37.920362766312));
#694 = CARTESIAN_POINT('',(11.362255813199,-6.261990138782,
    37.840486805437));
#695 = CARTESIAN_POINT('',(11.488585275687,-6.528915720554,
    37.756940175582));
#696 = CARTESIAN_POINT('',(11.619925073541,-6.791112554804,
    37.669850076394));
#697 = CARTESIAN_POINT('',(11.756035678837,-7.04846848917,
    37.579342921922));
#698 = CARTESIAN_POINT('',(12.20357966039,-7.851700637027,
    37.280865200123));
#699 = CARTESIAN_POINT('',(12.532026890534,-8.378947838644,
    37.060538699824));
#700 = CARTESIAN_POINT('',(12.879619904953,-8.881809144969,
    36.825824409639));
#701 = CARTESIAN_POINT('',(13.244028656864,-9.359850674683,
    36.577941996565));
#702 = CARTESIAN_POINT('',(13.623060172446,-9.812950381087,
    36.318039681416));
#703 = CARTESIAN_POINT('',(14.014702127953,-10.24123955518,
    36.047171373257));
#704 = CARTESIAN_POINT('',(14.417154972987,-10.6450533584,
    35.766274986733));
#705 = CARTESIAN_POINT('',(15.520426455623,-11.66289010173,
    34.98880081023));
#706 = CARTESIAN_POINT('',(16.237659646463,-12.23280972258,
    34.475716202523));
#707 = CARTESIAN_POINT('',(16.973460327397,-12.73740107026,
    33.940481587621));
#708 = CARTESIAN_POINT('',(17.721709128693,-13.17949724595,
    33.386205837712));
#709 = CARTESIAN_POINT('',(18.477215113142,-13.56215396664,
    32.815561540542));
#710 = CARTESIAN_POINT('',(19.235714385144,-13.88856611812,
    32.23075836198));
#711 = CARTESIAN_POINT('',(19.993871090717,-14.16188772368,
    31.633477993951));
#712 = CARTESIAN_POINT('',(21.544473747897,-14.62008791075,
    30.383991713832));
#713 = CARTESIAN_POINT('',(22.33616813817,-14.7994018902,29.730912237183
    ));
#714 = CARTESIAN_POINT('',(23.121189921827,-14.92653480666,
    29.06706936482));
#715 = CARTESIAN_POINT('',(23.896849090452,-15.00464830792,
    28.393788842002));
#716 = CARTESIAN_POINT('',(24.660866567538,-15.03670949355,
    27.712216797966));
#717 = CARTESIAN_POINT('',(25.411350481822,-15.02551297447,
    27.023309183588));
#718 = CARTESIAN_POINT('',(26.146767129701,-14.97365043845,26.3278147623
    ));
#719 = CARTESIAN_POINT('',(27.561811809947,-14.79625030174,
    24.947350955148));
#720 = CARTESIAN_POINT('',(28.242347730402,-14.67316213936,
    24.262890714993));
#721 = CARTESIAN_POINT('',(28.906341199394,-14.51640977288,
    23.573424547489));
#722 = CARTESIAN_POINT('',(29.552762684691,-14.32801961593,
    22.879454649902));
#723 = CARTESIAN_POINT('',(30.180716721804,-14.10989358134,
    22.181429489861));
#724 = CARTESIAN_POINT('',(30.789434078678,-13.86382570819,
    21.479738384688));
#725 = CARTESIAN_POINT('',(31.378260537238,-13.59150667449,
    20.774705932044));
#726 = CARTESIAN_POINT('',(32.894109211259,-12.79944637292,
    18.886182577882));
#727 = CARTESIAN_POINT('',(33.784597408824,-12.23591018866,
    17.697410034706));
#728 = CARTESIAN_POINT('',(34.615596799674,-11.61126123232,
    16.501426236879));
#729 = CARTESIAN_POINT('',(35.384989828233,-10.93221355104,
    15.299317698979));
#730 = CARTESIAN_POINT('',(36.091063864318,-10.20504329266,
    14.092051168493));
#731 = CARTESIAN_POINT('',(36.732474749183,-9.435651481945,
    12.880446220486));
#732 = CARTESIAN_POINT('',(37.308180084111,-8.629570869157,
    11.66515365592));
#733 = CARTESIAN_POINT('',(38.312246475153,-6.97794335352,9.262304727646
    ));
#734 = CARTESIAN_POINT('',(38.744230537493,-6.134238551486,
    8.075070846861));
#735 = CARTESIAN_POINT('',(39.112554891427,-5.265719593559,
    6.885414746023));
#736 = CARTESIAN_POINT('',(39.416610845554,-4.377049485761,
    5.693824998923));
#737 = CARTESIAN_POINT('',(39.655943524339,-3.472759765881,
    4.500772924196));
#738 = CARTESIAN_POINT('',(39.83024652849,-2.55728288586,3.306700355086)
  );
#739 = CARTESIAN_POINT('',(39.939346898276,-1.634977241512,
    2.112008824961));
#740 = CARTESIAN_POINT('',(39.985282627972,-0.665790005508,
    0.859740103163));
#741 = CARTESIAN_POINT('',(39.987234749712,-0.621429414186,
    0.802429505414));
#742 = CARTESIAN_POINT('',(39.989036738476,-0.577063554777,
    0.745118419743));
#743 = CARTESIAN_POINT('',(39.990688588404,-0.532692906391,
    0.687806890564));
#744 = CARTESIAN_POINT('',(39.992190294291,-0.488317948073,
    0.630494962271));
#745 = CARTESIAN_POINT('',(39.99354185158,-0.443939158808,0.573182679242
    ));
#746 = CARTESIAN_POINT('',(39.994743256368,-0.399557017514,
    0.515870085839));
#747 = CARTESIAN_POINT('',(39.996845868416,-0.310782176251,
    0.401238152975));
#748 = CARTESIAN_POINT('',(39.997747043113,-0.266389176592,
    0.343918929942));
#749 = CARTESIAN_POINT('',(39.998498026236,-0.221995167551,
    0.286598945915));
#750 = CARTESIAN_POINT('',(39.999098815194,-0.177596794073,
    0.229279737539));
#751 = CARTESIAN_POINT('',(39.999549408025,-0.133198296267,
    0.171959885423));
#752 = CARTESIAN_POINT('',(39.99984980342,-8.880113459691E-02,
    0.114639051821));
#753 = CARTESIAN_POINT('',(40.000000000752,-4.439817058344E-02,
    5.732024559621E-02));
#754 = CARTESIAN_POINT('',(40.,-4.470348393681E-07,-6.E-07));
#755 = PCURVE('',#33,#756);
#756 = DEFINITIONAL_REPRESENTATION('',(#757),#830);
#757 = B_SPLINE_CURVE_WITH_KNOTS('',8,(#758,#759,#760,#761,#762,#763,
    #764,#765,#766,#767,#768,#769,#770,#771,#772,#773,#774,#775,#776,
    #777,#778,#779,#780,#781,#782,#783,#784,#785,#786,#787,#788,#789,
    #790,#791,#792,#793,#794,#795,#796,#797,#798,#799,#800,#801,#802,
    #803,#804,#805,#806,#807,#808,#809,#810,#811,#812,#813,#814,#815,
    #816,#817,#818,#819,#820,#821,#822,#823,#824,#825,#826,#827,#828,
    #829),.UNSPECIFIED.,.F.,.F.,(9,7,7,7,7,7,7,7,7,7,9),(0.,
    7.167141953302E-02,0.105681407525,0.179893757633,0.304551922963,
    0.435791929723,0.562793614097,0.774499731846,0.98026224231,
    0.99013058618,1.),.UNSPECIFIED.);
#758 = CARTESIAN_POINT('',(6.28318530718,1.318116071653));
#759 = CARTESIAN_POINT('',(6.216481811303,1.318116071653));
#760 = CARTESIAN_POINT('',(6.14975534487,1.31592779091));
#761 = CARTESIAN_POINT('',(6.085191369961,1.311548920717));
#762 = CARTESIAN_POINT('',(6.024990158798,1.305114783316));
#763 = CARTESIAN_POINT('',(5.97050491515,1.296899386671));
#764 = CARTESIAN_POINT('',(5.921993836153,1.287192026864));
#765 = CARTESIAN_POINT('',(5.879358067456,1.276266651327));
#766 = CARTESIAN_POINT('',(5.824582740917,1.258725388895));
#767 = CARTESIAN_POINT('',(5.808187057372,1.252860382672));
#768 = CARTESIAN_POINT('',(5.792981404882,1.246800885895));
#769 = CARTESIAN_POINT('',(5.778911544,1.240570467899));
#770 = CARTESIAN_POINT('',(5.765916809164,1.234190615458));
#771 = CARTESIAN_POINT('',(5.753934414062,1.227680679129));
#772 = CARTESIAN_POINT('',(5.742902121379,1.221057964413));
#773 = CARTESIAN_POINT('',(5.710626827928,1.199674429892));
#774 = CARTESIAN_POINT('',(5.692732861166,1.184549722528));
#775 = CARTESIAN_POINT('',(5.678440101883,1.169122102956));
#776 = CARTESIAN_POINT('',(5.667165226634,1.153508231578));
#777 = CARTESIAN_POINT('',(5.65842780399,1.137793883656));
#778 = CARTESIAN_POINT('',(5.651839477485,1.122042307623));
#779 = CARTESIAN_POINT('',(5.647075871856,1.10629987746));
#780 = CARTESIAN_POINT('',(5.638494862881,1.064224617716));
#781 = CARTESIAN_POINT('',(5.637524404758,1.037983870265));
#782 = CARTESIAN_POINT('',(5.639698466429,1.012015350903));
#783 = CARTESIAN_POINT('',(5.644230196143,0.986387582988));
#784 = CARTESIAN_POINT('',(5.650573462936,0.961136617732));
#785 = CARTESIAN_POINT('',(5.65832657694,0.936277508317));
#786 = CARTESIAN_POINT('',(5.667201177046,0.911804726493));
#787 = CARTESIAN_POINT('',(5.687278097789,0.862316203715));
#788 = CARTESIAN_POINT('',(5.698572958634,0.837354273562));
#789 = CARTESIAN_POINT('',(5.710610593893,0.812793530872));
#790 = CARTESIAN_POINT('',(5.723219711326,0.788616257903));
#791 = CARTESIAN_POINT('',(5.736274954706,0.764804126753));
#792 = CARTESIAN_POINT('',(5.749681186391,0.741337584104));
#793 = CARTESIAN_POINT('',(5.763368022198,0.71819516343));
#794 = CARTESIAN_POINT('',(5.79074739177,0.673248108419));
#795 = CARTESIAN_POINT('',(5.804423020314,0.65142842928));
#796 = CARTESIAN_POINT('',(5.81825993156,0.629874225327));
#797 = CARTESIAN_POINT('',(5.832221286938,0.608568304337));
#798 = CARTESIAN_POINT('',(5.846279053846,0.587494941673));
#799 = CARTESIAN_POINT('',(5.860411439999,0.566639199773));
#800 = CARTESIAN_POINT('',(5.874601456922,0.54598643977));
#801 = CARTESIAN_POINT('',(5.912565979314,0.491408763089));
#802 = CARTESIAN_POINT('',(5.936416470485,0.457824905727));
#803 = CARTESIAN_POINT('',(5.960330210331,0.424701558218));
#804 = CARTESIAN_POINT('',(5.98427185064,0.391983233667));
#805 = CARTESIAN_POINT('',(6.008218617795,0.359621281142));
#806 = CARTESIAN_POINT('',(6.032156456404,0.327570644415));
#807 = CARTESIAN_POINT('',(6.056078993659,0.295788024511));
#808 = CARTESIAN_POINT('',(6.10322191768,0.233557012453));
#809 = CARTESIAN_POINT('',(6.126440353809,0.203099919548));
#810 = CARTESIAN_POINT('',(6.149639793475,0.172819905273));
#811 = CARTESIAN_POINT('',(6.172820907778,0.142682545137));
#812 = CARTESIAN_POINT('',(6.195985997319,0.112655785397));
#813 = CARTESIAN_POINT('',(6.219138609457,8.27086341901E-02));
#814 = CARTESIAN_POINT('',(6.242283377929,5.281008366012E-02));
#815 = CARTESIAN_POINT('',(6.266536006117,2.149513475928E-02));
#816 = CARTESIAN_POINT('',(6.267645921054,2.006204695495E-02));
#817 = CARTESIAN_POINT('',(6.268755830168,1.862899628716E-02));
#818 = CARTESIAN_POINT('',(6.269865733988,1.719597937747E-02));
#819 = CARTESIAN_POINT('',(6.27097563304,1.576299284817E-02));
#820 = CARTESIAN_POINT('',(6.272085527853,1.433003332228E-02));
#821 = CARTESIAN_POINT('',(6.273195418955,1.289709742358E-02));
#822 = CARTESIAN_POINT('',(6.275415315133,1.003111076936E-02));
#823 = CARTESIAN_POINT('',(6.276525327686,8.598062930182E-03));
#824 = CARTESIAN_POINT('',(6.277635302952,7.165018488261E-03));
#825 = CARTESIAN_POINT('',(6.278745337312,5.732011374512E-03));
#826 = CARTESIAN_POINT('',(6.279855337269,4.299001619548E-03));
#827 = CARTESIAN_POINT('',(6.280965278815,2.865976295496E-03));
#828 = CARTESIAN_POINT('',(6.282075352915,1.433006139905E-03));
#829 = CARTESIAN_POINT('',(6.283185296004,-1.5E-08));
#830 = ( GEOMETRIC_REPRESENTATION_CONTEXT(2) 
PARAMETRIC_REPRESENTATION_CONTEXT() REPRESENTATION_CONTEXT('2D SPACE',''
  ) );
#831 = PCURVE('',#175,#832);
#832 = DEFINITIONAL_REPRESENTATION('',(#833),#906);
#833 = B_SPLINE_CURVE_WITH_KNOTS('',8,(#834,#835,#836,#837,#838,#839,
    #840,#841,#842,#843,#844,#845,#846,#847,#848,#849,#850,#851,#852,
    #853,#854,#855,#856,#857,#858,#859,#860,#861,#862,#863,#864,#865,
    #866,#867,#868,#869,#870,#871,#872,#873,#874,#875,#876,#877,#878,
    #879,#880,#881,#882,#883,#884,#885,#886,#887,#888,#889,#890,#891,
    #892,#893,#894,#895,#896,#897,#898,#899,#900,#901,#902,#903,#904,
    #905),.UNSPECIFIED.,.F.,.F.,(9,7,7,7,7,7,7,7,7,7,9),(0.,
    7.167141953302E-02,0.105681407525,0.179893757633,0.304551922963,
    0.435791929723,0.562793614097,0.774499731846,0.98026224231,
    0.99013058618,1.),.UNSPECIFIED.);
#834 = CARTESIAN_POINT('',(-3.14159265359,-38.72983346207));
#835 = CARTESIAN_POINT('',(-3.186061650841,-38.72983346207));
#836 = CARTESIAN_POINT('',(-3.230546833357,-38.70795120709));
#837 = CARTESIAN_POINT('',(-3.274924353082,-38.66415874078));
#838 = CARTESIAN_POINT('',(-3.319097560334,-38.59879288506));
#839 = CARTESIAN_POINT('',(-3.362980304828,-38.5124369648));
#840 = CARTESIAN_POINT('',(-3.406489662231,-38.40591164428));
#841 = CARTESIAN_POINT('',(-3.449544516756,-38.28025304251));
#842 = CARTESIAN_POINT('',(-3.512237353782,-38.06859810952));
#843 = CARTESIAN_POINT('',(-3.5322966292,-37.99644139894));
#844 = CARTESIAN_POINT('',(-3.552233467221,-37.92036276631));
#845 = CARTESIAN_POINT('',(-3.572042744041,-37.84048680543));
#846 = CARTESIAN_POINT('',(-3.59172021868,-37.75694017558));
#847 = CARTESIAN_POINT('',(-3.611262431053,-37.66985007639));
#848 = CARTESIAN_POINT('',(-3.630666634297,-37.57934292192));
#849 = CARTESIAN_POINT('',(-3.69196653456,-37.28086520012));
#850 = CARTESIAN_POINT('',(-3.733329404466,-37.06053869982));
#851 = CARTESIAN_POINT('',(-3.774006559797,-36.82582440963));
#852 = CARTESIAN_POINT('',(-3.813995052625,-36.57794199656));
#853 = CARTESIAN_POINT('',(-3.85329913523,-36.31803968141));
#854 = CARTESIAN_POINT('',(-3.891929561642,-36.04717137325));
#855 = CARTESIAN_POINT('',(-3.929903963054,-35.76627498673));
#856 = CARTESIAN_POINT('',(-4.029975040027,-34.98880081023));
#857 = CARTESIAN_POINT('',(-4.090882361219,-34.47571620252));
#858 = CARTESIAN_POINT('',(-4.150122235632,-33.94048158762));
#859 = CARTESIAN_POINT('',(-4.20780796203,-33.38620583771));
#860 = CARTESIAN_POINT('',(-4.264040910122,-32.81556154054));
#861 = CARTESIAN_POINT('',(-4.318922084809,-32.23075836198));
#862 = CARTESIAN_POINT('',(-4.372557524492,-31.63347799395));
#863 = CARTESIAN_POINT('',(-4.480349835327,-30.38399171383));
#864 = CARTESIAN_POINT('',(-4.534353500799,-29.73091223718));
#865 = CARTESIAN_POINT('',(-4.587202109808,-29.06706936481));
#866 = CARTESIAN_POINT('',(-4.638991122894,-28.393788842));
#867 = CARTESIAN_POINT('',(-4.689802380062,-27.71221679796));
#868 = CARTESIAN_POINT('',(-4.739710848613,-27.02330918358));
#869 = CARTESIAN_POINT('',(-4.788787898088,-26.3278147623));
#870 = CARTESIAN_POINT('',(-4.883862658276,-24.94735095514));
#871 = CARTESIAN_POINT('',(-4.929900119184,-24.26289071499));
#872 = CARTESIAN_POINT('',(-4.975278161814,-23.57342454748));
#873 = CARTESIAN_POINT('',(-5.020047728357,-22.8794546499));
#874 = CARTESIAN_POINT('',(-5.06425360761,-22.18142948986));
#875 = CARTESIAN_POINT('',(-5.107936832442,-21.47973838468));
#876 = CARTESIAN_POINT('',(-5.151136263905,-20.77470593204));
#877 = CARTESIAN_POINT('',(-5.265156860949,-18.88618257788));
#878 = CARTESIAN_POINT('',(-5.335171527056,-17.6974100347));
#879 = CARTESIAN_POINT('',(-5.404109420597,-16.50142623687));
#880 = CARTESIAN_POINT('',(-5.472108766591,-15.29931769897));
#881 = CARTESIAN_POINT('',(-5.539288219813,-14.09205116849));
#882 = CARTESIAN_POINT('',(-5.605755521593,-12.88044622048));
#883 = CARTESIAN_POINT('',(-5.671612034965,-11.66515365592));
#884 = CARTESIAN_POINT('',(-5.800470661512,-9.262304727646));
#885 = CARTESIAN_POINT('',(-5.863493328493,-8.07507084686));
#886 = CARTESIAN_POINT('',(-5.926115154349,-6.885414746023));
#887 = CARTESIAN_POINT('',(-5.988414980325,-5.693824998923));
#888 = CARTESIAN_POINT('',(-6.05046570636,-4.500772924196));
#889 = CARTESIAN_POINT('',(-6.112337417222,-3.306700355086));
#890 = CARTESIAN_POINT('',(-6.174099908707,-2.112008824961));
#891 = CARTESIAN_POINT('',(-6.238784922932,-0.859740103163));
#892 = CARTESIAN_POINT('',(-6.241745140847,-0.802429505414));
#893 = CARTESIAN_POINT('',(-6.244705275255,-0.745118419743));
#894 = CARTESIAN_POINT('',(-6.247665333754,-0.687806890564));
#895 = CARTESIAN_POINT('',(-6.250625323939,-0.630494962271));
#896 = CARTESIAN_POINT('',(-6.253585253405,-0.573182679242));
#897 = CARTESIAN_POINT('',(-6.256545129743,-0.515870085839));
#898 = CARTESIAN_POINT('',(-6.262465112258,-0.401238152975));
#899 = CARTESIAN_POINT('',(-6.265425238363,-0.343918929942));
#900 = CARTESIAN_POINT('',(-6.268385234157,-0.286598945914));
#901 = CARTESIAN_POINT('',(-6.271345362834,-0.229279737539));
#902 = CARTESIAN_POINT('',(-6.274305381244,-0.171959885423));
#903 = CARTESIAN_POINT('',(-6.27726523154,-0.11463905182));
#904 = CARTESIAN_POINT('',(-6.280225429141,-5.732024559632E-02));
#905 = CARTESIAN_POINT('',(-6.283185277377,5.999999999062E-07));
#906 = ( GEOMETRIC_REPRESENTATION_CONTEXT(2) 
PARAMETRIC_REPRESENTATION_CONTEXT() REPRESENTATION_CONTEXT('2D SPACE',''
  ) );
#907 = ADVANCED_FACE('',(#908),#175,.F.);
#908 = FACE_BOUND('',#909,.T.);
#909 = EDGE_LOOP('',(#910,#911,#932));
#910 = ORIENTED_EDGE('',*,*,#680,.T.);
#911 = ORIENTED_EDGE('',*,*,#912,.F.);
#912 = EDGE_CURVE('',#54,#54,#913,.T.);
#913 = SURFACE_CURVE('',#914,(#919,#926),.PCURVE_S1.);
#914 = CIRCLE('',#915,15.);
#915 = AXIS2_PLACEMENT_3D('',#916,#917,#918);
#916 = CARTESIAN_POINT('',(25.,0.,0.));
#917 = DIRECTION('',(0.,0.,1.));
#918 = DIRECTION('',(1.,0.,0.));
#919 = PCURVE('',#175,#920);
#920 = DEFINITIONAL_REPRESENTATION('',(#921),#925);
#921 = LINE('',#922,#923);
#922 = CARTESIAN_POINT('',(-0.,0.));
#923 = VECTOR('',#924,1.);
#924 = DIRECTION('',(-1.,0.));
#925 = ( GEOMETRIC_REPRESENTATION_CONTEXT(2) 
PARAMETRIC_REPRESENTATION_CONTEXT() REPRESENTATION_CONTEXT('2D SPACE',''
  ) );
#926 = PCURVE('',#362,#927);
#927 = DEFINITIONAL_REPRESENTATION('',(#928),#931);
#928 = B_SPLINE_CURVE_WITH_KNOTS('',1,(#929,#930),.UNSPECIFIED.,.F.,.F.,
  (2,2),(0.,6.28318530718),.PIECEWISE_BEZIER_KNOTS.);
#929 = CARTESIAN_POINT('',(0.,0.));
#930 = CARTESIAN_POINT('',(6.28318530718,0.));
#931 = ( GEOMETRIC_REPRESENTATION_CONTEXT(2) 
PARAMETRIC_REPRESENTATION_CONTEXT() REPRESENTATION_CONTEXT('2D SPACE',''
  ) );
#932 = ORIENTED_EDGE('',*,*,#53,.T.);
#933 = ADVANCED_FACE('',(#934),#362,.F.);
#934 = FACE_BOUND('',#935,.F.);
#935 = EDGE_LOOP('',(#936,#937,#938));
#936 = ORIENTED_EDGE('',*,*,#452,.T.);
#937 = ORIENTED_EDGE('',*,*,#912,.F.);
#938 = ORIENTED_EDGE('',*,*,#240,.T.);
#939 = ( GEOMETRIC_REPRESENTATION_CONTEXT(3) 
GLOBAL_UNCERTAINTY_ASSIGNED_CONTEXT((#943)) GLOBAL_UNIT_ASSIGNED_CONTEXT
((#940,#941,#942)) REPRESENTATION_CONTEXT('Context #1',
  '3D Context with UNIT and UNCERTAINTY') );
#940 = ( LENGTH_UNIT() NAMED_UNIT(*) SI_UNIT(.MILLI.,.METRE.) );
#941 = ( NAMED_UNIT(*) PLANE_ANGLE_UNIT() SI_UNIT($,.RADIAN.) );
#942 = ( NAMED_UNIT(*) SI_UNIT($,.STERADIAN.) SOLID_ANGLE_UNIT() );
#943 = UNCERTAINTY_MEASURE_WITH_UNIT(LENGTH_MEASURE(1.E-06),#940,
  'distance_accuracy_value','confusion accuracy');
#944 = PRODUCT_RELATED_PRODUCT_CATEGORY('part',$,(#7));
ENDSEC;
END-ISO-10303-21;
