ISO-10303-21;
HEADER;
FILE_DESCRIPTION(('Open CASCADE Model'),'2;1');
FILE_NAME('Open CASCADE Shape Model','2026-08-07T02:34:17',('Author'),(
    'Open CASCADE'),'Open CASCADE STEP processor 7.7','Open CASCADE 7.7'
  ,'Unknown');
FILE_SCHEMA(('AUTOMOTIVE_DESIGN { 1 0 10303 214 1 1 1 1 }'));
ENDSEC;
DATA;
#1 = APPLICATION_PROTOCOL_DEFINITION('international standard',
  'automotive_design',2000,#2);
#2 = APPLICATION_CONTEXT(
  'core data for automotive mechanical design processes');
#3 = SHAPE_DEFINITION_REPRESENTATION(#4,#10);
#4 = PRODUCT_DEFINITION_SHAPE('','',#5);
#5 = PRODUCT_DEFINITION('design','',#6,#9);
#6 = PRODUCT_DEFINITION_FORMATION('','',#7);
#7 = PRODUCT('Open CASCADE STEP translator 7.7 28',
  'Open CASCADE STEP translator 7.7 28','',(#8));
#8 = PRODUCT_CONTEXT('',#2,'mechanical');
#9 = PRODUCT_DEFINITION_CONTEXT('part definition',#2,'design');
#10 = ADVANCED_BREP_SHAPE_REPRESENTATION('',(#11,#15),#997);
#11 = AXIS2_PLACEMENT_3D('',#12,#13,#14);
#12 = CARTESIAN_POINT('',(0.,0.,0.));
#13 = DIRECTION('',(0.,0.,1.));
#14 = DIRECTION('',(1.,0.,-0.));
#15 = MANIFOLD_SOLID_BREP('',#16);
#16 = CLOSED_SHELL('',(#17,#230,#339,#443,#482,#538,#577,#612,#782,#817,
    #893,#969));
#17 = ADVANCED_FACE('',(#18),#33,.T.);
#18 = FACE_BOUND('',#19,.F.);
#19 = EDGE_LOOP('',(#20,#68,#91,#118,#119,#160,#196));
#20 = ORIENTED_EDGE('',*,*,#21,.T.);
#21 = EDGE_CURVE('',#22,#24,#26,.T.);
#22 = VERTEX_POINT('',#23);
#23 = CARTESIAN_POINT('',(25.,0.,25.));
#24 = VERTEX_POINT('',#25);
#25 = CARTESIAN_POINT('',(0.,25.,0.));
#26 = SURFACE_CURVE('',#27,(#32,#50),.PCURVE_S1.);
#27 = ELLIPSE('',#28,35.355339059327,25.);
#28 = AXIS2_PLACEMENT_3D('',#29,#30,#31);
#29 = CARTESIAN_POINT('',(0.,0.,0.));
#30 = DIRECTION('',(-0.707106781187,0.,0.707106781187));
#31 = DIRECTION('',(-0.707106781187,0.,-0.707106781187));
#32 = PCURVE('',#33,#38);
#33 = CYLINDRICAL_SURFACE('',#34,25.);
#34 = AXIS2_PLACEMENT_3D('',#35,#36,#37);
#35 = CARTESIAN_POINT('',(0.,0.,0.));
#36 = DIRECTION('',(-1.,-0.,-0.));
#37 = DIRECTION('',(0.,1.,0.));
#38 = DEFINITIONAL_REPRESENTATION('',(#39),#49);
#39 = B_SPLINE_CURVE_WITH_KNOTS('',8,(#40,#41,#42,#43,#44,#45,#46,#47,
    #48),.UNSPECIFIED.,.F.,.F.,(9,9),(3.14159265359,4.712388980385),
  .PIECEWISE_BEZIER_KNOTS.);
#40 = CARTESIAN_POINT('',(-1.570796326795,-25.));
#41 = CARTESIAN_POINT('',(-1.374446785946,-25.));
#42 = CARTESIAN_POINT('',(-1.178097245096,-23.89848060035));
#43 = CARTESIAN_POINT('',(-0.981747704244,-21.69545115839));
#44 = CARTESIAN_POINT('',(-0.7853981634,-18.48146876436));
#45 = CARTESIAN_POINT('',(-0.589048622546,-14.43783153022));
#46 = CARTESIAN_POINT('',(-0.392699081699,-9.817478207968));
#47 = CARTESIAN_POINT('',(-0.196349540849,-4.908738521234));
#48 = CARTESIAN_POINT('',(-1.836970198721E-16,-4.592425496803E-15));
#49 = ( GEOMETRIC_REPRESENTATION_CONTEXT(2) 
PARAMETRIC_REPRESENTATION_CONTEXT() REPRESENTATION_CONTEXT('2D SPACE',''
  ) );
#50 = PCURVE('',#51,#56);
#51 = CYLINDRICAL_SURFACE('',#52,25.);
#52 = AXIS2_PLACEMENT_3D('',#53,#54,#55);
#53 = CARTESIAN_POINT('',(0.,0.,0.));
#54 = DIRECTION('',(-0.,-0.,-1.));
#55 = DIRECTION('',(1.,0.,0.));
#56 = DEFINITIONAL_REPRESENTATION('',(#57),#67);
#57 = B_SPLINE_CURVE_WITH_KNOTS('',8,(#58,#59,#60,#61,#62,#63,#64,#65,
    #66),.UNSPECIFIED.,.F.,.F.,(9,9),(3.14159265359,4.712388980385),
  .PIECEWISE_BEZIER_KNOTS.);
#58 = CARTESIAN_POINT('',(8.881784197001E-16,-25.));
#59 = CARTESIAN_POINT('',(-0.196349540849,-25.));
#60 = CARTESIAN_POINT('',(-0.392699081699,-23.89848060035));
#61 = CARTESIAN_POINT('',(-0.589048622545,-21.69545115839));
#62 = CARTESIAN_POINT('',(-0.7853981634,-18.48146876436));
#63 = CARTESIAN_POINT('',(-0.981747704245,-14.43783153022));
#64 = CARTESIAN_POINT('',(-1.178097245097,-9.817478207968));
#65 = CARTESIAN_POINT('',(-1.374446785946,-4.908738521234));
#66 = CARTESIAN_POINT('',(-1.570796326795,-4.592425496803E-15));
#67 = ( GEOMETRIC_REPRESENTATION_CONTEXT(2) 
PARAMETRIC_REPRESENTATION_CONTEXT() REPRESENTATION_CONTEXT('2D SPACE',''
  ) );
#68 = ORIENTED_EDGE('',*,*,#69,.T.);
#69 = EDGE_CURVE('',#24,#70,#72,.T.);
#70 = VERTEX_POINT('',#71);
#71 = CARTESIAN_POINT('',(60.,25.,0.));
#72 = SEAM_CURVE('',#73,(#77,#84),.PCURVE_S1.);
#73 = LINE('',#74,#75);
#74 = CARTESIAN_POINT('',(0.,25.,0.));
#75 = VECTOR('',#76,1.);
#76 = DIRECTION('',(1.,0.,0.));
#77 = PCURVE('',#33,#78);
#78 = DEFINITIONAL_REPRESENTATION('',(#79),#83);
#79 = LINE('',#80,#81);
#80 = CARTESIAN_POINT('',(-6.28318530718,0.));
#81 = VECTOR('',#82,1.);
#82 = DIRECTION('',(-0.,-1.));
#83 = ( GEOMETRIC_REPRESENTATION_CONTEXT(2) 
PARAMETRIC_REPRESENTATION_CONTEXT() REPRESENTATION_CONTEXT('2D SPACE',''
  ) );
#84 = PCURVE('',#33,#85);
#85 = DEFINITIONAL_REPRESENTATION('',(#86),#90);
#86 = LINE('',#87,#88);
#87 = CARTESIAN_POINT('',(-0.,0.));
#88 = VECTOR('',#89,1.);
#89 = DIRECTION('',(-0.,-1.));
#90 = ( GEOMETRIC_REPRESENTATION_CONTEXT(2) 
PARAMETRIC_REPRESENTATION_CONTEXT() REPRESENTATION_CONTEXT('2D SPACE',''
  ) );
#91 = ORIENTED_EDGE('',*,*,#92,.T.);
#92 = EDGE_CURVE('',#70,#70,#93,.T.);
#93 = SURFACE_CURVE('',#94,(#99,#106),.PCURVE_S1.);
#94 = CIRCLE('',#95,25.);
#95 = AXIS2_PLACEMENT_3D('',#96,#97,#98);
#96 = CARTESIAN_POINT('',(60.,0.,0.));
#97 = DIRECTION('',(1.,0.,0.));
#98 = DIRECTION('',(0.,1.,0.));
#99 = PCURVE('',#33,#100);
#100 = DEFINITIONAL_REPRESENTATION('',(#101),#105);
#101 = LINE('',#102,#103);
#102 = CARTESIAN_POINT('',(-0.,-60.));
#103 = VECTOR('',#104,1.);
#104 = DIRECTION('',(-1.,0.));
#105 = ( GEOMETRIC_REPRESENTATION_CONTEXT(2) 
PARAMETRIC_REPRESENTATION_CONTEXT() REPRESENTATION_CONTEXT('2D SPACE',''
  ) );
#106 = PCURVE('',#107,#112);
#107 = PLANE('',#108);
#108 = AXIS2_PLACEMENT_3D('',#109,#110,#111);
#109 = CARTESIAN_POINT('',(60.,-8.751616848252E-16,1.604946055186E-15));
#110 = DIRECTION('',(1.,0.,0.));
#111 = DIRECTION('',(-0.,0.,1.));
#112 = DEFINITIONAL_REPRESENTATION('',(#113),#117);
#113 = CIRCLE('',#114,25.);
#114 = AXIS2_PLACEMENT_2D('',#115,#116);
#115 = CARTESIAN_POINT('',(-1.604946055186E-15,-8.751616848252E-16));
#116 = DIRECTION('',(0.,-1.));
#117 = ( GEOMETRIC_REPRESENTATION_CONTEXT(2) 
PARAMETRIC_REPRESENTATION_CONTEXT() REPRESENTATION_CONTEXT('2D SPACE',''
  ) );
#118 = ORIENTED_EDGE('',*,*,#69,.F.);
#119 = ORIENTED_EDGE('',*,*,#120,.T.);
#120 = EDGE_CURVE('',#24,#121,#123,.T.);
#121 = VERTEX_POINT('',#122);
#122 = CARTESIAN_POINT('',(25.,0.,-25.));
#123 = SURFACE_CURVE('',#124,(#129,#142),.PCURVE_S1.);
#124 = ELLIPSE('',#125,35.355339059327,25.);
#125 = AXIS2_PLACEMENT_3D('',#126,#127,#128);
#126 = CARTESIAN_POINT('',(0.,0.,0.));
#127 = DIRECTION('',(-0.707106781187,0.,-0.707106781187));
#128 = DIRECTION('',(-0.707106781187,0.,0.707106781187));
#129 = PCURVE('',#33,#130);
#130 = DEFINITIONAL_REPRESENTATION('',(#131),#141);
#131 = B_SPLINE_CURVE_WITH_KNOTS('',8,(#132,#133,#134,#135,#136,#137,
    #138,#139,#140),.UNSPECIFIED.,.F.,.F.,(9,9),(1.570796303115,
    3.14159265359),.PIECEWISE_BEZIER_KNOTS.);
#132 = CARTESIAN_POINT('',(-6.28318533086,5.920019323411E-07));
#133 = CARTESIAN_POINT('',(-6.08683578705,-4.908738003232));
#134 = CARTESIAN_POINT('',(-5.890486243241,-9.817477790013));
#135 = CARTESIAN_POINT('',(-5.694136699435,-14.43783122553));
#136 = CARTESIAN_POINT('',(-5.49778715562,-18.48146857049));
#137 = CARTESIAN_POINT('',(-5.301437611816,-21.69545105889));
#138 = CARTESIAN_POINT('',(-5.105088068003,-23.8984805671));
#139 = CARTESIAN_POINT('',(-4.908738524194,-25.));
#140 = CARTESIAN_POINT('',(-4.712388980385,-25.));
#141 = ( GEOMETRIC_REPRESENTATION_CONTEXT(2) 
PARAMETRIC_REPRESENTATION_CONTEXT() REPRESENTATION_CONTEXT('2D SPACE',''
  ) );
#142 = PCURVE('',#143,#148);
#143 = CYLINDRICAL_SURFACE('',#144,25.);
#144 = AXIS2_PLACEMENT_3D('',#145,#146,#147);
#145 = CARTESIAN_POINT('',(0.,0.,0.));
#146 = DIRECTION('',(0.,0.,1.));
#147 = DIRECTION('',(1.,0.,0.));
#148 = DEFINITIONAL_REPRESENTATION('',(#149),#159);
#149 = B_SPLINE_CURVE_WITH_KNOTS('',8,(#150,#151,#152,#153,#154,#155,
    #156,#157,#158),.UNSPECIFIED.,.F.,.F.,(9,9),(1.570796303115,
    3.14159265359),.PIECEWISE_BEZIER_KNOTS.);
#150 = CARTESIAN_POINT('',(1.570796350475,5.920019323411E-07));
#151 = CARTESIAN_POINT('',(1.374446806666,-4.908738003232));
#152 = CARTESIAN_POINT('',(1.178097262856,-9.817477790013));
#153 = CARTESIAN_POINT('',(0.981747719046,-14.43783122553));
#154 = CARTESIAN_POINT('',(0.785398175237,-18.48146857049));
#155 = CARTESIAN_POINT('',(0.589048631427,-21.69545105889));
#156 = CARTESIAN_POINT('',(0.392699087618,-23.8984805671));
#157 = CARTESIAN_POINT('',(0.196349543809,-25.));
#158 = CARTESIAN_POINT('',(1.224646799147E-16,-25.));
#159 = ( GEOMETRIC_REPRESENTATION_CONTEXT(2) 
PARAMETRIC_REPRESENTATION_CONTEXT() REPRESENTATION_CONTEXT('2D SPACE',''
  ) );
#160 = ORIENTED_EDGE('',*,*,#161,.T.);
#161 = EDGE_CURVE('',#121,#162,#164,.T.);
#162 = VERTEX_POINT('',#163);
#163 = CARTESIAN_POINT('',(-1.339844299465E-14,-25.,-3.370872140117E-13)
  );
#164 = SURFACE_CURVE('',#165,(#170,#183),.PCURVE_S1.);
#165 = ELLIPSE('',#166,35.355339059327,25.);
#166 = AXIS2_PLACEMENT_3D('',#167,#168,#169);
#167 = CARTESIAN_POINT('',(0.,0.,0.));
#168 = DIRECTION('',(-0.707106781187,0.,-0.707106781187));
#169 = DIRECTION('',(-0.707106781187,0.,0.707106781187));
#170 = PCURVE('',#33,#171);
#171 = DEFINITIONAL_REPRESENTATION('',(#172),#182);
#172 = B_SPLINE_CURVE_WITH_KNOTS('',8,(#173,#174,#175,#176,#177,#178,
    #179,#180,#181),.UNSPECIFIED.,.F.,.F.,(9,9),(3.14159265359,
    4.712388980705),.PIECEWISE_BEZIER_KNOTS.);
#173 = CARTESIAN_POINT('',(-4.712388980385,-25.));
#174 = CARTESIAN_POINT('',(-4.516039439495,-25.));
#175 = CARTESIAN_POINT('',(-4.319689898608,-23.89848059988));
#176 = CARTESIAN_POINT('',(-4.12334035771,-21.69545115707));
#177 = CARTESIAN_POINT('',(-3.926990816828,-18.48146876186));
#178 = CARTESIAN_POINT('',(-3.730641275921,-14.43783152609));
#179 = CARTESIAN_POINT('',(-3.534291735051,-9.817478202309));
#180 = CARTESIAN_POINT('',(-3.337942194159,-4.908738514236));
#181 = CARTESIAN_POINT('',(-3.14159265327,7.998064281435E-09));
#182 = ( GEOMETRIC_REPRESENTATION_CONTEXT(2) 
PARAMETRIC_REPRESENTATION_CONTEXT() REPRESENTATION_CONTEXT('2D SPACE',''
  ) );
#183 = PCURVE('',#143,#184);
#184 = DEFINITIONAL_REPRESENTATION('',(#185),#195);
#185 = B_SPLINE_CURVE_WITH_KNOTS('',8,(#186,#187,#188,#189,#190,#191,
    #192,#193,#194),.UNSPECIFIED.,.F.,.F.,(9,9),(3.14159265359,
    4.712388980705),.PIECEWISE_BEZIER_KNOTS.);
#186 = CARTESIAN_POINT('',(6.28318530718,-25.));
#187 = CARTESIAN_POINT('',(6.08683576629,-25.));
#188 = CARTESIAN_POINT('',(5.890486225401,-23.89848059988));
#189 = CARTESIAN_POINT('',(5.694136684514,-21.69545115707));
#190 = CARTESIAN_POINT('',(5.497787143622,-18.48146876186));
#191 = CARTESIAN_POINT('',(5.301437602735,-14.43783152609));
#192 = CARTESIAN_POINT('',(5.105088061844,-9.817478202309));
#193 = CARTESIAN_POINT('',(4.908738520954,-4.908738514236));
#194 = CARTESIAN_POINT('',(4.712388980065,7.998064281435E-09));
#195 = ( GEOMETRIC_REPRESENTATION_CONTEXT(2) 
PARAMETRIC_REPRESENTATION_CONTEXT() REPRESENTATION_CONTEXT('2D SPACE',''
  ) );
#196 = ORIENTED_EDGE('',*,*,#197,.T.);
#197 = EDGE_CURVE('',#162,#22,#198,.T.);
#198 = SURFACE_CURVE('',#199,(#204,#217),.PCURVE_S1.);
#199 = ELLIPSE('',#200,35.355339059327,25.);
#200 = AXIS2_PLACEMENT_3D('',#201,#202,#203);
#201 = CARTESIAN_POINT('',(0.,0.,0.));
#202 = DIRECTION('',(-0.707106781187,0.,0.707106781187));
#203 = DIRECTION('',(-0.707106781187,0.,-0.707106781187));
#204 = PCURVE('',#33,#205);
#205 = DEFINITIONAL_REPRESENTATION('',(#206),#216);
#206 = B_SPLINE_CURVE_WITH_KNOTS('',8,(#207,#208,#209,#210,#211,#212,
    #213,#214,#215),.UNSPECIFIED.,.F.,.F.,(9,9),(1.570796303115,
    3.14159265359),.PIECEWISE_BEZIER_KNOTS.);
#207 = CARTESIAN_POINT('',(-3.14159267727,5.9200192679E-07));
#208 = CARTESIAN_POINT('',(-2.94524313346,-4.908738003232));
#209 = CARTESIAN_POINT('',(-2.748893589651,-9.81747779002));
#210 = CARTESIAN_POINT('',(-2.552544045839,-14.43783122553));
#211 = CARTESIAN_POINT('',(-2.356194502028,-18.48146857049));
#212 = CARTESIAN_POINT('',(-2.159844958222,-21.69545105889));
#213 = CARTESIAN_POINT('',(-1.963495414413,-23.8984805671));
#214 = CARTESIAN_POINT('',(-1.767145870604,-25.));
#215 = CARTESIAN_POINT('',(-1.570796326795,-25.));
#216 = ( GEOMETRIC_REPRESENTATION_CONTEXT(2) 
PARAMETRIC_REPRESENTATION_CONTEXT() REPRESENTATION_CONTEXT('2D SPACE',''
  ) );
#217 = PCURVE('',#51,#218);
#218 = DEFINITIONAL_REPRESENTATION('',(#219),#229);
#219 = B_SPLINE_CURVE_WITH_KNOTS('',8,(#220,#221,#222,#223,#224,#225,
    #226,#227,#228),.UNSPECIFIED.,.F.,.F.,(9,9),(1.570796303115,
    3.14159265359),.PIECEWISE_BEZIER_KNOTS.);
#220 = CARTESIAN_POINT('',(-4.712388956705,5.9200192679E-07));
#221 = CARTESIAN_POINT('',(-4.908738500514,-4.908738003232));
#222 = CARTESIAN_POINT('',(-5.105088044321,-9.81747779002));
#223 = CARTESIAN_POINT('',(-5.301437588132,-14.43783122553));
#224 = CARTESIAN_POINT('',(-5.497787131921,-18.48146857049));
#225 = CARTESIAN_POINT('',(-5.694136675753,-21.69545105889));
#226 = CARTESIAN_POINT('',(-5.890486219559,-23.8984805671));
#227 = CARTESIAN_POINT('',(-6.08683576337,-25.));
#228 = CARTESIAN_POINT('',(-6.28318530718,-25.));
#229 = ( GEOMETRIC_REPRESENTATION_CONTEXT(2) 
PARAMETRIC_REPRESENTATION_CONTEXT() REPRESENTATION_CONTEXT('2D SPACE',''
  ) );
#230 = ADVANCED_FACE('',(#231),#51,.T.);
#231 = FACE_BOUND('',#232,.F.);
#232 = EDGE_LOOP('',(#233,#234,#257,#284,#285,#286));
#233 = ORIENTED_EDGE('',*,*,#21,.F.);
#234 = ORIENTED_EDGE('',*,*,#235,.T.);
#235 = EDGE_CURVE('',#22,#236,#238,.T.);
#236 = VERTEX_POINT('',#237);
#237 = CARTESIAN_POINT('',(25.,0.,40.));
#238 = SEAM_CURVE('',#239,(#243,#250),.PCURVE_S1.);
#239 = LINE('',#240,#241);
#240 = CARTESIAN_POINT('',(25.,0.,0.));
#241 = VECTOR('',#242,1.);
#242 = DIRECTION('',(0.,0.,1.));
#243 = PCURVE('',#51,#244);
#244 = DEFINITIONAL_REPRESENTATION('',(#245),#249);
#245 = LINE('',#246,#247);
#246 = CARTESIAN_POINT('',(-6.28318530718,0.));
#247 = VECTOR('',#248,1.);
#248 = DIRECTION('',(-0.,-1.));
#249 = ( GEOMETRIC_REPRESENTATION_CONTEXT(2) 
PARAMETRIC_REPRESENTATION_CONTEXT() REPRESENTATION_CONTEXT('2D SPACE',''
  ) );
#250 = PCURVE('',#51,#251);
#251 = DEFINITIONAL_REPRESENTATION('',(#252),#256);
#252 = LINE('',#253,#254);
#253 = CARTESIAN_POINT('',(-0.,0.));
#254 = VECTOR('',#255,1.);
#255 = DIRECTION('',(-0.,-1.));
#256 = ( GEOMETRIC_REPRESENTATION_CONTEXT(2) 
PARAMETRIC_REPRESENTATION_CONTEXT() REPRESENTATION_CONTEXT('2D SPACE',''
  ) );
#257 = ORIENTED_EDGE('',*,*,#258,.T.);
#258 = EDGE_CURVE('',#236,#236,#259,.T.);
#259 = SURFACE_CURVE('',#260,(#265,#272),.PCURVE_S1.);
#260 = CIRCLE('',#261,25.);
#261 = AXIS2_PLACEMENT_3D('',#262,#263,#264);
#262 = CARTESIAN_POINT('',(0.,0.,40.));
#263 = DIRECTION('',(0.,0.,1.));
#264 = DIRECTION('',(1.,0.,0.));
#265 = PCURVE('',#51,#266);
#266 = DEFINITIONAL_REPRESENTATION('',(#267),#271);
#267 = LINE('',#268,#269);
#268 = CARTESIAN_POINT('',(-0.,-40.));
#269 = VECTOR('',#270,1.);
#270 = DIRECTION('',(-1.,0.));
#271 = ( GEOMETRIC_REPRESENTATION_CONTEXT(2) 
PARAMETRIC_REPRESENTATION_CONTEXT() REPRESENTATION_CONTEXT('2D SPACE',''
  ) );
#272 = PCURVE('',#273,#278);
#273 = PLANE('',#274);
#274 = AXIS2_PLACEMENT_3D('',#275,#276,#277);
#275 = CARTESIAN_POINT('',(-8.751616848252E-16,1.604946055186E-15,40.));
#276 = DIRECTION('',(0.,0.,1.));
#277 = DIRECTION('',(1.,0.,-0.));
#278 = DEFINITIONAL_REPRESENTATION('',(#279),#283);
#279 = CIRCLE('',#280,25.);
#280 = AXIS2_PLACEMENT_2D('',#281,#282);
#281 = CARTESIAN_POINT('',(8.751616848252E-16,-1.604946055186E-15));
#282 = DIRECTION('',(1.,0.));
#283 = ( GEOMETRIC_REPRESENTATION_CONTEXT(2) 
PARAMETRIC_REPRESENTATION_CONTEXT() REPRESENTATION_CONTEXT('2D SPACE',''
  ) );
#284 = ORIENTED_EDGE('',*,*,#235,.F.);
#285 = ORIENTED_EDGE('',*,*,#197,.F.);
#286 = ORIENTED_EDGE('',*,*,#287,.F.);
#287 = EDGE_CURVE('',#24,#162,#288,.T.);
#288 = SURFACE_CURVE('',#289,(#294,#314),.PCURVE_S1.);
#289 = ELLIPSE('',#290,35.355339059327,25.);
#290 = AXIS2_PLACEMENT_3D('',#291,#292,#293);
#291 = CARTESIAN_POINT('',(0.,0.,0.));
#292 = DIRECTION('',(0.707106781187,0.,0.707106781187));
#293 = DIRECTION('',(0.707106781187,0.,-0.707106781187));
#294 = PCURVE('',#51,#295);
#295 = DEFINITIONAL_REPRESENTATION('',(#296),#313);
#296 = B_SPLINE_CURVE_WITH_KNOTS('',8,(#297,#298,#299,#300,#301,#302,
    #303,#304,#305,#306,#307,#308,#309,#310,#311,#312),.UNSPECIFIED.,.F.
  ,.F.,(9,7,9),(1.570796303115,3.14159265359,4.712389004065),
  .UNSPECIFIED.);
#297 = CARTESIAN_POINT('',(-1.570796303115,5.920019378922E-07));
#298 = CARTESIAN_POINT('',(-1.767145846924,-4.908738003232));
#299 = CARTESIAN_POINT('',(-1.963495390733,-9.817477790022));
#300 = CARTESIAN_POINT('',(-2.159844934544,-14.43783122544));
#301 = CARTESIAN_POINT('',(-2.356194478334,-18.48146857056));
#302 = CARTESIAN_POINT('',(-2.552544022163,-21.69545105884));
#303 = CARTESIAN_POINT('',(-2.74889356597,-23.89848056712));
#304 = CARTESIAN_POINT('',(-2.94524310978,-25.));
#305 = CARTESIAN_POINT('',(-3.337942197399,-25.));
#306 = CARTESIAN_POINT('',(-3.534291741207,-23.89848056712));
#307 = CARTESIAN_POINT('',(-3.730641285016,-21.69545105883));
#308 = CARTESIAN_POINT('',(-3.92699082883,-18.48146857053));
#309 = CARTESIAN_POINT('',(-4.123340372633,-14.43783122544));
#310 = CARTESIAN_POINT('',(-4.319689916446,-9.817477790026));
#311 = CARTESIAN_POINT('',(-4.516039460255,-4.908738003232));
#312 = CARTESIAN_POINT('',(-4.712389004065,5.920019095646E-07));
#313 = ( GEOMETRIC_REPRESENTATION_CONTEXT(2) 
PARAMETRIC_REPRESENTATION_CONTEXT() REPRESENTATION_CONTEXT('2D SPACE',''
  ) );
#314 = PCURVE('',#315,#320);
#315 = CYLINDRICAL_SURFACE('',#316,25.);
#316 = AXIS2_PLACEMENT_3D('',#317,#318,#319);
#317 = CARTESIAN_POINT('',(0.,0.,0.));
#318 = DIRECTION('',(1.,0.,0.));
#319 = DIRECTION('',(0.,1.,0.));
#320 = DEFINITIONAL_REPRESENTATION('',(#321),#338);
#321 = B_SPLINE_CURVE_WITH_KNOTS('',8,(#322,#323,#324,#325,#326,#327,
    #328,#329,#330,#331,#332,#333,#334,#335,#336,#337),.UNSPECIFIED.,.F.
  ,.F.,(9,7,9),(1.570796303115,3.14159265359,4.712389004065),
  .UNSPECIFIED.);
#322 = CARTESIAN_POINT('',(-2.368007745446E-08,5.920019378922E-07));
#323 = CARTESIAN_POINT('',(0.196349520129,-4.908738003232));
#324 = CARTESIAN_POINT('',(0.392699063939,-9.817477790022));
#325 = CARTESIAN_POINT('',(0.589048607745,-14.43783122544));
#326 = CARTESIAN_POINT('',(0.785398151557,-18.48146857056));
#327 = CARTESIAN_POINT('',(0.981747695364,-21.69545105884));
#328 = CARTESIAN_POINT('',(1.178097239177,-23.89848056712));
#329 = CARTESIAN_POINT('',(1.374446782986,-25.));
#330 = CARTESIAN_POINT('',(1.767145870604,-25.));
#331 = CARTESIAN_POINT('',(1.963495414414,-23.89848056712));
#332 = CARTESIAN_POINT('',(2.159844958215,-21.69545105883));
#333 = CARTESIAN_POINT('',(2.356194502037,-18.48146857053));
#334 = CARTESIAN_POINT('',(2.552544045839,-14.43783122544));
#335 = CARTESIAN_POINT('',(2.748893589651,-9.817477790026));
#336 = CARTESIAN_POINT('',(2.94524313346,-4.908738003232));
#337 = CARTESIAN_POINT('',(3.14159267727,5.920019095646E-07));
#338 = ( GEOMETRIC_REPRESENTATION_CONTEXT(2) 
PARAMETRIC_REPRESENTATION_CONTEXT() REPRESENTATION_CONTEXT('2D SPACE',''
  ) );
#339 = ADVANCED_FACE('',(#340),#143,.T.);
#340 = FACE_BOUND('',#341,.T.);
#341 = EDGE_LOOP('',(#342,#343,#366,#393,#394,#395));
#342 = ORIENTED_EDGE('',*,*,#120,.T.);
#343 = ORIENTED_EDGE('',*,*,#344,.T.);
#344 = EDGE_CURVE('',#121,#345,#347,.T.);
#345 = VERTEX_POINT('',#346);
#346 = CARTESIAN_POINT('',(25.,0.,-40.));
#347 = SEAM_CURVE('',#348,(#352,#359),.PCURVE_S1.);
#348 = LINE('',#349,#350);
#349 = CARTESIAN_POINT('',(25.,0.,0.));
#350 = VECTOR('',#351,1.);
#351 = DIRECTION('',(-0.,-0.,-1.));
#352 = PCURVE('',#143,#353);
#353 = DEFINITIONAL_REPRESENTATION('',(#354),#358);
#354 = LINE('',#355,#356);
#355 = CARTESIAN_POINT('',(6.28318530718,0.));
#356 = VECTOR('',#357,1.);
#357 = DIRECTION('',(0.,-1.));
#358 = ( GEOMETRIC_REPRESENTATION_CONTEXT(2) 
PARAMETRIC_REPRESENTATION_CONTEXT() REPRESENTATION_CONTEXT('2D SPACE',''
  ) );
#359 = PCURVE('',#143,#360);
#360 = DEFINITIONAL_REPRESENTATION('',(#361),#365);
#361 = LINE('',#362,#363);
#362 = CARTESIAN_POINT('',(0.,0.));
#363 = VECTOR('',#364,1.);
#364 = DIRECTION('',(0.,-1.));
#365 = ( GEOMETRIC_REPRESENTATION_CONTEXT(2) 
PARAMETRIC_REPRESENTATION_CONTEXT() REPRESENTATION_CONTEXT('2D SPACE',''
  ) );
#366 = ORIENTED_EDGE('',*,*,#367,.T.);
#367 = EDGE_CURVE('',#345,#345,#368,.T.);
#368 = SURFACE_CURVE('',#369,(#374,#381),.PCURVE_S1.);
#369 = CIRCLE('',#370,25.);
#370 = AXIS2_PLACEMENT_3D('',#371,#372,#373);
#371 = CARTESIAN_POINT('',(0.,0.,-40.));
#372 = DIRECTION('',(0.,0.,1.));
#373 = DIRECTION('',(1.,0.,0.));
#374 = PCURVE('',#143,#375);
#375 = DEFINITIONAL_REPRESENTATION('',(#376),#380);
#376 = LINE('',#377,#378);
#377 = CARTESIAN_POINT('',(0.,-40.));
#378 = VECTOR('',#379,1.);
#379 = DIRECTION('',(1.,0.));
#380 = ( GEOMETRIC_REPRESENTATION_CONTEXT(2) 
PARAMETRIC_REPRESENTATION_CONTEXT() REPRESENTATION_CONTEXT('2D SPACE',''
  ) );
#381 = PCURVE('',#382,#387);
#382 = PLANE('',#383);
#383 = AXIS2_PLACEMENT_3D('',#384,#385,#386);
#384 = CARTESIAN_POINT('',(-8.751616848252E-16,1.604946055186E-15,-40.)
  );
#385 = DIRECTION('',(0.,0.,1.));
#386 = DIRECTION('',(1.,0.,-0.));
#387 = DEFINITIONAL_REPRESENTATION('',(#388),#392);
#388 = CIRCLE('',#389,25.);
#389 = AXIS2_PLACEMENT_2D('',#390,#391);
#390 = CARTESIAN_POINT('',(8.751616848252E-16,-1.604946055186E-15));
#391 = DIRECTION('',(1.,0.));
#392 = ( GEOMETRIC_REPRESENTATION_CONTEXT(2) 
PARAMETRIC_REPRESENTATION_CONTEXT() REPRESENTATION_CONTEXT('2D SPACE',''
  ) );
#393 = ORIENTED_EDGE('',*,*,#344,.F.);
#394 = ORIENTED_EDGE('',*,*,#161,.T.);
#395 = ORIENTED_EDGE('',*,*,#396,.T.);
#396 = EDGE_CURVE('',#162,#24,#397,.T.);
#397 = SURFACE_CURVE('',#398,(#403,#423),.PCURVE_S1.);
#398 = ELLIPSE('',#399,35.355339059327,25.);
#399 = AXIS2_PLACEMENT_3D('',#400,#401,#402);
#400 = CARTESIAN_POINT('',(0.,0.,0.));
#401 = DIRECTION('',(0.707106781187,0.,-0.707106781187));
#402 = DIRECTION('',(0.707106781187,0.,0.707106781187));
#403 = PCURVE('',#143,#404);
#404 = DEFINITIONAL_REPRESENTATION('',(#405),#422);
#405 = B_SPLINE_CURVE_WITH_KNOTS('',8,(#406,#407,#408,#409,#410,#411,
    #412,#413,#414,#415,#416,#417,#418,#419,#420,#421),.UNSPECIFIED.,.F.
  ,.F.,(9,7,9),(1.570796303115,3.14159264175,4.712388980385),
  .UNSPECIFIED.);
#406 = CARTESIAN_POINT('',(4.712389004065,5.920019323411E-07));
#407 = CARTESIAN_POINT('',(4.516039461735,-4.908737966232));
#408 = CARTESIAN_POINT('',(4.3196899194,-9.817477716015));
#409 = CARTESIAN_POINT('',(4.123340377093,-14.43783112105));
#410 = CARTESIAN_POINT('',(3.926990834716,-18.48146844859));
#411 = CARTESIAN_POINT('',(3.730641292432,-21.69545093776));
#412 = CARTESIAN_POINT('',(3.534291750083,-23.89848046747));
#413 = CARTESIAN_POINT('',(3.337942207759,-24.99999994188));
#414 = CARTESIAN_POINT('',(2.9452431231,-25.00000005812));
#415 = CARTESIAN_POINT('',(2.748893580767,-23.89848069995));
#416 = CARTESIAN_POINT('',(2.552544038451,-21.69545127962));
#417 = CARTESIAN_POINT('',(2.356194496089,-18.48146888621));
#418 = CARTESIAN_POINT('',(2.159844953793,-14.43783163481));
#419 = CARTESIAN_POINT('',(1.963495411449,-9.817478281939));
#420 = CARTESIAN_POINT('',(1.767145869124,-4.908738558234));
#421 = CARTESIAN_POINT('',(1.570796326795,-4.592425496803E-15));
#422 = ( GEOMETRIC_REPRESENTATION_CONTEXT(2) 
PARAMETRIC_REPRESENTATION_CONTEXT() REPRESENTATION_CONTEXT('2D SPACE',''
  ) );
#423 = PCURVE('',#315,#424);
#424 = DEFINITIONAL_REPRESENTATION('',(#425),#442);
#425 = B_SPLINE_CURVE_WITH_KNOTS('',8,(#426,#427,#428,#429,#430,#431,
    #432,#433,#434,#435,#436,#437,#438,#439,#440,#441),.UNSPECIFIED.,.F.
  ,.F.,(9,7,9),(1.570796303115,3.14159264175,4.712388980385),
  .UNSPECIFIED.);
#426 = CARTESIAN_POINT('',(3.14159262991,5.920019323411E-07));
#427 = CARTESIAN_POINT('',(3.337942172239,-4.908737966232));
#428 = CARTESIAN_POINT('',(3.534291714563,-9.817477716015));
#429 = CARTESIAN_POINT('',(3.7306412569,-14.43783112105));
#430 = CARTESIAN_POINT('',(3.92699079922,-18.48146844859));
#431 = CARTESIAN_POINT('',(4.123340341561,-21.69545093776));
#432 = CARTESIAN_POINT('',(4.319689883881,-23.89848046747));
#433 = CARTESIAN_POINT('',(4.516039426215,-24.99999994188));
#434 = CARTESIAN_POINT('',(4.908738510874,-25.00000005812));
#435 = CARTESIAN_POINT('',(5.105088053204,-23.89848069995));
#436 = CARTESIAN_POINT('',(5.301437595521,-21.69545127962));
#437 = CARTESIAN_POINT('',(5.497787137861,-18.48146888621));
#438 = CARTESIAN_POINT('',(5.694136680191,-14.43783163481));
#439 = CARTESIAN_POINT('',(5.89048622252,-9.817478281939));
#440 = CARTESIAN_POINT('',(6.08683576485,-4.908738558234));
#441 = CARTESIAN_POINT('',(6.28318530718,-4.592425496803E-15));
#442 = ( GEOMETRIC_REPRESENTATION_CONTEXT(2) 
PARAMETRIC_REPRESENTATION_CONTEXT() REPRESENTATION_CONTEXT('2D SPACE',''
  ) );
#443 = ADVANCED_FACE('',(#444,#447),#107,.T.);
#444 = FACE_BOUND('',#445,.T.);
#445 = EDGE_LOOP('',(#446));
#446 = ORIENTED_EDGE('',*,*,#92,.T.);
#447 = FACE_BOUND('',#448,.T.);
#448 = EDGE_LOOP('',(#449));
#449 = ORIENTED_EDGE('',*,*,#450,.T.);
#450 = EDGE_CURVE('',#451,#451,#453,.T.);
#451 = VERTEX_POINT('',#452);
#452 = CARTESIAN_POINT('',(60.,20.,0.));
#453 = SURFACE_CURVE('',#454,(#459,#470),.PCURVE_S1.);
#454 = CIRCLE('',#455,20.);
#455 = AXIS2_PLACEMENT_3D('',#456,#457,#458);
#456 = CARTESIAN_POINT('',(60.,0.,0.));
#457 = DIRECTION('',(-1.,0.,0.));
#458 = DIRECTION('',(0.,1.,0.));
#459 = PCURVE('',#107,#460);
#460 = DEFINITIONAL_REPRESENTATION('',(#461),#469);
#461 = ( BOUNDED_CURVE() B_SPLINE_CURVE(2,(#462,#463,#464,#465,#466,#467
,#468),.UNSPECIFIED.,.T.,.F.) B_SPLINE_CURVE_WITH_KNOTS((1,2,2,2,2,1),(
    -2.094395102393,0.,2.094395102393,4.188790204786,6.28318530718,
8.377580409573),.UNSPECIFIED.) CURVE() GEOMETRIC_REPRESENTATION_ITEM() 
RATIONAL_B_SPLINE_CURVE((1.,0.5,1.,0.5,1.,0.5,1.)) REPRESENTATION_ITEM(
  '') );
#462 = CARTESIAN_POINT('',(-1.604946055186E-15,-20.));
#463 = CARTESIAN_POINT('',(-34.64101615137,-20.));
#464 = CARTESIAN_POINT('',(-17.32050807568,10.));
#465 = CARTESIAN_POINT('',(-6.503533251776E-15,40.));
#466 = CARTESIAN_POINT('',(17.320508075689,10.));
#467 = CARTESIAN_POINT('',(34.641016151378,-20.));
#468 = CARTESIAN_POINT('',(-1.604946055186E-15,-20.));
#469 = ( GEOMETRIC_REPRESENTATION_CONTEXT(2) 
PARAMETRIC_REPRESENTATION_CONTEXT() REPRESENTATION_CONTEXT('2D SPACE',''
  ) );
#470 = PCURVE('',#471,#476);
#471 = CYLINDRICAL_SURFACE('',#472,20.);
#472 = AXIS2_PLACEMENT_3D('',#473,#474,#475);
#473 = CARTESIAN_POINT('',(0.,0.,0.));
#474 = DIRECTION('',(-1.,-0.,-0.));
#475 = DIRECTION('',(0.,1.,0.));
#476 = DEFINITIONAL_REPRESENTATION('',(#477),#481);
#477 = LINE('',#478,#479);
#478 = CARTESIAN_POINT('',(-6.28318530718,-60.));
#479 = VECTOR('',#480,1.);
#480 = DIRECTION('',(1.,-0.));
#481 = ( GEOMETRIC_REPRESENTATION_CONTEXT(2) 
PARAMETRIC_REPRESENTATION_CONTEXT() REPRESENTATION_CONTEXT('2D SPACE',''
  ) );
#482 = ADVANCED_FACE('',(#483),#315,.T.);
#483 = FACE_BOUND('',#484,.T.);
#484 = EDGE_LOOP('',(#485,#486,#509,#536,#537));
#485 = ORIENTED_EDGE('',*,*,#287,.F.);
#486 = ORIENTED_EDGE('',*,*,#487,.T.);
#487 = EDGE_CURVE('',#24,#488,#490,.T.);
#488 = VERTEX_POINT('',#489);
#489 = CARTESIAN_POINT('',(-60.,25.,0.));
#490 = SEAM_CURVE('',#491,(#495,#502),.PCURVE_S1.);
#491 = LINE('',#492,#493);
#492 = CARTESIAN_POINT('',(0.,25.,0.));
#493 = VECTOR('',#494,1.);
#494 = DIRECTION('',(-1.,-0.,-0.));
#495 = PCURVE('',#315,#496);
#496 = DEFINITIONAL_REPRESENTATION('',(#497),#501);
#497 = LINE('',#498,#499);
#498 = CARTESIAN_POINT('',(6.28318530718,0.));
#499 = VECTOR('',#500,1.);
#500 = DIRECTION('',(0.,-1.));
#501 = ( GEOMETRIC_REPRESENTATION_CONTEXT(2) 
PARAMETRIC_REPRESENTATION_CONTEXT() REPRESENTATION_CONTEXT('2D SPACE',''
  ) );
#502 = PCURVE('',#315,#503);
#503 = DEFINITIONAL_REPRESENTATION('',(#504),#508);
#504 = LINE('',#505,#506);
#505 = CARTESIAN_POINT('',(0.,0.));
#506 = VECTOR('',#507,1.);
#507 = DIRECTION('',(0.,-1.));
#508 = ( GEOMETRIC_REPRESENTATION_CONTEXT(2) 
PARAMETRIC_REPRESENTATION_CONTEXT() REPRESENTATION_CONTEXT('2D SPACE',''
  ) );
#509 = ORIENTED_EDGE('',*,*,#510,.T.);
#510 = EDGE_CURVE('',#488,#488,#511,.T.);
#511 = SURFACE_CURVE('',#512,(#517,#524),.PCURVE_S1.);
#512 = CIRCLE('',#513,25.);
#513 = AXIS2_PLACEMENT_3D('',#514,#515,#516);
#514 = CARTESIAN_POINT('',(-60.,0.,0.));
#515 = DIRECTION('',(1.,0.,0.));
#516 = DIRECTION('',(0.,1.,0.));
#517 = PCURVE('',#315,#518);
#518 = DEFINITIONAL_REPRESENTATION('',(#519),#523);
#519 = LINE('',#520,#521);
#520 = CARTESIAN_POINT('',(0.,-60.));
#521 = VECTOR('',#522,1.);
#522 = DIRECTION('',(1.,0.));
#523 = ( GEOMETRIC_REPRESENTATION_CONTEXT(2) 
PARAMETRIC_REPRESENTATION_CONTEXT() REPRESENTATION_CONTEXT('2D SPACE',''
  ) );
#524 = PCURVE('',#525,#530);
#525 = PLANE('',#526);
#526 = AXIS2_PLACEMENT_3D('',#527,#528,#529);
#527 = CARTESIAN_POINT('',(-60.,-8.751616848252E-16,1.604946055186E-15)
  );
#528 = DIRECTION('',(1.,0.,0.));
#529 = DIRECTION('',(-0.,0.,1.));
#530 = DEFINITIONAL_REPRESENTATION('',(#531),#535);
#531 = CIRCLE('',#532,25.);
#532 = AXIS2_PLACEMENT_2D('',#533,#534);
#533 = CARTESIAN_POINT('',(-1.604946055186E-15,-8.751616848252E-16));
#534 = DIRECTION('',(0.,-1.));
#535 = ( GEOMETRIC_REPRESENTATION_CONTEXT(2) 
PARAMETRIC_REPRESENTATION_CONTEXT() REPRESENTATION_CONTEXT('2D SPACE',''
  ) );
#536 = ORIENTED_EDGE('',*,*,#487,.F.);
#537 = ORIENTED_EDGE('',*,*,#396,.F.);
#538 = ADVANCED_FACE('',(#539,#542),#273,.T.);
#539 = FACE_BOUND('',#540,.T.);
#540 = EDGE_LOOP('',(#541));
#541 = ORIENTED_EDGE('',*,*,#258,.T.);
#542 = FACE_BOUND('',#543,.T.);
#543 = EDGE_LOOP('',(#544));
#544 = ORIENTED_EDGE('',*,*,#545,.T.);
#545 = EDGE_CURVE('',#546,#546,#548,.T.);
#546 = VERTEX_POINT('',#547);
#547 = CARTESIAN_POINT('',(20.,0.,40.));
#548 = SURFACE_CURVE('',#549,(#554,#565),.PCURVE_S1.);
#549 = CIRCLE('',#550,20.);
#550 = AXIS2_PLACEMENT_3D('',#551,#552,#553);
#551 = CARTESIAN_POINT('',(0.,0.,40.));
#552 = DIRECTION('',(0.,0.,-1.));
#553 = DIRECTION('',(1.,0.,0.));
#554 = PCURVE('',#273,#555);
#555 = DEFINITIONAL_REPRESENTATION('',(#556),#564);
#556 = ( BOUNDED_CURVE() B_SPLINE_CURVE(2,(#557,#558,#559,#560,#561,#562
,#563),.UNSPECIFIED.,.T.,.F.) B_SPLINE_CURVE_WITH_KNOTS((1,2,2,2,2,1),(
    -2.094395102393,0.,2.094395102393,4.188790204786,6.28318530718,
8.377580409573),.UNSPECIFIED.) CURVE() GEOMETRIC_REPRESENTATION_ITEM() 
RATIONAL_B_SPLINE_CURVE((1.,0.5,1.,0.5,1.,0.5,1.)) REPRESENTATION_ITEM(
  '') );
#557 = CARTESIAN_POINT('',(20.,-1.604946055186E-15));
#558 = CARTESIAN_POINT('',(20.,-34.64101615137));
#559 = CARTESIAN_POINT('',(-10.,-17.32050807568));
#560 = CARTESIAN_POINT('',(-40.,-6.503533251776E-15));
#561 = CARTESIAN_POINT('',(-10.,17.320508075689));
#562 = CARTESIAN_POINT('',(20.,34.641016151378));
#563 = CARTESIAN_POINT('',(20.,-1.604946055186E-15));
#564 = ( GEOMETRIC_REPRESENTATION_CONTEXT(2) 
PARAMETRIC_REPRESENTATION_CONTEXT() REPRESENTATION_CONTEXT('2D SPACE',''
  ) );
#565 = PCURVE('',#566,#571);
#566 = CYLINDRICAL_SURFACE('',#567,20.);
#567 = AXIS2_PLACEMENT_3D('',#568,#569,#570);
#568 = CARTESIAN_POINT('',(0.,0.,0.));
#569 = DIRECTION('',(-0.,-0.,-1.));
#570 = DIRECTION('',(1.,0.,0.));
#571 = DEFINITIONAL_REPRESENTATION('',(#572),#576);
#572 = LINE('',#573,#574);
#573 = CARTESIAN_POINT('',(-6.28318530718,-40.));
#574 = VECTOR('',#575,1.);
#575 = DIRECTION('',(1.,-0.));
#576 = ( GEOMETRIC_REPRESENTATION_CONTEXT(2) 
PARAMETRIC_REPRESENTATION_CONTEXT() REPRESENTATION_CONTEXT('2D SPACE',''
  ) );
#577 = ADVANCED_FACE('',(#578,#581),#382,.F.);
#578 = FACE_BOUND('',#579,.F.);
#579 = EDGE_LOOP('',(#580));
#580 = ORIENTED_EDGE('',*,*,#367,.T.);
#581 = FACE_BOUND('',#582,.F.);
#582 = EDGE_LOOP('',(#583));
#583 = ORIENTED_EDGE('',*,*,#584,.F.);
#584 = EDGE_CURVE('',#585,#585,#587,.T.);
#585 = VERTEX_POINT('',#586);
#586 = CARTESIAN_POINT('',(20.,0.,-40.));
#587 = SURFACE_CURVE('',#588,(#593,#600),.PCURVE_S1.);
#588 = CIRCLE('',#589,20.);
#589 = AXIS2_PLACEMENT_3D('',#590,#591,#592);
#590 = CARTESIAN_POINT('',(0.,0.,-40.));
#591 = DIRECTION('',(0.,0.,1.));
#592 = DIRECTION('',(1.,0.,-0.));
#593 = PCURVE('',#382,#594);
#594 = DEFINITIONAL_REPRESENTATION('',(#595),#599);
#595 = CIRCLE('',#596,20.);
#596 = AXIS2_PLACEMENT_2D('',#597,#598);
#597 = CARTESIAN_POINT('',(8.751616848252E-16,-1.604946055186E-15));
#598 = DIRECTION('',(1.,0.));
#599 = ( GEOMETRIC_REPRESENTATION_CONTEXT(2) 
PARAMETRIC_REPRESENTATION_CONTEXT() REPRESENTATION_CONTEXT('2D SPACE',''
  ) );
#600 = PCURVE('',#601,#606);
#601 = CYLINDRICAL_SURFACE('',#602,20.);
#602 = AXIS2_PLACEMENT_3D('',#603,#604,#605);
#603 = CARTESIAN_POINT('',(0.,0.,0.));
#604 = DIRECTION('',(0.,0.,1.));
#605 = DIRECTION('',(1.,0.,0.));
#606 = DEFINITIONAL_REPRESENTATION('',(#607),#611);
#607 = LINE('',#608,#609);
#608 = CARTESIAN_POINT('',(0.,-40.));
#609 = VECTOR('',#610,1.);
#610 = DIRECTION('',(1.,0.));
#611 = ( GEOMETRIC_REPRESENTATION_CONTEXT(2) 
PARAMETRIC_REPRESENTATION_CONTEXT() REPRESENTATION_CONTEXT('2D SPACE',''
  ) );
#612 = ADVANCED_FACE('',(#613),#471,.F.);
#613 = FACE_BOUND('',#614,.T.);
#614 = EDGE_LOOP('',(#615,#653,#689,#710,#711,#712,#748));
#615 = ORIENTED_EDGE('',*,*,#616,.T.);
#616 = EDGE_CURVE('',#617,#619,#621,.T.);
#617 = VERTEX_POINT('',#618);
#618 = CARTESIAN_POINT('',(-1.836970198721E-15,-20.,-3.407240447854E-13)
  );
#619 = VERTEX_POINT('',#620);
#620 = CARTESIAN_POINT('',(20.,0.,20.));
#621 = SURFACE_CURVE('',#622,(#627,#640),.PCURVE_S1.);
#622 = ELLIPSE('',#623,28.284271247462,20.);
#623 = AXIS2_PLACEMENT_3D('',#624,#625,#626);
#624 = CARTESIAN_POINT('',(0.,0.,0.));
#625 = DIRECTION('',(-0.707106781187,0.,0.707106781187));
#626 = DIRECTION('',(-0.707106781187,0.,-0.707106781187));
#627 = PCURVE('',#471,#628);
#628 = DEFINITIONAL_REPRESENTATION('',(#629),#639);
#629 = B_SPLINE_CURVE_WITH_KNOTS('',8,(#630,#631,#632,#633,#634,#635,
    #636,#637,#638),.UNSPECIFIED.,.F.,.F.,(9,9),(1.570796297195,
    3.14159265359),.PIECEWISE_BEZIER_KNOTS.);
#630 = CARTESIAN_POINT('',(-3.14159268319,5.920019287043E-07));
#631 = CARTESIAN_POINT('',(-2.945243138641,-3.926990298986));
#632 = CARTESIAN_POINT('',(-2.748893594089,-7.853982148446));
#633 = CARTESIAN_POINT('',(-2.552544049543,-11.55026491938));
#634 = CARTESIAN_POINT('',(-2.356194504982,-14.78517481776));
#635 = CARTESIAN_POINT('',(-2.159844960442,-17.3563608271));
#636 = CARTESIAN_POINT('',(-1.963495415891,-19.11878444706));
#637 = CARTESIAN_POINT('',(-1.767145871344,-20.));
#638 = CARTESIAN_POINT('',(-1.570796326795,-20.));
#639 = ( GEOMETRIC_REPRESENTATION_CONTEXT(2) 
PARAMETRIC_REPRESENTATION_CONTEXT() REPRESENTATION_CONTEXT('2D SPACE',''
  ) );
#640 = PCURVE('',#566,#641);
#641 = DEFINITIONAL_REPRESENTATION('',(#642),#652);
#642 = B_SPLINE_CURVE_WITH_KNOTS('',8,(#643,#644,#645,#646,#647,#648,
    #649,#650,#651),.UNSPECIFIED.,.F.,.F.,(9,9),(1.570796297195,
    3.14159265359),.PIECEWISE_BEZIER_KNOTS.);
#643 = CARTESIAN_POINT('',(-4.712388950785,5.920019287043E-07));
#644 = CARTESIAN_POINT('',(-4.908738495334,-3.926990298986));
#645 = CARTESIAN_POINT('',(-5.105088039886,-7.853982148446));
#646 = CARTESIAN_POINT('',(-5.30143758441,-11.55026491938));
#647 = CARTESIAN_POINT('',(-5.497787128988,-14.78517481776));
#648 = CARTESIAN_POINT('',(-5.694136673512,-17.3563608271));
#649 = CARTESIAN_POINT('',(-5.890486218083,-19.11878444706));
#650 = CARTESIAN_POINT('',(-6.08683576263,-20.));
#651 = CARTESIAN_POINT('',(-6.28318530718,-20.));
#652 = ( GEOMETRIC_REPRESENTATION_CONTEXT(2) 
PARAMETRIC_REPRESENTATION_CONTEXT() REPRESENTATION_CONTEXT('2D SPACE',''
  ) );
#653 = ORIENTED_EDGE('',*,*,#654,.T.);
#654 = EDGE_CURVE('',#619,#655,#657,.T.);
#655 = VERTEX_POINT('',#656);
#656 = CARTESIAN_POINT('',(0.,20.,0.));
#657 = SURFACE_CURVE('',#658,(#663,#676),.PCURVE_S1.);
#658 = ELLIPSE('',#659,28.284271247462,20.);
#659 = AXIS2_PLACEMENT_3D('',#660,#661,#662);
#660 = CARTESIAN_POINT('',(0.,0.,0.));
#661 = DIRECTION('',(-0.707106781187,0.,0.707106781187));
#662 = DIRECTION('',(-0.707106781187,0.,-0.707106781187));
#663 = PCURVE('',#471,#664);
#664 = DEFINITIONAL_REPRESENTATION('',(#665),#675);
#665 = B_SPLINE_CURVE_WITH_KNOTS('',8,(#666,#667,#668,#669,#670,#671,
    #672,#673,#674),.UNSPECIFIED.,.F.,.F.,(9,9),(3.14159265359,
    4.712388980385),.PIECEWISE_BEZIER_KNOTS.);
#666 = CARTESIAN_POINT('',(-1.570796326795,-20.));
#667 = CARTESIAN_POINT('',(-1.374446785946,-20.));
#668 = CARTESIAN_POINT('',(-1.178097245096,-19.11878448026));
#669 = CARTESIAN_POINT('',(-0.981747704244,-17.35636092676));
#670 = CARTESIAN_POINT('',(-0.7853981634,-14.78517501149));
#671 = CARTESIAN_POINT('',(-0.589048622546,-11.55026522416));
#672 = CARTESIAN_POINT('',(-0.392699081699,-7.853982566356));
#673 = CARTESIAN_POINT('',(-0.196349540849,-3.926990816987));
#674 = CARTESIAN_POINT('',(-1.836970198721E-16,-3.673940397442E-15));
#675 = ( GEOMETRIC_REPRESENTATION_CONTEXT(2) 
PARAMETRIC_REPRESENTATION_CONTEXT() REPRESENTATION_CONTEXT('2D SPACE',''
  ) );
#676 = PCURVE('',#566,#677);
#677 = DEFINITIONAL_REPRESENTATION('',(#678),#688);
#678 = B_SPLINE_CURVE_WITH_KNOTS('',8,(#679,#680,#681,#682,#683,#684,
    #685,#686,#687),.UNSPECIFIED.,.F.,.F.,(9,9),(3.14159265359,
    4.712388980385),.PIECEWISE_BEZIER_KNOTS.);
#679 = CARTESIAN_POINT('',(8.881784197001E-16,-20.));
#680 = CARTESIAN_POINT('',(-0.196349540849,-20.));
#681 = CARTESIAN_POINT('',(-0.392699081699,-19.11878448026));
#682 = CARTESIAN_POINT('',(-0.589048622544,-17.35636092676));
#683 = CARTESIAN_POINT('',(-0.7853981634,-14.78517501149));
#684 = CARTESIAN_POINT('',(-0.981747704245,-11.55026522416));
#685 = CARTESIAN_POINT('',(-1.178097245097,-7.853982566356));
#686 = CARTESIAN_POINT('',(-1.374446785946,-3.926990816987));
#687 = CARTESIAN_POINT('',(-1.570796326795,-3.673940397442E-15));
#688 = ( GEOMETRIC_REPRESENTATION_CONTEXT(2) 
PARAMETRIC_REPRESENTATION_CONTEXT() REPRESENTATION_CONTEXT('2D SPACE',''
  ) );
#689 = ORIENTED_EDGE('',*,*,#690,.T.);
#690 = EDGE_CURVE('',#655,#451,#691,.T.);
#691 = SEAM_CURVE('',#692,(#696,#703),.PCURVE_S1.);
#692 = LINE('',#693,#694);
#693 = CARTESIAN_POINT('',(0.,20.,0.));
#694 = VECTOR('',#695,1.);
#695 = DIRECTION('',(1.,0.,0.));
#696 = PCURVE('',#471,#697);
#697 = DEFINITIONAL_REPRESENTATION('',(#698),#702);
#698 = LINE('',#699,#700);
#699 = CARTESIAN_POINT('',(-6.28318530718,0.));
#700 = VECTOR('',#701,1.);
#701 = DIRECTION('',(-0.,-1.));
#702 = ( GEOMETRIC_REPRESENTATION_CONTEXT(2) 
PARAMETRIC_REPRESENTATION_CONTEXT() REPRESENTATION_CONTEXT('2D SPACE',''
  ) );
#703 = PCURVE('',#471,#704);
#704 = DEFINITIONAL_REPRESENTATION('',(#705),#709);
#705 = LINE('',#706,#707);
#706 = CARTESIAN_POINT('',(-0.,0.));
#707 = VECTOR('',#708,1.);
#708 = DIRECTION('',(-0.,-1.));
#709 = ( GEOMETRIC_REPRESENTATION_CONTEXT(2) 
PARAMETRIC_REPRESENTATION_CONTEXT() REPRESENTATION_CONTEXT('2D SPACE',''
  ) );
#710 = ORIENTED_EDGE('',*,*,#450,.F.);
#711 = ORIENTED_EDGE('',*,*,#690,.F.);
#712 = ORIENTED_EDGE('',*,*,#713,.T.);
#713 = EDGE_CURVE('',#655,#714,#716,.T.);
#714 = VERTEX_POINT('',#715);
#715 = CARTESIAN_POINT('',(20.,0.,-20.));
#716 = SURFACE_CURVE('',#717,(#722,#735),.PCURVE_S1.);
#717 = ELLIPSE('',#718,28.284271247462,20.);
#718 = AXIS2_PLACEMENT_3D('',#719,#720,#721);
#719 = CARTESIAN_POINT('',(0.,0.,0.));
#720 = DIRECTION('',(-0.707106781187,0.,-0.707106781187));
#721 = DIRECTION('',(-0.707106781187,0.,0.707106781187));
#722 = PCURVE('',#471,#723);
#723 = DEFINITIONAL_REPRESENTATION('',(#724),#734);
#724 = B_SPLINE_CURVE_WITH_KNOTS('',8,(#725,#726,#727,#728,#729,#730,
    #731,#732,#733),.UNSPECIFIED.,.F.,.F.,(9,9),(1.570796297195,
    3.14159265359),.PIECEWISE_BEZIER_KNOTS.);
#725 = CARTESIAN_POINT('',(-6.28318533678,5.920019331452E-07));
#726 = CARTESIAN_POINT('',(-6.08683579223,-3.926990298986));
#727 = CARTESIAN_POINT('',(-5.890486247681,-7.853982148456));
#728 = CARTESIAN_POINT('',(-5.694136703132,-11.5502649194));
#729 = CARTESIAN_POINT('',(-5.497787158586,-14.78517481777));
#730 = CARTESIAN_POINT('',(-5.301437614034,-17.35636082712));
#731 = CARTESIAN_POINT('',(-5.105088069484,-19.11878444707));
#732 = CARTESIAN_POINT('',(-4.908738524934,-20.));
#733 = CARTESIAN_POINT('',(-4.712388980385,-20.));
#734 = ( GEOMETRIC_REPRESENTATION_CONTEXT(2) 
PARAMETRIC_REPRESENTATION_CONTEXT() REPRESENTATION_CONTEXT('2D SPACE',''
  ) );
#735 = PCURVE('',#601,#736);
#736 = DEFINITIONAL_REPRESENTATION('',(#737),#747);
#737 = B_SPLINE_CURVE_WITH_KNOTS('',8,(#738,#739,#740,#741,#742,#743,
    #744,#745,#746),.UNSPECIFIED.,.F.,.F.,(9,9),(1.570796297195,
    3.14159265359),.PIECEWISE_BEZIER_KNOTS.);
#738 = CARTESIAN_POINT('',(1.570796356395,5.920019331452E-07));
#739 = CARTESIAN_POINT('',(1.374446811846,-3.926990298986));
#740 = CARTESIAN_POINT('',(1.178097267295,-7.853982148456));
#741 = CARTESIAN_POINT('',(0.981747722747,-11.5502649194));
#742 = CARTESIAN_POINT('',(0.785398178191,-14.78517481777));
#743 = CARTESIAN_POINT('',(0.589048633649,-17.35636082712));
#744 = CARTESIAN_POINT('',(0.392699089098,-19.11878444707));
#745 = CARTESIAN_POINT('',(0.196349544549,-20.));
#746 = CARTESIAN_POINT('',(1.224646799147E-16,-20.));
#747 = ( GEOMETRIC_REPRESENTATION_CONTEXT(2) 
PARAMETRIC_REPRESENTATION_CONTEXT() REPRESENTATION_CONTEXT('2D SPACE',''
  ) );
#748 = ORIENTED_EDGE('',*,*,#749,.T.);
#749 = EDGE_CURVE('',#714,#617,#750,.T.);
#750 = SURFACE_CURVE('',#751,(#756,#769),.PCURVE_S1.);
#751 = ELLIPSE('',#752,28.284271247462,20.);
#752 = AXIS2_PLACEMENT_3D('',#753,#754,#755);
#753 = CARTESIAN_POINT('',(0.,0.,0.));
#754 = DIRECTION('',(-0.707106781187,0.,-0.707106781187));
#755 = DIRECTION('',(-0.707106781187,0.,0.707106781187));
#756 = PCURVE('',#471,#757);
#757 = DEFINITIONAL_REPRESENTATION('',(#758),#768);
#758 = B_SPLINE_CURVE_WITH_KNOTS('',8,(#759,#760,#761,#762,#763,#764,
    #765,#766,#767),.UNSPECIFIED.,.F.,.F.,(9,9),(3.14159265359,
    4.712388980785),.PIECEWISE_BEZIER_KNOTS.);
#759 = CARTESIAN_POINT('',(-4.712388980385,-20.));
#760 = CARTESIAN_POINT('',(-4.516039439485,-20.));
#761 = CARTESIAN_POINT('',(-4.319689898591,-19.11878447982));
#762 = CARTESIAN_POINT('',(-4.123340357664,-17.35636092543));
#763 = CARTESIAN_POINT('',(-3.926990816799,-14.78517500899));
#764 = CARTESIAN_POINT('',(-3.730641275864,-11.55026522011));
#765 = CARTESIAN_POINT('',(-3.534291734992,-7.853982560726));
#766 = CARTESIAN_POINT('',(-3.337942194089,-3.926990809989));
#767 = CARTESIAN_POINT('',(-3.14159265319,7.998060759028E-09));
#768 = ( GEOMETRIC_REPRESENTATION_CONTEXT(2) 
PARAMETRIC_REPRESENTATION_CONTEXT() REPRESENTATION_CONTEXT('2D SPACE',''
  ) );
#769 = PCURVE('',#601,#770);
#770 = DEFINITIONAL_REPRESENTATION('',(#771),#781);
#771 = B_SPLINE_CURVE_WITH_KNOTS('',8,(#772,#773,#774,#775,#776,#777,
    #778,#779,#780),.UNSPECIFIED.,.F.,.F.,(9,9),(3.14159265359,
    4.712388980785),.PIECEWISE_BEZIER_KNOTS.);
#772 = CARTESIAN_POINT('',(6.28318530718,-20.));
#773 = CARTESIAN_POINT('',(6.08683576628,-20.));
#774 = CARTESIAN_POINT('',(5.890486225382,-19.11878447982));
#775 = CARTESIAN_POINT('',(5.694136684477,-17.35636092543));
#776 = CARTESIAN_POINT('',(5.497787143591,-14.78517500899));
#777 = CARTESIAN_POINT('',(5.301437602678,-11.55026522011));
#778 = CARTESIAN_POINT('',(5.105088061785,-7.853982560726));
#779 = CARTESIAN_POINT('',(4.908738520884,-3.926990809989));
#780 = CARTESIAN_POINT('',(4.712388979985,7.998060759028E-09));
#781 = ( GEOMETRIC_REPRESENTATION_CONTEXT(2) 
PARAMETRIC_REPRESENTATION_CONTEXT() REPRESENTATION_CONTEXT('2D SPACE',''
  ) );
#782 = ADVANCED_FACE('',(#783,#786),#525,.F.);
#783 = FACE_BOUND('',#784,.F.);
#784 = EDGE_LOOP('',(#785));
#785 = ORIENTED_EDGE('',*,*,#510,.T.);
#786 = FACE_BOUND('',#787,.F.);
#787 = EDGE_LOOP('',(#788));
#788 = ORIENTED_EDGE('',*,*,#789,.F.);
#789 = EDGE_CURVE('',#790,#790,#792,.T.);
#790 = VERTEX_POINT('',#791);
#791 = CARTESIAN_POINT('',(-60.,20.,0.));
#792 = SURFACE_CURVE('',#793,(#798,#805),.PCURVE_S1.);
#793 = CIRCLE('',#794,20.);
#794 = AXIS2_PLACEMENT_3D('',#795,#796,#797);
#795 = CARTESIAN_POINT('',(-60.,0.,0.));
#796 = DIRECTION('',(1.,0.,0.));
#797 = DIRECTION('',(-0.,1.,0.));
#798 = PCURVE('',#525,#799);
#799 = DEFINITIONAL_REPRESENTATION('',(#800),#804);
#800 = CIRCLE('',#801,20.);
#801 = AXIS2_PLACEMENT_2D('',#802,#803);
#802 = CARTESIAN_POINT('',(-1.604946055186E-15,-8.751616848252E-16));
#803 = DIRECTION('',(0.,-1.));
#804 = ( GEOMETRIC_REPRESENTATION_CONTEXT(2) 
PARAMETRIC_REPRESENTATION_CONTEXT() REPRESENTATION_CONTEXT('2D SPACE',''
  ) );
#805 = PCURVE('',#806,#811);
#806 = CYLINDRICAL_SURFACE('',#807,20.);
#807 = AXIS2_PLACEMENT_3D('',#808,#809,#810);
#808 = CARTESIAN_POINT('',(0.,0.,0.));
#809 = DIRECTION('',(1.,0.,0.));
#810 = DIRECTION('',(0.,1.,0.));
#811 = DEFINITIONAL_REPRESENTATION('',(#812),#816);
#812 = LINE('',#813,#814);
#813 = CARTESIAN_POINT('',(0.,-60.));
#814 = VECTOR('',#815,1.);
#815 = DIRECTION('',(1.,0.));
#816 = ( GEOMETRIC_REPRESENTATION_CONTEXT(2) 
PARAMETRIC_REPRESENTATION_CONTEXT() REPRESENTATION_CONTEXT('2D SPACE',''
  ) );
#817 = ADVANCED_FACE('',(#818),#566,.F.);
#818 = FACE_BOUND('',#819,.T.);
#819 = EDGE_LOOP('',(#820,#841,#842,#890,#891,#892));
#820 = ORIENTED_EDGE('',*,*,#821,.F.);
#821 = EDGE_CURVE('',#619,#546,#822,.T.);
#822 = SEAM_CURVE('',#823,(#827,#834),.PCURVE_S1.);
#823 = LINE('',#824,#825);
#824 = CARTESIAN_POINT('',(20.,0.,0.));
#825 = VECTOR('',#826,1.);
#826 = DIRECTION('',(0.,0.,1.));
#827 = PCURVE('',#566,#828);
#828 = DEFINITIONAL_REPRESENTATION('',(#829),#833);
#829 = LINE('',#830,#831);
#830 = CARTESIAN_POINT('',(-6.28318530718,0.));
#831 = VECTOR('',#832,1.);
#832 = DIRECTION('',(-0.,-1.));
#833 = ( GEOMETRIC_REPRESENTATION_CONTEXT(2) 
PARAMETRIC_REPRESENTATION_CONTEXT() REPRESENTATION_CONTEXT('2D SPACE',''
  ) );
#834 = PCURVE('',#566,#835);
#835 = DEFINITIONAL_REPRESENTATION('',(#836),#840);
#836 = LINE('',#837,#838);
#837 = CARTESIAN_POINT('',(-0.,0.));
#838 = VECTOR('',#839,1.);
#839 = DIRECTION('',(-0.,-1.));
#840 = ( GEOMETRIC_REPRESENTATION_CONTEXT(2) 
PARAMETRIC_REPRESENTATION_CONTEXT() REPRESENTATION_CONTEXT('2D SPACE',''
  ) );
#841 = ORIENTED_EDGE('',*,*,#616,.F.);
#842 = ORIENTED_EDGE('',*,*,#843,.F.);
#843 = EDGE_CURVE('',#655,#617,#844,.T.);
#844 = SURFACE_CURVE('',#845,(#850,#870),.PCURVE_S1.);
#845 = ELLIPSE('',#846,28.284271247462,20.);
#846 = AXIS2_PLACEMENT_3D('',#847,#848,#849);
#847 = CARTESIAN_POINT('',(0.,0.,0.));
#848 = DIRECTION('',(0.707106781187,0.,0.707106781187));
#849 = DIRECTION('',(0.707106781187,0.,-0.707106781187));
#850 = PCURVE('',#566,#851);
#851 = DEFINITIONAL_REPRESENTATION('',(#852),#869);
#852 = B_SPLINE_CURVE_WITH_KNOTS('',8,(#853,#854,#855,#856,#857,#858,
    #859,#860,#861,#862,#863,#864,#865,#866,#867,#868),.UNSPECIFIED.,.F.
  ,.F.,(9,7,9),(1.570796297195,3.14159264629,4.712388995385),
  .UNSPECIFIED.);
#853 = CARTESIAN_POINT('',(-1.570796297195,5.920019375861E-07));
#854 = CARTESIAN_POINT('',(-1.767145840832,-3.926990280735));
#855 = CARTESIAN_POINT('',(-1.963495384472,-7.853982111936));
#856 = CARTESIAN_POINT('',(-2.159844928088,-11.55026486787));
#857 = CARTESIAN_POINT('',(-2.35619447176,-14.78517475754));
#858 = CARTESIAN_POINT('',(-2.552544015367,-17.35636076742));
#859 = CARTESIAN_POINT('',(-2.74889355902,-19.1187843979));
#860 = CARTESIAN_POINT('',(-2.945243102653,-19.99999997133));
#861 = CARTESIAN_POINT('',(-3.337942189927,-20.00000002866));
#862 = CARTESIAN_POINT('',(-3.534291733561,-19.11878451258));
#863 = CARTESIAN_POINT('',(-3.7306412772,-17.35636093603));
#864 = CARTESIAN_POINT('',(-3.926990820826,-14.78517497344));
#865 = CARTESIAN_POINT('',(-4.123340364475,-11.55026512128));
#866 = CARTESIAN_POINT('',(-4.319689908109,-7.853982391083));
#867 = CARTESIAN_POINT('',(-4.516039451748,-3.926990572737));
#868 = CARTESIAN_POINT('',(-4.712388995385,2.99999985621E-07));
#869 = ( GEOMETRIC_REPRESENTATION_CONTEXT(2) 
PARAMETRIC_REPRESENTATION_CONTEXT() REPRESENTATION_CONTEXT('2D SPACE',''
  ) );
#870 = PCURVE('',#806,#871);
#871 = DEFINITIONAL_REPRESENTATION('',(#872),#889);
#872 = B_SPLINE_CURVE_WITH_KNOTS('',8,(#873,#874,#875,#876,#877,#878,
    #879,#880,#881,#882,#883,#884,#885,#886,#887,#888),.UNSPECIFIED.,.F.
  ,.F.,(9,7,9),(1.570796297195,3.14159264629,4.712388995385),
  .UNSPECIFIED.);
#873 = CARTESIAN_POINT('',(-2.960009659603E-08,5.920019375861E-07));
#874 = CARTESIAN_POINT('',(0.196349514037,-3.926990280735));
#875 = CARTESIAN_POINT('',(0.392699057674,-7.853982111936));
#876 = CARTESIAN_POINT('',(0.589048601308,-11.55026486787));
#877 = CARTESIAN_POINT('',(0.78539814495,-14.78517475754));
#878 = CARTESIAN_POINT('',(0.981747688583,-17.35636076742));
#879 = CARTESIAN_POINT('',(1.178097232221,-19.1187843979));
#880 = CARTESIAN_POINT('',(1.374446775858,-19.99999997133));
#881 = CARTESIAN_POINT('',(1.767145863132,-20.00000002866));
#882 = CARTESIAN_POINT('',(1.963495406771,-19.11878451258));
#883 = CARTESIAN_POINT('',(2.159844950398,-17.35636093603));
#884 = CARTESIAN_POINT('',(2.35619449405,-14.78517497344));
#885 = CARTESIAN_POINT('',(2.552544037668,-11.55026512128));
#886 = CARTESIAN_POINT('',(2.748893581318,-7.853982391083));
#887 = CARTESIAN_POINT('',(2.945243124953,-3.926990572737));
#888 = CARTESIAN_POINT('',(3.14159266859,2.99999985621E-07));
#889 = ( GEOMETRIC_REPRESENTATION_CONTEXT(2) 
PARAMETRIC_REPRESENTATION_CONTEXT() REPRESENTATION_CONTEXT('2D SPACE',''
  ) );
#890 = ORIENTED_EDGE('',*,*,#654,.F.);
#891 = ORIENTED_EDGE('',*,*,#821,.T.);
#892 = ORIENTED_EDGE('',*,*,#545,.F.);
#893 = ADVANCED_FACE('',(#894),#601,.F.);
#894 = FACE_BOUND('',#895,.F.);
#895 = EDGE_LOOP('',(#896,#944,#945,#966,#967,#968));
#896 = ORIENTED_EDGE('',*,*,#897,.T.);
#897 = EDGE_CURVE('',#617,#655,#898,.T.);
#898 = SURFACE_CURVE('',#899,(#904,#924),.PCURVE_S1.);
#899 = ELLIPSE('',#900,28.284271247462,20.);
#900 = AXIS2_PLACEMENT_3D('',#901,#902,#903);
#901 = CARTESIAN_POINT('',(0.,0.,0.));
#902 = DIRECTION('',(0.707106781187,0.,-0.707106781187));
#903 = DIRECTION('',(0.707106781187,0.,0.707106781187));
#904 = PCURVE('',#601,#905);
#905 = DEFINITIONAL_REPRESENTATION('',(#906),#923);
#906 = B_SPLINE_CURVE_WITH_KNOTS('',8,(#907,#908,#909,#910,#911,#912,
    #913,#914,#915,#916,#917,#918,#919,#920,#921,#922),.UNSPECIFIED.,.F.
  ,.F.,(9,7,9),(1.570796311795,3.14159264609,4.712388980385),
  .UNSPECIFIED.);
#907 = CARTESIAN_POINT('',(4.712388995385,2.999999994014E-07));
#908 = CARTESIAN_POINT('',(4.516039453598,-3.926990535737));
#909 = CARTESIAN_POINT('',(4.319689911812,-7.853982317101));
#910 = CARTESIAN_POINT('',(4.123340370017,-11.55026501674));
#911 = CARTESIAN_POINT('',(3.926990828215,-14.78517485165));
#912 = CARTESIAN_POINT('',(3.73064128644,-17.35636081483));
#913 = CARTESIAN_POINT('',(3.534291744663,-19.11878441297));
#914 = CARTESIAN_POINT('',(3.337942202877,-19.99999997054));
#915 = CARTESIAN_POINT('',(2.945243119303,-20.00000002945));
#916 = CARTESIAN_POINT('',(2.748893577517,-19.11878453074));
#917 = CARTESIAN_POINT('',(2.552544035724,-17.35636098818));
#918 = CARTESIAN_POINT('',(2.356194493948,-14.78517507328));
#919 = CARTESIAN_POINT('',(2.159844952148,-11.55026527716));
#920 = CARTESIAN_POINT('',(1.96349541037,-7.853982603838));
#921 = CARTESIAN_POINT('',(1.767145868582,-3.926990835737));
#922 = CARTESIAN_POINT('',(1.570796326795,-3.673940397442E-15));
#923 = ( GEOMETRIC_REPRESENTATION_CONTEXT(2) 
PARAMETRIC_REPRESENTATION_CONTEXT() REPRESENTATION_CONTEXT('2D SPACE',''
  ) );
#924 = PCURVE('',#806,#925);
#925 = DEFINITIONAL_REPRESENTATION('',(#926),#943);
#926 = B_SPLINE_CURVE_WITH_KNOTS('',8,(#927,#928,#929,#930,#931,#932,
    #933,#934,#935,#936,#937,#938,#939,#940,#941,#942),.UNSPECIFIED.,.F.
  ,.F.,(9,7,9),(1.570796311795,3.14159264609,4.712388980385),
  .UNSPECIFIED.);
#927 = CARTESIAN_POINT('',(3.14159263859,2.999999994014E-07));
#928 = CARTESIAN_POINT('',(3.337942180377,-3.926990535737));
#929 = CARTESIAN_POINT('',(3.534291722156,-7.853982317101));
#930 = CARTESIAN_POINT('',(3.730641263961,-11.55026501674));
#931 = CARTESIAN_POINT('',(3.926990805718,-14.78517485165));
#932 = CARTESIAN_POINT('',(4.123340347538,-17.35636081483));
#933 = CARTESIAN_POINT('',(4.319689889304,-19.11878441297));
#934 = CARTESIAN_POINT('',(4.516039431098,-19.99999997054));
#935 = CARTESIAN_POINT('',(4.908738514672,-20.00000002945));
#936 = CARTESIAN_POINT('',(5.105088056453,-19.11878453074));
#937 = CARTESIAN_POINT('',(5.301437598235,-17.35636098818));
#938 = CARTESIAN_POINT('',(5.497787140022,-14.78517507328));
#939 = CARTESIAN_POINT('',(5.694136681817,-11.55026527716));
#940 = CARTESIAN_POINT('',(5.890486223604,-7.853982603838));
#941 = CARTESIAN_POINT('',(6.086835765393,-3.926990835737));
#942 = CARTESIAN_POINT('',(6.28318530718,-3.673940397442E-15));
#943 = ( GEOMETRIC_REPRESENTATION_CONTEXT(2) 
PARAMETRIC_REPRESENTATION_CONTEXT() REPRESENTATION_CONTEXT('2D SPACE',''
  ) );
#944 = ORIENTED_EDGE('',*,*,#713,.T.);
#945 = ORIENTED_EDGE('',*,*,#946,.T.);
#946 = EDGE_CURVE('',#714,#585,#947,.T.);
#947 = SEAM_CURVE('',#948,(#952,#959),.PCURVE_S1.);
#948 = LINE('',#949,#950);
#949 = CARTESIAN_POINT('',(20.,0.,0.));
#950 = VECTOR('',#951,1.);
#951 = DIRECTION('',(-0.,-0.,-1.));
#952 = PCURVE('',#601,#953);
#953 = DEFINITIONAL_REPRESENTATION('',(#954),#958);
#954 = LINE('',#955,#956);
#955 = CARTESIAN_POINT('',(6.28318530718,0.));
#956 = VECTOR('',#957,1.);
#957 = DIRECTION('',(0.,-1.));
#958 = ( GEOMETRIC_REPRESENTATION_CONTEXT(2) 
PARAMETRIC_REPRESENTATION_CONTEXT() REPRESENTATION_CONTEXT('2D SPACE',''
  ) );
#959 = PCURVE('',#601,#960);
#960 = DEFINITIONAL_REPRESENTATION('',(#961),#965);
#961 = LINE('',#962,#963);
#962 = CARTESIAN_POINT('',(0.,0.));
#963 = VECTOR('',#964,1.);
#964 = DIRECTION('',(0.,-1.));
#965 = ( GEOMETRIC_REPRESENTATION_CONTEXT(2) 
PARAMETRIC_REPRESENTATION_CONTEXT() REPRESENTATION_CONTEXT('2D SPACE',''
  ) );
#966 = ORIENTED_EDGE('',*,*,#584,.T.);
#967 = ORIENTED_EDGE('',*,*,#946,.F.);
#968 = ORIENTED_EDGE('',*,*,#749,.T.);
#969 = ADVANCED_FACE('',(#970),#806,.F.);
#970 = FACE_BOUND('',#971,.F.);
#971 = EDGE_LOOP('',(#972,#993,#994,#995,#996));
#972 = ORIENTED_EDGE('',*,*,#973,.F.);
#973 = EDGE_CURVE('',#655,#790,#974,.T.);
#974 = SEAM_CURVE('',#975,(#979,#986),.PCURVE_S1.);
#975 = LINE('',#976,#977);
#976 = CARTESIAN_POINT('',(0.,20.,0.));
#977 = VECTOR('',#978,1.);
#978 = DIRECTION('',(-1.,-0.,-0.));
#979 = PCURVE('',#806,#980);
#980 = DEFINITIONAL_REPRESENTATION('',(#981),#985);
#981 = LINE('',#982,#983);
#982 = CARTESIAN_POINT('',(6.28318530718,0.));
#983 = VECTOR('',#984,1.);
#984 = DIRECTION('',(0.,-1.));
#985 = ( GEOMETRIC_REPRESENTATION_CONTEXT(2) 
PARAMETRIC_REPRESENTATION_CONTEXT() REPRESENTATION_CONTEXT('2D SPACE',''
  ) );
#986 = PCURVE('',#806,#987);
#987 = DEFINITIONAL_REPRESENTATION('',(#988),#992);
#988 = LINE('',#989,#990);
#989 = CARTESIAN_POINT('',(0.,0.));
#990 = VECTOR('',#991,1.);
#991 = DIRECTION('',(0.,-1.));
#992 = ( GEOMETRIC_REPRESENTATION_CONTEXT(2) 
PARAMETRIC_REPRESENTATION_CONTEXT() REPRESENTATION_CONTEXT('2D SPACE',''
  ) );
#993 = ORIENTED_EDGE('',*,*,#897,.F.);
#994 = ORIENTED_EDGE('',*,*,#843,.F.);
#995 = ORIENTED_EDGE('',*,*,#973,.T.);
#996 = ORIENTED_EDGE('',*,*,#789,.T.);
#997 = ( GEOMETRIC_REPRESENTATION_CONTEXT(3) 
GLOBAL_UNCERTAINTY_ASSIGNED_CONTEXT((#1001)) 
GLOBAL_UNIT_ASSIGNED_CONTEXT((#998,#999,#1000)) REPRESENTATION_CONTEXT(
  'Context #1','3D Context with UNIT and UNCERTAINTY') );
#998 = ( LENGTH_UNIT() NAMED_UNIT(*) SI_UNIT(.MILLI.,.METRE.) );
#999 = ( NAMED_UNIT(*) PLANE_ANGLE_UNIT() SI_UNIT($,.RADIAN.) );
#1000 = ( NAMED_UNIT(*) SI_UNIT($,.STERADIAN.) SOLID_ANGLE_UNIT() );
#1001 = UNCERTAINTY_MEASURE_WITH_UNIT(LENGTH_MEASURE(1.E-07),#998,
  'distance_accuracy_value','confusion accuracy');
#1002 = PRODUCT_RELATED_PRODUCT_CATEGORY('part',$,(#7));
ENDSEC;
END-ISO-10303-21;
