ISO-10303-21;
HEADER;
FILE_DESCRIPTION(('Open CASCADE Model'),'2;1');
FILE_NAME('Open CASCADE Shape Model','2026-08-07T02:34:17',('Author'),(
    'Open CASCADE'),'Open CASCADE STEP processor 7.7','Open CASCADE 7.7'
  ,'Unknown');
FILE_SCHEMA(('AUTOMOTIVE_DESIGN { 1 0 10303 214 1 1 1 1 }'));
ENDSEC;
DATA;
#1 = APPLICATION_PROTOCOL_DEFINITION('international standard',
  'automotive_design',2000,#2);
#2 = APPLICATION_CONTEXT(
  'core data for automotive mechanical design processes');
#3 = SHAPE_DEFINITION_REPRESENTATION(#4,#10);
#4 = PRODUCT_DEFINITION_SHAPE('','',#5);
#5 = PRODUCT_DEFINITION('design','',#6,#9);
#6 = PRODUCT_DEFINITION_FORMATION('','',#7);
#7 = PRODUCT('Open CASCADE STEP translator 7.7 31',
  'Open CASCADE STEP translator 7.7 31','',(#8));
#8 = PRODUCT_CONTEXT('',#2,'mechanical');
#9 = PRODUCT_DEFINITION_CONTEXT('part definition',#2,'design');
#10 = ADVANCED_BREP_SHAPE_REPRESENTATION('',(#11,#15),#1396);
#11 = AXIS2_PLACEMENT_3D('',#12,#13,#14);
#12 = CARTESIAN_POINT('',(0.,0.,0.));
#13 = DIRECTION('',(0.,0.,1.));
#14 = DIRECTION('',(1.,0.,-0.));
#15 = MANIFOLD_SOLID_BREP('',#16);
#16 = CLOSED_SHELL('',(#17,#501,#557,#612,#667,#722,#777,#832,#867,#902,
    #937,#972,#1007,#1042,#1097,#1152,#1207,#1262,#1317,#1372,#1376,
    #1380,#1384,#1388,#1392));
#17 = ADVANCED_FACE('',(#18,#236,#322,#415),#33,.T.);
#18 = FACE_BOUND('',#19,.T.);
#19 = EDGE_LOOP('',(#20,#51,#78,#79,#135,#159,#186,#187));
#20 = ORIENTED_EDGE('',*,*,#21,.F.);
#21 = EDGE_CURVE('',#22,#24,#26,.T.);
#22 = VERTEX_POINT('',#23);
#23 = CARTESIAN_POINT('',(7.500000000001,-2.053763066744E-15,
    -18.54049621773));
#24 = VERTEX_POINT('',#25);
#25 = CARTESIAN_POINT('',(18.540496217739,-2.270555934766E-15,-7.5));
#26 = SEAM_CURVE('',#27,(#32,#44),.PCURVE_S1.);
#27 = CIRCLE('',#28,20.);
#28 = AXIS2_PLACEMENT_3D('',#29,#30,#31);
#29 = CARTESIAN_POINT('',(0.,0.,0.));
#30 = DIRECTION('',(-2.449293598295E-16,-1.,0.));
#31 = DIRECTION('',(1.,-2.449293598295E-16,0.));
#32 = PCURVE('',#33,#38);
#33 = SPHERICAL_SURFACE('',#34,20.);
#34 = AXIS2_PLACEMENT_3D('',#35,#36,#37);
#35 = CARTESIAN_POINT('',(0.,0.,0.));
#36 = DIRECTION('',(0.,0.,1.));
#37 = DIRECTION('',(1.,0.,0.));
#38 = DEFINITIONAL_REPRESENTATION('',(#39),#43);
#39 = LINE('',#40,#41);
#40 = CARTESIAN_POINT('',(0.,-6.28318530718));
#41 = VECTOR('',#42,1.);
#42 = DIRECTION('',(0.,1.));
#43 = ( GEOMETRIC_REPRESENTATION_CONTEXT(2) 
PARAMETRIC_REPRESENTATION_CONTEXT() REPRESENTATION_CONTEXT('2D SPACE',''
  ) );
#44 = PCURVE('',#33,#45);
#45 = DEFINITIONAL_REPRESENTATION('',(#46),#50);
#46 = LINE('',#47,#48);
#47 = CARTESIAN_POINT('',(6.28318530718,-6.28318530718));
#48 = VECTOR('',#49,1.);
#49 = DIRECTION('',(0.,1.));
#50 = ( GEOMETRIC_REPRESENTATION_CONTEXT(2) 
PARAMETRIC_REPRESENTATION_CONTEXT() REPRESENTATION_CONTEXT('2D SPACE',''
  ) );
#51 = ORIENTED_EDGE('',*,*,#52,.T.);
#52 = EDGE_CURVE('',#22,#22,#53,.T.);
#53 = SURFACE_CURVE('',#54,(#59,#66),.PCURVE_S1.);
#54 = CIRCLE('',#55,7.5);
#55 = AXIS2_PLACEMENT_3D('',#56,#57,#58);
#56 = CARTESIAN_POINT('',(0.,-2.270555934766E-15,-18.54049621773));
#57 = DIRECTION('',(-0.,1.224646799147E-16,1.));
#58 = DIRECTION('',(0.,-1.,1.224646799147E-16));
#59 = PCURVE('',#33,#60);
#60 = DEFINITIONAL_REPRESENTATION('',(#61),#65);
#61 = LINE('',#62,#63);
#62 = CARTESIAN_POINT('',(-1.570796326795,-1.186399552299));
#63 = VECTOR('',#64,1.);
#64 = DIRECTION('',(1.,0.));
#65 = ( GEOMETRIC_REPRESENTATION_CONTEXT(2) 
PARAMETRIC_REPRESENTATION_CONTEXT() REPRESENTATION_CONTEXT('2D SPACE',''
  ) );
#66 = PCURVE('',#67,#72);
#67 = CYLINDRICAL_SURFACE('',#68,7.5);
#68 = AXIS2_PLACEMENT_3D('',#69,#70,#71);
#69 = CARTESIAN_POINT('',(0.,0.,0.));
#70 = DIRECTION('',(-0.,1.224646799147E-16,1.));
#71 = DIRECTION('',(1.,0.,0.));
#72 = DEFINITIONAL_REPRESENTATION('',(#73),#77);
#73 = LINE('',#74,#75);
#74 = CARTESIAN_POINT('',(-7.853981633974,-18.54049621773));
#75 = VECTOR('',#76,1.);
#76 = DIRECTION('',(1.,-0.));
#77 = ( GEOMETRIC_REPRESENTATION_CONTEXT(2) 
PARAMETRIC_REPRESENTATION_CONTEXT() REPRESENTATION_CONTEXT('2D SPACE',''
  ) );
#78 = ORIENTED_EDGE('',*,*,#21,.T.);
#79 = ORIENTED_EDGE('',*,*,#80,.T.);
#80 = EDGE_CURVE('',#24,#81,#83,.T.);
#81 = VERTEX_POINT('',#82);
#82 = CARTESIAN_POINT('',(18.540496217739,-4.541111869532E-15,7.5));
#83 = SURFACE_CURVE('',#84,(#89,#123),.PCURVE_S1.);
#84 = CIRCLE('',#85,7.5);
#85 = AXIS2_PLACEMENT_3D('',#86,#87,#88);
#86 = CARTESIAN_POINT('',(18.540496217739,0.,2.058408578891E-15));
#87 = DIRECTION('',(-1.,-0.,-1.110223024625E-16));
#88 = DIRECTION('',(1.110223024625E-16,0.,-1.));
#89 = PCURVE('',#33,#90);
#90 = DEFINITIONAL_REPRESENTATION('',(#91),#122);
#91 = B_SPLINE_CURVE_WITH_KNOTS('',8,(#92,#93,#94,#95,#96,#97,#98,#99,
    #100,#101,#102,#103,#104,#105,#106,#107,#108,#109,#110,#111,#112,
    #113,#114,#115,#116,#117,#118,#119,#120,#121),.UNSPECIFIED.,.F.,.F.,
  (9,7,7,7,9),(0.,0.785398163397,1.374446785946,2.258019719768,
    3.14159265359),.UNSPECIFIED.);
#92 = CARTESIAN_POINT('',(6.28318530718,-0.384396774496));
#93 = CARTESIAN_POINT('',(6.243471657149,-0.384396774496));
#94 = CARTESIAN_POINT('',(6.203758021338,-0.379940898101));
#95 = CARTESIAN_POINT('',(6.164818444735,-0.371029285536));
#96 = CARTESIAN_POINT('',(6.127427476628,-0.357797919224));
#97 = CARTESIAN_POINT('',(6.092270284975,-0.340521777214));
#98 = CARTESIAN_POINT('',(6.059854585503,-0.319572925096));
#99 = CARTESIAN_POINT('',(6.030543631019,-0.295374087963));
#100 = CARTESIAN_POINT('',(5.985117204009,-0.248125839103));
#101 = CARTESIAN_POINT('',(5.967534799415,-0.226301493333));
#102 = CARTESIAN_POINT('',(5.951943340492,-0.203091754408));
#103 = CARTESIAN_POINT('',(5.938411447884,-0.178694785021));
#104 = CARTESIAN_POINT('',(5.926980415307,-0.153310841196));
#105 = CARTESIAN_POINT('',(5.917674086756,-0.127139327891));
#106 = CARTESIAN_POINT('',(5.910506763336,-0.100378157064));
#107 = CARTESIAN_POINT('',(5.897955420279,-3.249348649936E-02));
#108 = CARTESIAN_POINT('',(5.895254915094,9.12088674815E-03));
#109 = CARTESIAN_POINT('',(5.89741103613,5.095414788263E-02));
#110 = CARTESIAN_POINT('',(5.904418743554,9.234655843613E-02));
#111 = CARTESIAN_POINT('',(5.916266787382,0.132640369122));
#112 = CARTESIAN_POINT('',(5.93292990898,0.171165190487));
#113 = CARTESIAN_POINT('',(5.954301181292,0.207238119627));
#114 = CARTESIAN_POINT('',(6.005938720599,0.273163099976));
#115 = CARTESIAN_POINT('',(6.036204926333,0.303015177039));
#116 = CARTESIAN_POINT('',(6.070658774003,0.329097999651));
#117 = CARTESIAN_POINT('',(6.108883690867,0.350778137956));
#118 = CARTESIAN_POINT('',(6.150253688215,0.367478665745));
#119 = CARTESIAN_POINT('',(6.193829653563,0.378757287248));
#120 = CARTESIAN_POINT('',(6.238507450895,0.384396774496));
#121 = CARTESIAN_POINT('',(6.28318530718,0.384396774496));
#122 = ( GEOMETRIC_REPRESENTATION_CONTEXT(2) 
PARAMETRIC_REPRESENTATION_CONTEXT() REPRESENTATION_CONTEXT('2D SPACE',''
  ) );
#123 = PCURVE('',#124,#129);
#124 = CYLINDRICAL_SURFACE('',#125,7.5);
#125 = AXIS2_PLACEMENT_3D('',#126,#127,#128);
#126 = CARTESIAN_POINT('',(0.,0.,0.));
#127 = DIRECTION('',(-1.,-0.,-1.110223024625E-16));
#128 = DIRECTION('',(1.110223024625E-16,0.,-1.));
#129 = DEFINITIONAL_REPRESENTATION('',(#130),#134);
#130 = LINE('',#131,#132);
#131 = CARTESIAN_POINT('',(-6.28318530718,-18.54049621773));
#132 = VECTOR('',#133,1.);
#133 = DIRECTION('',(1.,-0.));
#134 = ( GEOMETRIC_REPRESENTATION_CONTEXT(2) 
PARAMETRIC_REPRESENTATION_CONTEXT() REPRESENTATION_CONTEXT('2D SPACE',''
  ) );
#135 = ORIENTED_EDGE('',*,*,#136,.T.);
#136 = EDGE_CURVE('',#81,#137,#139,.T.);
#137 = VERTEX_POINT('',#138);
#138 = CARTESIAN_POINT('',(7.499999999999,-9.184850993604E-16,
    18.54049621774));
#139 = SEAM_CURVE('',#140,(#145,#152),.PCURVE_S1.);
#140 = CIRCLE('',#141,20.);
#141 = AXIS2_PLACEMENT_3D('',#142,#143,#144);
#142 = CARTESIAN_POINT('',(0.,0.,0.));
#143 = DIRECTION('',(-2.449293598295E-16,-1.,0.));
#144 = DIRECTION('',(1.,-2.449293598295E-16,0.));
#145 = PCURVE('',#33,#146);
#146 = DEFINITIONAL_REPRESENTATION('',(#147),#151);
#147 = LINE('',#148,#149);
#148 = CARTESIAN_POINT('',(0.,-6.28318530718));
#149 = VECTOR('',#150,1.);
#150 = DIRECTION('',(0.,1.));
#151 = ( GEOMETRIC_REPRESENTATION_CONTEXT(2) 
PARAMETRIC_REPRESENTATION_CONTEXT() REPRESENTATION_CONTEXT('2D SPACE',''
  ) );
#152 = PCURVE('',#33,#153);
#153 = DEFINITIONAL_REPRESENTATION('',(#154),#158);
#154 = LINE('',#155,#156);
#155 = CARTESIAN_POINT('',(6.28318530718,-6.28318530718));
#156 = VECTOR('',#157,1.);
#157 = DIRECTION('',(0.,1.));
#158 = ( GEOMETRIC_REPRESENTATION_CONTEXT(2) 
PARAMETRIC_REPRESENTATION_CONTEXT() REPRESENTATION_CONTEXT('2D SPACE',''
  ) );
#159 = ORIENTED_EDGE('',*,*,#160,.T.);
#160 = EDGE_CURVE('',#137,#137,#161,.T.);
#161 = SURFACE_CURVE('',#162,(#167,#174),.PCURVE_S1.);
#162 = CIRCLE('',#163,7.5);
#163 = AXIS2_PLACEMENT_3D('',#164,#165,#166);
#164 = CARTESIAN_POINT('',(0.,0.,18.540496217739));
#165 = DIRECTION('',(0.,-0.,-1.));
#166 = DIRECTION('',(0.,1.,-0.));
#167 = PCURVE('',#33,#168);
#168 = DEFINITIONAL_REPRESENTATION('',(#169),#173);
#169 = LINE('',#170,#171);
#170 = CARTESIAN_POINT('',(7.853981633974,1.186399552299));
#171 = VECTOR('',#172,1.);
#172 = DIRECTION('',(-1.,0.));
#173 = ( GEOMETRIC_REPRESENTATION_CONTEXT(2) 
PARAMETRIC_REPRESENTATION_CONTEXT() REPRESENTATION_CONTEXT('2D SPACE',''
  ) );
#174 = PCURVE('',#175,#180);
#175 = CYLINDRICAL_SURFACE('',#176,7.5);
#176 = AXIS2_PLACEMENT_3D('',#177,#178,#179);
#177 = CARTESIAN_POINT('',(0.,0.,0.));
#178 = DIRECTION('',(-0.,-0.,-1.));
#179 = DIRECTION('',(1.,0.,0.));
#180 = DEFINITIONAL_REPRESENTATION('',(#181),#185);
#181 = LINE('',#182,#183);
#182 = CARTESIAN_POINT('',(-7.853981633974,-18.54049621773));
#183 = VECTOR('',#184,1.);
#184 = DIRECTION('',(1.,-0.));
#185 = ( GEOMETRIC_REPRESENTATION_CONTEXT(2) 
PARAMETRIC_REPRESENTATION_CONTEXT() REPRESENTATION_CONTEXT('2D SPACE',''
  ) );
#186 = ORIENTED_EDGE('',*,*,#136,.F.);
#187 = ORIENTED_EDGE('',*,*,#188,.T.);
#188 = EDGE_CURVE('',#81,#24,#189,.T.);
#189 = SURFACE_CURVE('',#190,(#195,#229),.PCURVE_S1.);
#190 = CIRCLE('',#191,7.5);
#191 = AXIS2_PLACEMENT_3D('',#192,#193,#194);
#192 = CARTESIAN_POINT('',(18.540496217739,0.,2.058408578891E-15));
#193 = DIRECTION('',(-1.,-0.,-1.110223024625E-16));
#194 = DIRECTION('',(1.110223024625E-16,0.,-1.));
#195 = PCURVE('',#33,#196);
#196 = DEFINITIONAL_REPRESENTATION('',(#197),#228);
#197 = B_SPLINE_CURVE_WITH_KNOTS('',8,(#198,#199,#200,#201,#202,#203,
    #204,#205,#206,#207,#208,#209,#210,#211,#212,#213,#214,#215,#216,
    #217,#218,#219,#220,#221,#222,#223,#224,#225,#226,#227),
  .UNSPECIFIED.,.F.,.F.,(9,7,7,7,9),(3.14159265359,3.926990816987,
    4.516039439535,5.399612373357,6.28318530718),.UNSPECIFIED.);
#198 = CARTESIAN_POINT('',(0.,0.384396774496));
#199 = CARTESIAN_POINT('',(3.971365003061E-02,0.384396774496));
#200 = CARTESIAN_POINT('',(7.942728584152E-02,0.379940898101));
#201 = CARTESIAN_POINT('',(0.118366862443,0.371029285536));
#202 = CARTESIAN_POINT('',(0.155757830554,0.357797919223));
#203 = CARTESIAN_POINT('',(0.190915022203,0.340521777215));
#204 = CARTESIAN_POINT('',(0.223330721677,0.319572925096));
#205 = CARTESIAN_POINT('',(0.252641676161,0.295374087963));
#206 = CARTESIAN_POINT('',(0.29806810317,0.248125839103));
#207 = CARTESIAN_POINT('',(0.315650507764,0.226301493332));
#208 = CARTESIAN_POINT('',(0.331241966688,0.203091754408));
#209 = CARTESIAN_POINT('',(0.344773859296,0.178694785021));
#210 = CARTESIAN_POINT('',(0.356204891873,0.153310841196));
#211 = CARTESIAN_POINT('',(0.365511220424,0.127139327891));
#212 = CARTESIAN_POINT('',(0.372678543843,0.100378157064));
#213 = CARTESIAN_POINT('',(0.385229886901,3.249348649936E-02));
#214 = CARTESIAN_POINT('',(0.387930392086,-9.120886748164E-03));
#215 = CARTESIAN_POINT('',(0.385774271047,-5.095414788252E-02));
#216 = CARTESIAN_POINT('',(0.378766563628,-9.234655843659E-02));
#217 = CARTESIAN_POINT('',(0.366918519794,-0.132640369122));
#218 = CARTESIAN_POINT('',(0.350255398201,-0.171165190487));
#219 = CARTESIAN_POINT('',(0.328884125888,-0.207238119627));
#220 = CARTESIAN_POINT('',(0.277246586581,-0.273163099976));
#221 = CARTESIAN_POINT('',(0.246980380846,-0.303015177038));
#222 = CARTESIAN_POINT('',(0.212526533176,-0.329097999653));
#223 = CARTESIAN_POINT('',(0.174301616312,-0.350778137952));
#224 = CARTESIAN_POINT('',(0.132931618965,-0.367478665748));
#225 = CARTESIAN_POINT('',(8.935565361674E-02,-0.378757287248));
#226 = CARTESIAN_POINT('',(4.467785628443E-02,-0.384396774496));
#227 = CARTESIAN_POINT('',(9.907880442614E-17,-0.384396774496));
#228 = ( GEOMETRIC_REPRESENTATION_CONTEXT(2) 
PARAMETRIC_REPRESENTATION_CONTEXT() REPRESENTATION_CONTEXT('2D SPACE',''
  ) );
#229 = PCURVE('',#124,#230);
#230 = DEFINITIONAL_REPRESENTATION('',(#231),#235);
#231 = LINE('',#232,#233);
#232 = CARTESIAN_POINT('',(-6.28318530718,-18.54049621773));
#233 = VECTOR('',#234,1.);
#234 = DIRECTION('',(1.,-0.));
#235 = ( GEOMETRIC_REPRESENTATION_CONTEXT(2) 
PARAMETRIC_REPRESENTATION_CONTEXT() REPRESENTATION_CONTEXT('2D SPACE',''
  ) );
#236 = FACE_BOUND('',#237,.T.);
#237 = EDGE_LOOP('',(#238));
#238 = ORIENTED_EDGE('',*,*,#239,.T.);
#239 = EDGE_CURVE('',#240,#240,#242,.T.);
#240 = VERTEX_POINT('',#241);
#241 = CARTESIAN_POINT('',(7.5,18.540496217739,2.058408578891E-15));
#242 = SURFACE_CURVE('',#243,(#248,#310),.PCURVE_S1.);
#243 = CIRCLE('',#244,7.5);
#244 = AXIS2_PLACEMENT_3D('',#245,#246,#247);
#245 = CARTESIAN_POINT('',(0.,18.540496217739,2.058408578891E-15));
#246 = DIRECTION('',(0.,-1.,-1.110223024625E-16));
#247 = DIRECTION('',(0.,1.110223024625E-16,-1.));
#248 = PCURVE('',#33,#249);
#249 = DEFINITIONAL_REPRESENTATION('',(#250),#309);
#250 = B_SPLINE_CURVE_WITH_KNOTS('',8,(#251,#252,#253,#254,#255,#256,
    #257,#258,#259,#260,#261,#262,#263,#264,#265,#266,#267,#268,#269,
    #270,#271,#272,#273,#274,#275,#276,#277,#278,#279,#280,#281,#282,
    #283,#284,#285,#286,#287,#288,#289,#290,#291,#292,#293,#294,#295,
    #296,#297,#298,#299,#300,#301,#302,#303,#304,#305,#306,#307,#308),
  .UNSPECIFIED.,.F.,.F.,(9,7,7,7,7,7,7,7,9),(1.570796326795,
    2.356194490192,3.043417883165,3.644738352016,4.697049172506,
    5.486282287873,6.078207124398,6.966094379186,7.853981633974),
  .UNSPECIFIED.);
#251 = CARTESIAN_POINT('',(1.186399552299,7.995830146054E-17));
#252 = CARTESIAN_POINT('',(1.186399552299,3.681553890926E-02));
#253 = CARTESIAN_POINT('',(1.190228749181,7.363108595479E-02));
#254 = CARTESIAN_POINT('',(1.197887528041,0.109981920852));
#255 = CARTESIAN_POINT('',(1.209362529626,0.145403499536));
#256 = CARTESIAN_POINT('',(1.224630619478,0.179427211742));
#257 = CARTESIAN_POINT('',(1.243633723439,0.211576928136));
#258 = CARTESIAN_POINT('',(1.266238734052,0.241376089266));
#259 = CARTESIAN_POINT('',(1.314909905848,0.291999213044));
#260 = CARTESIAN_POINT('',(1.340190265638,0.313479456487));
#261 = CARTESIAN_POINT('',(1.36787140061,0.332514521578));
#262 = CARTESIAN_POINT('',(1.39771978517,0.348818795116));
#263 = CARTESIAN_POINT('',(1.429418833027,0.362135046077));
#264 = CARTESIAN_POINT('',(1.462553445742,0.372255827468));
#265 = CARTESIAN_POINT('',(1.496639365703,0.379046299192));
#266 = CARTESIAN_POINT('',(1.56137905452,0.385427612164));
#267 = CARTESIAN_POINT('',(1.591929212689,0.385812297593));
#268 = CARTESIAN_POINT('',(1.622476586593,0.383565780819));
#269 = CARTESIAN_POINT('',(1.652664397939,0.378695651725));
#270 = CARTESIAN_POINT('',(1.682144283754,0.371259328811));
#271 = CARTESIAN_POINT('',(1.710601148389,0.361359181846));
#272 = CARTESIAN_POINT('',(1.73776932428,0.349132813116));
#273 = CARTESIAN_POINT('',(1.808337843918,0.309560360473));
#274 = CARTESIAN_POINT('',(1.848630331328,0.277751915507));
#275 = CARTESIAN_POINT('',(1.883139945525,0.240188667166));
#276 = CARTESIAN_POINT('',(1.911152226077,0.197981421234));
#277 = CARTESIAN_POINT('',(1.932428830285,0.152307863214));
#278 = CARTESIAN_POINT('',(1.946875180892,0.104298586));
#279 = CARTESIAN_POINT('',(1.954450755054,5.507431632091E-02));
#280 = CARTESIAN_POINT('',(1.955678284677,-3.123932760303E-02));
#281 = CARTESIAN_POINT('',(1.952337756137,-6.828588382415E-02));
#282 = CARTESIAN_POINT('',(1.945129013287,-0.104915864296));
#283 = CARTESIAN_POINT('',(1.934064470705,-0.140658160468));
#284 = CARTESIAN_POINT('',(1.919165418812,-0.175037848548));
#285 = CARTESIAN_POINT('',(1.900486464044,-0.207572179333));
#286 = CARTESIAN_POINT('',(1.878155820094,-0.237777078218));
#287 = CARTESIAN_POINT('',(1.833114146123,-0.285757389152));
#288 = CARTESIAN_POINT('',(1.811893820285,-0.304752366477));
#289 = CARTESIAN_POINT('',(1.788859682963,-0.321985962025));
#290 = CARTESIAN_POINT('',(1.764150324331,-0.337273073029));
#291 = CARTESIAN_POINT('',(1.737949637138,-0.350442378507));
#292 = CARTESIAN_POINT('',(1.710491682105,-0.361346265221));
#293 = CARTESIAN_POINT('',(1.682056091564,-0.369870961575));
#294 = CARTESIAN_POINT('',(1.609289203636,-0.385050250772));
#295 = CARTESIAN_POINT('',(1.564118937555,-0.388638560792));
#296 = CARTESIAN_POINT('',(1.518474039944,-0.38645883614));
#297 = CARTESIAN_POINT('',(1.473525502117,-0.378462061742));
#298 = CARTESIAN_POINT('',(1.430470154818,-0.364850793231));
#299 = CARTESIAN_POINT('',(1.390252309159,-0.346054523108));
#300 = CARTESIAN_POINT('',(1.353557753205,-0.322621507054));
#301 = CARTESIAN_POINT('',(1.288163829482,-0.267718666087));
#302 = CARTESIAN_POINT('',(1.259464424047,-0.236248804568));
#303 = CARTESIAN_POINT('',(1.235236857642,-0.201378299423));
#304 = CARTESIAN_POINT('',(1.215742852458,-0.163793324815));
#305 = CARTESIAN_POINT('',(1.201080979781,-0.124187849617));
#306 = CARTESIAN_POINT('',(1.191293415425,-8.323942085016E-02));
#307 = CARTESIAN_POINT('',(1.186399552299,-4.161971506819E-02));
#308 = CARTESIAN_POINT('',(1.186399552299,-1.189020847552E-17));
#309 = ( GEOMETRIC_REPRESENTATION_CONTEXT(2) 
PARAMETRIC_REPRESENTATION_CONTEXT() REPRESENTATION_CONTEXT('2D SPACE',''
  ) );
#310 = PCURVE('',#311,#316);
#311 = CYLINDRICAL_SURFACE('',#312,7.5);
#312 = AXIS2_PLACEMENT_3D('',#313,#314,#315);
#313 = CARTESIAN_POINT('',(0.,0.,0.));
#314 = DIRECTION('',(-0.,-1.,-1.110223024625E-16));
#315 = DIRECTION('',(1.,0.,0.));
#316 = DEFINITIONAL_REPRESENTATION('',(#317),#321);
#317 = LINE('',#318,#319);
#318 = CARTESIAN_POINT('',(-7.853981633974,-18.54049621773));
#319 = VECTOR('',#320,1.);
#320 = DIRECTION('',(1.,-0.));
#321 = ( GEOMETRIC_REPRESENTATION_CONTEXT(2) 
PARAMETRIC_REPRESENTATION_CONTEXT() REPRESENTATION_CONTEXT('2D SPACE',''
  ) );
#322 = FACE_BOUND('',#323,.T.);
#323 = EDGE_LOOP('',(#324));
#324 = ORIENTED_EDGE('',*,*,#325,.T.);
#325 = EDGE_CURVE('',#326,#326,#328,.T.);
#326 = VERTEX_POINT('',#327);
#327 = CARTESIAN_POINT('',(-18.54049621773,0.,7.5));
#328 = SURFACE_CURVE('',#329,(#334,#403),.PCURVE_S1.);
#329 = CIRCLE('',#330,7.5);
#330 = AXIS2_PLACEMENT_3D('',#331,#332,#333);
#331 = CARTESIAN_POINT('',(-18.54049621773,0.,2.058408578891E-15));
#332 = DIRECTION('',(1.,0.,-1.110223024625E-16));
#333 = DIRECTION('',(1.110223024625E-16,0.,1.));
#334 = PCURVE('',#33,#335);
#335 = DEFINITIONAL_REPRESENTATION('',(#336),#402);
#336 = B_SPLINE_CURVE_WITH_KNOTS('',8,(#337,#338,#339,#340,#341,#342,
    #343,#344,#345,#346,#347,#348,#349,#350,#351,#352,#353,#354,#355,
    #356,#357,#358,#359,#360,#361,#362,#363,#364,#365,#366,#367,#368,
    #369,#370,#371,#372,#373,#374,#375,#376,#377,#378,#379,#380,#381,
    #382,#383,#384,#385,#386,#387,#388,#389,#390,#391,#392,#393,#394,
    #395,#396,#397,#398,#399,#400,#401),.UNSPECIFIED.,.T.,.F.,(9,7,7,7,7
    ,7,7,7,7,9),(0.,0.785398163397,1.47262155637,2.073942025221,
    2.600097435466,3.06048341943,3.866158891368,4.470415495321,
    5.37680040125,6.28318530718),.UNSPECIFIED.);
#337 = CARTESIAN_POINT('',(3.14159265359,0.384396774496));
#338 = CARTESIAN_POINT('',(3.18130630362,0.384396774496));
#339 = CARTESIAN_POINT('',(3.22101993943,0.379940898101));
#340 = CARTESIAN_POINT('',(3.259959516025,0.371029285536));
#341 = CARTESIAN_POINT('',(3.297350484147,0.357797919226));
#342 = CARTESIAN_POINT('',(3.332507675785,0.340521777215));
#343 = CARTESIAN_POINT('',(3.364923375265,0.319572925096));
#344 = CARTESIAN_POINT('',(3.394234329751,0.295374087963));
#345 = CARTESIAN_POINT('',(3.442905501547,0.244750964185));
#346 = CARTESIAN_POINT('',(3.463051587684,0.218982961746));
#347 = CARTESIAN_POINT('',(3.480463904606,0.191372304469));
#348 = CARTESIAN_POINT('',(3.495043305748,0.162235950201));
#349 = CARTESIAN_POINT('',(3.506738067741,0.131892681543));
#350 = CARTESIAN_POINT('',(3.515522803376,0.100658093621));
#351 = CARTESIAN_POINT('',(3.521383314682,6.8844866501E-02));
#352 = CARTESIAN_POINT('',(3.526878989361,8.694571554148E-03));
#353 = CARTESIAN_POINT('',(3.527200719953,-1.957997898726E-02));
#354 = CARTESIAN_POINT('',(3.525275958199,-4.784993880474E-02));
#355 = CARTESIAN_POINT('',(3.521105880711,-7.590748551118E-02));
#356 = CARTESIAN_POINT('',(3.514694612479,-0.103544003313));
#357 = CARTESIAN_POINT('',(3.506051345011,-0.130549221593));
#358 = CARTESIAN_POINT('',(3.495196375594,-0.156711466712));
#359 = CARTESIAN_POINT('',(3.470773923249,-0.203788142331));
#360 = CARTESIAN_POINT('',(3.457715102032,-0.224949798788));
#361 = CARTESIAN_POINT('',(3.443022224785,-0.245162283222));
#362 = CARTESIAN_POINT('',(3.426735164428,-0.264284252281));
#363 = CARTESIAN_POINT('',(3.408910484065,-0.282175802748));
#364 = CARTESIAN_POINT('',(3.389627619496,-0.298701197033));
#365 = CARTESIAN_POINT('',(3.36899380012,-0.313732951097));
#366 = CARTESIAN_POINT('',(3.328026741411,-0.338903027858));
#367 = CARTESIAN_POINT('',(3.307978340342,-0.349418134734));
#368 = CARTESIAN_POINT('',(3.287090344608,-0.358625983654));
#369 = CARTESIAN_POINT('',(3.265470307675,-0.366457771824));
#370 = CARTESIAN_POINT('',(3.24324273761,-0.372855312354));
#371 = CARTESIAN_POINT('',(3.220547052903,-0.377773500751));
#372 = CARTESIAN_POINT('',(3.197533247336,-0.381182158219));
#373 = CARTESIAN_POINT('',(3.133793792777,-0.386366165451));
#374 = CARTESIAN_POINT('',(3.092729581773,-0.384999080461));
#375 = CARTESIAN_POINT('',(3.051988230623,-0.378890443264));
#376 = CARTESIAN_POINT('',(3.012434950451,-0.368112611244));
#377 = CARTESIAN_POINT('',(2.974880103782,-0.35290149556));
#378 = CARTESIAN_POINT('',(2.939947435248,-0.333620770345));
#379 = CARTESIAN_POINT('',(2.908092726622,-0.310703495893));
#380 = CARTESIAN_POINT('',(2.858289574239,-0.265061687431));
#381 = CARTESIAN_POINT('',(2.83885547927,-0.243721290828));
#382 = CARTESIAN_POINT('',(2.821465708355,-0.220800628658));
#383 = CARTESIAN_POINT('',(2.806210761068,-0.196511456904));
#384 = CARTESIAN_POINT('',(2.793146419179,-0.171069658658));
#385 = CARTESIAN_POINT('',(2.782305472718,-0.144690964398));
#386 = CARTESIAN_POINT('',(2.773707850534,-0.117589565384));
#387 = CARTESIAN_POINT('',(2.757850292256,-4.856195222417E-02));
#388 = CARTESIAN_POINT('',(2.753408644125,-5.998675170332E-03));
#389 = CARTESIAN_POINT('',(2.754078057775,3.69923210402E-02));
#390 = CARTESIAN_POINT('',(2.75985496328,7.969808909252E-02));
#391 = CARTESIAN_POINT('',(2.770729865577,0.12141037598));
#392 = CARTESIAN_POINT('',(2.786684498726,0.161408118946));
#393 = CARTESIAN_POINT('',(2.807620686684,0.1989543335));
#394 = CARTESIAN_POINT('',(2.858935044589,0.267715710731));
#395 = CARTESIAN_POINT('',(2.889313133633,0.298930904646));
#396 = CARTESIAN_POINT('',(2.924152650325,0.326266269774));
#397 = CARTESIAN_POINT('',(2.963027752392,0.349031722665));
#398 = CARTESIAN_POINT('',(3.005288062639,0.366593847874));
#399 = CARTESIAN_POINT('',(3.049930044905,0.3784623232));
#400 = CARTESIAN_POINT('',(3.095761310171,0.384396774496));
#401 = CARTESIAN_POINT('',(3.14159265359,0.384396774496));
#402 = ( GEOMETRIC_REPRESENTATION_CONTEXT(2) 
PARAMETRIC_REPRESENTATION_CONTEXT() REPRESENTATION_CONTEXT('2D SPACE',''
  ) );
#403 = PCURVE('',#404,#409);
#404 = CYLINDRICAL_SURFACE('',#405,7.5);
#405 = AXIS2_PLACEMENT_3D('',#406,#407,#408);
#406 = CARTESIAN_POINT('',(0.,0.,0.));
#407 = DIRECTION('',(1.,-0.,-1.110223024625E-16));
#408 = DIRECTION('',(1.110223024625E-16,0.,1.));
#409 = DEFINITIONAL_REPRESENTATION('',(#410),#414);
#410 = LINE('',#411,#412);
#411 = CARTESIAN_POINT('',(-6.28318530718,-18.54049621773));
#412 = VECTOR('',#413,1.);
#413 = DIRECTION('',(1.,-0.));
#414 = ( GEOMETRIC_REPRESENTATION_CONTEXT(2) 
PARAMETRIC_REPRESENTATION_CONTEXT() REPRESENTATION_CONTEXT('2D SPACE',''
  ) );
#415 = FACE_BOUND('',#416,.T.);
#416 = EDGE_LOOP('',(#417));
#417 = ORIENTED_EDGE('',*,*,#418,.T.);
#418 = EDGE_CURVE('',#419,#419,#421,.T.);
#419 = VERTEX_POINT('',#420);
#420 = CARTESIAN_POINT('',(7.5,-18.54049621773,2.058408578891E-15));
#421 = SURFACE_CURVE('',#422,(#427,#489),.PCURVE_S1.);
#422 = CIRCLE('',#423,7.5);
#423 = AXIS2_PLACEMENT_3D('',#424,#425,#426);
#424 = CARTESIAN_POINT('',(0.,-18.54049621773,2.058408578891E-15));
#425 = DIRECTION('',(-0.,1.,-1.110223024625E-16));
#426 = DIRECTION('',(0.,1.110223024625E-16,1.));
#427 = PCURVE('',#33,#428);
#428 = DEFINITIONAL_REPRESENTATION('',(#429),#488);
#429 = B_SPLINE_CURVE_WITH_KNOTS('',8,(#430,#431,#432,#433,#434,#435,
    #436,#437,#438,#439,#440,#441,#442,#443,#444,#445,#446,#447,#448,
    #449,#450,#451,#452,#453,#454,#455,#456,#457,#458,#459,#460,#461,
    #462,#463,#464,#465,#466,#467,#468,#469,#470,#471,#472,#473,#474,
    #475,#476,#477,#478,#479,#480,#481,#482,#483,#484,#485,#486,#487),
  .UNSPECIFIED.,.F.,.F.,(9,7,7,7,7,7,7,7,9),(1.570796326795,
    2.356194490192,3.043417883165,3.644738352016,4.697049172506,
    5.486282287873,6.078207124398,6.966094379186,7.853981633974),
  .UNSPECIFIED.);
#430 = CARTESIAN_POINT('',(5.09678575488,1.258825564286E-16));
#431 = CARTESIAN_POINT('',(5.09678575488,-3.681553890926E-02));
#432 = CARTESIAN_POINT('',(5.092956557999,-7.363108595477E-02));
#433 = CARTESIAN_POINT('',(5.085297779139,-0.109981920852));
#434 = CARTESIAN_POINT('',(5.073822777554,-0.145403499536));
#435 = CARTESIAN_POINT('',(5.058554687702,-0.179427211742));
#436 = CARTESIAN_POINT('',(5.039551583741,-0.211576928136));
#437 = CARTESIAN_POINT('',(5.016946573128,-0.241376089266));
#438 = CARTESIAN_POINT('',(4.968275401332,-0.291999213044));
#439 = CARTESIAN_POINT('',(4.942995041541,-0.313479456488));
#440 = CARTESIAN_POINT('',(4.915313906553,-0.332514521577));
#441 = CARTESIAN_POINT('',(4.885465522002,-0.348818795118));
#442 = CARTESIAN_POINT('',(4.853766474131,-0.362135046076));
#443 = CARTESIAN_POINT('',(4.820631861438,-0.372255827468));
#444 = CARTESIAN_POINT('',(4.786545941476,-0.379046299192));
#445 = CARTESIAN_POINT('',(4.721806252659,-0.385427612164));
#446 = CARTESIAN_POINT('',(4.69125609449,-0.385812297593));
#447 = CARTESIAN_POINT('',(4.660708720587,-0.383565780818));
#448 = CARTESIAN_POINT('',(4.63052090924,-0.378695651725));
#449 = CARTESIAN_POINT('',(4.601041023425,-0.371259328811));
#450 = CARTESIAN_POINT('',(4.572584158791,-0.361359181846));
#451 = CARTESIAN_POINT('',(4.5454159829,-0.349132813116));
#452 = CARTESIAN_POINT('',(4.474847463262,-0.309560360473));
#453 = CARTESIAN_POINT('',(4.434554975852,-0.277751915507));
#454 = CARTESIAN_POINT('',(4.400045361637,-0.240188667166));
#455 = CARTESIAN_POINT('',(4.372033081108,-0.197981421236));
#456 = CARTESIAN_POINT('',(4.350756476886,-0.152307863213));
#457 = CARTESIAN_POINT('',(4.336310126288,-0.104298586001));
#458 = CARTESIAN_POINT('',(4.328734552125,-5.507431632091E-02));
#459 = CARTESIAN_POINT('',(4.327507022503,3.123932760303E-02));
#460 = CARTESIAN_POINT('',(4.330847551043,6.828588382417E-02));
#461 = CARTESIAN_POINT('',(4.338056293895,0.104915864296));
#462 = CARTESIAN_POINT('',(4.349120836475,0.140658160468));
#463 = CARTESIAN_POINT('',(4.364019888367,0.175037848548));
#464 = CARTESIAN_POINT('',(4.382698843136,0.207572179333));
#465 = CARTESIAN_POINT('',(4.405029487086,0.237777078218));
#466 = CARTESIAN_POINT('',(4.450071161056,0.285757389152));
#467 = CARTESIAN_POINT('',(4.471291486895,0.304752366477));
#468 = CARTESIAN_POINT('',(4.494325624217,0.321985962025));
#469 = CARTESIAN_POINT('',(4.519034982849,0.337273073029));
#470 = CARTESIAN_POINT('',(4.545235670042,0.350442378507));
#471 = CARTESIAN_POINT('',(4.572693625075,0.361346265221));
#472 = CARTESIAN_POINT('',(4.601129215616,0.369870961575));
#473 = CARTESIAN_POINT('',(4.673896103544,0.385050250772));
#474 = CARTESIAN_POINT('',(4.719066369624,0.388638560792));
#475 = CARTESIAN_POINT('',(4.764711267228,0.386458836139));
#476 = CARTESIAN_POINT('',(4.809659805043,0.378462061743));
#477 = CARTESIAN_POINT('',(4.852715152367,0.36485079323));
#478 = CARTESIAN_POINT('',(4.892932998021,0.346054523107));
#479 = CARTESIAN_POINT('',(4.929627553975,0.322621507054));
#480 = CARTESIAN_POINT('',(4.995021477698,0.267718666087));
#481 = CARTESIAN_POINT('',(5.023720883134,0.236248804568));
#482 = CARTESIAN_POINT('',(5.047948449521,0.201378299424));
#483 = CARTESIAN_POINT('',(5.067442454729,0.163793324815));
#484 = CARTESIAN_POINT('',(5.08210432739,0.124187849618));
#485 = CARTESIAN_POINT('',(5.09189189175,8.323942084988E-02));
#486 = CARTESIAN_POINT('',(5.09678575488,4.161971506819E-02));
#487 = CARTESIAN_POINT('',(5.09678575488,2.177310663646E-16));
#488 = ( GEOMETRIC_REPRESENTATION_CONTEXT(2) 
PARAMETRIC_REPRESENTATION_CONTEXT() REPRESENTATION_CONTEXT('2D SPACE',''
  ) );
#489 = PCURVE('',#490,#495);
#490 = CYLINDRICAL_SURFACE('',#491,7.5);
#491 = AXIS2_PLACEMENT_3D('',#492,#493,#494);
#492 = CARTESIAN_POINT('',(0.,0.,0.));
#493 = DIRECTION('',(-0.,1.,-1.110223024625E-16));
#494 = DIRECTION('',(1.,0.,0.));
#495 = DEFINITIONAL_REPRESENTATION('',(#496),#500);
#496 = LINE('',#497,#498);
#497 = CARTESIAN_POINT('',(-7.853981633974,-18.54049621773));
#498 = VECTOR('',#499,1.);
#499 = DIRECTION('',(1.,-0.));
#500 = ( GEOMETRIC_REPRESENTATION_CONTEXT(2) 
PARAMETRIC_REPRESENTATION_CONTEXT() REPRESENTATION_CONTEXT('2D SPACE',''
  ) );
#501 = ADVANCED_FACE('',(#502),#124,.T.);
#502 = FACE_BOUND('',#503,.F.);
#503 = EDGE_LOOP('',(#504,#505,#528,#555,#556));
#504 = ORIENTED_EDGE('',*,*,#188,.T.);
#505 = ORIENTED_EDGE('',*,*,#506,.T.);
#506 = EDGE_CURVE('',#24,#507,#509,.T.);
#507 = VERTEX_POINT('',#508);
#508 = CARTESIAN_POINT('',(50.,0.,-7.5));
#509 = SEAM_CURVE('',#510,(#514,#521),.PCURVE_S1.);
#510 = LINE('',#511,#512);
#511 = CARTESIAN_POINT('',(8.326672684689E-16,0.,-7.5));
#512 = VECTOR('',#513,1.);
#513 = DIRECTION('',(1.,0.,1.110223024625E-16));
#514 = PCURVE('',#124,#515);
#515 = DEFINITIONAL_REPRESENTATION('',(#516),#520);
#516 = LINE('',#517,#518);
#517 = CARTESIAN_POINT('',(-6.28318530718,0.));
#518 = VECTOR('',#519,1.);
#519 = DIRECTION('',(-0.,-1.));
#520 = ( GEOMETRIC_REPRESENTATION_CONTEXT(2) 
PARAMETRIC_REPRESENTATION_CONTEXT() REPRESENTATION_CONTEXT('2D SPACE',''
  ) );
#521 = PCURVE('',#124,#522);
#522 = DEFINITIONAL_REPRESENTATION('',(#523),#527);
#523 = LINE('',#524,#525);
#524 = CARTESIAN_POINT('',(-0.,0.));
#525 = VECTOR('',#526,1.);
#526 = DIRECTION('',(-0.,-1.));
#527 = ( GEOMETRIC_REPRESENTATION_CONTEXT(2) 
PARAMETRIC_REPRESENTATION_CONTEXT() REPRESENTATION_CONTEXT('2D SPACE',''
  ) );
#528 = ORIENTED_EDGE('',*,*,#529,.T.);
#529 = EDGE_CURVE('',#507,#507,#530,.T.);
#530 = SURFACE_CURVE('',#531,(#536,#543),.PCURVE_S1.);
#531 = CIRCLE('',#532,7.5);
#532 = AXIS2_PLACEMENT_3D('',#533,#534,#535);
#533 = CARTESIAN_POINT('',(50.,0.,5.551115123126E-15));
#534 = DIRECTION('',(1.,-0.,1.110223024625E-16));
#535 = DIRECTION('',(1.110223024625E-16,0.,-1.));
#536 = PCURVE('',#124,#537);
#537 = DEFINITIONAL_REPRESENTATION('',(#538),#542);
#538 = LINE('',#539,#540);
#539 = CARTESIAN_POINT('',(-0.,-50.));
#540 = VECTOR('',#541,1.);
#541 = DIRECTION('',(-1.,0.));
#542 = ( GEOMETRIC_REPRESENTATION_CONTEXT(2) 
PARAMETRIC_REPRESENTATION_CONTEXT() REPRESENTATION_CONTEXT('2D SPACE',''
  ) );
#543 = PCURVE('',#544,#549);
#544 = PLANE('',#545);
#545 = AXIS2_PLACEMENT_3D('',#546,#547,#548);
#546 = CARTESIAN_POINT('',(50.,5.848900222367E-17,5.915765825136E-15));
#547 = DIRECTION('',(1.,0.,1.110223024625E-16));
#548 = DIRECTION('',(1.110223024625E-16,0.,-1.));
#549 = DEFINITIONAL_REPRESENTATION('',(#550),#554);
#550 = CIRCLE('',#551,7.5);
#551 = AXIS2_PLACEMENT_2D('',#552,#553);
#552 = CARTESIAN_POINT('',(3.646507020105E-16,-5.848900222367E-17));
#553 = DIRECTION('',(1.,0.));
#554 = ( GEOMETRIC_REPRESENTATION_CONTEXT(2) 
PARAMETRIC_REPRESENTATION_CONTEXT() REPRESENTATION_CONTEXT('2D SPACE',''
  ) );
#555 = ORIENTED_EDGE('',*,*,#506,.F.);
#556 = ORIENTED_EDGE('',*,*,#80,.T.);
#557 = ADVANCED_FACE('',(#558),#175,.T.);
#558 = FACE_BOUND('',#559,.F.);
#559 = EDGE_LOOP('',(#560,#561,#584,#611));
#560 = ORIENTED_EDGE('',*,*,#160,.T.);
#561 = ORIENTED_EDGE('',*,*,#562,.T.);
#562 = EDGE_CURVE('',#137,#563,#565,.T.);
#563 = VERTEX_POINT('',#564);
#564 = CARTESIAN_POINT('',(7.5,0.,50.));
#565 = SEAM_CURVE('',#566,(#570,#577),.PCURVE_S1.);
#566 = LINE('',#567,#568);
#567 = CARTESIAN_POINT('',(7.5,0.,0.));
#568 = VECTOR('',#569,1.);
#569 = DIRECTION('',(0.,0.,1.));
#570 = PCURVE('',#175,#571);
#571 = DEFINITIONAL_REPRESENTATION('',(#572),#576);
#572 = LINE('',#573,#574);
#573 = CARTESIAN_POINT('',(-6.28318530718,0.));
#574 = VECTOR('',#575,1.);
#575 = DIRECTION('',(-0.,-1.));
#576 = ( GEOMETRIC_REPRESENTATION_CONTEXT(2) 
PARAMETRIC_REPRESENTATION_CONTEXT() REPRESENTATION_CONTEXT('2D SPACE',''
  ) );
#577 = PCURVE('',#175,#578);
#578 = DEFINITIONAL_REPRESENTATION('',(#579),#583);
#579 = LINE('',#580,#581);
#580 = CARTESIAN_POINT('',(-0.,0.));
#581 = VECTOR('',#582,1.);
#582 = DIRECTION('',(-0.,-1.));
#583 = ( GEOMETRIC_REPRESENTATION_CONTEXT(2) 
PARAMETRIC_REPRESENTATION_CONTEXT() REPRESENTATION_CONTEXT('2D SPACE',''
  ) );
#584 = ORIENTED_EDGE('',*,*,#585,.T.);
#585 = EDGE_CURVE('',#563,#563,#586,.T.);
#586 = SURFACE_CURVE('',#587,(#592,#599),.PCURVE_S1.);
#587 = CIRCLE('',#588,7.5);
#588 = AXIS2_PLACEMENT_3D('',#589,#590,#591);
#589 = CARTESIAN_POINT('',(0.,0.,50.));
#590 = DIRECTION('',(0.,0.,1.));
#591 = DIRECTION('',(1.,0.,0.));
#592 = PCURVE('',#175,#593);
#593 = DEFINITIONAL_REPRESENTATION('',(#594),#598);
#594 = LINE('',#595,#596);
#595 = CARTESIAN_POINT('',(-0.,-50.));
#596 = VECTOR('',#597,1.);
#597 = DIRECTION('',(-1.,0.));
#598 = ( GEOMETRIC_REPRESENTATION_CONTEXT(2) 
PARAMETRIC_REPRESENTATION_CONTEXT() REPRESENTATION_CONTEXT('2D SPACE',''
  ) );
#599 = PCURVE('',#600,#605);
#600 = PLANE('',#601);
#601 = AXIS2_PLACEMENT_3D('',#602,#603,#604);
#602 = CARTESIAN_POINT('',(-3.646507020105E-16,5.848900222367E-17,50.));
#603 = DIRECTION('',(0.,0.,1.));
#604 = DIRECTION('',(1.,0.,-0.));
#605 = DEFINITIONAL_REPRESENTATION('',(#606),#610);
#606 = CIRCLE('',#607,7.5);
#607 = AXIS2_PLACEMENT_2D('',#608,#609);
#608 = CARTESIAN_POINT('',(3.646507020105E-16,-5.848900222367E-17));
#609 = DIRECTION('',(1.,0.));
#610 = ( GEOMETRIC_REPRESENTATION_CONTEXT(2) 
PARAMETRIC_REPRESENTATION_CONTEXT() REPRESENTATION_CONTEXT('2D SPACE',''
  ) );
#611 = ORIENTED_EDGE('',*,*,#562,.F.);
#612 = ADVANCED_FACE('',(#613),#67,.T.);
#613 = FACE_BOUND('',#614,.F.);
#614 = EDGE_LOOP('',(#615,#616,#639,#666));
#615 = ORIENTED_EDGE('',*,*,#52,.T.);
#616 = ORIENTED_EDGE('',*,*,#617,.T.);
#617 = EDGE_CURVE('',#22,#618,#620,.T.);
#618 = VERTEX_POINT('',#619);
#619 = CARTESIAN_POINT('',(7.5,-6.123233995737E-15,-50.));
#620 = SEAM_CURVE('',#621,(#625,#632),.PCURVE_S1.);
#621 = LINE('',#622,#623);
#622 = CARTESIAN_POINT('',(7.5,0.,0.));
#623 = VECTOR('',#624,1.);
#624 = DIRECTION('',(0.,-1.224646799147E-16,-1.));
#625 = PCURVE('',#67,#626);
#626 = DEFINITIONAL_REPRESENTATION('',(#627),#631);
#627 = LINE('',#628,#629);
#628 = CARTESIAN_POINT('',(-6.28318530718,0.));
#629 = VECTOR('',#630,1.);
#630 = DIRECTION('',(-0.,-1.));
#631 = ( GEOMETRIC_REPRESENTATION_CONTEXT(2) 
PARAMETRIC_REPRESENTATION_CONTEXT() REPRESENTATION_CONTEXT('2D SPACE',''
  ) );
#632 = PCURVE('',#67,#633);
#633 = DEFINITIONAL_REPRESENTATION('',(#634),#638);
#634 = LINE('',#635,#636);
#635 = CARTESIAN_POINT('',(-0.,0.));
#636 = VECTOR('',#637,1.);
#637 = DIRECTION('',(-0.,-1.));
#638 = ( GEOMETRIC_REPRESENTATION_CONTEXT(2) 
PARAMETRIC_REPRESENTATION_CONTEXT() REPRESENTATION_CONTEXT('2D SPACE',''
  ) );
#639 = ORIENTED_EDGE('',*,*,#640,.T.);
#640 = EDGE_CURVE('',#618,#618,#641,.T.);
#641 = SURFACE_CURVE('',#642,(#647,#654),.PCURVE_S1.);
#642 = CIRCLE('',#643,7.5);
#643 = AXIS2_PLACEMENT_3D('',#644,#645,#646);
#644 = CARTESIAN_POINT('',(0.,-6.123233995737E-15,-50.));
#645 = DIRECTION('',(0.,-1.224646799147E-16,-1.));
#646 = DIRECTION('',(1.,0.,0.));
#647 = PCURVE('',#67,#648);
#648 = DEFINITIONAL_REPRESENTATION('',(#649),#653);
#649 = LINE('',#650,#651);
#650 = CARTESIAN_POINT('',(-0.,-50.));
#651 = VECTOR('',#652,1.);
#652 = DIRECTION('',(-1.,0.));
#653 = ( GEOMETRIC_REPRESENTATION_CONTEXT(2) 
PARAMETRIC_REPRESENTATION_CONTEXT() REPRESENTATION_CONTEXT('2D SPACE',''
  ) );
#654 = PCURVE('',#655,#660);
#655 = PLANE('',#656);
#656 = AXIS2_PLACEMENT_3D('',#657,#658,#659);
#657 = CARTESIAN_POINT('',(-3.646507020105E-16,-6.18172299796E-15,-50.)
  );
#658 = DIRECTION('',(0.,-1.224646799147E-16,-1.));
#659 = DIRECTION('',(1.,0.,0.));
#660 = DEFINITIONAL_REPRESENTATION('',(#661),#665);
#661 = CIRCLE('',#662,7.5);
#662 = AXIS2_PLACEMENT_2D('',#663,#664);
#663 = CARTESIAN_POINT('',(3.646507020105E-16,-5.848900222367E-17));
#664 = DIRECTION('',(1.,0.));
#665 = ( GEOMETRIC_REPRESENTATION_CONTEXT(2) 
PARAMETRIC_REPRESENTATION_CONTEXT() REPRESENTATION_CONTEXT('2D SPACE',''
  ) );
#666 = ORIENTED_EDGE('',*,*,#617,.F.);
#667 = ADVANCED_FACE('',(#668),#311,.T.);
#668 = FACE_BOUND('',#669,.F.);
#669 = EDGE_LOOP('',(#670,#671,#694,#721));
#670 = ORIENTED_EDGE('',*,*,#239,.T.);
#671 = ORIENTED_EDGE('',*,*,#672,.T.);
#672 = EDGE_CURVE('',#240,#673,#675,.T.);
#673 = VERTEX_POINT('',#674);
#674 = CARTESIAN_POINT('',(7.5,50.,5.551115123126E-15));
#675 = SEAM_CURVE('',#676,(#680,#687),.PCURVE_S1.);
#676 = LINE('',#677,#678);
#677 = CARTESIAN_POINT('',(7.5,0.,0.));
#678 = VECTOR('',#679,1.);
#679 = DIRECTION('',(0.,1.,1.110223024625E-16));
#680 = PCURVE('',#311,#681);
#681 = DEFINITIONAL_REPRESENTATION('',(#682),#686);
#682 = LINE('',#683,#684);
#683 = CARTESIAN_POINT('',(-6.28318530718,0.));
#684 = VECTOR('',#685,1.);
#685 = DIRECTION('',(-0.,-1.));
#686 = ( GEOMETRIC_REPRESENTATION_CONTEXT(2) 
PARAMETRIC_REPRESENTATION_CONTEXT() REPRESENTATION_CONTEXT('2D SPACE',''
  ) );
#687 = PCURVE('',#311,#688);
#688 = DEFINITIONAL_REPRESENTATION('',(#689),#693);
#689 = LINE('',#690,#691);
#690 = CARTESIAN_POINT('',(-0.,0.));
#691 = VECTOR('',#692,1.);
#692 = DIRECTION('',(-0.,-1.));
#693 = ( GEOMETRIC_REPRESENTATION_CONTEXT(2) 
PARAMETRIC_REPRESENTATION_CONTEXT() REPRESENTATION_CONTEXT('2D SPACE',''
  ) );
#694 = ORIENTED_EDGE('',*,*,#695,.T.);
#695 = EDGE_CURVE('',#673,#673,#696,.T.);
#696 = SURFACE_CURVE('',#697,(#702,#709),.PCURVE_S1.);
#697 = CIRCLE('',#698,7.5);
#698 = AXIS2_PLACEMENT_3D('',#699,#700,#701);
#699 = CARTESIAN_POINT('',(0.,50.,5.551115123126E-15));
#700 = DIRECTION('',(-0.,1.,1.110223024625E-16));
#701 = DIRECTION('',(1.,0.,0.));
#702 = PCURVE('',#311,#703);
#703 = DEFINITIONAL_REPRESENTATION('',(#704),#708);
#704 = LINE('',#705,#706);
#705 = CARTESIAN_POINT('',(-0.,-50.));
#706 = VECTOR('',#707,1.);
#707 = DIRECTION('',(-1.,0.));
#708 = ( GEOMETRIC_REPRESENTATION_CONTEXT(2) 
PARAMETRIC_REPRESENTATION_CONTEXT() REPRESENTATION_CONTEXT('2D SPACE',''
  ) );
#709 = PCURVE('',#710,#715);
#710 = PLANE('',#711);
#711 = AXIS2_PLACEMENT_3D('',#712,#713,#714);
#712 = CARTESIAN_POINT('',(-3.646507020105E-16,50.,5.492626120902E-15));
#713 = DIRECTION('',(0.,1.,1.110223024625E-16));
#714 = DIRECTION('',(1.,0.,0.));
#715 = DEFINITIONAL_REPRESENTATION('',(#716),#720);
#716 = CIRCLE('',#717,7.5);
#717 = AXIS2_PLACEMENT_2D('',#718,#719);
#718 = CARTESIAN_POINT('',(3.646507020105E-16,-5.848900222367E-17));
#719 = DIRECTION('',(1.,0.));
#720 = ( GEOMETRIC_REPRESENTATION_CONTEXT(2) 
PARAMETRIC_REPRESENTATION_CONTEXT() REPRESENTATION_CONTEXT('2D SPACE',''
  ) );
#721 = ORIENTED_EDGE('',*,*,#672,.F.);
#722 = ADVANCED_FACE('',(#723),#404,.T.);
#723 = FACE_BOUND('',#724,.F.);
#724 = EDGE_LOOP('',(#725,#726,#749,#776));
#725 = ORIENTED_EDGE('',*,*,#325,.T.);
#726 = ORIENTED_EDGE('',*,*,#727,.T.);
#727 = EDGE_CURVE('',#326,#728,#730,.T.);
#728 = VERTEX_POINT('',#729);
#729 = CARTESIAN_POINT('',(-50.,0.,7.5));
#730 = SEAM_CURVE('',#731,(#735,#742),.PCURVE_S1.);
#731 = LINE('',#732,#733);
#732 = CARTESIAN_POINT('',(8.326672684689E-16,0.,7.5));
#733 = VECTOR('',#734,1.);
#734 = DIRECTION('',(-1.,0.,1.110223024625E-16));
#735 = PCURVE('',#404,#736);
#736 = DEFINITIONAL_REPRESENTATION('',(#737),#741);
#737 = LINE('',#738,#739);
#738 = CARTESIAN_POINT('',(-6.28318530718,0.));
#739 = VECTOR('',#740,1.);
#740 = DIRECTION('',(-0.,-1.));
#741 = ( GEOMETRIC_REPRESENTATION_CONTEXT(2) 
PARAMETRIC_REPRESENTATION_CONTEXT() REPRESENTATION_CONTEXT('2D SPACE',''
  ) );
#742 = PCURVE('',#404,#743);
#743 = DEFINITIONAL_REPRESENTATION('',(#744),#748);
#744 = LINE('',#745,#746);
#745 = CARTESIAN_POINT('',(-0.,0.));
#746 = VECTOR('',#747,1.);
#747 = DIRECTION('',(-0.,-1.));
#748 = ( GEOMETRIC_REPRESENTATION_CONTEXT(2) 
PARAMETRIC_REPRESENTATION_CONTEXT() REPRESENTATION_CONTEXT('2D SPACE',''
  ) );
#749 = ORIENTED_EDGE('',*,*,#750,.T.);
#750 = EDGE_CURVE('',#728,#728,#751,.T.);
#751 = SURFACE_CURVE('',#752,(#757,#764),.PCURVE_S1.);
#752 = CIRCLE('',#753,7.5);
#753 = AXIS2_PLACEMENT_3D('',#754,#755,#756);
#754 = CARTESIAN_POINT('',(-50.,0.,5.551115123126E-15));
#755 = DIRECTION('',(-1.,0.,1.110223024625E-16));
#756 = DIRECTION('',(1.110223024625E-16,0.,1.));
#757 = PCURVE('',#404,#758);
#758 = DEFINITIONAL_REPRESENTATION('',(#759),#763);
#759 = LINE('',#760,#761);
#760 = CARTESIAN_POINT('',(-0.,-50.));
#761 = VECTOR('',#762,1.);
#762 = DIRECTION('',(-1.,0.));
#763 = ( GEOMETRIC_REPRESENTATION_CONTEXT(2) 
PARAMETRIC_REPRESENTATION_CONTEXT() REPRESENTATION_CONTEXT('2D SPACE',''
  ) );
#764 = PCURVE('',#765,#770);
#765 = PLANE('',#766);
#766 = AXIS2_PLACEMENT_3D('',#767,#768,#769);
#767 = CARTESIAN_POINT('',(-50.,5.848900222367E-17,5.186464421115E-15));
#768 = DIRECTION('',(-1.,0.,1.110223024625E-16));
#769 = DIRECTION('',(1.110223024625E-16,0.,1.));
#770 = DEFINITIONAL_REPRESENTATION('',(#771),#775);
#771 = CIRCLE('',#772,7.5);
#772 = AXIS2_PLACEMENT_2D('',#773,#774);
#773 = CARTESIAN_POINT('',(3.646507020105E-16,-5.848900222367E-17));
#774 = DIRECTION('',(1.,0.));
#775 = ( GEOMETRIC_REPRESENTATION_CONTEXT(2) 
PARAMETRIC_REPRESENTATION_CONTEXT() REPRESENTATION_CONTEXT('2D SPACE',''
  ) );
#776 = ORIENTED_EDGE('',*,*,#727,.F.);
#777 = ADVANCED_FACE('',(#778),#490,.T.);
#778 = FACE_BOUND('',#779,.F.);
#779 = EDGE_LOOP('',(#780,#781,#804,#831));
#780 = ORIENTED_EDGE('',*,*,#418,.T.);
#781 = ORIENTED_EDGE('',*,*,#782,.T.);
#782 = EDGE_CURVE('',#419,#783,#785,.T.);
#783 = VERTEX_POINT('',#784);
#784 = CARTESIAN_POINT('',(7.5,-50.,5.551115123126E-15));
#785 = SEAM_CURVE('',#786,(#790,#797),.PCURVE_S1.);
#786 = LINE('',#787,#788);
#787 = CARTESIAN_POINT('',(7.5,0.,0.));
#788 = VECTOR('',#789,1.);
#789 = DIRECTION('',(0.,-1.,1.110223024625E-16));
#790 = PCURVE('',#490,#791);
#791 = DEFINITIONAL_REPRESENTATION('',(#792),#796);
#792 = LINE('',#793,#794);
#793 = CARTESIAN_POINT('',(-6.28318530718,0.));
#794 = VECTOR('',#795,1.);
#795 = DIRECTION('',(-0.,-1.));
#796 = ( GEOMETRIC_REPRESENTATION_CONTEXT(2) 
PARAMETRIC_REPRESENTATION_CONTEXT() REPRESENTATION_CONTEXT('2D SPACE',''
  ) );
#797 = PCURVE('',#490,#798);
#798 = DEFINITIONAL_REPRESENTATION('',(#799),#803);
#799 = LINE('',#800,#801);
#800 = CARTESIAN_POINT('',(-0.,0.));
#801 = VECTOR('',#802,1.);
#802 = DIRECTION('',(-0.,-1.));
#803 = ( GEOMETRIC_REPRESENTATION_CONTEXT(2) 
PARAMETRIC_REPRESENTATION_CONTEXT() REPRESENTATION_CONTEXT('2D SPACE',''
  ) );
#804 = ORIENTED_EDGE('',*,*,#805,.T.);
#805 = EDGE_CURVE('',#783,#783,#806,.T.);
#806 = SURFACE_CURVE('',#807,(#812,#819),.PCURVE_S1.);
#807 = CIRCLE('',#808,7.5);
#808 = AXIS2_PLACEMENT_3D('',#809,#810,#811);
#809 = CARTESIAN_POINT('',(0.,-50.,5.551115123126E-15));
#810 = DIRECTION('',(0.,-1.,1.110223024625E-16));
#811 = DIRECTION('',(1.,0.,0.));
#812 = PCURVE('',#490,#813);
#813 = DEFINITIONAL_REPRESENTATION('',(#814),#818);
#814 = LINE('',#815,#816);
#815 = CARTESIAN_POINT('',(-0.,-50.));
#816 = VECTOR('',#817,1.);
#817 = DIRECTION('',(-1.,0.));
#818 = ( GEOMETRIC_REPRESENTATION_CONTEXT(2) 
PARAMETRIC_REPRESENTATION_CONTEXT() REPRESENTATION_CONTEXT('2D SPACE',''
  ) );
#819 = PCURVE('',#820,#825);
#820 = PLANE('',#821);
#821 = AXIS2_PLACEMENT_3D('',#822,#823,#824);
#822 = CARTESIAN_POINT('',(-3.646507020105E-16,-50.,5.609604125349E-15)
  );
#823 = DIRECTION('',(0.,-1.,1.110223024625E-16));
#824 = DIRECTION('',(1.,0.,0.));
#825 = DEFINITIONAL_REPRESENTATION('',(#826),#830);
#826 = CIRCLE('',#827,7.5);
#827 = AXIS2_PLACEMENT_2D('',#828,#829);
#828 = CARTESIAN_POINT('',(3.646507020105E-16,-5.848900222367E-17));
#829 = DIRECTION('',(1.,0.));
#830 = ( GEOMETRIC_REPRESENTATION_CONTEXT(2) 
PARAMETRIC_REPRESENTATION_CONTEXT() REPRESENTATION_CONTEXT('2D SPACE',''
  ) );
#831 = ORIENTED_EDGE('',*,*,#782,.F.);
#832 = ADVANCED_FACE('',(#833,#836),#544,.T.);
#833 = FACE_BOUND('',#834,.T.);
#834 = EDGE_LOOP('',(#835));
#835 = ORIENTED_EDGE('',*,*,#529,.T.);
#836 = FACE_BOUND('',#837,.T.);
#837 = EDGE_LOOP('',(#838));
#838 = ORIENTED_EDGE('',*,*,#839,.F.);
#839 = EDGE_CURVE('',#840,#840,#842,.T.);
#840 = VERTEX_POINT('',#841);
#841 = CARTESIAN_POINT('',(50.,0.,-4.));
#842 = SURFACE_CURVE('',#843,(#848,#855),.PCURVE_S1.);
#843 = CIRCLE('',#844,4.);
#844 = AXIS2_PLACEMENT_3D('',#845,#846,#847);
#845 = CARTESIAN_POINT('',(50.,0.,5.551115123126E-15));
#846 = DIRECTION('',(1.,-0.,1.110223024625E-16));
#847 = DIRECTION('',(1.110223024625E-16,0.,-1.));
#848 = PCURVE('',#544,#849);
#849 = DEFINITIONAL_REPRESENTATION('',(#850),#854);
#850 = CIRCLE('',#851,4.);
#851 = AXIS2_PLACEMENT_2D('',#852,#853);
#852 = CARTESIAN_POINT('',(3.646507020105E-16,-5.848900222367E-17));
#853 = DIRECTION('',(1.,0.));
#854 = ( GEOMETRIC_REPRESENTATION_CONTEXT(2) 
PARAMETRIC_REPRESENTATION_CONTEXT() REPRESENTATION_CONTEXT('2D SPACE',''
  ) );
#855 = PCURVE('',#856,#861);
#856 = CYLINDRICAL_SURFACE('',#857,4.);
#857 = AXIS2_PLACEMENT_3D('',#858,#859,#860);
#858 = CARTESIAN_POINT('',(50.,0.,5.551115123126E-15));
#859 = DIRECTION('',(1.,0.,1.110223024625E-16));
#860 = DIRECTION('',(1.110223024625E-16,0.,-1.));
#861 = DEFINITIONAL_REPRESENTATION('',(#862),#866);
#862 = LINE('',#863,#864);
#863 = CARTESIAN_POINT('',(0.,0.));
#864 = VECTOR('',#865,1.);
#865 = DIRECTION('',(1.,0.));
#866 = ( GEOMETRIC_REPRESENTATION_CONTEXT(2) 
PARAMETRIC_REPRESENTATION_CONTEXT() REPRESENTATION_CONTEXT('2D SPACE',''
  ) );
#867 = ADVANCED_FACE('',(#868,#871),#600,.T.);
#868 = FACE_BOUND('',#869,.T.);
#869 = EDGE_LOOP('',(#870));
#870 = ORIENTED_EDGE('',*,*,#585,.T.);
#871 = FACE_BOUND('',#872,.T.);
#872 = EDGE_LOOP('',(#873));
#873 = ORIENTED_EDGE('',*,*,#874,.F.);
#874 = EDGE_CURVE('',#875,#875,#877,.T.);
#875 = VERTEX_POINT('',#876);
#876 = CARTESIAN_POINT('',(4.,0.,50.));
#877 = SURFACE_CURVE('',#878,(#883,#890),.PCURVE_S1.);
#878 = CIRCLE('',#879,4.);
#879 = AXIS2_PLACEMENT_3D('',#880,#881,#882);
#880 = CARTESIAN_POINT('',(0.,0.,50.));
#881 = DIRECTION('',(0.,0.,1.));
#882 = DIRECTION('',(1.,0.,0.));
#883 = PCURVE('',#600,#884);
#884 = DEFINITIONAL_REPRESENTATION('',(#885),#889);
#885 = CIRCLE('',#886,4.);
#886 = AXIS2_PLACEMENT_2D('',#887,#888);
#887 = CARTESIAN_POINT('',(3.646507020105E-16,-5.848900222367E-17));
#888 = DIRECTION('',(1.,0.));
#889 = ( GEOMETRIC_REPRESENTATION_CONTEXT(2) 
PARAMETRIC_REPRESENTATION_CONTEXT() REPRESENTATION_CONTEXT('2D SPACE',''
  ) );
#890 = PCURVE('',#891,#896);
#891 = CYLINDRICAL_SURFACE('',#892,4.);
#892 = AXIS2_PLACEMENT_3D('',#893,#894,#895);
#893 = CARTESIAN_POINT('',(0.,0.,50.));
#894 = DIRECTION('',(0.,0.,1.));
#895 = DIRECTION('',(1.,0.,0.));
#896 = DEFINITIONAL_REPRESENTATION('',(#897),#901);
#897 = LINE('',#898,#899);
#898 = CARTESIAN_POINT('',(0.,0.));
#899 = VECTOR('',#900,1.);
#900 = DIRECTION('',(1.,0.));
#901 = ( GEOMETRIC_REPRESENTATION_CONTEXT(2) 
PARAMETRIC_REPRESENTATION_CONTEXT() REPRESENTATION_CONTEXT('2D SPACE',''
  ) );
#902 = ADVANCED_FACE('',(#903,#906),#655,.T.);
#903 = FACE_BOUND('',#904,.T.);
#904 = EDGE_LOOP('',(#905));
#905 = ORIENTED_EDGE('',*,*,#640,.T.);
#906 = FACE_BOUND('',#907,.T.);
#907 = EDGE_LOOP('',(#908));
#908 = ORIENTED_EDGE('',*,*,#909,.F.);
#909 = EDGE_CURVE('',#910,#910,#912,.T.);
#910 = VERTEX_POINT('',#911);
#911 = CARTESIAN_POINT('',(4.,-6.123233995737E-15,-50.));
#912 = SURFACE_CURVE('',#913,(#918,#925),.PCURVE_S1.);
#913 = CIRCLE('',#914,4.);
#914 = AXIS2_PLACEMENT_3D('',#915,#916,#917);
#915 = CARTESIAN_POINT('',(0.,-6.123233995737E-15,-50.));
#916 = DIRECTION('',(0.,-1.224646799147E-16,-1.));
#917 = DIRECTION('',(1.,0.,0.));
#918 = PCURVE('',#655,#919);
#919 = DEFINITIONAL_REPRESENTATION('',(#920),#924);
#920 = CIRCLE('',#921,4.);
#921 = AXIS2_PLACEMENT_2D('',#922,#923);
#922 = CARTESIAN_POINT('',(3.646507020105E-16,-5.848900222367E-17));
#923 = DIRECTION('',(1.,0.));
#924 = ( GEOMETRIC_REPRESENTATION_CONTEXT(2) 
PARAMETRIC_REPRESENTATION_CONTEXT() REPRESENTATION_CONTEXT('2D SPACE',''
  ) );
#925 = PCURVE('',#926,#931);
#926 = CYLINDRICAL_SURFACE('',#927,4.);
#927 = AXIS2_PLACEMENT_3D('',#928,#929,#930);
#928 = CARTESIAN_POINT('',(0.,-6.123233995737E-15,-50.));
#929 = DIRECTION('',(0.,-1.224646799147E-16,-1.));
#930 = DIRECTION('',(1.,0.,0.));
#931 = DEFINITIONAL_REPRESENTATION('',(#932),#936);
#932 = LINE('',#933,#934);
#933 = CARTESIAN_POINT('',(0.,0.));
#934 = VECTOR('',#935,1.);
#935 = DIRECTION('',(1.,0.));
#936 = ( GEOMETRIC_REPRESENTATION_CONTEXT(2) 
PARAMETRIC_REPRESENTATION_CONTEXT() REPRESENTATION_CONTEXT('2D SPACE',''
  ) );
#937 = ADVANCED_FACE('',(#938,#941),#710,.T.);
#938 = FACE_BOUND('',#939,.T.);
#939 = EDGE_LOOP('',(#940));
#940 = ORIENTED_EDGE('',*,*,#695,.T.);
#941 = FACE_BOUND('',#942,.T.);
#942 = EDGE_LOOP('',(#943));
#943 = ORIENTED_EDGE('',*,*,#944,.F.);
#944 = EDGE_CURVE('',#945,#945,#947,.T.);
#945 = VERTEX_POINT('',#946);
#946 = CARTESIAN_POINT('',(4.,50.,5.551115123126E-15));
#947 = SURFACE_CURVE('',#948,(#953,#960),.PCURVE_S1.);
#948 = CIRCLE('',#949,4.);
#949 = AXIS2_PLACEMENT_3D('',#950,#951,#952);
#950 = CARTESIAN_POINT('',(0.,50.,5.551115123126E-15));
#951 = DIRECTION('',(-0.,1.,1.110223024625E-16));
#952 = DIRECTION('',(1.,0.,0.));
#953 = PCURVE('',#710,#954);
#954 = DEFINITIONAL_REPRESENTATION('',(#955),#959);
#955 = CIRCLE('',#956,4.);
#956 = AXIS2_PLACEMENT_2D('',#957,#958);
#957 = CARTESIAN_POINT('',(3.646507020105E-16,-5.848900222367E-17));
#958 = DIRECTION('',(1.,0.));
#959 = ( GEOMETRIC_REPRESENTATION_CONTEXT(2) 
PARAMETRIC_REPRESENTATION_CONTEXT() REPRESENTATION_CONTEXT('2D SPACE',''
  ) );
#960 = PCURVE('',#961,#966);
#961 = CYLINDRICAL_SURFACE('',#962,4.);
#962 = AXIS2_PLACEMENT_3D('',#963,#964,#965);
#963 = CARTESIAN_POINT('',(0.,50.,5.551115123126E-15));
#964 = DIRECTION('',(0.,1.,1.110223024625E-16));
#965 = DIRECTION('',(1.,0.,0.));
#966 = DEFINITIONAL_REPRESENTATION('',(#967),#971);
#967 = LINE('',#968,#969);
#968 = CARTESIAN_POINT('',(0.,0.));
#969 = VECTOR('',#970,1.);
#970 = DIRECTION('',(1.,0.));
#971 = ( GEOMETRIC_REPRESENTATION_CONTEXT(2) 
PARAMETRIC_REPRESENTATION_CONTEXT() REPRESENTATION_CONTEXT('2D SPACE',''
  ) );
#972 = ADVANCED_FACE('',(#973,#976),#765,.T.);
#973 = FACE_BOUND('',#974,.T.);
#974 = EDGE_LOOP('',(#975));
#975 = ORIENTED_EDGE('',*,*,#750,.T.);
#976 = FACE_BOUND('',#977,.T.);
#977 = EDGE_LOOP('',(#978));
#978 = ORIENTED_EDGE('',*,*,#979,.F.);
#979 = EDGE_CURVE('',#980,#980,#982,.T.);
#980 = VERTEX_POINT('',#981);
#981 = CARTESIAN_POINT('',(-50.,0.,4.));
#982 = SURFACE_CURVE('',#983,(#988,#995),.PCURVE_S1.);
#983 = CIRCLE('',#984,4.);
#984 = AXIS2_PLACEMENT_3D('',#985,#986,#987);
#985 = CARTESIAN_POINT('',(-50.,0.,5.551115123126E-15));
#986 = DIRECTION('',(-1.,0.,1.110223024625E-16));
#987 = DIRECTION('',(1.110223024625E-16,0.,1.));
#988 = PCURVE('',#765,#989);
#989 = DEFINITIONAL_REPRESENTATION('',(#990),#994);
#990 = CIRCLE('',#991,4.);
#991 = AXIS2_PLACEMENT_2D('',#992,#993);
#992 = CARTESIAN_POINT('',(3.646507020105E-16,-5.848900222367E-17));
#993 = DIRECTION('',(1.,0.));
#994 = ( GEOMETRIC_REPRESENTATION_CONTEXT(2) 
PARAMETRIC_REPRESENTATION_CONTEXT() REPRESENTATION_CONTEXT('2D SPACE',''
  ) );
#995 = PCURVE('',#996,#1001);
#996 = CYLINDRICAL_SURFACE('',#997,4.);
#997 = AXIS2_PLACEMENT_3D('',#998,#999,#1000);
#998 = CARTESIAN_POINT('',(-50.,0.,5.551115123126E-15));
#999 = DIRECTION('',(-1.,0.,1.110223024625E-16));
#1000 = DIRECTION('',(1.110223024625E-16,0.,1.));
#1001 = DEFINITIONAL_REPRESENTATION('',(#1002),#1006);
#1002 = LINE('',#1003,#1004);
#1003 = CARTESIAN_POINT('',(0.,0.));
#1004 = VECTOR('',#1005,1.);
#1005 = DIRECTION('',(1.,0.));
#1006 = ( GEOMETRIC_REPRESENTATION_CONTEXT(2) 
PARAMETRIC_REPRESENTATION_CONTEXT() REPRESENTATION_CONTEXT('2D SPACE',''
  ) );
#1007 = ADVANCED_FACE('',(#1008,#1011),#820,.T.);
#1008 = FACE_BOUND('',#1009,.T.);
#1009 = EDGE_LOOP('',(#1010));
#1010 = ORIENTED_EDGE('',*,*,#805,.T.);
#1011 = FACE_BOUND('',#1012,.T.);
#1012 = EDGE_LOOP('',(#1013));
#1013 = ORIENTED_EDGE('',*,*,#1014,.F.);
#1014 = EDGE_CURVE('',#1015,#1015,#1017,.T.);
#1015 = VERTEX_POINT('',#1016);
#1016 = CARTESIAN_POINT('',(4.,-50.,5.551115123126E-15));
#1017 = SURFACE_CURVE('',#1018,(#1023,#1030),.PCURVE_S1.);
#1018 = CIRCLE('',#1019,4.);
#1019 = AXIS2_PLACEMENT_3D('',#1020,#1021,#1022);
#1020 = CARTESIAN_POINT('',(0.,-50.,5.551115123126E-15));
#1021 = DIRECTION('',(0.,-1.,1.110223024625E-16));
#1022 = DIRECTION('',(1.,0.,0.));
#1023 = PCURVE('',#820,#1024);
#1024 = DEFINITIONAL_REPRESENTATION('',(#1025),#1029);
#1025 = CIRCLE('',#1026,4.);
#1026 = AXIS2_PLACEMENT_2D('',#1027,#1028);
#1027 = CARTESIAN_POINT('',(3.646507020105E-16,-5.848900222367E-17));
#1028 = DIRECTION('',(1.,0.));
#1029 = ( GEOMETRIC_REPRESENTATION_CONTEXT(2) 
PARAMETRIC_REPRESENTATION_CONTEXT() REPRESENTATION_CONTEXT('2D SPACE',''
  ) );
#1030 = PCURVE('',#1031,#1036);
#1031 = CYLINDRICAL_SURFACE('',#1032,4.);
#1032 = AXIS2_PLACEMENT_3D('',#1033,#1034,#1035);
#1033 = CARTESIAN_POINT('',(0.,-50.,5.551115123126E-15));
#1034 = DIRECTION('',(0.,-1.,1.110223024625E-16));
#1035 = DIRECTION('',(1.,0.,0.));
#1036 = DEFINITIONAL_REPRESENTATION('',(#1037),#1041);
#1037 = LINE('',#1038,#1039);
#1038 = CARTESIAN_POINT('',(0.,0.));
#1039 = VECTOR('',#1040,1.);
#1040 = DIRECTION('',(1.,0.));
#1041 = ( GEOMETRIC_REPRESENTATION_CONTEXT(2) 
PARAMETRIC_REPRESENTATION_CONTEXT() REPRESENTATION_CONTEXT('2D SPACE',''
  ) );
#1042 = ADVANCED_FACE('',(#1043),#856,.F.);
#1043 = FACE_BOUND('',#1044,.F.);
#1044 = EDGE_LOOP('',(#1045,#1068,#1095,#1096));
#1045 = ORIENTED_EDGE('',*,*,#1046,.T.);
#1046 = EDGE_CURVE('',#840,#1047,#1049,.T.);
#1047 = VERTEX_POINT('',#1048);
#1048 = CARTESIAN_POINT('',(40.,0.,-4.));
#1049 = SEAM_CURVE('',#1050,(#1054,#1061),.PCURVE_S1.);
#1050 = LINE('',#1051,#1052);
#1051 = CARTESIAN_POINT('',(50.,0.,-4.));
#1052 = VECTOR('',#1053,1.);
#1053 = DIRECTION('',(-1.,-0.,-1.110223024625E-16));
#1054 = PCURVE('',#856,#1055);
#1055 = DEFINITIONAL_REPRESENTATION('',(#1056),#1060);
#1056 = LINE('',#1057,#1058);
#1057 = CARTESIAN_POINT('',(0.,0.));
#1058 = VECTOR('',#1059,1.);
#1059 = DIRECTION('',(0.,-1.));
#1060 = ( GEOMETRIC_REPRESENTATION_CONTEXT(2) 
PARAMETRIC_REPRESENTATION_CONTEXT() REPRESENTATION_CONTEXT('2D SPACE',''
  ) );
#1061 = PCURVE('',#856,#1062);
#1062 = DEFINITIONAL_REPRESENTATION('',(#1063),#1067);
#1063 = LINE('',#1064,#1065);
#1064 = CARTESIAN_POINT('',(6.28318530718,0.));
#1065 = VECTOR('',#1066,1.);
#1066 = DIRECTION('',(0.,-1.));
#1067 = ( GEOMETRIC_REPRESENTATION_CONTEXT(2) 
PARAMETRIC_REPRESENTATION_CONTEXT() REPRESENTATION_CONTEXT('2D SPACE',''
  ) );
#1068 = ORIENTED_EDGE('',*,*,#1069,.T.);
#1069 = EDGE_CURVE('',#1047,#1047,#1070,.T.);
#1070 = SURFACE_CURVE('',#1071,(#1076,#1083),.PCURVE_S1.);
#1071 = CIRCLE('',#1072,4.);
#1072 = AXIS2_PLACEMENT_3D('',#1073,#1074,#1075);
#1073 = CARTESIAN_POINT('',(40.,0.,4.440892098501E-15));
#1074 = DIRECTION('',(1.,-0.,1.110223024625E-16));
#1075 = DIRECTION('',(1.110223024625E-16,0.,-1.));
#1076 = PCURVE('',#856,#1077);
#1077 = DEFINITIONAL_REPRESENTATION('',(#1078),#1082);
#1078 = LINE('',#1079,#1080);
#1079 = CARTESIAN_POINT('',(0.,-10.));
#1080 = VECTOR('',#1081,1.);
#1081 = DIRECTION('',(1.,0.));
#1082 = ( GEOMETRIC_REPRESENTATION_CONTEXT(2) 
PARAMETRIC_REPRESENTATION_CONTEXT() REPRESENTATION_CONTEXT('2D SPACE',''
  ) );
#1083 = PCURVE('',#1084,#1089);
#1084 = PLANE('',#1085);
#1085 = AXIS2_PLACEMENT_3D('',#1086,#1087,#1088);
#1086 = CARTESIAN_POINT('',(40.,3.49503809816E-16,4.697287123352E-15));
#1087 = DIRECTION('',(1.,0.,1.110223024625E-16));
#1088 = DIRECTION('',(1.110223024625E-16,0.,-1.));
#1089 = DEFINITIONAL_REPRESENTATION('',(#1090),#1094);
#1090 = CIRCLE('',#1091,4.);
#1091 = AXIS2_PLACEMENT_2D('',#1092,#1093);
#1092 = CARTESIAN_POINT('',(2.563950248511E-16,-3.49503809816E-16));
#1093 = DIRECTION('',(1.,0.));
#1094 = ( GEOMETRIC_REPRESENTATION_CONTEXT(2) 
PARAMETRIC_REPRESENTATION_CONTEXT() REPRESENTATION_CONTEXT('2D SPACE',''
  ) );
#1095 = ORIENTED_EDGE('',*,*,#1046,.F.);
#1096 = ORIENTED_EDGE('',*,*,#839,.F.);
#1097 = ADVANCED_FACE('',(#1098),#891,.F.);
#1098 = FACE_BOUND('',#1099,.F.);
#1099 = EDGE_LOOP('',(#1100,#1123,#1150,#1151));
#1100 = ORIENTED_EDGE('',*,*,#1101,.T.);
#1101 = EDGE_CURVE('',#875,#1102,#1104,.T.);
#1102 = VERTEX_POINT('',#1103);
#1103 = CARTESIAN_POINT('',(4.,0.,40.));
#1104 = SEAM_CURVE('',#1105,(#1109,#1116),.PCURVE_S1.);
#1105 = LINE('',#1106,#1107);
#1106 = CARTESIAN_POINT('',(4.,0.,50.));
#1107 = VECTOR('',#1108,1.);
#1108 = DIRECTION('',(-0.,-0.,-1.));
#1109 = PCURVE('',#891,#1110);
#1110 = DEFINITIONAL_REPRESENTATION('',(#1111),#1115);
#1111 = LINE('',#1112,#1113);
#1112 = CARTESIAN_POINT('',(0.,0.));
#1113 = VECTOR('',#1114,1.);
#1114 = DIRECTION('',(0.,-1.));
#1115 = ( GEOMETRIC_REPRESENTATION_CONTEXT(2) 
PARAMETRIC_REPRESENTATION_CONTEXT() REPRESENTATION_CONTEXT('2D SPACE',''
  ) );
#1116 = PCURVE('',#891,#1117);
#1117 = DEFINITIONAL_REPRESENTATION('',(#1118),#1122);
#1118 = LINE('',#1119,#1120);
#1119 = CARTESIAN_POINT('',(6.28318530718,0.));
#1120 = VECTOR('',#1121,1.);
#1121 = DIRECTION('',(0.,-1.));
#1122 = ( GEOMETRIC_REPRESENTATION_CONTEXT(2) 
PARAMETRIC_REPRESENTATION_CONTEXT() REPRESENTATION_CONTEXT('2D SPACE',''
  ) );
#1123 = ORIENTED_EDGE('',*,*,#1124,.T.);
#1124 = EDGE_CURVE('',#1102,#1102,#1125,.T.);
#1125 = SURFACE_CURVE('',#1126,(#1131,#1138),.PCURVE_S1.);
#1126 = CIRCLE('',#1127,4.);
#1127 = AXIS2_PLACEMENT_3D('',#1128,#1129,#1130);
#1128 = CARTESIAN_POINT('',(0.,0.,40.));
#1129 = DIRECTION('',(0.,0.,1.));
#1130 = DIRECTION('',(1.,0.,0.));
#1131 = PCURVE('',#891,#1132);
#1132 = DEFINITIONAL_REPRESENTATION('',(#1133),#1137);
#1133 = LINE('',#1134,#1135);
#1134 = CARTESIAN_POINT('',(0.,-10.));
#1135 = VECTOR('',#1136,1.);
#1136 = DIRECTION('',(1.,0.));
#1137 = ( GEOMETRIC_REPRESENTATION_CONTEXT(2) 
PARAMETRIC_REPRESENTATION_CONTEXT() REPRESENTATION_CONTEXT('2D SPACE',''
  ) );
#1138 = PCURVE('',#1139,#1144);
#1139 = PLANE('',#1140);
#1140 = AXIS2_PLACEMENT_3D('',#1141,#1142,#1143);
#1141 = CARTESIAN_POINT('',(-2.563950248511E-16,3.49503809816E-16,40.));
#1142 = DIRECTION('',(0.,0.,1.));
#1143 = DIRECTION('',(1.,0.,-0.));
#1144 = DEFINITIONAL_REPRESENTATION('',(#1145),#1149);
#1145 = CIRCLE('',#1146,4.);
#1146 = AXIS2_PLACEMENT_2D('',#1147,#1148);
#1147 = CARTESIAN_POINT('',(2.563950248511E-16,-3.49503809816E-16));
#1148 = DIRECTION('',(1.,0.));
#1149 = ( GEOMETRIC_REPRESENTATION_CONTEXT(2) 
PARAMETRIC_REPRESENTATION_CONTEXT() REPRESENTATION_CONTEXT('2D SPACE',''
  ) );
#1150 = ORIENTED_EDGE('',*,*,#1101,.F.);
#1151 = ORIENTED_EDGE('',*,*,#874,.F.);
#1152 = ADVANCED_FACE('',(#1153),#926,.F.);
#1153 = FACE_BOUND('',#1154,.F.);
#1154 = EDGE_LOOP('',(#1155,#1178,#1205,#1206));
#1155 = ORIENTED_EDGE('',*,*,#1156,.T.);
#1156 = EDGE_CURVE('',#910,#1157,#1159,.T.);
#1157 = VERTEX_POINT('',#1158);
#1158 = CARTESIAN_POINT('',(4.,-4.898587196589E-15,-40.));
#1159 = SEAM_CURVE('',#1160,(#1164,#1171),.PCURVE_S1.);
#1160 = LINE('',#1161,#1162);
#1161 = CARTESIAN_POINT('',(4.,-6.123233995737E-15,-50.));
#1162 = VECTOR('',#1163,1.);
#1163 = DIRECTION('',(-0.,1.224646799147E-16,1.));
#1164 = PCURVE('',#926,#1165);
#1165 = DEFINITIONAL_REPRESENTATION('',(#1166),#1170);
#1166 = LINE('',#1167,#1168);
#1167 = CARTESIAN_POINT('',(0.,0.));
#1168 = VECTOR('',#1169,1.);
#1169 = DIRECTION('',(0.,-1.));
#1170 = ( GEOMETRIC_REPRESENTATION_CONTEXT(2) 
PARAMETRIC_REPRESENTATION_CONTEXT() REPRESENTATION_CONTEXT('2D SPACE',''
  ) );
#1171 = PCURVE('',#926,#1172);
#1172 = DEFINITIONAL_REPRESENTATION('',(#1173),#1177);
#1173 = LINE('',#1174,#1175);
#1174 = CARTESIAN_POINT('',(6.28318530718,0.));
#1175 = VECTOR('',#1176,1.);
#1176 = DIRECTION('',(0.,-1.));
#1177 = ( GEOMETRIC_REPRESENTATION_CONTEXT(2) 
PARAMETRIC_REPRESENTATION_CONTEXT() REPRESENTATION_CONTEXT('2D SPACE',''
  ) );
#1178 = ORIENTED_EDGE('',*,*,#1179,.T.);
#1179 = EDGE_CURVE('',#1157,#1157,#1180,.T.);
#1180 = SURFACE_CURVE('',#1181,(#1186,#1193),.PCURVE_S1.);
#1181 = CIRCLE('',#1182,4.);
#1182 = AXIS2_PLACEMENT_3D('',#1183,#1184,#1185);
#1183 = CARTESIAN_POINT('',(0.,-4.898587196589E-15,-40.));
#1184 = DIRECTION('',(0.,-1.224646799147E-16,-1.));
#1185 = DIRECTION('',(1.,0.,0.));
#1186 = PCURVE('',#926,#1187);
#1187 = DEFINITIONAL_REPRESENTATION('',(#1188),#1192);
#1188 = LINE('',#1189,#1190);
#1189 = CARTESIAN_POINT('',(0.,-10.));
#1190 = VECTOR('',#1191,1.);
#1191 = DIRECTION('',(1.,0.));
#1192 = ( GEOMETRIC_REPRESENTATION_CONTEXT(2) 
PARAMETRIC_REPRESENTATION_CONTEXT() REPRESENTATION_CONTEXT('2D SPACE',''
  ) );
#1193 = PCURVE('',#1194,#1199);
#1194 = PLANE('',#1195);
#1195 = AXIS2_PLACEMENT_3D('',#1196,#1197,#1198);
#1196 = CARTESIAN_POINT('',(-2.563950248511E-16,-5.248091006405E-15,-40.
    ));
#1197 = DIRECTION('',(0.,-1.224646799147E-16,-1.));
#1198 = DIRECTION('',(1.,0.,0.));
#1199 = DEFINITIONAL_REPRESENTATION('',(#1200),#1204);
#1200 = CIRCLE('',#1201,4.);
#1201 = AXIS2_PLACEMENT_2D('',#1202,#1203);
#1202 = CARTESIAN_POINT('',(2.563950248511E-16,-3.49503809816E-16));
#1203 = DIRECTION('',(1.,0.));
#1204 = ( GEOMETRIC_REPRESENTATION_CONTEXT(2) 
PARAMETRIC_REPRESENTATION_CONTEXT() REPRESENTATION_CONTEXT('2D SPACE',''
  ) );
#1205 = ORIENTED_EDGE('',*,*,#1156,.F.);
#1206 = ORIENTED_EDGE('',*,*,#909,.F.);
#1207 = ADVANCED_FACE('',(#1208),#961,.F.);
#1208 = FACE_BOUND('',#1209,.F.);
#1209 = EDGE_LOOP('',(#1210,#1233,#1260,#1261));
#1210 = ORIENTED_EDGE('',*,*,#1211,.T.);
#1211 = EDGE_CURVE('',#945,#1212,#1214,.T.);
#1212 = VERTEX_POINT('',#1213);
#1213 = CARTESIAN_POINT('',(4.,40.,4.440892098501E-15));
#1214 = SEAM_CURVE('',#1215,(#1219,#1226),.PCURVE_S1.);
#1215 = LINE('',#1216,#1217);
#1216 = CARTESIAN_POINT('',(4.,50.,5.551115123126E-15));
#1217 = VECTOR('',#1218,1.);
#1218 = DIRECTION('',(-0.,-1.,-1.110223024625E-16));
#1219 = PCURVE('',#961,#1220);
#1220 = DEFINITIONAL_REPRESENTATION('',(#1221),#1225);
#1221 = LINE('',#1222,#1223);
#1222 = CARTESIAN_POINT('',(0.,0.));
#1223 = VECTOR('',#1224,1.);
#1224 = DIRECTION('',(0.,-1.));
#1225 = ( GEOMETRIC_REPRESENTATION_CONTEXT(2) 
PARAMETRIC_REPRESENTATION_CONTEXT() REPRESENTATION_CONTEXT('2D SPACE',''
  ) );
#1226 = PCURVE('',#961,#1227);
#1227 = DEFINITIONAL_REPRESENTATION('',(#1228),#1232);
#1228 = LINE('',#1229,#1230);
#1229 = CARTESIAN_POINT('',(6.28318530718,0.));
#1230 = VECTOR('',#1231,1.);
#1231 = DIRECTION('',(0.,-1.));
#1232 = ( GEOMETRIC_REPRESENTATION_CONTEXT(2) 
PARAMETRIC_REPRESENTATION_CONTEXT() REPRESENTATION_CONTEXT('2D SPACE',''
  ) );
#1233 = ORIENTED_EDGE('',*,*,#1234,.T.);
#1234 = EDGE_CURVE('',#1212,#1212,#1235,.T.);
#1235 = SURFACE_CURVE('',#1236,(#1241,#1248),.PCURVE_S1.);
#1236 = CIRCLE('',#1237,4.);
#1237 = AXIS2_PLACEMENT_3D('',#1238,#1239,#1240);
#1238 = CARTESIAN_POINT('',(0.,40.,4.440892098501E-15));
#1239 = DIRECTION('',(-0.,1.,1.110223024625E-16));
#1240 = DIRECTION('',(1.,0.,0.));
#1241 = PCURVE('',#961,#1242);
#1242 = DEFINITIONAL_REPRESENTATION('',(#1243),#1247);
#1243 = LINE('',#1244,#1245);
#1244 = CARTESIAN_POINT('',(0.,-10.));
#1245 = VECTOR('',#1246,1.);
#1246 = DIRECTION('',(1.,0.));
#1247 = ( GEOMETRIC_REPRESENTATION_CONTEXT(2) 
PARAMETRIC_REPRESENTATION_CONTEXT() REPRESENTATION_CONTEXT('2D SPACE',''
  ) );
#1248 = PCURVE('',#1249,#1254);
#1249 = PLANE('',#1250);
#1250 = AXIS2_PLACEMENT_3D('',#1251,#1252,#1253);
#1251 = CARTESIAN_POINT('',(-2.563950248511E-16,40.,4.091388288685E-15)
  );
#1252 = DIRECTION('',(0.,1.,1.110223024625E-16));
#1253 = DIRECTION('',(1.,0.,0.));
#1254 = DEFINITIONAL_REPRESENTATION('',(#1255),#1259);
#1255 = CIRCLE('',#1256,4.);
#1256 = AXIS2_PLACEMENT_2D('',#1257,#1258);
#1257 = CARTESIAN_POINT('',(2.563950248511E-16,-3.49503809816E-16));
#1258 = DIRECTION('',(1.,0.));
#1259 = ( GEOMETRIC_REPRESENTATION_CONTEXT(2) 
PARAMETRIC_REPRESENTATION_CONTEXT() REPRESENTATION_CONTEXT('2D SPACE',''
  ) );
#1260 = ORIENTED_EDGE('',*,*,#1211,.F.);
#1261 = ORIENTED_EDGE('',*,*,#944,.F.);
#1262 = ADVANCED_FACE('',(#1263),#996,.F.);
#1263 = FACE_BOUND('',#1264,.F.);
#1264 = EDGE_LOOP('',(#1265,#1288,#1315,#1316));
#1265 = ORIENTED_EDGE('',*,*,#1266,.T.);
#1266 = EDGE_CURVE('',#980,#1267,#1269,.T.);
#1267 = VERTEX_POINT('',#1268);
#1268 = CARTESIAN_POINT('',(-40.,0.,4.));
#1269 = SEAM_CURVE('',#1270,(#1274,#1281),.PCURVE_S1.);
#1270 = LINE('',#1271,#1272);
#1271 = CARTESIAN_POINT('',(-50.,0.,4.));
#1272 = VECTOR('',#1273,1.);
#1273 = DIRECTION('',(1.,-0.,-1.110223024625E-16));
#1274 = PCURVE('',#996,#1275);
#1275 = DEFINITIONAL_REPRESENTATION('',(#1276),#1280);
#1276 = LINE('',#1277,#1278);
#1277 = CARTESIAN_POINT('',(0.,0.));
#1278 = VECTOR('',#1279,1.);
#1279 = DIRECTION('',(0.,-1.));
#1280 = ( GEOMETRIC_REPRESENTATION_CONTEXT(2) 
PARAMETRIC_REPRESENTATION_CONTEXT() REPRESENTATION_CONTEXT('2D SPACE',''
  ) );
#1281 = PCURVE('',#996,#1282);
#1282 = DEFINITIONAL_REPRESENTATION('',(#1283),#1287);
#1283 = LINE('',#1284,#1285);
#1284 = CARTESIAN_POINT('',(6.28318530718,0.));
#1285 = VECTOR('',#1286,1.);
#1286 = DIRECTION('',(0.,-1.));
#1287 = ( GEOMETRIC_REPRESENTATION_CONTEXT(2) 
PARAMETRIC_REPRESENTATION_CONTEXT() REPRESENTATION_CONTEXT('2D SPACE',''
  ) );
#1288 = ORIENTED_EDGE('',*,*,#1289,.T.);
#1289 = EDGE_CURVE('',#1267,#1267,#1290,.T.);
#1290 = SURFACE_CURVE('',#1291,(#1296,#1303),.PCURVE_S1.);
#1291 = CIRCLE('',#1292,4.);
#1292 = AXIS2_PLACEMENT_3D('',#1293,#1294,#1295);
#1293 = CARTESIAN_POINT('',(-40.,0.,4.440892098501E-15));
#1294 = DIRECTION('',(-1.,0.,1.110223024625E-16));
#1295 = DIRECTION('',(1.110223024625E-16,0.,1.));
#1296 = PCURVE('',#996,#1297);
#1297 = DEFINITIONAL_REPRESENTATION('',(#1298),#1302);
#1298 = LINE('',#1299,#1300);
#1299 = CARTESIAN_POINT('',(0.,-10.));
#1300 = VECTOR('',#1301,1.);
#1301 = DIRECTION('',(1.,0.));
#1302 = ( GEOMETRIC_REPRESENTATION_CONTEXT(2) 
PARAMETRIC_REPRESENTATION_CONTEXT() REPRESENTATION_CONTEXT('2D SPACE',''
  ) );
#1303 = PCURVE('',#1304,#1309);
#1304 = PLANE('',#1305);
#1305 = AXIS2_PLACEMENT_3D('',#1306,#1307,#1308);
#1306 = CARTESIAN_POINT('',(-40.,3.49503809816E-16,4.184497073649E-15));
#1307 = DIRECTION('',(-1.,0.,1.110223024625E-16));
#1308 = DIRECTION('',(1.110223024625E-16,0.,1.));
#1309 = DEFINITIONAL_REPRESENTATION('',(#1310),#1314);
#1310 = CIRCLE('',#1311,4.);
#1311 = AXIS2_PLACEMENT_2D('',#1312,#1313);
#1312 = CARTESIAN_POINT('',(2.563950248511E-16,-3.49503809816E-16));
#1313 = DIRECTION('',(1.,0.));
#1314 = ( GEOMETRIC_REPRESENTATION_CONTEXT(2) 
PARAMETRIC_REPRESENTATION_CONTEXT() REPRESENTATION_CONTEXT('2D SPACE',''
  ) );
#1315 = ORIENTED_EDGE('',*,*,#1266,.F.);
#1316 = ORIENTED_EDGE('',*,*,#979,.F.);
#1317 = ADVANCED_FACE('',(#1318),#1031,.F.);
#1318 = FACE_BOUND('',#1319,.F.);
#1319 = EDGE_LOOP('',(#1320,#1343,#1370,#1371));
#1320 = ORIENTED_EDGE('',*,*,#1321,.T.);
#1321 = EDGE_CURVE('',#1015,#1322,#1324,.T.);
#1322 = VERTEX_POINT('',#1323);
#1323 = CARTESIAN_POINT('',(4.,-40.,4.440892098501E-15));
#1324 = SEAM_CURVE('',#1325,(#1329,#1336),.PCURVE_S1.);
#1325 = LINE('',#1326,#1327);
#1326 = CARTESIAN_POINT('',(4.,-50.,5.551115123126E-15));
#1327 = VECTOR('',#1328,1.);
#1328 = DIRECTION('',(-0.,1.,-1.110223024625E-16));
#1329 = PCURVE('',#1031,#1330);
#1330 = DEFINITIONAL_REPRESENTATION('',(#1331),#1335);
#1331 = LINE('',#1332,#1333);
#1332 = CARTESIAN_POINT('',(0.,0.));
#1333 = VECTOR('',#1334,1.);
#1334 = DIRECTION('',(0.,-1.));
#1335 = ( GEOMETRIC_REPRESENTATION_CONTEXT(2) 
PARAMETRIC_REPRESENTATION_CONTEXT() REPRESENTATION_CONTEXT('2D SPACE',''
  ) );
#1336 = PCURVE('',#1031,#1337);
#1337 = DEFINITIONAL_REPRESENTATION('',(#1338),#1342);
#1338 = LINE('',#1339,#1340);
#1339 = CARTESIAN_POINT('',(6.28318530718,0.));
#1340 = VECTOR('',#1341,1.);
#1341 = DIRECTION('',(0.,-1.));
#1342 = ( GEOMETRIC_REPRESENTATION_CONTEXT(2) 
PARAMETRIC_REPRESENTATION_CONTEXT() REPRESENTATION_CONTEXT('2D SPACE',''
  ) );
#1343 = ORIENTED_EDGE('',*,*,#1344,.T.);
#1344 = EDGE_CURVE('',#1322,#1322,#1345,.T.);
#1345 = SURFACE_CURVE('',#1346,(#1351,#1358),.PCURVE_S1.);
#1346 = CIRCLE('',#1347,4.);
#1347 = AXIS2_PLACEMENT_3D('',#1348,#1349,#1350);
#1348 = CARTESIAN_POINT('',(0.,-40.,4.440892098501E-15));
#1349 = DIRECTION('',(0.,-1.,1.110223024625E-16));
#1350 = DIRECTION('',(1.,0.,0.));
#1351 = PCURVE('',#1031,#1352);
#1352 = DEFINITIONAL_REPRESENTATION('',(#1353),#1357);
#1353 = LINE('',#1354,#1355);
#1354 = CARTESIAN_POINT('',(0.,-10.));
#1355 = VECTOR('',#1356,1.);
#1356 = DIRECTION('',(1.,0.));
#1357 = ( GEOMETRIC_REPRESENTATION_CONTEXT(2) 
PARAMETRIC_REPRESENTATION_CONTEXT() REPRESENTATION_CONTEXT('2D SPACE',''
  ) );
#1358 = PCURVE('',#1359,#1364);
#1359 = PLANE('',#1360);
#1360 = AXIS2_PLACEMENT_3D('',#1361,#1362,#1363);
#1361 = CARTESIAN_POINT('',(-2.563950248511E-16,-40.,4.790395908317E-15)
  );
#1362 = DIRECTION('',(0.,-1.,1.110223024625E-16));
#1363 = DIRECTION('',(1.,0.,0.));
#1364 = DEFINITIONAL_REPRESENTATION('',(#1365),#1369);
#1365 = CIRCLE('',#1366,4.);
#1366 = AXIS2_PLACEMENT_2D('',#1367,#1368);
#1367 = CARTESIAN_POINT('',(2.563950248511E-16,-3.49503809816E-16));
#1368 = DIRECTION('',(1.,0.));
#1369 = ( GEOMETRIC_REPRESENTATION_CONTEXT(2) 
PARAMETRIC_REPRESENTATION_CONTEXT() REPRESENTATION_CONTEXT('2D SPACE',''
  ) );
#1370 = ORIENTED_EDGE('',*,*,#1321,.F.);
#1371 = ORIENTED_EDGE('',*,*,#1014,.F.);
#1372 = ADVANCED_FACE('',(#1373),#1084,.T.);
#1373 = FACE_BOUND('',#1374,.T.);
#1374 = EDGE_LOOP('',(#1375));
#1375 = ORIENTED_EDGE('',*,*,#1069,.T.);
#1376 = ADVANCED_FACE('',(#1377),#1139,.T.);
#1377 = FACE_BOUND('',#1378,.T.);
#1378 = EDGE_LOOP('',(#1379));
#1379 = ORIENTED_EDGE('',*,*,#1124,.T.);
#1380 = ADVANCED_FACE('',(#1381),#1194,.T.);
#1381 = FACE_BOUND('',#1382,.T.);
#1382 = EDGE_LOOP('',(#1383));
#1383 = ORIENTED_EDGE('',*,*,#1179,.T.);
#1384 = ADVANCED_FACE('',(#1385),#1249,.T.);
#1385 = FACE_BOUND('',#1386,.T.);
#1386 = EDGE_LOOP('',(#1387));
#1387 = ORIENTED_EDGE('',*,*,#1234,.T.);
#1388 = ADVANCED_FACE('',(#1389),#1304,.T.);
#1389 = FACE_BOUND('',#1390,.T.);
#1390 = EDGE_LOOP('',(#1391));
#1391 = ORIENTED_EDGE('',*,*,#1289,.T.);
#1392 = ADVANCED_FACE('',(#1393),#1359,.T.);
#1393 = FACE_BOUND('',#1394,.T.);
#1394 = EDGE_LOOP('',(#1395));
#1395 = ORIENTED_EDGE('',*,*,#1344,.T.);
#1396 = ( GEOMETRIC_REPRESENTATION_CONTEXT(3) 
GLOBAL_UNCERTAINTY_ASSIGNED_CONTEXT((#1400)) 
GLOBAL_UNIT_ASSIGNED_CONTEXT((#1397,#1398,#1399)) REPRESENTATION_CONTEXT
('Context #1','3D Context with UNIT and UNCERTAINTY') );
#1397 = ( LENGTH_UNIT() NAMED_UNIT(*) SI_UNIT(.MILLI.,.METRE.) );
#1398 = ( NAMED_UNIT(*) PLANE_ANGLE_UNIT() SI_UNIT($,.RADIAN.) );
#1399 = ( NAMED_UNIT(*) SI_UNIT($,.STERADIAN.) SOLID_ANGLE_UNIT() );
#1400 = UNCERTAINTY_MEASURE_WITH_UNIT(LENGTH_MEASURE(1.E-07),#1397,
  'distance_accuracy_value','confusion accuracy');
#1401 = PRODUCT_RELATED_PRODUCT_CATEGORY('part',$,(#7));
ENDSEC;
END-ISO-10303-21;
