ISO-10303-21;
HEADER;
FILE_DESCRIPTION(('Open CASCADE Model'),'2;1');
FILE_NAME('Open CASCADE Shape Model','2026-08-07T02:34:17',('Author'),(
    'Open CASCADE'),'Open CASCADE STEP processor 7.7','Open CASCADE 7.7'
  ,'Unknown');
FILE_SCHEMA(('AUTOMOTIVE_DESIGN { 1 0 10303 214 1 1 1 1 }'));
ENDSEC;
DATA;
#1 = APPLICATION_PROTOCOL_DEFINITION('international standard',
  'automotive_design',2000,#2);
#2 = APPLICATION_CONTEXT(
  'core data for automotive mechanical design processes');
#3 = SHAPE_DEFINITION_REPRESENTATION(#4,#10);
#4 = PRODUCT_DEFINITION_SHAPE('','',#5);
#5 = PRODUCT_DEFINITION('design','',#6,#9);
#6 = PRODUCT_DEFINITION_FORMATION('','',#7);
#7 = PRODUCT('Open CASCADE STEP translator 7.7 35',
  'Open CASCADE STEP translator 7.7 35','',(#8));
#8 = PRODUCT_CONTEXT('',#2,'mechanical');
#9 = PRODUCT_DEFINITION_CONTEXT('part definition',#2,'design');
#10 = SHAPE_REPRESENTATION('',(#11,#15,#19),#23);
#11 = AXIS2_PLACEMENT_3D('',#12,#13,#14);
#12 = CARTESIAN_POINT('',(0.,0.,0.));
#13 = DIRECTION('',(0.,0.,1.));
#14 = DIRECTION('',(1.,0.,-0.));
#15 = AXIS2_PLACEMENT_3D('',#16,#17,#18);
#16 = CARTESIAN_POINT('',(0.,0.,0.));
#17 = DIRECTION('',(0.,0.,1.));
#18 = DIRECTION('',(1.,0.,-0.));
#19 = AXIS2_PLACEMENT_3D('',#20,#21,#22);
#20 = CARTESIAN_POINT('',(0.,0.,0.));
#21 = DIRECTION('',(0.,0.,1.));
#22 = DIRECTION('',(1.,0.,-0.));
#23 = ( GEOMETRIC_REPRESENTATION_CONTEXT(3) 
GLOBAL_UNCERTAINTY_ASSIGNED_CONTEXT((#27)) GLOBAL_UNIT_ASSIGNED_CONTEXT(
(#24,#25,#26)) REPRESENTATION_CONTEXT('Context #1',
  '3D Context with UNIT and UNCERTAINTY') );
#24 = ( LENGTH_UNIT() NAMED_UNIT(*) SI_UNIT(.MILLI.,.METRE.) );
#25 = ( NAMED_UNIT(*) PLANE_ANGLE_UNIT() SI_UNIT($,.RADIAN.) );
#26 = ( NAMED_UNIT(*) SI_UNIT($,.STERADIAN.) SOLID_ANGLE_UNIT() );
#27 = UNCERTAINTY_MEASURE_WITH_UNIT(LENGTH_MEASURE(1.E-07),#24,
  'distance_accuracy_value','confusion accuracy');
#28 = PRODUCT_RELATED_PRODUCT_CATEGORY('part',$,(#7));
#29 = SHAPE_DEFINITION_REPRESENTATION(#30,#36);
#30 = PRODUCT_DEFINITION_SHAPE('','',#31);
#31 = PRODUCT_DEFINITION('design','',#32,#35);
#32 = PRODUCT_DEFINITION_FORMATION('','',#33);
#33 = PRODUCT('Open CASCADE STEP translator 7.7 35.1',
  'Open CASCADE STEP translator 7.7 35.1','',(#34));
#34 = PRODUCT_CONTEXT('',#2,'mechanical');
#35 = PRODUCT_DEFINITION_CONTEXT('part definition',#2,'design');
#36 = ADVANCED_BREP_SHAPE_REPRESENTATION('',(#11,#37),#1497);
#37 = MANIFOLD_SOLID_BREP('',#38);
#38 = CLOSED_SHELL('',(#39,#190,#297,#377,#457,#515,#763,#801,#1020,
    #1192,#1362,#1463));
#39 = ADVANCED_FACE('',(#40,#159),#54,.F.);
#40 = FACE_BOUND('',#41,.F.);
#41 = EDGE_LOOP('',(#42,#77,#105,#133));
#42 = ORIENTED_EDGE('',*,*,#43,.F.);
#43 = EDGE_CURVE('',#44,#46,#48,.T.);
#44 = VERTEX_POINT('',#45);
#45 = CARTESIAN_POINT('',(-30.,-30.,-30.));
#46 = VERTEX_POINT('',#47);
#47 = CARTESIAN_POINT('',(-30.,-30.,30.));
#48 = SURFACE_CURVE('',#49,(#53,#65),.PCURVE_S1.);
#49 = LINE('',#50,#51);
#50 = CARTESIAN_POINT('',(-30.,-30.,-30.));
#51 = VECTOR('',#52,1.);
#52 = DIRECTION('',(0.,0.,1.));
#53 = PCURVE('',#54,#59);
#54 = PLANE('',#55);
#55 = AXIS2_PLACEMENT_3D('',#56,#57,#58);
#56 = CARTESIAN_POINT('',(-30.,-30.,-30.));
#57 = DIRECTION('',(1.,0.,-0.));
#58 = DIRECTION('',(0.,0.,1.));
#59 = DEFINITIONAL_REPRESENTATION('',(#60),#64);
#60 = LINE('',#61,#62);
#61 = CARTESIAN_POINT('',(0.,0.));
#62 = VECTOR('',#63,1.);
#63 = DIRECTION('',(1.,0.));
#64 = ( GEOMETRIC_REPRESENTATION_CONTEXT(2) 
PARAMETRIC_REPRESENTATION_CONTEXT() REPRESENTATION_CONTEXT('2D SPACE',''
  ) );
#65 = PCURVE('',#66,#71);
#66 = PLANE('',#67);
#67 = AXIS2_PLACEMENT_3D('',#68,#69,#70);
#68 = CARTESIAN_POINT('',(-30.,-30.,-30.));
#69 = DIRECTION('',(-0.,1.,0.));
#70 = DIRECTION('',(0.,0.,1.));
#71 = DEFINITIONAL_REPRESENTATION('',(#72),#76);
#72 = LINE('',#73,#74);
#73 = CARTESIAN_POINT('',(0.,0.));
#74 = VECTOR('',#75,1.);
#75 = DIRECTION('',(1.,0.));
#76 = ( GEOMETRIC_REPRESENTATION_CONTEXT(2) 
PARAMETRIC_REPRESENTATION_CONTEXT() REPRESENTATION_CONTEXT('2D SPACE',''
  ) );
#77 = ORIENTED_EDGE('',*,*,#78,.T.);
#78 = EDGE_CURVE('',#44,#79,#81,.T.);
#79 = VERTEX_POINT('',#80);
#80 = CARTESIAN_POINT('',(-30.,30.,-30.));
#81 = SURFACE_CURVE('',#82,(#86,#93),.PCURVE_S1.);
#82 = LINE('',#83,#84);
#83 = CARTESIAN_POINT('',(-30.,-30.,-30.));
#84 = VECTOR('',#85,1.);
#85 = DIRECTION('',(-0.,1.,0.));
#86 = PCURVE('',#54,#87);
#87 = DEFINITIONAL_REPRESENTATION('',(#88),#92);
#88 = LINE('',#89,#90);
#89 = CARTESIAN_POINT('',(0.,0.));
#90 = VECTOR('',#91,1.);
#91 = DIRECTION('',(0.,-1.));
#92 = ( GEOMETRIC_REPRESENTATION_CONTEXT(2) 
PARAMETRIC_REPRESENTATION_CONTEXT() REPRESENTATION_CONTEXT('2D SPACE',''
  ) );
#93 = PCURVE('',#94,#99);
#94 = PLANE('',#95);
#95 = AXIS2_PLACEMENT_3D('',#96,#97,#98);
#96 = CARTESIAN_POINT('',(-30.,-30.,-30.));
#97 = DIRECTION('',(0.,0.,1.));
#98 = DIRECTION('',(1.,0.,-0.));
#99 = DEFINITIONAL_REPRESENTATION('',(#100),#104);
#100 = LINE('',#101,#102);
#101 = CARTESIAN_POINT('',(0.,0.));
#102 = VECTOR('',#103,1.);
#103 = DIRECTION('',(0.,1.));
#104 = ( GEOMETRIC_REPRESENTATION_CONTEXT(2) 
PARAMETRIC_REPRESENTATION_CONTEXT() REPRESENTATION_CONTEXT('2D SPACE',''
  ) );
#105 = ORIENTED_EDGE('',*,*,#106,.T.);
#106 = EDGE_CURVE('',#79,#107,#109,.T.);
#107 = VERTEX_POINT('',#108);
#108 = CARTESIAN_POINT('',(-30.,30.,30.));
#109 = SURFACE_CURVE('',#110,(#114,#121),.PCURVE_S1.);
#110 = LINE('',#111,#112);
#111 = CARTESIAN_POINT('',(-30.,30.,-30.));
#112 = VECTOR('',#113,1.);
#113 = DIRECTION('',(0.,0.,1.));
#114 = PCURVE('',#54,#115);
#115 = DEFINITIONAL_REPRESENTATION('',(#116),#120);
#116 = LINE('',#117,#118);
#117 = CARTESIAN_POINT('',(0.,-60.));
#118 = VECTOR('',#119,1.);
#119 = DIRECTION('',(1.,0.));
#120 = ( GEOMETRIC_REPRESENTATION_CONTEXT(2) 
PARAMETRIC_REPRESENTATION_CONTEXT() REPRESENTATION_CONTEXT('2D SPACE',''
  ) );
#121 = PCURVE('',#122,#127);
#122 = PLANE('',#123);
#123 = AXIS2_PLACEMENT_3D('',#124,#125,#126);
#124 = CARTESIAN_POINT('',(-30.,30.,-30.));
#125 = DIRECTION('',(-0.,1.,0.));
#126 = DIRECTION('',(0.,0.,1.));
#127 = DEFINITIONAL_REPRESENTATION('',(#128),#132);
#128 = LINE('',#129,#130);
#129 = CARTESIAN_POINT('',(0.,0.));
#130 = VECTOR('',#131,1.);
#131 = DIRECTION('',(1.,0.));
#132 = ( GEOMETRIC_REPRESENTATION_CONTEXT(2) 
PARAMETRIC_REPRESENTATION_CONTEXT() REPRESENTATION_CONTEXT('2D SPACE',''
  ) );
#133 = ORIENTED_EDGE('',*,*,#134,.F.);
#134 = EDGE_CURVE('',#46,#107,#135,.T.);
#135 = SURFACE_CURVE('',#136,(#140,#147),.PCURVE_S1.);
#136 = LINE('',#137,#138);
#137 = CARTESIAN_POINT('',(-30.,-30.,30.));
#138 = VECTOR('',#139,1.);
#139 = DIRECTION('',(-0.,1.,0.));
#140 = PCURVE('',#54,#141);
#141 = DEFINITIONAL_REPRESENTATION('',(#142),#146);
#142 = LINE('',#143,#144);
#143 = CARTESIAN_POINT('',(60.,0.));
#144 = VECTOR('',#145,1.);
#145 = DIRECTION('',(0.,-1.));
#146 = ( GEOMETRIC_REPRESENTATION_CONTEXT(2) 
PARAMETRIC_REPRESENTATION_CONTEXT() REPRESENTATION_CONTEXT('2D SPACE',''
  ) );
#147 = PCURVE('',#148,#153);
#148 = PLANE('',#149);
#149 = AXIS2_PLACEMENT_3D('',#150,#151,#152);
#150 = CARTESIAN_POINT('',(-30.,-30.,30.));
#151 = DIRECTION('',(0.,0.,1.));
#152 = DIRECTION('',(1.,0.,-0.));
#153 = DEFINITIONAL_REPRESENTATION('',(#154),#158);
#154 = LINE('',#155,#156);
#155 = CARTESIAN_POINT('',(0.,0.));
#156 = VECTOR('',#157,1.);
#157 = DIRECTION('',(0.,1.));
#158 = ( GEOMETRIC_REPRESENTATION_CONTEXT(2) 
PARAMETRIC_REPRESENTATION_CONTEXT() REPRESENTATION_CONTEXT('2D SPACE',''
  ) );
#159 = FACE_BOUND('',#160,.F.);
#160 = EDGE_LOOP('',(#161));
#161 = ORIENTED_EDGE('',*,*,#162,.F.);
#162 = EDGE_CURVE('',#163,#163,#165,.T.);
#163 = VERTEX_POINT('',#164);
#164 = CARTESIAN_POINT('',(-30.,4.898587196589E-15,20.));
#165 = SURFACE_CURVE('',#166,(#171,#178),.PCURVE_S1.);
#166 = CIRCLE('',#167,20.);
#167 = AXIS2_PLACEMENT_3D('',#168,#169,#170);
#168 = CARTESIAN_POINT('',(-30.,0.,0.));
#169 = DIRECTION('',(1.,0.,0.));
#170 = DIRECTION('',(-0.,0.,1.));
#171 = PCURVE('',#54,#172);
#172 = DEFINITIONAL_REPRESENTATION('',(#173),#177);
#173 = CIRCLE('',#174,20.);
#174 = AXIS2_PLACEMENT_2D('',#175,#176);
#175 = CARTESIAN_POINT('',(30.,-30.));
#176 = DIRECTION('',(1.,0.));
#177 = ( GEOMETRIC_REPRESENTATION_CONTEXT(2) 
PARAMETRIC_REPRESENTATION_CONTEXT() REPRESENTATION_CONTEXT('2D SPACE',''
  ) );
#178 = PCURVE('',#179,#184);
#179 = CYLINDRICAL_SURFACE('',#180,20.);
#180 = AXIS2_PLACEMENT_3D('',#181,#182,#183);
#181 = CARTESIAN_POINT('',(-31.,0.,0.));
#182 = DIRECTION('',(1.,0.,0.));
#183 = DIRECTION('',(-0.,0.,1.));
#184 = DEFINITIONAL_REPRESENTATION('',(#185),#189);
#185 = LINE('',#186,#187);
#186 = CARTESIAN_POINT('',(0.,1.));
#187 = VECTOR('',#188,1.);
#188 = DIRECTION('',(1.,0.));
#189 = ( GEOMETRIC_REPRESENTATION_CONTEXT(2) 
PARAMETRIC_REPRESENTATION_CONTEXT() REPRESENTATION_CONTEXT('2D SPACE',''
  ) );
#190 = ADVANCED_FACE('',(#191,#266),#66,.F.);
#191 = FACE_BOUND('',#192,.F.);
#192 = EDGE_LOOP('',(#193,#216,#217,#240));
#193 = ORIENTED_EDGE('',*,*,#194,.F.);
#194 = EDGE_CURVE('',#44,#195,#197,.T.);
#195 = VERTEX_POINT('',#196);
#196 = CARTESIAN_POINT('',(30.,-30.,-30.));
#197 = SURFACE_CURVE('',#198,(#202,#209),.PCURVE_S1.);
#198 = LINE('',#199,#200);
#199 = CARTESIAN_POINT('',(-30.,-30.,-30.));
#200 = VECTOR('',#201,1.);
#201 = DIRECTION('',(1.,0.,-0.));
#202 = PCURVE('',#66,#203);
#203 = DEFINITIONAL_REPRESENTATION('',(#204),#208);
#204 = LINE('',#205,#206);
#205 = CARTESIAN_POINT('',(0.,0.));
#206 = VECTOR('',#207,1.);
#207 = DIRECTION('',(0.,1.));
#208 = ( GEOMETRIC_REPRESENTATION_CONTEXT(2) 
PARAMETRIC_REPRESENTATION_CONTEXT() REPRESENTATION_CONTEXT('2D SPACE',''
  ) );
#209 = PCURVE('',#94,#210);
#210 = DEFINITIONAL_REPRESENTATION('',(#211),#215);
#211 = LINE('',#212,#213);
#212 = CARTESIAN_POINT('',(0.,0.));
#213 = VECTOR('',#214,1.);
#214 = DIRECTION('',(1.,0.));
#215 = ( GEOMETRIC_REPRESENTATION_CONTEXT(2) 
PARAMETRIC_REPRESENTATION_CONTEXT() REPRESENTATION_CONTEXT('2D SPACE',''
  ) );
#216 = ORIENTED_EDGE('',*,*,#43,.T.);
#217 = ORIENTED_EDGE('',*,*,#218,.T.);
#218 = EDGE_CURVE('',#46,#219,#221,.T.);
#219 = VERTEX_POINT('',#220);
#220 = CARTESIAN_POINT('',(30.,-30.,30.));
#221 = SURFACE_CURVE('',#222,(#226,#233),.PCURVE_S1.);
#222 = LINE('',#223,#224);
#223 = CARTESIAN_POINT('',(-30.,-30.,30.));
#224 = VECTOR('',#225,1.);
#225 = DIRECTION('',(1.,0.,-0.));
#226 = PCURVE('',#66,#227);
#227 = DEFINITIONAL_REPRESENTATION('',(#228),#232);
#228 = LINE('',#229,#230);
#229 = CARTESIAN_POINT('',(60.,0.));
#230 = VECTOR('',#231,1.);
#231 = DIRECTION('',(0.,1.));
#232 = ( GEOMETRIC_REPRESENTATION_CONTEXT(2) 
PARAMETRIC_REPRESENTATION_CONTEXT() REPRESENTATION_CONTEXT('2D SPACE',''
  ) );
#233 = PCURVE('',#148,#234);
#234 = DEFINITIONAL_REPRESENTATION('',(#235),#239);
#235 = LINE('',#236,#237);
#236 = CARTESIAN_POINT('',(0.,0.));
#237 = VECTOR('',#238,1.);
#238 = DIRECTION('',(1.,0.));
#239 = ( GEOMETRIC_REPRESENTATION_CONTEXT(2) 
PARAMETRIC_REPRESENTATION_CONTEXT() REPRESENTATION_CONTEXT('2D SPACE',''
  ) );
#240 = ORIENTED_EDGE('',*,*,#241,.F.);
#241 = EDGE_CURVE('',#195,#219,#242,.T.);
#242 = SURFACE_CURVE('',#243,(#247,#254),.PCURVE_S1.);
#243 = LINE('',#244,#245);
#244 = CARTESIAN_POINT('',(30.,-30.,-30.));
#245 = VECTOR('',#246,1.);
#246 = DIRECTION('',(0.,0.,1.));
#247 = PCURVE('',#66,#248);
#248 = DEFINITIONAL_REPRESENTATION('',(#249),#253);
#249 = LINE('',#250,#251);
#250 = CARTESIAN_POINT('',(0.,60.));
#251 = VECTOR('',#252,1.);
#252 = DIRECTION('',(1.,0.));
#253 = ( GEOMETRIC_REPRESENTATION_CONTEXT(2) 
PARAMETRIC_REPRESENTATION_CONTEXT() REPRESENTATION_CONTEXT('2D SPACE',''
  ) );
#254 = PCURVE('',#255,#260);
#255 = PLANE('',#256);
#256 = AXIS2_PLACEMENT_3D('',#257,#258,#259);
#257 = CARTESIAN_POINT('',(30.,-30.,-30.));
#258 = DIRECTION('',(1.,0.,-0.));
#259 = DIRECTION('',(0.,0.,1.));
#260 = DEFINITIONAL_REPRESENTATION('',(#261),#265);
#261 = LINE('',#262,#263);
#262 = CARTESIAN_POINT('',(0.,0.));
#263 = VECTOR('',#264,1.);
#264 = DIRECTION('',(1.,0.));
#265 = ( GEOMETRIC_REPRESENTATION_CONTEXT(2) 
PARAMETRIC_REPRESENTATION_CONTEXT() REPRESENTATION_CONTEXT('2D SPACE',''
  ) );
#266 = FACE_BOUND('',#267,.F.);
#267 = EDGE_LOOP('',(#268));
#268 = ORIENTED_EDGE('',*,*,#269,.F.);
#269 = EDGE_CURVE('',#270,#270,#272,.T.);
#270 = VERTEX_POINT('',#271);
#271 = CARTESIAN_POINT('',(-4.898587196589E-15,-30.,20.));
#272 = SURFACE_CURVE('',#273,(#278,#285),.PCURVE_S1.);
#273 = CIRCLE('',#274,20.);
#274 = AXIS2_PLACEMENT_3D('',#275,#276,#277);
#275 = CARTESIAN_POINT('',(0.,-30.,0.));
#276 = DIRECTION('',(0.,1.,0.));
#277 = DIRECTION('',(0.,-0.,1.));
#278 = PCURVE('',#66,#279);
#279 = DEFINITIONAL_REPRESENTATION('',(#280),#284);
#280 = CIRCLE('',#281,20.);
#281 = AXIS2_PLACEMENT_2D('',#282,#283);
#282 = CARTESIAN_POINT('',(30.,30.));
#283 = DIRECTION('',(1.,0.));
#284 = ( GEOMETRIC_REPRESENTATION_CONTEXT(2) 
PARAMETRIC_REPRESENTATION_CONTEXT() REPRESENTATION_CONTEXT('2D SPACE',''
  ) );
#285 = PCURVE('',#286,#291);
#286 = CYLINDRICAL_SURFACE('',#287,20.);
#287 = AXIS2_PLACEMENT_3D('',#288,#289,#290);
#288 = CARTESIAN_POINT('',(0.,-31.,0.));
#289 = DIRECTION('',(0.,1.,0.));
#290 = DIRECTION('',(0.,-0.,1.));
#291 = DEFINITIONAL_REPRESENTATION('',(#292),#296);
#292 = LINE('',#293,#294);
#293 = CARTESIAN_POINT('',(0.,1.));
#294 = VECTOR('',#295,1.);
#295 = DIRECTION('',(1.,0.));
#296 = ( GEOMETRIC_REPRESENTATION_CONTEXT(2) 
PARAMETRIC_REPRESENTATION_CONTEXT() REPRESENTATION_CONTEXT('2D SPACE',''
  ) );
#297 = ADVANCED_FACE('',(#298,#346),#148,.T.);
#298 = FACE_BOUND('',#299,.T.);
#299 = EDGE_LOOP('',(#300,#301,#302,#325));
#300 = ORIENTED_EDGE('',*,*,#134,.F.);
#301 = ORIENTED_EDGE('',*,*,#218,.T.);
#302 = ORIENTED_EDGE('',*,*,#303,.T.);
#303 = EDGE_CURVE('',#219,#304,#306,.T.);
#304 = VERTEX_POINT('',#305);
#305 = CARTESIAN_POINT('',(30.,30.,30.));
#306 = SURFACE_CURVE('',#307,(#311,#318),.PCURVE_S1.);
#307 = LINE('',#308,#309);
#308 = CARTESIAN_POINT('',(30.,-30.,30.));
#309 = VECTOR('',#310,1.);
#310 = DIRECTION('',(-0.,1.,0.));
#311 = PCURVE('',#148,#312);
#312 = DEFINITIONAL_REPRESENTATION('',(#313),#317);
#313 = LINE('',#314,#315);
#314 = CARTESIAN_POINT('',(60.,0.));
#315 = VECTOR('',#316,1.);
#316 = DIRECTION('',(0.,1.));
#317 = ( GEOMETRIC_REPRESENTATION_CONTEXT(2) 
PARAMETRIC_REPRESENTATION_CONTEXT() REPRESENTATION_CONTEXT('2D SPACE',''
  ) );
#318 = PCURVE('',#255,#319);
#319 = DEFINITIONAL_REPRESENTATION('',(#320),#324);
#320 = LINE('',#321,#322);
#321 = CARTESIAN_POINT('',(60.,0.));
#322 = VECTOR('',#323,1.);
#323 = DIRECTION('',(0.,-1.));
#324 = ( GEOMETRIC_REPRESENTATION_CONTEXT(2) 
PARAMETRIC_REPRESENTATION_CONTEXT() REPRESENTATION_CONTEXT('2D SPACE',''
  ) );
#325 = ORIENTED_EDGE('',*,*,#326,.F.);
#326 = EDGE_CURVE('',#107,#304,#327,.T.);
#327 = SURFACE_CURVE('',#328,(#332,#339),.PCURVE_S1.);
#328 = LINE('',#329,#330);
#329 = CARTESIAN_POINT('',(-30.,30.,30.));
#330 = VECTOR('',#331,1.);
#331 = DIRECTION('',(1.,0.,-0.));
#332 = PCURVE('',#148,#333);
#333 = DEFINITIONAL_REPRESENTATION('',(#334),#338);
#334 = LINE('',#335,#336);
#335 = CARTESIAN_POINT('',(0.,60.));
#336 = VECTOR('',#337,1.);
#337 = DIRECTION('',(1.,0.));
#338 = ( GEOMETRIC_REPRESENTATION_CONTEXT(2) 
PARAMETRIC_REPRESENTATION_CONTEXT() REPRESENTATION_CONTEXT('2D SPACE',''
  ) );
#339 = PCURVE('',#122,#340);
#340 = DEFINITIONAL_REPRESENTATION('',(#341),#345);
#341 = LINE('',#342,#343);
#342 = CARTESIAN_POINT('',(60.,0.));
#343 = VECTOR('',#344,1.);
#344 = DIRECTION('',(0.,1.));
#345 = ( GEOMETRIC_REPRESENTATION_CONTEXT(2) 
PARAMETRIC_REPRESENTATION_CONTEXT() REPRESENTATION_CONTEXT('2D SPACE',''
  ) );
#346 = FACE_BOUND('',#347,.T.);
#347 = EDGE_LOOP('',(#348));
#348 = ORIENTED_EDGE('',*,*,#349,.F.);
#349 = EDGE_CURVE('',#350,#350,#352,.T.);
#350 = VERTEX_POINT('',#351);
#351 = CARTESIAN_POINT('',(20.,-4.898587196589E-15,30.));
#352 = SURFACE_CURVE('',#353,(#358,#365),.PCURVE_S1.);
#353 = CIRCLE('',#354,20.);
#354 = AXIS2_PLACEMENT_3D('',#355,#356,#357);
#355 = CARTESIAN_POINT('',(0.,0.,30.));
#356 = DIRECTION('',(0.,0.,1.));
#357 = DIRECTION('',(1.,0.,-0.));
#358 = PCURVE('',#148,#359);
#359 = DEFINITIONAL_REPRESENTATION('',(#360),#364);
#360 = CIRCLE('',#361,20.);
#361 = AXIS2_PLACEMENT_2D('',#362,#363);
#362 = CARTESIAN_POINT('',(30.,30.));
#363 = DIRECTION('',(1.,0.));
#364 = ( GEOMETRIC_REPRESENTATION_CONTEXT(2) 
PARAMETRIC_REPRESENTATION_CONTEXT() REPRESENTATION_CONTEXT('2D SPACE',''
  ) );
#365 = PCURVE('',#366,#371);
#366 = CYLINDRICAL_SURFACE('',#367,20.);
#367 = AXIS2_PLACEMENT_3D('',#368,#369,#370);
#368 = CARTESIAN_POINT('',(0.,0.,-31.));
#369 = DIRECTION('',(0.,0.,1.));
#370 = DIRECTION('',(1.,0.,-0.));
#371 = DEFINITIONAL_REPRESENTATION('',(#372),#376);
#372 = LINE('',#373,#374);
#373 = CARTESIAN_POINT('',(0.,61.));
#374 = VECTOR('',#375,1.);
#375 = DIRECTION('',(1.,0.));
#376 = ( GEOMETRIC_REPRESENTATION_CONTEXT(2) 
PARAMETRIC_REPRESENTATION_CONTEXT() REPRESENTATION_CONTEXT('2D SPACE',''
  ) );
#377 = ADVANCED_FACE('',(#378,#426),#94,.F.);
#378 = FACE_BOUND('',#379,.F.);
#379 = EDGE_LOOP('',(#380,#381,#382,#405));
#380 = ORIENTED_EDGE('',*,*,#78,.F.);
#381 = ORIENTED_EDGE('',*,*,#194,.T.);
#382 = ORIENTED_EDGE('',*,*,#383,.T.);
#383 = EDGE_CURVE('',#195,#384,#386,.T.);
#384 = VERTEX_POINT('',#385);
#385 = CARTESIAN_POINT('',(30.,30.,-30.));
#386 = SURFACE_CURVE('',#387,(#391,#398),.PCURVE_S1.);
#387 = LINE('',#388,#389);
#388 = CARTESIAN_POINT('',(30.,-30.,-30.));
#389 = VECTOR('',#390,1.);
#390 = DIRECTION('',(-0.,1.,0.));
#391 = PCURVE('',#94,#392);
#392 = DEFINITIONAL_REPRESENTATION('',(#393),#397);
#393 = LINE('',#394,#395);
#394 = CARTESIAN_POINT('',(60.,0.));
#395 = VECTOR('',#396,1.);
#396 = DIRECTION('',(0.,1.));
#397 = ( GEOMETRIC_REPRESENTATION_CONTEXT(2) 
PARAMETRIC_REPRESENTATION_CONTEXT() REPRESENTATION_CONTEXT('2D SPACE',''
  ) );
#398 = PCURVE('',#255,#399);
#399 = DEFINITIONAL_REPRESENTATION('',(#400),#404);
#400 = LINE('',#401,#402);
#401 = CARTESIAN_POINT('',(0.,0.));
#402 = VECTOR('',#403,1.);
#403 = DIRECTION('',(0.,-1.));
#404 = ( GEOMETRIC_REPRESENTATION_CONTEXT(2) 
PARAMETRIC_REPRESENTATION_CONTEXT() REPRESENTATION_CONTEXT('2D SPACE',''
  ) );
#405 = ORIENTED_EDGE('',*,*,#406,.F.);
#406 = EDGE_CURVE('',#79,#384,#407,.T.);
#407 = SURFACE_CURVE('',#408,(#412,#419),.PCURVE_S1.);
#408 = LINE('',#409,#410);
#409 = CARTESIAN_POINT('',(-30.,30.,-30.));
#410 = VECTOR('',#411,1.);
#411 = DIRECTION('',(1.,0.,-0.));
#412 = PCURVE('',#94,#413);
#413 = DEFINITIONAL_REPRESENTATION('',(#414),#418);
#414 = LINE('',#415,#416);
#415 = CARTESIAN_POINT('',(0.,60.));
#416 = VECTOR('',#417,1.);
#417 = DIRECTION('',(1.,0.));
#418 = ( GEOMETRIC_REPRESENTATION_CONTEXT(2) 
PARAMETRIC_REPRESENTATION_CONTEXT() REPRESENTATION_CONTEXT('2D SPACE',''
  ) );
#419 = PCURVE('',#122,#420);
#420 = DEFINITIONAL_REPRESENTATION('',(#421),#425);
#421 = LINE('',#422,#423);
#422 = CARTESIAN_POINT('',(0.,0.));
#423 = VECTOR('',#424,1.);
#424 = DIRECTION('',(0.,1.));
#425 = ( GEOMETRIC_REPRESENTATION_CONTEXT(2) 
PARAMETRIC_REPRESENTATION_CONTEXT() REPRESENTATION_CONTEXT('2D SPACE',''
  ) );
#426 = FACE_BOUND('',#427,.F.);
#427 = EDGE_LOOP('',(#428));
#428 = ORIENTED_EDGE('',*,*,#429,.F.);
#429 = EDGE_CURVE('',#430,#430,#432,.T.);
#430 = VERTEX_POINT('',#431);
#431 = CARTESIAN_POINT('',(20.,-4.898587196589E-15,-30.));
#432 = SURFACE_CURVE('',#433,(#438,#445),.PCURVE_S1.);
#433 = CIRCLE('',#434,20.);
#434 = AXIS2_PLACEMENT_3D('',#435,#436,#437);
#435 = CARTESIAN_POINT('',(0.,0.,-30.));
#436 = DIRECTION('',(0.,0.,1.));
#437 = DIRECTION('',(1.,0.,-0.));
#438 = PCURVE('',#94,#439);
#439 = DEFINITIONAL_REPRESENTATION('',(#440),#444);
#440 = CIRCLE('',#441,20.);
#441 = AXIS2_PLACEMENT_2D('',#442,#443);
#442 = CARTESIAN_POINT('',(30.,30.));
#443 = DIRECTION('',(1.,0.));
#444 = ( GEOMETRIC_REPRESENTATION_CONTEXT(2) 
PARAMETRIC_REPRESENTATION_CONTEXT() REPRESENTATION_CONTEXT('2D SPACE',''
  ) );
#445 = PCURVE('',#446,#451);
#446 = CYLINDRICAL_SURFACE('',#447,20.);
#447 = AXIS2_PLACEMENT_3D('',#448,#449,#450);
#448 = CARTESIAN_POINT('',(0.,0.,-31.));
#449 = DIRECTION('',(0.,0.,1.));
#450 = DIRECTION('',(1.,0.,-0.));
#451 = DEFINITIONAL_REPRESENTATION('',(#452),#456);
#452 = LINE('',#453,#454);
#453 = CARTESIAN_POINT('',(0.,1.));
#454 = VECTOR('',#455,1.);
#455 = DIRECTION('',(1.,0.));
#456 = ( GEOMETRIC_REPRESENTATION_CONTEXT(2) 
PARAMETRIC_REPRESENTATION_CONTEXT() REPRESENTATION_CONTEXT('2D SPACE',''
  ) );
#457 = ADVANCED_FACE('',(#458,#484),#122,.T.);
#458 = FACE_BOUND('',#459,.T.);
#459 = EDGE_LOOP('',(#460,#461,#462,#463));
#460 = ORIENTED_EDGE('',*,*,#406,.F.);
#461 = ORIENTED_EDGE('',*,*,#106,.T.);
#462 = ORIENTED_EDGE('',*,*,#326,.T.);
#463 = ORIENTED_EDGE('',*,*,#464,.F.);
#464 = EDGE_CURVE('',#384,#304,#465,.T.);
#465 = SURFACE_CURVE('',#466,(#470,#477),.PCURVE_S1.);
#466 = LINE('',#467,#468);
#467 = CARTESIAN_POINT('',(30.,30.,-30.));
#468 = VECTOR('',#469,1.);
#469 = DIRECTION('',(0.,0.,1.));
#470 = PCURVE('',#122,#471);
#471 = DEFINITIONAL_REPRESENTATION('',(#472),#476);
#472 = LINE('',#473,#474);
#473 = CARTESIAN_POINT('',(0.,60.));
#474 = VECTOR('',#475,1.);
#475 = DIRECTION('',(1.,0.));
#476 = ( GEOMETRIC_REPRESENTATION_CONTEXT(2) 
PARAMETRIC_REPRESENTATION_CONTEXT() REPRESENTATION_CONTEXT('2D SPACE',''
  ) );
#477 = PCURVE('',#255,#478);
#478 = DEFINITIONAL_REPRESENTATION('',(#479),#483);
#479 = LINE('',#480,#481);
#480 = CARTESIAN_POINT('',(0.,-60.));
#481 = VECTOR('',#482,1.);
#482 = DIRECTION('',(1.,0.));
#483 = ( GEOMETRIC_REPRESENTATION_CONTEXT(2) 
PARAMETRIC_REPRESENTATION_CONTEXT() REPRESENTATION_CONTEXT('2D SPACE',''
  ) );
#484 = FACE_BOUND('',#485,.T.);
#485 = EDGE_LOOP('',(#486));
#486 = ORIENTED_EDGE('',*,*,#487,.F.);
#487 = EDGE_CURVE('',#488,#488,#490,.T.);
#488 = VERTEX_POINT('',#489);
#489 = CARTESIAN_POINT('',(-4.898587196589E-15,30.,20.));
#490 = SURFACE_CURVE('',#491,(#496,#503),.PCURVE_S1.);
#491 = CIRCLE('',#492,20.);
#492 = AXIS2_PLACEMENT_3D('',#493,#494,#495);
#493 = CARTESIAN_POINT('',(0.,30.,0.));
#494 = DIRECTION('',(0.,1.,0.));
#495 = DIRECTION('',(0.,-0.,1.));
#496 = PCURVE('',#122,#497);
#497 = DEFINITIONAL_REPRESENTATION('',(#498),#502);
#498 = CIRCLE('',#499,20.);
#499 = AXIS2_PLACEMENT_2D('',#500,#501);
#500 = CARTESIAN_POINT('',(30.,30.));
#501 = DIRECTION('',(1.,0.));
#502 = ( GEOMETRIC_REPRESENTATION_CONTEXT(2) 
PARAMETRIC_REPRESENTATION_CONTEXT() REPRESENTATION_CONTEXT('2D SPACE',''
  ) );
#503 = PCURVE('',#504,#509);
#504 = CYLINDRICAL_SURFACE('',#505,20.);
#505 = AXIS2_PLACEMENT_3D('',#506,#507,#508);
#506 = CARTESIAN_POINT('',(0.,-31.,0.));
#507 = DIRECTION('',(0.,1.,0.));
#508 = DIRECTION('',(0.,-0.,1.));
#509 = DEFINITIONAL_REPRESENTATION('',(#510),#514);
#510 = LINE('',#511,#512);
#511 = CARTESIAN_POINT('',(0.,61.));
#512 = VECTOR('',#513,1.);
#513 = DIRECTION('',(1.,0.));
#514 = ( GEOMETRIC_REPRESENTATION_CONTEXT(2) 
PARAMETRIC_REPRESENTATION_CONTEXT() REPRESENTATION_CONTEXT('2D SPACE',''
  ) );
#515 = ADVANCED_FACE('',(#516),#179,.F.);
#516 = FACE_BOUND('',#517,.F.);
#517 = EDGE_LOOP('',(#518,#570,#606,#627,#628,#629,#665,#715));
#518 = ORIENTED_EDGE('',*,*,#519,.F.);
#519 = EDGE_CURVE('',#520,#522,#524,.T.);
#520 = VERTEX_POINT('',#521);
#521 = CARTESIAN_POINT('',(-14.14213562373,-14.14213562373,
    14.142135623731));
#522 = VERTEX_POINT('',#523);
#523 = CARTESIAN_POINT('',(-14.14213562373,-14.14213562373,
    -14.14213562373));
#524 = SURFACE_CURVE('',#525,(#530,#550),.PCURVE_S1.);
#525 = ELLIPSE('',#526,28.284271247462,20.);
#526 = AXIS2_PLACEMENT_3D('',#527,#528,#529);
#527 = CARTESIAN_POINT('',(0.,0.,0.));
#528 = DIRECTION('',(0.707106781187,-0.707106781187,0.));
#529 = DIRECTION('',(0.707106781187,0.707106781187,0.));
#530 = PCURVE('',#179,#531);
#531 = DEFINITIONAL_REPRESENTATION('',(#532),#549);
#532 = B_SPLINE_CURVE_WITH_KNOTS('',8,(#533,#534,#535,#536,#537,#538,
    #539,#540,#541,#542,#543,#544,#545,#546,#547,#548),.UNSPECIFIED.,.F.
  ,.F.,(9,7,9),(1.570796326795,3.14159265359,4.712388980385),
  .UNSPECIFIED.);
#533 = CARTESIAN_POINT('',(0.,31.));
#534 = CARTESIAN_POINT('',(0.196349540849,27.073009183013));
#535 = CARTESIAN_POINT('',(0.392699081699,23.146017433621));
#536 = CARTESIAN_POINT('',(0.589048622544,19.449734775852));
#537 = CARTESIAN_POINT('',(0.785398163399,16.214824988332));
#538 = CARTESIAN_POINT('',(0.981747704244,13.643639073263));
#539 = CARTESIAN_POINT('',(1.178097245097,11.88121551971));
#540 = CARTESIAN_POINT('',(1.374446785946,11.));
#541 = CARTESIAN_POINT('',(1.767145867644,11.));
#542 = CARTESIAN_POINT('',(1.963495408489,11.881215519721));
#543 = CARTESIAN_POINT('',(2.159844949349,13.643639073198));
#544 = CARTESIAN_POINT('',(2.356194490172,16.214824988361));
#545 = CARTESIAN_POINT('',(2.552544031047,19.449734775742));
#546 = CARTESIAN_POINT('',(2.748893571887,23.146017433639));
#547 = CARTESIAN_POINT('',(2.94524311274,27.073009183013));
#548 = CARTESIAN_POINT('',(3.14159265359,31.));
#549 = ( GEOMETRIC_REPRESENTATION_CONTEXT(2) 
PARAMETRIC_REPRESENTATION_CONTEXT() REPRESENTATION_CONTEXT('2D SPACE',''
  ) );
#550 = PCURVE('',#286,#551);
#551 = DEFINITIONAL_REPRESENTATION('',(#552),#569);
#552 = B_SPLINE_CURVE_WITH_KNOTS('',8,(#553,#554,#555,#556,#557,#558,
    #559,#560,#561,#562,#563,#564,#565,#566,#567,#568),.UNSPECIFIED.,.F.
  ,.F.,(9,7,9),(1.570796326795,3.14159265359,4.712388980385),
  .UNSPECIFIED.);
#553 = CARTESIAN_POINT('',(6.28318530718,31.));
#554 = CARTESIAN_POINT('',(6.08683576633,27.073009183013));
#555 = CARTESIAN_POINT('',(5.890486225481,23.146017433621));
#556 = CARTESIAN_POINT('',(5.694136684632,19.449734775852));
#557 = CARTESIAN_POINT('',(5.497787143786,16.214824988332));
#558 = CARTESIAN_POINT('',(5.301437602933,13.643639073263));
#559 = CARTESIAN_POINT('',(5.105088062083,11.88121551971));
#560 = CARTESIAN_POINT('',(4.908738521234,11.));
#561 = CARTESIAN_POINT('',(4.516039439535,11.));
#562 = CARTESIAN_POINT('',(4.319689898691,11.881215519721));
#563 = CARTESIAN_POINT('',(4.12334035783,13.643639073198));
#564 = CARTESIAN_POINT('',(3.926990817007,16.214824988361));
#565 = CARTESIAN_POINT('',(3.730641276133,19.449734775742));
#566 = CARTESIAN_POINT('',(3.534291735292,23.146017433639));
#567 = CARTESIAN_POINT('',(3.337942194439,27.073009183013));
#568 = CARTESIAN_POINT('',(3.14159265359,31.));
#569 = ( GEOMETRIC_REPRESENTATION_CONTEXT(2) 
PARAMETRIC_REPRESENTATION_CONTEXT() REPRESENTATION_CONTEXT('2D SPACE',''
  ) );
#570 = ORIENTED_EDGE('',*,*,#571,.F.);
#571 = EDGE_CURVE('',#572,#520,#574,.T.);
#572 = VERTEX_POINT('',#573);
#573 = CARTESIAN_POINT('',(-20.,4.898587196589E-15,20.));
#574 = SURFACE_CURVE('',#575,(#580,#593),.PCURVE_S1.);
#575 = ELLIPSE('',#576,28.284271247462,20.);
#576 = AXIS2_PLACEMENT_3D('',#577,#578,#579);
#577 = CARTESIAN_POINT('',(0.,0.,0.));
#578 = DIRECTION('',(0.707106781187,0.,0.707106781187));
#579 = DIRECTION('',(0.707106781187,0.,-0.707106781187));
#580 = PCURVE('',#179,#581);
#581 = DEFINITIONAL_REPRESENTATION('',(#582),#592);
#582 = B_SPLINE_CURVE_WITH_KNOTS('',8,(#583,#584,#585,#586,#587,#588,
    #589,#590,#591),.UNSPECIFIED.,.F.,.F.,(9,9),(3.14159265359,
    4.712388995385),.PIECEWISE_BEZIER_KNOTS.);
#583 = CARTESIAN_POINT('',(-8.881784197001E-16,11.));
#584 = CARTESIAN_POINT('',(0.196349542724,11.));
#585 = CARTESIAN_POINT('',(0.392699085448,11.881215536541));
#586 = CARTESIAN_POINT('',(0.589048628173,13.643639123758));
#587 = CARTESIAN_POINT('',(0.785398170895,16.214825086558));
#588 = CARTESIAN_POINT('',(0.981747713622,19.449734930247));
#589 = CARTESIAN_POINT('',(1.178097256345,23.146017645406));
#590 = CARTESIAN_POINT('',(1.374446799071,27.073009445513));
#591 = CARTESIAN_POINT('',(1.570796341795,31.0000003));
#592 = ( GEOMETRIC_REPRESENTATION_CONTEXT(2) 
PARAMETRIC_REPRESENTATION_CONTEXT() REPRESENTATION_CONTEXT('2D SPACE',''
  ) );
#593 = PCURVE('',#366,#594);
#594 = DEFINITIONAL_REPRESENTATION('',(#595),#605);
#595 = B_SPLINE_CURVE_WITH_KNOTS('',8,(#596,#597,#598,#599,#600,#601,
    #602,#603,#604),.UNSPECIFIED.,.F.,.F.,(9,9),(3.14159265359,
    4.712388995385),.PIECEWISE_BEZIER_KNOTS.);
#596 = CARTESIAN_POINT('',(3.14159265359,51.));
#597 = CARTESIAN_POINT('',(3.337942196314,51.));
#598 = CARTESIAN_POINT('',(3.534291739047,50.118784463382));
#599 = CARTESIAN_POINT('',(3.730641281738,48.356360876525));
#600 = CARTESIAN_POINT('',(3.926990824511,45.78517491286));
#601 = CARTESIAN_POINT('',(4.123340367183,42.550265069964));
#602 = CARTESIAN_POINT('',(4.319689909944,38.853982354529));
#603 = CARTESIAN_POINT('',(4.51603945266,34.926990554487));
#604 = CARTESIAN_POINT('',(4.712388995385,30.9999997));
#605 = ( GEOMETRIC_REPRESENTATION_CONTEXT(2) 
PARAMETRIC_REPRESENTATION_CONTEXT() REPRESENTATION_CONTEXT('2D SPACE',''
  ) );
#606 = ORIENTED_EDGE('',*,*,#607,.F.);
#607 = EDGE_CURVE('',#163,#572,#608,.T.);
#608 = SEAM_CURVE('',#609,(#613,#620),.PCURVE_S1.);
#609 = LINE('',#610,#611);
#610 = CARTESIAN_POINT('',(-31.,4.898587196589E-15,20.));
#611 = VECTOR('',#612,1.);
#612 = DIRECTION('',(1.,0.,0.));
#613 = PCURVE('',#179,#614);
#614 = DEFINITIONAL_REPRESENTATION('',(#615),#619);
#615 = LINE('',#616,#617);
#616 = CARTESIAN_POINT('',(6.28318530718,-0.));
#617 = VECTOR('',#618,1.);
#618 = DIRECTION('',(0.,1.));
#619 = ( GEOMETRIC_REPRESENTATION_CONTEXT(2) 
PARAMETRIC_REPRESENTATION_CONTEXT() REPRESENTATION_CONTEXT('2D SPACE',''
  ) );
#620 = PCURVE('',#179,#621);
#621 = DEFINITIONAL_REPRESENTATION('',(#622),#626);
#622 = LINE('',#623,#624);
#623 = CARTESIAN_POINT('',(0.,-0.));
#624 = VECTOR('',#625,1.);
#625 = DIRECTION('',(0.,1.));
#626 = ( GEOMETRIC_REPRESENTATION_CONTEXT(2) 
PARAMETRIC_REPRESENTATION_CONTEXT() REPRESENTATION_CONTEXT('2D SPACE',''
  ) );
#627 = ORIENTED_EDGE('',*,*,#162,.T.);
#628 = ORIENTED_EDGE('',*,*,#607,.T.);
#629 = ORIENTED_EDGE('',*,*,#630,.F.);
#630 = EDGE_CURVE('',#631,#572,#633,.T.);
#631 = VERTEX_POINT('',#632);
#632 = CARTESIAN_POINT('',(-14.14213562373,14.142135623731,
    14.142135623731));
#633 = SURFACE_CURVE('',#634,(#639,#652),.PCURVE_S1.);
#634 = ELLIPSE('',#635,28.284271247462,20.);
#635 = AXIS2_PLACEMENT_3D('',#636,#637,#638);
#636 = CARTESIAN_POINT('',(0.,0.,0.));
#637 = DIRECTION('',(0.707106781187,0.,0.707106781187));
#638 = DIRECTION('',(0.707106781187,0.,-0.707106781187));
#639 = PCURVE('',#179,#640);
#640 = DEFINITIONAL_REPRESENTATION('',(#641),#651);
#641 = B_SPLINE_CURVE_WITH_KNOTS('',8,(#642,#643,#644,#645,#646,#647,
    #648,#649,#650),.UNSPECIFIED.,.F.,.F.,(9,9),(1.570796311795,
    3.14159265359),.PIECEWISE_BEZIER_KNOTS.);
#642 = CARTESIAN_POINT('',(4.712388965385,31.0000003));
#643 = CARTESIAN_POINT('',(4.908738508109,27.073009445513));
#644 = CARTESIAN_POINT('',(5.105088050827,23.146017645398));
#645 = CARTESIAN_POINT('',(5.301437593571,19.449734930233));
#646 = CARTESIAN_POINT('',(5.497787136246,16.214825086558));
#647 = CARTESIAN_POINT('',(5.694136679009,13.6436391237));
#648 = CARTESIAN_POINT('',(5.890486221725,11.881215536545));
#649 = CARTESIAN_POINT('',(6.086835764455,11.));
#650 = CARTESIAN_POINT('',(6.28318530718,11.));
#651 = ( GEOMETRIC_REPRESENTATION_CONTEXT(2) 
PARAMETRIC_REPRESENTATION_CONTEXT() REPRESENTATION_CONTEXT('2D SPACE',''
  ) );
#652 = PCURVE('',#366,#653);
#653 = DEFINITIONAL_REPRESENTATION('',(#654),#664);
#654 = B_SPLINE_CURVE_WITH_KNOTS('',8,(#655,#656,#657,#658,#659,#660,
    #661,#662,#663),.UNSPECIFIED.,.F.,.F.,(9,9),(1.570796311795,
    3.14159265359),.PIECEWISE_BEZIER_KNOTS.);
#655 = CARTESIAN_POINT('',(1.570796311795,30.9999997));
#656 = CARTESIAN_POINT('',(1.767145854519,34.926990554487));
#657 = CARTESIAN_POINT('',(1.963495397244,38.853982354594));
#658 = CARTESIAN_POINT('',(2.159844939966,42.550265069585));
#659 = CARTESIAN_POINT('',(2.356194482692,45.785174913442));
#660 = CARTESIAN_POINT('',(2.552544025415,48.356360876001));
#661 = CARTESIAN_POINT('',(2.748893568141,50.118784463491));
#662 = CARTESIAN_POINT('',(2.945243110865,51.));
#663 = CARTESIAN_POINT('',(3.14159265359,51.));
#664 = ( GEOMETRIC_REPRESENTATION_CONTEXT(2) 
PARAMETRIC_REPRESENTATION_CONTEXT() REPRESENTATION_CONTEXT('2D SPACE',''
  ) );
#665 = ORIENTED_EDGE('',*,*,#666,.F.);
#666 = EDGE_CURVE('',#667,#631,#669,.T.);
#667 = VERTEX_POINT('',#668);
#668 = CARTESIAN_POINT('',(-14.14213562373,14.142135623731,
    -14.14213562373));
#669 = SURFACE_CURVE('',#670,(#675,#695),.PCURVE_S1.);
#670 = ELLIPSE('',#671,28.284271247462,20.);
#671 = AXIS2_PLACEMENT_3D('',#672,#673,#674);
#672 = CARTESIAN_POINT('',(0.,0.,0.));
#673 = DIRECTION('',(0.707106781187,0.707106781187,0.));
#674 = DIRECTION('',(0.707106781187,-0.707106781187,0.));
#675 = PCURVE('',#179,#676);
#676 = DEFINITIONAL_REPRESENTATION('',(#677),#694);
#677 = B_SPLINE_CURVE_WITH_KNOTS('',8,(#678,#679,#680,#681,#682,#683,
    #684,#685,#686,#687,#688,#689,#690,#691,#692,#693),.UNSPECIFIED.,.F.
  ,.F.,(9,7,9),(1.570796326795,3.14159265359,4.712388980385),
  .UNSPECIFIED.);
#678 = CARTESIAN_POINT('',(3.14159265359,31.));
#679 = CARTESIAN_POINT('',(3.337942194439,27.073009183013));
#680 = CARTESIAN_POINT('',(3.534291735282,23.146017433621));
#681 = CARTESIAN_POINT('',(3.730641276157,19.449734775852));
#682 = CARTESIAN_POINT('',(3.926990816955,16.214824988332));
#683 = CARTESIAN_POINT('',(4.123340357854,13.643639073263));
#684 = CARTESIAN_POINT('',(4.319689898681,11.88121551971));
#685 = CARTESIAN_POINT('',(4.516039439535,11.));
#686 = CARTESIAN_POINT('',(4.908738521234,11.));
#687 = CARTESIAN_POINT('',(5.105088062087,11.881215519721));
#688 = CARTESIAN_POINT('',(5.301437602902,13.643639073198));
#689 = CARTESIAN_POINT('',(5.49778714378,16.214824988361));
#690 = CARTESIAN_POINT('',(5.694136684611,19.449734775742));
#691 = CARTESIAN_POINT('',(5.89048622548,23.146017433639));
#692 = CARTESIAN_POINT('',(6.08683576633,27.073009183013));
#693 = CARTESIAN_POINT('',(6.28318530718,31.));
#694 = ( GEOMETRIC_REPRESENTATION_CONTEXT(2) 
PARAMETRIC_REPRESENTATION_CONTEXT() REPRESENTATION_CONTEXT('2D SPACE',''
  ) );
#695 = PCURVE('',#504,#696);
#696 = DEFINITIONAL_REPRESENTATION('',(#697),#714);
#697 = B_SPLINE_CURVE_WITH_KNOTS('',8,(#698,#699,#700,#701,#702,#703,
    #704,#705,#706,#707,#708,#709,#710,#711,#712,#713),.UNSPECIFIED.,.F.
  ,.F.,(9,7,9),(1.570796326795,3.14159265359,4.712388980385),
  .UNSPECIFIED.);
#698 = CARTESIAN_POINT('',(3.14159265359,31.));
#699 = CARTESIAN_POINT('',(3.337942194439,34.926990816987));
#700 = CARTESIAN_POINT('',(3.534291735282,38.853982566383));
#701 = CARTESIAN_POINT('',(3.730641276157,42.550265224039));
#702 = CARTESIAN_POINT('',(3.926990816955,45.785175011639));
#703 = CARTESIAN_POINT('',(4.123340357854,48.356360926613));
#704 = CARTESIAN_POINT('',(4.319689898681,50.118784480299));
#705 = CARTESIAN_POINT('',(4.516039439535,51.));
#706 = CARTESIAN_POINT('',(4.908738521234,51.));
#707 = CARTESIAN_POINT('',(5.105088062087,50.11878448027));
#708 = CARTESIAN_POINT('',(5.301437602902,48.356360926904));
#709 = CARTESIAN_POINT('',(5.49778714378,45.785175011348));
#710 = CARTESIAN_POINT('',(5.694136684611,42.550265224156));
#711 = CARTESIAN_POINT('',(5.89048622548,38.853982566376));
#712 = CARTESIAN_POINT('',(6.08683576633,34.926990816987));
#713 = CARTESIAN_POINT('',(6.28318530718,31.));
#714 = ( GEOMETRIC_REPRESENTATION_CONTEXT(2) 
PARAMETRIC_REPRESENTATION_CONTEXT() REPRESENTATION_CONTEXT('2D SPACE',''
  ) );
#715 = ORIENTED_EDGE('',*,*,#716,.F.);
#716 = EDGE_CURVE('',#522,#667,#717,.T.);
#717 = SURFACE_CURVE('',#718,(#723,#743),.PCURVE_S1.);
#718 = ELLIPSE('',#719,28.284271247462,20.);
#719 = AXIS2_PLACEMENT_3D('',#720,#721,#722);
#720 = CARTESIAN_POINT('',(0.,0.,0.));
#721 = DIRECTION('',(0.707106781187,0.,-0.707106781187));
#722 = DIRECTION('',(0.707106781187,0.,0.707106781187));
#723 = PCURVE('',#179,#724);
#724 = DEFINITIONAL_REPRESENTATION('',(#725),#742);
#725 = B_SPLINE_CURVE_WITH_KNOTS('',8,(#726,#727,#728,#729,#730,#731,
    #732,#733,#734,#735,#736,#737,#738,#739,#740,#741),.UNSPECIFIED.,.F.
  ,.F.,(9,7,9),(1.570796311795,3.14159265359,4.712388995385),
  .UNSPECIFIED.);
#726 = CARTESIAN_POINT('',(1.570796311795,31.0000003));
#727 = CARTESIAN_POINT('',(1.767145854519,27.073009445513));
#728 = CARTESIAN_POINT('',(1.963495397243,23.1460176454));
#729 = CARTESIAN_POINT('',(2.159844939968,19.449734930276));
#730 = CARTESIAN_POINT('',(2.356194482689,16.214825086601));
#731 = CARTESIAN_POINT('',(2.552544025417,13.643639123722));
#732 = CARTESIAN_POINT('',(2.748893568141,11.881215536539));
#733 = CARTESIAN_POINT('',(2.945243110865,11.));
#734 = CARTESIAN_POINT('',(3.337942196314,11.));
#735 = CARTESIAN_POINT('',(3.534291739043,11.881215536529));
#736 = CARTESIAN_POINT('',(3.730641281745,13.643639123715));
#737 = CARTESIAN_POINT('',(3.926990824504,16.214825086572));
#738 = CARTESIAN_POINT('',(4.12334036719,19.449734930262));
#739 = CARTESIAN_POINT('',(4.31968990994,23.146017645402));
#740 = CARTESIAN_POINT('',(4.51603945266,27.073009445513));
#741 = CARTESIAN_POINT('',(4.712388995385,31.0000003));
#742 = ( GEOMETRIC_REPRESENTATION_CONTEXT(2) 
PARAMETRIC_REPRESENTATION_CONTEXT() REPRESENTATION_CONTEXT('2D SPACE',''
  ) );
#743 = PCURVE('',#446,#744);
#744 = DEFINITIONAL_REPRESENTATION('',(#745),#762);
#745 = B_SPLINE_CURVE_WITH_KNOTS('',8,(#746,#747,#748,#749,#750,#751,
    #752,#753,#754,#755,#756,#757,#758,#759,#760,#761),.UNSPECIFIED.,.F.
  ,.F.,(9,7,9),(1.570796311795,3.14159265359,4.712388995385),
  .UNSPECIFIED.);
#746 = CARTESIAN_POINT('',(4.712388995385,31.0000003));
#747 = CARTESIAN_POINT('',(4.51603945266,27.073009445513));
#748 = CARTESIAN_POINT('',(4.319689909933,23.1460176454));
#749 = CARTESIAN_POINT('',(4.123340367225,19.449734930276));
#750 = CARTESIAN_POINT('',(3.926990824471,16.214825086601));
#751 = CARTESIAN_POINT('',(3.730641281767,13.643639123722));
#752 = CARTESIAN_POINT('',(3.534291739038,11.881215536539));
#753 = CARTESIAN_POINT('',(3.337942196314,11.));
#754 = CARTESIAN_POINT('',(2.945243110865,11.));
#755 = CARTESIAN_POINT('',(2.74889356814,11.881215536529));
#756 = CARTESIAN_POINT('',(2.552544025423,13.643639123715));
#757 = CARTESIAN_POINT('',(2.356194482685,16.214825086572));
#758 = CARTESIAN_POINT('',(2.159844939972,19.449734930262));
#759 = CARTESIAN_POINT('',(1.963495397243,23.146017645402));
#760 = CARTESIAN_POINT('',(1.767145854519,27.073009445513));
#761 = CARTESIAN_POINT('',(1.570796311795,31.0000003));
#762 = ( GEOMETRIC_REPRESENTATION_CONTEXT(2) 
PARAMETRIC_REPRESENTATION_CONTEXT() REPRESENTATION_CONTEXT('2D SPACE',''
  ) );
#763 = ADVANCED_FACE('',(#764,#770),#255,.T.);
#764 = FACE_BOUND('',#765,.T.);
#765 = EDGE_LOOP('',(#766,#767,#768,#769));
#766 = ORIENTED_EDGE('',*,*,#241,.F.);
#767 = ORIENTED_EDGE('',*,*,#383,.T.);
#768 = ORIENTED_EDGE('',*,*,#464,.T.);
#769 = ORIENTED_EDGE('',*,*,#303,.F.);
#770 = FACE_BOUND('',#771,.T.);
#771 = EDGE_LOOP('',(#772));
#772 = ORIENTED_EDGE('',*,*,#773,.F.);
#773 = EDGE_CURVE('',#774,#774,#776,.T.);
#774 = VERTEX_POINT('',#775);
#775 = CARTESIAN_POINT('',(30.,4.898587196589E-15,20.));
#776 = SURFACE_CURVE('',#777,(#782,#789),.PCURVE_S1.);
#777 = CIRCLE('',#778,20.);
#778 = AXIS2_PLACEMENT_3D('',#779,#780,#781);
#779 = CARTESIAN_POINT('',(30.,0.,0.));
#780 = DIRECTION('',(1.,0.,0.));
#781 = DIRECTION('',(-0.,0.,1.));
#782 = PCURVE('',#255,#783);
#783 = DEFINITIONAL_REPRESENTATION('',(#784),#788);
#784 = CIRCLE('',#785,20.);
#785 = AXIS2_PLACEMENT_2D('',#786,#787);
#786 = CARTESIAN_POINT('',(30.,-30.));
#787 = DIRECTION('',(1.,0.));
#788 = ( GEOMETRIC_REPRESENTATION_CONTEXT(2) 
PARAMETRIC_REPRESENTATION_CONTEXT() REPRESENTATION_CONTEXT('2D SPACE',''
  ) );
#789 = PCURVE('',#790,#795);
#790 = CYLINDRICAL_SURFACE('',#791,20.);
#791 = AXIS2_PLACEMENT_3D('',#792,#793,#794);
#792 = CARTESIAN_POINT('',(-31.,0.,0.));
#793 = DIRECTION('',(1.,0.,0.));
#794 = DIRECTION('',(-0.,0.,1.));
#795 = DEFINITIONAL_REPRESENTATION('',(#796),#800);
#796 = LINE('',#797,#798);
#797 = CARTESIAN_POINT('',(0.,61.));
#798 = VECTOR('',#799,1.);
#799 = DIRECTION('',(1.,0.));
#800 = ( GEOMETRIC_REPRESENTATION_CONTEXT(2) 
PARAMETRIC_REPRESENTATION_CONTEXT() REPRESENTATION_CONTEXT('2D SPACE',''
  ) );
#801 = ADVANCED_FACE('',(#802),#286,.F.);
#802 = FACE_BOUND('',#803,.F.);
#803 = EDGE_LOOP('',(#804,#842,#878,#899,#900,#901,#935,#936,#986));
#804 = ORIENTED_EDGE('',*,*,#805,.F.);
#805 = EDGE_CURVE('',#806,#808,#810,.T.);
#806 = VERTEX_POINT('',#807);
#807 = CARTESIAN_POINT('',(14.142135623731,-14.14213562373,
    14.142135623731));
#808 = VERTEX_POINT('',#809);
#809 = CARTESIAN_POINT('',(20.,-20.,2.449293598295E-15));
#810 = SURFACE_CURVE('',#811,(#816,#829),.PCURVE_S1.);
#811 = ELLIPSE('',#812,28.284271247462,20.);
#812 = AXIS2_PLACEMENT_3D('',#813,#814,#815);
#813 = CARTESIAN_POINT('',(0.,0.,0.));
#814 = DIRECTION('',(0.707106781187,0.707106781187,0.));
#815 = DIRECTION('',(0.707106781187,-0.707106781187,0.));
#816 = PCURVE('',#286,#817);
#817 = DEFINITIONAL_REPRESENTATION('',(#818),#828);
#818 = B_SPLINE_CURVE_WITH_KNOTS('',8,(#819,#820,#821,#822,#823,#824,
    #825,#826,#827),.UNSPECIFIED.,.F.,.F.,(9,9),(4.712388980385,
    6.28318530718),.PIECEWISE_BEZIER_KNOTS.);
#819 = CARTESIAN_POINT('',(0.,31.));
#820 = CARTESIAN_POINT('',(0.196349540849,27.073009183013));
#821 = CARTESIAN_POINT('',(0.392699081698,23.146017433603));
#822 = CARTESIAN_POINT('',(0.589048622546,19.449734775895));
#823 = CARTESIAN_POINT('',(0.785398163397,16.214824988318));
#824 = CARTESIAN_POINT('',(0.981747704247,13.643639073307));
#825 = CARTESIAN_POINT('',(1.178097245096,11.881215519692));
#826 = CARTESIAN_POINT('',(1.374446785946,11.));
#827 = CARTESIAN_POINT('',(1.570796326795,11.));
#828 = ( GEOMETRIC_REPRESENTATION_CONTEXT(2) 
PARAMETRIC_REPRESENTATION_CONTEXT() REPRESENTATION_CONTEXT('2D SPACE',''
  ) );
#829 = PCURVE('',#790,#830);
#830 = DEFINITIONAL_REPRESENTATION('',(#831),#841);
#831 = B_SPLINE_CURVE_WITH_KNOTS('',8,(#832,#833,#834,#835,#836,#837,
    #838,#839,#840),.UNSPECIFIED.,.F.,.F.,(9,9),(4.712388980385,
    6.28318530718),.PIECEWISE_BEZIER_KNOTS.);
#832 = CARTESIAN_POINT('',(0.,31.));
#833 = CARTESIAN_POINT('',(0.196349540849,34.926990816987));
#834 = CARTESIAN_POINT('',(0.392699081698,38.853982566383));
#835 = CARTESIAN_POINT('',(0.589048622546,42.550265224068));
#836 = CARTESIAN_POINT('',(0.785398163397,45.78517501161));
#837 = CARTESIAN_POINT('',(0.981747704247,48.356360926642));
#838 = CARTESIAN_POINT('',(1.178097245096,50.118784480292));
#839 = CARTESIAN_POINT('',(1.374446785946,51.));
#840 = CARTESIAN_POINT('',(1.570796326795,51.));
#841 = ( GEOMETRIC_REPRESENTATION_CONTEXT(2) 
PARAMETRIC_REPRESENTATION_CONTEXT() REPRESENTATION_CONTEXT('2D SPACE',''
  ) );
#842 = ORIENTED_EDGE('',*,*,#843,.F.);
#843 = EDGE_CURVE('',#844,#806,#846,.T.);
#844 = VERTEX_POINT('',#845);
#845 = CARTESIAN_POINT('',(-4.898587196589E-15,-20.,20.));
#846 = SURFACE_CURVE('',#847,(#852,#865),.PCURVE_S1.);
#847 = ELLIPSE('',#848,28.284271247462,20.);
#848 = AXIS2_PLACEMENT_3D('',#849,#850,#851);
#849 = CARTESIAN_POINT('',(0.,0.,0.));
#850 = DIRECTION('',(0.,0.707106781187,0.707106781187));
#851 = DIRECTION('',(0.,0.707106781187,-0.707106781187));
#852 = PCURVE('',#286,#853);
#853 = DEFINITIONAL_REPRESENTATION('',(#854),#864);
#854 = B_SPLINE_CURVE_WITH_KNOTS('',8,(#855,#856,#857,#858,#859,#860,
    #861,#862,#863),.UNSPECIFIED.,.F.,.F.,(9,9),(3.14159265359,
    4.712388980385),.PIECEWISE_BEZIER_KNOTS.);
#855 = CARTESIAN_POINT('',(-8.881784197001E-16,11.));
#856 = CARTESIAN_POINT('',(0.196349540849,11.));
#857 = CARTESIAN_POINT('',(0.392699081699,11.881215519716));
#858 = CARTESIAN_POINT('',(0.589048622544,13.643639073198));
#859 = CARTESIAN_POINT('',(0.7853981634,16.21482498839));
#860 = CARTESIAN_POINT('',(0.981747704245,19.449734775757));
#861 = CARTESIAN_POINT('',(1.178097245097,23.146017433639));
#862 = CARTESIAN_POINT('',(1.374446785946,27.073009183013));
#863 = CARTESIAN_POINT('',(1.570796326795,31.));
#864 = ( GEOMETRIC_REPRESENTATION_CONTEXT(2) 
PARAMETRIC_REPRESENTATION_CONTEXT() REPRESENTATION_CONTEXT('2D SPACE',''
  ) );
#865 = PCURVE('',#366,#866);
#866 = DEFINITIONAL_REPRESENTATION('',(#867),#877);
#867 = B_SPLINE_CURVE_WITH_KNOTS('',8,(#868,#869,#870,#871,#872,#873,
    #874,#875,#876),.UNSPECIFIED.,.F.,.F.,(9,9),(3.14159265359,
    4.712388980385),.PIECEWISE_BEZIER_KNOTS.);
#868 = CARTESIAN_POINT('',(4.712388980385,51.));
#869 = CARTESIAN_POINT('',(4.908738521234,51.));
#870 = CARTESIAN_POINT('',(5.10508806208,50.118784480255));
#871 = CARTESIAN_POINT('',(5.301437602928,48.356360926817));
#872 = CARTESIAN_POINT('',(5.49778714377,45.785175011406));
#873 = CARTESIAN_POINT('',(5.694136684622,42.550265224272));
#874 = CARTESIAN_POINT('',(5.890486225474,38.853982566376));
#875 = CARTESIAN_POINT('',(6.08683576633,34.926990816987));
#876 = CARTESIAN_POINT('',(6.28318530718,31.));
#877 = ( GEOMETRIC_REPRESENTATION_CONTEXT(2) 
PARAMETRIC_REPRESENTATION_CONTEXT() REPRESENTATION_CONTEXT('2D SPACE',''
  ) );
#878 = ORIENTED_EDGE('',*,*,#879,.F.);
#879 = EDGE_CURVE('',#270,#844,#880,.T.);
#880 = SEAM_CURVE('',#881,(#885,#892),.PCURVE_S1.);
#881 = LINE('',#882,#883);
#882 = CARTESIAN_POINT('',(-4.898587196589E-15,-31.,20.));
#883 = VECTOR('',#884,1.);
#884 = DIRECTION('',(0.,1.,0.));
#885 = PCURVE('',#286,#886);
#886 = DEFINITIONAL_REPRESENTATION('',(#887),#891);
#887 = LINE('',#888,#889);
#888 = CARTESIAN_POINT('',(6.28318530718,-0.));
#889 = VECTOR('',#890,1.);
#890 = DIRECTION('',(0.,1.));
#891 = ( GEOMETRIC_REPRESENTATION_CONTEXT(2) 
PARAMETRIC_REPRESENTATION_CONTEXT() REPRESENTATION_CONTEXT('2D SPACE',''
  ) );
#892 = PCURVE('',#286,#893);
#893 = DEFINITIONAL_REPRESENTATION('',(#894),#898);
#894 = LINE('',#895,#896);
#895 = CARTESIAN_POINT('',(0.,-0.));
#896 = VECTOR('',#897,1.);
#897 = DIRECTION('',(0.,1.));
#898 = ( GEOMETRIC_REPRESENTATION_CONTEXT(2) 
PARAMETRIC_REPRESENTATION_CONTEXT() REPRESENTATION_CONTEXT('2D SPACE',''
  ) );
#899 = ORIENTED_EDGE('',*,*,#269,.T.);
#900 = ORIENTED_EDGE('',*,*,#879,.T.);
#901 = ORIENTED_EDGE('',*,*,#902,.F.);
#902 = EDGE_CURVE('',#520,#844,#903,.T.);
#903 = SURFACE_CURVE('',#904,(#909,#922),.PCURVE_S1.);
#904 = ELLIPSE('',#905,28.284271247462,20.);
#905 = AXIS2_PLACEMENT_3D('',#906,#907,#908);
#906 = CARTESIAN_POINT('',(0.,0.,0.));
#907 = DIRECTION('',(0.,0.707106781187,0.707106781187));
#908 = DIRECTION('',(0.,0.707106781187,-0.707106781187));
#909 = PCURVE('',#286,#910);
#910 = DEFINITIONAL_REPRESENTATION('',(#911),#921);
#911 = B_SPLINE_CURVE_WITH_KNOTS('',8,(#912,#913,#914,#915,#916,#917,
    #918,#919,#920),.UNSPECIFIED.,.F.,.F.,(9,9),(1.570796311795,
    3.14159265359),.PIECEWISE_BEZIER_KNOTS.);
#912 = CARTESIAN_POINT('',(4.712388965385,31.0000003));
#913 = CARTESIAN_POINT('',(4.908738508109,27.073009445513));
#914 = CARTESIAN_POINT('',(5.105088050827,23.146017645398));
#915 = CARTESIAN_POINT('',(5.301437593571,19.449734930233));
#916 = CARTESIAN_POINT('',(5.497787136246,16.214825086558));
#917 = CARTESIAN_POINT('',(5.694136679009,13.6436391237));
#918 = CARTESIAN_POINT('',(5.890486221725,11.881215536545));
#919 = CARTESIAN_POINT('',(6.086835764455,11.));
#920 = CARTESIAN_POINT('',(6.28318530718,11.));
#921 = ( GEOMETRIC_REPRESENTATION_CONTEXT(2) 
PARAMETRIC_REPRESENTATION_CONTEXT() REPRESENTATION_CONTEXT('2D SPACE',''
  ) );
#922 = PCURVE('',#366,#923);
#923 = DEFINITIONAL_REPRESENTATION('',(#924),#934);
#924 = B_SPLINE_CURVE_WITH_KNOTS('',8,(#925,#926,#927,#928,#929,#930,
    #931,#932,#933),.UNSPECIFIED.,.F.,.F.,(9,9),(1.570796311795,
    3.14159265359),.PIECEWISE_BEZIER_KNOTS.);
#925 = CARTESIAN_POINT('',(3.14159263859,30.9999997));
#926 = CARTESIAN_POINT('',(3.337942181314,34.926990554487));
#927 = CARTESIAN_POINT('',(3.534291724041,38.853982354594));
#928 = CARTESIAN_POINT('',(3.73064126674,42.550265069585));
#929 = CARTESIAN_POINT('',(3.926990809508,45.785174913442));
#930 = CARTESIAN_POINT('',(4.123340352186,48.356360876001));
#931 = CARTESIAN_POINT('',(4.319689894937,50.118784463491));
#932 = CARTESIAN_POINT('',(4.51603943766,51.));
#933 = CARTESIAN_POINT('',(4.712388980385,51.));
#934 = ( GEOMETRIC_REPRESENTATION_CONTEXT(2) 
PARAMETRIC_REPRESENTATION_CONTEXT() REPRESENTATION_CONTEXT('2D SPACE',''
  ) );
#935 = ORIENTED_EDGE('',*,*,#519,.T.);
#936 = ORIENTED_EDGE('',*,*,#937,.F.);
#937 = EDGE_CURVE('',#938,#522,#940,.T.);
#938 = VERTEX_POINT('',#939);
#939 = CARTESIAN_POINT('',(14.142135623731,-14.14213562373,
    -14.14213562373));
#940 = SURFACE_CURVE('',#941,(#946,#966),.PCURVE_S1.);
#941 = ELLIPSE('',#942,28.284271247462,20.);
#942 = AXIS2_PLACEMENT_3D('',#943,#944,#945);
#943 = CARTESIAN_POINT('',(0.,0.,0.));
#944 = DIRECTION('',(0.,0.707106781187,-0.707106781187));
#945 = DIRECTION('',(0.,0.707106781187,0.707106781187));
#946 = PCURVE('',#286,#947);
#947 = DEFINITIONAL_REPRESENTATION('',(#948),#965);
#948 = B_SPLINE_CURVE_WITH_KNOTS('',8,(#949,#950,#951,#952,#953,#954,
    #955,#956,#957,#958,#959,#960,#961,#962,#963,#964),.UNSPECIFIED.,.F.
  ,.F.,(9,7,9),(1.570796311795,3.14159265359,4.712388995385),
  .UNSPECIFIED.);
#949 = CARTESIAN_POINT('',(1.570796311795,31.0000003));
#950 = CARTESIAN_POINT('',(1.767145854519,27.073009445513));
#951 = CARTESIAN_POINT('',(1.963495397244,23.146017645398));
#952 = CARTESIAN_POINT('',(2.159844939966,19.449734930233));
#953 = CARTESIAN_POINT('',(2.356194482692,16.214825086558));
#954 = CARTESIAN_POINT('',(2.552544025415,13.6436391237));
#955 = CARTESIAN_POINT('',(2.748893568141,11.881215536545));
#956 = CARTESIAN_POINT('',(2.945243110865,11.));
#957 = CARTESIAN_POINT('',(3.337942196314,11.));
#958 = CARTESIAN_POINT('',(3.534291739047,11.881215536541));
#959 = CARTESIAN_POINT('',(3.730641281738,13.643639123758));
#960 = CARTESIAN_POINT('',(3.926990824511,16.214825086558));
#961 = CARTESIAN_POINT('',(4.123340367183,19.449734930247));
#962 = CARTESIAN_POINT('',(4.319689909944,23.146017645406));
#963 = CARTESIAN_POINT('',(4.51603945266,27.073009445513));
#964 = CARTESIAN_POINT('',(4.712388995385,31.0000003));
#965 = ( GEOMETRIC_REPRESENTATION_CONTEXT(2) 
PARAMETRIC_REPRESENTATION_CONTEXT() REPRESENTATION_CONTEXT('2D SPACE',''
  ) );
#966 = PCURVE('',#446,#967);
#967 = DEFINITIONAL_REPRESENTATION('',(#968),#985);
#968 = B_SPLINE_CURVE_WITH_KNOTS('',8,(#969,#970,#971,#972,#973,#974,
    #975,#976,#977,#978,#979,#980,#981,#982,#983,#984),.UNSPECIFIED.,.F.
  ,.F.,(9,7,9),(1.570796311795,3.14159265359,4.712388995385),
  .UNSPECIFIED.);
#969 = CARTESIAN_POINT('',(6.28318532218,31.0000003));
#970 = CARTESIAN_POINT('',(6.086835779455,27.073009445513));
#971 = CARTESIAN_POINT('',(5.890486236733,23.146017645398));
#972 = CARTESIAN_POINT('',(5.694136694,19.449734930233));
#973 = CARTESIAN_POINT('',(5.497787151292,16.214825086558));
#974 = CARTESIAN_POINT('',(5.301437608553,13.6436391237));
#975 = CARTESIAN_POINT('',(5.105088065835,11.881215536545));
#976 = CARTESIAN_POINT('',(4.908738523109,11.));
#977 = CARTESIAN_POINT('',(4.51603943766,11.));
#978 = CARTESIAN_POINT('',(4.319689894939,11.881215536541));
#979 = CARTESIAN_POINT('',(4.123340352208,13.643639123758));
#980 = CARTESIAN_POINT('',(3.9269908095,16.214825086558));
#981 = CARTESIAN_POINT('',(3.73064126676,19.449734930247));
#982 = CARTESIAN_POINT('',(3.534291724039,23.146017645406));
#983 = CARTESIAN_POINT('',(3.337942181314,27.073009445513));
#984 = CARTESIAN_POINT('',(3.14159263859,31.0000003));
#985 = ( GEOMETRIC_REPRESENTATION_CONTEXT(2) 
PARAMETRIC_REPRESENTATION_CONTEXT() REPRESENTATION_CONTEXT('2D SPACE',''
  ) );
#986 = ORIENTED_EDGE('',*,*,#987,.F.);
#987 = EDGE_CURVE('',#808,#938,#988,.T.);
#988 = SURFACE_CURVE('',#989,(#994,#1007),.PCURVE_S1.);
#989 = ELLIPSE('',#990,28.284271247462,20.);
#990 = AXIS2_PLACEMENT_3D('',#991,#992,#993);
#991 = CARTESIAN_POINT('',(0.,0.,0.));
#992 = DIRECTION('',(0.707106781187,0.707106781187,0.));
#993 = DIRECTION('',(0.707106781187,-0.707106781187,0.));
#994 = PCURVE('',#286,#995);
#995 = DEFINITIONAL_REPRESENTATION('',(#996),#1006);
#996 = B_SPLINE_CURVE_WITH_KNOTS('',8,(#997,#998,#999,#1000,#1001,#1002,
    #1003,#1004,#1005),.UNSPECIFIED.,.F.,.F.,(9,9),(0.,1.570796326795),
  .PIECEWISE_BEZIER_KNOTS.);
#997 = CARTESIAN_POINT('',(1.570796326795,11.));
#998 = CARTESIAN_POINT('',(1.767145867644,11.));
#999 = CARTESIAN_POINT('',(1.963495408489,11.881215519741));
#1000 = CARTESIAN_POINT('',(2.159844949349,13.643639073118));
#1001 = CARTESIAN_POINT('',(2.356194490172,16.214824988492));
#1002 = CARTESIAN_POINT('',(2.552544031047,19.449734775713));
#1003 = CARTESIAN_POINT('',(2.748893571887,23.146017433661));
#1004 = CARTESIAN_POINT('',(2.94524311274,27.073009183013));
#1005 = CARTESIAN_POINT('',(3.14159265359,31.));
#1006 = ( GEOMETRIC_REPRESENTATION_CONTEXT(2) 
PARAMETRIC_REPRESENTATION_CONTEXT() REPRESENTATION_CONTEXT('2D SPACE',''
  ) );
#1007 = PCURVE('',#790,#1008);
#1008 = DEFINITIONAL_REPRESENTATION('',(#1009),#1019);
#1009 = B_SPLINE_CURVE_WITH_KNOTS('',8,(#1010,#1011,#1012,#1013,#1014,
    #1015,#1016,#1017,#1018),.UNSPECIFIED.,.F.,.F.,(9,9),(0.,
    1.570796326795),.PIECEWISE_BEZIER_KNOTS.);
#1010 = CARTESIAN_POINT('',(1.570796326795,51.));
#1011 = CARTESIAN_POINT('',(1.767145867644,51.));
#1012 = CARTESIAN_POINT('',(1.963495408489,50.118784480233));
#1013 = CARTESIAN_POINT('',(2.159844949349,48.356360926788));
#1014 = CARTESIAN_POINT('',(2.356194490172,45.785175011551));
#1015 = CARTESIAN_POINT('',(2.552544031047,42.550265224243));
#1016 = CARTESIAN_POINT('',(2.748893571887,38.853982566354));
#1017 = CARTESIAN_POINT('',(2.94524311274,34.926990816987));
#1018 = CARTESIAN_POINT('',(3.14159265359,31.));
#1019 = ( GEOMETRIC_REPRESENTATION_CONTEXT(2) 
PARAMETRIC_REPRESENTATION_CONTEXT() REPRESENTATION_CONTEXT('2D SPACE',''
  ) );
#1020 = ADVANCED_FACE('',(#1021),#366,.F.);
#1021 = FACE_BOUND('',#1022,.F.);
#1022 = EDGE_LOOP('',(#1023,#1024,#1047,#1083,#1119,#1153,#1154,#1155,
    #1156,#1157,#1191));
#1023 = ORIENTED_EDGE('',*,*,#349,.F.);
#1024 = ORIENTED_EDGE('',*,*,#1025,.F.);
#1025 = EDGE_CURVE('',#1026,#350,#1028,.T.);
#1026 = VERTEX_POINT('',#1027);
#1027 = CARTESIAN_POINT('',(20.,0.,20.));
#1028 = SEAM_CURVE('',#1029,(#1033,#1040),.PCURVE_S1.);
#1029 = LINE('',#1030,#1031);
#1030 = CARTESIAN_POINT('',(20.,-4.898587196589E-15,-31.));
#1031 = VECTOR('',#1032,1.);
#1032 = DIRECTION('',(0.,0.,1.));
#1033 = PCURVE('',#366,#1034);
#1034 = DEFINITIONAL_REPRESENTATION('',(#1035),#1039);
#1035 = LINE('',#1036,#1037);
#1036 = CARTESIAN_POINT('',(6.28318530718,-0.));
#1037 = VECTOR('',#1038,1.);
#1038 = DIRECTION('',(0.,1.));
#1039 = ( GEOMETRIC_REPRESENTATION_CONTEXT(2) 
PARAMETRIC_REPRESENTATION_CONTEXT() REPRESENTATION_CONTEXT('2D SPACE',''
  ) );
#1040 = PCURVE('',#366,#1041);
#1041 = DEFINITIONAL_REPRESENTATION('',(#1042),#1046);
#1042 = LINE('',#1043,#1044);
#1043 = CARTESIAN_POINT('',(0.,-0.));
#1044 = VECTOR('',#1045,1.);
#1045 = DIRECTION('',(0.,1.));
#1046 = ( GEOMETRIC_REPRESENTATION_CONTEXT(2) 
PARAMETRIC_REPRESENTATION_CONTEXT() REPRESENTATION_CONTEXT('2D SPACE',''
  ) );
#1047 = ORIENTED_EDGE('',*,*,#1048,.F.);
#1048 = EDGE_CURVE('',#1049,#1026,#1051,.T.);
#1049 = VERTEX_POINT('',#1050);
#1050 = CARTESIAN_POINT('',(14.142135623731,14.142135623731,
    14.142135623731));
#1051 = SURFACE_CURVE('',#1052,(#1057,#1070),.PCURVE_S1.);
#1052 = ELLIPSE('',#1053,28.284271247462,20.);
#1053 = AXIS2_PLACEMENT_3D('',#1054,#1055,#1056);
#1054 = CARTESIAN_POINT('',(0.,0.,0.));
#1055 = DIRECTION('',(0.707106781187,0.,-0.707106781187));
#1056 = DIRECTION('',(0.707106781187,0.,0.707106781187));
#1057 = PCURVE('',#366,#1058);
#1058 = DEFINITIONAL_REPRESENTATION('',(#1059),#1069);
#1059 = B_SPLINE_CURVE_WITH_KNOTS('',8,(#1060,#1061,#1062,#1063,#1064,
    #1065,#1066,#1067,#1068),.UNSPECIFIED.,.F.,.F.,(9,9),(4.712388965385
    ,6.28318530718),.PIECEWISE_BEZIER_KNOTS.);
#1060 = CARTESIAN_POINT('',(1.570796341795,30.9999997));
#1061 = CARTESIAN_POINT('',(1.374446799071,34.926990554487));
#1062 = CARTESIAN_POINT('',(1.178097256346,38.85398235458));
#1063 = CARTESIAN_POINT('',(0.981747713621,42.550265069644));
#1064 = CARTESIAN_POINT('',(0.785398170894,45.78517491321));
#1065 = CARTESIAN_POINT('',(0.589048628171,48.356360876118));
#1066 = CARTESIAN_POINT('',(0.392699085448,50.118784463448));
#1067 = CARTESIAN_POINT('',(0.196349542724,51.));
#1068 = CARTESIAN_POINT('',(2.449293598295E-16,51.));
#1069 = ( GEOMETRIC_REPRESENTATION_CONTEXT(2) 
PARAMETRIC_REPRESENTATION_CONTEXT() REPRESENTATION_CONTEXT('2D SPACE',''
  ) );
#1070 = PCURVE('',#790,#1071);
#1071 = DEFINITIONAL_REPRESENTATION('',(#1072),#1082);
#1072 = B_SPLINE_CURVE_WITH_KNOTS('',8,(#1073,#1074,#1075,#1076,#1077,
    #1078,#1079,#1080,#1081),.UNSPECIFIED.,.F.,.F.,(9,9),(4.712388965385
    ,6.28318530718),.PIECEWISE_BEZIER_KNOTS.);
#1073 = CARTESIAN_POINT('',(4.712388965385,30.9999997));
#1074 = CARTESIAN_POINT('',(4.908738508109,34.926990554487));
#1075 = CARTESIAN_POINT('',(5.105088050829,38.85398235458));
#1076 = CARTESIAN_POINT('',(5.30143759356,42.550265069644));
#1077 = CARTESIAN_POINT('',(5.497787136257,45.78517491321));
#1078 = CARTESIAN_POINT('',(5.694136679016,48.356360876118));
#1079 = CARTESIAN_POINT('',(5.890486221729,50.118784463448));
#1080 = CARTESIAN_POINT('',(6.086835764455,51.));
#1081 = CARTESIAN_POINT('',(6.28318530718,51.));
#1082 = ( GEOMETRIC_REPRESENTATION_CONTEXT(2) 
PARAMETRIC_REPRESENTATION_CONTEXT() REPRESENTATION_CONTEXT('2D SPACE',''
  ) );
#1083 = ORIENTED_EDGE('',*,*,#1084,.F.);
#1084 = EDGE_CURVE('',#1085,#1049,#1087,.T.);
#1085 = VERTEX_POINT('',#1086);
#1086 = CARTESIAN_POINT('',(-4.898587196589E-15,20.,20.));
#1087 = SURFACE_CURVE('',#1088,(#1093,#1106),.PCURVE_S1.);
#1088 = ELLIPSE('',#1089,28.284271247462,20.);
#1089 = AXIS2_PLACEMENT_3D('',#1090,#1091,#1092);
#1090 = CARTESIAN_POINT('',(0.,0.,0.));
#1091 = DIRECTION('',(0.,0.707106781187,-0.707106781187));
#1092 = DIRECTION('',(0.,0.707106781187,0.707106781187));
#1093 = PCURVE('',#366,#1094);
#1094 = DEFINITIONAL_REPRESENTATION('',(#1095),#1105);
#1095 = B_SPLINE_CURVE_WITH_KNOTS('',8,(#1096,#1097,#1098,#1099,#1100,
    #1101,#1102,#1103,#1104),.UNSPECIFIED.,.F.,.F.,(9,9),(0.,
    1.570796326795),.PIECEWISE_BEZIER_KNOTS.);
#1096 = CARTESIAN_POINT('',(1.570796326795,51.));
#1097 = CARTESIAN_POINT('',(1.374446785946,51.));
#1098 = CARTESIAN_POINT('',(1.178097245096,50.118784480233));
#1099 = CARTESIAN_POINT('',(0.981747704243,48.356360926788));
#1100 = CARTESIAN_POINT('',(0.785398163399,45.785175011551));
#1101 = CARTESIAN_POINT('',(0.589048622545,42.550265224243));
#1102 = CARTESIAN_POINT('',(0.392699081699,38.853982566354));
#1103 = CARTESIAN_POINT('',(0.196349540849,34.926990816987));
#1104 = CARTESIAN_POINT('',(6.123233995737E-17,31.));
#1105 = ( GEOMETRIC_REPRESENTATION_CONTEXT(2) 
PARAMETRIC_REPRESENTATION_CONTEXT() REPRESENTATION_CONTEXT('2D SPACE',''
  ) );
#1106 = PCURVE('',#504,#1107);
#1107 = DEFINITIONAL_REPRESENTATION('',(#1108),#1118);
#1108 = B_SPLINE_CURVE_WITH_KNOTS('',8,(#1109,#1110,#1111,#1112,#1113,
    #1114,#1115,#1116,#1117),.UNSPECIFIED.,.F.,.F.,(9,9),(0.,
    1.570796326795),.PIECEWISE_BEZIER_KNOTS.);
#1109 = CARTESIAN_POINT('',(0.,51.));
#1110 = CARTESIAN_POINT('',(0.196349540849,51.));
#1111 = CARTESIAN_POINT('',(0.392699081698,50.118784480233));
#1112 = CARTESIAN_POINT('',(0.589048622548,48.356360926788));
#1113 = CARTESIAN_POINT('',(0.785398163395,45.785175011551));
#1114 = CARTESIAN_POINT('',(0.981747704246,42.550265224243));
#1115 = CARTESIAN_POINT('',(1.178097245096,38.853982566354));
#1116 = CARTESIAN_POINT('',(1.374446785946,34.926990816987));
#1117 = CARTESIAN_POINT('',(1.570796326795,31.));
#1118 = ( GEOMETRIC_REPRESENTATION_CONTEXT(2) 
PARAMETRIC_REPRESENTATION_CONTEXT() REPRESENTATION_CONTEXT('2D SPACE',''
  ) );
#1119 = ORIENTED_EDGE('',*,*,#1120,.F.);
#1120 = EDGE_CURVE('',#631,#1085,#1121,.T.);
#1121 = SURFACE_CURVE('',#1122,(#1127,#1140),.PCURVE_S1.);
#1122 = ELLIPSE('',#1123,28.284271247462,20.);
#1123 = AXIS2_PLACEMENT_3D('',#1124,#1125,#1126);
#1124 = CARTESIAN_POINT('',(0.,0.,0.));
#1125 = DIRECTION('',(0.,0.707106781187,-0.707106781187));
#1126 = DIRECTION('',(0.,0.707106781187,0.707106781187));
#1127 = PCURVE('',#366,#1128);
#1128 = DEFINITIONAL_REPRESENTATION('',(#1129),#1139);
#1129 = B_SPLINE_CURVE_WITH_KNOTS('',8,(#1130,#1131,#1132,#1133,#1134,
    #1135,#1136,#1137,#1138),.UNSPECIFIED.,.F.,.F.,(9,9),(4.712388965385
    ,6.28318530718),.PIECEWISE_BEZIER_KNOTS.);
#1130 = CARTESIAN_POINT('',(3.14159266859,30.9999997));
#1131 = CARTESIAN_POINT('',(2.945243125865,34.926990554487));
#1132 = CARTESIAN_POINT('',(2.74889358314,38.85398235458));
#1133 = CARTESIAN_POINT('',(2.552544040407,42.550265069644));
#1134 = CARTESIAN_POINT('',(2.356194497686,45.78517491321));
#1135 = CARTESIAN_POINT('',(2.159844954961,48.356360876118));
#1136 = CARTESIAN_POINT('',(1.963495412243,50.118784463448));
#1137 = CARTESIAN_POINT('',(1.767145869519,51.));
#1138 = CARTESIAN_POINT('',(1.570796326795,51.));
#1139 = ( GEOMETRIC_REPRESENTATION_CONTEXT(2) 
PARAMETRIC_REPRESENTATION_CONTEXT() REPRESENTATION_CONTEXT('2D SPACE',''
  ) );
#1140 = PCURVE('',#504,#1141);
#1141 = DEFINITIONAL_REPRESENTATION('',(#1142),#1152);
#1142 = B_SPLINE_CURVE_WITH_KNOTS('',8,(#1143,#1144,#1145,#1146,#1147,
    #1148,#1149,#1150,#1151),.UNSPECIFIED.,.F.,.F.,(9,9),(4.712388965385
    ,6.28318530718),.PIECEWISE_BEZIER_KNOTS.);
#1143 = CARTESIAN_POINT('',(4.712388965385,30.9999997));
#1144 = CARTESIAN_POINT('',(4.908738508109,34.926990554487));
#1145 = CARTESIAN_POINT('',(5.105088050829,38.85398235458));
#1146 = CARTESIAN_POINT('',(5.30143759356,42.550265069644));
#1147 = CARTESIAN_POINT('',(5.497787136257,45.78517491321));
#1148 = CARTESIAN_POINT('',(5.694136679016,48.356360876118));
#1149 = CARTESIAN_POINT('',(5.890486221729,50.118784463448));
#1150 = CARTESIAN_POINT('',(6.086835764455,51.));
#1151 = CARTESIAN_POINT('',(6.28318530718,51.));
#1152 = ( GEOMETRIC_REPRESENTATION_CONTEXT(2) 
PARAMETRIC_REPRESENTATION_CONTEXT() REPRESENTATION_CONTEXT('2D SPACE',''
  ) );
#1153 = ORIENTED_EDGE('',*,*,#630,.T.);
#1154 = ORIENTED_EDGE('',*,*,#571,.T.);
#1155 = ORIENTED_EDGE('',*,*,#902,.T.);
#1156 = ORIENTED_EDGE('',*,*,#843,.T.);
#1157 = ORIENTED_EDGE('',*,*,#1158,.F.);
#1158 = EDGE_CURVE('',#1026,#806,#1159,.T.);
#1159 = SURFACE_CURVE('',#1160,(#1165,#1178),.PCURVE_S1.);
#1160 = ELLIPSE('',#1161,28.284271247462,20.);
#1161 = AXIS2_PLACEMENT_3D('',#1162,#1163,#1164);
#1162 = CARTESIAN_POINT('',(0.,0.,0.));
#1163 = DIRECTION('',(0.707106781187,0.,-0.707106781187));
#1164 = DIRECTION('',(0.707106781187,0.,0.707106781187));
#1165 = PCURVE('',#366,#1166);
#1166 = DEFINITIONAL_REPRESENTATION('',(#1167),#1177);
#1167 = B_SPLINE_CURVE_WITH_KNOTS('',8,(#1168,#1169,#1170,#1171,#1172,
    #1173,#1174,#1175,#1176),.UNSPECIFIED.,.F.,.F.,(9,9),(0.,
    1.570796341795),.PIECEWISE_BEZIER_KNOTS.);
#1168 = CARTESIAN_POINT('',(6.28318530718,51.));
#1169 = CARTESIAN_POINT('',(6.086835764455,51.));
#1170 = CARTESIAN_POINT('',(5.890486221731,50.118784463368));
#1171 = CARTESIAN_POINT('',(5.69413667901,48.356360876525));
#1172 = CARTESIAN_POINT('',(5.49778713628,45.78517491286));
#1173 = CARTESIAN_POINT('',(5.30143759356,42.550265070022));
#1174 = CARTESIAN_POINT('',(5.105088050833,38.853982354529));
#1175 = CARTESIAN_POINT('',(4.908738508109,34.926990554487));
#1176 = CARTESIAN_POINT('',(4.712388965385,30.9999997));
#1177 = ( GEOMETRIC_REPRESENTATION_CONTEXT(2) 
PARAMETRIC_REPRESENTATION_CONTEXT() REPRESENTATION_CONTEXT('2D SPACE',''
  ) );
#1178 = PCURVE('',#790,#1179);
#1179 = DEFINITIONAL_REPRESENTATION('',(#1180),#1190);
#1180 = B_SPLINE_CURVE_WITH_KNOTS('',8,(#1181,#1182,#1183,#1184,#1185,
    #1186,#1187,#1188,#1189),.UNSPECIFIED.,.F.,.F.,(9,9),(0.,
    1.570796341795),.PIECEWISE_BEZIER_KNOTS.);
#1181 = CARTESIAN_POINT('',(0.,51.));
#1182 = CARTESIAN_POINT('',(0.196349542724,51.));
#1183 = CARTESIAN_POINT('',(0.392699085448,50.118784463368));
#1184 = CARTESIAN_POINT('',(0.589048628176,48.356360876525));
#1185 = CARTESIAN_POINT('',(0.785398170894,45.78517491286));
#1186 = CARTESIAN_POINT('',(0.981747713623,42.550265070022));
#1187 = CARTESIAN_POINT('',(1.178097256345,38.853982354529));
#1188 = CARTESIAN_POINT('',(1.374446799071,34.926990554487));
#1189 = CARTESIAN_POINT('',(1.570796341795,30.9999997));
#1190 = ( GEOMETRIC_REPRESENTATION_CONTEXT(2) 
PARAMETRIC_REPRESENTATION_CONTEXT() REPRESENTATION_CONTEXT('2D SPACE',''
  ) );
#1191 = ORIENTED_EDGE('',*,*,#1025,.T.);
#1192 = ADVANCED_FACE('',(#1193),#446,.F.);
#1193 = FACE_BOUND('',#1194,.F.);
#1194 = EDGE_LOOP('',(#1195,#1233,#1254,#1255,#1256,#1290,#1291,#1292,
    #1328));
#1195 = ORIENTED_EDGE('',*,*,#1196,.F.);
#1196 = EDGE_CURVE('',#1197,#1199,#1201,.T.);
#1197 = VERTEX_POINT('',#1198);
#1198 = CARTESIAN_POINT('',(20.,-4.898587196589E-15,-20.));
#1199 = VERTEX_POINT('',#1200);
#1200 = CARTESIAN_POINT('',(14.142135623731,14.142135623731,
    -14.14213562373));
#1201 = SURFACE_CURVE('',#1202,(#1207,#1220),.PCURVE_S1.);
#1202 = ELLIPSE('',#1203,28.284271247462,20.);
#1203 = AXIS2_PLACEMENT_3D('',#1204,#1205,#1206);
#1204 = CARTESIAN_POINT('',(0.,0.,0.));
#1205 = DIRECTION('',(0.707106781187,0.,0.707106781187));
#1206 = DIRECTION('',(0.707106781187,0.,-0.707106781187));
#1207 = PCURVE('',#446,#1208);
#1208 = DEFINITIONAL_REPRESENTATION('',(#1209),#1219);
#1209 = B_SPLINE_CURVE_WITH_KNOTS('',8,(#1210,#1211,#1212,#1213,#1214,
    #1215,#1216,#1217,#1218),.UNSPECIFIED.,.F.,.F.,(9,9),(0.,
    1.570796341795),.PIECEWISE_BEZIER_KNOTS.);
#1210 = CARTESIAN_POINT('',(0.,11.));
#1211 = CARTESIAN_POINT('',(0.196349542724,11.));
#1212 = CARTESIAN_POINT('',(0.392699085448,11.881215536525));
#1213 = CARTESIAN_POINT('',(0.589048628175,13.643639123788));
#1214 = CARTESIAN_POINT('',(0.785398170893,16.214825086528));
#1215 = CARTESIAN_POINT('',(0.981747713622,19.449734930306));
#1216 = CARTESIAN_POINT('',(1.178097256346,23.146017645384));
#1217 = CARTESIAN_POINT('',(1.374446799071,27.073009445513));
#1218 = CARTESIAN_POINT('',(1.570796341795,31.0000003));
#1219 = ( GEOMETRIC_REPRESENTATION_CONTEXT(2) 
PARAMETRIC_REPRESENTATION_CONTEXT() REPRESENTATION_CONTEXT('2D SPACE',''
  ) );
#1220 = PCURVE('',#790,#1221);
#1221 = DEFINITIONAL_REPRESENTATION('',(#1222),#1232);
#1222 = B_SPLINE_CURVE_WITH_KNOTS('',8,(#1223,#1224,#1225,#1226,#1227,
    #1228,#1229,#1230,#1231),.UNSPECIFIED.,.F.,.F.,(9,9),(0.,
    1.570796341795),.PIECEWISE_BEZIER_KNOTS.);
#1223 = CARTESIAN_POINT('',(3.14159265359,51.));
#1224 = CARTESIAN_POINT('',(3.337942196314,51.));
#1225 = CARTESIAN_POINT('',(3.534291739043,50.118784463375));
#1226 = CARTESIAN_POINT('',(3.730641281745,48.356360876496));
#1227 = CARTESIAN_POINT('',(3.926990824504,45.785174912889));
#1228 = CARTESIAN_POINT('',(4.12334036719,42.550265069993));
#1229 = CARTESIAN_POINT('',(4.31968990994,38.853982354536));
#1230 = CARTESIAN_POINT('',(4.51603945266,34.926990554487));
#1231 = CARTESIAN_POINT('',(4.712388995385,30.9999997));
#1232 = ( GEOMETRIC_REPRESENTATION_CONTEXT(2) 
PARAMETRIC_REPRESENTATION_CONTEXT() REPRESENTATION_CONTEXT('2D SPACE',''
  ) );
#1233 = ORIENTED_EDGE('',*,*,#1234,.F.);
#1234 = EDGE_CURVE('',#430,#1197,#1235,.T.);
#1235 = SEAM_CURVE('',#1236,(#1240,#1247),.PCURVE_S1.);
#1236 = LINE('',#1237,#1238);
#1237 = CARTESIAN_POINT('',(20.,-4.898587196589E-15,-31.));
#1238 = VECTOR('',#1239,1.);
#1239 = DIRECTION('',(0.,0.,1.));
#1240 = PCURVE('',#446,#1241);
#1241 = DEFINITIONAL_REPRESENTATION('',(#1242),#1246);
#1242 = LINE('',#1243,#1244);
#1243 = CARTESIAN_POINT('',(6.28318530718,-0.));
#1244 = VECTOR('',#1245,1.);
#1245 = DIRECTION('',(0.,1.));
#1246 = ( GEOMETRIC_REPRESENTATION_CONTEXT(2) 
PARAMETRIC_REPRESENTATION_CONTEXT() REPRESENTATION_CONTEXT('2D SPACE',''
  ) );
#1247 = PCURVE('',#446,#1248);
#1248 = DEFINITIONAL_REPRESENTATION('',(#1249),#1253);
#1249 = LINE('',#1250,#1251);
#1250 = CARTESIAN_POINT('',(0.,-0.));
#1251 = VECTOR('',#1252,1.);
#1252 = DIRECTION('',(0.,1.));
#1253 = ( GEOMETRIC_REPRESENTATION_CONTEXT(2) 
PARAMETRIC_REPRESENTATION_CONTEXT() REPRESENTATION_CONTEXT('2D SPACE',''
  ) );
#1254 = ORIENTED_EDGE('',*,*,#429,.T.);
#1255 = ORIENTED_EDGE('',*,*,#1234,.T.);
#1256 = ORIENTED_EDGE('',*,*,#1257,.F.);
#1257 = EDGE_CURVE('',#938,#1197,#1258,.T.);
#1258 = SURFACE_CURVE('',#1259,(#1264,#1277),.PCURVE_S1.);
#1259 = ELLIPSE('',#1260,28.284271247462,20.);
#1260 = AXIS2_PLACEMENT_3D('',#1261,#1262,#1263);
#1261 = CARTESIAN_POINT('',(0.,0.,0.));
#1262 = DIRECTION('',(0.707106781187,0.,0.707106781187));
#1263 = DIRECTION('',(0.707106781187,0.,-0.707106781187));
#1264 = PCURVE('',#446,#1265);
#1265 = DEFINITIONAL_REPRESENTATION('',(#1266),#1276);
#1266 = B_SPLINE_CURVE_WITH_KNOTS('',8,(#1267,#1268,#1269,#1270,#1271,
    #1272,#1273,#1274,#1275),.UNSPECIFIED.,.F.,.F.,(9,9),(4.712388965385
    ,6.28318530718),.PIECEWISE_BEZIER_KNOTS.);
#1267 = CARTESIAN_POINT('',(4.712388965385,31.0000003));
#1268 = CARTESIAN_POINT('',(4.908738508109,27.073009445513));
#1269 = CARTESIAN_POINT('',(5.105088050833,23.146017645415));
#1270 = CARTESIAN_POINT('',(5.301437593575,19.44973493016));
#1271 = CARTESIAN_POINT('',(5.497787136257,16.214825086689));
#1272 = CARTESIAN_POINT('',(5.694136679009,13.643639123664));
#1273 = CARTESIAN_POINT('',(5.89048622173,11.881215536561));
#1274 = CARTESIAN_POINT('',(6.086835764455,11.));
#1275 = CARTESIAN_POINT('',(6.28318530718,11.));
#1276 = ( GEOMETRIC_REPRESENTATION_CONTEXT(2) 
PARAMETRIC_REPRESENTATION_CONTEXT() REPRESENTATION_CONTEXT('2D SPACE',''
  ) );
#1277 = PCURVE('',#790,#1278);
#1278 = DEFINITIONAL_REPRESENTATION('',(#1279),#1289);
#1279 = B_SPLINE_CURVE_WITH_KNOTS('',8,(#1280,#1281,#1282,#1283,#1284,
    #1285,#1286,#1287,#1288),.UNSPECIFIED.,.F.,.F.,(9,9),(4.712388965385
    ,6.28318530718),.PIECEWISE_BEZIER_KNOTS.);
#1280 = CARTESIAN_POINT('',(1.570796311795,30.9999997));
#1281 = CARTESIAN_POINT('',(1.767145854519,34.926990554487));
#1282 = CARTESIAN_POINT('',(1.963495397243,38.853982354594));
#1283 = CARTESIAN_POINT('',(2.159844939968,42.550265069585));
#1284 = CARTESIAN_POINT('',(2.356194482689,45.785174913442));
#1285 = CARTESIAN_POINT('',(2.552544025417,48.356360876001));
#1286 = CARTESIAN_POINT('',(2.748893568141,50.118784463491));
#1287 = CARTESIAN_POINT('',(2.945243110865,51.));
#1288 = CARTESIAN_POINT('',(3.14159265359,51.));
#1289 = ( GEOMETRIC_REPRESENTATION_CONTEXT(2) 
PARAMETRIC_REPRESENTATION_CONTEXT() REPRESENTATION_CONTEXT('2D SPACE',''
  ) );
#1290 = ORIENTED_EDGE('',*,*,#937,.T.);
#1291 = ORIENTED_EDGE('',*,*,#716,.T.);
#1292 = ORIENTED_EDGE('',*,*,#1293,.F.);
#1293 = EDGE_CURVE('',#1294,#667,#1296,.T.);
#1294 = VERTEX_POINT('',#1295);
#1295 = CARTESIAN_POINT('',(2.449293598295E-15,20.,-20.));
#1296 = SURFACE_CURVE('',#1297,(#1302,#1315),.PCURVE_S1.);
#1297 = ELLIPSE('',#1298,28.284271247462,20.);
#1298 = AXIS2_PLACEMENT_3D('',#1299,#1300,#1301);
#1299 = CARTESIAN_POINT('',(0.,0.,0.));
#1300 = DIRECTION('',(0.,0.707106781187,0.707106781187));
#1301 = DIRECTION('',(0.,0.707106781187,-0.707106781187));
#1302 = PCURVE('',#446,#1303);
#1303 = DEFINITIONAL_REPRESENTATION('',(#1304),#1314);
#1304 = B_SPLINE_CURVE_WITH_KNOTS('',8,(#1305,#1306,#1307,#1308,#1309,
    #1310,#1311,#1312,#1313),.UNSPECIFIED.,.F.,.F.,(9,9),(0.,
    1.570796341795),.PIECEWISE_BEZIER_KNOTS.);
#1305 = CARTESIAN_POINT('',(1.570796326795,11.));
#1306 = CARTESIAN_POINT('',(1.767145869519,11.));
#1307 = CARTESIAN_POINT('',(1.963495412243,11.881215536525));
#1308 = CARTESIAN_POINT('',(2.159844954961,13.643639123788));
#1309 = CARTESIAN_POINT('',(2.356194497686,16.214825086528));
#1310 = CARTESIAN_POINT('',(2.552544040413,19.449734930306));
#1311 = CARTESIAN_POINT('',(2.748893583139,23.146017645384));
#1312 = CARTESIAN_POINT('',(2.945243125865,27.073009445513));
#1313 = CARTESIAN_POINT('',(3.14159266859,31.0000003));
#1314 = ( GEOMETRIC_REPRESENTATION_CONTEXT(2) 
PARAMETRIC_REPRESENTATION_CONTEXT() REPRESENTATION_CONTEXT('2D SPACE',''
  ) );
#1315 = PCURVE('',#504,#1316);
#1316 = DEFINITIONAL_REPRESENTATION('',(#1317),#1327);
#1317 = B_SPLINE_CURVE_WITH_KNOTS('',8,(#1318,#1319,#1320,#1321,#1322,
    #1323,#1324,#1325,#1326),.UNSPECIFIED.,.F.,.F.,(9,9),(0.,
    1.570796341795),.PIECEWISE_BEZIER_KNOTS.);
#1318 = CARTESIAN_POINT('',(3.14159265359,51.));
#1319 = CARTESIAN_POINT('',(3.337942196314,51.));
#1320 = CARTESIAN_POINT('',(3.534291739043,50.118784463375));
#1321 = CARTESIAN_POINT('',(3.730641281745,48.356360876496));
#1322 = CARTESIAN_POINT('',(3.926990824504,45.785174912889));
#1323 = CARTESIAN_POINT('',(4.12334036719,42.550265069993));
#1324 = CARTESIAN_POINT('',(4.31968990994,38.853982354536));
#1325 = CARTESIAN_POINT('',(4.51603945266,34.926990554487));
#1326 = CARTESIAN_POINT('',(4.712388995385,30.9999997));
#1327 = ( GEOMETRIC_REPRESENTATION_CONTEXT(2) 
PARAMETRIC_REPRESENTATION_CONTEXT() REPRESENTATION_CONTEXT('2D SPACE',''
  ) );
#1328 = ORIENTED_EDGE('',*,*,#1329,.F.);
#1329 = EDGE_CURVE('',#1199,#1294,#1330,.T.);
#1330 = SURFACE_CURVE('',#1331,(#1336,#1349),.PCURVE_S1.);
#1331 = ELLIPSE('',#1332,28.284271247462,20.);
#1332 = AXIS2_PLACEMENT_3D('',#1333,#1334,#1335);
#1333 = CARTESIAN_POINT('',(0.,0.,0.));
#1334 = DIRECTION('',(0.,0.707106781187,0.707106781187));
#1335 = DIRECTION('',(0.,0.707106781187,-0.707106781187));
#1336 = PCURVE('',#446,#1337);
#1337 = DEFINITIONAL_REPRESENTATION('',(#1338),#1348);
#1338 = B_SPLINE_CURVE_WITH_KNOTS('',8,(#1339,#1340,#1341,#1342,#1343,
    #1344,#1345,#1346,#1347),.UNSPECIFIED.,.F.,.F.,(9,9),(4.712388965385
    ,6.28318530718),.PIECEWISE_BEZIER_KNOTS.);
#1339 = CARTESIAN_POINT('',(-1.499999946475E-08,31.0000003));
#1340 = CARTESIAN_POINT('',(0.196349527724,27.073009445513));
#1341 = CARTESIAN_POINT('',(0.392699070449,23.146017645415));
#1342 = CARTESIAN_POINT('',(0.58904861317,19.44973493016));
#1343 = CARTESIAN_POINT('',(0.785398155897,16.214825086689));
#1344 = CARTESIAN_POINT('',(0.98174769862,13.643639123664));
#1345 = CARTESIAN_POINT('',(1.178097241346,11.881215536561));
#1346 = CARTESIAN_POINT('',(1.374446784071,11.));
#1347 = CARTESIAN_POINT('',(1.570796326795,11.));
#1348 = ( GEOMETRIC_REPRESENTATION_CONTEXT(2) 
PARAMETRIC_REPRESENTATION_CONTEXT() REPRESENTATION_CONTEXT('2D SPACE',''
  ) );
#1349 = PCURVE('',#504,#1350);
#1350 = DEFINITIONAL_REPRESENTATION('',(#1351),#1361);
#1351 = B_SPLINE_CURVE_WITH_KNOTS('',8,(#1352,#1353,#1354,#1355,#1356,
    #1357,#1358,#1359,#1360),.UNSPECIFIED.,.F.,.F.,(9,9),(4.712388965385
    ,6.28318530718),.PIECEWISE_BEZIER_KNOTS.);
#1352 = CARTESIAN_POINT('',(1.570796311795,30.9999997));
#1353 = CARTESIAN_POINT('',(1.767145854519,34.926990554487));
#1354 = CARTESIAN_POINT('',(1.963495397243,38.853982354594));
#1355 = CARTESIAN_POINT('',(2.159844939968,42.550265069585));
#1356 = CARTESIAN_POINT('',(2.356194482689,45.785174913442));
#1357 = CARTESIAN_POINT('',(2.552544025417,48.356360876001));
#1358 = CARTESIAN_POINT('',(2.748893568141,50.118784463491));
#1359 = CARTESIAN_POINT('',(2.945243110865,51.));
#1360 = CARTESIAN_POINT('',(3.14159265359,51.));
#1361 = ( GEOMETRIC_REPRESENTATION_CONTEXT(2) 
PARAMETRIC_REPRESENTATION_CONTEXT() REPRESENTATION_CONTEXT('2D SPACE',''
  ) );
#1362 = ADVANCED_FACE('',(#1363),#504,.F.);
#1363 = FACE_BOUND('',#1364,.F.);
#1364 = EDGE_LOOP('',(#1365,#1386,#1387,#1388,#1389,#1425,#1459,#1460,
    #1461,#1462));
#1365 = ORIENTED_EDGE('',*,*,#1366,.T.);
#1366 = EDGE_CURVE('',#1085,#488,#1367,.T.);
#1367 = SEAM_CURVE('',#1368,(#1372,#1379),.PCURVE_S1.);
#1368 = LINE('',#1369,#1370);
#1369 = CARTESIAN_POINT('',(-4.898587196589E-15,-31.,20.));
#1370 = VECTOR('',#1371,1.);
#1371 = DIRECTION('',(0.,1.,0.));
#1372 = PCURVE('',#504,#1373);
#1373 = DEFINITIONAL_REPRESENTATION('',(#1374),#1378);
#1374 = LINE('',#1375,#1376);
#1375 = CARTESIAN_POINT('',(6.28318530718,-0.));
#1376 = VECTOR('',#1377,1.);
#1377 = DIRECTION('',(0.,1.));
#1378 = ( GEOMETRIC_REPRESENTATION_CONTEXT(2) 
PARAMETRIC_REPRESENTATION_CONTEXT() REPRESENTATION_CONTEXT('2D SPACE',''
  ) );
#1379 = PCURVE('',#504,#1380);
#1380 = DEFINITIONAL_REPRESENTATION('',(#1381),#1385);
#1381 = LINE('',#1382,#1383);
#1382 = CARTESIAN_POINT('',(0.,-0.));
#1383 = VECTOR('',#1384,1.);
#1384 = DIRECTION('',(0.,1.));
#1385 = ( GEOMETRIC_REPRESENTATION_CONTEXT(2) 
PARAMETRIC_REPRESENTATION_CONTEXT() REPRESENTATION_CONTEXT('2D SPACE',''
  ) );
#1386 = ORIENTED_EDGE('',*,*,#487,.F.);
#1387 = ORIENTED_EDGE('',*,*,#1366,.F.);
#1388 = ORIENTED_EDGE('',*,*,#1084,.T.);
#1389 = ORIENTED_EDGE('',*,*,#1390,.F.);
#1390 = EDGE_CURVE('',#1391,#1049,#1393,.T.);
#1391 = VERTEX_POINT('',#1392);
#1392 = CARTESIAN_POINT('',(20.,20.,-2.449293598295E-15));
#1393 = SURFACE_CURVE('',#1394,(#1399,#1412),.PCURVE_S1.);
#1394 = ELLIPSE('',#1395,28.284271247462,20.);
#1395 = AXIS2_PLACEMENT_3D('',#1396,#1397,#1398);
#1396 = CARTESIAN_POINT('',(0.,0.,0.));
#1397 = DIRECTION('',(0.707106781187,-0.707106781187,0.));
#1398 = DIRECTION('',(0.707106781187,0.707106781187,0.));
#1399 = PCURVE('',#504,#1400);
#1400 = DEFINITIONAL_REPRESENTATION('',(#1401),#1411);
#1401 = B_SPLINE_CURVE_WITH_KNOTS('',8,(#1402,#1403,#1404,#1405,#1406,
    #1407,#1408,#1409,#1410),.UNSPECIFIED.,.F.,.F.,(9,9),(0.,
    1.570796326795),.PIECEWISE_BEZIER_KNOTS.);
#1402 = CARTESIAN_POINT('',(1.570796326795,51.));
#1403 = CARTESIAN_POINT('',(1.374446785946,51.));
#1404 = CARTESIAN_POINT('',(1.178097245096,50.118784480233));
#1405 = CARTESIAN_POINT('',(0.981747704243,48.356360926788));
#1406 = CARTESIAN_POINT('',(0.785398163399,45.785175011551));
#1407 = CARTESIAN_POINT('',(0.589048622545,42.550265224243));
#1408 = CARTESIAN_POINT('',(0.392699081699,38.853982566354));
#1409 = CARTESIAN_POINT('',(0.196349540849,34.926990816987));
#1410 = CARTESIAN_POINT('',(6.123233995737E-17,31.));
#1411 = ( GEOMETRIC_REPRESENTATION_CONTEXT(2) 
PARAMETRIC_REPRESENTATION_CONTEXT() REPRESENTATION_CONTEXT('2D SPACE',''
  ) );
#1412 = PCURVE('',#790,#1413);
#1413 = DEFINITIONAL_REPRESENTATION('',(#1414),#1424);
#1414 = B_SPLINE_CURVE_WITH_KNOTS('',8,(#1415,#1416,#1417,#1418,#1419,
    #1420,#1421,#1422,#1423),.UNSPECIFIED.,.F.,.F.,(9,9),(0.,
    1.570796326795),.PIECEWISE_BEZIER_KNOTS.);
#1415 = CARTESIAN_POINT('',(4.712388980385,51.));
#1416 = CARTESIAN_POINT('',(4.908738521234,51.));
#1417 = CARTESIAN_POINT('',(5.105088062084,50.118784480233));
#1418 = CARTESIAN_POINT('',(5.301437602933,48.356360926788));
#1419 = CARTESIAN_POINT('',(5.497787143783,45.785175011551));
#1420 = CARTESIAN_POINT('',(5.69413668463,42.550265224243));
#1421 = CARTESIAN_POINT('',(5.890486225482,38.853982566354));
#1422 = CARTESIAN_POINT('',(6.08683576633,34.926990816987));
#1423 = CARTESIAN_POINT('',(6.28318530718,31.));
#1424 = ( GEOMETRIC_REPRESENTATION_CONTEXT(2) 
PARAMETRIC_REPRESENTATION_CONTEXT() REPRESENTATION_CONTEXT('2D SPACE',''
  ) );
#1425 = ORIENTED_EDGE('',*,*,#1426,.F.);
#1426 = EDGE_CURVE('',#1199,#1391,#1427,.T.);
#1427 = SURFACE_CURVE('',#1428,(#1433,#1446),.PCURVE_S1.);
#1428 = ELLIPSE('',#1429,28.284271247462,20.);
#1429 = AXIS2_PLACEMENT_3D('',#1430,#1431,#1432);
#1430 = CARTESIAN_POINT('',(0.,0.,0.));
#1431 = DIRECTION('',(0.707106781187,-0.707106781187,0.));
#1432 = DIRECTION('',(0.707106781187,0.707106781187,0.));
#1433 = PCURVE('',#504,#1434);
#1434 = DEFINITIONAL_REPRESENTATION('',(#1435),#1445);
#1435 = B_SPLINE_CURVE_WITH_KNOTS('',8,(#1436,#1437,#1438,#1439,#1440,
    #1441,#1442,#1443,#1444),.UNSPECIFIED.,.F.,.F.,(9,9),(4.712388980385
    ,6.28318530718),.PIECEWISE_BEZIER_KNOTS.);
#1436 = CARTESIAN_POINT('',(3.14159265359,31.));
#1437 = CARTESIAN_POINT('',(2.94524311274,34.926990816987));
#1438 = CARTESIAN_POINT('',(2.748893571892,38.853982566383));
#1439 = CARTESIAN_POINT('',(2.55254403103,42.550265224068));
#1440 = CARTESIAN_POINT('',(2.356194490201,45.78517501161));
#1441 = CARTESIAN_POINT('',(2.159844949335,48.356360926642));
#1442 = CARTESIAN_POINT('',(1.963495408495,50.118784480292));
#1443 = CARTESIAN_POINT('',(1.767145867644,51.));
#1444 = CARTESIAN_POINT('',(1.570796326795,51.));
#1445 = ( GEOMETRIC_REPRESENTATION_CONTEXT(2) 
PARAMETRIC_REPRESENTATION_CONTEXT() REPRESENTATION_CONTEXT('2D SPACE',''
  ) );
#1446 = PCURVE('',#790,#1447);
#1447 = DEFINITIONAL_REPRESENTATION('',(#1448),#1458);
#1448 = B_SPLINE_CURVE_WITH_KNOTS('',8,(#1449,#1450,#1451,#1452,#1453,
    #1454,#1455,#1456,#1457),.UNSPECIFIED.,.F.,.F.,(9,9),(4.712388980385
    ,6.28318530718),.PIECEWISE_BEZIER_KNOTS.);
#1449 = CARTESIAN_POINT('',(3.14159265359,31.));
#1450 = CARTESIAN_POINT('',(3.337942194439,34.926990816987));
#1451 = CARTESIAN_POINT('',(3.534291735285,38.853982566383));
#1452 = CARTESIAN_POINT('',(3.730641276146,42.550265224068));
#1453 = CARTESIAN_POINT('',(3.926990816959,45.78517501161));
#1454 = CARTESIAN_POINT('',(4.12334035785,48.356360926642));
#1455 = CARTESIAN_POINT('',(4.319689898683,50.118784480292));
#1456 = CARTESIAN_POINT('',(4.516039439535,51.));
#1457 = CARTESIAN_POINT('',(4.712388980385,51.));
#1458 = ( GEOMETRIC_REPRESENTATION_CONTEXT(2) 
PARAMETRIC_REPRESENTATION_CONTEXT() REPRESENTATION_CONTEXT('2D SPACE',''
  ) );
#1459 = ORIENTED_EDGE('',*,*,#1329,.T.);
#1460 = ORIENTED_EDGE('',*,*,#1293,.T.);
#1461 = ORIENTED_EDGE('',*,*,#666,.T.);
#1462 = ORIENTED_EDGE('',*,*,#1120,.T.);
#1463 = ADVANCED_FACE('',(#1464),#790,.F.);
#1464 = FACE_BOUND('',#1465,.F.);
#1465 = EDGE_LOOP('',(#1466,#1467,#1488,#1489,#1490,#1491,#1492,#1493,
    #1494,#1495,#1496));
#1466 = ORIENTED_EDGE('',*,*,#1048,.T.);
#1467 = ORIENTED_EDGE('',*,*,#1468,.T.);
#1468 = EDGE_CURVE('',#1026,#774,#1469,.T.);
#1469 = SEAM_CURVE('',#1470,(#1474,#1481),.PCURVE_S1.);
#1470 = LINE('',#1471,#1472);
#1471 = CARTESIAN_POINT('',(-31.,4.898587196589E-15,20.));
#1472 = VECTOR('',#1473,1.);
#1473 = DIRECTION('',(1.,0.,0.));
#1474 = PCURVE('',#790,#1475);
#1475 = DEFINITIONAL_REPRESENTATION('',(#1476),#1480);
#1476 = LINE('',#1477,#1478);
#1477 = CARTESIAN_POINT('',(0.,-0.));
#1478 = VECTOR('',#1479,1.);
#1479 = DIRECTION('',(0.,1.));
#1480 = ( GEOMETRIC_REPRESENTATION_CONTEXT(2) 
PARAMETRIC_REPRESENTATION_CONTEXT() REPRESENTATION_CONTEXT('2D SPACE',''
  ) );
#1481 = PCURVE('',#790,#1482);
#1482 = DEFINITIONAL_REPRESENTATION('',(#1483),#1487);
#1483 = LINE('',#1484,#1485);
#1484 = CARTESIAN_POINT('',(6.28318530718,-0.));
#1485 = VECTOR('',#1486,1.);
#1486 = DIRECTION('',(0.,1.));
#1487 = ( GEOMETRIC_REPRESENTATION_CONTEXT(2) 
PARAMETRIC_REPRESENTATION_CONTEXT() REPRESENTATION_CONTEXT('2D SPACE',''
  ) );
#1488 = ORIENTED_EDGE('',*,*,#773,.F.);
#1489 = ORIENTED_EDGE('',*,*,#1468,.F.);
#1490 = ORIENTED_EDGE('',*,*,#1158,.T.);
#1491 = ORIENTED_EDGE('',*,*,#805,.T.);
#1492 = ORIENTED_EDGE('',*,*,#987,.T.);
#1493 = ORIENTED_EDGE('',*,*,#1257,.T.);
#1494 = ORIENTED_EDGE('',*,*,#1196,.T.);
#1495 = ORIENTED_EDGE('',*,*,#1426,.T.);
#1496 = ORIENTED_EDGE('',*,*,#1390,.T.);
#1497 = ( GEOMETRIC_REPRESENTATION_CONTEXT(3) 
GLOBAL_UNCERTAINTY_ASSIGNED_CONTEXT((#1501)) 
GLOBAL_UNIT_ASSIGNED_CONTEXT((#1498,#1499,#1500)) REPRESENTATION_CONTEXT
('Context #1','3D Context with UNIT and UNCERTAINTY') );
#1498 = ( LENGTH_UNIT() NAMED_UNIT(*) SI_UNIT(.MILLI.,.METRE.) );
#1499 = ( NAMED_UNIT(*) PLANE_ANGLE_UNIT() SI_UNIT($,.RADIAN.) );
#1500 = ( NAMED_UNIT(*) SI_UNIT($,.STERADIAN.) SOLID_ANGLE_UNIT() );
#1501 = UNCERTAINTY_MEASURE_WITH_UNIT(LENGTH_MEASURE(1.E-07),#1498,
  'distance_accuracy_value','confusion accuracy');
#1502 = CONTEXT_DEPENDENT_SHAPE_REPRESENTATION(#1503,#1505);
#1503 = ( REPRESENTATION_RELATIONSHIP('','',#36,#10) 
REPRESENTATION_RELATIONSHIP_WITH_TRANSFORMATION(#1504) 
SHAPE_REPRESENTATION_RELATIONSHIP() );
#1504 = ITEM_DEFINED_TRANSFORMATION('','',#11,#15);
#1505 = PRODUCT_DEFINITION_SHAPE('Placement','Placement of an item',
  #1506);
#1506 = NEXT_ASSEMBLY_USAGE_OCCURRENCE('5','','',#5,#31,$);
#1507 = PRODUCT_RELATED_PRODUCT_CATEGORY('part',$,(#33));
#1508 = SHAPE_DEFINITION_REPRESENTATION(#1509,#1515);
#1509 = PRODUCT_DEFINITION_SHAPE('','',#1510);
#1510 = PRODUCT_DEFINITION('design','',#1511,#1514);
#1511 = PRODUCT_DEFINITION_FORMATION('','',#1512);
#1512 = PRODUCT('Open CASCADE STEP translator 7.7 35.2',
  'Open CASCADE STEP translator 7.7 35.2','',(#1513));
#1513 = PRODUCT_CONTEXT('',#2,'mechanical');
#1514 = PRODUCT_DEFINITION_CONTEXT('part definition',#2,'design');
#1515 = ADVANCED_BREP_SHAPE_REPRESENTATION('',(#11,#1516),#1584);
#1516 = MANIFOLD_SOLID_BREP('',#1517);
#1517 = CLOSED_SHELL('',(#1518,#1580));
#1518 = ADVANCED_FACE('',(#1519),#1534,.T.);
#1519 = FACE_BOUND('',#1520,.T.);
#1520 = EDGE_LOOP('',(#1521,#1552,#1579));
#1521 = ORIENTED_EDGE('',*,*,#1522,.F.);
#1522 = EDGE_CURVE('',#1523,#1525,#1527,.T.);
#1523 = VERTEX_POINT('',#1524);
#1524 = CARTESIAN_POINT('',(15.,-3.673940397442E-15,0.));
#1525 = VERTEX_POINT('',#1526);
#1526 = CARTESIAN_POINT('',(9.184850993605E-16,-2.249639673993E-31,15.)
  );
#1527 = SEAM_CURVE('',#1528,(#1533,#1545),.PCURVE_S1.);
#1528 = CIRCLE('',#1529,15.);
#1529 = AXIS2_PLACEMENT_3D('',#1530,#1531,#1532);
#1530 = CARTESIAN_POINT('',(0.,0.,0.));
#1531 = DIRECTION('',(-2.449293598295E-16,-1.,0.));
#1532 = DIRECTION('',(1.,-2.449293598295E-16,0.));
#1533 = PCURVE('',#1534,#1539);
#1534 = SPHERICAL_SURFACE('',#1535,15.);
#1535 = AXIS2_PLACEMENT_3D('',#1536,#1537,#1538);
#1536 = CARTESIAN_POINT('',(0.,0.,0.));
#1537 = DIRECTION('',(0.,0.,1.));
#1538 = DIRECTION('',(1.,0.,-0.));
#1539 = DEFINITIONAL_REPRESENTATION('',(#1540),#1544);
#1540 = LINE('',#1541,#1542);
#1541 = CARTESIAN_POINT('',(6.28318530718,-6.28318530718));
#1542 = VECTOR('',#1543,1.);
#1543 = DIRECTION('',(0.,1.));
#1544 = ( GEOMETRIC_REPRESENTATION_CONTEXT(2) 
PARAMETRIC_REPRESENTATION_CONTEXT() REPRESENTATION_CONTEXT('2D SPACE',''
  ) );
#1545 = PCURVE('',#1534,#1546);
#1546 = DEFINITIONAL_REPRESENTATION('',(#1547),#1551);
#1547 = LINE('',#1548,#1549);
#1548 = CARTESIAN_POINT('',(0.,-6.28318530718));
#1549 = VECTOR('',#1550,1.);
#1550 = DIRECTION('',(0.,1.));
#1551 = ( GEOMETRIC_REPRESENTATION_CONTEXT(2) 
PARAMETRIC_REPRESENTATION_CONTEXT() REPRESENTATION_CONTEXT('2D SPACE',''
  ) );
#1552 = ORIENTED_EDGE('',*,*,#1553,.T.);
#1553 = EDGE_CURVE('',#1523,#1523,#1554,.T.);
#1554 = SURFACE_CURVE('',#1555,(#1560,#1567),.PCURVE_S1.);
#1555 = CIRCLE('',#1556,15.);
#1556 = AXIS2_PLACEMENT_3D('',#1557,#1558,#1559);
#1557 = CARTESIAN_POINT('',(0.,0.,0.));
#1558 = DIRECTION('',(0.,0.,1.));
#1559 = DIRECTION('',(1.,0.,-0.));
#1560 = PCURVE('',#1534,#1561);
#1561 = DEFINITIONAL_REPRESENTATION('',(#1562),#1566);
#1562 = LINE('',#1563,#1564);
#1563 = CARTESIAN_POINT('',(0.,0.));
#1564 = VECTOR('',#1565,1.);
#1565 = DIRECTION('',(1.,0.));
#1566 = ( GEOMETRIC_REPRESENTATION_CONTEXT(2) 
PARAMETRIC_REPRESENTATION_CONTEXT() REPRESENTATION_CONTEXT('2D SPACE',''
  ) );
#1567 = PCURVE('',#1568,#1573);
#1568 = PLANE('',#1569);
#1569 = AXIS2_PLACEMENT_3D('',#1570,#1571,#1572);
#1570 = CARTESIAN_POINT('',(0.,0.,0.));
#1571 = DIRECTION('',(0.,0.,1.));
#1572 = DIRECTION('',(1.,0.,-0.));
#1573 = DEFINITIONAL_REPRESENTATION('',(#1574),#1578);
#1574 = CIRCLE('',#1575,15.);
#1575 = AXIS2_PLACEMENT_2D('',#1576,#1577);
#1576 = CARTESIAN_POINT('',(0.,0.));
#1577 = DIRECTION('',(1.,0.));
#1578 = ( GEOMETRIC_REPRESENTATION_CONTEXT(2) 
PARAMETRIC_REPRESENTATION_CONTEXT() REPRESENTATION_CONTEXT('2D SPACE',''
  ) );
#1579 = ORIENTED_EDGE('',*,*,#1522,.T.);
#1580 = ADVANCED_FACE('',(#1581),#1568,.F.);
#1581 = FACE_BOUND('',#1582,.T.);
#1582 = EDGE_LOOP('',(#1583));
#1583 = ORIENTED_EDGE('',*,*,#1553,.F.);
#1584 = ( GEOMETRIC_REPRESENTATION_CONTEXT(3) 
GLOBAL_UNCERTAINTY_ASSIGNED_CONTEXT((#1588)) 
GLOBAL_UNIT_ASSIGNED_CONTEXT((#1585,#1586,#1587)) REPRESENTATION_CONTEXT
('Context #1','3D Context with UNIT and UNCERTAINTY') );
#1585 = ( LENGTH_UNIT() NAMED_UNIT(*) SI_UNIT(.MILLI.,.METRE.) );
#1586 = ( NAMED_UNIT(*) PLANE_ANGLE_UNIT() SI_UNIT($,.RADIAN.) );
#1587 = ( NAMED_UNIT(*) SI_UNIT($,.STERADIAN.) SOLID_ANGLE_UNIT() );
#1588 = UNCERTAINTY_MEASURE_WITH_UNIT(LENGTH_MEASURE(1.E-07),#1585,
  'distance_accuracy_value','confusion accuracy');
#1589 = CONTEXT_DEPENDENT_SHAPE_REPRESENTATION(#1590,#1592);
#1590 = ( REPRESENTATION_RELATIONSHIP('','',#1515,#10) 
REPRESENTATION_RELATIONSHIP_WITH_TRANSFORMATION(#1591) 
SHAPE_REPRESENTATION_RELATIONSHIP() );
#1591 = ITEM_DEFINED_TRANSFORMATION('','',#11,#19);
#1592 = PRODUCT_DEFINITION_SHAPE('Placement','Placement of an item',
  #1593);
#1593 = NEXT_ASSEMBLY_USAGE_OCCURRENCE('6','','',#5,#1510,$);
#1594 = PRODUCT_RELATED_PRODUCT_CATEGORY('part',$,(#1512));
ENDSEC;
END-ISO-10303-21;
