ISO-10303-21;
HEADER;
FILE_DESCRIPTION(('Open CASCADE Model'),'2;1');
FILE_NAME('Open CASCADE Shape Model','2026-08-07T02:34:17',('Author'),(
    'Open CASCADE'),'Open CASCADE STEP processor 7.7','Open CASCADE 7.7'
  ,'Unknown');
FILE_SCHEMA(('AUTOMOTIVE_DESIGN { 1 0 10303 214 1 1 1 1 }'));
ENDSEC;
DATA;
#1 = APPLICATION_PROTOCOL_DEFINITION('international standard',
  'automotive_design',2000,#2);
#2 = APPLICATION_CONTEXT(
  'core data for automotive mechanical design processes');
#3 = SHAPE_DEFINITION_REPRESENTATION(#4,#10);
#4 = PRODUCT_DEFINITION_SHAPE('','',#5);
#5 = PRODUCT_DEFINITION('design','',#6,#9);
#6 = PRODUCT_DEFINITION_FORMATION('','',#7);
#7 = PRODUCT('Open CASCADE STEP translator 7.7 44',
  'Open CASCADE STEP translator 7.7 44','',(#8));
#8 = PRODUCT_CONTEXT('',#2,'mechanical');
#9 = PRODUCT_DEFINITION_CONTEXT('part definition',#2,'design');
#10 = ADVANCED_BREP_SHAPE_REPRESENTATION('',(#11,#15),#1311);
#11 = AXIS2_PLACEMENT_3D('',#12,#13,#14);
#12 = CARTESIAN_POINT('',(0.,0.,0.));
#13 = DIRECTION('',(0.,0.,1.));
#14 = DIRECTION('',(1.,0.,-0.));
#15 = MANIFOLD_SOLID_BREP('',#16);
#16 = CLOSED_SHELL('',(#17,#149,#248,#348,#448,#525,#624,#680,#736,#803,
    #890,#957,#1044,#1116,#1165,#1198,#1231,#1264,#1271,#1304));
#17 = ADVANCED_FACE('',(#18),#31,.T.);
#18 = FACE_BOUND('',#19,.T.);
#19 = EDGE_LOOP('',(#20,#54,#89,#116));
#20 = ORIENTED_EDGE('',*,*,#21,.T.);
#21 = EDGE_CURVE('',#22,#24,#26,.T.);
#22 = VERTEX_POINT('',#23);
#23 = CARTESIAN_POINT('',(24.608069099165,42.62242595592,1.881268324007)
  );
#24 = VERTEX_POINT('',#25);
#25 = CARTESIAN_POINT('',(12.891930900835,22.329479327913,
    58.118731675993));
#26 = SURFACE_CURVE('',#27,(#30,#42),.PCURVE_S1.);
#27 = B_SPLINE_CURVE_WITH_KNOTS('',1,(#28,#29),.UNSPECIFIED.,.F.,.F.,(2,
    2),(0.,1.),.PIECEWISE_BEZIER_KNOTS.);
#28 = CARTESIAN_POINT('',(25.,43.301270189222,0.));
#29 = CARTESIAN_POINT('',(12.5,21.650635094611,60.));
#30 = PCURVE('',#31,#36);
#31 = B_SPLINE_SURFACE_WITH_KNOTS('',1,1,(
    (#32,#33)
    ,(#34,#35)),.UNSPECIFIED.,.F.,.F.,.F.,(2,2),(2,2),(0.,50.),(0.,1.),
  .PIECEWISE_BEZIER_KNOTS.);
#32 = CARTESIAN_POINT('',(50.,0.,0.));
#33 = CARTESIAN_POINT('',(25.,0.,60.));
#34 = CARTESIAN_POINT('',(25.,43.301270189222,0.));
#35 = CARTESIAN_POINT('',(12.5,21.650635094611,60.));
#36 = DEFINITIONAL_REPRESENTATION('',(#37),#41);
#37 = LINE('',#38,#39);
#38 = CARTESIAN_POINT('',(50.,0.));
#39 = VECTOR('',#40,1.);
#40 = DIRECTION('',(0.,1.));
#41 = ( GEOMETRIC_REPRESENTATION_CONTEXT(2) 
PARAMETRIC_REPRESENTATION_CONTEXT() REPRESENTATION_CONTEXT('2D SPACE',''
  ) );
#42 = PCURVE('',#43,#48);
#43 = B_SPLINE_SURFACE_WITH_KNOTS('',1,1,(
    (#44,#45)
    ,(#46,#47)),.UNSPECIFIED.,.F.,.F.,.F.,(2,2),(2,2),(0.,50.),(0.,1.),
  .PIECEWISE_BEZIER_KNOTS.);
#44 = CARTESIAN_POINT('',(25.,43.301270189222,0.));
#45 = CARTESIAN_POINT('',(12.5,21.650635094611,60.));
#46 = CARTESIAN_POINT('',(-25.,43.301270189222,0.));
#47 = CARTESIAN_POINT('',(-12.5,21.650635094611,60.));
#48 = DEFINITIONAL_REPRESENTATION('',(#49),#53);
#49 = LINE('',#50,#51);
#50 = CARTESIAN_POINT('',(0.,0.));
#51 = VECTOR('',#52,1.);
#52 = DIRECTION('',(0.,1.));
#53 = ( GEOMETRIC_REPRESENTATION_CONTEXT(2) 
PARAMETRIC_REPRESENTATION_CONTEXT() REPRESENTATION_CONTEXT('2D SPACE',''
  ) );
#54 = ORIENTED_EDGE('',*,*,#55,.F.);
#55 = EDGE_CURVE('',#56,#24,#58,.T.);
#56 = VERTEX_POINT('',#57);
#57 = CARTESIAN_POINT('',(25.78386180167,0.,58.118731675993));
#58 = SURFACE_CURVE('',#59,(#65,#71),.PCURVE_S1.);
#59 = B_SPLINE_CURVE_WITH_KNOTS('',2,(#60,#61,#62,#63,#64),
  .UNSPECIFIED.,.F.,.F.,(3,1,1,3),(-2.684700538379,-1.154700538379,
    26.154700538379,27.684700538379),.UNSPECIFIED.);
#60 = CARTESIAN_POINT('',(26.930246620442,-1.985596751139,
    58.118731675993));
#61 = CARTESIAN_POINT('',(26.547746620442,-1.323087317244,
    58.118731675993));
#62 = CARTESIAN_POINT('',(19.337896351252,11.164739663957,
    58.118731675993));
#63 = CARTESIAN_POINT('',(12.128046082063,23.652566645157,
    58.118731675993));
#64 = CARTESIAN_POINT('',(11.745546082063,24.315076079052,
    58.118731675993));
#65 = PCURVE('',#31,#66);
#66 = DEFINITIONAL_REPRESENTATION('',(#67),#70);
#67 = B_SPLINE_CURVE_WITH_KNOTS('',1,(#68,#69),.UNSPECIFIED.,.F.,.F.,(2,
    2),(-1.154700538379,26.154700538379),.PIECEWISE_BEZIER_KNOTS.);
#68 = CARTESIAN_POINT('',(-1.479160963962,0.968645527933));
#69 = CARTESIAN_POINT('',(51.479160963962,0.968645527933));
#70 = ( GEOMETRIC_REPRESENTATION_CONTEXT(2) 
PARAMETRIC_REPRESENTATION_CONTEXT() REPRESENTATION_CONTEXT('2D SPACE',''
  ) );
#71 = PCURVE('',#72,#83);
#72 = B_SPLINE_SURFACE_WITH_KNOTS('',1,2,(
    (#73,#74,#75,#76,#77)
    ,(#78,#79,#80,#81,#82
    )),.UNSPECIFIED.,.F.,.F.,.F.,(2,2),(3,1,1,3),(0.,27.309401076759),(
    -2.684700538379,-1.154700538379,26.154700538379,27.684700538379),
  .UNSPECIFIED.);
#73 = CARTESIAN_POINT('',(26.930246620442,-1.985596751139,
    58.118731675993));
#74 = CARTESIAN_POINT('',(26.547746620442,-1.323087317244,
    58.118731675993));
#75 = CARTESIAN_POINT('',(19.337896351252,11.164739663957,
    58.118731675993));
#76 = CARTESIAN_POINT('',(12.128046082063,23.652566645157,
    58.118731675993));
#77 = CARTESIAN_POINT('',(11.745546082063,24.315076079052,
    58.118731675993));
#78 = CARTESIAN_POINT('',(24.610299461621,-3.32501886779,60.));
#79 = CARTESIAN_POINT('',(24.227799461621,-2.662509433895,60.));
#80 = CARTESIAN_POINT('',(17.017949192431,9.825317547305,60.));
#81 = CARTESIAN_POINT('',(9.808098923241,22.313144528506,60.));
#82 = CARTESIAN_POINT('',(9.425598923241,22.975653962401,60.));
#83 = DEFINITIONAL_REPRESENTATION('',(#84),#88);
#84 = LINE('',#85,#86);
#85 = CARTESIAN_POINT('',(0.,0.));
#86 = VECTOR('',#87,1.);
#87 = DIRECTION('',(0.,1.));
#88 = ( GEOMETRIC_REPRESENTATION_CONTEXT(2) 
PARAMETRIC_REPRESENTATION_CONTEXT() REPRESENTATION_CONTEXT('2D SPACE',''
  ) );
#89 = ORIENTED_EDGE('',*,*,#90,.F.);
#90 = EDGE_CURVE('',#91,#56,#93,.T.);
#91 = VERTEX_POINT('',#92);
#92 = CARTESIAN_POINT('',(49.21613819833,0.,1.881268324007));
#93 = SURFACE_CURVE('',#94,(#97,#104),.PCURVE_S1.);
#94 = B_SPLINE_CURVE_WITH_KNOTS('',1,(#95,#96),.UNSPECIFIED.,.F.,.F.,(2,
    2),(0.,1.),.PIECEWISE_BEZIER_KNOTS.);
#95 = CARTESIAN_POINT('',(50.,0.,0.));
#96 = CARTESIAN_POINT('',(25.,0.,60.));
#97 = PCURVE('',#31,#98);
#98 = DEFINITIONAL_REPRESENTATION('',(#99),#103);
#99 = LINE('',#100,#101);
#100 = CARTESIAN_POINT('',(0.,0.));
#101 = VECTOR('',#102,1.);
#102 = DIRECTION('',(0.,1.));
#103 = ( GEOMETRIC_REPRESENTATION_CONTEXT(2) 
PARAMETRIC_REPRESENTATION_CONTEXT() REPRESENTATION_CONTEXT('2D SPACE',''
  ) );
#104 = PCURVE('',#105,#110);
#105 = B_SPLINE_SURFACE_WITH_KNOTS('',1,1,(
    (#106,#107)
    ,(#108,#109
  )),.UNSPECIFIED.,.F.,.F.,.F.,(2,2),(2,2),(0.,50.),(0.,1.),
  .PIECEWISE_BEZIER_KNOTS.);
#106 = CARTESIAN_POINT('',(25.,-43.30127018922,0.));
#107 = CARTESIAN_POINT('',(12.5,-21.65063509461,60.));
#108 = CARTESIAN_POINT('',(50.,0.,0.));
#109 = CARTESIAN_POINT('',(25.,0.,60.));
#110 = DEFINITIONAL_REPRESENTATION('',(#111),#115);
#111 = LINE('',#112,#113);
#112 = CARTESIAN_POINT('',(50.,0.));
#113 = VECTOR('',#114,1.);
#114 = DIRECTION('',(0.,1.));
#115 = ( GEOMETRIC_REPRESENTATION_CONTEXT(2) 
PARAMETRIC_REPRESENTATION_CONTEXT() REPRESENTATION_CONTEXT('2D SPACE',''
  ) );
#116 = ORIENTED_EDGE('',*,*,#117,.T.);
#117 = EDGE_CURVE('',#91,#22,#118,.T.);
#118 = SURFACE_CURVE('',#119,(#125,#131),.PCURVE_S1.);
#119 = B_SPLINE_CURVE_WITH_KNOTS('',2,(#120,#121,#122,#123,#124),
  .UNSPECIFIED.,.F.,.F.,(3,1,1,3),(-4.21470053838,-1.15470053838,
    51.154700538379,54.214700538379),.UNSPECIFIED.);
#120 = CARTESIAN_POINT('',(51.519453917937,-3.989459852232,
    1.881268324007));
#121 = CARTESIAN_POINT('',(50.754453917937,-2.664440984441,
    1.881268324007));
#122 = CARTESIAN_POINT('',(36.912103648748,21.31121297796,1.881268324007
    ));
#123 = CARTESIAN_POINT('',(23.069753379558,45.286866940361,
    1.881268324007));
#124 = CARTESIAN_POINT('',(22.304753379558,46.611885808151,
    1.881268324007));
#125 = PCURVE('',#31,#126);
#126 = DEFINITIONAL_REPRESENTATION('',(#127),#130);
#127 = B_SPLINE_CURVE_WITH_KNOTS('',1,(#128,#129),.UNSPECIFIED.,.F.,.F.,
  (2,2),(-1.15470053838,51.154700538379),.PIECEWISE_BEZIER_KNOTS.);
#128 = CARTESIAN_POINT('',(-1.571264524028,3.135447206679E-02));
#129 = CARTESIAN_POINT('',(51.571264524028,3.135447206679E-02));
#130 = ( GEOMETRIC_REPRESENTATION_CONTEXT(2) 
PARAMETRIC_REPRESENTATION_CONTEXT() REPRESENTATION_CONTEXT('2D SPACE',''
  ) );
#131 = PCURVE('',#132,#143);
#132 = B_SPLINE_SURFACE_WITH_KNOTS('',1,2,(
    (#133,#134,#135,#136,#137)
    ,(#138,#139,#140,#141,#142
    )),.UNSPECIFIED.,.F.,.F.,.F.,(2,2),(3,1,1,3),(0.,52.309401076759),(
    -4.21470053838,-1.15470053838,51.154700538379,54.214700538379),
  .UNSPECIFIED.);
#133 = CARTESIAN_POINT('',(51.519453917937,-3.989459852232,
    1.881268324007));
#134 = CARTESIAN_POINT('',(50.754453917937,-2.664440984441,
    1.881268324007));
#135 = CARTESIAN_POINT('',(36.912103648748,21.31121297796,1.881268324007
    ));
#136 = CARTESIAN_POINT('',(23.069753379558,45.286866940361,
    1.881268324007));
#137 = CARTESIAN_POINT('',(22.304753379558,46.611885808151,
    1.881268324007));
#138 = CARTESIAN_POINT('',(50.375299461621,-4.650037735581,0.));
#139 = CARTESIAN_POINT('',(49.610299461621,-3.32501886779,0.));
#140 = CARTESIAN_POINT('',(35.767949192431,20.650635094611,0.));
#141 = CARTESIAN_POINT('',(21.925598923241,44.626289057012,0.));
#142 = CARTESIAN_POINT('',(21.160598923241,45.951307924802,0.));
#143 = DEFINITIONAL_REPRESENTATION('',(#144),#148);
#144 = LINE('',#145,#146);
#145 = CARTESIAN_POINT('',(0.,0.));
#146 = VECTOR('',#147,1.);
#147 = DIRECTION('',(0.,1.));
#148 = ( GEOMETRIC_REPRESENTATION_CONTEXT(2) 
PARAMETRIC_REPRESENTATION_CONTEXT() REPRESENTATION_CONTEXT('2D SPACE',''
  ) );
#149 = ADVANCED_FACE('',(#150),#43,.T.);
#150 = FACE_BOUND('',#151,.T.);
#151 = EDGE_LOOP('',(#152,#181,#214,#215));
#152 = ORIENTED_EDGE('',*,*,#153,.T.);
#153 = EDGE_CURVE('',#154,#156,#158,.T.);
#154 = VERTEX_POINT('',#155);
#155 = CARTESIAN_POINT('',(-24.60806909916,42.62242595592,1.881268324007
    ));
#156 = VERTEX_POINT('',#157);
#157 = CARTESIAN_POINT('',(-12.89193090083,22.329479327913,
    58.118731675993));
#158 = SURFACE_CURVE('',#159,(#162,#169),.PCURVE_S1.);
#159 = B_SPLINE_CURVE_WITH_KNOTS('',1,(#160,#161),.UNSPECIFIED.,.F.,.F.,
  (2,2),(0.,1.),.PIECEWISE_BEZIER_KNOTS.);
#160 = CARTESIAN_POINT('',(-25.,43.301270189222,0.));
#161 = CARTESIAN_POINT('',(-12.5,21.650635094611,60.));
#162 = PCURVE('',#43,#163);
#163 = DEFINITIONAL_REPRESENTATION('',(#164),#168);
#164 = LINE('',#165,#166);
#165 = CARTESIAN_POINT('',(50.,0.));
#166 = VECTOR('',#167,1.);
#167 = DIRECTION('',(0.,1.));
#168 = ( GEOMETRIC_REPRESENTATION_CONTEXT(2) 
PARAMETRIC_REPRESENTATION_CONTEXT() REPRESENTATION_CONTEXT('2D SPACE',''
  ) );
#169 = PCURVE('',#170,#175);
#170 = B_SPLINE_SURFACE_WITH_KNOTS('',1,1,(
    (#171,#172)
    ,(#173,#174
  )),.UNSPECIFIED.,.F.,.F.,.F.,(2,2),(2,2),(0.,50.),(0.,1.),
  .PIECEWISE_BEZIER_KNOTS.);
#171 = CARTESIAN_POINT('',(-25.,43.301270189222,0.));
#172 = CARTESIAN_POINT('',(-12.5,21.650635094611,60.));
#173 = CARTESIAN_POINT('',(-50.,7.105427357601E-15,0.));
#174 = CARTESIAN_POINT('',(-25.,3.552713678801E-15,60.));
#175 = DEFINITIONAL_REPRESENTATION('',(#176),#180);
#176 = LINE('',#177,#178);
#177 = CARTESIAN_POINT('',(0.,0.));
#178 = VECTOR('',#179,1.);
#179 = DIRECTION('',(0.,1.));
#180 = ( GEOMETRIC_REPRESENTATION_CONTEXT(2) 
PARAMETRIC_REPRESENTATION_CONTEXT() REPRESENTATION_CONTEXT('2D SPACE',''
  ) );
#181 = ORIENTED_EDGE('',*,*,#182,.F.);
#182 = EDGE_CURVE('',#24,#156,#183,.T.);
#183 = SURFACE_CURVE('',#184,(#190,#196),.PCURVE_S1.);
#184 = B_SPLINE_CURVE_WITH_KNOTS('',2,(#185,#186,#187,#188,#189),
  .UNSPECIFIED.,.F.,.F.,(3,1,1,3),(-2.684700538379,-1.154700538379,
    26.154700538379,27.684700538379),.UNSPECIFIED.);
#185 = CARTESIAN_POINT('',(15.184700538379,22.329479327913,
    58.118731675993));
#186 = CARTESIAN_POINT('',(14.419700538379,22.329479327913,
    58.118731675993));
#187 = CARTESIAN_POINT('',(5.329070518201E-15,22.329479327913,
    58.118731675993));
#188 = CARTESIAN_POINT('',(-14.41970053837,22.329479327913,
    58.118731675993));
#189 = CARTESIAN_POINT('',(-15.18470053837,22.329479327913,
    58.118731675993));
#190 = PCURVE('',#43,#191);
#191 = DEFINITIONAL_REPRESENTATION('',(#192),#195);
#192 = B_SPLINE_CURVE_WITH_KNOTS('',1,(#193,#194),.UNSPECIFIED.,.F.,.F.,
  (2,2),(-1.154700538379,26.154700538379),.PIECEWISE_BEZIER_KNOTS.);
#193 = CARTESIAN_POINT('',(-1.479160963962,0.968645527933));
#194 = CARTESIAN_POINT('',(51.479160963962,0.968645527933));
#195 = ( GEOMETRIC_REPRESENTATION_CONTEXT(2) 
PARAMETRIC_REPRESENTATION_CONTEXT() REPRESENTATION_CONTEXT('2D SPACE',''
  ) );
#196 = PCURVE('',#197,#208);
#197 = B_SPLINE_SURFACE_WITH_KNOTS('',1,2,(
    (#198,#199,#200,#201,#202)
    ,(#203,#204,#205,#206,#207
    )),.UNSPECIFIED.,.F.,.F.,.F.,(2,2),(3,1,1,3),(0.,27.309401076758),(
    -2.684700538379,-1.154700538379,26.154700538379,27.684700538379),
  .UNSPECIFIED.);
#198 = CARTESIAN_POINT('',(15.184700538379,22.329479327913,
    58.118731675993));
#199 = CARTESIAN_POINT('',(14.419700538379,22.329479327913,
    58.118731675993));
#200 = CARTESIAN_POINT('',(5.329070518201E-15,22.329479327913,
    58.118731675993));
#201 = CARTESIAN_POINT('',(-14.41970053837,22.329479327913,
    58.118731675993));
#202 = CARTESIAN_POINT('',(-15.18470053837,22.329479327913,
    58.118731675993));
#203 = CARTESIAN_POINT('',(15.184700538379,19.650635094611,60.));
#204 = CARTESIAN_POINT('',(14.419700538379,19.650635094611,60.));
#205 = CARTESIAN_POINT('',(3.552713678801E-15,19.650635094611,60.));
#206 = CARTESIAN_POINT('',(-14.41970053837,19.650635094611,60.));
#207 = CARTESIAN_POINT('',(-15.18470053837,19.650635094611,60.));
#208 = DEFINITIONAL_REPRESENTATION('',(#209),#213);
#209 = LINE('',#210,#211);
#210 = CARTESIAN_POINT('',(0.,0.));
#211 = VECTOR('',#212,1.);
#212 = DIRECTION('',(0.,1.));
#213 = ( GEOMETRIC_REPRESENTATION_CONTEXT(2) 
PARAMETRIC_REPRESENTATION_CONTEXT() REPRESENTATION_CONTEXT('2D SPACE',''
  ) );
#214 = ORIENTED_EDGE('',*,*,#21,.F.);
#215 = ORIENTED_EDGE('',*,*,#216,.T.);
#216 = EDGE_CURVE('',#22,#154,#217,.T.);
#217 = SURFACE_CURVE('',#218,(#224,#230),.PCURVE_S1.);
#218 = B_SPLINE_CURVE_WITH_KNOTS('',2,(#219,#220,#221,#222,#223),
  .UNSPECIFIED.,.F.,.F.,(3,1,1,3),(-4.214700538379,-1.154700538379,
    51.154700538379,54.214700538379),.UNSPECIFIED.);
#219 = CARTESIAN_POINT('',(29.214700538379,42.62242595592,1.881268324007
    ));
#220 = CARTESIAN_POINT('',(27.684700538379,42.62242595592,1.881268324007
    ));
#221 = CARTESIAN_POINT('',(-3.552713678801E-15,42.62242595592,
    1.881268324007));
#222 = CARTESIAN_POINT('',(-27.68470053837,42.62242595592,1.881268324007
    ));
#223 = CARTESIAN_POINT('',(-29.21470053837,42.62242595592,1.881268324007
    ));
#224 = PCURVE('',#43,#225);
#225 = DEFINITIONAL_REPRESENTATION('',(#226),#229);
#226 = B_SPLINE_CURVE_WITH_KNOTS('',1,(#227,#228),.UNSPECIFIED.,.F.,.F.,
  (2,2),(-1.154700538379,51.154700538379),.PIECEWISE_BEZIER_KNOTS.);
#227 = CARTESIAN_POINT('',(-1.571264524028,3.135447206678E-02));
#228 = CARTESIAN_POINT('',(51.571264524028,3.135447206678E-02));
#229 = ( GEOMETRIC_REPRESENTATION_CONTEXT(2) 
PARAMETRIC_REPRESENTATION_CONTEXT() REPRESENTATION_CONTEXT('2D SPACE',''
  ) );
#230 = PCURVE('',#231,#242);
#231 = B_SPLINE_SURFACE_WITH_KNOTS('',1,2,(
    (#232,#233,#234,#235,#236)
    ,(#237,#238,#239,#240,#241
    )),.UNSPECIFIED.,.F.,.F.,.F.,(2,2),(3,1,1,3),(0.,52.309401076758),(
    -4.214700538379,-1.154700538379,51.154700538379,54.214700538379),
  .UNSPECIFIED.);
#232 = CARTESIAN_POINT('',(29.214700538379,42.62242595592,1.881268324007
    ));
#233 = CARTESIAN_POINT('',(27.684700538379,42.62242595592,1.881268324007
    ));
#234 = CARTESIAN_POINT('',(-3.552713678801E-15,42.62242595592,
    1.881268324007));
#235 = CARTESIAN_POINT('',(-27.68470053837,42.62242595592,1.881268324007
    ));
#236 = CARTESIAN_POINT('',(-29.21470053837,42.62242595592,1.881268324007
    ));
#237 = CARTESIAN_POINT('',(29.214700538379,41.301270189222,0.));
#238 = CARTESIAN_POINT('',(27.684700538379,41.301270189222,0.));
#239 = CARTESIAN_POINT('',(3.552713678801E-15,41.301270189222,0.));
#240 = CARTESIAN_POINT('',(-27.68470053837,41.301270189222,0.));
#241 = CARTESIAN_POINT('',(-29.21470053837,41.301270189222,0.));
#242 = DEFINITIONAL_REPRESENTATION('',(#243),#247);
#243 = LINE('',#244,#245);
#244 = CARTESIAN_POINT('',(0.,0.));
#245 = VECTOR('',#246,1.);
#246 = DIRECTION('',(0.,1.));
#247 = ( GEOMETRIC_REPRESENTATION_CONTEXT(2) 
PARAMETRIC_REPRESENTATION_CONTEXT() REPRESENTATION_CONTEXT('2D SPACE',''
  ) );
#248 = ADVANCED_FACE('',(#249),#132,.T.);
#249 = FACE_BOUND('',#250,.T.);
#250 = EDGE_LOOP('',(#251,#291,#320,#347));
#251 = ORIENTED_EDGE('',*,*,#252,.T.);
#252 = EDGE_CURVE('',#91,#253,#255,.T.);
#253 = VERTEX_POINT('',#254);
#254 = CARTESIAN_POINT('',(47.690598923241,-5.689893001204E-14,
    -2.22044604925E-16));
#255 = SURFACE_CURVE('',#256,(#262,#271),.PCURVE_S1.);
#256 = B_SPLINE_CURVE_WITH_KNOTS('',4,(#257,#258,#259,#260,#261),
  .UNSPECIFIED.,.F.,.F.,(5,5),(0.,1.),.PIECEWISE_BEZIER_KNOTS.);
#257 = CARTESIAN_POINT('',(49.21613819833,-6.189493362285E-15,
    1.881268324007));
#258 = CARTESIAN_POINT('',(48.834753379566,-1.838502173626E-14,
    1.410951243015));
#259 = CARTESIAN_POINT('',(48.453368560788,-3.664856065584E-14,
    0.940634162006));
#260 = CARTESIAN_POINT('',(48.071983742006,-4.251496484964E-14,
    0.470317080992));
#261 = CARTESIAN_POINT('',(47.690598923241,-5.467848396279E-14,
    -1.665334536938E-16));
#262 = PCURVE('',#132,#263);
#263 = DEFINITIONAL_REPRESENTATION('',(#264),#270);
#264 = B_SPLINE_CURVE_WITH_KNOTS('',4,(#265,#266,#267,#268,#269),
  .UNSPECIFIED.,.F.,.F.,(5,5),(0.,1.),.PIECEWISE_BEZIER_KNOTS.);
#265 = CARTESIAN_POINT('',(0.,0.391930900835));
#266 = CARTESIAN_POINT('',(13.077350268928,0.582623310217));
#267 = CARTESIAN_POINT('',(26.154700538314,0.773315719606));
#268 = CARTESIAN_POINT('',(39.23205080783,0.964008128997));
#269 = CARTESIAN_POINT('',(52.309401076759,1.154700538379));
#270 = ( GEOMETRIC_REPRESENTATION_CONTEXT(2) 
PARAMETRIC_REPRESENTATION_CONTEXT() REPRESENTATION_CONTEXT('2D SPACE',''
  ) );
#271 = PCURVE('',#272,#283);
#272 = B_SPLINE_SURFACE_WITH_KNOTS('',1,2,(
    (#273,#274,#275,#276,#277)
    ,(#278,#279,#280,#281,#282
    )),.UNSPECIFIED.,.F.,.F.,.F.,(2,2),(3,1,1,3),(0.,52.309401076759),(
    -4.214700538379,-1.154700538379,51.154700538379,54.214700538379),
  .UNSPECIFIED.);
#273 = CARTESIAN_POINT('',(22.304753379558,-46.61188580815,
    1.881268324007));
#274 = CARTESIAN_POINT('',(23.069753379558,-45.28686694036,
    1.881268324007));
#275 = CARTESIAN_POINT('',(36.912103648748,-21.31121297796,
    1.881268324007));
#276 = CARTESIAN_POINT('',(50.754453917937,2.664440984441,1.881268324007
    ));
#277 = CARTESIAN_POINT('',(51.519453917937,3.989459852232,1.881268324007
    ));
#278 = CARTESIAN_POINT('',(21.160598923241,-45.9513079248,0.));
#279 = CARTESIAN_POINT('',(21.925598923241,-44.62628905701,0.));
#280 = CARTESIAN_POINT('',(35.767949192431,-20.65063509461,0.));
#281 = CARTESIAN_POINT('',(49.610299461621,3.32501886779,0.));
#282 = CARTESIAN_POINT('',(50.375299461621,4.65003773558,0.));
#283 = DEFINITIONAL_REPRESENTATION('',(#284),#290);
#284 = B_SPLINE_CURVE_WITH_KNOTS('',4,(#285,#286,#287,#288,#289),
  .UNSPECIFIED.,.F.,.F.,(5,5),(0.,1.),.PIECEWISE_BEZIER_KNOTS.);
#285 = CARTESIAN_POINT('',(1.010214113231E-09,49.608069099151));
#286 = CARTESIAN_POINT('',(13.077350269938,49.417376689768));
#287 = CARTESIAN_POINT('',(26.15470053841,49.226684280393));
#288 = CARTESIAN_POINT('',(39.232050806748,49.035991871019));
#289 = CARTESIAN_POINT('',(52.309401075677,48.845299461637));
#290 = ( GEOMETRIC_REPRESENTATION_CONTEXT(2) 
PARAMETRIC_REPRESENTATION_CONTEXT() REPRESENTATION_CONTEXT('2D SPACE',''
  ) );
#291 = ORIENTED_EDGE('',*,*,#292,.T.);
#292 = EDGE_CURVE('',#253,#293,#295,.T.);
#293 = VERTEX_POINT('',#294);
#294 = CARTESIAN_POINT('',(23.845299461621,41.301270189222,
    -2.22044604925E-16));
#295 = SURFACE_CURVE('',#296,(#302,#309),.PCURVE_S1.);
#296 = B_SPLINE_CURVE_WITH_KNOTS('',2,(#297,#298,#299,#300,#301),
  .UNSPECIFIED.,.F.,.F.,(3,1,1,3),(-4.21470053838,-1.15470053838,
    51.154700538379,54.214700538379),.UNSPECIFIED.);
#297 = CARTESIAN_POINT('',(50.375299461621,-4.650037735581,0.));
#298 = CARTESIAN_POINT('',(49.610299461621,-3.32501886779,0.));
#299 = CARTESIAN_POINT('',(35.767949192431,20.650635094611,0.));
#300 = CARTESIAN_POINT('',(21.925598923241,44.626289057012,0.));
#301 = CARTESIAN_POINT('',(21.160598923241,45.951307924802,0.));
#302 = PCURVE('',#132,#303);
#303 = DEFINITIONAL_REPRESENTATION('',(#304),#308);
#304 = LINE('',#305,#306);
#305 = CARTESIAN_POINT('',(52.309401076759,0.));
#306 = VECTOR('',#307,1.);
#307 = DIRECTION('',(0.,1.));
#308 = ( GEOMETRIC_REPRESENTATION_CONTEXT(2) 
PARAMETRIC_REPRESENTATION_CONTEXT() REPRESENTATION_CONTEXT('2D SPACE',''
  ) );
#309 = PCURVE('',#310,#315);
#310 = PLANE('',#311);
#311 = AXIS2_PLACEMENT_3D('',#312,#313,#314);
#312 = CARTESIAN_POINT('',(50.,0.,0.));
#313 = DIRECTION('',(0.,0.,-1.));
#314 = DIRECTION('',(-1.,7.105427357601E-17,0.));
#315 = DEFINITIONAL_REPRESENTATION('',(#316),#319);
#316 = B_SPLINE_CURVE_WITH_KNOTS('',1,(#317,#318),.UNSPECIFIED.,.F.,.F.,
  (2,2),(-1.15470053838,51.154700538379),.PIECEWISE_BEZIER_KNOTS.);
#317 = CARTESIAN_POINT('',(1.154700538379,-2.));
#318 = CARTESIAN_POINT('',(27.309401076759,43.301270189222));
#319 = ( GEOMETRIC_REPRESENTATION_CONTEXT(2) 
PARAMETRIC_REPRESENTATION_CONTEXT() REPRESENTATION_CONTEXT('2D SPACE',''
  ) );
#320 = ORIENTED_EDGE('',*,*,#321,.F.);
#321 = EDGE_CURVE('',#22,#293,#322,.T.);
#322 = SURFACE_CURVE('',#323,(#329,#338),.PCURVE_S1.);
#323 = B_SPLINE_CURVE_WITH_KNOTS('',4,(#324,#325,#326,#327,#328),
  .UNSPECIFIED.,.F.,.F.,(5,5),(0.,1.),.PIECEWISE_BEZIER_KNOTS.);
#324 = CARTESIAN_POINT('',(24.608069099165,42.62242595592,1.881268324007
    ));
#325 = CARTESIAN_POINT('',(24.417376689785,42.292137014255,
    1.410951243019));
#326 = CARTESIAN_POINT('',(24.226684280387,41.96184807256,0.940634161988
    ));
#327 = CARTESIAN_POINT('',(24.035991871001,41.631559130887,
    0.470317080988));
#328 = CARTESIAN_POINT('',(23.845299461621,41.301270189222,
    -2.775557561563E-16));
#329 = PCURVE('',#132,#330);
#330 = DEFINITIONAL_REPRESENTATION('',(#331),#337);
#331 = B_SPLINE_CURVE_WITH_KNOTS('',4,(#332,#333,#334,#335,#336),
  .UNSPECIFIED.,.F.,.F.,(5,5),(0.,1.),.PIECEWISE_BEZIER_KNOTS.);
#332 = CARTESIAN_POINT('',(0.,49.608069099165));
#333 = CARTESIAN_POINT('',(13.077350268804,49.417376689785));
#334 = CARTESIAN_POINT('',(26.154700538817,49.226684280387));
#335 = CARTESIAN_POINT('',(39.232050807954,49.035991871001));
#336 = CARTESIAN_POINT('',(52.309401076759,48.845299461621));
#337 = ( GEOMETRIC_REPRESENTATION_CONTEXT(2) 
PARAMETRIC_REPRESENTATION_CONTEXT() REPRESENTATION_CONTEXT('2D SPACE',''
  ) );
#338 = PCURVE('',#231,#339);
#339 = DEFINITIONAL_REPRESENTATION('',(#340),#346);
#340 = B_SPLINE_CURVE_WITH_KNOTS('',4,(#341,#342,#343,#344,#345),
  .UNSPECIFIED.,.F.,.F.,(5,5),(0.,1.),.PIECEWISE_BEZIER_KNOTS.);
#341 = CARTESIAN_POINT('',(1.793831556723E-09,0.391930900861));
#342 = CARTESIAN_POINT('',(13.077350270598,0.582623310241));
#343 = CARTESIAN_POINT('',(26.154700538193,0.773315719604));
#344 = CARTESIAN_POINT('',(39.232050806663,0.96400812898));
#345 = CARTESIAN_POINT('',(52.309401075467,1.15470053836));
#346 = ( GEOMETRIC_REPRESENTATION_CONTEXT(2) 
PARAMETRIC_REPRESENTATION_CONTEXT() REPRESENTATION_CONTEXT('2D SPACE',''
  ) );
#347 = ORIENTED_EDGE('',*,*,#117,.F.);
#348 = ADVANCED_FACE('',(#349),#72,.F.);
#349 = FACE_BOUND('',#350,.F.);
#350 = EDGE_LOOP('',(#351,#391,#420,#447));
#351 = ORIENTED_EDGE('',*,*,#352,.T.);
#352 = EDGE_CURVE('',#56,#353,#355,.T.);
#353 = VERTEX_POINT('',#354);
#354 = CARTESIAN_POINT('',(22.690598923241,-2.209343819004E-14,60.));
#355 = SURFACE_CURVE('',#356,(#362,#371),.PCURVE_S1.);
#356 = B_SPLINE_CURVE_WITH_KNOTS('',4,(#357,#358,#359,#360,#361),
  .UNSPECIFIED.,.F.,.F.,(5,5),(0.,1.),.PIECEWISE_BEZIER_KNOTS.);
#357 = CARTESIAN_POINT('',(25.78386180167,5.723199691943E-14,
    58.118731675993));
#358 = CARTESIAN_POINT('',(25.010546082078,3.629147682448E-14,
    58.589048756985));
#359 = CARTESIAN_POINT('',(24.237230362449,3.573350840674E-14,
    59.059365838));
#360 = CARTESIAN_POINT('',(23.463914642833,-3.809689755061E-15,
    59.529682919008));
#361 = CARTESIAN_POINT('',(22.690598923241,-2.403632848313E-14,60.));
#362 = PCURVE('',#72,#363);
#363 = DEFINITIONAL_REPRESENTATION('',(#364),#370);
#364 = B_SPLINE_CURVE_WITH_KNOTS('',4,(#365,#366,#367,#368,#369),
  .UNSPECIFIED.,.F.,.F.,(5,5),(0.,1.),.PIECEWISE_BEZIER_KNOTS.);
#365 = CARTESIAN_POINT('',(0.,-0.391930900835));
#366 = CARTESIAN_POINT('',(6.827350269054,-5.27304103903E-03));
#367 = CARTESIAN_POINT('',(13.654700538437,0.381384818775));
#368 = CARTESIAN_POINT('',(20.482050807704,0.768042678583));
#369 = CARTESIAN_POINT('',(27.309401076759,1.154700538379));
#370 = ( GEOMETRIC_REPRESENTATION_CONTEXT(2) 
PARAMETRIC_REPRESENTATION_CONTEXT() REPRESENTATION_CONTEXT('2D SPACE',''
  ) );
#371 = PCURVE('',#372,#383);
#372 = B_SPLINE_SURFACE_WITH_KNOTS('',1,2,(
    (#373,#374,#375,#376,#377)
    ,(#378,#379,#380,#381,#382
    )),.UNSPECIFIED.,.F.,.F.,.F.,(2,2),(3,1,1,3),(0.,27.309401076759),(
    -2.684700538379,-1.154700538379,26.154700538379,27.684700538379),
  .UNSPECIFIED.);
#373 = CARTESIAN_POINT('',(11.745546082063,-24.31507607905,
    58.118731675993));
#374 = CARTESIAN_POINT('',(12.128046082063,-23.65256664515,
    58.118731675993));
#375 = CARTESIAN_POINT('',(19.337896351252,-11.16473966395,
    58.118731675993));
#376 = CARTESIAN_POINT('',(26.547746620442,1.323087317244,
    58.118731675993));
#377 = CARTESIAN_POINT('',(26.930246620442,1.985596751139,
    58.118731675993));
#378 = CARTESIAN_POINT('',(9.425598923241,-22.9756539624,60.));
#379 = CARTESIAN_POINT('',(9.808098923241,-22.3131445285,60.));
#380 = CARTESIAN_POINT('',(17.017949192431,-9.825317547305,60.));
#381 = CARTESIAN_POINT('',(24.227799461621,2.662509433895,60.));
#382 = CARTESIAN_POINT('',(24.610299461621,3.32501886779,60.));
#383 = DEFINITIONAL_REPRESENTATION('',(#384),#390);
#384 = B_SPLINE_CURVE_WITH_KNOTS('',4,(#385,#386,#387,#388,#389),
  .UNSPECIFIED.,.F.,.F.,(5,5),(0.,1.),.PIECEWISE_BEZIER_KNOTS.);
#385 = CARTESIAN_POINT('',(5.810751270579E-10,25.391930900802));
#386 = CARTESIAN_POINT('',(6.827350269635,25.005273041006));
#387 = CARTESIAN_POINT('',(13.654700538356,24.618615181229));
#388 = CARTESIAN_POINT('',(20.482050807192,24.231957321446));
#389 = CARTESIAN_POINT('',(27.309401076246,23.84529946165));
#390 = ( GEOMETRIC_REPRESENTATION_CONTEXT(2) 
PARAMETRIC_REPRESENTATION_CONTEXT() REPRESENTATION_CONTEXT('2D SPACE',''
  ) );
#391 = ORIENTED_EDGE('',*,*,#392,.T.);
#392 = EDGE_CURVE('',#353,#393,#395,.T.);
#393 = VERTEX_POINT('',#394);
#394 = CARTESIAN_POINT('',(11.345299461621,19.650635094611,60.));
#395 = SURFACE_CURVE('',#396,(#402,#409),.PCURVE_S1.);
#396 = B_SPLINE_CURVE_WITH_KNOTS('',2,(#397,#398,#399,#400,#401),
  .UNSPECIFIED.,.F.,.F.,(3,1,1,3),(-2.684700538379,-1.154700538379,
    26.154700538379,27.684700538379),.UNSPECIFIED.);
#397 = CARTESIAN_POINT('',(24.610299461621,-3.32501886779,60.));
#398 = CARTESIAN_POINT('',(24.227799461621,-2.662509433895,60.));
#399 = CARTESIAN_POINT('',(17.017949192431,9.825317547305,60.));
#400 = CARTESIAN_POINT('',(9.808098923241,22.313144528506,60.));
#401 = CARTESIAN_POINT('',(9.425598923241,22.975653962401,60.));
#402 = PCURVE('',#72,#403);
#403 = DEFINITIONAL_REPRESENTATION('',(#404),#408);
#404 = LINE('',#405,#406);
#405 = CARTESIAN_POINT('',(27.309401076759,0.));
#406 = VECTOR('',#407,1.);
#407 = DIRECTION('',(0.,1.));
#408 = ( GEOMETRIC_REPRESENTATION_CONTEXT(2) 
PARAMETRIC_REPRESENTATION_CONTEXT() REPRESENTATION_CONTEXT('2D SPACE',''
  ) );
#409 = PCURVE('',#410,#415);
#410 = PLANE('',#411);
#411 = AXIS2_PLACEMENT_3D('',#412,#413,#414);
#412 = CARTESIAN_POINT('',(25.,0.,60.));
#413 = DIRECTION('',(0.,0.,-1.));
#414 = DIRECTION('',(-1.,7.105427357601E-17,0.));
#415 = DEFINITIONAL_REPRESENTATION('',(#416),#419);
#416 = B_SPLINE_CURVE_WITH_KNOTS('',1,(#417,#418),.UNSPECIFIED.,.F.,.F.,
  (2,2),(-1.154700538379,26.154700538379),.PIECEWISE_BEZIER_KNOTS.);
#417 = CARTESIAN_POINT('',(1.154700538379,-2.));
#418 = CARTESIAN_POINT('',(14.809401076759,21.650635094611));
#419 = ( GEOMETRIC_REPRESENTATION_CONTEXT(2) 
PARAMETRIC_REPRESENTATION_CONTEXT() REPRESENTATION_CONTEXT('2D SPACE',''
  ) );
#420 = ORIENTED_EDGE('',*,*,#421,.F.);
#421 = EDGE_CURVE('',#24,#393,#422,.T.);
#422 = SURFACE_CURVE('',#423,(#429,#438),.PCURVE_S1.);
#423 = B_SPLINE_CURVE_WITH_KNOTS('',4,(#424,#425,#426,#427,#428),
  .UNSPECIFIED.,.F.,.F.,(5,5),(0.,1.),.PIECEWISE_BEZIER_KNOTS.);
#424 = CARTESIAN_POINT('',(12.891930900835,22.329479327913,
    58.118731675993));
#425 = CARTESIAN_POINT('',(12.505273041039,21.659768269601,
    58.589048756985));
#426 = CARTESIAN_POINT('',(12.118615181184,20.990057211186,
    59.05936583805));
#427 = CARTESIAN_POINT('',(11.731957321417,20.320346152923,
    59.529682919008));
#428 = CARTESIAN_POINT('',(11.345299461621,19.650635094611,60.));
#429 = PCURVE('',#72,#430);
#430 = DEFINITIONAL_REPRESENTATION('',(#431),#437);
#431 = B_SPLINE_CURVE_WITH_KNOTS('',4,(#432,#433,#434,#435,#436),
  .UNSPECIFIED.,.F.,.F.,(5,5),(0.,1.),.PIECEWISE_BEZIER_KNOTS.);
#432 = CARTESIAN_POINT('',(0.,25.391930900835));
#433 = CARTESIAN_POINT('',(6.827350269054,25.005273041039));
#434 = CARTESIAN_POINT('',(13.654700539158,24.618615181184));
#435 = CARTESIAN_POINT('',(20.482050807704,24.231957321417));
#436 = CARTESIAN_POINT('',(27.309401076759,23.845299461621));
#437 = ( GEOMETRIC_REPRESENTATION_CONTEXT(2) 
PARAMETRIC_REPRESENTATION_CONTEXT() REPRESENTATION_CONTEXT('2D SPACE',''
  ) );
#438 = PCURVE('',#197,#439);
#439 = DEFINITIONAL_REPRESENTATION('',(#440),#446);
#440 = B_SPLINE_CURVE_WITH_KNOTS('',4,(#441,#442,#443,#444,#445),
  .UNSPECIFIED.,.F.,.F.,(5,5),(0.,1.),.PIECEWISE_BEZIER_KNOTS.);
#441 = CARTESIAN_POINT('',(9.952320633931E-10,-0.391930900779));
#442 = CARTESIAN_POINT('',(6.827350270049,-5.273040982721E-03));
#443 = CARTESIAN_POINT('',(13.654700538035,0.381384818753));
#444 = CARTESIAN_POINT('',(20.482050807607,0.768042678578));
#445 = CARTESIAN_POINT('',(27.309401076661,1.154700538374));
#446 = ( GEOMETRIC_REPRESENTATION_CONTEXT(2) 
PARAMETRIC_REPRESENTATION_CONTEXT() REPRESENTATION_CONTEXT('2D SPACE',''
  ) );
#447 = ORIENTED_EDGE('',*,*,#55,.F.);
#448 = ADVANCED_FACE('',(#449),#105,.T.);
#449 = FACE_BOUND('',#450,.T.);
#450 = EDGE_LOOP('',(#451,#452,#476,#503));
#451 = ORIENTED_EDGE('',*,*,#90,.T.);
#452 = ORIENTED_EDGE('',*,*,#453,.F.);
#453 = EDGE_CURVE('',#454,#56,#456,.T.);
#454 = VERTEX_POINT('',#455);
#455 = CARTESIAN_POINT('',(12.891930900835,-22.32947932791,
    58.118731675993));
#456 = SURFACE_CURVE('',#457,(#463,#469),.PCURVE_S1.);
#457 = B_SPLINE_CURVE_WITH_KNOTS('',2,(#458,#459,#460,#461,#462),
  .UNSPECIFIED.,.F.,.F.,(3,1,1,3),(-2.684700538379,-1.154700538379,
    26.154700538379,27.684700538379),.UNSPECIFIED.);
#458 = CARTESIAN_POINT('',(11.745546082063,-24.31507607905,
    58.118731675993));
#459 = CARTESIAN_POINT('',(12.128046082063,-23.65256664515,
    58.118731675993));
#460 = CARTESIAN_POINT('',(19.337896351252,-11.16473966395,
    58.118731675993));
#461 = CARTESIAN_POINT('',(26.547746620442,1.323087317244,
    58.118731675993));
#462 = CARTESIAN_POINT('',(26.930246620442,1.985596751139,
    58.118731675993));
#463 = PCURVE('',#105,#464);
#464 = DEFINITIONAL_REPRESENTATION('',(#465),#468);
#465 = B_SPLINE_CURVE_WITH_KNOTS('',1,(#466,#467),.UNSPECIFIED.,.F.,.F.,
  (2,2),(-1.154700538379,26.154700538379),.PIECEWISE_BEZIER_KNOTS.);
#466 = CARTESIAN_POINT('',(-1.479160963962,0.968645527933));
#467 = CARTESIAN_POINT('',(51.479160963962,0.968645527933));
#468 = ( GEOMETRIC_REPRESENTATION_CONTEXT(2) 
PARAMETRIC_REPRESENTATION_CONTEXT() REPRESENTATION_CONTEXT('2D SPACE',''
  ) );
#469 = PCURVE('',#372,#470);
#470 = DEFINITIONAL_REPRESENTATION('',(#471),#475);
#471 = LINE('',#472,#473);
#472 = CARTESIAN_POINT('',(0.,0.));
#473 = VECTOR('',#474,1.);
#474 = DIRECTION('',(0.,1.));
#475 = ( GEOMETRIC_REPRESENTATION_CONTEXT(2) 
PARAMETRIC_REPRESENTATION_CONTEXT() REPRESENTATION_CONTEXT('2D SPACE',''
  ) );
#476 = ORIENTED_EDGE('',*,*,#477,.F.);
#477 = EDGE_CURVE('',#478,#454,#480,.T.);
#478 = VERTEX_POINT('',#479);
#479 = CARTESIAN_POINT('',(24.608069099165,-42.62242595592,
    1.881268324007));
#480 = SURFACE_CURVE('',#481,(#484,#491),.PCURVE_S1.);
#481 = B_SPLINE_CURVE_WITH_KNOTS('',1,(#482,#483),.UNSPECIFIED.,.F.,.F.,
  (2,2),(0.,1.),.PIECEWISE_BEZIER_KNOTS.);
#482 = CARTESIAN_POINT('',(25.,-43.30127018922,0.));
#483 = CARTESIAN_POINT('',(12.5,-21.65063509461,60.));
#484 = PCURVE('',#105,#485);
#485 = DEFINITIONAL_REPRESENTATION('',(#486),#490);
#486 = LINE('',#487,#488);
#487 = CARTESIAN_POINT('',(0.,0.));
#488 = VECTOR('',#489,1.);
#489 = DIRECTION('',(0.,1.));
#490 = ( GEOMETRIC_REPRESENTATION_CONTEXT(2) 
PARAMETRIC_REPRESENTATION_CONTEXT() REPRESENTATION_CONTEXT('2D SPACE',''
  ) );
#491 = PCURVE('',#492,#497);
#492 = B_SPLINE_SURFACE_WITH_KNOTS('',1,1,(
    (#493,#494)
    ,(#495,#496
  )),.UNSPECIFIED.,.F.,.F.,.F.,(2,2),(2,2),(0.,50.),(0.,1.),
  .PIECEWISE_BEZIER_KNOTS.);
#493 = CARTESIAN_POINT('',(-25.,-43.30127018922,0.));
#494 = CARTESIAN_POINT('',(-12.5,-21.65063509461,60.));
#495 = CARTESIAN_POINT('',(25.,-43.30127018922,0.));
#496 = CARTESIAN_POINT('',(12.5,-21.65063509461,60.));
#497 = DEFINITIONAL_REPRESENTATION('',(#498),#502);
#498 = LINE('',#499,#500);
#499 = CARTESIAN_POINT('',(50.,0.));
#500 = VECTOR('',#501,1.);
#501 = DIRECTION('',(0.,1.));
#502 = ( GEOMETRIC_REPRESENTATION_CONTEXT(2) 
PARAMETRIC_REPRESENTATION_CONTEXT() REPRESENTATION_CONTEXT('2D SPACE',''
  ) );
#503 = ORIENTED_EDGE('',*,*,#504,.T.);
#504 = EDGE_CURVE('',#478,#91,#505,.T.);
#505 = SURFACE_CURVE('',#506,(#512,#518),.PCURVE_S1.);
#506 = B_SPLINE_CURVE_WITH_KNOTS('',2,(#507,#508,#509,#510,#511),
  .UNSPECIFIED.,.F.,.F.,(3,1,1,3),(-4.214700538379,-1.154700538379,
    51.154700538379,54.214700538379),.UNSPECIFIED.);
#507 = CARTESIAN_POINT('',(22.304753379558,-46.61188580815,
    1.881268324007));
#508 = CARTESIAN_POINT('',(23.069753379558,-45.28686694036,
    1.881268324007));
#509 = CARTESIAN_POINT('',(36.912103648748,-21.31121297796,
    1.881268324007));
#510 = CARTESIAN_POINT('',(50.754453917937,2.664440984441,1.881268324007
    ));
#511 = CARTESIAN_POINT('',(51.519453917937,3.989459852232,1.881268324007
    ));
#512 = PCURVE('',#105,#513);
#513 = DEFINITIONAL_REPRESENTATION('',(#514),#517);
#514 = B_SPLINE_CURVE_WITH_KNOTS('',1,(#515,#516),.UNSPECIFIED.,.F.,.F.,
  (2,2),(-1.154700538379,51.154700538379),.PIECEWISE_BEZIER_KNOTS.);
#515 = CARTESIAN_POINT('',(-1.571264524028,3.135447206679E-02));
#516 = CARTESIAN_POINT('',(51.571264524028,3.135447206679E-02));
#517 = ( GEOMETRIC_REPRESENTATION_CONTEXT(2) 
PARAMETRIC_REPRESENTATION_CONTEXT() REPRESENTATION_CONTEXT('2D SPACE',''
  ) );
#518 = PCURVE('',#272,#519);
#519 = DEFINITIONAL_REPRESENTATION('',(#520),#524);
#520 = LINE('',#521,#522);
#521 = CARTESIAN_POINT('',(0.,0.));
#522 = VECTOR('',#523,1.);
#523 = DIRECTION('',(0.,1.));
#524 = ( GEOMETRIC_REPRESENTATION_CONTEXT(2) 
PARAMETRIC_REPRESENTATION_CONTEXT() REPRESENTATION_CONTEXT('2D SPACE',''
  ) );
#525 = ADVANCED_FACE('',(#526),#170,.T.);
#526 = FACE_BOUND('',#527,.T.);
#527 = EDGE_LOOP('',(#528,#557,#590,#591));
#528 = ORIENTED_EDGE('',*,*,#529,.T.);
#529 = EDGE_CURVE('',#530,#532,#534,.T.);
#530 = VERTEX_POINT('',#531);
#531 = CARTESIAN_POINT('',(-49.21613819833,6.994033895798E-15,
    1.881268324007));
#532 = VERTEX_POINT('',#533);
#533 = CARTESIAN_POINT('',(-25.78386180167,3.664107140604E-15,
    58.118731675993));
#534 = SURFACE_CURVE('',#535,(#538,#545),.PCURVE_S1.);
#535 = B_SPLINE_CURVE_WITH_KNOTS('',1,(#536,#537),.UNSPECIFIED.,.F.,.F.,
  (2,2),(0.,1.),.PIECEWISE_BEZIER_KNOTS.);
#536 = CARTESIAN_POINT('',(-50.,7.105427357601E-15,0.));
#537 = CARTESIAN_POINT('',(-25.,3.552713678801E-15,60.));
#538 = PCURVE('',#170,#539);
#539 = DEFINITIONAL_REPRESENTATION('',(#540),#544);
#540 = LINE('',#541,#542);
#541 = CARTESIAN_POINT('',(50.,0.));
#542 = VECTOR('',#543,1.);
#543 = DIRECTION('',(0.,1.));
#544 = ( GEOMETRIC_REPRESENTATION_CONTEXT(2) 
PARAMETRIC_REPRESENTATION_CONTEXT() REPRESENTATION_CONTEXT('2D SPACE',''
  ) );
#545 = PCURVE('',#546,#551);
#546 = B_SPLINE_SURFACE_WITH_KNOTS('',1,1,(
    (#547,#548)
    ,(#549,#550
  )),.UNSPECIFIED.,.F.,.F.,.F.,(2,2),(2,2),(0.,50.),(0.,1.),
  .PIECEWISE_BEZIER_KNOTS.);
#547 = CARTESIAN_POINT('',(-50.,6.123233995737E-15,0.));
#548 = CARTESIAN_POINT('',(-25.,3.061616997868E-15,60.));
#549 = CARTESIAN_POINT('',(-25.,-43.30127018922,0.));
#550 = CARTESIAN_POINT('',(-12.5,-21.65063509461,60.));
#551 = DEFINITIONAL_REPRESENTATION('',(#552),#556);
#552 = LINE('',#553,#554);
#553 = CARTESIAN_POINT('',(0.,0.));
#554 = VECTOR('',#555,1.);
#555 = DIRECTION('',(0.,1.));
#556 = ( GEOMETRIC_REPRESENTATION_CONTEXT(2) 
PARAMETRIC_REPRESENTATION_CONTEXT() REPRESENTATION_CONTEXT('2D SPACE',''
  ) );
#557 = ORIENTED_EDGE('',*,*,#558,.F.);
#558 = EDGE_CURVE('',#156,#532,#559,.T.);
#559 = SURFACE_CURVE('',#560,(#566,#572),.PCURVE_S1.);
#560 = B_SPLINE_CURVE_WITH_KNOTS('',2,(#561,#562,#563,#564,#565),
  .UNSPECIFIED.,.F.,.F.,(3,1,1,3),(-2.684700538379,-1.154700538379,
    26.154700538379,27.684700538379),.UNSPECIFIED.);
#561 = CARTESIAN_POINT('',(-11.74554608206,24.315076079052,
    58.118731675993));
#562 = CARTESIAN_POINT('',(-12.12804608206,23.652566645157,
    58.118731675993));
#563 = CARTESIAN_POINT('',(-19.33789635125,11.164739663957,
    58.118731675993));
#564 = CARTESIAN_POINT('',(-26.54774662044,-1.323087317244,
    58.118731675993));
#565 = CARTESIAN_POINT('',(-26.93024662044,-1.985596751139,
    58.118731675993));
#566 = PCURVE('',#170,#567);
#567 = DEFINITIONAL_REPRESENTATION('',(#568),#571);
#568 = B_SPLINE_CURVE_WITH_KNOTS('',1,(#569,#570),.UNSPECIFIED.,.F.,.F.,
  (2,2),(-1.154700538379,26.154700538379),.PIECEWISE_BEZIER_KNOTS.);
#569 = CARTESIAN_POINT('',(-1.479160963962,0.968645527933));
#570 = CARTESIAN_POINT('',(51.479160963962,0.968645527933));
#571 = ( GEOMETRIC_REPRESENTATION_CONTEXT(2) 
PARAMETRIC_REPRESENTATION_CONTEXT() REPRESENTATION_CONTEXT('2D SPACE',''
  ) );
#572 = PCURVE('',#573,#584);
#573 = B_SPLINE_SURFACE_WITH_KNOTS('',1,2,(
    (#574,#575,#576,#577,#578)
    ,(#579,#580,#581,#582,#583
    )),.UNSPECIFIED.,.F.,.F.,.F.,(2,2),(3,1,1,3),(0.,27.309401076759),(
    -2.684700538379,-1.154700538379,26.154700538379,27.684700538379),
  .UNSPECIFIED.);
#574 = CARTESIAN_POINT('',(-11.74554608206,24.315076079052,
    58.118731675993));
#575 = CARTESIAN_POINT('',(-12.12804608206,23.652566645157,
    58.118731675993));
#576 = CARTESIAN_POINT('',(-19.33789635125,11.164739663957,
    58.118731675993));
#577 = CARTESIAN_POINT('',(-26.54774662044,-1.323087317244,
    58.118731675993));
#578 = CARTESIAN_POINT('',(-26.93024662044,-1.985596751139,
    58.118731675993));
#579 = CARTESIAN_POINT('',(-9.425598923241,22.975653962401,60.));
#580 = CARTESIAN_POINT('',(-9.808098923241,22.313144528506,60.));
#581 = CARTESIAN_POINT('',(-17.01794919243,9.825317547305,60.));
#582 = CARTESIAN_POINT('',(-24.22779946162,-2.662509433895,60.));
#583 = CARTESIAN_POINT('',(-24.61029946162,-3.32501886779,60.));
#584 = DEFINITIONAL_REPRESENTATION('',(#585),#589);
#585 = LINE('',#586,#587);
#586 = CARTESIAN_POINT('',(0.,0.));
#587 = VECTOR('',#588,1.);
#588 = DIRECTION('',(0.,1.));
#589 = ( GEOMETRIC_REPRESENTATION_CONTEXT(2) 
PARAMETRIC_REPRESENTATION_CONTEXT() REPRESENTATION_CONTEXT('2D SPACE',''
  ) );
#590 = ORIENTED_EDGE('',*,*,#153,.F.);
#591 = ORIENTED_EDGE('',*,*,#592,.T.);
#592 = EDGE_CURVE('',#154,#530,#593,.T.);
#593 = SURFACE_CURVE('',#594,(#600,#606),.PCURVE_S1.);
#594 = B_SPLINE_CURVE_WITH_KNOTS('',2,(#595,#596,#597,#598,#599),
  .UNSPECIFIED.,.F.,.F.,(3,1,1,3),(-4.214700538379,-1.154700538379,
    51.154700538379,54.214700538379),.UNSPECIFIED.);
#595 = CARTESIAN_POINT('',(-22.30475337955,46.611885808151,
    1.881268324007));
#596 = CARTESIAN_POINT('',(-23.06975337955,45.286866940361,
    1.881268324007));
#597 = CARTESIAN_POINT('',(-36.91210364874,21.31121297796,1.881268324007
    ));
#598 = CARTESIAN_POINT('',(-50.75445391793,-2.664440984441,
    1.881268324007));
#599 = CARTESIAN_POINT('',(-51.51945391793,-3.989459852231,
    1.881268324007));
#600 = PCURVE('',#170,#601);
#601 = DEFINITIONAL_REPRESENTATION('',(#602),#605);
#602 = B_SPLINE_CURVE_WITH_KNOTS('',1,(#603,#604),.UNSPECIFIED.,.F.,.F.,
  (2,2),(-1.154700538379,51.154700538379),.PIECEWISE_BEZIER_KNOTS.);
#603 = CARTESIAN_POINT('',(-1.571264524028,3.135447206678E-02));
#604 = CARTESIAN_POINT('',(51.571264524028,3.135447206678E-02));
#605 = ( GEOMETRIC_REPRESENTATION_CONTEXT(2) 
PARAMETRIC_REPRESENTATION_CONTEXT() REPRESENTATION_CONTEXT('2D SPACE',''
  ) );
#606 = PCURVE('',#607,#618);
#607 = B_SPLINE_SURFACE_WITH_KNOTS('',1,2,(
    (#608,#609,#610,#611,#612)
    ,(#613,#614,#615,#616,#617
    )),.UNSPECIFIED.,.F.,.F.,.F.,(2,2),(3,1,1,3),(0.,52.309401076759),(
    -4.214700538379,-1.154700538379,51.154700538379,54.214700538379),
  .UNSPECIFIED.);
#608 = CARTESIAN_POINT('',(-22.30475337955,46.611885808151,
    1.881268324007));
#609 = CARTESIAN_POINT('',(-23.06975337955,45.286866940361,
    1.881268324007));
#610 = CARTESIAN_POINT('',(-36.91210364874,21.31121297796,1.881268324007
    ));
#611 = CARTESIAN_POINT('',(-50.75445391793,-2.664440984441,
    1.881268324007));
#612 = CARTESIAN_POINT('',(-51.51945391793,-3.989459852231,
    1.881268324007));
#613 = CARTESIAN_POINT('',(-21.16059892324,45.951307924802,0.));
#614 = CARTESIAN_POINT('',(-21.92559892324,44.626289057012,0.));
#615 = CARTESIAN_POINT('',(-35.76794919243,20.650635094611,0.));
#616 = CARTESIAN_POINT('',(-49.61029946162,-3.32501886779,0.));
#617 = CARTESIAN_POINT('',(-50.37529946162,-4.65003773558,0.));
#618 = DEFINITIONAL_REPRESENTATION('',(#619),#623);
#619 = LINE('',#620,#621);
#620 = CARTESIAN_POINT('',(0.,0.));
#621 = VECTOR('',#622,1.);
#622 = DIRECTION('',(0.,1.));
#623 = ( GEOMETRIC_REPRESENTATION_CONTEXT(2) 
PARAMETRIC_REPRESENTATION_CONTEXT() REPRESENTATION_CONTEXT('2D SPACE',''
  ) );
#624 = ADVANCED_FACE('',(#625),#231,.T.);
#625 = FACE_BOUND('',#626,.T.);
#626 = EDGE_LOOP('',(#627,#628,#652,#679));
#627 = ORIENTED_EDGE('',*,*,#321,.T.);
#628 = ORIENTED_EDGE('',*,*,#629,.T.);
#629 = EDGE_CURVE('',#293,#630,#632,.T.);
#630 = VERTEX_POINT('',#631);
#631 = CARTESIAN_POINT('',(-23.84529946162,41.301270189222,0.));
#632 = SURFACE_CURVE('',#633,(#639,#646),.PCURVE_S1.);
#633 = B_SPLINE_CURVE_WITH_KNOTS('',2,(#634,#635,#636,#637,#638),
  .UNSPECIFIED.,.F.,.F.,(3,1,1,3),(-4.214700538379,-1.154700538379,
    51.154700538379,54.214700538379),.UNSPECIFIED.);
#634 = CARTESIAN_POINT('',(29.214700538379,41.301270189222,0.));
#635 = CARTESIAN_POINT('',(27.684700538379,41.301270189222,0.));
#636 = CARTESIAN_POINT('',(3.552713678801E-15,41.301270189222,0.));
#637 = CARTESIAN_POINT('',(-27.68470053837,41.301270189222,0.));
#638 = CARTESIAN_POINT('',(-29.21470053837,41.301270189222,0.));
#639 = PCURVE('',#231,#640);
#640 = DEFINITIONAL_REPRESENTATION('',(#641),#645);
#641 = LINE('',#642,#643);
#642 = CARTESIAN_POINT('',(52.309401076758,0.));
#643 = VECTOR('',#644,1.);
#644 = DIRECTION('',(0.,1.));
#645 = ( GEOMETRIC_REPRESENTATION_CONTEXT(2) 
PARAMETRIC_REPRESENTATION_CONTEXT() REPRESENTATION_CONTEXT('2D SPACE',''
  ) );
#646 = PCURVE('',#310,#647);
#647 = DEFINITIONAL_REPRESENTATION('',(#648),#651);
#648 = B_SPLINE_CURVE_WITH_KNOTS('',1,(#649,#650),.UNSPECIFIED.,.F.,.F.,
  (2,2),(-1.154700538379,51.154700538379),.PIECEWISE_BEZIER_KNOTS.);
#649 = CARTESIAN_POINT('',(23.845299461621,41.301270189222));
#650 = CARTESIAN_POINT('',(76.154700538379,41.301270189222));
#651 = ( GEOMETRIC_REPRESENTATION_CONTEXT(2) 
PARAMETRIC_REPRESENTATION_CONTEXT() REPRESENTATION_CONTEXT('2D SPACE',''
  ) );
#652 = ORIENTED_EDGE('',*,*,#653,.F.);
#653 = EDGE_CURVE('',#154,#630,#654,.T.);
#654 = SURFACE_CURVE('',#655,(#661,#670),.PCURVE_S1.);
#655 = B_SPLINE_CURVE_WITH_KNOTS('',4,(#656,#657,#658,#659,#660),
  .UNSPECIFIED.,.F.,.F.,(5,5),(0.,1.),.PIECEWISE_BEZIER_KNOTS.);
#656 = CARTESIAN_POINT('',(-24.60806909916,42.62242595592,1.881268324007
    ));
#657 = CARTESIAN_POINT('',(-24.41737668978,42.292137014252,
    1.410951243015));
#658 = CARTESIAN_POINT('',(-24.22668428039,41.961848072573,
    0.940634162006));
#659 = CARTESIAN_POINT('',(-24.035991871,41.63155913089,0.470317080992)
  );
#660 = CARTESIAN_POINT('',(-23.84529946162,41.301270189222,
    5.551115123126E-17));
#661 = PCURVE('',#231,#662);
#662 = DEFINITIONAL_REPRESENTATION('',(#663),#669);
#663 = B_SPLINE_CURVE_WITH_KNOTS('',4,(#664,#665,#666,#667,#668),
  .UNSPECIFIED.,.F.,.F.,(5,5),(0.,1.),.PIECEWISE_BEZIER_KNOTS.);
#664 = CARTESIAN_POINT('',(0.,49.608069099165));
#665 = CARTESIAN_POINT('',(13.077350268928,49.417376689783));
#666 = CARTESIAN_POINT('',(26.154700538314,49.226684280394));
#667 = CARTESIAN_POINT('',(39.23205080783,49.035991871003));
#668 = CARTESIAN_POINT('',(52.309401076758,48.845299461621));
#669 = ( GEOMETRIC_REPRESENTATION_CONTEXT(2) 
PARAMETRIC_REPRESENTATION_CONTEXT() REPRESENTATION_CONTEXT('2D SPACE',''
  ) );
#670 = PCURVE('',#607,#671);
#671 = DEFINITIONAL_REPRESENTATION('',(#672),#678);
#672 = B_SPLINE_CURVE_WITH_KNOTS('',4,(#673,#674,#675,#676,#677),
  .UNSPECIFIED.,.F.,.F.,(5,5),(0.,1.),.PIECEWISE_BEZIER_KNOTS.);
#673 = CARTESIAN_POINT('',(1.01066621262E-09,0.39193090085));
#674 = CARTESIAN_POINT('',(13.077350269939,0.582623310232));
#675 = CARTESIAN_POINT('',(26.15470053841,0.773315719607));
#676 = CARTESIAN_POINT('',(39.232050806748,0.964008128981));
#677 = CARTESIAN_POINT('',(52.309401075677,1.154700538363));
#678 = ( GEOMETRIC_REPRESENTATION_CONTEXT(2) 
PARAMETRIC_REPRESENTATION_CONTEXT() REPRESENTATION_CONTEXT('2D SPACE',''
  ) );
#679 = ORIENTED_EDGE('',*,*,#216,.F.);
#680 = ADVANCED_FACE('',(#681),#197,.F.);
#681 = FACE_BOUND('',#682,.F.);
#682 = EDGE_LOOP('',(#683,#684,#708,#735));
#683 = ORIENTED_EDGE('',*,*,#421,.T.);
#684 = ORIENTED_EDGE('',*,*,#685,.T.);
#685 = EDGE_CURVE('',#393,#686,#688,.T.);
#686 = VERTEX_POINT('',#687);
#687 = CARTESIAN_POINT('',(-11.34529946162,19.650635094611,60.));
#688 = SURFACE_CURVE('',#689,(#695,#702),.PCURVE_S1.);
#689 = B_SPLINE_CURVE_WITH_KNOTS('',2,(#690,#691,#692,#693,#694),
  .UNSPECIFIED.,.F.,.F.,(3,1,1,3),(-2.684700538379,-1.154700538379,
    26.154700538379,27.684700538379),.UNSPECIFIED.);
#690 = CARTESIAN_POINT('',(15.184700538379,19.650635094611,60.));
#691 = CARTESIAN_POINT('',(14.419700538379,19.650635094611,60.));
#692 = CARTESIAN_POINT('',(3.552713678801E-15,19.650635094611,60.));
#693 = CARTESIAN_POINT('',(-14.41970053837,19.650635094611,60.));
#694 = CARTESIAN_POINT('',(-15.18470053837,19.650635094611,60.));
#695 = PCURVE('',#197,#696);
#696 = DEFINITIONAL_REPRESENTATION('',(#697),#701);
#697 = LINE('',#698,#699);
#698 = CARTESIAN_POINT('',(27.309401076758,0.));
#699 = VECTOR('',#700,1.);
#700 = DIRECTION('',(0.,1.));
#701 = ( GEOMETRIC_REPRESENTATION_CONTEXT(2) 
PARAMETRIC_REPRESENTATION_CONTEXT() REPRESENTATION_CONTEXT('2D SPACE',''
  ) );
#702 = PCURVE('',#410,#703);
#703 = DEFINITIONAL_REPRESENTATION('',(#704),#707);
#704 = B_SPLINE_CURVE_WITH_KNOTS('',1,(#705,#706),.UNSPECIFIED.,.F.,.F.,
  (2,2),(-1.154700538379,26.154700538379),.PIECEWISE_BEZIER_KNOTS.);
#705 = CARTESIAN_POINT('',(11.345299461621,19.650635094611));
#706 = CARTESIAN_POINT('',(38.654700538379,19.650635094611));
#707 = ( GEOMETRIC_REPRESENTATION_CONTEXT(2) 
PARAMETRIC_REPRESENTATION_CONTEXT() REPRESENTATION_CONTEXT('2D SPACE',''
  ) );
#708 = ORIENTED_EDGE('',*,*,#709,.F.);
#709 = EDGE_CURVE('',#156,#686,#710,.T.);
#710 = SURFACE_CURVE('',#711,(#717,#726),.PCURVE_S1.);
#711 = B_SPLINE_CURVE_WITH_KNOTS('',4,(#712,#713,#714,#715,#716),
  .UNSPECIFIED.,.F.,.F.,(5,5),(0.,1.),.PIECEWISE_BEZIER_KNOTS.);
#712 = CARTESIAN_POINT('',(-12.89193090083,22.329479327913,
    58.118731675993));
#713 = CARTESIAN_POINT('',(-12.50527304103,21.659768269599,
    58.589048756986));
#714 = CARTESIAN_POINT('',(-12.11861518126,20.99005721133,
    59.059365837949));
#715 = CARTESIAN_POINT('',(-11.73195732141,20.320346152925,
    59.529682919007));
#716 = CARTESIAN_POINT('',(-11.34529946162,19.650635094611,60.));
#717 = PCURVE('',#197,#718);
#718 = DEFINITIONAL_REPRESENTATION('',(#719),#725);
#719 = B_SPLINE_CURVE_WITH_KNOTS('',4,(#720,#721,#722,#723,#724),
  .UNSPECIFIED.,.F.,.F.,(5,5),(0.,1.),.PIECEWISE_BEZIER_KNOTS.);
#720 = CARTESIAN_POINT('',(0.,25.391930900835));
#721 = CARTESIAN_POINT('',(6.827350269068,25.005273041038));
#722 = CARTESIAN_POINT('',(13.654700537686,24.618615181267));
#723 = CARTESIAN_POINT('',(20.48205080769,24.231957321417));
#724 = CARTESIAN_POINT('',(27.309401076758,23.845299461621));
#725 = ( GEOMETRIC_REPRESENTATION_CONTEXT(2) 
PARAMETRIC_REPRESENTATION_CONTEXT() REPRESENTATION_CONTEXT('2D SPACE',''
  ) );
#726 = PCURVE('',#573,#727);
#727 = DEFINITIONAL_REPRESENTATION('',(#728),#734);
#728 = B_SPLINE_CURVE_WITH_KNOTS('',4,(#729,#730,#731,#732,#733),
  .UNSPECIFIED.,.F.,.F.,(5,5),(0.,1.),.PIECEWISE_BEZIER_KNOTS.);
#729 = CARTESIAN_POINT('',(8.868066804149E-11,-0.39193090083));
#730 = CARTESIAN_POINT('',(6.827350269157,-5.273041033158E-03));
#731 = CARTESIAN_POINT('',(13.654700538683,0.381384818789));
#732 = CARTESIAN_POINT('',(20.482050806799,0.768042678532));
#733 = CARTESIAN_POINT('',(27.309401075867,1.154700538329));
#734 = ( GEOMETRIC_REPRESENTATION_CONTEXT(2) 
PARAMETRIC_REPRESENTATION_CONTEXT() REPRESENTATION_CONTEXT('2D SPACE',''
  ) );
#735 = ORIENTED_EDGE('',*,*,#182,.F.);
#736 = ADVANCED_FACE('',(#737),#272,.T.);
#737 = FACE_BOUND('',#738,.T.);
#738 = EDGE_LOOP('',(#739,#779,#801,#802));
#739 = ORIENTED_EDGE('',*,*,#740,.T.);
#740 = EDGE_CURVE('',#478,#741,#743,.T.);
#741 = VERTEX_POINT('',#742);
#742 = CARTESIAN_POINT('',(23.845299461621,-41.30127018922,
    -1.110223024625E-16));
#743 = SURFACE_CURVE('',#744,(#750,#759),.PCURVE_S1.);
#744 = B_SPLINE_CURVE_WITH_KNOTS('',4,(#745,#746,#747,#748,#749),
  .UNSPECIFIED.,.F.,.F.,(5,5),(0.,1.),.PIECEWISE_BEZIER_KNOTS.);
#745 = CARTESIAN_POINT('',(24.608069099165,-42.62242595592,
    1.881268324007));
#746 = CARTESIAN_POINT('',(24.417376689783,-42.29213701425,
    1.410951243015));
#747 = CARTESIAN_POINT('',(24.226684280394,-41.96184807257,
    0.940634162006));
#748 = CARTESIAN_POINT('',(24.035991871003,-41.63155913089,
    0.470317080992));
#749 = CARTESIAN_POINT('',(23.845299461621,-41.30127018922,
    -5.551115123126E-17));
#750 = PCURVE('',#272,#751);
#751 = DEFINITIONAL_REPRESENTATION('',(#752),#758);
#752 = B_SPLINE_CURVE_WITH_KNOTS('',4,(#753,#754,#755,#756,#757),
  .UNSPECIFIED.,.F.,.F.,(5,5),(0.,1.),.PIECEWISE_BEZIER_KNOTS.);
#753 = CARTESIAN_POINT('',(1.009474624402E-09,0.39193090085));
#754 = CARTESIAN_POINT('',(13.077350269937,0.582623310232));
#755 = CARTESIAN_POINT('',(26.154700538409,0.773315719608));
#756 = CARTESIAN_POINT('',(39.232050806748,0.964008128981));
#757 = CARTESIAN_POINT('',(52.309401075677,1.154700538364));
#758 = ( GEOMETRIC_REPRESENTATION_CONTEXT(2) 
PARAMETRIC_REPRESENTATION_CONTEXT() REPRESENTATION_CONTEXT('2D SPACE',''
  ) );
#759 = PCURVE('',#760,#771);
#760 = B_SPLINE_SURFACE_WITH_KNOTS('',1,2,(
    (#761,#762,#763,#764,#765)
    ,(#766,#767,#768,#769,#770
    )),.UNSPECIFIED.,.F.,.F.,.F.,(2,2),(3,1,1,3),(0.,52.309401076759),(
    -4.214700538379,-1.154700538379,51.154700538379,54.214700538379),
  .UNSPECIFIED.);
#761 = CARTESIAN_POINT('',(-29.21470053837,-42.62242595592,
    1.881268324007));
#762 = CARTESIAN_POINT('',(-27.68470053837,-42.62242595592,
    1.881268324007));
#763 = CARTESIAN_POINT('',(-1.06581410364E-14,-42.62242595592,
    1.881268324007));
#764 = CARTESIAN_POINT('',(27.684700538379,-42.62242595592,
    1.881268324007));
#765 = CARTESIAN_POINT('',(29.214700538379,-42.62242595592,
    1.881268324007));
#766 = CARTESIAN_POINT('',(-29.21470053837,-41.30127018922,0.));
#767 = CARTESIAN_POINT('',(-27.68470053837,-41.30127018922,0.));
#768 = CARTESIAN_POINT('',(-1.42108547152E-14,-41.30127018922,0.));
#769 = CARTESIAN_POINT('',(27.684700538379,-41.30127018922,0.));
#770 = CARTESIAN_POINT('',(29.214700538379,-41.30127018922,0.));
#771 = DEFINITIONAL_REPRESENTATION('',(#772),#778);
#772 = B_SPLINE_CURVE_WITH_KNOTS('',4,(#773,#774,#775,#776,#777),
  .UNSPECIFIED.,.F.,.F.,(5,5),(0.,1.),.PIECEWISE_BEZIER_KNOTS.);
#773 = CARTESIAN_POINT('',(0.,49.608069099165));
#774 = CARTESIAN_POINT('',(13.077350268928,49.417376689783));
#775 = CARTESIAN_POINT('',(26.154700538316,49.226684280394));
#776 = CARTESIAN_POINT('',(39.23205080783,49.035991871003));
#777 = CARTESIAN_POINT('',(52.309401076759,48.845299461621));
#778 = ( GEOMETRIC_REPRESENTATION_CONTEXT(2) 
PARAMETRIC_REPRESENTATION_CONTEXT() REPRESENTATION_CONTEXT('2D SPACE',''
  ) );
#779 = ORIENTED_EDGE('',*,*,#780,.T.);
#780 = EDGE_CURVE('',#741,#253,#781,.T.);
#781 = SURFACE_CURVE('',#782,(#788,#795),.PCURVE_S1.);
#782 = B_SPLINE_CURVE_WITH_KNOTS('',2,(#783,#784,#785,#786,#787),
  .UNSPECIFIED.,.F.,.F.,(3,1,1,3),(-4.214700538379,-1.154700538379,
    51.154700538379,54.214700538379),.UNSPECIFIED.);
#783 = CARTESIAN_POINT('',(21.160598923241,-45.9513079248,0.));
#784 = CARTESIAN_POINT('',(21.925598923241,-44.62628905701,0.));
#785 = CARTESIAN_POINT('',(35.767949192431,-20.65063509461,0.));
#786 = CARTESIAN_POINT('',(49.610299461621,3.32501886779,0.));
#787 = CARTESIAN_POINT('',(50.375299461621,4.65003773558,0.));
#788 = PCURVE('',#272,#789);
#789 = DEFINITIONAL_REPRESENTATION('',(#790),#794);
#790 = LINE('',#791,#792);
#791 = CARTESIAN_POINT('',(52.309401076759,0.));
#792 = VECTOR('',#793,1.);
#793 = DIRECTION('',(0.,1.));
#794 = ( GEOMETRIC_REPRESENTATION_CONTEXT(2) 
PARAMETRIC_REPRESENTATION_CONTEXT() REPRESENTATION_CONTEXT('2D SPACE',''
  ) );
#795 = PCURVE('',#310,#796);
#796 = DEFINITIONAL_REPRESENTATION('',(#797),#800);
#797 = B_SPLINE_CURVE_WITH_KNOTS('',1,(#798,#799),.UNSPECIFIED.,.F.,.F.,
  (2,2),(-1.154700538379,51.154700538379),.PIECEWISE_BEZIER_KNOTS.);
#798 = CARTESIAN_POINT('',(27.309401076759,-43.30127018922));
#799 = CARTESIAN_POINT('',(1.154700538379,2.));
#800 = ( GEOMETRIC_REPRESENTATION_CONTEXT(2) 
PARAMETRIC_REPRESENTATION_CONTEXT() REPRESENTATION_CONTEXT('2D SPACE',''
  ) );
#801 = ORIENTED_EDGE('',*,*,#252,.F.);
#802 = ORIENTED_EDGE('',*,*,#504,.F.);
#803 = ADVANCED_FACE('',(#804),#310,.T.);
#804 = FACE_BOUND('',#805,.T.);
#805 = EDGE_LOOP('',(#806,#807,#808,#832,#867,#889));
#806 = ORIENTED_EDGE('',*,*,#292,.F.);
#807 = ORIENTED_EDGE('',*,*,#780,.F.);
#808 = ORIENTED_EDGE('',*,*,#809,.F.);
#809 = EDGE_CURVE('',#810,#741,#812,.T.);
#810 = VERTEX_POINT('',#811);
#811 = CARTESIAN_POINT('',(-23.84529946162,-41.30127018922,0.));
#812 = SURFACE_CURVE('',#813,(#819,#825),.PCURVE_S1.);
#813 = B_SPLINE_CURVE_WITH_KNOTS('',2,(#814,#815,#816,#817,#818),
  .UNSPECIFIED.,.F.,.F.,(3,1,1,3),(-4.214700538379,-1.154700538379,
    51.154700538379,54.214700538379),.UNSPECIFIED.);
#814 = CARTESIAN_POINT('',(-29.21470053837,-41.30127018922,0.));
#815 = CARTESIAN_POINT('',(-27.68470053837,-41.30127018922,0.));
#816 = CARTESIAN_POINT('',(-1.42108547152E-14,-41.30127018922,0.));
#817 = CARTESIAN_POINT('',(27.684700538379,-41.30127018922,0.));
#818 = CARTESIAN_POINT('',(29.214700538379,-41.30127018922,0.));
#819 = PCURVE('',#310,#820);
#820 = DEFINITIONAL_REPRESENTATION('',(#821),#824);
#821 = B_SPLINE_CURVE_WITH_KNOTS('',1,(#822,#823),.UNSPECIFIED.,.F.,.F.,
  (2,2),(-1.154700538379,51.154700538379),.PIECEWISE_BEZIER_KNOTS.);
#822 = CARTESIAN_POINT('',(76.154700538379,-41.30127018922));
#823 = CARTESIAN_POINT('',(23.845299461621,-41.30127018922));
#824 = ( GEOMETRIC_REPRESENTATION_CONTEXT(2) 
PARAMETRIC_REPRESENTATION_CONTEXT() REPRESENTATION_CONTEXT('2D SPACE',''
  ) );
#825 = PCURVE('',#760,#826);
#826 = DEFINITIONAL_REPRESENTATION('',(#827),#831);
#827 = LINE('',#828,#829);
#828 = CARTESIAN_POINT('',(52.309401076759,0.));
#829 = VECTOR('',#830,1.);
#830 = DIRECTION('',(0.,1.));
#831 = ( GEOMETRIC_REPRESENTATION_CONTEXT(2) 
PARAMETRIC_REPRESENTATION_CONTEXT() REPRESENTATION_CONTEXT('2D SPACE',''
  ) );
#832 = ORIENTED_EDGE('',*,*,#833,.F.);
#833 = EDGE_CURVE('',#834,#810,#836,.T.);
#834 = VERTEX_POINT('',#835);
#835 = CARTESIAN_POINT('',(-47.69059892324,-1.959543638463E-14,0.));
#836 = SURFACE_CURVE('',#837,(#843,#849),.PCURVE_S1.);
#837 = B_SPLINE_CURVE_WITH_KNOTS('',2,(#838,#839,#840,#841,#842),
  .UNSPECIFIED.,.F.,.F.,(3,1,1,3),(-4.214700538379,-1.154700538379,
    51.154700538379,54.214700538379),.UNSPECIFIED.);
#838 = CARTESIAN_POINT('',(-50.37529946162,4.65003773558,0.));
#839 = CARTESIAN_POINT('',(-49.61029946162,3.32501886779,0.));
#840 = CARTESIAN_POINT('',(-35.76794919243,-20.65063509461,0.));
#841 = CARTESIAN_POINT('',(-21.92559892324,-44.62628905701,0.));
#842 = CARTESIAN_POINT('',(-21.16059892324,-45.9513079248,0.));
#843 = PCURVE('',#310,#844);
#844 = DEFINITIONAL_REPRESENTATION('',(#845),#848);
#845 = B_SPLINE_CURVE_WITH_KNOTS('',1,(#846,#847),.UNSPECIFIED.,.F.,.F.,
  (2,2),(-1.154700538379,51.154700538379),.PIECEWISE_BEZIER_KNOTS.);
#846 = CARTESIAN_POINT('',(98.845299461621,2.));
#847 = CARTESIAN_POINT('',(72.690598923242,-43.30127018922));
#848 = ( GEOMETRIC_REPRESENTATION_CONTEXT(2) 
PARAMETRIC_REPRESENTATION_CONTEXT() REPRESENTATION_CONTEXT('2D SPACE',''
  ) );
#849 = PCURVE('',#850,#861);
#850 = B_SPLINE_SURFACE_WITH_KNOTS('',1,2,(
    (#851,#852,#853,#854,#855)
    ,(#856,#857,#858,#859,#860
    )),.UNSPECIFIED.,.F.,.F.,.F.,(2,2),(3,1,1,3),(0.,52.309401076758),(
    -4.214700538379,-1.154700538379,51.154700538379,54.214700538379),
  .UNSPECIFIED.);
#851 = CARTESIAN_POINT('',(-51.51945391793,3.989459852231,1.881268324007
    ));
#852 = CARTESIAN_POINT('',(-50.75445391793,2.664440984441,1.881268324007
    ));
#853 = CARTESIAN_POINT('',(-36.91210364874,-21.31121297796,
    1.881268324007));
#854 = CARTESIAN_POINT('',(-23.06975337955,-45.28686694036,
    1.881268324007));
#855 = CARTESIAN_POINT('',(-22.30475337955,-46.61188580815,
    1.881268324007));
#856 = CARTESIAN_POINT('',(-50.37529946162,4.65003773558,0.));
#857 = CARTESIAN_POINT('',(-49.61029946162,3.32501886779,0.));
#858 = CARTESIAN_POINT('',(-35.76794919243,-20.65063509461,0.));
#859 = CARTESIAN_POINT('',(-21.92559892324,-44.62628905701,0.));
#860 = CARTESIAN_POINT('',(-21.16059892324,-45.9513079248,0.));
#861 = DEFINITIONAL_REPRESENTATION('',(#862),#866);
#862 = LINE('',#863,#864);
#863 = CARTESIAN_POINT('',(52.309401076758,0.));
#864 = VECTOR('',#865,1.);
#865 = DIRECTION('',(0.,1.));
#866 = ( GEOMETRIC_REPRESENTATION_CONTEXT(2) 
PARAMETRIC_REPRESENTATION_CONTEXT() REPRESENTATION_CONTEXT('2D SPACE',''
  ) );
#867 = ORIENTED_EDGE('',*,*,#868,.F.);
#868 = EDGE_CURVE('',#630,#834,#869,.T.);
#869 = SURFACE_CURVE('',#870,(#876,#882),.PCURVE_S1.);
#870 = B_SPLINE_CURVE_WITH_KNOTS('',2,(#871,#872,#873,#874,#875),
  .UNSPECIFIED.,.F.,.F.,(3,1,1,3),(-4.214700538379,-1.154700538379,
    51.154700538379,54.214700538379),.UNSPECIFIED.);
#871 = CARTESIAN_POINT('',(-21.16059892324,45.951307924802,0.));
#872 = CARTESIAN_POINT('',(-21.92559892324,44.626289057012,0.));
#873 = CARTESIAN_POINT('',(-35.76794919243,20.650635094611,0.));
#874 = CARTESIAN_POINT('',(-49.61029946162,-3.32501886779,0.));
#875 = CARTESIAN_POINT('',(-50.37529946162,-4.65003773558,0.));
#876 = PCURVE('',#310,#877);
#877 = DEFINITIONAL_REPRESENTATION('',(#878),#881);
#878 = B_SPLINE_CURVE_WITH_KNOTS('',1,(#879,#880),.UNSPECIFIED.,.F.,.F.,
  (2,2),(-1.154700538379,51.154700538379),.PIECEWISE_BEZIER_KNOTS.);
#879 = CARTESIAN_POINT('',(72.690598923242,43.301270189222));
#880 = CARTESIAN_POINT('',(98.845299461621,-2.));
#881 = ( GEOMETRIC_REPRESENTATION_CONTEXT(2) 
PARAMETRIC_REPRESENTATION_CONTEXT() REPRESENTATION_CONTEXT('2D SPACE',''
  ) );
#882 = PCURVE('',#607,#883);
#883 = DEFINITIONAL_REPRESENTATION('',(#884),#888);
#884 = LINE('',#885,#886);
#885 = CARTESIAN_POINT('',(52.309401076759,0.));
#886 = VECTOR('',#887,1.);
#887 = DIRECTION('',(0.,1.));
#888 = ( GEOMETRIC_REPRESENTATION_CONTEXT(2) 
PARAMETRIC_REPRESENTATION_CONTEXT() REPRESENTATION_CONTEXT('2D SPACE',''
  ) );
#889 = ORIENTED_EDGE('',*,*,#629,.F.);
#890 = ADVANCED_FACE('',(#891),#372,.F.);
#891 = FACE_BOUND('',#892,.F.);
#892 = EDGE_LOOP('',(#893,#933,#955,#956));
#893 = ORIENTED_EDGE('',*,*,#894,.T.);
#894 = EDGE_CURVE('',#454,#895,#897,.T.);
#895 = VERTEX_POINT('',#896);
#896 = CARTESIAN_POINT('',(11.345299461621,-19.65063509461,60.));
#897 = SURFACE_CURVE('',#898,(#904,#913),.PCURVE_S1.);
#898 = B_SPLINE_CURVE_WITH_KNOTS('',4,(#899,#900,#901,#902,#903),
  .UNSPECIFIED.,.F.,.F.,(5,5),(0.,1.),.PIECEWISE_BEZIER_KNOTS.);
#899 = CARTESIAN_POINT('',(12.891930900835,-22.32947932791,
    58.118731675993));
#900 = CARTESIAN_POINT('',(12.505273041039,-21.6597682696,
    58.589048756985));
#901 = CARTESIAN_POINT('',(12.118615181224,-20.99005721125,
    59.059365838001));
#902 = CARTESIAN_POINT('',(11.731957321417,-20.32034615292,
    59.529682919008));
#903 = CARTESIAN_POINT('',(11.345299461621,-19.65063509461,60.));
#904 = PCURVE('',#372,#905);
#905 = DEFINITIONAL_REPRESENTATION('',(#906),#912);
#906 = B_SPLINE_CURVE_WITH_KNOTS('',4,(#907,#908,#909,#910,#911),
  .UNSPECIFIED.,.F.,.F.,(5,5),(0.,1.),.PIECEWISE_BEZIER_KNOTS.);
#907 = CARTESIAN_POINT('',(5.8056052351E-10,-0.391930900802));
#908 = CARTESIAN_POINT('',(6.827350269635,-5.273041006017E-03));
#909 = CARTESIAN_POINT('',(13.654700538353,0.381384818771));
#910 = CARTESIAN_POINT('',(20.482050807192,0.768042678555));
#911 = CARTESIAN_POINT('',(27.309401076246,1.15470053835));
#912 = ( GEOMETRIC_REPRESENTATION_CONTEXT(2) 
PARAMETRIC_REPRESENTATION_CONTEXT() REPRESENTATION_CONTEXT('2D SPACE',''
  ) );
#913 = PCURVE('',#914,#925);
#914 = B_SPLINE_SURFACE_WITH_KNOTS('',1,2,(
    (#915,#916,#917,#918,#919)
    ,(#920,#921,#922,#923,#924
    )),.UNSPECIFIED.,.F.,.F.,.F.,(2,2),(3,1,1,3),(0.,27.309401076759),(
    -2.684700538379,-1.154700538379,26.154700538379,27.684700538379),
  .UNSPECIFIED.);
#915 = CARTESIAN_POINT('',(-15.18470053837,-22.32947932791,
    58.118731675993));
#916 = CARTESIAN_POINT('',(-14.41970053837,-22.32947932791,
    58.118731675993));
#917 = CARTESIAN_POINT('',(-8.881784197001E-15,-22.32947932791,
    58.118731675993));
#918 = CARTESIAN_POINT('',(14.419700538379,-22.32947932791,
    58.118731675993));
#919 = CARTESIAN_POINT('',(15.184700538379,-22.32947932791,
    58.118731675993));
#920 = CARTESIAN_POINT('',(-15.18470053837,-19.65063509461,60.));
#921 = CARTESIAN_POINT('',(-14.41970053837,-19.65063509461,60.));
#922 = CARTESIAN_POINT('',(-8.881784197001E-15,-19.65063509461,60.));
#923 = CARTESIAN_POINT('',(14.419700538379,-19.65063509461,60.));
#924 = CARTESIAN_POINT('',(15.184700538379,-19.65063509461,60.));
#925 = DEFINITIONAL_REPRESENTATION('',(#926),#932);
#926 = B_SPLINE_CURVE_WITH_KNOTS('',4,(#927,#928,#929,#930,#931),
  .UNSPECIFIED.,.F.,.F.,(5,5),(0.,1.),.PIECEWISE_BEZIER_KNOTS.);
#927 = CARTESIAN_POINT('',(0.,25.391930900835));
#928 = CARTESIAN_POINT('',(6.827350269054,25.005273041039));
#929 = CARTESIAN_POINT('',(13.654700538439,24.618615181224));
#930 = CARTESIAN_POINT('',(20.482050807704,24.231957321417));
#931 = CARTESIAN_POINT('',(27.309401076759,23.845299461621));
#932 = ( GEOMETRIC_REPRESENTATION_CONTEXT(2) 
PARAMETRIC_REPRESENTATION_CONTEXT() REPRESENTATION_CONTEXT('2D SPACE',''
  ) );
#933 = ORIENTED_EDGE('',*,*,#934,.T.);
#934 = EDGE_CURVE('',#895,#353,#935,.T.);
#935 = SURFACE_CURVE('',#936,(#942,#949),.PCURVE_S1.);
#936 = B_SPLINE_CURVE_WITH_KNOTS('',2,(#937,#938,#939,#940,#941),
  .UNSPECIFIED.,.F.,.F.,(3,1,1,3),(-2.684700538379,-1.154700538379,
    26.154700538379,27.684700538379),.UNSPECIFIED.);
#937 = CARTESIAN_POINT('',(9.425598923241,-22.9756539624,60.));
#938 = CARTESIAN_POINT('',(9.808098923241,-22.3131445285,60.));
#939 = CARTESIAN_POINT('',(17.017949192431,-9.825317547305,60.));
#940 = CARTESIAN_POINT('',(24.227799461621,2.662509433895,60.));
#941 = CARTESIAN_POINT('',(24.610299461621,3.32501886779,60.));
#942 = PCURVE('',#372,#943);
#943 = DEFINITIONAL_REPRESENTATION('',(#944),#948);
#944 = LINE('',#945,#946);
#945 = CARTESIAN_POINT('',(27.309401076759,0.));
#946 = VECTOR('',#947,1.);
#947 = DIRECTION('',(0.,1.));
#948 = ( GEOMETRIC_REPRESENTATION_CONTEXT(2) 
PARAMETRIC_REPRESENTATION_CONTEXT() REPRESENTATION_CONTEXT('2D SPACE',''
  ) );
#949 = PCURVE('',#410,#950);
#950 = DEFINITIONAL_REPRESENTATION('',(#951),#954);
#951 = B_SPLINE_CURVE_WITH_KNOTS('',1,(#952,#953),.UNSPECIFIED.,.F.,.F.,
  (2,2),(-1.154700538379,26.154700538379),.PIECEWISE_BEZIER_KNOTS.);
#952 = CARTESIAN_POINT('',(14.809401076759,-21.65063509461));
#953 = CARTESIAN_POINT('',(1.154700538379,2.));
#954 = ( GEOMETRIC_REPRESENTATION_CONTEXT(2) 
PARAMETRIC_REPRESENTATION_CONTEXT() REPRESENTATION_CONTEXT('2D SPACE',''
  ) );
#955 = ORIENTED_EDGE('',*,*,#352,.F.);
#956 = ORIENTED_EDGE('',*,*,#453,.F.);
#957 = ADVANCED_FACE('',(#958),#410,.F.);
#958 = FACE_BOUND('',#959,.F.);
#959 = EDGE_LOOP('',(#960,#961,#962,#986,#1021,#1043));
#960 = ORIENTED_EDGE('',*,*,#392,.F.);
#961 = ORIENTED_EDGE('',*,*,#934,.F.);
#962 = ORIENTED_EDGE('',*,*,#963,.F.);
#963 = EDGE_CURVE('',#964,#895,#966,.T.);
#964 = VERTEX_POINT('',#965);
#965 = CARTESIAN_POINT('',(-11.34529946162,-19.65063509461,60.));
#966 = SURFACE_CURVE('',#967,(#973,#979),.PCURVE_S1.);
#967 = B_SPLINE_CURVE_WITH_KNOTS('',2,(#968,#969,#970,#971,#972),
  .UNSPECIFIED.,.F.,.F.,(3,1,1,3),(-2.684700538379,-1.154700538379,
    26.154700538379,27.684700538379),.UNSPECIFIED.);
#968 = CARTESIAN_POINT('',(-15.18470053837,-19.65063509461,60.));
#969 = CARTESIAN_POINT('',(-14.41970053837,-19.65063509461,60.));
#970 = CARTESIAN_POINT('',(-8.881784197001E-15,-19.65063509461,60.));
#971 = CARTESIAN_POINT('',(14.419700538379,-19.65063509461,60.));
#972 = CARTESIAN_POINT('',(15.184700538379,-19.65063509461,60.));
#973 = PCURVE('',#410,#974);
#974 = DEFINITIONAL_REPRESENTATION('',(#975),#978);
#975 = B_SPLINE_CURVE_WITH_KNOTS('',1,(#976,#977),.UNSPECIFIED.,.F.,.F.,
  (2,2),(-1.154700538379,26.154700538379),.PIECEWISE_BEZIER_KNOTS.);
#976 = CARTESIAN_POINT('',(38.654700538379,-19.65063509461));
#977 = CARTESIAN_POINT('',(11.345299461621,-19.65063509461));
#978 = ( GEOMETRIC_REPRESENTATION_CONTEXT(2) 
PARAMETRIC_REPRESENTATION_CONTEXT() REPRESENTATION_CONTEXT('2D SPACE',''
  ) );
#979 = PCURVE('',#914,#980);
#980 = DEFINITIONAL_REPRESENTATION('',(#981),#985);
#981 = LINE('',#982,#983);
#982 = CARTESIAN_POINT('',(27.309401076759,0.));
#983 = VECTOR('',#984,1.);
#984 = DIRECTION('',(0.,1.));
#985 = ( GEOMETRIC_REPRESENTATION_CONTEXT(2) 
PARAMETRIC_REPRESENTATION_CONTEXT() REPRESENTATION_CONTEXT('2D SPACE',''
  ) );
#986 = ORIENTED_EDGE('',*,*,#987,.F.);
#987 = EDGE_CURVE('',#988,#964,#990,.T.);
#988 = VERTEX_POINT('',#989);
#989 = CARTESIAN_POINT('',(-22.69059892324,-7.327471962526E-15,60.));
#990 = SURFACE_CURVE('',#991,(#997,#1003),.PCURVE_S1.);
#991 = B_SPLINE_CURVE_WITH_KNOTS('',2,(#992,#993,#994,#995,#996),
  .UNSPECIFIED.,.F.,.F.,(3,1,1,3),(-2.684700538379,-1.154700538379,
    26.154700538379,27.684700538379),.UNSPECIFIED.);
#992 = CARTESIAN_POINT('',(-24.61029946162,3.32501886779,60.));
#993 = CARTESIAN_POINT('',(-24.22779946162,2.662509433895,60.));
#994 = CARTESIAN_POINT('',(-17.01794919243,-9.825317547305,60.));
#995 = CARTESIAN_POINT('',(-9.808098923242,-22.3131445285,60.));
#996 = CARTESIAN_POINT('',(-9.425598923242,-22.9756539624,60.));
#997 = PCURVE('',#410,#998);
#998 = DEFINITIONAL_REPRESENTATION('',(#999),#1002);
#999 = B_SPLINE_CURVE_WITH_KNOTS('',1,(#1000,#1001),.UNSPECIFIED.,.F.,
  .F.,(2,2),(-1.154700538379,26.154700538379),.PIECEWISE_BEZIER_KNOTS.);
#1000 = CARTESIAN_POINT('',(48.845299461621,2.));
#1001 = CARTESIAN_POINT('',(35.190598923242,-21.65063509461));
#1002 = ( GEOMETRIC_REPRESENTATION_CONTEXT(2) 
PARAMETRIC_REPRESENTATION_CONTEXT() REPRESENTATION_CONTEXT('2D SPACE',''
  ) );
#1003 = PCURVE('',#1004,#1015);
#1004 = B_SPLINE_SURFACE_WITH_KNOTS('',1,2,(
    (#1005,#1006,#1007,#1008,#1009)
    ,(#1010,#1011,#1012,#1013,#1014
    )),.UNSPECIFIED.,.F.,.F.,.F.,(2,2),(3,1,1,3),(0.,27.309401076758),(
    -2.684700538379,-1.154700538379,26.154700538379,27.684700538379),
  .UNSPECIFIED.);
#1005 = CARTESIAN_POINT('',(-26.93024662044,1.985596751139,
    58.118731675993));
#1006 = CARTESIAN_POINT('',(-26.54774662044,1.323087317244,
    58.118731675993));
#1007 = CARTESIAN_POINT('',(-19.33789635125,-11.16473966395,
    58.118731675993));
#1008 = CARTESIAN_POINT('',(-12.12804608206,-23.65256664515,
    58.118731675993));
#1009 = CARTESIAN_POINT('',(-11.74554608206,-24.31507607905,
    58.118731675993));
#1010 = CARTESIAN_POINT('',(-24.61029946162,3.32501886779,60.));
#1011 = CARTESIAN_POINT('',(-24.22779946162,2.662509433895,60.));
#1012 = CARTESIAN_POINT('',(-17.01794919243,-9.825317547305,60.));
#1013 = CARTESIAN_POINT('',(-9.808098923242,-22.3131445285,60.));
#1014 = CARTESIAN_POINT('',(-9.425598923242,-22.9756539624,60.));
#1015 = DEFINITIONAL_REPRESENTATION('',(#1016),#1020);
#1016 = LINE('',#1017,#1018);
#1017 = CARTESIAN_POINT('',(27.309401076758,0.));
#1018 = VECTOR('',#1019,1.);
#1019 = DIRECTION('',(0.,1.));
#1020 = ( GEOMETRIC_REPRESENTATION_CONTEXT(2) 
PARAMETRIC_REPRESENTATION_CONTEXT() REPRESENTATION_CONTEXT('2D SPACE',''
  ) );
#1021 = ORIENTED_EDGE('',*,*,#1022,.F.);
#1022 = EDGE_CURVE('',#686,#988,#1023,.T.);
#1023 = SURFACE_CURVE('',#1024,(#1030,#1036),.PCURVE_S1.);
#1024 = B_SPLINE_CURVE_WITH_KNOTS('',2,(#1025,#1026,#1027,#1028,#1029),
  .UNSPECIFIED.,.F.,.F.,(3,1,1,3),(-2.684700538379,-1.154700538379,
    26.154700538379,27.684700538379),.UNSPECIFIED.);
#1025 = CARTESIAN_POINT('',(-9.425598923241,22.975653962401,60.));
#1026 = CARTESIAN_POINT('',(-9.808098923241,22.313144528506,60.));
#1027 = CARTESIAN_POINT('',(-17.01794919243,9.825317547305,60.));
#1028 = CARTESIAN_POINT('',(-24.22779946162,-2.662509433895,60.));
#1029 = CARTESIAN_POINT('',(-24.61029946162,-3.32501886779,60.));
#1030 = PCURVE('',#410,#1031);
#1031 = DEFINITIONAL_REPRESENTATION('',(#1032),#1035);
#1032 = B_SPLINE_CURVE_WITH_KNOTS('',1,(#1033,#1034),.UNSPECIFIED.,.F.,
  .F.,(2,2),(-1.154700538379,26.154700538379),.PIECEWISE_BEZIER_KNOTS.);
#1033 = CARTESIAN_POINT('',(35.190598923241,21.650635094611));
#1034 = CARTESIAN_POINT('',(48.845299461621,-2.));
#1035 = ( GEOMETRIC_REPRESENTATION_CONTEXT(2) 
PARAMETRIC_REPRESENTATION_CONTEXT() REPRESENTATION_CONTEXT('2D SPACE',''
  ) );
#1036 = PCURVE('',#573,#1037);
#1037 = DEFINITIONAL_REPRESENTATION('',(#1038),#1042);
#1038 = LINE('',#1039,#1040);
#1039 = CARTESIAN_POINT('',(27.309401076759,0.));
#1040 = VECTOR('',#1041,1.);
#1041 = DIRECTION('',(0.,1.));
#1042 = ( GEOMETRIC_REPRESENTATION_CONTEXT(2) 
PARAMETRIC_REPRESENTATION_CONTEXT() REPRESENTATION_CONTEXT('2D SPACE',''
  ) );
#1043 = ORIENTED_EDGE('',*,*,#685,.F.);
#1044 = ADVANCED_FACE('',(#1045),#492,.T.);
#1045 = FACE_BOUND('',#1046,.T.);
#1046 = EDGE_LOOP('',(#1047,#1048,#1072,#1094));
#1047 = ORIENTED_EDGE('',*,*,#477,.T.);
#1048 = ORIENTED_EDGE('',*,*,#1049,.F.);
#1049 = EDGE_CURVE('',#1050,#454,#1052,.T.);
#1050 = VERTEX_POINT('',#1051);
#1051 = CARTESIAN_POINT('',(-12.89193090083,-22.32947932791,
    58.118731675993));
#1052 = SURFACE_CURVE('',#1053,(#1059,#1065),.PCURVE_S1.);
#1053 = B_SPLINE_CURVE_WITH_KNOTS('',2,(#1054,#1055,#1056,#1057,#1058),
  .UNSPECIFIED.,.F.,.F.,(3,1,1,3),(-2.684700538379,-1.154700538379,
    26.154700538379,27.684700538379),.UNSPECIFIED.);
#1054 = CARTESIAN_POINT('',(-15.18470053837,-22.32947932791,
    58.118731675993));
#1055 = CARTESIAN_POINT('',(-14.41970053837,-22.32947932791,
    58.118731675993));
#1056 = CARTESIAN_POINT('',(-8.881784197001E-15,-22.32947932791,
    58.118731675993));
#1057 = CARTESIAN_POINT('',(14.419700538379,-22.32947932791,
    58.118731675993));
#1058 = CARTESIAN_POINT('',(15.184700538379,-22.32947932791,
    58.118731675993));
#1059 = PCURVE('',#492,#1060);
#1060 = DEFINITIONAL_REPRESENTATION('',(#1061),#1064);
#1061 = B_SPLINE_CURVE_WITH_KNOTS('',1,(#1062,#1063),.UNSPECIFIED.,.F.,
  .F.,(2,2),(-1.154700538379,26.154700538379),.PIECEWISE_BEZIER_KNOTS.);
#1062 = CARTESIAN_POINT('',(-1.479160963962,0.968645527933));
#1063 = CARTESIAN_POINT('',(51.479160963962,0.968645527933));
#1064 = ( GEOMETRIC_REPRESENTATION_CONTEXT(2) 
PARAMETRIC_REPRESENTATION_CONTEXT() REPRESENTATION_CONTEXT('2D SPACE',''
  ) );
#1065 = PCURVE('',#914,#1066);
#1066 = DEFINITIONAL_REPRESENTATION('',(#1067),#1071);
#1067 = LINE('',#1068,#1069);
#1068 = CARTESIAN_POINT('',(0.,0.));
#1069 = VECTOR('',#1070,1.);
#1070 = DIRECTION('',(0.,1.));
#1071 = ( GEOMETRIC_REPRESENTATION_CONTEXT(2) 
PARAMETRIC_REPRESENTATION_CONTEXT() REPRESENTATION_CONTEXT('2D SPACE',''
  ) );
#1072 = ORIENTED_EDGE('',*,*,#1073,.F.);
#1073 = EDGE_CURVE('',#1074,#1050,#1076,.T.);
#1074 = VERTEX_POINT('',#1075);
#1075 = CARTESIAN_POINT('',(-24.60806909916,-42.62242595592,
    1.881268324007));
#1076 = SURFACE_CURVE('',#1077,(#1080,#1087),.PCURVE_S1.);
#1077 = B_SPLINE_CURVE_WITH_KNOTS('',1,(#1078,#1079),.UNSPECIFIED.,.F.,
  .F.,(2,2),(0.,1.),.PIECEWISE_BEZIER_KNOTS.);
#1078 = CARTESIAN_POINT('',(-25.,-43.30127018922,0.));
#1079 = CARTESIAN_POINT('',(-12.5,-21.65063509461,60.));
#1080 = PCURVE('',#492,#1081);
#1081 = DEFINITIONAL_REPRESENTATION('',(#1082),#1086);
#1082 = LINE('',#1083,#1084);
#1083 = CARTESIAN_POINT('',(0.,0.));
#1084 = VECTOR('',#1085,1.);
#1085 = DIRECTION('',(0.,1.));
#1086 = ( GEOMETRIC_REPRESENTATION_CONTEXT(2) 
PARAMETRIC_REPRESENTATION_CONTEXT() REPRESENTATION_CONTEXT('2D SPACE',''
  ) );
#1087 = PCURVE('',#546,#1088);
#1088 = DEFINITIONAL_REPRESENTATION('',(#1089),#1093);
#1089 = LINE('',#1090,#1091);
#1090 = CARTESIAN_POINT('',(50.,0.));
#1091 = VECTOR('',#1092,1.);
#1092 = DIRECTION('',(0.,1.));
#1093 = ( GEOMETRIC_REPRESENTATION_CONTEXT(2) 
PARAMETRIC_REPRESENTATION_CONTEXT() REPRESENTATION_CONTEXT('2D SPACE',''
  ) );
#1094 = ORIENTED_EDGE('',*,*,#1095,.T.);
#1095 = EDGE_CURVE('',#1074,#478,#1096,.T.);
#1096 = SURFACE_CURVE('',#1097,(#1103,#1109),.PCURVE_S1.);
#1097 = B_SPLINE_CURVE_WITH_KNOTS('',2,(#1098,#1099,#1100,#1101,#1102),
  .UNSPECIFIED.,.F.,.F.,(3,1,1,3),(-4.214700538379,-1.154700538379,
    51.154700538379,54.214700538379),.UNSPECIFIED.);
#1098 = CARTESIAN_POINT('',(-29.21470053837,-42.62242595592,
    1.881268324007));
#1099 = CARTESIAN_POINT('',(-27.68470053837,-42.62242595592,
    1.881268324007));
#1100 = CARTESIAN_POINT('',(-1.06581410364E-14,-42.62242595592,
    1.881268324007));
#1101 = CARTESIAN_POINT('',(27.684700538379,-42.62242595592,
    1.881268324007));
#1102 = CARTESIAN_POINT('',(29.214700538379,-42.62242595592,
    1.881268324007));
#1103 = PCURVE('',#492,#1104);
#1104 = DEFINITIONAL_REPRESENTATION('',(#1105),#1108);
#1105 = B_SPLINE_CURVE_WITH_KNOTS('',1,(#1106,#1107),.UNSPECIFIED.,.F.,
  .F.,(2,2),(-1.154700538379,51.154700538379),.PIECEWISE_BEZIER_KNOTS.);
#1106 = CARTESIAN_POINT('',(-1.571264524028,3.135447206679E-02));
#1107 = CARTESIAN_POINT('',(51.571264524028,3.135447206679E-02));
#1108 = ( GEOMETRIC_REPRESENTATION_CONTEXT(2) 
PARAMETRIC_REPRESENTATION_CONTEXT() REPRESENTATION_CONTEXT('2D SPACE',''
  ) );
#1109 = PCURVE('',#760,#1110);
#1110 = DEFINITIONAL_REPRESENTATION('',(#1111),#1115);
#1111 = LINE('',#1112,#1113);
#1112 = CARTESIAN_POINT('',(0.,0.));
#1113 = VECTOR('',#1114,1.);
#1114 = DIRECTION('',(0.,1.));
#1115 = ( GEOMETRIC_REPRESENTATION_CONTEXT(2) 
PARAMETRIC_REPRESENTATION_CONTEXT() REPRESENTATION_CONTEXT('2D SPACE',''
  ) );
#1116 = ADVANCED_FACE('',(#1117),#546,.T.);
#1117 = FACE_BOUND('',#1118,.T.);
#1118 = EDGE_LOOP('',(#1119,#1120,#1142,#1143));
#1119 = ORIENTED_EDGE('',*,*,#1073,.T.);
#1120 = ORIENTED_EDGE('',*,*,#1121,.F.);
#1121 = EDGE_CURVE('',#532,#1050,#1122,.T.);
#1122 = SURFACE_CURVE('',#1123,(#1129,#1135),.PCURVE_S1.);
#1123 = B_SPLINE_CURVE_WITH_KNOTS('',2,(#1124,#1125,#1126,#1127,#1128),
  .UNSPECIFIED.,.F.,.F.,(3,1,1,3),(-2.684700538379,-1.154700538379,
    26.154700538379,27.684700538379),.UNSPECIFIED.);
#1124 = CARTESIAN_POINT('',(-26.93024662044,1.985596751139,
    58.118731675993));
#1125 = CARTESIAN_POINT('',(-26.54774662044,1.323087317244,
    58.118731675993));
#1126 = CARTESIAN_POINT('',(-19.33789635125,-11.16473966395,
    58.118731675993));
#1127 = CARTESIAN_POINT('',(-12.12804608206,-23.65256664515,
    58.118731675993));
#1128 = CARTESIAN_POINT('',(-11.74554608206,-24.31507607905,
    58.118731675993));
#1129 = PCURVE('',#546,#1130);
#1130 = DEFINITIONAL_REPRESENTATION('',(#1131),#1134);
#1131 = B_SPLINE_CURVE_WITH_KNOTS('',1,(#1132,#1133),.UNSPECIFIED.,.F.,
  .F.,(2,2),(-1.154700538379,26.154700538379),.PIECEWISE_BEZIER_KNOTS.);
#1132 = CARTESIAN_POINT('',(-1.479160963962,0.968645527933));
#1133 = CARTESIAN_POINT('',(51.479160963962,0.968645527933));
#1134 = ( GEOMETRIC_REPRESENTATION_CONTEXT(2) 
PARAMETRIC_REPRESENTATION_CONTEXT() REPRESENTATION_CONTEXT('2D SPACE',''
  ) );
#1135 = PCURVE('',#1004,#1136);
#1136 = DEFINITIONAL_REPRESENTATION('',(#1137),#1141);
#1137 = LINE('',#1138,#1139);
#1138 = CARTESIAN_POINT('',(0.,0.));
#1139 = VECTOR('',#1140,1.);
#1140 = DIRECTION('',(0.,1.));
#1141 = ( GEOMETRIC_REPRESENTATION_CONTEXT(2) 
PARAMETRIC_REPRESENTATION_CONTEXT() REPRESENTATION_CONTEXT('2D SPACE',''
  ) );
#1142 = ORIENTED_EDGE('',*,*,#529,.F.);
#1143 = ORIENTED_EDGE('',*,*,#1144,.T.);
#1144 = EDGE_CURVE('',#530,#1074,#1145,.T.);
#1145 = SURFACE_CURVE('',#1146,(#1152,#1158),.PCURVE_S1.);
#1146 = B_SPLINE_CURVE_WITH_KNOTS('',2,(#1147,#1148,#1149,#1150,#1151),
  .UNSPECIFIED.,.F.,.F.,(3,1,1,3),(-4.214700538379,-1.154700538379,
    51.154700538379,54.214700538379),.UNSPECIFIED.);
#1147 = CARTESIAN_POINT('',(-51.51945391793,3.989459852231,
    1.881268324007));
#1148 = CARTESIAN_POINT('',(-50.75445391793,2.664440984441,
    1.881268324007));
#1149 = CARTESIAN_POINT('',(-36.91210364874,-21.31121297796,
    1.881268324007));
#1150 = CARTESIAN_POINT('',(-23.06975337955,-45.28686694036,
    1.881268324007));
#1151 = CARTESIAN_POINT('',(-22.30475337955,-46.61188580815,
    1.881268324007));
#1152 = PCURVE('',#546,#1153);
#1153 = DEFINITIONAL_REPRESENTATION('',(#1154),#1157);
#1154 = B_SPLINE_CURVE_WITH_KNOTS('',1,(#1155,#1156),.UNSPECIFIED.,.F.,
  .F.,(2,2),(-1.154700538379,51.154700538379),.PIECEWISE_BEZIER_KNOTS.);
#1155 = CARTESIAN_POINT('',(-1.571264524028,3.135447206678E-02));
#1156 = CARTESIAN_POINT('',(51.571264524028,3.135447206678E-02));
#1157 = ( GEOMETRIC_REPRESENTATION_CONTEXT(2) 
PARAMETRIC_REPRESENTATION_CONTEXT() REPRESENTATION_CONTEXT('2D SPACE',''
  ) );
#1158 = PCURVE('',#850,#1159);
#1159 = DEFINITIONAL_REPRESENTATION('',(#1160),#1164);
#1160 = LINE('',#1161,#1162);
#1161 = CARTESIAN_POINT('',(0.,0.));
#1162 = VECTOR('',#1163,1.);
#1163 = DIRECTION('',(0.,1.));
#1164 = ( GEOMETRIC_REPRESENTATION_CONTEXT(2) 
PARAMETRIC_REPRESENTATION_CONTEXT() REPRESENTATION_CONTEXT('2D SPACE',''
  ) );
#1165 = ADVANCED_FACE('',(#1166),#607,.T.);
#1166 = FACE_BOUND('',#1167,.T.);
#1167 = EDGE_LOOP('',(#1168,#1169,#1170,#1197));
#1168 = ORIENTED_EDGE('',*,*,#653,.T.);
#1169 = ORIENTED_EDGE('',*,*,#868,.T.);
#1170 = ORIENTED_EDGE('',*,*,#1171,.F.);
#1171 = EDGE_CURVE('',#530,#834,#1172,.T.);
#1172 = SURFACE_CURVE('',#1173,(#1179,#1188),.PCURVE_S1.);
#1173 = B_SPLINE_CURVE_WITH_KNOTS('',4,(#1174,#1175,#1176,#1177,#1178),
  .UNSPECIFIED.,.F.,.F.,(5,5),(0.,1.),.PIECEWISE_BEZIER_KNOTS.);
#1174 = CARTESIAN_POINT('',(-49.21613819833,-9.492406860545E-15,
    1.881268324007));
#1175 = CARTESIAN_POINT('',(-48.83475337956,-1.330150889861E-14,
    1.410951243015));
#1176 = CARTESIAN_POINT('',(-48.45336856078,-1.962209284862E-14,
    0.940634162006));
#1177 = CARTESIAN_POINT('',(-48.071983742,-2.311582652994E-14,
    0.470317080992));
#1178 = CARTESIAN_POINT('',(-47.69059892324,-2.670086374224E-14,0.));
#1179 = PCURVE('',#607,#1180);
#1180 = DEFINITIONAL_REPRESENTATION('',(#1181),#1187);
#1181 = B_SPLINE_CURVE_WITH_KNOTS('',4,(#1182,#1183,#1184,#1185,#1186),
  .UNSPECIFIED.,.F.,.F.,(5,5),(0.,1.),.PIECEWISE_BEZIER_KNOTS.);
#1182 = CARTESIAN_POINT('',(0.,49.608069099165));
#1183 = CARTESIAN_POINT('',(13.077350268928,49.417376689783));
#1184 = CARTESIAN_POINT('',(26.154700538314,49.226684280394));
#1185 = CARTESIAN_POINT('',(39.23205080783,49.035991871003));
#1186 = CARTESIAN_POINT('',(52.309401076759,48.845299461621));
#1187 = ( GEOMETRIC_REPRESENTATION_CONTEXT(2) 
PARAMETRIC_REPRESENTATION_CONTEXT() REPRESENTATION_CONTEXT('2D SPACE',''
  ) );
#1188 = PCURVE('',#850,#1189);
#1189 = DEFINITIONAL_REPRESENTATION('',(#1190),#1196);
#1190 = B_SPLINE_CURVE_WITH_KNOTS('',4,(#1191,#1192,#1193,#1194,#1195),
  .UNSPECIFIED.,.F.,.F.,(5,5),(0.,1.),.PIECEWISE_BEZIER_KNOTS.);
#1191 = CARTESIAN_POINT('',(1.010493340433E-09,0.39193090085));
#1192 = CARTESIAN_POINT('',(13.077350269939,0.582623310232));
#1193 = CARTESIAN_POINT('',(26.154700538408,0.773315719608));
#1194 = CARTESIAN_POINT('',(39.232050806748,0.964008128981));
#1195 = CARTESIAN_POINT('',(52.309401075677,1.154700538364));
#1196 = ( GEOMETRIC_REPRESENTATION_CONTEXT(2) 
PARAMETRIC_REPRESENTATION_CONTEXT() REPRESENTATION_CONTEXT('2D SPACE',''
  ) );
#1197 = ORIENTED_EDGE('',*,*,#592,.F.);
#1198 = ADVANCED_FACE('',(#1199),#573,.F.);
#1199 = FACE_BOUND('',#1200,.F.);
#1200 = EDGE_LOOP('',(#1201,#1202,#1203,#1230));
#1201 = ORIENTED_EDGE('',*,*,#709,.T.);
#1202 = ORIENTED_EDGE('',*,*,#1022,.T.);
#1203 = ORIENTED_EDGE('',*,*,#1204,.F.);
#1204 = EDGE_CURVE('',#532,#988,#1205,.T.);
#1205 = SURFACE_CURVE('',#1206,(#1212,#1221),.PCURVE_S1.);
#1206 = B_SPLINE_CURVE_WITH_KNOTS('',4,(#1207,#1208,#1209,#1210,#1211),
  .UNSPECIFIED.,.F.,.F.,(5,5),(0.,1.),.PIECEWISE_BEZIER_KNOTS.);
#1207 = CARTESIAN_POINT('',(-25.78386180167,4.346523141407E-14,
    58.118731675993));
#1208 = CARTESIAN_POINT('',(-25.01054608207,2.990148544348E-14,
    58.589048756985));
#1209 = CARTESIAN_POINT('',(-24.23723036244,1.316907929252E-14,
    59.059365838001));
#1210 = CARTESIAN_POINT('',(-23.46391464283,3.111733688414E-15,
    59.529682919008));
#1211 = CARTESIAN_POINT('',(-22.69059892324,-1.021405182655E-14,60.));
#1212 = PCURVE('',#573,#1213);
#1213 = DEFINITIONAL_REPRESENTATION('',(#1214),#1220);
#1214 = B_SPLINE_CURVE_WITH_KNOTS('',4,(#1215,#1216,#1217,#1218,#1219),
  .UNSPECIFIED.,.F.,.F.,(5,5),(0.,1.),.PIECEWISE_BEZIER_KNOTS.);
#1215 = CARTESIAN_POINT('',(0.,25.391930900835));
#1216 = CARTESIAN_POINT('',(6.827350269054,25.005273041039));
#1217 = CARTESIAN_POINT('',(13.654700538439,24.618615181224));
#1218 = CARTESIAN_POINT('',(20.482050807704,24.231957321417));
#1219 = CARTESIAN_POINT('',(27.309401076759,23.845299461621));
#1220 = ( GEOMETRIC_REPRESENTATION_CONTEXT(2) 
PARAMETRIC_REPRESENTATION_CONTEXT() REPRESENTATION_CONTEXT('2D SPACE',''
  ) );
#1221 = PCURVE('',#1004,#1222);
#1222 = DEFINITIONAL_REPRESENTATION('',(#1223),#1229);
#1223 = B_SPLINE_CURVE_WITH_KNOTS('',4,(#1224,#1225,#1226,#1227,#1228),
  .UNSPECIFIED.,.F.,.F.,(5,5),(0.,1.),.PIECEWISE_BEZIER_KNOTS.);
#1224 = CARTESIAN_POINT('',(5.809721561427E-10,-0.391930900802));
#1225 = CARTESIAN_POINT('',(6.827350269635,-5.273041006082E-03));
#1226 = CARTESIAN_POINT('',(13.654700538353,0.381384818771));
#1227 = CARTESIAN_POINT('',(20.482050807192,0.768042678554));
#1228 = CARTESIAN_POINT('',(27.309401076246,1.15470053835));
#1229 = ( GEOMETRIC_REPRESENTATION_CONTEXT(2) 
PARAMETRIC_REPRESENTATION_CONTEXT() REPRESENTATION_CONTEXT('2D SPACE',''
  ) );
#1230 = ORIENTED_EDGE('',*,*,#558,.F.);
#1231 = ADVANCED_FACE('',(#1232),#760,.T.);
#1232 = FACE_BOUND('',#1233,.T.);
#1233 = EDGE_LOOP('',(#1234,#1261,#1262,#1263));
#1234 = ORIENTED_EDGE('',*,*,#1235,.T.);
#1235 = EDGE_CURVE('',#1074,#810,#1236,.T.);
#1236 = SURFACE_CURVE('',#1237,(#1243,#1252),.PCURVE_S1.);
#1237 = B_SPLINE_CURVE_WITH_KNOTS('',4,(#1238,#1239,#1240,#1241,#1242),
  .UNSPECIFIED.,.F.,.F.,(5,5),(0.,1.),.PIECEWISE_BEZIER_KNOTS.);
#1238 = CARTESIAN_POINT('',(-24.60806909916,-42.62242595592,
    1.881268324007));
#1239 = CARTESIAN_POINT('',(-24.41737668978,-42.29213701425,
    1.410951243015));
#1240 = CARTESIAN_POINT('',(-24.22668428039,-41.96184807257,
    0.940634162006));
#1241 = CARTESIAN_POINT('',(-24.035991871,-41.63155913089,0.470317080992
    ));
#1242 = CARTESIAN_POINT('',(-23.84529946162,-41.30127018922,
    -5.551115123126E-17));
#1243 = PCURVE('',#760,#1244);
#1244 = DEFINITIONAL_REPRESENTATION('',(#1245),#1251);
#1245 = B_SPLINE_CURVE_WITH_KNOTS('',4,(#1246,#1247,#1248,#1249,#1250),
  .UNSPECIFIED.,.F.,.F.,(5,5),(0.,1.),.PIECEWISE_BEZIER_KNOTS.);
#1246 = CARTESIAN_POINT('',(1.012561642858E-09,0.391930900849));
#1247 = CARTESIAN_POINT('',(13.077350269941,0.582623310232));
#1248 = CARTESIAN_POINT('',(26.154700538405,0.773315719607));
#1249 = CARTESIAN_POINT('',(39.232050806749,0.964008128981));
#1250 = CARTESIAN_POINT('',(52.309401075677,1.154700538363));
#1251 = ( GEOMETRIC_REPRESENTATION_CONTEXT(2) 
PARAMETRIC_REPRESENTATION_CONTEXT() REPRESENTATION_CONTEXT('2D SPACE',''
  ) );
#1252 = PCURVE('',#850,#1253);
#1253 = DEFINITIONAL_REPRESENTATION('',(#1254),#1260);
#1254 = B_SPLINE_CURVE_WITH_KNOTS('',4,(#1255,#1256,#1257,#1258,#1259),
  .UNSPECIFIED.,.F.,.F.,(5,5),(0.,1.),.PIECEWISE_BEZIER_KNOTS.);
#1255 = CARTESIAN_POINT('',(0.,49.608069099165));
#1256 = CARTESIAN_POINT('',(13.077350268929,49.417376689783));
#1257 = CARTESIAN_POINT('',(26.154700538318,49.226684280394));
#1258 = CARTESIAN_POINT('',(39.23205080783,49.035991871003));
#1259 = CARTESIAN_POINT('',(52.309401076758,48.845299461621));
#1260 = ( GEOMETRIC_REPRESENTATION_CONTEXT(2) 
PARAMETRIC_REPRESENTATION_CONTEXT() REPRESENTATION_CONTEXT('2D SPACE',''
  ) );
#1261 = ORIENTED_EDGE('',*,*,#809,.T.);
#1262 = ORIENTED_EDGE('',*,*,#740,.F.);
#1263 = ORIENTED_EDGE('',*,*,#1095,.F.);
#1264 = ADVANCED_FACE('',(#1265),#850,.T.);
#1265 = FACE_BOUND('',#1266,.T.);
#1266 = EDGE_LOOP('',(#1267,#1268,#1269,#1270));
#1267 = ORIENTED_EDGE('',*,*,#1171,.T.);
#1268 = ORIENTED_EDGE('',*,*,#833,.T.);
#1269 = ORIENTED_EDGE('',*,*,#1235,.F.);
#1270 = ORIENTED_EDGE('',*,*,#1144,.F.);
#1271 = ADVANCED_FACE('',(#1272),#914,.F.);
#1272 = FACE_BOUND('',#1273,.F.);
#1273 = EDGE_LOOP('',(#1274,#1301,#1302,#1303));
#1274 = ORIENTED_EDGE('',*,*,#1275,.T.);
#1275 = EDGE_CURVE('',#1050,#964,#1276,.T.);
#1276 = SURFACE_CURVE('',#1277,(#1283,#1292),.PCURVE_S1.);
#1277 = B_SPLINE_CURVE_WITH_KNOTS('',4,(#1278,#1279,#1280,#1281,#1282),
  .UNSPECIFIED.,.F.,.F.,(5,5),(0.,1.),.PIECEWISE_BEZIER_KNOTS.);
#1278 = CARTESIAN_POINT('',(-12.89193090083,-22.32947932791,
    58.118731675993));
#1279 = CARTESIAN_POINT('',(-12.50527304103,-21.6597682696,
    58.589048756985));
#1280 = CARTESIAN_POINT('',(-12.11861518122,-20.99005721125,59.059365838
    ));
#1281 = CARTESIAN_POINT('',(-11.73195732141,-20.32034615292,
    59.529682919008));
#1282 = CARTESIAN_POINT('',(-11.34529946162,-19.65063509461,60.));
#1283 = PCURVE('',#914,#1284);
#1284 = DEFINITIONAL_REPRESENTATION('',(#1285),#1291);
#1285 = B_SPLINE_CURVE_WITH_KNOTS('',4,(#1286,#1287,#1288,#1289,#1290),
  .UNSPECIFIED.,.F.,.F.,(5,5),(0.,1.),.PIECEWISE_BEZIER_KNOTS.);
#1286 = CARTESIAN_POINT('',(5.799397223233E-10,-0.391930900802));
#1287 = CARTESIAN_POINT('',(6.827350269634,-5.273041006154E-03));
#1288 = CARTESIAN_POINT('',(13.654700538355,0.381384818771));
#1289 = CARTESIAN_POINT('',(20.482050807192,0.768042678554));
#1290 = CARTESIAN_POINT('',(27.309401076247,1.15470053835));
#1291 = ( GEOMETRIC_REPRESENTATION_CONTEXT(2) 
PARAMETRIC_REPRESENTATION_CONTEXT() REPRESENTATION_CONTEXT('2D SPACE',''
  ) );
#1292 = PCURVE('',#1004,#1293);
#1293 = DEFINITIONAL_REPRESENTATION('',(#1294),#1300);
#1294 = B_SPLINE_CURVE_WITH_KNOTS('',4,(#1295,#1296,#1297,#1298,#1299),
  .UNSPECIFIED.,.F.,.F.,(5,5),(0.,1.),.PIECEWISE_BEZIER_KNOTS.);
#1295 = CARTESIAN_POINT('',(0.,25.391930900835));
#1296 = CARTESIAN_POINT('',(6.827350269054,25.005273041039));
#1297 = CARTESIAN_POINT('',(13.654700538438,24.618615181224));
#1298 = CARTESIAN_POINT('',(20.482050807704,24.231957321417));
#1299 = CARTESIAN_POINT('',(27.309401076758,23.845299461621));
#1300 = ( GEOMETRIC_REPRESENTATION_CONTEXT(2) 
PARAMETRIC_REPRESENTATION_CONTEXT() REPRESENTATION_CONTEXT('2D SPACE',''
  ) );
#1301 = ORIENTED_EDGE('',*,*,#963,.T.);
#1302 = ORIENTED_EDGE('',*,*,#894,.F.);
#1303 = ORIENTED_EDGE('',*,*,#1049,.F.);
#1304 = ADVANCED_FACE('',(#1305),#1004,.F.);
#1305 = FACE_BOUND('',#1306,.F.);
#1306 = EDGE_LOOP('',(#1307,#1308,#1309,#1310));
#1307 = ORIENTED_EDGE('',*,*,#1204,.T.);
#1308 = ORIENTED_EDGE('',*,*,#987,.T.);
#1309 = ORIENTED_EDGE('',*,*,#1275,.F.);
#1310 = ORIENTED_EDGE('',*,*,#1121,.F.);
#1311 = ( GEOMETRIC_REPRESENTATION_CONTEXT(3) 
GLOBAL_UNCERTAINTY_ASSIGNED_CONTEXT((#1315)) 
GLOBAL_UNIT_ASSIGNED_CONTEXT((#1312,#1313,#1314)) REPRESENTATION_CONTEXT
('Context #1','3D Context with UNIT and UNCERTAINTY') );
#1312 = ( LENGTH_UNIT() NAMED_UNIT(*) SI_UNIT(.MILLI.,.METRE.) );
#1313 = ( NAMED_UNIT(*) PLANE_ANGLE_UNIT() SI_UNIT($,.RADIAN.) );
#1314 = ( NAMED_UNIT(*) SI_UNIT($,.STERADIAN.) SOLID_ANGLE_UNIT() );
#1315 = UNCERTAINTY_MEASURE_WITH_UNIT(LENGTH_MEASURE(1.E-07),#1312,
  'distance_accuracy_value','confusion accuracy');
#1316 = PRODUCT_RELATED_PRODUCT_CATEGORY('part',$,(#7));
ENDSEC;
END-ISO-10303-21;
