ISO-10303-21;
HEADER;
FILE_DESCRIPTION(('Open CASCADE Model'),'2;1');
FILE_NAME('Open CASCADE Shape Model','2026-08-07T02:34:18',('Author'),(
    'Open CASCADE'),'Open CASCADE STEP processor 7.7','Open CASCADE 7.7'
  ,'Unknown');
FILE_SCHEMA(('AUTOMOTIVE_DESIGN { 1 0 10303 214 1 1 1 1 }'));
ENDSEC;
DATA;
#1 = APPLICATION_PROTOCOL_DEFINITION('international standard',
  'automotive_design',2000,#2);
#2 = APPLICATION_CONTEXT(
  'core data for automotive mechanical design processes');
#3 = SHAPE_DEFINITION_REPRESENTATION(#4,#10);
#4 = PRODUCT_DEFINITION_SHAPE('','',#5);
#5 = PRODUCT_DEFINITION('design','',#6,#9);
#6 = PRODUCT_DEFINITION_FORMATION('','',#7);
#7 = PRODUCT('Open CASCADE STEP translator 7.7 41',
  'Open CASCADE STEP translator 7.7 41','',(#8));
#8 = PRODUCT_CONTEXT('',#2,'mechanical');
#9 = PRODUCT_DEFINITION_CONTEXT('part definition',#2,'design');
#10 = ADVANCED_BREP_SHAPE_REPRESENTATION('',(#11,#15),#783);
#11 = AXIS2_PLACEMENT_3D('',#12,#13,#14);
#12 = CARTESIAN_POINT('',(0.,0.,0.));
#13 = DIRECTION('',(0.,0.,1.));
#14 = DIRECTION('',(1.,0.,-0.));
#15 = MANIFOLD_SOLID_BREP('',#16);
#16 = CLOSED_SHELL('',(#17,#160,#260,#334,#434,#482,#530,#604,#652,#721,
    #748,#775));
#17 = ADVANCED_FACE('',(#18),#32,.T.);
#18 = FACE_BOUND('',#19,.T.);
#19 = EDGE_LOOP('',(#20,#54,#81,#108,#135));
#20 = ORIENTED_EDGE('',*,*,#21,.T.);
#21 = EDGE_CURVE('',#22,#24,#26,.T.);
#22 = VERTEX_POINT('',#23);
#23 = CARTESIAN_POINT('',(-20.22542485937,-20.22542485937,
    -20.22542485937));
#24 = VERTEX_POINT('',#25);
#25 = CARTESIAN_POINT('',(-12.5,-32.72542485937,0.));
#26 = SURFACE_CURVE('',#27,(#31,#43),.PCURVE_S1.);
#27 = LINE('',#28,#29);
#28 = CARTESIAN_POINT('',(-20.22542485937,-20.22542485937,
    -20.22542485937));
#29 = VECTOR('',#30,1.);
#30 = DIRECTION('',(0.309016994375,-0.5,0.809016994375));
#31 = PCURVE('',#32,#37);
#32 = PLANE('',#33);
#33 = AXIS2_PLACEMENT_3D('',#34,#35,#36);
#34 = CARTESIAN_POINT('',(-23.68033988749,-14.63525491562,
    2.273736754432E-16));
#35 = DIRECTION('',(-0.850650808352,-0.525731112119,-0.));
#36 = DIRECTION('',(0.525731112119,-0.850650808352,0.));
#37 = DEFINITIONAL_REPRESENTATION('',(#38),#42);
#38 = LINE('',#39,#40);
#39 = CARTESIAN_POINT('',(6.571638901489,-20.22542485937));
#40 = VECTOR('',#41,1.);
#41 = DIRECTION('',(0.587785252292,0.809016994375));
#42 = ( GEOMETRIC_REPRESENTATION_CONTEXT(2) 
PARAMETRIC_REPRESENTATION_CONTEXT() REPRESENTATION_CONTEXT('2D SPACE',''
  ) );
#43 = PCURVE('',#44,#49);
#44 = PLANE('',#45);
#45 = AXIS2_PLACEMENT_3D('',#46,#47,#48);
#46 = CARTESIAN_POINT('',(2.273736754432E-16,-23.68033988749,
    -14.63525491562));
#47 = DIRECTION('',(-0.,-0.850650808352,-0.525731112119));
#48 = DIRECTION('',(0.,0.525731112119,-0.850650808352));
#49 = DEFINITIONAL_REPRESENTATION('',(#50),#53);
#50 = B_SPLINE_CURVE_WITH_KNOTS('',1,(#51,#52),.UNSPECIFIED.,.F.,.F.,(2,
    2),(0.,25.),.PIECEWISE_BEZIER_KNOTS.);
#51 = CARTESIAN_POINT('',(6.571638901489,-20.22542485937));
#52 = CARTESIAN_POINT('',(-17.20477400589,-12.5));
#53 = ( GEOMETRIC_REPRESENTATION_CONTEXT(2) 
PARAMETRIC_REPRESENTATION_CONTEXT() REPRESENTATION_CONTEXT('2D SPACE',''
  ) );
#54 = ORIENTED_EDGE('',*,*,#55,.T.);
#55 = EDGE_CURVE('',#24,#56,#58,.T.);
#56 = VERTEX_POINT('',#57);
#57 = CARTESIAN_POINT('',(-20.22542485937,-20.22542485937,
    20.225424859374));
#58 = SURFACE_CURVE('',#59,(#63,#70),.PCURVE_S1.);
#59 = LINE('',#60,#61);
#60 = CARTESIAN_POINT('',(-12.5,-32.72542485937,0.));
#61 = VECTOR('',#62,1.);
#62 = DIRECTION('',(-0.309016994375,0.5,0.809016994375));
#63 = PCURVE('',#32,#64);
#64 = DEFINITIONAL_REPRESENTATION('',(#65),#69);
#65 = LINE('',#66,#67);
#66 = CARTESIAN_POINT('',(21.266270208801,-2.273736754432E-16));
#67 = VECTOR('',#68,1.);
#68 = DIRECTION('',(-0.587785252292,0.809016994375));
#69 = ( GEOMETRIC_REPRESENTATION_CONTEXT(2) 
PARAMETRIC_REPRESENTATION_CONTEXT() REPRESENTATION_CONTEXT('2D SPACE',''
  ) );
#70 = PCURVE('',#71,#76);
#71 = PLANE('',#72);
#72 = AXIS2_PLACEMENT_3D('',#73,#74,#75);
#73 = CARTESIAN_POINT('',(2.273736754432E-16,-23.68033988749,
    14.635254915624));
#74 = DIRECTION('',(-0.,-0.850650808352,0.525731112119));
#75 = DIRECTION('',(0.,-0.525731112119,-0.850650808352));
#76 = DEFINITIONAL_REPRESENTATION('',(#77),#80);
#77 = B_SPLINE_CURVE_WITH_KNOTS('',1,(#78,#79),.UNSPECIFIED.,.F.,.F.,(2,
    2),(0.,25.),.PIECEWISE_BEZIER_KNOTS.);
#78 = CARTESIAN_POINT('',(17.20477400589,-12.5));
#79 = CARTESIAN_POINT('',(-6.571638901489,-20.22542485937));
#80 = ( GEOMETRIC_REPRESENTATION_CONTEXT(2) 
PARAMETRIC_REPRESENTATION_CONTEXT() REPRESENTATION_CONTEXT('2D SPACE',''
  ) );
#81 = ORIENTED_EDGE('',*,*,#82,.T.);
#82 = EDGE_CURVE('',#56,#83,#85,.T.);
#83 = VERTEX_POINT('',#84);
#84 = CARTESIAN_POINT('',(-32.72542485937,0.,12.5));
#85 = SURFACE_CURVE('',#86,(#90,#97),.PCURVE_S1.);
#86 = LINE('',#87,#88);
#87 = CARTESIAN_POINT('',(-20.22542485937,-20.22542485937,
    20.225424859374));
#88 = VECTOR('',#89,1.);
#89 = DIRECTION('',(-0.5,0.809016994375,-0.309016994375));
#90 = PCURVE('',#32,#91);
#91 = DEFINITIONAL_REPRESENTATION('',(#92),#96);
#92 = LINE('',#93,#94);
#93 = CARTESIAN_POINT('',(6.571638901489,20.225424859374));
#94 = VECTOR('',#95,1.);
#95 = DIRECTION('',(-0.951056516295,-0.309016994375));
#96 = ( GEOMETRIC_REPRESENTATION_CONTEXT(2) 
PARAMETRIC_REPRESENTATION_CONTEXT() REPRESENTATION_CONTEXT('2D SPACE',''
  ) );
#97 = PCURVE('',#98,#103);
#98 = PLANE('',#99);
#99 = AXIS2_PLACEMENT_3D('',#100,#101,#102);
#100 = CARTESIAN_POINT('',(-14.63525491562,2.273736754432E-16,
    23.680339887499));
#101 = DIRECTION('',(-0.525731112119,0.,0.850650808352));
#102 = DIRECTION('',(0.850650808352,0.,0.525731112119));
#103 = DEFINITIONAL_REPRESENTATION('',(#104),#107);
#104 = B_SPLINE_CURVE_WITH_KNOTS('',1,(#105,#106),.UNSPECIFIED.,.F.,.F.,
  (2,2),(0.,25.),.PIECEWISE_BEZIER_KNOTS.);
#105 = CARTESIAN_POINT('',(-6.571638901489,-20.22542485937));
#106 = CARTESIAN_POINT('',(-21.2662702088,0.));
#107 = ( GEOMETRIC_REPRESENTATION_CONTEXT(2) 
PARAMETRIC_REPRESENTATION_CONTEXT() REPRESENTATION_CONTEXT('2D SPACE',''
  ) );
#108 = ORIENTED_EDGE('',*,*,#109,.T.);
#109 = EDGE_CURVE('',#83,#110,#112,.T.);
#110 = VERTEX_POINT('',#111);
#111 = CARTESIAN_POINT('',(-32.72542485937,0.,-12.5));
#112 = SURFACE_CURVE('',#113,(#117,#124),.PCURVE_S1.);
#113 = LINE('',#114,#115);
#114 = CARTESIAN_POINT('',(-32.72542485937,0.,12.5));
#115 = VECTOR('',#116,1.);
#116 = DIRECTION('',(0.,0.,-1.));
#117 = PCURVE('',#32,#118);
#118 = DEFINITIONAL_REPRESENTATION('',(#119),#123);
#119 = LINE('',#120,#121);
#120 = CARTESIAN_POINT('',(-17.20477400589,12.5));
#121 = VECTOR('',#122,1.);
#122 = DIRECTION('',(0.,-1.));
#123 = ( GEOMETRIC_REPRESENTATION_CONTEXT(2) 
PARAMETRIC_REPRESENTATION_CONTEXT() REPRESENTATION_CONTEXT('2D SPACE',''
  ) );
#124 = PCURVE('',#125,#130);
#125 = PLANE('',#126);
#126 = AXIS2_PLACEMENT_3D('',#127,#128,#129);
#127 = CARTESIAN_POINT('',(-23.68033988749,14.635254915624,
    2.273736754432E-16));
#128 = DIRECTION('',(-0.850650808352,0.525731112119,-0.));
#129 = DIRECTION('',(-0.525731112119,-0.850650808352,0.));
#130 = DEFINITIONAL_REPRESENTATION('',(#131),#134);
#131 = B_SPLINE_CURVE_WITH_KNOTS('',1,(#132,#133),.UNSPECIFIED.,.F.,.F.,
  (2,2),(0.,25.),.PIECEWISE_BEZIER_KNOTS.);
#132 = CARTESIAN_POINT('',(17.20477400589,12.5));
#133 = CARTESIAN_POINT('',(17.20477400589,-12.5));
#134 = ( GEOMETRIC_REPRESENTATION_CONTEXT(2) 
PARAMETRIC_REPRESENTATION_CONTEXT() REPRESENTATION_CONTEXT('2D SPACE',''
  ) );
#135 = ORIENTED_EDGE('',*,*,#136,.T.);
#136 = EDGE_CURVE('',#110,#22,#137,.T.);
#137 = SURFACE_CURVE('',#138,(#142,#149),.PCURVE_S1.);
#138 = LINE('',#139,#140);
#139 = CARTESIAN_POINT('',(-32.72542485937,0.,-12.5));
#140 = VECTOR('',#141,1.);
#141 = DIRECTION('',(0.5,-0.809016994375,-0.309016994375));
#142 = PCURVE('',#32,#143);
#143 = DEFINITIONAL_REPRESENTATION('',(#144),#148);
#144 = LINE('',#145,#146);
#145 = CARTESIAN_POINT('',(-17.20477400589,-12.5));
#146 = VECTOR('',#147,1.);
#147 = DIRECTION('',(0.951056516295,-0.309016994375));
#148 = ( GEOMETRIC_REPRESENTATION_CONTEXT(2) 
PARAMETRIC_REPRESENTATION_CONTEXT() REPRESENTATION_CONTEXT('2D SPACE',''
  ) );
#149 = PCURVE('',#150,#155);
#150 = PLANE('',#151);
#151 = AXIS2_PLACEMENT_3D('',#152,#153,#154);
#152 = CARTESIAN_POINT('',(-14.63525491562,2.273736754432E-16,
    -23.68033988749));
#153 = DIRECTION('',(-0.525731112119,-0.,-0.850650808352));
#154 = DIRECTION('',(-0.850650808352,0.,0.525731112119));
#155 = DEFINITIONAL_REPRESENTATION('',(#156),#159);
#156 = B_SPLINE_CURVE_WITH_KNOTS('',1,(#157,#158),.UNSPECIFIED.,.F.,.F.,
  (2,2),(0.,25.),.PIECEWISE_BEZIER_KNOTS.);
#157 = CARTESIAN_POINT('',(21.266270208801,0.));
#158 = CARTESIAN_POINT('',(6.571638901489,-20.22542485937));
#159 = ( GEOMETRIC_REPRESENTATION_CONTEXT(2) 
PARAMETRIC_REPRESENTATION_CONTEXT() REPRESENTATION_CONTEXT('2D SPACE',''
  ) );
#160 = ADVANCED_FACE('',(#161),#150,.T.);
#161 = FACE_BOUND('',#162,.T.);
#162 = EDGE_LOOP('',(#163,#185,#212,#239,#259));
#163 = ORIENTED_EDGE('',*,*,#164,.T.);
#164 = EDGE_CURVE('',#110,#165,#167,.T.);
#165 = VERTEX_POINT('',#166);
#166 = CARTESIAN_POINT('',(-20.22542485937,20.225424859374,
    -20.22542485937));
#167 = SURFACE_CURVE('',#168,(#172,#179),.PCURVE_S1.);
#168 = LINE('',#169,#170);
#169 = CARTESIAN_POINT('',(-32.72542485937,0.,-12.5));
#170 = VECTOR('',#171,1.);
#171 = DIRECTION('',(0.5,0.809016994375,-0.309016994375));
#172 = PCURVE('',#150,#173);
#173 = DEFINITIONAL_REPRESENTATION('',(#174),#178);
#174 = LINE('',#175,#176);
#175 = CARTESIAN_POINT('',(21.266270208801,-2.273736754432E-16));
#176 = VECTOR('',#177,1.);
#177 = DIRECTION('',(-0.587785252292,0.809016994375));
#178 = ( GEOMETRIC_REPRESENTATION_CONTEXT(2) 
PARAMETRIC_REPRESENTATION_CONTEXT() REPRESENTATION_CONTEXT('2D SPACE',''
  ) );
#179 = PCURVE('',#125,#180);
#180 = DEFINITIONAL_REPRESENTATION('',(#181),#184);
#181 = B_SPLINE_CURVE_WITH_KNOTS('',1,(#182,#183),.UNSPECIFIED.,.F.,.F.,
  (2,2),(0.,25.),.PIECEWISE_BEZIER_KNOTS.);
#182 = CARTESIAN_POINT('',(17.20477400589,-12.5));
#183 = CARTESIAN_POINT('',(-6.571638901489,-20.22542485937));
#184 = ( GEOMETRIC_REPRESENTATION_CONTEXT(2) 
PARAMETRIC_REPRESENTATION_CONTEXT() REPRESENTATION_CONTEXT('2D SPACE',''
  ) );
#185 = ORIENTED_EDGE('',*,*,#186,.T.);
#186 = EDGE_CURVE('',#165,#187,#189,.T.);
#187 = VERTEX_POINT('',#188);
#188 = CARTESIAN_POINT('',(0.,12.5,-32.72542485937));
#189 = SURFACE_CURVE('',#190,(#194,#201),.PCURVE_S1.);
#190 = LINE('',#191,#192);
#191 = CARTESIAN_POINT('',(-20.22542485937,20.225424859374,
    -20.22542485937));
#192 = VECTOR('',#193,1.);
#193 = DIRECTION('',(0.809016994375,-0.309016994375,-0.5));
#194 = PCURVE('',#150,#195);
#195 = DEFINITIONAL_REPRESENTATION('',(#196),#200);
#196 = LINE('',#197,#198);
#197 = CARTESIAN_POINT('',(6.571638901489,20.225424859374));
#198 = VECTOR('',#199,1.);
#199 = DIRECTION('',(-0.951056516295,-0.309016994375));
#200 = ( GEOMETRIC_REPRESENTATION_CONTEXT(2) 
PARAMETRIC_REPRESENTATION_CONTEXT() REPRESENTATION_CONTEXT('2D SPACE',''
  ) );
#201 = PCURVE('',#202,#207);
#202 = PLANE('',#203);
#203 = AXIS2_PLACEMENT_3D('',#204,#205,#206);
#204 = CARTESIAN_POINT('',(2.273736754432E-16,23.680339887499,
    -14.63525491562));
#205 = DIRECTION('',(0.,0.850650808352,-0.525731112119));
#206 = DIRECTION('',(0.,0.525731112119,0.850650808352));
#207 = DEFINITIONAL_REPRESENTATION('',(#208),#211);
#208 = B_SPLINE_CURVE_WITH_KNOTS('',1,(#209,#210),.UNSPECIFIED.,.F.,.F.,
  (2,2),(0.,25.),.PIECEWISE_BEZIER_KNOTS.);
#209 = CARTESIAN_POINT('',(-6.571638901489,-20.22542485937));
#210 = CARTESIAN_POINT('',(-21.2662702088,0.));
#211 = ( GEOMETRIC_REPRESENTATION_CONTEXT(2) 
PARAMETRIC_REPRESENTATION_CONTEXT() REPRESENTATION_CONTEXT('2D SPACE',''
  ) );
#212 = ORIENTED_EDGE('',*,*,#213,.T.);
#213 = EDGE_CURVE('',#187,#214,#216,.T.);
#214 = VERTEX_POINT('',#215);
#215 = CARTESIAN_POINT('',(0.,-12.5,-32.72542485937));
#216 = SURFACE_CURVE('',#217,(#221,#228),.PCURVE_S1.);
#217 = LINE('',#218,#219);
#218 = CARTESIAN_POINT('',(0.,12.5,-32.72542485937));
#219 = VECTOR('',#220,1.);
#220 = DIRECTION('',(0.,-1.,0.));
#221 = PCURVE('',#150,#222);
#222 = DEFINITIONAL_REPRESENTATION('',(#223),#227);
#223 = LINE('',#224,#225);
#224 = CARTESIAN_POINT('',(-17.20477400589,12.5));
#225 = VECTOR('',#226,1.);
#226 = DIRECTION('',(0.,-1.));
#227 = ( GEOMETRIC_REPRESENTATION_CONTEXT(2) 
PARAMETRIC_REPRESENTATION_CONTEXT() REPRESENTATION_CONTEXT('2D SPACE',''
  ) );
#228 = PCURVE('',#229,#234);
#229 = PLANE('',#230);
#230 = AXIS2_PLACEMENT_3D('',#231,#232,#233);
#231 = CARTESIAN_POINT('',(14.635254915624,2.273736754432E-16,
    -23.68033988749));
#232 = DIRECTION('',(0.525731112119,-0.,-0.850650808352));
#233 = DIRECTION('',(-0.850650808352,0.,-0.525731112119));
#234 = DEFINITIONAL_REPRESENTATION('',(#235),#238);
#235 = B_SPLINE_CURVE_WITH_KNOTS('',1,(#236,#237),.UNSPECIFIED.,.F.,.F.,
  (2,2),(0.,25.),.PIECEWISE_BEZIER_KNOTS.);
#236 = CARTESIAN_POINT('',(17.20477400589,12.5));
#237 = CARTESIAN_POINT('',(17.20477400589,-12.5));
#238 = ( GEOMETRIC_REPRESENTATION_CONTEXT(2) 
PARAMETRIC_REPRESENTATION_CONTEXT() REPRESENTATION_CONTEXT('2D SPACE',''
  ) );
#239 = ORIENTED_EDGE('',*,*,#240,.T.);
#240 = EDGE_CURVE('',#214,#22,#241,.T.);
#241 = SURFACE_CURVE('',#242,(#246,#253),.PCURVE_S1.);
#242 = LINE('',#243,#244);
#243 = CARTESIAN_POINT('',(0.,-12.5,-32.72542485937));
#244 = VECTOR('',#245,1.);
#245 = DIRECTION('',(-0.809016994375,-0.309016994375,0.5));
#246 = PCURVE('',#150,#247);
#247 = DEFINITIONAL_REPRESENTATION('',(#248),#252);
#248 = LINE('',#249,#250);
#249 = CARTESIAN_POINT('',(-17.20477400589,-12.5));
#250 = VECTOR('',#251,1.);
#251 = DIRECTION('',(0.951056516295,-0.309016994375));
#252 = ( GEOMETRIC_REPRESENTATION_CONTEXT(2) 
PARAMETRIC_REPRESENTATION_CONTEXT() REPRESENTATION_CONTEXT('2D SPACE',''
  ) );
#253 = PCURVE('',#44,#254);
#254 = DEFINITIONAL_REPRESENTATION('',(#255),#258);
#255 = B_SPLINE_CURVE_WITH_KNOTS('',1,(#256,#257),.UNSPECIFIED.,.F.,.F.,
  (2,2),(0.,25.),.PIECEWISE_BEZIER_KNOTS.);
#256 = CARTESIAN_POINT('',(21.266270208801,3.552713678801E-15));
#257 = CARTESIAN_POINT('',(6.571638901489,-20.22542485937));
#258 = ( GEOMETRIC_REPRESENTATION_CONTEXT(2) 
PARAMETRIC_REPRESENTATION_CONTEXT() REPRESENTATION_CONTEXT('2D SPACE',''
  ) );
#259 = ORIENTED_EDGE('',*,*,#136,.F.);
#260 = ADVANCED_FACE('',(#261),#44,.T.);
#261 = FACE_BOUND('',#262,.T.);
#262 = EDGE_LOOP('',(#263,#264,#286,#313,#333));
#263 = ORIENTED_EDGE('',*,*,#240,.F.);
#264 = ORIENTED_EDGE('',*,*,#265,.T.);
#265 = EDGE_CURVE('',#214,#266,#268,.T.);
#266 = VERTEX_POINT('',#267);
#267 = CARTESIAN_POINT('',(20.225424859374,-20.22542485937,
    -20.22542485937));
#268 = SURFACE_CURVE('',#269,(#273,#280),.PCURVE_S1.);
#269 = LINE('',#270,#271);
#270 = CARTESIAN_POINT('',(0.,-12.5,-32.72542485937));
#271 = VECTOR('',#272,1.);
#272 = DIRECTION('',(0.809016994375,-0.309016994375,0.5));
#273 = PCURVE('',#44,#274);
#274 = DEFINITIONAL_REPRESENTATION('',(#275),#279);
#275 = LINE('',#276,#277);
#276 = CARTESIAN_POINT('',(21.266270208801,-2.273736754432E-16));
#277 = VECTOR('',#278,1.);
#278 = DIRECTION('',(-0.587785252292,0.809016994375));
#279 = ( GEOMETRIC_REPRESENTATION_CONTEXT(2) 
PARAMETRIC_REPRESENTATION_CONTEXT() REPRESENTATION_CONTEXT('2D SPACE',''
  ) );
#280 = PCURVE('',#229,#281);
#281 = DEFINITIONAL_REPRESENTATION('',(#282),#285);
#282 = B_SPLINE_CURVE_WITH_KNOTS('',1,(#283,#284),.UNSPECIFIED.,.F.,.F.,
  (2,2),(0.,25.),.PIECEWISE_BEZIER_KNOTS.);
#283 = CARTESIAN_POINT('',(17.20477400589,-12.5));
#284 = CARTESIAN_POINT('',(-6.571638901489,-20.22542485937));
#285 = ( GEOMETRIC_REPRESENTATION_CONTEXT(2) 
PARAMETRIC_REPRESENTATION_CONTEXT() REPRESENTATION_CONTEXT('2D SPACE',''
  ) );
#286 = ORIENTED_EDGE('',*,*,#287,.T.);
#287 = EDGE_CURVE('',#266,#288,#290,.T.);
#288 = VERTEX_POINT('',#289);
#289 = CARTESIAN_POINT('',(12.5,-32.72542485937,0.));
#290 = SURFACE_CURVE('',#291,(#295,#302),.PCURVE_S1.);
#291 = LINE('',#292,#293);
#292 = CARTESIAN_POINT('',(20.225424859374,-20.22542485937,
    -20.22542485937));
#293 = VECTOR('',#294,1.);
#294 = DIRECTION('',(-0.309016994375,-0.5,0.809016994375));
#295 = PCURVE('',#44,#296);
#296 = DEFINITIONAL_REPRESENTATION('',(#297),#301);
#297 = LINE('',#298,#299);
#298 = CARTESIAN_POINT('',(6.571638901489,20.225424859374));
#299 = VECTOR('',#300,1.);
#300 = DIRECTION('',(-0.951056516295,-0.309016994375));
#301 = ( GEOMETRIC_REPRESENTATION_CONTEXT(2) 
PARAMETRIC_REPRESENTATION_CONTEXT() REPRESENTATION_CONTEXT('2D SPACE',''
  ) );
#302 = PCURVE('',#303,#308);
#303 = PLANE('',#304);
#304 = AXIS2_PLACEMENT_3D('',#305,#306,#307);
#305 = CARTESIAN_POINT('',(23.680339887499,-14.63525491562,
    2.273736754432E-16));
#306 = DIRECTION('',(0.850650808352,-0.525731112119,0.));
#307 = DIRECTION('',(0.525731112119,0.850650808352,0.));
#308 = DEFINITIONAL_REPRESENTATION('',(#309),#312);
#309 = B_SPLINE_CURVE_WITH_KNOTS('',1,(#310,#311),.UNSPECIFIED.,.F.,.F.,
  (2,2),(0.,25.),.PIECEWISE_BEZIER_KNOTS.);
#310 = CARTESIAN_POINT('',(-6.571638901489,-20.22542485937));
#311 = CARTESIAN_POINT('',(-21.2662702088,0.));
#312 = ( GEOMETRIC_REPRESENTATION_CONTEXT(2) 
PARAMETRIC_REPRESENTATION_CONTEXT() REPRESENTATION_CONTEXT('2D SPACE',''
  ) );
#313 = ORIENTED_EDGE('',*,*,#314,.T.);
#314 = EDGE_CURVE('',#288,#24,#315,.T.);
#315 = SURFACE_CURVE('',#316,(#320,#327),.PCURVE_S1.);
#316 = LINE('',#317,#318);
#317 = CARTESIAN_POINT('',(12.5,-32.72542485937,0.));
#318 = VECTOR('',#319,1.);
#319 = DIRECTION('',(-1.,0.,0.));
#320 = PCURVE('',#44,#321);
#321 = DEFINITIONAL_REPRESENTATION('',(#322),#326);
#322 = LINE('',#323,#324);
#323 = CARTESIAN_POINT('',(-17.20477400589,12.5));
#324 = VECTOR('',#325,1.);
#325 = DIRECTION('',(0.,-1.));
#326 = ( GEOMETRIC_REPRESENTATION_CONTEXT(2) 
PARAMETRIC_REPRESENTATION_CONTEXT() REPRESENTATION_CONTEXT('2D SPACE',''
  ) );
#327 = PCURVE('',#71,#328);
#328 = DEFINITIONAL_REPRESENTATION('',(#329),#332);
#329 = B_SPLINE_CURVE_WITH_KNOTS('',1,(#330,#331),.UNSPECIFIED.,.F.,.F.,
  (2,2),(0.,25.),.PIECEWISE_BEZIER_KNOTS.);
#330 = CARTESIAN_POINT('',(17.20477400589,12.5));
#331 = CARTESIAN_POINT('',(17.20477400589,-12.5));
#332 = ( GEOMETRIC_REPRESENTATION_CONTEXT(2) 
PARAMETRIC_REPRESENTATION_CONTEXT() REPRESENTATION_CONTEXT('2D SPACE',''
  ) );
#333 = ORIENTED_EDGE('',*,*,#21,.F.);
#334 = ADVANCED_FACE('',(#335),#98,.T.);
#335 = FACE_BOUND('',#336,.T.);
#336 = EDGE_LOOP('',(#337,#359,#386,#413,#433));
#337 = ORIENTED_EDGE('',*,*,#338,.T.);
#338 = EDGE_CURVE('',#56,#339,#341,.T.);
#339 = VERTEX_POINT('',#340);
#340 = CARTESIAN_POINT('',(0.,-12.5,32.725424859374));
#341 = SURFACE_CURVE('',#342,(#346,#353),.PCURVE_S1.);
#342 = LINE('',#343,#344);
#343 = CARTESIAN_POINT('',(-20.22542485937,-20.22542485937,
    20.225424859374));
#344 = VECTOR('',#345,1.);
#345 = DIRECTION('',(0.809016994375,0.309016994375,0.5));
#346 = PCURVE('',#98,#347);
#347 = DEFINITIONAL_REPRESENTATION('',(#348),#352);
#348 = LINE('',#349,#350);
#349 = CARTESIAN_POINT('',(-6.571638901489,-20.22542485937));
#350 = VECTOR('',#351,1.);
#351 = DIRECTION('',(0.951056516295,0.309016994375));
#352 = ( GEOMETRIC_REPRESENTATION_CONTEXT(2) 
PARAMETRIC_REPRESENTATION_CONTEXT() REPRESENTATION_CONTEXT('2D SPACE',''
  ) );
#353 = PCURVE('',#71,#354);
#354 = DEFINITIONAL_REPRESENTATION('',(#355),#358);
#355 = B_SPLINE_CURVE_WITH_KNOTS('',1,(#356,#357),.UNSPECIFIED.,.F.,.F.,
  (2,2),(0.,25.),.PIECEWISE_BEZIER_KNOTS.);
#356 = CARTESIAN_POINT('',(-6.571638901489,-20.22542485937));
#357 = CARTESIAN_POINT('',(-21.2662702088,0.));
#358 = ( GEOMETRIC_REPRESENTATION_CONTEXT(2) 
PARAMETRIC_REPRESENTATION_CONTEXT() REPRESENTATION_CONTEXT('2D SPACE',''
  ) );
#359 = ORIENTED_EDGE('',*,*,#360,.T.);
#360 = EDGE_CURVE('',#339,#361,#363,.T.);
#361 = VERTEX_POINT('',#362);
#362 = CARTESIAN_POINT('',(0.,12.5,32.725424859374));
#363 = SURFACE_CURVE('',#364,(#368,#375),.PCURVE_S1.);
#364 = LINE('',#365,#366);
#365 = CARTESIAN_POINT('',(0.,-12.5,32.725424859374));
#366 = VECTOR('',#367,1.);
#367 = DIRECTION('',(0.,1.,0.));
#368 = PCURVE('',#98,#369);
#369 = DEFINITIONAL_REPRESENTATION('',(#370),#374);
#370 = LINE('',#371,#372);
#371 = CARTESIAN_POINT('',(17.20477400589,-12.5));
#372 = VECTOR('',#373,1.);
#373 = DIRECTION('',(0.,1.));
#374 = ( GEOMETRIC_REPRESENTATION_CONTEXT(2) 
PARAMETRIC_REPRESENTATION_CONTEXT() REPRESENTATION_CONTEXT('2D SPACE',''
  ) );
#375 = PCURVE('',#376,#381);
#376 = PLANE('',#377);
#377 = AXIS2_PLACEMENT_3D('',#378,#379,#380);
#378 = CARTESIAN_POINT('',(14.635254915624,2.273736754432E-16,
    23.680339887499));
#379 = DIRECTION('',(0.525731112119,0.,0.850650808352));
#380 = DIRECTION('',(0.850650808352,0.,-0.525731112119));
#381 = DEFINITIONAL_REPRESENTATION('',(#382),#385);
#382 = B_SPLINE_CURVE_WITH_KNOTS('',1,(#383,#384),.UNSPECIFIED.,.F.,.F.,
  (2,2),(0.,25.),.PIECEWISE_BEZIER_KNOTS.);
#383 = CARTESIAN_POINT('',(-17.20477400589,-12.5));
#384 = CARTESIAN_POINT('',(-17.20477400589,12.5));
#385 = ( GEOMETRIC_REPRESENTATION_CONTEXT(2) 
PARAMETRIC_REPRESENTATION_CONTEXT() REPRESENTATION_CONTEXT('2D SPACE',''
  ) );
#386 = ORIENTED_EDGE('',*,*,#387,.T.);
#387 = EDGE_CURVE('',#361,#388,#390,.T.);
#388 = VERTEX_POINT('',#389);
#389 = CARTESIAN_POINT('',(-20.22542485937,20.225424859374,
    20.225424859374));
#390 = SURFACE_CURVE('',#391,(#395,#402),.PCURVE_S1.);
#391 = LINE('',#392,#393);
#392 = CARTESIAN_POINT('',(0.,12.5,32.725424859374));
#393 = VECTOR('',#394,1.);
#394 = DIRECTION('',(-0.809016994375,0.309016994375,-0.5));
#395 = PCURVE('',#98,#396);
#396 = DEFINITIONAL_REPRESENTATION('',(#397),#401);
#397 = LINE('',#398,#399);
#398 = CARTESIAN_POINT('',(17.20477400589,12.5));
#399 = VECTOR('',#400,1.);
#400 = DIRECTION('',(-0.951056516295,0.309016994375));
#401 = ( GEOMETRIC_REPRESENTATION_CONTEXT(2) 
PARAMETRIC_REPRESENTATION_CONTEXT() REPRESENTATION_CONTEXT('2D SPACE',''
  ) );
#402 = PCURVE('',#403,#408);
#403 = PLANE('',#404);
#404 = AXIS2_PLACEMENT_3D('',#405,#406,#407);
#405 = CARTESIAN_POINT('',(2.273736754432E-16,23.680339887499,
    14.635254915624));
#406 = DIRECTION('',(0.,0.850650808352,0.525731112119));
#407 = DIRECTION('',(0.,-0.525731112119,0.850650808352));
#408 = DEFINITIONAL_REPRESENTATION('',(#409),#412);
#409 = B_SPLINE_CURVE_WITH_KNOTS('',1,(#410,#411),.UNSPECIFIED.,.F.,.F.,
  (2,2),(0.,25.),.PIECEWISE_BEZIER_KNOTS.);
#410 = CARTESIAN_POINT('',(21.266270208801,3.552713678801E-15));
#411 = CARTESIAN_POINT('',(6.571638901489,-20.22542485937));
#412 = ( GEOMETRIC_REPRESENTATION_CONTEXT(2) 
PARAMETRIC_REPRESENTATION_CONTEXT() REPRESENTATION_CONTEXT('2D SPACE',''
  ) );
#413 = ORIENTED_EDGE('',*,*,#414,.T.);
#414 = EDGE_CURVE('',#388,#83,#415,.T.);
#415 = SURFACE_CURVE('',#416,(#420,#427),.PCURVE_S1.);
#416 = LINE('',#417,#418);
#417 = CARTESIAN_POINT('',(-20.22542485937,20.225424859374,
    20.225424859374));
#418 = VECTOR('',#419,1.);
#419 = DIRECTION('',(-0.5,-0.809016994375,-0.309016994375));
#420 = PCURVE('',#98,#421);
#421 = DEFINITIONAL_REPRESENTATION('',(#422),#426);
#422 = LINE('',#423,#424);
#423 = CARTESIAN_POINT('',(-6.571638901489,20.225424859374));
#424 = VECTOR('',#425,1.);
#425 = DIRECTION('',(-0.587785252292,-0.809016994375));
#426 = ( GEOMETRIC_REPRESENTATION_CONTEXT(2) 
PARAMETRIC_REPRESENTATION_CONTEXT() REPRESENTATION_CONTEXT('2D SPACE',''
  ) );
#427 = PCURVE('',#125,#428);
#428 = DEFINITIONAL_REPRESENTATION('',(#429),#432);
#429 = B_SPLINE_CURVE_WITH_KNOTS('',1,(#430,#431),.UNSPECIFIED.,.F.,.F.,
  (2,2),(0.,25.),.PIECEWISE_BEZIER_KNOTS.);
#430 = CARTESIAN_POINT('',(-6.571638901489,20.225424859374));
#431 = CARTESIAN_POINT('',(17.20477400589,12.5));
#432 = ( GEOMETRIC_REPRESENTATION_CONTEXT(2) 
PARAMETRIC_REPRESENTATION_CONTEXT() REPRESENTATION_CONTEXT('2D SPACE',''
  ) );
#433 = ORIENTED_EDGE('',*,*,#82,.F.);
#434 = ADVANCED_FACE('',(#435),#71,.T.);
#435 = FACE_BOUND('',#436,.T.);
#436 = EDGE_LOOP('',(#437,#438,#460,#480,#481));
#437 = ORIENTED_EDGE('',*,*,#314,.F.);
#438 = ORIENTED_EDGE('',*,*,#439,.T.);
#439 = EDGE_CURVE('',#288,#440,#442,.T.);
#440 = VERTEX_POINT('',#441);
#441 = CARTESIAN_POINT('',(20.225424859374,-20.22542485937,
    20.225424859374));
#442 = SURFACE_CURVE('',#443,(#447,#454),.PCURVE_S1.);
#443 = LINE('',#444,#445);
#444 = CARTESIAN_POINT('',(12.5,-32.72542485937,0.));
#445 = VECTOR('',#446,1.);
#446 = DIRECTION('',(0.309016994375,0.5,0.809016994375));
#447 = PCURVE('',#71,#448);
#448 = DEFINITIONAL_REPRESENTATION('',(#449),#453);
#449 = LINE('',#450,#451);
#450 = CARTESIAN_POINT('',(17.20477400589,12.5));
#451 = VECTOR('',#452,1.);
#452 = DIRECTION('',(-0.951056516295,0.309016994375));
#453 = ( GEOMETRIC_REPRESENTATION_CONTEXT(2) 
PARAMETRIC_REPRESENTATION_CONTEXT() REPRESENTATION_CONTEXT('2D SPACE',''
  ) );
#454 = PCURVE('',#303,#455);
#455 = DEFINITIONAL_REPRESENTATION('',(#456),#459);
#456 = B_SPLINE_CURVE_WITH_KNOTS('',1,(#457,#458),.UNSPECIFIED.,.F.,.F.,
  (2,2),(0.,25.),.PIECEWISE_BEZIER_KNOTS.);
#457 = CARTESIAN_POINT('',(-21.2662702088,0.));
#458 = CARTESIAN_POINT('',(-6.571638901489,20.225424859374));
#459 = ( GEOMETRIC_REPRESENTATION_CONTEXT(2) 
PARAMETRIC_REPRESENTATION_CONTEXT() REPRESENTATION_CONTEXT('2D SPACE',''
  ) );
#460 = ORIENTED_EDGE('',*,*,#461,.T.);
#461 = EDGE_CURVE('',#440,#339,#462,.T.);
#462 = SURFACE_CURVE('',#463,(#467,#474),.PCURVE_S1.);
#463 = LINE('',#464,#465);
#464 = CARTESIAN_POINT('',(20.225424859374,-20.22542485937,
    20.225424859374));
#465 = VECTOR('',#466,1.);
#466 = DIRECTION('',(-0.809016994375,0.309016994375,0.5));
#467 = PCURVE('',#71,#468);
#468 = DEFINITIONAL_REPRESENTATION('',(#469),#473);
#469 = LINE('',#470,#471);
#470 = CARTESIAN_POINT('',(-6.571638901489,20.225424859374));
#471 = VECTOR('',#472,1.);
#472 = DIRECTION('',(-0.587785252292,-0.809016994375));
#473 = ( GEOMETRIC_REPRESENTATION_CONTEXT(2) 
PARAMETRIC_REPRESENTATION_CONTEXT() REPRESENTATION_CONTEXT('2D SPACE',''
  ) );
#474 = PCURVE('',#376,#475);
#475 = DEFINITIONAL_REPRESENTATION('',(#476),#479);
#476 = B_SPLINE_CURVE_WITH_KNOTS('',1,(#477,#478),.UNSPECIFIED.,.F.,.F.,
  (2,2),(0.,25.),.PIECEWISE_BEZIER_KNOTS.);
#477 = CARTESIAN_POINT('',(6.571638901489,-20.22542485937));
#478 = CARTESIAN_POINT('',(-17.20477400589,-12.5));
#479 = ( GEOMETRIC_REPRESENTATION_CONTEXT(2) 
PARAMETRIC_REPRESENTATION_CONTEXT() REPRESENTATION_CONTEXT('2D SPACE',''
  ) );
#480 = ORIENTED_EDGE('',*,*,#338,.F.);
#481 = ORIENTED_EDGE('',*,*,#55,.F.);
#482 = ADVANCED_FACE('',(#483),#125,.T.);
#483 = FACE_BOUND('',#484,.T.);
#484 = EDGE_LOOP('',(#485,#486,#487,#509,#529));
#485 = ORIENTED_EDGE('',*,*,#109,.F.);
#486 = ORIENTED_EDGE('',*,*,#414,.F.);
#487 = ORIENTED_EDGE('',*,*,#488,.T.);
#488 = EDGE_CURVE('',#388,#489,#491,.T.);
#489 = VERTEX_POINT('',#490);
#490 = CARTESIAN_POINT('',(-12.5,32.725424859374,0.));
#491 = SURFACE_CURVE('',#492,(#496,#503),.PCURVE_S1.);
#492 = LINE('',#493,#494);
#493 = CARTESIAN_POINT('',(-20.22542485937,20.225424859374,
    20.225424859374));
#494 = VECTOR('',#495,1.);
#495 = DIRECTION('',(0.309016994375,0.5,-0.809016994375));
#496 = PCURVE('',#125,#497);
#497 = DEFINITIONAL_REPRESENTATION('',(#498),#502);
#498 = LINE('',#499,#500);
#499 = CARTESIAN_POINT('',(-6.571638901489,20.225424859374));
#500 = VECTOR('',#501,1.);
#501 = DIRECTION('',(-0.587785252292,-0.809016994375));
#502 = ( GEOMETRIC_REPRESENTATION_CONTEXT(2) 
PARAMETRIC_REPRESENTATION_CONTEXT() REPRESENTATION_CONTEXT('2D SPACE',''
  ) );
#503 = PCURVE('',#403,#504);
#504 = DEFINITIONAL_REPRESENTATION('',(#505),#508);
#505 = B_SPLINE_CURVE_WITH_KNOTS('',1,(#506,#507),.UNSPECIFIED.,.F.,.F.,
  (2,2),(0.,25.),.PIECEWISE_BEZIER_KNOTS.);
#506 = CARTESIAN_POINT('',(6.571638901489,-20.22542485937));
#507 = CARTESIAN_POINT('',(-17.20477400589,-12.5));
#508 = ( GEOMETRIC_REPRESENTATION_CONTEXT(2) 
PARAMETRIC_REPRESENTATION_CONTEXT() REPRESENTATION_CONTEXT('2D SPACE',''
  ) );
#509 = ORIENTED_EDGE('',*,*,#510,.T.);
#510 = EDGE_CURVE('',#489,#165,#511,.T.);
#511 = SURFACE_CURVE('',#512,(#516,#523),.PCURVE_S1.);
#512 = LINE('',#513,#514);
#513 = CARTESIAN_POINT('',(-12.5,32.725424859374,0.));
#514 = VECTOR('',#515,1.);
#515 = DIRECTION('',(-0.309016994375,-0.5,-0.809016994375));
#516 = PCURVE('',#125,#517);
#517 = DEFINITIONAL_REPRESENTATION('',(#518),#522);
#518 = LINE('',#519,#520);
#519 = CARTESIAN_POINT('',(-21.2662702088,-2.273736754432E-16));
#520 = VECTOR('',#521,1.);
#521 = DIRECTION('',(0.587785252292,-0.809016994375));
#522 = ( GEOMETRIC_REPRESENTATION_CONTEXT(2) 
PARAMETRIC_REPRESENTATION_CONTEXT() REPRESENTATION_CONTEXT('2D SPACE',''
  ) );
#523 = PCURVE('',#202,#524);
#524 = DEFINITIONAL_REPRESENTATION('',(#525),#528);
#525 = B_SPLINE_CURVE_WITH_KNOTS('',1,(#526,#527),.UNSPECIFIED.,.F.,.F.,
  (2,2),(0.,25.),.PIECEWISE_BEZIER_KNOTS.);
#526 = CARTESIAN_POINT('',(17.20477400589,-12.5));
#527 = CARTESIAN_POINT('',(-6.571638901489,-20.22542485937));
#528 = ( GEOMETRIC_REPRESENTATION_CONTEXT(2) 
PARAMETRIC_REPRESENTATION_CONTEXT() REPRESENTATION_CONTEXT('2D SPACE',''
  ) );
#529 = ORIENTED_EDGE('',*,*,#164,.F.);
#530 = ADVANCED_FACE('',(#531),#202,.T.);
#531 = FACE_BOUND('',#532,.T.);
#532 = EDGE_LOOP('',(#533,#555,#582,#602,#603));
#533 = ORIENTED_EDGE('',*,*,#534,.T.);
#534 = EDGE_CURVE('',#489,#535,#537,.T.);
#535 = VERTEX_POINT('',#536);
#536 = CARTESIAN_POINT('',(12.5,32.725424859374,0.));
#537 = SURFACE_CURVE('',#538,(#542,#549),.PCURVE_S1.);
#538 = LINE('',#539,#540);
#539 = CARTESIAN_POINT('',(-12.5,32.725424859374,0.));
#540 = VECTOR('',#541,1.);
#541 = DIRECTION('',(1.,0.,0.));
#542 = PCURVE('',#202,#543);
#543 = DEFINITIONAL_REPRESENTATION('',(#544),#548);
#544 = LINE('',#545,#546);
#545 = CARTESIAN_POINT('',(17.20477400589,-12.5));
#546 = VECTOR('',#547,1.);
#547 = DIRECTION('',(0.,1.));
#548 = ( GEOMETRIC_REPRESENTATION_CONTEXT(2) 
PARAMETRIC_REPRESENTATION_CONTEXT() REPRESENTATION_CONTEXT('2D SPACE',''
  ) );
#549 = PCURVE('',#403,#550);
#550 = DEFINITIONAL_REPRESENTATION('',(#551),#554);
#551 = B_SPLINE_CURVE_WITH_KNOTS('',1,(#552,#553),.UNSPECIFIED.,.F.,.F.,
  (2,2),(0.,25.),.PIECEWISE_BEZIER_KNOTS.);
#552 = CARTESIAN_POINT('',(-17.20477400589,-12.5));
#553 = CARTESIAN_POINT('',(-17.20477400589,12.5));
#554 = ( GEOMETRIC_REPRESENTATION_CONTEXT(2) 
PARAMETRIC_REPRESENTATION_CONTEXT() REPRESENTATION_CONTEXT('2D SPACE',''
  ) );
#555 = ORIENTED_EDGE('',*,*,#556,.T.);
#556 = EDGE_CURVE('',#535,#557,#559,.T.);
#557 = VERTEX_POINT('',#558);
#558 = CARTESIAN_POINT('',(20.225424859374,20.225424859374,
    -20.22542485937));
#559 = SURFACE_CURVE('',#560,(#564,#571),.PCURVE_S1.);
#560 = LINE('',#561,#562);
#561 = CARTESIAN_POINT('',(12.5,32.725424859374,0.));
#562 = VECTOR('',#563,1.);
#563 = DIRECTION('',(0.309016994375,-0.5,-0.809016994375));
#564 = PCURVE('',#202,#565);
#565 = DEFINITIONAL_REPRESENTATION('',(#566),#570);
#566 = LINE('',#567,#568);
#567 = CARTESIAN_POINT('',(17.20477400589,12.5));
#568 = VECTOR('',#569,1.);
#569 = DIRECTION('',(-0.951056516295,0.309016994375));
#570 = ( GEOMETRIC_REPRESENTATION_CONTEXT(2) 
PARAMETRIC_REPRESENTATION_CONTEXT() REPRESENTATION_CONTEXT('2D SPACE',''
  ) );
#571 = PCURVE('',#572,#577);
#572 = PLANE('',#573);
#573 = AXIS2_PLACEMENT_3D('',#574,#575,#576);
#574 = CARTESIAN_POINT('',(23.680339887499,14.635254915624,
    2.273736754432E-16));
#575 = DIRECTION('',(0.850650808352,0.525731112119,0.));
#576 = DIRECTION('',(-0.525731112119,0.850650808352,0.));
#577 = DEFINITIONAL_REPRESENTATION('',(#578),#581);
#578 = B_SPLINE_CURVE_WITH_KNOTS('',1,(#579,#580),.UNSPECIFIED.,.F.,.F.,
  (2,2),(0.,25.),.PIECEWISE_BEZIER_KNOTS.);
#579 = CARTESIAN_POINT('',(21.266270208801,0.));
#580 = CARTESIAN_POINT('',(6.571638901489,-20.22542485937));
#581 = ( GEOMETRIC_REPRESENTATION_CONTEXT(2) 
PARAMETRIC_REPRESENTATION_CONTEXT() REPRESENTATION_CONTEXT('2D SPACE',''
  ) );
#582 = ORIENTED_EDGE('',*,*,#583,.T.);
#583 = EDGE_CURVE('',#557,#187,#584,.T.);
#584 = SURFACE_CURVE('',#585,(#589,#596),.PCURVE_S1.);
#585 = LINE('',#586,#587);
#586 = CARTESIAN_POINT('',(20.225424859374,20.225424859374,
    -20.22542485937));
#587 = VECTOR('',#588,1.);
#588 = DIRECTION('',(-0.809016994375,-0.309016994375,-0.5));
#589 = PCURVE('',#202,#590);
#590 = DEFINITIONAL_REPRESENTATION('',(#591),#595);
#591 = LINE('',#592,#593);
#592 = CARTESIAN_POINT('',(-6.571638901489,20.225424859374));
#593 = VECTOR('',#594,1.);
#594 = DIRECTION('',(-0.587785252292,-0.809016994375));
#595 = ( GEOMETRIC_REPRESENTATION_CONTEXT(2) 
PARAMETRIC_REPRESENTATION_CONTEXT() REPRESENTATION_CONTEXT('2D SPACE',''
  ) );
#596 = PCURVE('',#229,#597);
#597 = DEFINITIONAL_REPRESENTATION('',(#598),#601);
#598 = B_SPLINE_CURVE_WITH_KNOTS('',1,(#599,#600),.UNSPECIFIED.,.F.,.F.,
  (2,2),(0.,25.),.PIECEWISE_BEZIER_KNOTS.);
#599 = CARTESIAN_POINT('',(-6.571638901489,20.225424859374));
#600 = CARTESIAN_POINT('',(17.20477400589,12.5));
#601 = ( GEOMETRIC_REPRESENTATION_CONTEXT(2) 
PARAMETRIC_REPRESENTATION_CONTEXT() REPRESENTATION_CONTEXT('2D SPACE',''
  ) );
#602 = ORIENTED_EDGE('',*,*,#186,.F.);
#603 = ORIENTED_EDGE('',*,*,#510,.F.);
#604 = ADVANCED_FACE('',(#605),#403,.T.);
#605 = FACE_BOUND('',#606,.T.);
#606 = EDGE_LOOP('',(#607,#608,#630,#650,#651));
#607 = ORIENTED_EDGE('',*,*,#387,.F.);
#608 = ORIENTED_EDGE('',*,*,#609,.T.);
#609 = EDGE_CURVE('',#361,#610,#612,.T.);
#610 = VERTEX_POINT('',#611);
#611 = CARTESIAN_POINT('',(20.225424859374,20.225424859374,
    20.225424859374));
#612 = SURFACE_CURVE('',#613,(#617,#624),.PCURVE_S1.);
#613 = LINE('',#614,#615);
#614 = CARTESIAN_POINT('',(0.,12.5,32.725424859374));
#615 = VECTOR('',#616,1.);
#616 = DIRECTION('',(0.809016994375,0.309016994375,-0.5));
#617 = PCURVE('',#403,#618);
#618 = DEFINITIONAL_REPRESENTATION('',(#619),#623);
#619 = LINE('',#620,#621);
#620 = CARTESIAN_POINT('',(21.266270208801,-2.273736754432E-16));
#621 = VECTOR('',#622,1.);
#622 = DIRECTION('',(-0.587785252292,0.809016994375));
#623 = ( GEOMETRIC_REPRESENTATION_CONTEXT(2) 
PARAMETRIC_REPRESENTATION_CONTEXT() REPRESENTATION_CONTEXT('2D SPACE',''
  ) );
#624 = PCURVE('',#376,#625);
#625 = DEFINITIONAL_REPRESENTATION('',(#626),#629);
#626 = B_SPLINE_CURVE_WITH_KNOTS('',1,(#627,#628),.UNSPECIFIED.,.F.,.F.,
  (2,2),(0.,25.),.PIECEWISE_BEZIER_KNOTS.);
#627 = CARTESIAN_POINT('',(-17.20477400589,12.5));
#628 = CARTESIAN_POINT('',(6.571638901489,20.225424859374));
#629 = ( GEOMETRIC_REPRESENTATION_CONTEXT(2) 
PARAMETRIC_REPRESENTATION_CONTEXT() REPRESENTATION_CONTEXT('2D SPACE',''
  ) );
#630 = ORIENTED_EDGE('',*,*,#631,.T.);
#631 = EDGE_CURVE('',#610,#535,#632,.T.);
#632 = SURFACE_CURVE('',#633,(#637,#644),.PCURVE_S1.);
#633 = LINE('',#634,#635);
#634 = CARTESIAN_POINT('',(20.225424859374,20.225424859374,
    20.225424859374));
#635 = VECTOR('',#636,1.);
#636 = DIRECTION('',(-0.309016994375,0.5,-0.809016994375));
#637 = PCURVE('',#403,#638);
#638 = DEFINITIONAL_REPRESENTATION('',(#639),#643);
#639 = LINE('',#640,#641);
#640 = CARTESIAN_POINT('',(6.571638901489,20.225424859374));
#641 = VECTOR('',#642,1.);
#642 = DIRECTION('',(-0.951056516295,-0.309016994375));
#643 = ( GEOMETRIC_REPRESENTATION_CONTEXT(2) 
PARAMETRIC_REPRESENTATION_CONTEXT() REPRESENTATION_CONTEXT('2D SPACE',''
  ) );
#644 = PCURVE('',#572,#645);
#645 = DEFINITIONAL_REPRESENTATION('',(#646),#649);
#646 = B_SPLINE_CURVE_WITH_KNOTS('',1,(#647,#648),.UNSPECIFIED.,.F.,.F.,
  (2,2),(0.,25.),.PIECEWISE_BEZIER_KNOTS.);
#647 = CARTESIAN_POINT('',(6.571638901489,20.225424859374));
#648 = CARTESIAN_POINT('',(21.266270208801,0.));
#649 = ( GEOMETRIC_REPRESENTATION_CONTEXT(2) 
PARAMETRIC_REPRESENTATION_CONTEXT() REPRESENTATION_CONTEXT('2D SPACE',''
  ) );
#650 = ORIENTED_EDGE('',*,*,#534,.F.);
#651 = ORIENTED_EDGE('',*,*,#488,.F.);
#652 = ADVANCED_FACE('',(#653),#303,.T.);
#653 = FACE_BOUND('',#654,.T.);
#654 = EDGE_LOOP('',(#655,#679,#699,#700,#701));
#655 = ORIENTED_EDGE('',*,*,#656,.T.);
#656 = EDGE_CURVE('',#657,#659,#661,.T.);
#657 = VERTEX_POINT('',#658);
#658 = CARTESIAN_POINT('',(32.725424859374,0.,-12.5));
#659 = VERTEX_POINT('',#660);
#660 = CARTESIAN_POINT('',(32.725424859374,0.,12.5));
#661 = SURFACE_CURVE('',#662,(#666,#673),.PCURVE_S1.);
#662 = LINE('',#663,#664);
#663 = CARTESIAN_POINT('',(32.725424859374,0.,-12.5));
#664 = VECTOR('',#665,1.);
#665 = DIRECTION('',(0.,0.,1.));
#666 = PCURVE('',#303,#667);
#667 = DEFINITIONAL_REPRESENTATION('',(#668),#672);
#668 = LINE('',#669,#670);
#669 = CARTESIAN_POINT('',(17.20477400589,-12.5));
#670 = VECTOR('',#671,1.);
#671 = DIRECTION('',(0.,1.));
#672 = ( GEOMETRIC_REPRESENTATION_CONTEXT(2) 
PARAMETRIC_REPRESENTATION_CONTEXT() REPRESENTATION_CONTEXT('2D SPACE',''
  ) );
#673 = PCURVE('',#572,#674);
#674 = DEFINITIONAL_REPRESENTATION('',(#675),#678);
#675 = B_SPLINE_CURVE_WITH_KNOTS('',1,(#676,#677),.UNSPECIFIED.,.F.,.F.,
  (2,2),(0.,25.),.PIECEWISE_BEZIER_KNOTS.);
#676 = CARTESIAN_POINT('',(-17.20477400589,-12.5));
#677 = CARTESIAN_POINT('',(-17.20477400589,12.5));
#678 = ( GEOMETRIC_REPRESENTATION_CONTEXT(2) 
PARAMETRIC_REPRESENTATION_CONTEXT() REPRESENTATION_CONTEXT('2D SPACE',''
  ) );
#679 = ORIENTED_EDGE('',*,*,#680,.T.);
#680 = EDGE_CURVE('',#659,#440,#681,.T.);
#681 = SURFACE_CURVE('',#682,(#686,#693),.PCURVE_S1.);
#682 = LINE('',#683,#684);
#683 = CARTESIAN_POINT('',(32.725424859374,0.,12.5));
#684 = VECTOR('',#685,1.);
#685 = DIRECTION('',(-0.5,-0.809016994375,0.309016994375));
#686 = PCURVE('',#303,#687);
#687 = DEFINITIONAL_REPRESENTATION('',(#688),#692);
#688 = LINE('',#689,#690);
#689 = CARTESIAN_POINT('',(17.20477400589,12.5));
#690 = VECTOR('',#691,1.);
#691 = DIRECTION('',(-0.951056516295,0.309016994375));
#692 = ( GEOMETRIC_REPRESENTATION_CONTEXT(2) 
PARAMETRIC_REPRESENTATION_CONTEXT() REPRESENTATION_CONTEXT('2D SPACE',''
  ) );
#693 = PCURVE('',#376,#694);
#694 = DEFINITIONAL_REPRESENTATION('',(#695),#698);
#695 = B_SPLINE_CURVE_WITH_KNOTS('',1,(#696,#697),.UNSPECIFIED.,.F.,.F.,
  (2,2),(0.,25.),.PIECEWISE_BEZIER_KNOTS.);
#696 = CARTESIAN_POINT('',(21.266270208801,0.));
#697 = CARTESIAN_POINT('',(6.571638901489,-20.22542485937));
#698 = ( GEOMETRIC_REPRESENTATION_CONTEXT(2) 
PARAMETRIC_REPRESENTATION_CONTEXT() REPRESENTATION_CONTEXT('2D SPACE',''
  ) );
#699 = ORIENTED_EDGE('',*,*,#439,.F.);
#700 = ORIENTED_EDGE('',*,*,#287,.F.);
#701 = ORIENTED_EDGE('',*,*,#702,.T.);
#702 = EDGE_CURVE('',#266,#657,#703,.T.);
#703 = SURFACE_CURVE('',#704,(#708,#715),.PCURVE_S1.);
#704 = LINE('',#705,#706);
#705 = CARTESIAN_POINT('',(20.225424859374,-20.22542485937,
    -20.22542485937));
#706 = VECTOR('',#707,1.);
#707 = DIRECTION('',(0.5,0.809016994375,0.309016994375));
#708 = PCURVE('',#303,#709);
#709 = DEFINITIONAL_REPRESENTATION('',(#710),#714);
#710 = LINE('',#711,#712);
#711 = CARTESIAN_POINT('',(-6.571638901489,-20.22542485937));
#712 = VECTOR('',#713,1.);
#713 = DIRECTION('',(0.951056516295,0.309016994375));
#714 = ( GEOMETRIC_REPRESENTATION_CONTEXT(2) 
PARAMETRIC_REPRESENTATION_CONTEXT() REPRESENTATION_CONTEXT('2D SPACE',''
  ) );
#715 = PCURVE('',#229,#716);
#716 = DEFINITIONAL_REPRESENTATION('',(#717),#720);
#717 = B_SPLINE_CURVE_WITH_KNOTS('',1,(#718,#719),.UNSPECIFIED.,.F.,.F.,
  (2,2),(0.,25.),.PIECEWISE_BEZIER_KNOTS.);
#718 = CARTESIAN_POINT('',(-6.571638901489,-20.22542485937));
#719 = CARTESIAN_POINT('',(-21.2662702088,0.));
#720 = ( GEOMETRIC_REPRESENTATION_CONTEXT(2) 
PARAMETRIC_REPRESENTATION_CONTEXT() REPRESENTATION_CONTEXT('2D SPACE',''
  ) );
#721 = ADVANCED_FACE('',(#722),#229,.T.);
#722 = FACE_BOUND('',#723,.T.);
#723 = EDGE_LOOP('',(#724,#725,#726,#727,#747));
#724 = ORIENTED_EDGE('',*,*,#265,.F.);
#725 = ORIENTED_EDGE('',*,*,#213,.F.);
#726 = ORIENTED_EDGE('',*,*,#583,.F.);
#727 = ORIENTED_EDGE('',*,*,#728,.T.);
#728 = EDGE_CURVE('',#557,#657,#729,.T.);
#729 = SURFACE_CURVE('',#730,(#734,#741),.PCURVE_S1.);
#730 = LINE('',#731,#732);
#731 = CARTESIAN_POINT('',(20.225424859374,20.225424859374,
    -20.22542485937));
#732 = VECTOR('',#733,1.);
#733 = DIRECTION('',(0.5,-0.809016994375,0.309016994375));
#734 = PCURVE('',#229,#735);
#735 = DEFINITIONAL_REPRESENTATION('',(#736),#740);
#736 = LINE('',#737,#738);
#737 = CARTESIAN_POINT('',(-6.571638901489,20.225424859374));
#738 = VECTOR('',#739,1.);
#739 = DIRECTION('',(-0.587785252292,-0.809016994375));
#740 = ( GEOMETRIC_REPRESENTATION_CONTEXT(2) 
PARAMETRIC_REPRESENTATION_CONTEXT() REPRESENTATION_CONTEXT('2D SPACE',''
  ) );
#741 = PCURVE('',#572,#742);
#742 = DEFINITIONAL_REPRESENTATION('',(#743),#746);
#743 = B_SPLINE_CURVE_WITH_KNOTS('',1,(#744,#745),.UNSPECIFIED.,.F.,.F.,
  (2,2),(0.,25.),.PIECEWISE_BEZIER_KNOTS.);
#744 = CARTESIAN_POINT('',(6.571638901489,-20.22542485937));
#745 = CARTESIAN_POINT('',(-17.20477400589,-12.5));
#746 = ( GEOMETRIC_REPRESENTATION_CONTEXT(2) 
PARAMETRIC_REPRESENTATION_CONTEXT() REPRESENTATION_CONTEXT('2D SPACE',''
  ) );
#747 = ORIENTED_EDGE('',*,*,#702,.F.);
#748 = ADVANCED_FACE('',(#749),#376,.T.);
#749 = FACE_BOUND('',#750,.T.);
#750 = EDGE_LOOP('',(#751,#771,#772,#773,#774));
#751 = ORIENTED_EDGE('',*,*,#752,.T.);
#752 = EDGE_CURVE('',#659,#610,#753,.T.);
#753 = SURFACE_CURVE('',#754,(#758,#765),.PCURVE_S1.);
#754 = LINE('',#755,#756);
#755 = CARTESIAN_POINT('',(32.725424859374,0.,12.5));
#756 = VECTOR('',#757,1.);
#757 = DIRECTION('',(-0.5,0.809016994375,0.309016994375));
#758 = PCURVE('',#376,#759);
#759 = DEFINITIONAL_REPRESENTATION('',(#760),#764);
#760 = LINE('',#761,#762);
#761 = CARTESIAN_POINT('',(21.266270208801,-2.273736754432E-16));
#762 = VECTOR('',#763,1.);
#763 = DIRECTION('',(-0.587785252292,0.809016994375));
#764 = ( GEOMETRIC_REPRESENTATION_CONTEXT(2) 
PARAMETRIC_REPRESENTATION_CONTEXT() REPRESENTATION_CONTEXT('2D SPACE',''
  ) );
#765 = PCURVE('',#572,#766);
#766 = DEFINITIONAL_REPRESENTATION('',(#767),#770);
#767 = B_SPLINE_CURVE_WITH_KNOTS('',1,(#768,#769),.UNSPECIFIED.,.F.,.F.,
  (2,2),(0.,25.),.PIECEWISE_BEZIER_KNOTS.);
#768 = CARTESIAN_POINT('',(-17.20477400589,12.5));
#769 = CARTESIAN_POINT('',(6.571638901489,20.225424859374));
#770 = ( GEOMETRIC_REPRESENTATION_CONTEXT(2) 
PARAMETRIC_REPRESENTATION_CONTEXT() REPRESENTATION_CONTEXT('2D SPACE',''
  ) );
#771 = ORIENTED_EDGE('',*,*,#609,.F.);
#772 = ORIENTED_EDGE('',*,*,#360,.F.);
#773 = ORIENTED_EDGE('',*,*,#461,.F.);
#774 = ORIENTED_EDGE('',*,*,#680,.F.);
#775 = ADVANCED_FACE('',(#776),#572,.T.);
#776 = FACE_BOUND('',#777,.T.);
#777 = EDGE_LOOP('',(#778,#779,#780,#781,#782));
#778 = ORIENTED_EDGE('',*,*,#556,.F.);
#779 = ORIENTED_EDGE('',*,*,#631,.F.);
#780 = ORIENTED_EDGE('',*,*,#752,.F.);
#781 = ORIENTED_EDGE('',*,*,#656,.F.);
#782 = ORIENTED_EDGE('',*,*,#728,.F.);
#783 = ( GEOMETRIC_REPRESENTATION_CONTEXT(3) 
GLOBAL_UNCERTAINTY_ASSIGNED_CONTEXT((#787)) GLOBAL_UNIT_ASSIGNED_CONTEXT
((#784,#785,#786)) REPRESENTATION_CONTEXT('Context #1',
  '3D Context with UNIT and UNCERTAINTY') );
#784 = ( LENGTH_UNIT() NAMED_UNIT(*) SI_UNIT(.MILLI.,.METRE.) );
#785 = ( NAMED_UNIT(*) PLANE_ANGLE_UNIT() SI_UNIT($,.RADIAN.) );
#786 = ( NAMED_UNIT(*) SI_UNIT($,.STERADIAN.) SOLID_ANGLE_UNIT() );
#787 = UNCERTAINTY_MEASURE_WITH_UNIT(LENGTH_MEASURE(1.E-07),#784,
  'distance_accuracy_value','confusion accuracy');
#788 = PRODUCT_RELATED_PRODUCT_CATEGORY('part',$,(#7));
ENDSEC;
END-ISO-10303-21;
