ISO-10303-21;
HEADER;
FILE_DESCRIPTION(('Open CASCADE Model'),'2;1');
FILE_NAME('Open CASCADE Shape Model','2026-08-07T05:32:58',('Author'),(
    'Open CASCADE'),'Open CASCADE STEP processor 7.7','Open CASCADE 7.7'
  ,'Unknown');
FILE_SCHEMA(('AUTOMOTIVE_DESIGN { 1 0 10303 214 1 1 1 1 }'));
ENDSEC;
DATA;
#1 = APPLICATION_PROTOCOL_DEFINITION('international standard',
  'automotive_design',2000,#2);
#2 = APPLICATION_CONTEXT(
  'core data for automotive mechanical design processes');
#3 = SHAPE_DEFINITION_REPRESENTATION(#4,#10);
#4 = PRODUCT_DEFINITION_SHAPE('','',#5);
#5 = PRODUCT_DEFINITION('design','',#6,#9);
#6 = PRODUCT_DEFINITION_FORMATION('','',#7);
#7 = PRODUCT('Open CASCADE STEP translator 7.7 2',
  'Open CASCADE STEP translator 7.7 2','',(#8));
#8 = PRODUCT_CONTEXT('',#2,'mechanical');
#9 = PRODUCT_DEFINITION_CONTEXT('part definition',#2,'design');
#10 = ADVANCED_BREP_SHAPE_REPRESENTATION('',(#11,#15),#1179);
#11 = AXIS2_PLACEMENT_3D('',#12,#13,#14);
#12 = CARTESIAN_POINT('',(0.,0.,0.));
#13 = DIRECTION('',(0.,0.,1.));
#14 = DIRECTION('',(1.,0.,-0.));
#15 = MANIFOLD_SOLID_BREP('',#16);
#16 = CLOSED_SHELL('',(#17,#578,#1027,#1098,#1126,#1172));
#17 = ADVANCED_FACE('',(#18),#39,.T.);
#18 = FACE_BOUND('',#19,.T.);
#19 = EDGE_LOOP('',(#20,#62,#86,#309,#333,#556));
#20 = ORIENTED_EDGE('',*,*,#21,.F.);
#21 = EDGE_CURVE('',#22,#24,#26,.T.);
#22 = VERTEX_POINT('',#23);
#23 = CARTESIAN_POINT('',(1.836970198721E-15,-4.499279347986E-31,-30.));
#24 = VERTEX_POINT('',#25);
#25 = CARTESIAN_POINT('',(1.836970198721E-15,-4.499279347986E-31,30.));
#26 = SURFACE_CURVE('',#27,(#38,#50),.PCURVE_S1.);
#27 = B_SPLINE_CURVE_WITH_KNOTS('',9,(#28,#29,#30,#31,#32,#33,#34,#35,
    #36,#37),.UNSPECIFIED.,.F.,.F.,(10,10),(-1.570796326795,
    1.570796326795),.PIECEWISE_BEZIER_KNOTS.);
#28 = CARTESIAN_POINT('',(7.105427357601E-15,0.,-30.));
#29 = CARTESIAN_POINT('',(-10.47197551196,1.282447129148E-15,-30.));
#30 = CARTESIAN_POINT('',(-20.94405969996,2.564907567271E-15,
    -25.88767600244));
#31 = CARTESIAN_POINT('',(-29.56971335352,3.62124548101E-15,
    -17.66291156559));
#32 = CARTESIAN_POINT('',(-34.50721891274,4.225915518897E-15,
    -6.292698317024));
#33 = CARTESIAN_POINT('',(-34.50721891273,4.225915518896E-15,
    6.292698317023));
#34 = CARTESIAN_POINT('',(-29.56971335352,3.62124548101E-15,
    17.66291156559));
#35 = CARTESIAN_POINT('',(-20.94405969996,2.564907567271E-15,
    25.887676002442));
#36 = CARTESIAN_POINT('',(-10.47197551196,1.282447129148E-15,30.));
#37 = CARTESIAN_POINT('',(7.105427357601E-15,0.,30.));
#38 = PCURVE('',#39,#44);
#39 = SPHERICAL_SURFACE('',#40,30.);
#40 = AXIS2_PLACEMENT_3D('',#41,#42,#43);
#41 = CARTESIAN_POINT('',(0.,0.,0.));
#42 = DIRECTION('',(0.,0.,1.));
#43 = DIRECTION('',(1.,0.,0.));
#44 = DEFINITIONAL_REPRESENTATION('',(#45),#49);
#45 = LINE('',#46,#47);
#46 = CARTESIAN_POINT('',(3.14159265359,0.));
#47 = VECTOR('',#48,1.);
#48 = DIRECTION('',(0.,1.));
#49 = ( GEOMETRIC_REPRESENTATION_CONTEXT(2) 
PARAMETRIC_REPRESENTATION_CONTEXT() REPRESENTATION_CONTEXT('2D SPACE',''
  ) );
#50 = PCURVE('',#51,#56);
#51 = SPHERICAL_SURFACE('',#52,30.);
#52 = AXIS2_PLACEMENT_3D('',#53,#54,#55);
#53 = CARTESIAN_POINT('',(0.,0.,0.));
#54 = DIRECTION('',(0.,0.,1.));
#55 = DIRECTION('',(1.,0.,0.));
#56 = DEFINITIONAL_REPRESENTATION('',(#57),#61);
#57 = LINE('',#58,#59);
#58 = CARTESIAN_POINT('',(3.14159265359,0.));
#59 = VECTOR('',#60,1.);
#60 = DIRECTION('',(0.,1.));
#61 = ( GEOMETRIC_REPRESENTATION_CONTEXT(2) 
PARAMETRIC_REPRESENTATION_CONTEXT() REPRESENTATION_CONTEXT('2D SPACE',''
  ) );
#62 = ORIENTED_EDGE('',*,*,#63,.T.);
#63 = EDGE_CURVE('',#22,#64,#66,.T.);
#64 = VERTEX_POINT('',#65);
#65 = CARTESIAN_POINT('',(11.,-2.694222958124E-15,-27.9105714739));
#66 = SURFACE_CURVE('',#67,(#72,#79),.PCURVE_S1.);
#67 = CIRCLE('',#68,30.);
#68 = AXIS2_PLACEMENT_3D('',#69,#70,#71);
#69 = CARTESIAN_POINT('',(0.,0.,0.));
#70 = DIRECTION('',(-2.449293598295E-16,-1.,0.));
#71 = DIRECTION('',(1.,-2.449293598295E-16,0.));
#72 = PCURVE('',#39,#73);
#73 = DEFINITIONAL_REPRESENTATION('',(#74),#78);
#74 = LINE('',#75,#76);
#75 = CARTESIAN_POINT('',(6.28318530718,-6.28318530718));
#76 = VECTOR('',#77,1.);
#77 = DIRECTION('',(0.,1.));
#78 = ( GEOMETRIC_REPRESENTATION_CONTEXT(2) 
PARAMETRIC_REPRESENTATION_CONTEXT() REPRESENTATION_CONTEXT('2D SPACE',''
  ) );
#79 = PCURVE('',#51,#80);
#80 = DEFINITIONAL_REPRESENTATION('',(#81),#85);
#81 = LINE('',#82,#83);
#82 = CARTESIAN_POINT('',(0.,-6.28318530718));
#83 = VECTOR('',#84,1.);
#84 = DIRECTION('',(0.,1.));
#85 = ( GEOMETRIC_REPRESENTATION_CONTEXT(2) 
PARAMETRIC_REPRESENTATION_CONTEXT() REPRESENTATION_CONTEXT('2D SPACE',''
  ) );
#86 = ORIENTED_EDGE('',*,*,#87,.T.);
#87 = EDGE_CURVE('',#64,#88,#90,.T.);
#88 = VERTEX_POINT('',#89);
#89 = CARTESIAN_POINT('',(19.,-2.32682891838E-15,-23.21637353248));
#90 = SURFACE_CURVE('',#91,(#160,#232),.PCURVE_S1.);
#91 = B_SPLINE_CURVE_WITH_KNOTS('',7,(#92,#93,#94,#95,#96,#97,#98,#99,
    #100,#101,#102,#103,#104,#105,#106,#107,#108,#109,#110,#111,#112,
    #113,#114,#115,#116,#117,#118,#119,#120,#121,#122,#123,#124,#125,
    #126,#127,#128,#129,#130,#131,#132,#133,#134,#135,#136,#137,#138,
    #139,#140,#141,#142,#143,#144,#145,#146,#147,#148,#149,#150,#151,
    #152,#153,#154,#155,#156,#157,#158,#159),.UNSPECIFIED.,.F.,.F.,(8,6,
    6,6,6,6,6,6,6,6,6,8),(0.,0.127352647022,0.203160873855,
    0.294844845822,0.361651020374,0.529177607369,0.650274275763,
    0.69648747389,0.756639160902,0.835775838554,0.898447207511,1.),
  .UNSPECIFIED.);
#92 = CARTESIAN_POINT('',(11.,0.,-27.9105714739));
#93 = CARTESIAN_POINT('',(11.,-0.261424857987,-27.9105714739));
#94 = CARTESIAN_POINT('',(11.019933481645,-0.522980632147,-27.8998586014
    ));
#95 = CARTESIAN_POINT('',(11.059835477532,-0.781577832407,
    -27.87841407519));
#96 = CARTESIAN_POINT('',(11.118957764645,-1.034596981822,
    -27.84661392832));
#97 = CARTESIAN_POINT('',(11.196112732835,-1.279800118191,
    -27.80504487483));
#98 = CARTESIAN_POINT('',(11.289760358614,-1.515308955948,
    -27.75447047154));
#99 = CARTESIAN_POINT('',(11.462564770473,-1.873108345252,
    -27.66087989352));
#100 = CARTESIAN_POINT('',(11.532277199291,-2.002707594361,
    -27.62307240464));
#101 = CARTESIAN_POINT('',(11.606873825983,-2.128125126127,
    -27.58255293527));
#102 = CARTESIAN_POINT('',(11.686001005836,-2.249152527734,
    -27.53949745966));
#103 = CARTESIAN_POINT('',(11.769307926911,-2.365634936172,
    -27.49408065465));
#104 = CARTESIAN_POINT('',(11.856455756886,-2.477462669357,
    -27.44647138956));
#105 = CARTESIAN_POINT('',(12.056786134225,-2.714091947083,
    -27.33678877826));
#106 = CARTESIAN_POINT('',(12.171593405222,-2.836699982333,
    -27.27377734416));
#107 = CARTESIAN_POINT('',(12.290993662601,-2.952271605151,
    -27.2080702312));
#108 = CARTESIAN_POINT('',(12.414464361535,-3.060751863602,
    -27.13992859041));
#109 = CARTESIAN_POINT('',(12.541522061547,-3.162134229359,
    -27.06959482654));
#110 = CARTESIAN_POINT('',(12.671729135383,-3.25644861541,
    -26.99728901816));
#111 = CARTESIAN_POINT('',(12.901590986976,-3.40736172328,
    -26.86922374025));
#112 = CARTESIAN_POINT('',(12.999945843976,-3.467248122072,
    -26.81430002504));
#113 = CARTESIAN_POINT('',(13.099614304744,-3.523429015002,
    -26.7585102335));
#114 = CARTESIAN_POINT('',(13.200454715331,-3.575928676986,
    -26.70192622599));
#115 = CARTESIAN_POINT('',(13.302334749739,-3.624774231258,
    -26.64461550652));
#116 = CARTESIAN_POINT('',(13.405131647671,-3.669994647659,
    -26.58664104731));
#117 = CARTESIAN_POINT('',(13.768527139265,-3.816000957957,
    -26.3811630687));
#118 = CARTESIAN_POINT('',(14.033296374769,-3.897741387459,
    -26.23050320584));
#119 = CARTESIAN_POINT('',(14.301358026269,-3.95737501959,
    -26.07694517257));
#120 = CARTESIAN_POINT('',(14.571191702398,-3.995316057024,
    -25.92129130041));
#121 = CARTESIAN_POINT('',(14.841425395141,-4.011924975997,
    -25.76429040721));
#122 = CARTESIAN_POINT('',(15.110829645293,-4.00748216347,
    -25.60663913981));
#123 = CARTESIAN_POINT('',(15.571674198065,-3.963699308078,
    -25.33501060518));
#124 = CARTESIAN_POINT('',(15.763980414997,-3.93437682369,
    -25.22106707445));
#125 = CARTESIAN_POINT('',(15.954812239934,-3.894143980975,
    -25.10739757128));
#126 = CARTESIAN_POINT('',(16.143717304145,-3.842999607311,
    -24.99427703509));
#127 = CARTESIAN_POINT('',(16.330218679246,-3.780912583875,
    -24.88200398026));
#128 = CARTESIAN_POINT('',(16.513813739461,-3.707818376782,
    -24.77090218712));
#129 = CARTESIAN_POINT('',(16.762721271808,-3.591458406273,
    -24.61950670796));
#130 = CARTESIAN_POINT('',(16.830969631523,-3.557699052438,
    -24.57791261761));
#131 = CARTESIAN_POINT('',(16.898684050386,-3.522314629159,
    -24.53656214377));
#132 = CARTESIAN_POINT('',(16.965832114705,-3.485298817656,
    -24.49547682601));
#133 = CARTESIAN_POINT('',(17.032379744948,-3.446644858911,
    -24.45467947046));
#134 = CARTESIAN_POINT('',(17.098291195746,-3.406345553668,
    -24.41419414982));
#135 = CARTESIAN_POINT('',(17.248443485179,-3.309787626084,
    -24.32178912512));
#136 = CARTESIAN_POINT('',(17.332215474913,-3.252382333808,
    -24.27010440652));
#137 = CARTESIAN_POINT('',(17.414763415636,-3.192160012739,
    -24.21904741486));
#138 = CARTESIAN_POINT('',(17.495997934155,-3.129103848221,
    -24.16867906275));
#139 = CARTESIAN_POINT('',(17.575822070203,-3.063198016187,
    -24.11906576129));
#140 = CARTESIAN_POINT('',(17.654131453102,-2.994428115541,
    -24.07027937338));
#141 = CARTESIAN_POINT('',(17.831700092088,-2.828522113474,
    -23.95940244605));
#142 = CARTESIAN_POINT('',(17.929764927109,-2.729288933417,
    -23.89797638308));
#143 = CARTESIAN_POINT('',(18.024759404622,-2.625050668746,
    -23.83829194295));
#144 = CARTESIAN_POINT('',(18.116395632827,-2.51579419732,
    -23.78054887908));
#145 = CARTESIAN_POINT('',(18.20435233081,-2.401532126737,
    -23.72497057668));
#146 = CARTESIAN_POINT('',(18.288279752353,-2.282310254605,
    -23.67180089615));
#147 = CARTESIAN_POINT('',(18.43078339312,-2.059939261968,
    -23.58130822557));
#148 = CARTESIAN_POINT('',(18.490997845748,-1.958611867958,
    -23.54299186276));
#149 = CARTESIAN_POINT('',(18.548260453367,-1.854281652975,
    -23.50648285151));
#150 = CARTESIAN_POINT('',(18.602369455724,-1.747021889209,
    -23.47192212824));
#151 = CARTESIAN_POINT('',(18.653114870736,-1.636935650486,
    -23.4394564258));
#152 = CARTESIAN_POINT('',(18.700284518636,-1.524161147909,
    -23.40923405702));
#153 = CARTESIAN_POINT('',(18.813972028432,-1.222070542941,
    -23.33629947672));
#154 = CARTESIAN_POINT('',(18.874379356711,-1.02856702089,-23.2974445795
    ));
#155 = CARTESIAN_POINT('',(18.923922927494,-0.829280814719,
    -23.26550806246));
#156 = CARTESIAN_POINT('',(18.961770393619,-0.625327623617,
    -23.24107366271));
#157 = CARTESIAN_POINT('',(18.987261602497,-0.41803804038,
    -23.22460370165));
#158 = CARTESIAN_POINT('',(19.,-0.208981404705,-23.21637353248));
#159 = CARTESIAN_POINT('',(19.,-8.881784197001E-16,-23.21637353248));
#160 = PCURVE('',#39,#161);
#161 = DEFINITIONAL_REPRESENTATION('',(#162),#231);
#162 = B_SPLINE_CURVE_WITH_KNOTS('',7,(#163,#164,#165,#166,#167,#168,
    #169,#170,#171,#172,#173,#174,#175,#176,#177,#178,#179,#180,#181,
    #182,#183,#184,#185,#186,#187,#188,#189,#190,#191,#192,#193,#194,
    #195,#196,#197,#198,#199,#200,#201,#202,#203,#204,#205,#206,#207,
    #208,#209,#210,#211,#212,#213,#214,#215,#216,#217,#218,#219,#220,
    #221,#222,#223,#224,#225,#226,#227,#228,#229,#230),.UNSPECIFIED.,.F.
  ,.F.,(8,6,6,6,6,6,6,6,6,6,6,8),(0.,0.127352647022,0.203160873855,
    0.294844845822,0.361651020374,0.529177607369,0.650274275763,
    0.69648747389,0.756639160902,0.835775838554,0.898447207511,1.),
  .UNSPECIFIED.);
#163 = CARTESIAN_POINT('',(6.28318530718,-1.195372718814));
#164 = CARTESIAN_POINT('',(6.259419410999,-1.195372718814));
#165 = CARTESIAN_POINT('',(6.235641673684,-1.194398824917));
#166 = CARTESIAN_POINT('',(6.212357232763,-1.192449304533));
#167 = CARTESIAN_POINT('',(6.19003168211,-1.18957358584));
#168 = CARTESIAN_POINT('',(6.169018913182,-1.185855322821));
#169 = CARTESIAN_POINT('',(6.149544484015,-1.181396458617));
#170 = CARTESIAN_POINT('',(6.121129065085,-1.17327937196));
#171 = CARTESIAN_POINT('',(6.111109831118,-1.170026029102));
#172 = CARTESIAN_POINT('',(6.101696794053,-1.166570051128));
#173 = CARTESIAN_POINT('',(6.092898616216,-1.162933050493));
#174 = CARTESIAN_POINT('',(6.084713138189,-1.159135828314));
#175 = CARTESIAN_POINT('',(6.077130287326,-1.1551978175));
#176 = CARTESIAN_POINT('',(6.061674730519,-1.146224719301));
#177 = CARTESIAN_POINT('',(6.054074380387,-1.14113284431));
#178 = CARTESIAN_POINT('',(6.047305669757,-1.135891704545));
#179 = CARTESIAN_POINT('',(6.041331729387,-1.130528725269));
#180 = CARTESIAN_POINT('',(6.036110613739,-1.125067939041));
#181 = CARTESIAN_POINT('',(6.031598827818,-1.119529971393));
#182 = CARTESIAN_POINT('',(6.024953915306,-1.109853044368));
#183 = CARTESIAN_POINT('',(6.022507580205,-1.105742363207));
#184 = CARTESIAN_POINT('',(6.020399583229,-1.101606722712));
#185 = CARTESIAN_POINT('',(6.0186141167,-1.097452158626));
#186 = CARTESIAN_POINT('',(6.017135986497,-1.093284047573));
#187 = CARTESIAN_POINT('',(6.015950767807,-1.089107151887));
#188 = CARTESIAN_POINT('',(6.012773512985,-1.07443995223));
#189 = CARTESIAN_POINT('',(6.012259762431,-1.063928622166));
#190 = CARTESIAN_POINT('',(6.013287682408,-1.053453561735));
#191 = CARTESIAN_POINT('',(6.01568289766,-1.043063622937));
#192 = CARTESIAN_POINT('',(6.019304284887,-1.032798280234));
#193 = CARTESIAN_POINT('',(6.024040288289,-1.022689961638));
#194 = CARTESIAN_POINT('',(6.033980553001,-1.005590828248));
#195 = CARTESIAN_POINT('',(6.038690219761,-0.998514231598));
#196 = CARTESIAN_POINT('',(6.04390755598,-0.991545768148));
#197 = CARTESIAN_POINT('',(6.049607931192,-0.984696739735));
#198 = CARTESIAN_POINT('',(6.05577205337,-0.977979222704));
#199 = CARTESIAN_POINT('',(6.062385711214,-0.971406165838));
#200 = CARTESIAN_POINT('',(6.072133020024,-0.962543669755));
#201 = CARTESIAN_POINT('',(6.074889536061,-0.960118897522));
#202 = CARTESIAN_POINT('',(6.077709721162,-0.957718111957));
#203 = CARTESIAN_POINT('',(6.080593142646,-0.955342192213));
#204 = CARTESIAN_POINT('',(6.083539446494,-0.952992076337));
#205 = CARTESIAN_POINT('',(6.086548357357,-0.950668761272));
#206 = CARTESIAN_POINT('',(6.093617349314,-0.945385504955));
#207 = CARTESIAN_POINT('',(6.097720697,-0.942444945307));
#208 = CARTESIAN_POINT('',(6.101929336168,-0.939553920896));
#209 = CARTESIAN_POINT('',(6.106242978008,-0.93671500205));
#210 = CARTESIAN_POINT('',(6.110661434924,-0.933931025624));
#211 = CARTESIAN_POINT('',(6.115184625119,-0.931205088197));
#212 = CARTESIAN_POINT('',(6.125901196943,-0.925035009145));
#213 = CARTESIAN_POINT('',(6.132170801831,-0.92163593386));
#214 = CARTESIAN_POINT('',(6.13862166549,-0.918350785743));
#215 = CARTESIAN_POINT('',(6.145253539802,-0.915188368548));
#216 = CARTESIAN_POINT('',(6.152065502756,-0.912158650996));
#217 = CARTESIAN_POINT('',(6.159055806332,-0.909272600328));
#218 = CARTESIAN_POINT('',(6.171896689598,-0.904379561325));
#219 = CARTESIAN_POINT('',(6.177681520365,-0.902314719799));
#220 = CARTESIAN_POINT('',(6.183574525259,-0.900353426838));
#221 = CARTESIAN_POINT('',(6.189573174011,-0.898502116098));
#222 = CARTESIAN_POINT('',(6.195673897661,-0.896767520078));
#223 = CARTESIAN_POINT('',(6.201871888716,-0.895156470877));
#224 = CARTESIAN_POINT('',(6.218351627976,-0.891276258818));
#225 = CARTESIAN_POINT('',(6.228787204409,-0.889217481424));
#226 = CARTESIAN_POINT('',(6.239432392254,-0.887530845368));
#227 = CARTESIAN_POINT('',(6.250246680597,-0.886243359888));
#228 = CARTESIAN_POINT('',(6.261183313527,-0.885376532399));
#229 = CARTESIAN_POINT('',(6.272186285879,-0.884943362176));
#230 = CARTESIAN_POINT('',(6.28318530718,-0.884943362176));
#231 = ( GEOMETRIC_REPRESENTATION_CONTEXT(2) 
PARAMETRIC_REPRESENTATION_CONTEXT() REPRESENTATION_CONTEXT('2D SPACE',''
  ) );
#232 = PCURVE('',#233,#238);
#233 = CYLINDRICAL_SURFACE('',#234,4.);
#234 = AXIS2_PLACEMENT_3D('',#235,#236,#237);
#235 = CARTESIAN_POINT('',(15.,0.,0.));
#236 = DIRECTION('',(0.,0.,1.));
#237 = DIRECTION('',(1.,0.,0.));
#238 = DEFINITIONAL_REPRESENTATION('',(#239),#308);
#239 = B_SPLINE_CURVE_WITH_KNOTS('',7,(#240,#241,#242,#243,#244,#245,
    #246,#247,#248,#249,#250,#251,#252,#253,#254,#255,#256,#257,#258,
    #259,#260,#261,#262,#263,#264,#265,#266,#267,#268,#269,#270,#271,
    #272,#273,#274,#275,#276,#277,#278,#279,#280,#281,#282,#283,#284,
    #285,#286,#287,#288,#289,#290,#291,#292,#293,#294,#295,#296,#297,
    #298,#299,#300,#301,#302,#303,#304,#305,#306,#307),.UNSPECIFIED.,.F.
  ,.F.,(8,6,6,6,6,6,6,6,6,6,6,8),(0.,0.127352647022,0.203160873855,
    0.294844845822,0.361651020374,0.529177607369,0.650274275763,
    0.69648747389,0.756639160902,0.835775838554,0.898447207511,1.),
  .UNSPECIFIED.);
#240 = CARTESIAN_POINT('',(3.14159265359,-27.9105714739));
#241 = CARTESIAN_POINT('',(3.206948868087,-27.9105714739));
#242 = CARTESIAN_POINT('',(3.272337784308,-27.8998586014));
#243 = CARTESIAN_POINT('',(3.337443207657,-27.87841407519));
#244 = CARTESIAN_POINT('',(3.40206748558,-27.84661392832));
#245 = CARTESIAN_POINT('',(3.466050399011,-27.80504487483));
#246 = CARTESIAN_POINT('',(3.529249951236,-27.75447047154));
#247 = CARTESIAN_POINT('',(3.62858579816,-27.66087989352));
#248 = CARTESIAN_POINT('',(3.665340552087,-27.62307240464));
#249 = CARTESIAN_POINT('',(3.70176834368,-27.58255293527));
#250 = CARTESIAN_POINT('',(3.737860316379,-27.53949745966));
#251 = CARTESIAN_POINT('',(3.773613073407,-27.49408065465));
#252 = CARTESIAN_POINT('',(3.809027836355,-27.44647138956));
#253 = CARTESIAN_POINT('',(3.886538188551,-27.33678877826));
#254 = CARTESIAN_POINT('',(3.928477709518,-27.27377734416));
#255 = CARTESIAN_POINT('',(3.969941522353,-27.2080702312));
#256 = CARTESIAN_POINT('',(4.010946225044,-27.13992859041));
#257 = CARTESIAN_POINT('',(4.05151217485,-27.06959482654));
#258 = CARTESIAN_POINT('',(4.091664005256,-26.99728901816));
#259 = CARTESIAN_POINT('',(4.160407749037,-26.86922374025));
#260 = CARTESIAN_POINT('',(4.189179158536,-26.81430002504));
#261 = CARTESIAN_POINT('',(4.21775641488,-26.7585102335));
#262 = CARTESIAN_POINT('',(4.246150447807,-26.70192622599));
#263 = CARTESIAN_POINT('',(4.274372323675,-26.64461550652));
#264 = CARTESIAN_POINT('',(4.302433495778,-26.58664104731));
#265 = CARTESIAN_POINT('',(4.40034101782,-26.3811630687));
#266 = CARTESIAN_POINT('',(4.469379991809,-26.23050320584));
#267 = CARTESIAN_POINT('',(4.537681243448,-26.07694517257));
#268 = CARTESIAN_POINT('',(4.605425357323,-25.92129130041));
#269 = CARTESIAN_POINT('',(4.672782396694,-25.76429040721));
#270 = CARTESIAN_POINT('',(4.739936850563,-25.60663913981));
#271 = CARTESIAN_POINT('',(4.855666773294,-25.33501060518));
#272 = CARTESIAN_POINT('',(4.904221176766,-25.22106707445));
#273 = CARTESIAN_POINT('',(4.952853446076,-25.10739757128));
#274 = CARTESIAN_POINT('',(5.00163837111,-24.99427703509));
#275 = CARTESIAN_POINT('',(5.050650208421,-24.88200398026));
#276 = CARTESIAN_POINT('',(5.099968626133,-24.77090218712));
#277 = CARTESIAN_POINT('',(5.168659328923,-24.61950670796));
#278 = CARTESIAN_POINT('',(5.187690108657,-24.57791261761));
#279 = CARTESIAN_POINT('',(5.206783128482,-24.53656214377));
#280 = CARTESIAN_POINT('',(5.225943193712,-24.49547682601));
#281 = CARTESIAN_POINT('',(5.24517517394,-24.45467947046));
#282 = CARTESIAN_POINT('',(5.264484003044,-24.41419414982));
#283 = CARTESIAN_POINT('',(5.309113830094,-24.32178912512));
#284 = CARTESIAN_POINT('',(5.334491325127,-24.27010440652));
#285 = CARTESIAN_POINT('',(5.360018616363,-24.21904741486));
#286 = CARTESIAN_POINT('',(5.385706738755,-24.16867906275));
#287 = CARTESIAN_POINT('',(5.411566554323,-24.11906576129));
#288 = CARTESIAN_POINT('',(5.437608996354,-24.07027937338));
#289 = CARTESIAN_POINT('',(5.498362300314,-23.95940244605));
#290 = CARTESIAN_POINT('',(5.533212933203,-23.89797638308));
#291 = CARTESIAN_POINT('',(5.568423998997,-23.83829194295));
#292 = CARTESIAN_POINT('',(5.60401833929,-23.78054887908));
#293 = CARTESIAN_POINT('',(5.640015233974,-23.72497057668));
#294 = CARTESIAN_POINT('',(5.67643078467,-23.67180089615));
#295 = CARTESIAN_POINT('',(5.742459256747,-23.58130822557));
#296 = CARTESIAN_POINT('',(5.771909713169,-23.54299186276));
#297 = CARTESIAN_POINT('',(5.801634522122,-23.50648285151));
#298 = CARTESIAN_POINT('',(5.831635191165,-23.47192212824));
#299 = CARTESIAN_POINT('',(5.861909252672,-23.4394564258));
#300 = CARTESIAN_POINT('',(5.892449635777,-23.40923405702));
#301 = CARTESIAN_POINT('',(5.973143340416,-23.33629947672));
#302 = CARTESIAN_POINT('',(6.023738224374,-23.2974445795));
#303 = CARTESIAN_POINT('',(6.074932929861,-23.26550806246));
#304 = CARTESIAN_POINT('',(6.12662023947,-23.24107366271));
#305 = CARTESIAN_POINT('',(6.178675885163,-23.22460370165));
#306 = CARTESIAN_POINT('',(6.230939956003,-23.21637353248));
#307 = CARTESIAN_POINT('',(6.28318530718,-23.21637353248));
#308 = ( GEOMETRIC_REPRESENTATION_CONTEXT(2) 
PARAMETRIC_REPRESENTATION_CONTEXT() REPRESENTATION_CONTEXT('2D SPACE',''
  ) );
#309 = ORIENTED_EDGE('',*,*,#310,.T.);
#310 = EDGE_CURVE('',#88,#311,#313,.T.);
#311 = VERTEX_POINT('',#312);
#312 = CARTESIAN_POINT('',(19.,-2.32682891838E-15,23.216373532487));
#313 = SURFACE_CURVE('',#314,(#319,#326),.PCURVE_S1.);
#314 = CIRCLE('',#315,30.);
#315 = AXIS2_PLACEMENT_3D('',#316,#317,#318);
#316 = CARTESIAN_POINT('',(0.,0.,0.));
#317 = DIRECTION('',(-2.449293598295E-16,-1.,0.));
#318 = DIRECTION('',(1.,-2.449293598295E-16,0.));
#319 = PCURVE('',#39,#320);
#320 = DEFINITIONAL_REPRESENTATION('',(#321),#325);
#321 = LINE('',#322,#323);
#322 = CARTESIAN_POINT('',(6.28318530718,-6.28318530718));
#323 = VECTOR('',#324,1.);
#324 = DIRECTION('',(0.,1.));
#325 = ( GEOMETRIC_REPRESENTATION_CONTEXT(2) 
PARAMETRIC_REPRESENTATION_CONTEXT() REPRESENTATION_CONTEXT('2D SPACE',''
  ) );
#326 = PCURVE('',#51,#327);
#327 = DEFINITIONAL_REPRESENTATION('',(#328),#332);
#328 = LINE('',#329,#330);
#329 = CARTESIAN_POINT('',(0.,-6.28318530718));
#330 = VECTOR('',#331,1.);
#331 = DIRECTION('',(0.,1.));
#332 = ( GEOMETRIC_REPRESENTATION_CONTEXT(2) 
PARAMETRIC_REPRESENTATION_CONTEXT() REPRESENTATION_CONTEXT('2D SPACE',''
  ) );
#333 = ORIENTED_EDGE('',*,*,#334,.F.);
#334 = EDGE_CURVE('',#335,#311,#337,.T.);
#335 = VERTEX_POINT('',#336);
#336 = CARTESIAN_POINT('',(11.,-2.694222958124E-15,27.910571473906));
#337 = SURFACE_CURVE('',#338,(#407,#479),.PCURVE_S1.);
#338 = B_SPLINE_CURVE_WITH_KNOTS('',7,(#339,#340,#341,#342,#343,#344,
    #345,#346,#347,#348,#349,#350,#351,#352,#353,#354,#355,#356,#357,
    #358,#359,#360,#361,#362,#363,#364,#365,#366,#367,#368,#369,#370,
    #371,#372,#373,#374,#375,#376,#377,#378,#379,#380,#381,#382,#383,
    #384,#385,#386,#387,#388,#389,#390,#391,#392,#393,#394,#395,#396,
    #397,#398,#399,#400,#401,#402,#403,#404,#405,#406),.UNSPECIFIED.,.F.
  ,.F.,(8,6,6,6,6,6,6,6,6,6,6,8),(0.,0.127352647021,0.203160873854,
    0.29484484582,0.361651020373,0.529177607367,0.650274275761,
    0.696487473888,0.756639160901,0.835775838553,0.898447207511,1.),
  .UNSPECIFIED.);
#339 = CARTESIAN_POINT('',(11.,0.,27.910571473906));
#340 = CARTESIAN_POINT('',(11.,-0.261424857987,27.910571473906));
#341 = CARTESIAN_POINT('',(11.019933481645,-0.522980632148,
    27.899858601406));
#342 = CARTESIAN_POINT('',(11.059835477532,-0.781577832406,
    27.878414075191));
#343 = CARTESIAN_POINT('',(11.118957764645,-1.034596981822,
    27.846613928326));
#344 = CARTESIAN_POINT('',(11.196112732835,-1.279800118191,
    27.805044874831));
#345 = CARTESIAN_POINT('',(11.289760358614,-1.515308955948,
    27.754470471547));
#346 = CARTESIAN_POINT('',(11.462564770473,-1.873108345252,
    27.660879893526));
#347 = CARTESIAN_POINT('',(11.532277199291,-2.002707594361,
    27.623072404641));
#348 = CARTESIAN_POINT('',(11.606873825983,-2.128125126127,
    27.582552935271));
#349 = CARTESIAN_POINT('',(11.686001005836,-2.249152527734,
    27.539497459662));
#350 = CARTESIAN_POINT('',(11.769307926911,-2.365634936172,
    27.494080654651));
#351 = CARTESIAN_POINT('',(11.856455756886,-2.477462669357,
    27.446471389563));
#352 = CARTESIAN_POINT('',(12.056786134225,-2.714091947083,
    27.336788778263));
#353 = CARTESIAN_POINT('',(12.171593405222,-2.836699982333,
    27.273777344163));
#354 = CARTESIAN_POINT('',(12.290993662601,-2.952271605151,
    27.208070231209));
#355 = CARTESIAN_POINT('',(12.414464361535,-3.060751863602,
    27.139928590419));
#356 = CARTESIAN_POINT('',(12.541522061547,-3.162134229359,
    27.06959482654));
#357 = CARTESIAN_POINT('',(12.671729135383,-3.25644861541,
    26.997289018162));
#358 = CARTESIAN_POINT('',(12.901590986976,-3.40736172328,26.86922374025
    ));
#359 = CARTESIAN_POINT('',(12.999945843976,-3.467248122072,
    26.814300025043));
#360 = CARTESIAN_POINT('',(13.099614304744,-3.523429015002,26.7585102335
    ));
#361 = CARTESIAN_POINT('',(13.200454715331,-3.575928676986,
    26.701926225991));
#362 = CARTESIAN_POINT('',(13.302334749739,-3.624774231258,
    26.644615506525));
#363 = CARTESIAN_POINT('',(13.405131647671,-3.669994647659,
    26.58664104731));
#364 = CARTESIAN_POINT('',(13.768527139266,-3.816000957957,
    26.381163068704));
#365 = CARTESIAN_POINT('',(14.033296374769,-3.897741387459,
    26.230503205842));
#366 = CARTESIAN_POINT('',(14.301358026269,-3.95737501959,
    26.076945172573));
#367 = CARTESIAN_POINT('',(14.571191702398,-3.995316057024,
    25.921291300419));
#368 = CARTESIAN_POINT('',(14.841425395141,-4.011924975997,
    25.76429040721));
#369 = CARTESIAN_POINT('',(15.110829645293,-4.00748216347,
    25.606639139814));
#370 = CARTESIAN_POINT('',(15.571674198066,-3.963699308078,
    25.335010605179));
#371 = CARTESIAN_POINT('',(15.763980414995,-3.93437682369,
    25.221067074459));
#372 = CARTESIAN_POINT('',(15.954812239935,-3.894143980975,
    25.107397571284));
#373 = CARTESIAN_POINT('',(16.143717304146,-3.842999607311,
    24.99427703509));
#374 = CARTESIAN_POINT('',(16.330218679245,-3.780912583875,
    24.882003980267));
#375 = CARTESIAN_POINT('',(16.513813739461,-3.707818376782,
    24.770902187126));
#376 = CARTESIAN_POINT('',(16.762721271808,-3.591458406273,
    24.619506707965));
#377 = CARTESIAN_POINT('',(16.830969631523,-3.557699052438,
    24.577912617618));
#378 = CARTESIAN_POINT('',(16.898684050386,-3.522314629159,
    24.536562143775));
#379 = CARTESIAN_POINT('',(16.965832114705,-3.485298817656,
    24.495476826011));
#380 = CARTESIAN_POINT('',(17.032379744948,-3.446644858911,
    24.454679470461));
#381 = CARTESIAN_POINT('',(17.098291195746,-3.406345553668,
    24.414194149823));
#382 = CARTESIAN_POINT('',(17.248443485179,-3.309787626084,
    24.321789125121));
#383 = CARTESIAN_POINT('',(17.332215474913,-3.252382333808,
    24.27010440652));
#384 = CARTESIAN_POINT('',(17.414763415636,-3.192160012739,
    24.219047414868));
#385 = CARTESIAN_POINT('',(17.495997934155,-3.129103848221,
    24.168679062754));
#386 = CARTESIAN_POINT('',(17.575822070203,-3.063198016187,
    24.119065761292));
#387 = CARTESIAN_POINT('',(17.654131453102,-2.994428115541,
    24.070279373381));
#388 = CARTESIAN_POINT('',(17.831700092088,-2.828522113474,
    23.959402446059));
#389 = CARTESIAN_POINT('',(17.929764927109,-2.729288933417,
    23.897976383081));
#390 = CARTESIAN_POINT('',(18.024759404622,-2.625050668746,
    23.838291942954));
#391 = CARTESIAN_POINT('',(18.116395632827,-2.51579419732,
    23.780548879082));
#392 = CARTESIAN_POINT('',(18.20435233081,-2.401532126737,
    23.724970576685));
#393 = CARTESIAN_POINT('',(18.288279752353,-2.282310254605,
    23.671800896156));
#394 = CARTESIAN_POINT('',(18.43078339312,-2.059939261967,
    23.581308225578));
#395 = CARTESIAN_POINT('',(18.490997845748,-1.958611867958,
    23.542991862761));
#396 = CARTESIAN_POINT('',(18.548260453367,-1.854281652975,
    23.50648285151));
#397 = CARTESIAN_POINT('',(18.602369455724,-1.747021889209,
    23.471922128243));
#398 = CARTESIAN_POINT('',(18.653114870736,-1.636935650486,
    23.439456425802));
#399 = CARTESIAN_POINT('',(18.700284518636,-1.524161147909,
    23.409234057029));
#400 = CARTESIAN_POINT('',(18.813972028432,-1.222070542941,
    23.336299476722));
#401 = CARTESIAN_POINT('',(18.874379356711,-1.02856702089,23.2974445795)
  );
#402 = CARTESIAN_POINT('',(18.923922927494,-0.829280814719,
    23.265508062461));
#403 = CARTESIAN_POINT('',(18.961770393619,-0.625327623617,
    23.241073662719));
#404 = CARTESIAN_POINT('',(18.987261602497,-0.41803804038,
    23.224603701655));
#405 = CARTESIAN_POINT('',(19.,-0.208981404705,23.216373532488));
#406 = CARTESIAN_POINT('',(19.,-8.881784197001E-16,23.216373532488));
#407 = PCURVE('',#39,#408);
#408 = DEFINITIONAL_REPRESENTATION('',(#409),#478);
#409 = B_SPLINE_CURVE_WITH_KNOTS('',7,(#410,#411,#412,#413,#414,#415,
    #416,#417,#418,#419,#420,#421,#422,#423,#424,#425,#426,#427,#428,
    #429,#430,#431,#432,#433,#434,#435,#436,#437,#438,#439,#440,#441,
    #442,#443,#444,#445,#446,#447,#448,#449,#450,#451,#452,#453,#454,
    #455,#456,#457,#458,#459,#460,#461,#462,#463,#464,#465,#466,#467,
    #468,#469,#470,#471,#472,#473,#474,#475,#476,#477),.UNSPECIFIED.,.F.
  ,.F.,(8,6,6,6,6,6,6,6,6,6,6,8),(0.,0.127352647021,0.203160873854,
    0.29484484582,0.361651020373,0.529177607367,0.650274275761,
    0.696487473888,0.756639160901,0.835775838553,0.898447207511,1.),
  .UNSPECIFIED.);
#410 = CARTESIAN_POINT('',(6.28318530718,1.195372718814));
#411 = CARTESIAN_POINT('',(6.259419410999,1.195372718814));
#412 = CARTESIAN_POINT('',(6.235641673684,1.194398824917));
#413 = CARTESIAN_POINT('',(6.212357232763,1.192449304533));
#414 = CARTESIAN_POINT('',(6.19003168211,1.18957358584));
#415 = CARTESIAN_POINT('',(6.169018913182,1.185855322821));
#416 = CARTESIAN_POINT('',(6.149544484015,1.181396458617));
#417 = CARTESIAN_POINT('',(6.121129065085,1.17327937196));
#418 = CARTESIAN_POINT('',(6.111109831118,1.170026029102));
#419 = CARTESIAN_POINT('',(6.101696794053,1.166570051128));
#420 = CARTESIAN_POINT('',(6.092898616216,1.162933050493));
#421 = CARTESIAN_POINT('',(6.084713138189,1.159135828314));
#422 = CARTESIAN_POINT('',(6.077130287326,1.1551978175));
#423 = CARTESIAN_POINT('',(6.061674730519,1.146224719301));
#424 = CARTESIAN_POINT('',(6.054074380387,1.14113284431));
#425 = CARTESIAN_POINT('',(6.047305669757,1.135891704545));
#426 = CARTESIAN_POINT('',(6.041331729387,1.130528725269));
#427 = CARTESIAN_POINT('',(6.036110613739,1.125067939041));
#428 = CARTESIAN_POINT('',(6.031598827818,1.119529971393));
#429 = CARTESIAN_POINT('',(6.024953915306,1.109853044368));
#430 = CARTESIAN_POINT('',(6.022507580205,1.105742363207));
#431 = CARTESIAN_POINT('',(6.020399583229,1.101606722712));
#432 = CARTESIAN_POINT('',(6.0186141167,1.097452158626));
#433 = CARTESIAN_POINT('',(6.017135986497,1.093284047573));
#434 = CARTESIAN_POINT('',(6.015950767807,1.089107151887));
#435 = CARTESIAN_POINT('',(6.012773512985,1.07443995223));
#436 = CARTESIAN_POINT('',(6.012259762431,1.063928622166));
#437 = CARTESIAN_POINT('',(6.013287682408,1.053453561735));
#438 = CARTESIAN_POINT('',(6.01568289766,1.043063622937));
#439 = CARTESIAN_POINT('',(6.019304284887,1.032798280234));
#440 = CARTESIAN_POINT('',(6.024040288289,1.022689961638));
#441 = CARTESIAN_POINT('',(6.033980553001,1.005590828248));
#442 = CARTESIAN_POINT('',(6.038690219761,0.998514231598));
#443 = CARTESIAN_POINT('',(6.04390755598,0.991545768148));
#444 = CARTESIAN_POINT('',(6.049607931192,0.984696739735));
#445 = CARTESIAN_POINT('',(6.05577205337,0.977979222705));
#446 = CARTESIAN_POINT('',(6.062385711214,0.971406165838));
#447 = CARTESIAN_POINT('',(6.072133020024,0.962543669755));
#448 = CARTESIAN_POINT('',(6.074889536061,0.960118897522));
#449 = CARTESIAN_POINT('',(6.077709721162,0.957718111957));
#450 = CARTESIAN_POINT('',(6.080593142646,0.955342192213));
#451 = CARTESIAN_POINT('',(6.083539446494,0.952992076337));
#452 = CARTESIAN_POINT('',(6.086548357357,0.950668761272));
#453 = CARTESIAN_POINT('',(6.093617349314,0.945385504955));
#454 = CARTESIAN_POINT('',(6.097720697,0.942444945307));
#455 = CARTESIAN_POINT('',(6.101929336168,0.939553920896));
#456 = CARTESIAN_POINT('',(6.106242978008,0.93671500205));
#457 = CARTESIAN_POINT('',(6.110661434924,0.933931025624));
#458 = CARTESIAN_POINT('',(6.115184625119,0.931205088197));
#459 = CARTESIAN_POINT('',(6.125901196943,0.925035009145));
#460 = CARTESIAN_POINT('',(6.132170801831,0.92163593386));
#461 = CARTESIAN_POINT('',(6.13862166549,0.918350785743));
#462 = CARTESIAN_POINT('',(6.145253539802,0.915188368548));
#463 = CARTESIAN_POINT('',(6.152065502756,0.912158650996));
#464 = CARTESIAN_POINT('',(6.159055806332,0.909272600328));
#465 = CARTESIAN_POINT('',(6.171896689598,0.904379561325));
#466 = CARTESIAN_POINT('',(6.177681520365,0.902314719799));
#467 = CARTESIAN_POINT('',(6.183574525259,0.900353426838));
#468 = CARTESIAN_POINT('',(6.189573174011,0.898502116098));
#469 = CARTESIAN_POINT('',(6.195673897661,0.896767520078));
#470 = CARTESIAN_POINT('',(6.201871888716,0.895156470877));
#471 = CARTESIAN_POINT('',(6.218351627976,0.891276258818));
#472 = CARTESIAN_POINT('',(6.228787204409,0.889217481424));
#473 = CARTESIAN_POINT('',(6.239432392254,0.887530845368));
#474 = CARTESIAN_POINT('',(6.250246680597,0.886243359888));
#475 = CARTESIAN_POINT('',(6.261183313527,0.885376532399));
#476 = CARTESIAN_POINT('',(6.272186285879,0.884943362176));
#477 = CARTESIAN_POINT('',(6.28318530718,0.884943362176));
#478 = ( GEOMETRIC_REPRESENTATION_CONTEXT(2) 
PARAMETRIC_REPRESENTATION_CONTEXT() REPRESENTATION_CONTEXT('2D SPACE',''
  ) );
#479 = PCURVE('',#480,#485);
#480 = CYLINDRICAL_SURFACE('',#481,4.);
#481 = AXIS2_PLACEMENT_3D('',#482,#483,#484);
#482 = CARTESIAN_POINT('',(15.,0.,0.));
#483 = DIRECTION('',(-0.,-0.,-1.));
#484 = DIRECTION('',(1.,0.,0.));
#485 = DEFINITIONAL_REPRESENTATION('',(#486),#555);
#486 = B_SPLINE_CURVE_WITH_KNOTS('',7,(#487,#488,#489,#490,#491,#492,
    #493,#494,#495,#496,#497,#498,#499,#500,#501,#502,#503,#504,#505,
    #506,#507,#508,#509,#510,#511,#512,#513,#514,#515,#516,#517,#518,
    #519,#520,#521,#522,#523,#524,#525,#526,#527,#528,#529,#530,#531,
    #532,#533,#534,#535,#536,#537,#538,#539,#540,#541,#542,#543,#544,
    #545,#546,#547,#548,#549,#550,#551,#552,#553,#554),.UNSPECIFIED.,.F.
  ,.F.,(8,6,6,6,6,6,6,6,6,6,6,8),(0.,0.127352647021,0.203160873854,
    0.29484484582,0.361651020373,0.529177607367,0.650274275761,
    0.696487473888,0.756639160901,0.835775838553,0.898447207511,1.),
  .UNSPECIFIED.);
#487 = CARTESIAN_POINT('',(-3.14159265359,-27.9105714739));
#488 = CARTESIAN_POINT('',(-3.206948868087,-27.9105714739));
#489 = CARTESIAN_POINT('',(-3.272337784308,-27.8998586014));
#490 = CARTESIAN_POINT('',(-3.337443207657,-27.87841407519));
#491 = CARTESIAN_POINT('',(-3.40206748558,-27.84661392832));
#492 = CARTESIAN_POINT('',(-3.466050399011,-27.80504487483));
#493 = CARTESIAN_POINT('',(-3.529249951236,-27.75447047154));
#494 = CARTESIAN_POINT('',(-3.62858579816,-27.66087989352));
#495 = CARTESIAN_POINT('',(-3.665340552087,-27.62307240464));
#496 = CARTESIAN_POINT('',(-3.70176834368,-27.58255293527));
#497 = CARTESIAN_POINT('',(-3.737860316379,-27.53949745966));
#498 = CARTESIAN_POINT('',(-3.773613073407,-27.49408065465));
#499 = CARTESIAN_POINT('',(-3.809027836355,-27.44647138956));
#500 = CARTESIAN_POINT('',(-3.886538188551,-27.33678877826));
#501 = CARTESIAN_POINT('',(-3.928477709518,-27.27377734416));
#502 = CARTESIAN_POINT('',(-3.969941522353,-27.2080702312));
#503 = CARTESIAN_POINT('',(-4.010946225044,-27.13992859041));
#504 = CARTESIAN_POINT('',(-4.05151217485,-27.06959482654));
#505 = CARTESIAN_POINT('',(-4.091664005256,-26.99728901816));
#506 = CARTESIAN_POINT('',(-4.160407749037,-26.86922374025));
#507 = CARTESIAN_POINT('',(-4.189179158536,-26.81430002504));
#508 = CARTESIAN_POINT('',(-4.21775641488,-26.7585102335));
#509 = CARTESIAN_POINT('',(-4.246150447807,-26.70192622599));
#510 = CARTESIAN_POINT('',(-4.274372323675,-26.64461550652));
#511 = CARTESIAN_POINT('',(-4.302433495778,-26.58664104731));
#512 = CARTESIAN_POINT('',(-4.40034101782,-26.3811630687));
#513 = CARTESIAN_POINT('',(-4.469379991809,-26.23050320584));
#514 = CARTESIAN_POINT('',(-4.537681243448,-26.07694517257));
#515 = CARTESIAN_POINT('',(-4.605425357323,-25.92129130041));
#516 = CARTESIAN_POINT('',(-4.672782396694,-25.76429040721));
#517 = CARTESIAN_POINT('',(-4.739936850563,-25.60663913981));
#518 = CARTESIAN_POINT('',(-4.855666773294,-25.33501060517));
#519 = CARTESIAN_POINT('',(-4.904221176766,-25.22106707445));
#520 = CARTESIAN_POINT('',(-4.952853446076,-25.10739757128));
#521 = CARTESIAN_POINT('',(-5.00163837111,-24.99427703509));
#522 = CARTESIAN_POINT('',(-5.05065020842,-24.88200398026));
#523 = CARTESIAN_POINT('',(-5.099968626133,-24.77090218712));
#524 = CARTESIAN_POINT('',(-5.168659328923,-24.61950670796));
#525 = CARTESIAN_POINT('',(-5.187690108657,-24.57791261761));
#526 = CARTESIAN_POINT('',(-5.206783128482,-24.53656214377));
#527 = CARTESIAN_POINT('',(-5.225943193712,-24.49547682601));
#528 = CARTESIAN_POINT('',(-5.24517517394,-24.45467947046));
#529 = CARTESIAN_POINT('',(-5.264484003044,-24.41419414982));
#530 = CARTESIAN_POINT('',(-5.309113830094,-24.32178912512));
#531 = CARTESIAN_POINT('',(-5.334491325127,-24.27010440652));
#532 = CARTESIAN_POINT('',(-5.360018616363,-24.21904741486));
#533 = CARTESIAN_POINT('',(-5.385706738755,-24.16867906275));
#534 = CARTESIAN_POINT('',(-5.411566554323,-24.11906576129));
#535 = CARTESIAN_POINT('',(-5.437608996354,-24.07027937338));
#536 = CARTESIAN_POINT('',(-5.498362300314,-23.95940244605));
#537 = CARTESIAN_POINT('',(-5.533212933203,-23.89797638308));
#538 = CARTESIAN_POINT('',(-5.568423998997,-23.83829194295));
#539 = CARTESIAN_POINT('',(-5.60401833929,-23.78054887908));
#540 = CARTESIAN_POINT('',(-5.640015233974,-23.72497057668));
#541 = CARTESIAN_POINT('',(-5.67643078467,-23.67180089615));
#542 = CARTESIAN_POINT('',(-5.742459256747,-23.58130822557));
#543 = CARTESIAN_POINT('',(-5.771909713169,-23.54299186276));
#544 = CARTESIAN_POINT('',(-5.801634522121,-23.50648285151));
#545 = CARTESIAN_POINT('',(-5.831635191165,-23.47192212824));
#546 = CARTESIAN_POINT('',(-5.861909252672,-23.4394564258));
#547 = CARTESIAN_POINT('',(-5.892449635777,-23.40923405702));
#548 = CARTESIAN_POINT('',(-5.973143340416,-23.33629947672));
#549 = CARTESIAN_POINT('',(-6.023738224374,-23.2974445795));
#550 = CARTESIAN_POINT('',(-6.074932929861,-23.26550806246));
#551 = CARTESIAN_POINT('',(-6.12662023947,-23.24107366271));
#552 = CARTESIAN_POINT('',(-6.178675885163,-23.22460370165));
#553 = CARTESIAN_POINT('',(-6.230939956003,-23.21637353248));
#554 = CARTESIAN_POINT('',(-6.28318530718,-23.21637353248));
#555 = ( GEOMETRIC_REPRESENTATION_CONTEXT(2) 
PARAMETRIC_REPRESENTATION_CONTEXT() REPRESENTATION_CONTEXT('2D SPACE',''
  ) );
#556 = ORIENTED_EDGE('',*,*,#557,.T.);
#557 = EDGE_CURVE('',#335,#24,#558,.T.);
#558 = SURFACE_CURVE('',#559,(#564,#571),.PCURVE_S1.);
#559 = CIRCLE('',#560,30.);
#560 = AXIS2_PLACEMENT_3D('',#561,#562,#563);
#561 = CARTESIAN_POINT('',(0.,0.,0.));
#562 = DIRECTION('',(-2.449293598295E-16,-1.,0.));
#563 = DIRECTION('',(1.,-2.449293598295E-16,0.));
#564 = PCURVE('',#39,#565);
#565 = DEFINITIONAL_REPRESENTATION('',(#566),#570);
#566 = LINE('',#567,#568);
#567 = CARTESIAN_POINT('',(6.28318530718,-6.28318530718));
#568 = VECTOR('',#569,1.);
#569 = DIRECTION('',(0.,1.));
#570 = ( GEOMETRIC_REPRESENTATION_CONTEXT(2) 
PARAMETRIC_REPRESENTATION_CONTEXT() REPRESENTATION_CONTEXT('2D SPACE',''
  ) );
#571 = PCURVE('',#51,#572);
#572 = DEFINITIONAL_REPRESENTATION('',(#573),#577);
#573 = LINE('',#574,#575);
#574 = CARTESIAN_POINT('',(0.,-6.28318530718));
#575 = VECTOR('',#576,1.);
#576 = DIRECTION('',(0.,1.));
#577 = ( GEOMETRIC_REPRESENTATION_CONTEXT(2) 
PARAMETRIC_REPRESENTATION_CONTEXT() REPRESENTATION_CONTEXT('2D SPACE',''
  ) );
#578 = ADVANCED_FACE('',(#579),#51,.T.);
#579 = FACE_BOUND('',#580,.T.);
#580 = EDGE_LOOP('',(#581,#582,#803,#804,#1025,#1026));
#581 = ORIENTED_EDGE('',*,*,#557,.F.);
#582 = ORIENTED_EDGE('',*,*,#583,.F.);
#583 = EDGE_CURVE('',#311,#335,#584,.T.);
#584 = SURFACE_CURVE('',#585,(#654,#726),.PCURVE_S1.);
#585 = B_SPLINE_CURVE_WITH_KNOTS('',7,(#586,#587,#588,#589,#590,#591,
    #592,#593,#594,#595,#596,#597,#598,#599,#600,#601,#602,#603,#604,
    #605,#606,#607,#608,#609,#610,#611,#612,#613,#614,#615,#616,#617,
    #618,#619,#620,#621,#622,#623,#624,#625,#626,#627,#628,#629,#630,
    #631,#632,#633,#634,#635,#636,#637,#638,#639,#640,#641,#642,#643,
    #644,#645,#646,#647,#648,#649,#650,#651,#652,#653),.UNSPECIFIED.,.F.
  ,.F.,(8,6,6,6,6,6,6,6,6,6,6,8),(0.,0.102468915265,0.164706665191,
    0.243876303622,0.304048603297,0.34972438412,0.47138399149,
    0.637808438627,0.704634690632,0.796351643896,0.872186291379,1.),
  .UNSPECIFIED.);
#586 = CARTESIAN_POINT('',(19.,-9.797174393179E-16,23.216373532488));
#587 = CARTESIAN_POINT('',(19.,0.21088049745,23.216373532488));
#588 = CARTESIAN_POINT('',(18.987028994912,0.421828642175,
    23.224753985231));
#589 = CARTESIAN_POINT('',(18.961074344019,0.630955100869,
    23.241523384701));
#590 = CARTESIAN_POINT('',(18.922547625601,0.836655408811,
    23.266395953435));
#591 = CARTESIAN_POINT('',(18.872130665748,1.037570589341,
    23.298894082687));
#592 = CARTESIAN_POINT('',(18.810681895094,1.2325605436,23.338415658005)
  );
#593 = CARTESIAN_POINT('',(18.695788076855,1.534956738425,
    23.412115095639));
#594 = CARTESIAN_POINT('',(18.648656283006,1.646735310759,
    23.442309435486));
#595 = CARTESIAN_POINT('',(18.598011967183,1.755853368258,
    23.474706434888));
#596 = CARTESIAN_POINT('',(18.544062829043,1.8621774281,23.509160913723)
  );
#597 = CARTESIAN_POINT('',(18.487014191659,1.965607946567,
    23.545529397285));
#598 = CARTESIAN_POINT('',(18.427063240504,2.066074181689,
    23.583674146986));
#599 = CARTESIAN_POINT('',(18.284673807442,2.287496698725,
    23.674086002226));
#600 = CARTESIAN_POINT('',(18.200559788428,2.406583936002,
    23.727368695504));
#601 = CARTESIAN_POINT('',(18.112424226597,2.520705581689,
    23.783054282559));
#602 = CARTESIAN_POINT('',(18.020616495828,2.629816799803,
    23.840899172686));
#603 = CARTESIAN_POINT('',(17.92545744616,2.733905689455,23.900680294873
    ));
#604 = CARTESIAN_POINT('',(17.827234527272,2.832985869878,
    23.962198219872));
#605 = CARTESIAN_POINT('',(17.649404017782,2.998611505102,
    24.073225338433));
#606 = CARTESIAN_POINT('',(17.570988526351,3.067255855185,
    24.122071827379));
#607 = CARTESIAN_POINT('',(17.491061845257,3.133034798921,
    24.171742626504));
#608 = CARTESIAN_POINT('',(17.409728162091,3.195962830902,
    24.222166009542));
#609 = CARTESIAN_POINT('',(17.327084270767,3.256055830284,
    24.273275691226));
#610 = CARTESIAN_POINT('',(17.243219397838,3.313330633962,
    24.325010871957));
#611 = CARTESIAN_POINT('',(17.093689641719,3.409154888724,
    24.417020440024));
#612 = CARTESIAN_POINT('',(17.028508379117,3.448890840498,
    24.457052722328));
#613 = CARTESIAN_POINT('',(16.962707277479,3.487019827018,
    24.497388727481));
#614 = CARTESIAN_POINT('',(16.896320787823,3.523548787655,
    24.538005259386));
#615 = CARTESIAN_POINT('',(16.82938177571,3.558484239195,24.578880327759
    ));
#616 = CARTESIAN_POINT('',(16.76192152125,3.59183227584,24.619993148121)
  );
#617 = CARTESIAN_POINT('',(16.512976872965,3.708209597409,
    24.771411202675));
#618 = CARTESIAN_POINT('',(16.32851311177,3.781591335639,24.883036084771
    ));
#619 = CARTESIAN_POINT('',(16.141118444095,3.843864000605,
    24.995841500583));
#620 = CARTESIAN_POINT('',(15.951302292905,3.895092783944,25.10949932953
    ));
#621 = CARTESIAN_POINT('',(15.759548049524,3.935308864797,
    25.223707096581));
#622 = CARTESIAN_POINT('',(15.566314240954,3.964512960685,
    25.338186243165));
#623 = CARTESIAN_POINT('',(15.106264044813,4.007487624992,25.60930709756
    ));
#624 = CARTESIAN_POINT('',(14.83862489907,4.011617142369,25.765910131862
    ));
#625 = CARTESIAN_POINT('',(14.570180357958,3.994967656465,
    25.921863937991));
#626 = CARTESIAN_POINT('',(14.30213645416,3.957264177159,26.076485355474
    ));
#627 = CARTESIAN_POINT('',(14.035838155578,3.898153398646,
    26.229040348228));
#628 = CARTESIAN_POINT('',(13.772774975292,3.817229211345,
    26.378742727663));
#629 = CARTESIAN_POINT('',(13.410923458429,3.672506292965,
    26.583373249515));
#630 = CARTESIAN_POINT('',(13.30805286386,3.627446944245,26.6413963887)
  );
#631 = CARTESIAN_POINT('',(13.2060948294,3.578761473629,26.698757883976)
  );
#632 = CARTESIAN_POINT('',(13.105171947047,3.52642085153,26.755394836318
    ));
#633 = CARTESIAN_POINT('',(13.005416357411,3.470397859187,
    26.811239824406));
#634 = CARTESIAN_POINT('',(12.906969515134,3.410668085271,
    26.866221078482));
#635 = CARTESIAN_POINT('',(12.676869542405,3.260117939415,
    26.994433036711));
#636 = CARTESIAN_POINT('',(12.546512201581,3.166007772536,27.06682992067
    ));
#637 = CARTESIAN_POINT('',(12.419294541118,3.064825555113,
    27.137259362485));
#638 = CARTESIAN_POINT('',(12.295653677565,2.9565406921,27.205501520535)
  );
#639 = CARTESIAN_POINT('',(12.176072576292,2.841158803945,
    27.271314211362));
#640 = CARTESIAN_POINT('',(12.061073393034,2.718733670386,
    27.334436465886));
#641 = CARTESIAN_POINT('',(11.860372758278,2.482424546307,
    27.444330765897));
#642 = CARTESIAN_POINT('',(11.773050117055,2.370736821577,
    27.492039231477));
#643 = CARTESIAN_POINT('',(11.689560430605,2.254387990986,
    27.537559010587));
#644 = CARTESIAN_POINT('',(11.610242495743,2.133486748535,
    27.580721247654));
#645 = CARTESIAN_POINT('',(11.535447253174,2.008186863315,27.62135119819
    ));
#646 = CARTESIAN_POINT('',(11.465528673396,1.878695551499,
    27.659272723702));
#647 = CARTESIAN_POINT('',(11.291797622262,1.520422885488,
    27.753370229825));
#648 = CARTESIAN_POINT('',(11.197511677616,1.284237430281,
    27.804291152498));
#649 = CARTESIAN_POINT('',(11.119815739618,1.038261132757,
    27.846152446684));
#650 = CARTESIAN_POINT('',(11.060269896752,0.784387529827,
    27.878180605744));
#651 = CARTESIAN_POINT('',(11.020078096343,0.524875484709,
    27.899780880845));
#652 = CARTESIAN_POINT('',(11.,0.262371427544,27.910571473906));
#653 = CARTESIAN_POINT('',(11.,2.449293598295E-16,27.910571473906));
#654 = PCURVE('',#51,#655);
#655 = DEFINITIONAL_REPRESENTATION('',(#656),#725);
#656 = B_SPLINE_CURVE_WITH_KNOTS('',7,(#657,#658,#659,#660,#661,#662,
    #663,#664,#665,#666,#667,#668,#669,#670,#671,#672,#673,#674,#675,
    #676,#677,#678,#679,#680,#681,#682,#683,#684,#685,#686,#687,#688,
    #689,#690,#691,#692,#693,#694,#695,#696,#697,#698,#699,#700,#701,
    #702,#703,#704,#705,#706,#707,#708,#709,#710,#711,#712,#713,#714,
    #715,#716,#717,#718,#719,#720,#721,#722,#723,#724),.UNSPECIFIED.,.F.
  ,.F.,(8,6,6,6,6,6,6,6,6,6,6,8),(0.,0.102468915265,0.164706665191,
    0.243876303622,0.304048603297,0.34972438412,0.47138399149,
    0.637808438627,0.704634690632,0.796351643896,0.872186291379,1.),
  .UNSPECIFIED.);
#657 = CARTESIAN_POINT('',(0.,0.884943362176));
#658 = CARTESIAN_POINT('',(1.109897355E-02,0.884943362176));
#659 = CARTESIAN_POINT('',(2.220149814321E-02,0.885384442239));
#660 = CARTESIAN_POINT('',(3.323554418594E-02,0.886267029049));
#661 = CARTESIAN_POINT('',(4.414397135294E-02,0.88757763024));
#662 = CARTESIAN_POINT('',(5.48791063542E-02,0.889294035552));
#663 = CARTESIAN_POINT('',(6.539952626806E-02,0.891388394055));
#664 = CARTESIAN_POINT('',(8.190656726737E-02,0.895310041303));
#665 = CARTESIAN_POINT('',(8.805386303898E-02,0.896919909853));
#666 = CARTESIAN_POINT('',(9.410490758876E-02,0.898651172539));
#667 = CARTESIAN_POINT('',(0.100055059963,0.900497142995));
#668 = CARTESIAN_POINT('',(0.105900873925,0.902451239613));
#669 = CARTESIAN_POINT('',(0.111639906457,0.904507176109));
#670 = CARTESIAN_POINT('',(0.124432966017,0.909396576874));
#671 = CARTESIAN_POINT('',(0.131419540816,0.912289227823));
#672 = CARTESIAN_POINT('',(0.138227565656,0.915325316759));
#673 = CARTESIAN_POINT('',(0.144855320723,0.918493891055));
#674 = CARTESIAN_POINT('',(0.151301901212,0.921784998538));
#675 = CARTESIAN_POINT('',(0.157567067149,0.925189852391));
#676 = CARTESIAN_POINT('',(0.168275212346,0.931369614913));
#677 = CARTESIAN_POINT('',(0.172794495614,0.934099517623));
#678 = CARTESIAN_POINT('',(0.177208971552,0.936887362151));
#679 = CARTESIAN_POINT('',(0.18151855635,0.939730058895));
#680 = CARTESIAN_POINT('',(0.185723058559,0.942624777408));
#681 = CARTESIAN_POINT('',(0.189822183779,0.945568953102));
#682 = CARTESIAN_POINT('',(0.196846828428,0.9508309705));
#683 = CARTESIAN_POINT('',(0.199817138967,0.953128799051));
#684 = CARTESIAN_POINT('',(0.202726277884,0.955452763169));
#685 = CARTESIAN_POINT('',(0.205573976867,0.957801902469));
#686 = CARTESIAN_POINT('',(0.208359892382,0.960175312617));
#687 = CARTESIAN_POINT('',(0.211083605676,0.962572145334));
#688 = CARTESIAN_POINT('',(0.22083236796,0.971435962952));
#689 = CARTESIAN_POINT('',(0.227474680845,0.978040286109));
#690 = CARTESIAN_POINT('',(0.233663236423,0.984790349599));
#691 = CARTESIAN_POINT('',(0.239383598288,0.991673032069));
#692 = CARTESIAN_POINT('',(0.244616153137,0.998676095523));
#693 = CARTESIAN_POINT('',(0.249335844996,1.005788084626));
#694 = CARTESIAN_POINT('',(0.259221721073,1.022861640959));
#695 = CARTESIAN_POINT('',(0.263911269216,1.032905474685));
#696 = CARTESIAN_POINT('',(0.267499596182,1.043103914607));
#697 = CARTESIAN_POINT('',(0.269877146625,1.053425127709));
#698 = CARTESIAN_POINT('',(0.270905535382,1.063830404414));
#699 = CARTESIAN_POINT('',(0.270413980473,1.07427190472));
#700 = CARTESIAN_POINT('',(0.267298663745,1.088872073132));
#701 = CARTESIAN_POINT('',(0.266127094738,1.093050594272));
#702 = CARTESIAN_POINT('',(0.264663010509,1.097220512074));
#703 = CARTESIAN_POINT('',(0.262892000296,1.101377077988));
#704 = CARTESIAN_POINT('',(0.260798879863,1.10551493085));
#705 = CARTESIAN_POINT('',(0.258367845304,1.109628051993));
#706 = CARTESIAN_POINT('',(0.251760001112,1.119311683303));
#707 = CARTESIAN_POINT('',(0.24727027445,1.124854125188));
#708 = CARTESIAN_POINT('',(0.24207190884,1.130319887207));
#709 = CARTESIAN_POINT('',(0.236121357633,1.135688394733));
#710 = CARTESIAN_POINT('',(0.229376573396,1.140935667773));
#711 = CARTESIAN_POINT('',(0.221800515746,1.146034331412));
#712 = CARTESIAN_POINT('',(0.206389610577,1.155021063945));
#713 = CARTESIAN_POINT('',(0.198827098576,1.158965700461));
#714 = CARTESIAN_POINT('',(0.190661898621,1.162770053753));
#715 = CARTESIAN_POINT('',(0.181883745092,1.166414710685));
#716 = CARTESIAN_POINT('',(0.172490241724,1.169878880017));
#717 = CARTESIAN_POINT('',(0.162489772007,1.173140945368));
#718 = CARTESIAN_POINT('',(0.134063561479,1.181299465988));
#719 = CARTESIAN_POINT('',(0.114546568716,1.185787908341));
#720 = CARTESIAN_POINT('',(9.347688945232E-02,1.189531855045));
#721 = CARTESIAN_POINT('',(7.108105884936E-02,1.192428079426));
#722 = CARTESIAN_POINT('',(4.771589123003E-02,1.194391759559));
#723 = CARTESIAN_POINT('',(2.385194795853E-02,1.195372718814));
#724 = CARTESIAN_POINT('',(2.226630543904E-17,1.195372718814));
#725 = ( GEOMETRIC_REPRESENTATION_CONTEXT(2) 
PARAMETRIC_REPRESENTATION_CONTEXT() REPRESENTATION_CONTEXT('2D SPACE',''
  ) );
#726 = PCURVE('',#727,#732);
#727 = CYLINDRICAL_SURFACE('',#728,4.);
#728 = AXIS2_PLACEMENT_3D('',#729,#730,#731);
#729 = CARTESIAN_POINT('',(15.,0.,0.));
#730 = DIRECTION('',(-0.,-0.,-1.));
#731 = DIRECTION('',(1.,0.,0.));
#732 = DEFINITIONAL_REPRESENTATION('',(#733),#802);
#733 = B_SPLINE_CURVE_WITH_KNOTS('',7,(#734,#735,#736,#737,#738,#739,
    #740,#741,#742,#743,#744,#745,#746,#747,#748,#749,#750,#751,#752,
    #753,#754,#755,#756,#757,#758,#759,#760,#761,#762,#763,#764,#765,
    #766,#767,#768,#769,#770,#771,#772,#773,#774,#775,#776,#777,#778,
    #779,#780,#781,#782,#783,#784,#785,#786,#787,#788,#789,#790,#791,
    #792,#793,#794,#795,#796,#797,#798,#799,#800,#801),.UNSPECIFIED.,.F.
  ,.F.,(8,6,6,6,6,6,6,6,6,6,6,8),(0.,0.102468915265,0.164706665191,
    0.243876303622,0.304048603297,0.34972438412,0.47138399149,
    0.637808438627,0.704634690632,0.796351643896,0.872186291379,1.),
  .UNSPECIFIED.);
#734 = CARTESIAN_POINT('',(0.,-23.21637353248));
#735 = CARTESIAN_POINT('',(-5.27201243625E-02,-23.21637353248));
#736 = CARTESIAN_POINT('',(-0.105457063881,-23.22475398523));
#737 = CARTESIAN_POINT('',(-0.157978366128,-23.2415233847));
#738 = CARTESIAN_POINT('',(-0.210121568227,-23.26639595343));
#739 = CARTESIAN_POINT('',(-0.261760573144,-23.29889408268));
#740 = CARTESIAN_POINT('',(-0.312785877141,-23.338415658));
#741 = CARTESIAN_POINT('',(-0.39365770788,-23.41211509563));
#742 = CARTESIAN_POINT('',(-0.423965323726,-23.44230943548));
#743 = CARTESIAN_POINT('',(-0.454009786771,-23.47470643488));
#744 = CARTESIAN_POINT('',(-0.483784425257,-23.50916091372));
#745 = CARTESIAN_POINT('',(-0.513287007786,-23.54552939728));
#746 = CARTESIAN_POINT('',(-0.542519146254,-23.58367414698));
#747 = CARTESIAN_POINT('',(-0.608332652514,-23.67408600222));
#748 = CARTESIAN_POINT('',(-0.644747580498,-23.7273686955));
#749 = CARTESIAN_POINT('',(-0.680743979929,-23.78305428255));
#750 = CARTESIAN_POINT('',(-0.716338096228,-23.84089917268));
#751 = CARTESIAN_POINT('',(-0.751549316352,-23.90068029487));
#752 = CARTESIAN_POINT('',(-0.786400562088,-23.96219821987));
#753 = CARTESIAN_POINT('',(-0.847153926784,-24.07322533843));
#754 = CARTESIAN_POINT('',(-0.87319562377,-24.12207182737));
#755 = CARTESIAN_POINT('',(-0.899055045114,-24.1717426265));
#756 = CARTESIAN_POINT('',(-0.924743141263,-24.22216600954));
#757 = CARTESIAN_POINT('',(-0.950270787074,-24.27327569122));
#758 = CARTESIAN_POINT('',(-0.975649026585,-24.32501087195));
#759 = CARTESIAN_POINT('',(-1.020048798379,-24.41702044002));
#760 = CARTESIAN_POINT('',(-1.039128608532,-24.45705272232));
#761 = CARTESIAN_POINT('',(-1.058133571359,-24.49738872748));
#762 = CARTESIAN_POINT('',(-1.07706844847,-24.53800525938));
#763 = CARTESIAN_POINT('',(-1.095937939963,-24.57888032775));
#764 = CARTESIAN_POINT('',(-1.114746684426,-24.61999314812));
#765 = CARTESIAN_POINT('',(-1.183447630054,-24.77141120267));
#766 = CARTESIAN_POINT('',(-1.232993229578,-24.88303608477));
#767 = CARTESIAN_POINT('',(-1.282229836256,-24.99584150058));
#768 = CARTESIAN_POINT('',(-1.331238199647,-25.10949932953));
#769 = CARTESIAN_POINT('',(-1.380093553497,-25.22370709658));
#770 = CARTESIAN_POINT('',(-1.428871695014,-25.33818624316));
#771 = CARTESIAN_POINT('',(-1.544384953111,-25.60930709756));
#772 = CARTESIAN_POINT('',(-1.611100974366,-25.76591013186));
#773 = CARTESIAN_POINT('',(-1.678018578614,-25.92186393799));
#774 = CARTESIAN_POINT('',(-1.745318677674,-26.07648535547));
#775 = CARTESIAN_POINT('',(-1.813168219572,-26.22904034822));
#776 = CARTESIAN_POINT('',(-1.881744326674,-26.37874272766));
#777 = CARTESIAN_POINT('',(-1.979174187138,-26.58337324951));
#778 = CARTESIAN_POINT('',(-2.007236042792,-26.6413963887));
#779 = CARTESIAN_POINT('',(-2.035458233975,-26.69875788397));
#780 = CARTESIAN_POINT('',(-2.063852229664,-26.75539483631));
#781 = CARTESIAN_POINT('',(-2.09242911451,-26.8112398244));
#782 = CARTESIAN_POINT('',(-2.121199839806,-26.86622107848));
#783 = CARTESIAN_POINT('',(-2.189943632193,-26.99443303671));
#784 = CARTESIAN_POINT('',(-2.230095982552,-27.06682992067));
#785 = CARTESIAN_POINT('',(-2.270662032315,-27.13725936248));
#786 = CARTESIAN_POINT('',(-2.311666505218,-27.20550152053));
#787 = CARTESIAN_POINT('',(-2.353129868583,-27.27131421136));
#788 = CARTESIAN_POINT('',(-2.395068859939,-27.33443646588));
#789 = CARTESIAN_POINT('',(-2.472578031539,-27.44433076589));
#790 = CARTESIAN_POINT('',(-2.507992095541,-27.49203923147));
#791 = CARTESIAN_POINT('',(-2.543744318045,-27.53755901058));
#792 = CARTESIAN_POINT('',(-2.579836035874,-27.58072124765));
#793 = CARTESIAN_POINT('',(-2.616263976078,-27.62135119819));
#794 = CARTESIAN_POINT('',(-2.653019421733,-27.6592727237));
#795 = CARTESIAN_POINT('',(-2.752562685361,-27.75337022982));
#796 = CARTESIAN_POINT('',(-2.815976849849,-27.80429115249));
#797 = CARTESIAN_POINT('',(-2.880181868787,-27.84615244668));
#798 = CARTESIAN_POINT('',(-2.945034700476,-27.87818060574));
#799 = CARTESIAN_POINT('',(-3.010373810546,-27.89978088084));
#800 = CARTESIAN_POINT('',(-3.075999796704,-27.9105714739));
#801 = CARTESIAN_POINT('',(-3.14159265359,-27.9105714739));
#802 = ( GEOMETRIC_REPRESENTATION_CONTEXT(2) 
PARAMETRIC_REPRESENTATION_CONTEXT() REPRESENTATION_CONTEXT('2D SPACE',''
  ) );
#803 = ORIENTED_EDGE('',*,*,#310,.F.);
#804 = ORIENTED_EDGE('',*,*,#805,.T.);
#805 = EDGE_CURVE('',#88,#64,#806,.T.);
#806 = SURFACE_CURVE('',#807,(#876,#948),.PCURVE_S1.);
#807 = B_SPLINE_CURVE_WITH_KNOTS('',7,(#808,#809,#810,#811,#812,#813,
    #814,#815,#816,#817,#818,#819,#820,#821,#822,#823,#824,#825,#826,
    #827,#828,#829,#830,#831,#832,#833,#834,#835,#836,#837,#838,#839,
    #840,#841,#842,#843,#844,#845,#846,#847,#848,#849,#850,#851,#852,
    #853,#854,#855,#856,#857,#858,#859,#860,#861,#862,#863,#864,#865,
    #866,#867,#868,#869,#870,#871,#872,#873,#874,#875),.UNSPECIFIED.,.F.
  ,.F.,(8,6,6,6,6,6,6,6,6,6,6,8),(0.,0.102468915265,0.164706665191,
    0.243876303621,0.304048603297,0.34972438412,0.47138399149,
    0.637808438627,0.704634690632,0.796351643896,0.872186291379,1.),
  .UNSPECIFIED.);
#808 = CARTESIAN_POINT('',(19.,-9.797174393179E-16,-23.21637353248));
#809 = CARTESIAN_POINT('',(19.,0.21088049745,-23.21637353248));
#810 = CARTESIAN_POINT('',(18.987028994912,0.421828642175,
    -23.22475398523));
#811 = CARTESIAN_POINT('',(18.961074344019,0.630955100869,-23.2415233847
    ));
#812 = CARTESIAN_POINT('',(18.922547625601,0.836655408811,
    -23.26639595343));
#813 = CARTESIAN_POINT('',(18.872130665748,1.03757058934,-23.29889408268
    ));
#814 = CARTESIAN_POINT('',(18.810681895094,1.2325605436,-23.338415658));
#815 = CARTESIAN_POINT('',(18.695788076855,1.534956738425,
    -23.41211509563));
#816 = CARTESIAN_POINT('',(18.648656283006,1.646735310759,
    -23.44230943548));
#817 = CARTESIAN_POINT('',(18.598011967183,1.755853368258,
    -23.47470643488));
#818 = CARTESIAN_POINT('',(18.544062829043,1.8621774281,-23.50916091372)
  );
#819 = CARTESIAN_POINT('',(18.487014191659,1.965607946567,
    -23.54552939728));
#820 = CARTESIAN_POINT('',(18.427063240504,2.066074181689,
    -23.58367414698));
#821 = CARTESIAN_POINT('',(18.284673807442,2.287496698725,
    -23.67408600222));
#822 = CARTESIAN_POINT('',(18.200559788428,2.406583936002,-23.7273686955
    ));
#823 = CARTESIAN_POINT('',(18.112424226597,2.520705581689,
    -23.78305428255));
#824 = CARTESIAN_POINT('',(18.020616495828,2.629816799803,
    -23.84089917268));
#825 = CARTESIAN_POINT('',(17.92545744616,2.733905689455,-23.90068029487
    ));
#826 = CARTESIAN_POINT('',(17.827234527272,2.832985869878,
    -23.96219821987));
#827 = CARTESIAN_POINT('',(17.649404017782,2.998611505102,
    -24.07322533843));
#828 = CARTESIAN_POINT('',(17.570988526351,3.067255855185,
    -24.12207182737));
#829 = CARTESIAN_POINT('',(17.491061845257,3.133034798921,-24.1717426265
    ));
#830 = CARTESIAN_POINT('',(17.409728162091,3.195962830902,
    -24.22216600954));
#831 = CARTESIAN_POINT('',(17.327084270767,3.256055830284,
    -24.27327569122));
#832 = CARTESIAN_POINT('',(17.243219397838,3.313330633962,
    -24.32501087195));
#833 = CARTESIAN_POINT('',(17.093689641719,3.409154888724,
    -24.41702044002));
#834 = CARTESIAN_POINT('',(17.028508379117,3.448890840498,
    -24.45705272232));
#835 = CARTESIAN_POINT('',(16.962707277479,3.487019827018,
    -24.49738872748));
#836 = CARTESIAN_POINT('',(16.896320787823,3.523548787655,
    -24.53800525938));
#837 = CARTESIAN_POINT('',(16.82938177571,3.558484239195,-24.57888032775
    ));
#838 = CARTESIAN_POINT('',(16.76192152125,3.59183227584,-24.61999314812)
  );
#839 = CARTESIAN_POINT('',(16.512976872965,3.708209597409,
    -24.77141120267));
#840 = CARTESIAN_POINT('',(16.32851311177,3.781591335639,-24.88303608477
    ));
#841 = CARTESIAN_POINT('',(16.141118444095,3.843864000605,
    -24.99584150058));
#842 = CARTESIAN_POINT('',(15.951302292905,3.895092783944,
    -25.10949932953));
#843 = CARTESIAN_POINT('',(15.759548049524,3.935308864797,
    -25.22370709658));
#844 = CARTESIAN_POINT('',(15.566314240954,3.964512960685,
    -25.33818624316));
#845 = CARTESIAN_POINT('',(15.106264044813,4.007487624992,
    -25.60930709756));
#846 = CARTESIAN_POINT('',(14.83862489907,4.011617142369,-25.76591013186
    ));
#847 = CARTESIAN_POINT('',(14.570180357958,3.994967656465,
    -25.92186393799));
#848 = CARTESIAN_POINT('',(14.30213645416,3.957264177159,-26.07648535547
    ));
#849 = CARTESIAN_POINT('',(14.035838155577,3.898153398646,
    -26.22904034822));
#850 = CARTESIAN_POINT('',(13.772774975292,3.817229211345,
    -26.37874272766));
#851 = CARTESIAN_POINT('',(13.410923458429,3.672506292965,
    -26.58337324951));
#852 = CARTESIAN_POINT('',(13.30805286386,3.627446944245,-26.6413963887)
  );
#853 = CARTESIAN_POINT('',(13.2060948294,3.578761473629,-26.69875788397)
  );
#854 = CARTESIAN_POINT('',(13.105171947047,3.52642085153,-26.75539483631
    ));
#855 = CARTESIAN_POINT('',(13.005416357411,3.470397859187,-26.8112398244
    ));
#856 = CARTESIAN_POINT('',(12.906969515134,3.410668085271,
    -26.86622107848));
#857 = CARTESIAN_POINT('',(12.676869542405,3.260117939415,
    -26.99443303671));
#858 = CARTESIAN_POINT('',(12.546512201581,3.166007772536,
    -27.06682992067));
#859 = CARTESIAN_POINT('',(12.419294541118,3.064825555113,
    -27.13725936248));
#860 = CARTESIAN_POINT('',(12.295653677565,2.9565406921,-27.20550152053)
  );
#861 = CARTESIAN_POINT('',(12.176072576292,2.841158803945,
    -27.27131421136));
#862 = CARTESIAN_POINT('',(12.061073393034,2.718733670386,
    -27.33443646588));
#863 = CARTESIAN_POINT('',(11.860372758278,2.482424546307,
    -27.44433076589));
#864 = CARTESIAN_POINT('',(11.773050117055,2.370736821577,
    -27.49203923147));
#865 = CARTESIAN_POINT('',(11.689560430605,2.254387990986,
    -27.53755901058));
#866 = CARTESIAN_POINT('',(11.610242495743,2.133486748535,
    -27.58072124765));
#867 = CARTESIAN_POINT('',(11.535447253174,2.008186863315,
    -27.62135119819));
#868 = CARTESIAN_POINT('',(11.465528673396,1.878695551499,-27.6592727237
    ));
#869 = CARTESIAN_POINT('',(11.291797622262,1.520422885488,
    -27.75337022982));
#870 = CARTESIAN_POINT('',(11.197511677616,1.284237430281,
    -27.80429115249));
#871 = CARTESIAN_POINT('',(11.119815739619,1.038261132758,
    -27.84615244668));
#872 = CARTESIAN_POINT('',(11.060269896752,0.784387529826,
    -27.87818060574));
#873 = CARTESIAN_POINT('',(11.020078096343,0.52487548471,-27.89978088084
    ));
#874 = CARTESIAN_POINT('',(11.,0.262371427544,-27.9105714739));
#875 = CARTESIAN_POINT('',(11.,2.449293598295E-16,-27.9105714739));
#876 = PCURVE('',#51,#877);
#877 = DEFINITIONAL_REPRESENTATION('',(#878),#947);
#878 = B_SPLINE_CURVE_WITH_KNOTS('',7,(#879,#880,#881,#882,#883,#884,
    #885,#886,#887,#888,#889,#890,#891,#892,#893,#894,#895,#896,#897,
    #898,#899,#900,#901,#902,#903,#904,#905,#906,#907,#908,#909,#910,
    #911,#912,#913,#914,#915,#916,#917,#918,#919,#920,#921,#922,#923,
    #924,#925,#926,#927,#928,#929,#930,#931,#932,#933,#934,#935,#936,
    #937,#938,#939,#940,#941,#942,#943,#944,#945,#946),.UNSPECIFIED.,.F.
  ,.F.,(8,6,6,6,6,6,6,6,6,6,6,8),(0.,0.102468915265,0.164706665191,
    0.243876303621,0.304048603297,0.34972438412,0.47138399149,
    0.637808438627,0.704634690632,0.796351643896,0.872186291379,1.),
  .UNSPECIFIED.);
#879 = CARTESIAN_POINT('',(0.,-0.884943362176));
#880 = CARTESIAN_POINT('',(1.109897355E-02,-0.884943362176));
#881 = CARTESIAN_POINT('',(2.22014981432E-02,-0.885384442239));
#882 = CARTESIAN_POINT('',(3.323554418595E-02,-0.886267029049));
#883 = CARTESIAN_POINT('',(4.414397135294E-02,-0.88757763024));
#884 = CARTESIAN_POINT('',(5.487910635418E-02,-0.889294035552));
#885 = CARTESIAN_POINT('',(6.539952626807E-02,-0.891388394055));
#886 = CARTESIAN_POINT('',(8.190656726738E-02,-0.895310041303));
#887 = CARTESIAN_POINT('',(8.805386303898E-02,-0.896919909853));
#888 = CARTESIAN_POINT('',(9.410490758876E-02,-0.898651172539));
#889 = CARTESIAN_POINT('',(0.100055059963,-0.900497142995));
#890 = CARTESIAN_POINT('',(0.105900873925,-0.902451239613));
#891 = CARTESIAN_POINT('',(0.111639906457,-0.904507176109));
#892 = CARTESIAN_POINT('',(0.124432966017,-0.909396576874));
#893 = CARTESIAN_POINT('',(0.131419540816,-0.912289227823));
#894 = CARTESIAN_POINT('',(0.138227565656,-0.915325316759));
#895 = CARTESIAN_POINT('',(0.144855320723,-0.918493891055));
#896 = CARTESIAN_POINT('',(0.151301901212,-0.921784998538));
#897 = CARTESIAN_POINT('',(0.157567067149,-0.925189852391));
#898 = CARTESIAN_POINT('',(0.168275212346,-0.931369614913));
#899 = CARTESIAN_POINT('',(0.172794495614,-0.934099517623));
#900 = CARTESIAN_POINT('',(0.177208971552,-0.936887362151));
#901 = CARTESIAN_POINT('',(0.18151855635,-0.939730058895));
#902 = CARTESIAN_POINT('',(0.185723058559,-0.942624777408));
#903 = CARTESIAN_POINT('',(0.189822183779,-0.945568953102));
#904 = CARTESIAN_POINT('',(0.196846828428,-0.9508309705));
#905 = CARTESIAN_POINT('',(0.199817138967,-0.953128799051));
#906 = CARTESIAN_POINT('',(0.202726277884,-0.955452763169));
#907 = CARTESIAN_POINT('',(0.205573976867,-0.957801902469));
#908 = CARTESIAN_POINT('',(0.208359892382,-0.960175312617));
#909 = CARTESIAN_POINT('',(0.211083605676,-0.962572145334));
#910 = CARTESIAN_POINT('',(0.22083236796,-0.971435962952));
#911 = CARTESIAN_POINT('',(0.227474680845,-0.978040286109));
#912 = CARTESIAN_POINT('',(0.233663236423,-0.984790349599));
#913 = CARTESIAN_POINT('',(0.239383598288,-0.991673032069));
#914 = CARTESIAN_POINT('',(0.244616153137,-0.998676095523));
#915 = CARTESIAN_POINT('',(0.249335844996,-1.005788084626));
#916 = CARTESIAN_POINT('',(0.259221721073,-1.022861640959));
#917 = CARTESIAN_POINT('',(0.263911269216,-1.032905474685));
#918 = CARTESIAN_POINT('',(0.267499596182,-1.043103914607));
#919 = CARTESIAN_POINT('',(0.269877146625,-1.053425127709));
#920 = CARTESIAN_POINT('',(0.270905535382,-1.063830404414));
#921 = CARTESIAN_POINT('',(0.270413980473,-1.07427190472));
#922 = CARTESIAN_POINT('',(0.267298663745,-1.088872073132));
#923 = CARTESIAN_POINT('',(0.266127094738,-1.093050594272));
#924 = CARTESIAN_POINT('',(0.264663010509,-1.097220512074));
#925 = CARTESIAN_POINT('',(0.262892000296,-1.101377077988));
#926 = CARTESIAN_POINT('',(0.260798879863,-1.10551493085));
#927 = CARTESIAN_POINT('',(0.258367845304,-1.109628051993));
#928 = CARTESIAN_POINT('',(0.251760001112,-1.119311683303));
#929 = CARTESIAN_POINT('',(0.24727027445,-1.124854125188));
#930 = CARTESIAN_POINT('',(0.24207190884,-1.130319887207));
#931 = CARTESIAN_POINT('',(0.236121357633,-1.135688394733));
#932 = CARTESIAN_POINT('',(0.229376573396,-1.140935667773));
#933 = CARTESIAN_POINT('',(0.221800515746,-1.146034331412));
#934 = CARTESIAN_POINT('',(0.206389610577,-1.155021063945));
#935 = CARTESIAN_POINT('',(0.198827098576,-1.158965700461));
#936 = CARTESIAN_POINT('',(0.190661898621,-1.162770053753));
#937 = CARTESIAN_POINT('',(0.181883745092,-1.166414710685));
#938 = CARTESIAN_POINT('',(0.172490241724,-1.169878880017));
#939 = CARTESIAN_POINT('',(0.162489772007,-1.173140945368));
#940 = CARTESIAN_POINT('',(0.134063561479,-1.181299465988));
#941 = CARTESIAN_POINT('',(0.114546568716,-1.185787908341));
#942 = CARTESIAN_POINT('',(9.347688945239E-02,-1.189531855045));
#943 = CARTESIAN_POINT('',(7.108105884926E-02,-1.192428079426));
#944 = CARTESIAN_POINT('',(4.77158912301E-02,-1.194391759559));
#945 = CARTESIAN_POINT('',(2.38519479585E-02,-1.195372718814));
#946 = CARTESIAN_POINT('',(2.226630543904E-17,-1.195372718814));
#947 = ( GEOMETRIC_REPRESENTATION_CONTEXT(2) 
PARAMETRIC_REPRESENTATION_CONTEXT() REPRESENTATION_CONTEXT('2D SPACE',''
  ) );
#948 = PCURVE('',#949,#954);
#949 = CYLINDRICAL_SURFACE('',#950,4.);
#950 = AXIS2_PLACEMENT_3D('',#951,#952,#953);
#951 = CARTESIAN_POINT('',(15.,0.,0.));
#952 = DIRECTION('',(0.,0.,1.));
#953 = DIRECTION('',(1.,0.,0.));
#954 = DEFINITIONAL_REPRESENTATION('',(#955),#1024);
#955 = B_SPLINE_CURVE_WITH_KNOTS('',7,(#956,#957,#958,#959,#960,#961,
    #962,#963,#964,#965,#966,#967,#968,#969,#970,#971,#972,#973,#974,
    #975,#976,#977,#978,#979,#980,#981,#982,#983,#984,#985,#986,#987,
    #988,#989,#990,#991,#992,#993,#994,#995,#996,#997,#998,#999,#1000,
    #1001,#1002,#1003,#1004,#1005,#1006,#1007,#1008,#1009,#1010,#1011,
    #1012,#1013,#1014,#1015,#1016,#1017,#1018,#1019,#1020,#1021,#1022,
    #1023),.UNSPECIFIED.,.F.,.F.,(8,6,6,6,6,6,6,6,6,6,6,8),(0.,
    0.102468915265,0.164706665191,0.243876303621,0.304048603297,
    0.34972438412,0.47138399149,0.637808438627,0.704634690632,
    0.796351643896,0.872186291379,1.),.UNSPECIFIED.);
#956 = CARTESIAN_POINT('',(0.,-23.21637353248));
#957 = CARTESIAN_POINT('',(5.272012436252E-02,-23.21637353248));
#958 = CARTESIAN_POINT('',(0.105457063881,-23.22475398523));
#959 = CARTESIAN_POINT('',(0.157978366128,-23.2415233847));
#960 = CARTESIAN_POINT('',(0.210121568227,-23.26639595343));
#961 = CARTESIAN_POINT('',(0.261760573144,-23.29889408268));
#962 = CARTESIAN_POINT('',(0.312785877141,-23.338415658));
#963 = CARTESIAN_POINT('',(0.39365770788,-23.41211509563));
#964 = CARTESIAN_POINT('',(0.423965323726,-23.44230943548));
#965 = CARTESIAN_POINT('',(0.454009786771,-23.47470643488));
#966 = CARTESIAN_POINT('',(0.483784425257,-23.50916091372));
#967 = CARTESIAN_POINT('',(0.513287007786,-23.54552939728));
#968 = CARTESIAN_POINT('',(0.542519146254,-23.58367414698));
#969 = CARTESIAN_POINT('',(0.608332652514,-23.67408600222));
#970 = CARTESIAN_POINT('',(0.644747580498,-23.7273686955));
#971 = CARTESIAN_POINT('',(0.680743979929,-23.78305428255));
#972 = CARTESIAN_POINT('',(0.716338096228,-23.84089917268));
#973 = CARTESIAN_POINT('',(0.751549316352,-23.90068029487));
#974 = CARTESIAN_POINT('',(0.786400562088,-23.96219821987));
#975 = CARTESIAN_POINT('',(0.847153926784,-24.07322533843));
#976 = CARTESIAN_POINT('',(0.87319562377,-24.12207182737));
#977 = CARTESIAN_POINT('',(0.899055045113,-24.1717426265));
#978 = CARTESIAN_POINT('',(0.924743141263,-24.22216600954));
#979 = CARTESIAN_POINT('',(0.950270787074,-24.27327569122));
#980 = CARTESIAN_POINT('',(0.975649026585,-24.32501087195));
#981 = CARTESIAN_POINT('',(1.020048798379,-24.41702044002));
#982 = CARTESIAN_POINT('',(1.039128608532,-24.45705272232));
#983 = CARTESIAN_POINT('',(1.058133571359,-24.49738872748));
#984 = CARTESIAN_POINT('',(1.07706844847,-24.53800525938));
#985 = CARTESIAN_POINT('',(1.095937939963,-24.57888032775));
#986 = CARTESIAN_POINT('',(1.114746684426,-24.61999314812));
#987 = CARTESIAN_POINT('',(1.183447630054,-24.77141120267));
#988 = CARTESIAN_POINT('',(1.232993229578,-24.88303608477));
#989 = CARTESIAN_POINT('',(1.282229836256,-24.99584150058));
#990 = CARTESIAN_POINT('',(1.331238199647,-25.10949932953));
#991 = CARTESIAN_POINT('',(1.380093553497,-25.22370709658));
#992 = CARTESIAN_POINT('',(1.428871695014,-25.33818624316));
#993 = CARTESIAN_POINT('',(1.544384953111,-25.60930709756));
#994 = CARTESIAN_POINT('',(1.611100974366,-25.76591013186));
#995 = CARTESIAN_POINT('',(1.678018578614,-25.92186393799));
#996 = CARTESIAN_POINT('',(1.745318677674,-26.07648535547));
#997 = CARTESIAN_POINT('',(1.813168219572,-26.22904034822));
#998 = CARTESIAN_POINT('',(1.881744326674,-26.37874272766));
#999 = CARTESIAN_POINT('',(1.979174187138,-26.58337324951));
#1000 = CARTESIAN_POINT('',(2.007236042792,-26.6413963887));
#1001 = CARTESIAN_POINT('',(2.035458233975,-26.69875788397));
#1002 = CARTESIAN_POINT('',(2.063852229664,-26.75539483631));
#1003 = CARTESIAN_POINT('',(2.09242911451,-26.8112398244));
#1004 = CARTESIAN_POINT('',(2.121199839806,-26.86622107848));
#1005 = CARTESIAN_POINT('',(2.189943632193,-26.99443303671));
#1006 = CARTESIAN_POINT('',(2.230095982552,-27.06682992067));
#1007 = CARTESIAN_POINT('',(2.270662032315,-27.13725936248));
#1008 = CARTESIAN_POINT('',(2.311666505218,-27.20550152053));
#1009 = CARTESIAN_POINT('',(2.353129868583,-27.27131421136));
#1010 = CARTESIAN_POINT('',(2.395068859939,-27.33443646588));
#1011 = CARTESIAN_POINT('',(2.472578031539,-27.44433076589));
#1012 = CARTESIAN_POINT('',(2.507992095541,-27.49203923147));
#1013 = CARTESIAN_POINT('',(2.543744318045,-27.53755901058));
#1014 = CARTESIAN_POINT('',(2.579836035874,-27.58072124765));
#1015 = CARTESIAN_POINT('',(2.616263976078,-27.62135119819));
#1016 = CARTESIAN_POINT('',(2.653019421733,-27.6592727237));
#1017 = CARTESIAN_POINT('',(2.752562685361,-27.75337022982));
#1018 = CARTESIAN_POINT('',(2.81597684985,-27.80429115249));
#1019 = CARTESIAN_POINT('',(2.880181868786,-27.84615244668));
#1020 = CARTESIAN_POINT('',(2.945034700477,-27.87818060574));
#1021 = CARTESIAN_POINT('',(3.010373810545,-27.89978088084));
#1022 = CARTESIAN_POINT('',(3.075999796704,-27.9105714739));
#1023 = CARTESIAN_POINT('',(3.14159265359,-27.9105714739));
#1024 = ( GEOMETRIC_REPRESENTATION_CONTEXT(2) 
PARAMETRIC_REPRESENTATION_CONTEXT() REPRESENTATION_CONTEXT('2D SPACE',''
  ) );
#1025 = ORIENTED_EDGE('',*,*,#63,.F.);
#1026 = ORIENTED_EDGE('',*,*,#21,.T.);
#1027 = ADVANCED_FACE('',(#1028),#727,.F.);
#1028 = FACE_BOUND('',#1029,.T.);
#1029 = EDGE_LOOP('',(#1030,#1056,#1077,#1078));
#1030 = ORIENTED_EDGE('',*,*,#1031,.F.);
#1031 = EDGE_CURVE('',#1032,#1034,#1036,.T.);
#1032 = VERTEX_POINT('',#1033);
#1033 = CARTESIAN_POINT('',(19.,0.,0.));
#1034 = VERTEX_POINT('',#1035);
#1035 = CARTESIAN_POINT('',(11.,4.898587196589E-16,0.));
#1036 = SURFACE_CURVE('',#1037,(#1042,#1049),.PCURVE_S1.);
#1037 = CIRCLE('',#1038,4.);
#1038 = AXIS2_PLACEMENT_3D('',#1039,#1040,#1041);
#1039 = CARTESIAN_POINT('',(15.,0.,0.));
#1040 = DIRECTION('',(0.,0.,1.));
#1041 = DIRECTION('',(1.,0.,0.));
#1042 = PCURVE('',#727,#1043);
#1043 = DEFINITIONAL_REPRESENTATION('',(#1044),#1048);
#1044 = LINE('',#1045,#1046);
#1045 = CARTESIAN_POINT('',(-0.,0.));
#1046 = VECTOR('',#1047,1.);
#1047 = DIRECTION('',(-1.,0.));
#1048 = ( GEOMETRIC_REPRESENTATION_CONTEXT(2) 
PARAMETRIC_REPRESENTATION_CONTEXT() REPRESENTATION_CONTEXT('2D SPACE',''
  ) );
#1049 = PCURVE('',#949,#1050);
#1050 = DEFINITIONAL_REPRESENTATION('',(#1051),#1055);
#1051 = LINE('',#1052,#1053);
#1052 = CARTESIAN_POINT('',(0.,0.));
#1053 = VECTOR('',#1054,1.);
#1054 = DIRECTION('',(1.,0.));
#1055 = ( GEOMETRIC_REPRESENTATION_CONTEXT(2) 
PARAMETRIC_REPRESENTATION_CONTEXT() REPRESENTATION_CONTEXT('2D SPACE',''
  ) );
#1056 = ORIENTED_EDGE('',*,*,#1057,.T.);
#1057 = EDGE_CURVE('',#1032,#311,#1058,.T.);
#1058 = SURFACE_CURVE('',#1059,(#1063,#1070),.PCURVE_S1.);
#1059 = LINE('',#1060,#1061);
#1060 = CARTESIAN_POINT('',(19.,0.,0.));
#1061 = VECTOR('',#1062,1.);
#1062 = DIRECTION('',(0.,0.,1.));
#1063 = PCURVE('',#727,#1064);
#1064 = DEFINITIONAL_REPRESENTATION('',(#1065),#1069);
#1065 = LINE('',#1066,#1067);
#1066 = CARTESIAN_POINT('',(-0.,0.));
#1067 = VECTOR('',#1068,1.);
#1068 = DIRECTION('',(-0.,-1.));
#1069 = ( GEOMETRIC_REPRESENTATION_CONTEXT(2) 
PARAMETRIC_REPRESENTATION_CONTEXT() REPRESENTATION_CONTEXT('2D SPACE',''
  ) );
#1070 = PCURVE('',#480,#1071);
#1071 = DEFINITIONAL_REPRESENTATION('',(#1072),#1076);
#1072 = LINE('',#1073,#1074);
#1073 = CARTESIAN_POINT('',(-6.28318530718,0.));
#1074 = VECTOR('',#1075,1.);
#1075 = DIRECTION('',(-0.,-1.));
#1076 = ( GEOMETRIC_REPRESENTATION_CONTEXT(2) 
PARAMETRIC_REPRESENTATION_CONTEXT() REPRESENTATION_CONTEXT('2D SPACE',''
  ) );
#1077 = ORIENTED_EDGE('',*,*,#583,.T.);
#1078 = ORIENTED_EDGE('',*,*,#1079,.T.);
#1079 = EDGE_CURVE('',#335,#1034,#1080,.T.);
#1080 = SURFACE_CURVE('',#1081,(#1084,#1091),.PCURVE_S1.);
#1081 = B_SPLINE_CURVE_WITH_KNOTS('',1,(#1082,#1083),.UNSPECIFIED.,.F.,
  .F.,(2,2),(-27.9105714739,0.),.PIECEWISE_BEZIER_KNOTS.);
#1082 = CARTESIAN_POINT('',(11.,4.898587196589E-16,27.910571473906));
#1083 = CARTESIAN_POINT('',(11.,4.898587196589E-16,0.));
#1084 = PCURVE('',#727,#1085);
#1085 = DEFINITIONAL_REPRESENTATION('',(#1086),#1090);
#1086 = LINE('',#1087,#1088);
#1087 = CARTESIAN_POINT('',(-3.14159265359,0.));
#1088 = VECTOR('',#1089,1.);
#1089 = DIRECTION('',(-0.,1.));
#1090 = ( GEOMETRIC_REPRESENTATION_CONTEXT(2) 
PARAMETRIC_REPRESENTATION_CONTEXT() REPRESENTATION_CONTEXT('2D SPACE',''
  ) );
#1091 = PCURVE('',#480,#1092);
#1092 = DEFINITIONAL_REPRESENTATION('',(#1093),#1097);
#1093 = LINE('',#1094,#1095);
#1094 = CARTESIAN_POINT('',(-3.14159265359,0.));
#1095 = VECTOR('',#1096,1.);
#1096 = DIRECTION('',(-0.,1.));
#1097 = ( GEOMETRIC_REPRESENTATION_CONTEXT(2) 
PARAMETRIC_REPRESENTATION_CONTEXT() REPRESENTATION_CONTEXT('2D SPACE',''
  ) );
#1098 = ADVANCED_FACE('',(#1099),#480,.F.);
#1099 = FACE_BOUND('',#1100,.T.);
#1100 = EDGE_LOOP('',(#1101,#1102,#1103,#1125));
#1101 = ORIENTED_EDGE('',*,*,#334,.T.);
#1102 = ORIENTED_EDGE('',*,*,#1057,.F.);
#1103 = ORIENTED_EDGE('',*,*,#1104,.F.);
#1104 = EDGE_CURVE('',#1034,#1032,#1105,.T.);
#1105 = SURFACE_CURVE('',#1106,(#1111,#1118),.PCURVE_S1.);
#1106 = CIRCLE('',#1107,4.);
#1107 = AXIS2_PLACEMENT_3D('',#1108,#1109,#1110);
#1108 = CARTESIAN_POINT('',(15.,0.,0.));
#1109 = DIRECTION('',(0.,0.,1.));
#1110 = DIRECTION('',(1.,0.,0.));
#1111 = PCURVE('',#480,#1112);
#1112 = DEFINITIONAL_REPRESENTATION('',(#1113),#1117);
#1113 = LINE('',#1114,#1115);
#1114 = CARTESIAN_POINT('',(-0.,0.));
#1115 = VECTOR('',#1116,1.);
#1116 = DIRECTION('',(-1.,0.));
#1117 = ( GEOMETRIC_REPRESENTATION_CONTEXT(2) 
PARAMETRIC_REPRESENTATION_CONTEXT() REPRESENTATION_CONTEXT('2D SPACE',''
  ) );
#1118 = PCURVE('',#233,#1119);
#1119 = DEFINITIONAL_REPRESENTATION('',(#1120),#1124);
#1120 = LINE('',#1121,#1122);
#1121 = CARTESIAN_POINT('',(0.,0.));
#1122 = VECTOR('',#1123,1.);
#1123 = DIRECTION('',(1.,0.));
#1124 = ( GEOMETRIC_REPRESENTATION_CONTEXT(2) 
PARAMETRIC_REPRESENTATION_CONTEXT() REPRESENTATION_CONTEXT('2D SPACE',''
  ) );
#1125 = ORIENTED_EDGE('',*,*,#1079,.F.);
#1126 = ADVANCED_FACE('',(#1127),#949,.F.);
#1127 = FACE_BOUND('',#1128,.F.);
#1128 = EDGE_LOOP('',(#1129,#1130,#1151,#1152));
#1129 = ORIENTED_EDGE('',*,*,#1031,.F.);
#1130 = ORIENTED_EDGE('',*,*,#1131,.T.);
#1131 = EDGE_CURVE('',#1032,#88,#1132,.T.);
#1132 = SURFACE_CURVE('',#1133,(#1137,#1144),.PCURVE_S1.);
#1133 = LINE('',#1134,#1135);
#1134 = CARTESIAN_POINT('',(19.,0.,0.));
#1135 = VECTOR('',#1136,1.);
#1136 = DIRECTION('',(-0.,-0.,-1.));
#1137 = PCURVE('',#949,#1138);
#1138 = DEFINITIONAL_REPRESENTATION('',(#1139),#1143);
#1139 = LINE('',#1140,#1141);
#1140 = CARTESIAN_POINT('',(0.,0.));
#1141 = VECTOR('',#1142,1.);
#1142 = DIRECTION('',(0.,-1.));
#1143 = ( GEOMETRIC_REPRESENTATION_CONTEXT(2) 
PARAMETRIC_REPRESENTATION_CONTEXT() REPRESENTATION_CONTEXT('2D SPACE',''
  ) );
#1144 = PCURVE('',#233,#1145);
#1145 = DEFINITIONAL_REPRESENTATION('',(#1146),#1150);
#1146 = LINE('',#1147,#1148);
#1147 = CARTESIAN_POINT('',(6.28318530718,0.));
#1148 = VECTOR('',#1149,1.);
#1149 = DIRECTION('',(0.,-1.));
#1150 = ( GEOMETRIC_REPRESENTATION_CONTEXT(2) 
PARAMETRIC_REPRESENTATION_CONTEXT() REPRESENTATION_CONTEXT('2D SPACE',''
  ) );
#1151 = ORIENTED_EDGE('',*,*,#805,.T.);
#1152 = ORIENTED_EDGE('',*,*,#1153,.T.);
#1153 = EDGE_CURVE('',#64,#1034,#1154,.T.);
#1154 = SURFACE_CURVE('',#1155,(#1158,#1165),.PCURVE_S1.);
#1155 = B_SPLINE_CURVE_WITH_KNOTS('',1,(#1156,#1157),.UNSPECIFIED.,.F.,
  .F.,(2,2),(-27.9105714739,0.),.PIECEWISE_BEZIER_KNOTS.);
#1156 = CARTESIAN_POINT('',(11.,4.898587196589E-16,-27.9105714739));
#1157 = CARTESIAN_POINT('',(11.,4.898587196589E-16,0.));
#1158 = PCURVE('',#949,#1159);
#1159 = DEFINITIONAL_REPRESENTATION('',(#1160),#1164);
#1160 = LINE('',#1161,#1162);
#1161 = CARTESIAN_POINT('',(3.14159265359,0.));
#1162 = VECTOR('',#1163,1.);
#1163 = DIRECTION('',(0.,1.));
#1164 = ( GEOMETRIC_REPRESENTATION_CONTEXT(2) 
PARAMETRIC_REPRESENTATION_CONTEXT() REPRESENTATION_CONTEXT('2D SPACE',''
  ) );
#1165 = PCURVE('',#233,#1166);
#1166 = DEFINITIONAL_REPRESENTATION('',(#1167),#1171);
#1167 = LINE('',#1168,#1169);
#1168 = CARTESIAN_POINT('',(3.14159265359,0.));
#1169 = VECTOR('',#1170,1.);
#1170 = DIRECTION('',(0.,1.));
#1171 = ( GEOMETRIC_REPRESENTATION_CONTEXT(2) 
PARAMETRIC_REPRESENTATION_CONTEXT() REPRESENTATION_CONTEXT('2D SPACE',''
  ) );
#1172 = ADVANCED_FACE('',(#1173),#233,.F.);
#1173 = FACE_BOUND('',#1174,.F.);
#1174 = EDGE_LOOP('',(#1175,#1176,#1177,#1178));
#1175 = ORIENTED_EDGE('',*,*,#87,.T.);
#1176 = ORIENTED_EDGE('',*,*,#1131,.F.);
#1177 = ORIENTED_EDGE('',*,*,#1104,.F.);
#1178 = ORIENTED_EDGE('',*,*,#1153,.F.);
#1179 = ( GEOMETRIC_REPRESENTATION_CONTEXT(3) 
GLOBAL_UNCERTAINTY_ASSIGNED_CONTEXT((#1183)) 
GLOBAL_UNIT_ASSIGNED_CONTEXT((#1180,#1181,#1182)) REPRESENTATION_CONTEXT
('Context #1','3D Context with UNIT and UNCERTAINTY') );
#1180 = ( LENGTH_UNIT() NAMED_UNIT(*) SI_UNIT(.MILLI.,.METRE.) );
#1181 = ( NAMED_UNIT(*) PLANE_ANGLE_UNIT() SI_UNIT($,.RADIAN.) );
#1182 = ( NAMED_UNIT(*) SI_UNIT($,.STERADIAN.) SOLID_ANGLE_UNIT() );
#1183 = UNCERTAINTY_MEASURE_WITH_UNIT(LENGTH_MEASURE(1.E-06),#1180,
  'distance_accuracy_value','confusion accuracy');
#1184 = PRODUCT_RELATED_PRODUCT_CATEGORY('part',$,(#7));
ENDSEC;
END-ISO-10303-21;
