ISO-10303-21;
HEADER;
FILE_DESCRIPTION(('Open CASCADE Model'),'2;1');
FILE_NAME('Open CASCADE Shape Model','2026-08-07T02:34:18',('Author'),(
    'Open CASCADE'),'Open CASCADE STEP processor 7.7','Open CASCADE 7.7'
  ,'Unknown');
FILE_SCHEMA(('AUTOMOTIVE_DESIGN { 1 0 10303 214 1 1 1 1 }'));
ENDSEC;
DATA;
#1 = APPLICATION_PROTOCOL_DEFINITION('international standard',
  'automotive_design',2000,#2);
#2 = APPLICATION_CONTEXT(
  'core data for automotive mechanical design processes');
#3 = SHAPE_DEFINITION_REPRESENTATION(#4,#10);
#4 = PRODUCT_DEFINITION_SHAPE('','',#5);
#5 = PRODUCT_DEFINITION('design','',#6,#9);
#6 = PRODUCT_DEFINITION_FORMATION('','',#7);
#7 = PRODUCT('Open CASCADE STEP translator 7.7 50',
  'Open CASCADE STEP translator 7.7 50','',(#8));
#8 = PRODUCT_CONTEXT('',#2,'mechanical');
#9 = PRODUCT_DEFINITION_CONTEXT('part definition',#2,'design');
#10 = ADVANCED_BREP_SHAPE_REPRESENTATION('',(#11,#15),#147);
#11 = AXIS2_PLACEMENT_3D('',#12,#13,#14);
#12 = CARTESIAN_POINT('',(0.,0.,0.));
#13 = DIRECTION('',(0.,0.,1.));
#14 = DIRECTION('',(1.,0.,-0.));
#15 = MANIFOLD_SOLID_BREP('',#16);
#16 = CLOSED_SHELL('',(#17,#139,#143));
#17 = ADVANCED_FACE('',(#18),#31,.T.);
#18 = FACE_BOUND('',#19,.F.);
#19 = EDGE_LOOP('',(#20,#54,#77,#138));
#20 = ORIENTED_EDGE('',*,*,#21,.F.);
#21 = EDGE_CURVE('',#22,#22,#24,.T.);
#22 = VERTEX_POINT('',#23);
#23 = CARTESIAN_POINT('',(20.,0.,0.));
#24 = SURFACE_CURVE('',#25,(#30,#42),.PCURVE_S1.);
#25 = CIRCLE('',#26,20.);
#26 = AXIS2_PLACEMENT_3D('',#27,#28,#29);
#27 = CARTESIAN_POINT('',(0.,0.,0.));
#28 = DIRECTION('',(0.,0.,1.));
#29 = DIRECTION('',(1.,0.,0.));
#30 = PCURVE('',#31,#36);
#31 = CYLINDRICAL_SURFACE('',#32,20.);
#32 = AXIS2_PLACEMENT_3D('',#33,#34,#35);
#33 = CARTESIAN_POINT('',(0.,0.,0.));
#34 = DIRECTION('',(-0.,-0.,-1.));
#35 = DIRECTION('',(1.,0.,0.));
#36 = DEFINITIONAL_REPRESENTATION('',(#37),#41);
#37 = LINE('',#38,#39);
#38 = CARTESIAN_POINT('',(-0.,0.));
#39 = VECTOR('',#40,1.);
#40 = DIRECTION('',(-1.,0.));
#41 = ( GEOMETRIC_REPRESENTATION_CONTEXT(2) 
PARAMETRIC_REPRESENTATION_CONTEXT() REPRESENTATION_CONTEXT('2D SPACE',''
  ) );
#42 = PCURVE('',#43,#48);
#43 = PLANE('',#44);
#44 = AXIS2_PLACEMENT_3D('',#45,#46,#47);
#45 = CARTESIAN_POINT('',(-1.093952106032E-15,1.371473012632E-15,0.));
#46 = DIRECTION('',(0.,0.,1.));
#47 = DIRECTION('',(1.,0.,-0.));
#48 = DEFINITIONAL_REPRESENTATION('',(#49),#53);
#49 = CIRCLE('',#50,20.);
#50 = AXIS2_PLACEMENT_2D('',#51,#52);
#51 = CARTESIAN_POINT('',(1.093952106032E-15,-1.371473012632E-15));
#52 = DIRECTION('',(1.,0.));
#53 = ( GEOMETRIC_REPRESENTATION_CONTEXT(2) 
PARAMETRIC_REPRESENTATION_CONTEXT() REPRESENTATION_CONTEXT('2D SPACE',''
  ) );
#54 = ORIENTED_EDGE('',*,*,#55,.T.);
#55 = EDGE_CURVE('',#22,#56,#58,.T.);
#56 = VERTEX_POINT('',#57);
#57 = CARTESIAN_POINT('',(20.,0.,60.));
#58 = SEAM_CURVE('',#59,(#63,#70),.PCURVE_S1.);
#59 = LINE('',#60,#61);
#60 = CARTESIAN_POINT('',(20.,0.,0.));
#61 = VECTOR('',#62,1.);
#62 = DIRECTION('',(0.,0.,1.));
#63 = PCURVE('',#31,#64);
#64 = DEFINITIONAL_REPRESENTATION('',(#65),#69);
#65 = LINE('',#66,#67);
#66 = CARTESIAN_POINT('',(-6.28318530718,0.));
#67 = VECTOR('',#68,1.);
#68 = DIRECTION('',(-0.,-1.));
#69 = ( GEOMETRIC_REPRESENTATION_CONTEXT(2) 
PARAMETRIC_REPRESENTATION_CONTEXT() REPRESENTATION_CONTEXT('2D SPACE',''
  ) );
#70 = PCURVE('',#31,#71);
#71 = DEFINITIONAL_REPRESENTATION('',(#72),#76);
#72 = LINE('',#73,#74);
#73 = CARTESIAN_POINT('',(-0.,0.));
#74 = VECTOR('',#75,1.);
#75 = DIRECTION('',(-0.,-1.));
#76 = ( GEOMETRIC_REPRESENTATION_CONTEXT(2) 
PARAMETRIC_REPRESENTATION_CONTEXT() REPRESENTATION_CONTEXT('2D SPACE',''
  ) );
#77 = ORIENTED_EDGE('',*,*,#78,.T.);
#78 = EDGE_CURVE('',#56,#56,#79,.T.);
#79 = SURFACE_CURVE('',#80,(#85,#126),.PCURVE_S1.);
#80 = ELLIPSE('',#81,23.094010767585,20.);
#81 = AXIS2_PLACEMENT_3D('',#82,#83,#84);
#82 = CARTESIAN_POINT('',(0.,0.,60.));
#83 = DIRECTION('',(0.,-0.5,0.866025403784));
#84 = DIRECTION('',(0.,-0.866025403784,-0.5));
#85 = PCURVE('',#31,#86);
#86 = DEFINITIONAL_REPRESENTATION('',(#87),#125);
#87 = B_SPLINE_CURVE_WITH_KNOTS('',8,(#88,#89,#90,#91,#92,#93,#94,#95,
    #96,#97,#98,#99,#100,#101,#102,#103,#104,#105,#106,#107,#108,#109,
    #110,#111,#112,#113,#114,#115,#116,#117,#118,#119,#120,#121,#122,
    #123,#124),.UNSPECIFIED.,.F.,.F.,(9,7,7,7,7,9),(1.570796326795,
    3.14159265359,4.319689898686,5.203262832508,6.528622233241,
    7.853981633974),.UNSPECIFIED.);
#88 = CARTESIAN_POINT('',(0.,-60.));
#89 = CARTESIAN_POINT('',(-0.196349540849,-62.26724920529));
#90 = CARTESIAN_POINT('',(-0.392699081699,-64.53449894888));
#91 = CARTESIAN_POINT('',(-0.589048622555,-66.66854873637));
#92 = CARTESIAN_POINT('',(-0.7853981634,-68.53622477297));
#93 = CARTESIAN_POINT('',(-0.981747704228,-70.02069965316));
#94 = CARTESIAN_POINT('',(-1.178097245096,-71.03823536624));
#95 = CARTESIAN_POINT('',(-1.374446785946,-71.54700538379));
#96 = CARTESIAN_POINT('',(-1.718058482432,-71.54700538379));
#97 = CARTESIAN_POINT('',(-1.865320638068,-71.26082149369));
#98 = CARTESIAN_POINT('',(-2.012582793708,-70.68846076349));
#99 = CARTESIAN_POINT('',(-2.159844949344,-69.84314203613));
#100 = CARTESIAN_POINT('',(-2.30710710498,-68.75138096606));
#101 = CARTESIAN_POINT('',(-2.454369260618,-67.45132694933));
#102 = CARTESIAN_POINT('',(-2.601631416254,-65.98984650571));
#103 = CARTESIAN_POINT('',(-2.859340188619,-63.24059851488));
#104 = CARTESIAN_POINT('',(-2.969786805348,-62.00074581792));
#105 = CARTESIAN_POINT('',(-3.080233422071,-60.72119099866));
#106 = CARTESIAN_POINT('',(-3.1906800388,-59.42543858578));
#107 = CARTESIAN_POINT('',(-3.301126655531,-58.1377416241));
#108 = CARTESIAN_POINT('',(-3.411573272256,-56.88214098617));
#109 = CARTESIAN_POINT('',(-3.522019888985,-55.68151794018));
#110 = CARTESIAN_POINT('',(-3.798136430805,-52.86967144463));
#111 = CARTESIAN_POINT('',(-3.96380635589,-51.35330346196));
#112 = CARTESIAN_POINT('',(-4.129476280971,-50.07823642427));
#113 = CARTESIAN_POINT('',(-4.295146206063,-49.10503051171));
#114 = CARTESIAN_POINT('',(-4.460816131152,-48.478063246));
#115 = CARTESIAN_POINT('',(-4.626486056258,-48.22075140739));
#116 = CARTESIAN_POINT('',(-4.792155981355,-48.33422487397));
#117 = CARTESIAN_POINT('',(-5.123495831538,-49.26386291986));
#118 = CARTESIAN_POINT('',(-5.289165756628,-50.0800275617));
#119 = CARTESIAN_POINT('',(-5.454835681722,-51.22809649212));
#120 = CARTESIAN_POINT('',(-5.620505606738,-52.66806182518));
#121 = CARTESIAN_POINT('',(-5.786175531936,-54.34103380906));
#122 = CARTESIAN_POINT('',(-5.951845456992,-56.17401683737));
#123 = CARTESIAN_POINT('',(-6.117515382088,-58.08700848303));
#124 = CARTESIAN_POINT('',(-6.28318530718,-60.));
#125 = ( GEOMETRIC_REPRESENTATION_CONTEXT(2) 
PARAMETRIC_REPRESENTATION_CONTEXT() REPRESENTATION_CONTEXT('2D SPACE',''
  ) );
#126 = PCURVE('',#127,#132);
#127 = PLANE('',#128);
#128 = AXIS2_PLACEMENT_3D('',#129,#130,#131);
#129 = CARTESIAN_POINT('',(0.,-50.,31.132486540519));
#130 = DIRECTION('',(0.,-0.5,0.866025403784));
#131 = DIRECTION('',(0.,0.866025403784,0.5));
#132 = DEFINITIONAL_REPRESENTATION('',(#133),#137);
#133 = ELLIPSE('',#134,23.094010767585,20.);
#134 = AXIS2_PLACEMENT_2D('',#135,#136);
#135 = CARTESIAN_POINT('',(57.735026918963,0.));
#136 = DIRECTION('',(-1.,-0.));
#137 = ( GEOMETRIC_REPRESENTATION_CONTEXT(2) 
PARAMETRIC_REPRESENTATION_CONTEXT() REPRESENTATION_CONTEXT('2D SPACE',''
  ) );
#138 = ORIENTED_EDGE('',*,*,#55,.F.);
#139 = ADVANCED_FACE('',(#140),#43,.F.);
#140 = FACE_BOUND('',#141,.F.);
#141 = EDGE_LOOP('',(#142));
#142 = ORIENTED_EDGE('',*,*,#21,.T.);
#143 = ADVANCED_FACE('',(#144),#127,.T.);
#144 = FACE_BOUND('',#145,.T.);
#145 = EDGE_LOOP('',(#146));
#146 = ORIENTED_EDGE('',*,*,#78,.T.);
#147 = ( GEOMETRIC_REPRESENTATION_CONTEXT(3) 
GLOBAL_UNCERTAINTY_ASSIGNED_CONTEXT((#151)) GLOBAL_UNIT_ASSIGNED_CONTEXT
((#148,#149,#150)) REPRESENTATION_CONTEXT('Context #1',
  '3D Context with UNIT and UNCERTAINTY') );
#148 = ( LENGTH_UNIT() NAMED_UNIT(*) SI_UNIT(.MILLI.,.METRE.) );
#149 = ( NAMED_UNIT(*) PLANE_ANGLE_UNIT() SI_UNIT($,.RADIAN.) );
#150 = ( NAMED_UNIT(*) SI_UNIT($,.STERADIAN.) SOLID_ANGLE_UNIT() );
#151 = UNCERTAINTY_MEASURE_WITH_UNIT(LENGTH_MEASURE(1.E-07),#148,
  'distance_accuracy_value','confusion accuracy');
#152 = PRODUCT_RELATED_PRODUCT_CATEGORY('part',$,(#7));
ENDSEC;
END-ISO-10303-21;
