ISO-10303-21;
HEADER;
FILE_DESCRIPTION(('Open CASCADE Model'),'2;1');
FILE_NAME('Open CASCADE Shape Model','2026-08-07T02:34:18',('Author'),(
    'Open CASCADE'),'Open CASCADE STEP processor 7.7','Open CASCADE 7.7'
  ,'Unknown');
FILE_SCHEMA(('AUTOMOTIVE_DESIGN { 1 0 10303 214 1 1 1 1 }'));
ENDSEC;
DATA;
#1 = APPLICATION_PROTOCOL_DEFINITION('international standard',
  'automotive_design',2000,#2);
#2 = APPLICATION_CONTEXT(
  'core data for automotive mechanical design processes');
#3 = SHAPE_DEFINITION_REPRESENTATION(#4,#10);
#4 = PRODUCT_DEFINITION_SHAPE('','',#5);
#5 = PRODUCT_DEFINITION('design','',#6,#9);
#6 = PRODUCT_DEFINITION_FORMATION('','',#7);
#7 = PRODUCT('Open CASCADE STEP translator 7.7 28',
  'Open CASCADE STEP translator 7.7 28','',(#8));
#8 = PRODUCT_CONTEXT('',#2,'mechanical');
#9 = PRODUCT_DEFINITION_CONTEXT('part definition',#2,'design');
#10 = ADVANCED_BREP_SHAPE_REPRESENTATION('',(#11,#15),#1082);
#11 = AXIS2_PLACEMENT_3D('',#12,#13,#14);
#12 = CARTESIAN_POINT('',(0.,0.,0.));
#13 = DIRECTION('',(0.,0.,1.));
#14 = DIRECTION('',(1.,0.,-0.));
#15 = MANIFOLD_SOLID_BREP('',#16);
#16 = CLOSED_SHELL('',(#17,#54,#1055));
#17 = ADVANCED_FACE('',(#18),#31,.F.);
#18 = FACE_BOUND('',#19,.T.);
#19 = EDGE_LOOP('',(#20));
#20 = ORIENTED_EDGE('',*,*,#21,.F.);
#21 = EDGE_CURVE('',#22,#22,#24,.T.);
#22 = VERTEX_POINT('',#23);
#23 = CARTESIAN_POINT('',(20.,0.,0.));
#24 = SURFACE_CURVE('',#25,(#30,#42),.PCURVE_S1.);
#25 = CIRCLE('',#26,20.);
#26 = AXIS2_PLACEMENT_3D('',#27,#28,#29);
#27 = CARTESIAN_POINT('',(0.,0.,0.));
#28 = DIRECTION('',(-0.,1.,0.));
#29 = DIRECTION('',(1.,0.,0.));
#30 = PCURVE('',#31,#36);
#31 = PLANE('',#32);
#32 = AXIS2_PLACEMENT_3D('',#33,#34,#35);
#33 = CARTESIAN_POINT('',(0.,0.,0.));
#34 = DIRECTION('',(0.,1.,0.));
#35 = DIRECTION('',(1.,-0.,0.));
#36 = DEFINITIONAL_REPRESENTATION('',(#37),#41);
#37 = CIRCLE('',#38,20.);
#38 = AXIS2_PLACEMENT_2D('',#39,#40);
#39 = CARTESIAN_POINT('',(0.,0.));
#40 = DIRECTION('',(1.,-0.));
#41 = ( GEOMETRIC_REPRESENTATION_CONTEXT(2) 
PARAMETRIC_REPRESENTATION_CONTEXT() REPRESENTATION_CONTEXT('2D SPACE',''
  ) );
#42 = PCURVE('',#43,#48);
#43 = CONICAL_SURFACE('',#44,20.,0.321750554397);
#44 = AXIS2_PLACEMENT_3D('',#45,#46,#47);
#45 = CARTESIAN_POINT('',(0.,0.,0.));
#46 = DIRECTION('',(-0.,-1.,-0.));
#47 = DIRECTION('',(1.,0.,0.));
#48 = DEFINITIONAL_REPRESENTATION('',(#49),#53);
#49 = LINE('',#50,#51);
#50 = CARTESIAN_POINT('',(-0.,-0.));
#51 = VECTOR('',#52,1.);
#52 = DIRECTION('',(-1.,-0.));
#53 = ( GEOMETRIC_REPRESENTATION_CONTEXT(2) 
PARAMETRIC_REPRESENTATION_CONTEXT() REPRESENTATION_CONTEXT('2D SPACE',''
  ) );
#54 = ADVANCED_FACE('',(#55,#82,#571),#43,.T.);
#55 = FACE_BOUND('',#56,.T.);
#56 = EDGE_LOOP('',(#57,#80,#81));
#57 = ORIENTED_EDGE('',*,*,#58,.F.);
#58 = EDGE_CURVE('',#22,#59,#61,.T.);
#59 = VERTEX_POINT('',#60);
#60 = CARTESIAN_POINT('',(0.,60.,0.));
#61 = SEAM_CURVE('',#62,(#66,#73),.PCURVE_S1.);
#62 = LINE('',#63,#64);
#63 = CARTESIAN_POINT('',(20.,0.,0.));
#64 = VECTOR('',#65,1.);
#65 = DIRECTION('',(-0.316227766017,0.948683298051,0.));
#66 = PCURVE('',#43,#67);
#67 = DEFINITIONAL_REPRESENTATION('',(#68),#72);
#68 = LINE('',#69,#70);
#69 = CARTESIAN_POINT('',(-0.,-0.));
#70 = VECTOR('',#71,1.);
#71 = DIRECTION('',(-0.,-1.));
#72 = ( GEOMETRIC_REPRESENTATION_CONTEXT(2) 
PARAMETRIC_REPRESENTATION_CONTEXT() REPRESENTATION_CONTEXT('2D SPACE',''
  ) );
#73 = PCURVE('',#43,#74);
#74 = DEFINITIONAL_REPRESENTATION('',(#75),#79);
#75 = LINE('',#76,#77);
#76 = CARTESIAN_POINT('',(-6.28318530718,-0.));
#77 = VECTOR('',#78,1.);
#78 = DIRECTION('',(-0.,-1.));
#79 = ( GEOMETRIC_REPRESENTATION_CONTEXT(2) 
PARAMETRIC_REPRESENTATION_CONTEXT() REPRESENTATION_CONTEXT('2D SPACE',''
  ) );
#80 = ORIENTED_EDGE('',*,*,#21,.T.);
#81 = ORIENTED_EDGE('',*,*,#58,.T.);
#82 = FACE_BOUND('',#83,.T.);
#83 = EDGE_LOOP('',(#84));
#84 = ORIENTED_EDGE('',*,*,#85,.T.);
#85 = EDGE_CURVE('',#86,#86,#88,.T.);
#86 = VERTEX_POINT('',#87);
#87 = CARTESIAN_POINT('',(5.,30.,-8.660254037844));
#88 = SURFACE_CURVE('',#89,(#246,#406),.PCURVE_S1.);
#89 = B_SPLINE_CURVE_WITH_KNOTS('',8,(#90,#91,#92,#93,#94,#95,#96,#97,
    #98,#99,#100,#101,#102,#103,#104,#105,#106,#107,#108,#109,#110,#111,
    #112,#113,#114,#115,#116,#117,#118,#119,#120,#121,#122,#123,#124,
    #125,#126,#127,#128,#129,#130,#131,#132,#133,#134,#135,#136,#137,
    #138,#139,#140,#141,#142,#143,#144,#145,#146,#147,#148,#149,#150,
    #151,#152,#153,#154,#155,#156,#157,#158,#159,#160,#161,#162,#163,
    #164,#165,#166,#167,#168,#169,#170,#171,#172,#173,#174,#175,#176,
    #177,#178,#179,#180,#181,#182,#183,#184,#185,#186,#187,#188,#189,
    #190,#191,#192,#193,#194,#195,#196,#197,#198,#199,#200,#201,#202,
    #203,#204,#205,#206,#207,#208,#209,#210,#211,#212,#213,#214,#215,
    #216,#217,#218,#219,#220,#221,#222,#223,#224,#225,#226,#227,#228,
    #229,#230,#231,#232,#233,#234,#235,#236,#237,#238,#239,#240,#241,
    #242,#243,#244,#245),.UNSPECIFIED.,.T.,.F.,(9,7,7,7,7,7,7,7,7,7,7,7,
    7,7,7,7,7,7,7,7,7,7,9),(0.,5.405539451266E-02,0.119173321694,
    0.173394443026,0.200525305451,0.239790430657,0.281912869072,
    0.313213565748,0.403081047058,0.461196192494,0.551405055952,
    0.610464979519,0.630979926905,0.656059201445,0.686064077359,
    0.707635653812,0.739810076874,0.772372581746,0.793944416455,
    0.823949651589,0.849029226379,0.928616436586,1.),.UNSPECIFIED.);
#90 = CARTESIAN_POINT('',(5.,30.,-8.660254037844));
#91 = CARTESIAN_POINT('',(5.,30.179705909879,-8.591085200882));
#92 = CARTESIAN_POINT('',(4.992618517969,30.360706450003,-8.52552200661)
  );
#93 = CARTESIAN_POINT('',(4.977669193305,30.542849929262,-8.463857179748
    ));
#94 = CARTESIAN_POINT('',(4.954938289747,30.725942718589,-8.406385601981
    ));
#95 = CARTESIAN_POINT('',(4.924191939508,30.909746133033,-8.353390751408
    ));
#96 = CARTESIAN_POINT('',(4.885184239705,31.093972810921,-8.305128918093
    ));
#97 = CARTESIAN_POINT('',(4.8376662011,31.278282590133,-8.26181119573));
#98 = CARTESIAN_POINT('',(4.713609008136,31.683928136576,-8.17753188583)
  );
#99 = CARTESIAN_POINT('',(4.633114434119,31.90514215009,-8.138862841118)
  );
#100 = CARTESIAN_POINT('',(4.539498224205,32.125184467048,
    -8.107841060953));
#101 = CARTESIAN_POINT('',(4.432360600751,32.343235837905,
    -8.084583261973));
#102 = CARTESIAN_POINT('',(4.311329226476,32.558392935263,
    -8.069012977787));
#103 = CARTESIAN_POINT('',(4.176064267829,32.769666688007,
    -8.060836142985));
#104 = CARTESIAN_POINT('',(4.026254906589,32.975979232833,
    -8.059537215153));
#105 = CARTESIAN_POINT('',(3.724511752382,33.342841656804,
    -8.068441415285));
#106 = CARTESIAN_POINT('',(3.577162131314,33.505230741701,
    -8.076755201037));
#107 = CARTESIAN_POINT('',(3.419340230754,33.662723584771,
    -8.088919864135));
#108 = CARTESIAN_POINT('',(3.250853317803,33.814608605849,
    -8.104429037854));
#109 = CARTESIAN_POINT('',(3.071549907966,33.960074903897,
    -8.122680561936));
#110 = CARTESIAN_POINT('',(2.881330383032,34.098216846158,
    -8.142980545523));
#111 = CARTESIAN_POINT('',(2.680152451299,34.228034140279,
    -8.164558247831));
#112 = CARTESIAN_POINT('',(2.361891526098,34.408669092275,
    -8.197616790847));
#113 = CARTESIAN_POINT('',(2.253033476264,34.466538639438,
    -8.208753470582));
#114 = CARTESIAN_POINT('',(2.1414735083,34.521893611252,-8.219898031449)
  );
#115 = CARTESIAN_POINT('',(2.027244832885,34.574579138413,
    -8.230941281546));
#116 = CARTESIAN_POINT('',(1.910400924357,34.624431275268,
    -8.241770636497));
#117 = CARTESIAN_POINT('',(1.791018781359,34.671280373111,
    -8.252272134571));
#118 = CARTESIAN_POINT('',(1.669202187476,34.714954453485,
    -8.262332451785));
#119 = CARTESIAN_POINT('',(1.365456402228,34.81364744176,-8.285602037919
    ));
#120 = CARTESIAN_POINT('',(1.180926122019,34.865031775711,-8.29821389633
    ));
#121 = CARTESIAN_POINT('',(0.992011908996,34.908868401421,
    -8.309332332814));
#122 = CARTESIAN_POINT('',(0.799339517621,34.944641744163,-8.31863420965
    ));
#123 = CARTESIAN_POINT('',(0.603650770453,34.971906418908,
    -8.325842818198));
#124 = CARTESIAN_POINT('',(0.405814431146,34.990318530918,
    -8.330751848159));
#125 = CARTESIAN_POINT('',(0.206839859077,34.999679694418,
    -8.333247918758));
#126 = CARTESIAN_POINT('',(-0.205530247962,35.000330699431,
    -8.333421519589));
#127 = CARTESIAN_POINT('',(-0.419065291216,34.990256034668,
    -8.330735318361));
#128 = CARTESIAN_POINT('',(-0.631257156692,34.969753026575,
    -8.325265184043));
#129 = CARTESIAN_POINT('',(-0.840865539342,34.939076443672,
    -8.317156074941));
#130 = CARTESIAN_POINT('',(-1.046839507456,34.898670174099,
    -8.306674692886));
#131 = CARTESIAN_POINT('',(-1.248297059029,34.849104184025,
    -8.294176946949));
#132 = CARTESIAN_POINT('',(-1.44450908357,34.791030831861,
    -8.280073979762));
#133 = CARTESIAN_POINT('',(-1.776355898584,34.67621308514,
    -8.253444428536));
#134 = CARTESIAN_POINT('',(-1.914662647617,34.622939420032,
    -8.241439020281));
#135 = CARTESIAN_POINT('',(-2.049629562326,34.565600833561,
    -8.228951397231));
#136 = CARTESIAN_POINT('',(-2.181126989216,34.504458632227,
    -8.21615679052));
#137 = CARTESIAN_POINT('',(-2.309066140563,34.439766843023,
    -8.203229140312));
#138 = CARTESIAN_POINT('',(-2.433392568203,34.371766191348,
    -8.19033701022));
#139 = CARTESIAN_POINT('',(-2.554081006,34.300679352213,-8.177641072689)
  );
#140 = CARTESIAN_POINT('',(-3.007195677867,34.014326696614,
    -8.129841068462));
#141 = CARTESIAN_POINT('',(-3.312823204562,33.778447626839,
    -8.097305206674));
#142 = CARTESIAN_POINT('',(-3.588764407011,33.523549273772,
    -8.071200604377));
#143 = CARTESIAN_POINT('',(-3.83548121182,33.253413303404,
    -8.054608395271));
#144 = CARTESIAN_POINT('',(-4.053682424142,32.971424242869,
    -8.049980429374));
#145 = CARTESIAN_POINT('',(-4.244187736709,32.680516583123,
    -8.05893101375));
#146 = CARTESIAN_POINT('',(-4.407976022583,32.383226872544,
    -8.082267900974));
#147 = CARTESIAN_POINT('',(-4.635373726039,31.886616256855,
    -8.144672997253));
#148 = CARTESIAN_POINT('',(-4.713889549941,31.689886007253,
    -8.17525783342));
#149 = CARTESIAN_POINT('',(-4.781881859241,31.492090559154,
    -8.211949177988));
#150 = CARTESIAN_POINT('',(-4.839643494701,31.293791540093,
    -8.25465058664));
#151 = CARTESIAN_POINT('',(-4.887482227763,31.095477630243,
    -8.303163786218));
#152 = CARTESIAN_POINT('',(-4.925707779709,30.897568394576,
    -8.357213507178));
#153 = CARTESIAN_POINT('',(-4.954620391758,30.700418406145,
    -8.416473380939));
#154 = CARTESIAN_POINT('',(-5.005360409644,30.199931739114,
    -8.580122019467));
#155 = CARTESIAN_POINT('',(-5.014445616472,29.898197388231,
    -8.69132127113));
#156 = CARTESIAN_POINT('',(-5.002858176679,29.59998202632,
    -8.812937033455));
#157 = CARTESIAN_POINT('',(-4.971477930802,29.305937480941,
    -8.943573173056));
#158 = CARTESIAN_POINT('',(-4.92095216393,29.016567025783,
    -9.081830791256));
#159 = CARTESIAN_POINT('',(-4.851690888599,28.732259701098,
    -9.226386513778));
#160 = CARTESIAN_POINT('',(-4.763811130074,28.453310968706,
    -9.376027002671));
#161 = CARTESIAN_POINT('',(-4.587026106414,28.000971343679,
    -9.63023947492));
#162 = CARTESIAN_POINT('',(-4.508977380276,27.824454573831,
    -9.732495900092));
#163 = CARTESIAN_POINT('',(-4.422746371804,27.650463482021,
    -9.836112292316));
#164 = CARTESIAN_POINT('',(-4.328189199948,27.47911182823,
    -9.940762952143));
#165 = CARTESIAN_POINT('',(-4.225106552773,27.310554277932,
    -10.04610800108));
#166 = CARTESIAN_POINT('',(-4.113235869348,27.144986663595,
    -10.15178881956));
#167 = CARTESIAN_POINT('',(-3.992227850684,26.982650323345,
    -10.25742175299));
#168 = CARTESIAN_POINT('',(-3.816235183259,26.768676631903,
    -10.39912116647));
#169 = CARTESIAN_POINT('',(-3.7697055368,26.713941094886,-10.43559430056
    ));
#170 = CARTESIAN_POINT('',(-3.721999416424,26.659647324487,
    -10.47199128786));
#171 = CARTESIAN_POINT('',(-3.673096898031,26.605810357641,
    -10.50829286175));
#172 = CARTESIAN_POINT('',(-3.62297691866,26.552446888847,
    -10.54447862599));
#173 = CARTESIAN_POINT('',(-3.571617117792,26.499575309533,
    -10.58052699127));
#174 = CARTESIAN_POINT('',(-3.518993678658,26.447215747428,
    -10.61641511177));
#175 = CARTESIAN_POINT('',(-3.399173780572,26.332033887312,
    -10.6957661744));
#176 = CARTESIAN_POINT('',(-3.331341761484,26.269477327146,
    -10.7391367344));
#177 = CARTESIAN_POINT('',(-3.261537376322,26.207759346447,
    -10.78218711003));
#178 = CARTESIAN_POINT('',(-3.189711775322,26.146925289093,
    -10.82486926843));
#179 = CARTESIAN_POINT('',(-3.115814582632,26.087027062479,
    -10.86713031011));
#180 = CARTESIAN_POINT('',(-3.039793484016,26.028123278182,
    -10.90891224357));
#181 = CARTESIAN_POINT('',(-2.961593814561,25.970279392613,
    -10.95015175986));
#182 = CARTESIAN_POINT('',(-2.784924810823,25.845718083295,
    -11.03938769385));
#183 = CARTESIAN_POINT('',(-2.685501830567,25.779496924639,
    -11.08711477281));
#184 = CARTESIAN_POINT('',(-2.582784420081,25.715022808914,
    -11.1338475263));
#185 = CARTESIAN_POINT('',(-2.476676481566,25.652441030886,
    -11.17945170685));
#186 = CARTESIAN_POINT('',(-2.367092786576,25.591922478914,
    -11.22377327026));
#187 = CARTESIAN_POINT('',(-2.253961157627,25.533662370992,
    -11.26663910861));
#188 = CARTESIAN_POINT('',(-2.137224649814,25.477878990778,
    -11.30785778321));
#189 = CARTESIAN_POINT('',(-1.930297593364,25.386660974051,
    -11.37551934567));
#190 = CARTESIAN_POINT('',(-1.841875970408,25.34991754276,
    -11.40285622932));
#191 = CARTESIAN_POINT('',(-1.75156927094,25.314672318898,
    -11.42915264928));
#192 = CARTESIAN_POINT('',(-1.659381004447,25.281025250548,
    -11.45432268542));
#193 = CARTESIAN_POINT('',(-1.56533025769,25.24908375395,-11.47827461858
    ));
#194 = CARTESIAN_POINT('',(-1.469454169874,25.218960422712,
    -11.5009127924));
#195 = CARTESIAN_POINT('',(-1.371810407829,25.19077073702,
    -11.52213947517));
#196 = CARTESIAN_POINT('',(-1.124325883564,25.125642511265,
    -11.57126537582));
#197 = CARTESIAN_POINT('',(-0.972342632061,25.091193486708,-11.597331668
    ));
#198 = CARTESIAN_POINT('',(-0.816898516352,25.061704193154,
    -11.61970451776));
#199 = CARTESIAN_POINT('',(-0.658457667061,25.03756565334,-11.6380559255
    ));
#200 = CARTESIAN_POINT('',(-0.497588134385,25.019120435682,
    -11.65209894028));
#201 = CARTESIAN_POINT('',(-0.334972803962,25.006635145852,
    -11.66161136867));
#202 = CARTESIAN_POINT('',(-0.171422809993,25.000264393002,
    -11.66646522445));
#203 = CARTESIAN_POINT('',(0.157608379084,24.999744954397,
    -11.66686098705));
#204 = CARTESIAN_POINT('',(0.323196818629,25.005744449501,
    -11.66228999812));
#205 = CARTESIAN_POINT('',(0.487877374863,25.018015909486,
    -11.65293989282));
#206 = CARTESIAN_POINT('',(0.650805205701,25.036404921857,
    -11.63893842074));
#207 = CARTESIAN_POINT('',(0.811268639221,25.060638464102,
    -11.62051309323));
#208 = CARTESIAN_POINT('',(0.968675275473,25.090362862625,
    -11.59796017869));
#209 = CARTESIAN_POINT('',(1.122540676014,25.125172714615,
    -11.57161974112));
#210 = CARTESIAN_POINT('',(1.371810407829,25.19077073702,-11.52213947517
    ));
#211 = CARTESIAN_POINT('',(1.469454169875,25.218960422712,-11.5009127924
    ));
#212 = CARTESIAN_POINT('',(1.56533025769,25.249083753951,-11.47827461858
    ));
#213 = CARTESIAN_POINT('',(1.659381004448,25.281025250548,
    -11.45432268542));
#214 = CARTESIAN_POINT('',(1.751569270941,25.314672318898,
    -11.42915264928));
#215 = CARTESIAN_POINT('',(1.841875970409,25.349917542761,
    -11.40285622932));
#216 = CARTESIAN_POINT('',(1.930297593365,25.386660974051,
    -11.37551934567));
#217 = CARTESIAN_POINT('',(2.137224649815,25.477878990778,
    -11.30785778321));
#218 = CARTESIAN_POINT('',(2.253961157628,25.533662370993,
    -11.26663910861));
#219 = CARTESIAN_POINT('',(2.367092786576,25.591922478915,
    -11.22377327026));
#220 = CARTESIAN_POINT('',(2.476676481567,25.652441030886,
    -11.17945170685));
#221 = CARTESIAN_POINT('',(2.582784420081,25.715022808915,-11.1338475263
    ));
#222 = CARTESIAN_POINT('',(2.685501830568,25.779496924639,
    -11.08711477281));
#223 = CARTESIAN_POINT('',(2.784924810824,25.845718083295,
    -11.03938769385));
#224 = CARTESIAN_POINT('',(2.961593814562,25.970279392614,
    -10.95015175986));
#225 = CARTESIAN_POINT('',(3.039793484017,26.028123278183,
    -10.90891224357));
#226 = CARTESIAN_POINT('',(3.115814582633,26.08702706248,-10.86713031011
    ));
#227 = CARTESIAN_POINT('',(3.189711775323,26.146925289093,
    -10.82486926843));
#228 = CARTESIAN_POINT('',(3.261537376322,26.207759346448,
    -10.78218711003));
#229 = CARTESIAN_POINT('',(3.331341761485,26.269477327147,-10.7391367344
    ));
#230 = CARTESIAN_POINT('',(3.399173780573,26.332033887312,-10.6957661744
    ));
#231 = CARTESIAN_POINT('',(3.674230856667,26.596443940808,
    -10.51360885646));
#232 = CARTESIAN_POINT('',(3.863867397726,26.805424000904,
    -10.37239880957));
#233 = CARTESIAN_POINT('',(4.035693232298,27.021214281149,
    -10.22978196444));
#234 = CARTESIAN_POINT('',(4.190781996164,27.24298605269,-10.08684446273
    ));
#235 = CARTESIAN_POINT('',(4.329934387516,27.470106231929,
    -9.944545023989));
#236 = CARTESIAN_POINT('',(4.453771127563,27.702117772774,
    -9.803741841777));
#237 = CARTESIAN_POINT('',(4.562709899213,27.93875349389,-9.6652055768)
  );
#238 = CARTESIAN_POINT('',(4.741519980472,28.39627463133,-9.408081122032
    ));
#239 = CARTESIAN_POINT('',(4.814204085073,28.616124849143,
    -9.288989721364));
#240 = CARTESIAN_POINT('',(4.87517842594,28.839361137725,-9.172941179686
    ));
#241 = CARTESIAN_POINT('',(4.924432226369,29.065830701711,
    -9.060530677851));
#242 = CARTESIAN_POINT('',(4.961829166577,29.295357193675,-8.95239109744
    ));
#243 = CARTESIAN_POINT('',(4.987130058904,29.527733690615,
    -8.849184648092));
#244 = CARTESIAN_POINT('',(5.,29.76271367209,-8.75158558804));
#245 = CARTESIAN_POINT('',(5.,30.,-8.660254037844));
#246 = PCURVE('',#43,#247);
#247 = DEFINITIONAL_REPRESENTATION('',(#248),#405);
#248 = B_SPLINE_CURVE_WITH_KNOTS('',8,(#249,#250,#251,#252,#253,#254,
    #255,#256,#257,#258,#259,#260,#261,#262,#263,#264,#265,#266,#267,
    #268,#269,#270,#271,#272,#273,#274,#275,#276,#277,#278,#279,#280,
    #281,#282,#283,#284,#285,#286,#287,#288,#289,#290,#291,#292,#293,
    #294,#295,#296,#297,#298,#299,#300,#301,#302,#303,#304,#305,#306,
    #307,#308,#309,#310,#311,#312,#313,#314,#315,#316,#317,#318,#319,
    #320,#321,#322,#323,#324,#325,#326,#327,#328,#329,#330,#331,#332,
    #333,#334,#335,#336,#337,#338,#339,#340,#341,#342,#343,#344,#345,
    #346,#347,#348,#349,#350,#351,#352,#353,#354,#355,#356,#357,#358,
    #359,#360,#361,#362,#363,#364,#365,#366,#367,#368,#369,#370,#371,
    #372,#373,#374,#375,#376,#377,#378,#379,#380,#381,#382,#383,#384,
    #385,#386,#387,#388,#389,#390,#391,#392,#393,#394,#395,#396,#397,
    #398,#399,#400,#401,#402,#403,#404),.UNSPECIFIED.,.T.,.F.,(9,7,7,7,7
    ,7,7,7,7,7,7,7,7,7,7,7,7,7,7,7,7,7,9),(0.,5.405539451266E-02,
    0.119173321694,0.173394443026,0.200525305451,0.239790430657,
    0.281912869072,0.313213565748,0.403081047058,0.461196192494,
    0.551405055952,0.610464979519,0.630979926905,0.656059201445,
    0.686064077359,0.707635653812,0.739810076874,0.772372581746,
    0.793944416455,0.823949651589,0.849029226379,0.928616436586,1.),
  .UNSPECIFIED.);
#249 = CARTESIAN_POINT('',(-1.047197551197,-30.));
#250 = CARTESIAN_POINT('',(-1.043739109348,-30.17970590987));
#251 = CARTESIAN_POINT('',(-1.041052850745,-30.36070645));
#252 = CARTESIAN_POINT('',(-1.039187399729,-30.54284992926));
#253 = CARTESIAN_POINT('',(-1.038196310168,-30.72594271858));
#254 = CARTESIAN_POINT('',(-1.038136990117,-30.90974613303));
#255 = CARTESIAN_POINT('',(-1.039069200014,-31.09397281092));
#256 = CARTESIAN_POINT('',(-1.041053124391,-31.27828259013));
#257 = CARTESIAN_POINT('',(-1.047874080468,-31.68392813657));
#258 = CARTESIAN_POINT('',(-1.053212305893,-31.90514215009));
#259 = CARTESIAN_POINT('',(-1.060263091807,-32.12518446704));
#260 = CARTESIAN_POINT('',(-1.069123441296,-32.3432358379));
#261 = CARTESIAN_POINT('',(-1.079880727066,-32.55839293526));
#262 = CARTESIAN_POINT('',(-1.092609627056,-32.769666688));
#263 = CARTESIAN_POINT('',(-1.107371230698,-32.97597923283));
#264 = CARTESIAN_POINT('',(-1.138238886372,-33.3428416568));
#265 = CARTESIAN_POINT('',(-1.153703167364,-33.5052307417));
#266 = CARTESIAN_POINT('',(-1.170640034582,-33.66272358477));
#267 = CARTESIAN_POINT('',(-1.189075628601,-33.81460860584));
#268 = CARTESIAN_POINT('',(-1.209027073536,-33.96007490389));
#269 = CARTESIAN_POINT('',(-1.230501076331,-34.09821684615));
#270 = CARTESIAN_POINT('',(-1.253493406588,-34.22803414027));
#271 = CARTESIAN_POINT('',(-1.290246353995,-34.40866909227));
#272 = CARTESIAN_POINT('',(-1.302877379685,-34.46653863943));
#273 = CARTESIAN_POINT('',(-1.315878786736,-34.52189361125));
#274 = CARTESIAN_POINT('',(-1.329244765271,-34.57457913841));
#275 = CARTESIAN_POINT('',(-1.342966827998,-34.62443127526));
#276 = CARTESIAN_POINT('',(-1.357033395393,-34.67128037311));
#277 = CARTESIAN_POINT('',(-1.371429380888,-34.71495445348));
#278 = CARTESIAN_POINT('',(-1.407419598071,-34.81364744176));
#279 = CARTESIAN_POINT('',(-1.429363426071,-34.86503177571));
#280 = CARTESIAN_POINT('',(-1.451896480641,-34.90886840142));
#281 = CARTESIAN_POINT('',(-1.4749333885,-34.94464174416));
#282 = CARTESIAN_POINT('',(-1.498373326365,-34.9719064189));
#283 = CARTESIAN_POINT('',(-1.522099013213,-34.99031853091));
#284 = CARTESIAN_POINT('',(-1.54597555094,-34.99967969441));
#285 = CARTESIAN_POINT('',(-1.595459948985,-35.00033069943));
#286 = CARTESIAN_POINT('',(-1.621084631838,-34.99025603466));
#287 = CARTESIAN_POINT('',(-1.646531496614,-34.96975302657));
#288 = CARTESIAN_POINT('',(-1.671634678664,-34.93907644367));
#289 = CARTESIAN_POINT('',(-1.696252060958,-34.89867017409));
#290 = CARTESIAN_POINT('',(-1.720263477717,-34.84910418402));
#291 = CARTESIAN_POINT('',(-1.743569174753,-34.79103083186));
#292 = CARTESIAN_POINT('',(-1.782822396333,-34.67621308514));
#293 = CARTESIAN_POINT('',(-1.799129123168,-34.62293942003));
#294 = CARTESIAN_POINT('',(-1.814982990833,-34.56560083356));
#295 = CARTESIAN_POINT('',(-1.830364657819,-34.50445863222));
#296 = CARTESIAN_POINT('',(-1.845260193213,-34.43976684302));
#297 = CARTESIAN_POINT('',(-1.859660257022,-34.37176619134));
#298 = CARTESIAN_POINT('',(-1.873559424908,-34.30067935221));
#299 = CARTESIAN_POINT('',(-1.925417602252,-34.01432669661));
#300 = CARTESIAN_POINT('',(-1.959682368507,-33.77844762684));
#301 = CARTESIAN_POINT('',(-1.989790475387,-33.52354927376));
#302 = CARTESIAN_POINT('',(-2.015775098171,-33.25341330342));
#303 = CARTESIAN_POINT('',(-2.037731102764,-32.97142424285));
#304 = CARTESIAN_POINT('',(-2.055808649604,-32.68051658312));
#305 = CARTESIAN_POINT('',(-2.070211370688,-32.38322687254));
#306 = CARTESIAN_POINT('',(-2.088256861709,-31.88661625685));
#307 = CARTESIAN_POINT('',(-2.093900042221,-31.68988600725));
#308 = CARTESIAN_POINT('',(-2.098161955332,-31.49209055915));
#309 = CARTESIAN_POINT('',(-2.101112621042,-31.29379154009));
#310 = CARTESIAN_POINT('',(-2.102826213038,-31.09547763024));
#311 = CARTESIAN_POINT('',(-2.103377924768,-30.89756839457));
#312 = CARTESIAN_POINT('',(-2.102841262731,-30.70041840614));
#313 = CARTESIAN_POINT('',(-2.09887125867,-30.19993173911));
#314 = CARTESIAN_POINT('',(-2.094002878959,-29.89819738823));
#315 = CARTESIAN_POINT('',(-2.08694218905,-29.59998202632));
#316 = CARTESIAN_POINT('',(-2.077918238599,-29.30593748094));
#317 = CARTESIAN_POINT('',(-2.067120826,-29.01656702578));
#318 = CARTESIAN_POINT('',(-2.054698991339,-28.73225970109));
#319 = CARTESIAN_POINT('',(-2.040758078705,-28.4533109687));
#320 = CARTESIAN_POINT('',(-2.015260156316,-28.00097134367));
#321 = CARTESIAN_POINT('',(-2.004545731082,-27.82445457383));
#322 = CARTESIAN_POINT('',(-1.993221020407,-27.65046348202));
#323 = CARTESIAN_POINT('',(-1.981294601513,-27.47911182823));
#324 = CARTESIAN_POINT('',(-1.968768857632,-27.31055427793));
#325 = CARTESIAN_POINT('',(-1.955639380482,-27.14498666359));
#326 = CARTESIAN_POINT('',(-1.941892954818,-26.98265032334));
#327 = CARTESIAN_POINT('',(-1.922506047342,-26.7686766319));
#328 = CARTESIAN_POINT('',(-1.917430712824,-26.71394109488));
#329 = CARTESIAN_POINT('',(-1.912277155901,-26.65964732448));
#330 = CARTESIAN_POINT('',(-1.907044321944,-26.60581035764));
#331 = CARTESIAN_POINT('',(-1.90173104993,-26.55244688884));
#332 = CARTESIAN_POINT('',(-1.896336055099,-26.49957530953));
#333 = CARTESIAN_POINT('',(-1.890857911612,-26.44721574742));
#334 = CARTESIAN_POINT('',(-1.878494486234,-26.33203388731));
#335 = CARTESIAN_POINT('',(-1.871567497126,-26.26947732714));
#336 = CARTESIAN_POINT('',(-1.86451103751,-26.20775934644));
#337 = CARTESIAN_POINT('',(-1.857321987728,-26.14692528909));
#338 = CARTESIAN_POINT('',(-1.849997075479,-26.08702706247));
#339 = CARTESIAN_POINT('',(-1.842532812463,-26.02812327818));
#340 = CARTESIAN_POINT('',(-1.834925431013,-25.97027939261));
#341 = CARTESIAN_POINT('',(-1.817893195147,-25.84571808329));
#342 = CARTESIAN_POINT('',(-1.808405884618,-25.77949692463));
#343 = CARTESIAN_POINT('',(-1.798701181293,-25.71502280891));
#344 = CARTESIAN_POINT('',(-1.788772116624,-25.65244103088));
#345 = CARTESIAN_POINT('',(-1.778612454687,-25.59192247891));
#346 = CARTESIAN_POINT('',(-1.768216685503,-25.53366237099));
#347 = CARTESIAN_POINT('',(-1.757580018363,-25.47787899077));
#348 = CARTESIAN_POINT('',(-1.738875173366,-25.38666097405));
#349 = CARTESIAN_POINT('',(-1.730926088913,-25.34991754276));
#350 = CARTESIAN_POINT('',(-1.722850055012,-25.31467231889));
#351 = CARTESIAN_POINT('',(-1.714646934826,-25.28102525054));
#352 = CARTESIAN_POINT('',(-1.706317674927,-25.24908375395));
#353 = CARTESIAN_POINT('',(-1.697864458764,-25.21896042271));
#354 = CARTESIAN_POINT('',(-1.689290860138,-25.19077073702));
#355 = CARTESIAN_POINT('',(-1.667642388931,-25.12564251126));
#356 = CARTESIAN_POINT('',(-1.654419675967,-25.0911934867));
#357 = CARTESIAN_POINT('',(-1.640959806581,-25.06170419315));
#358 = CARTESIAN_POINT('',(-1.627294596005,-25.03756565334));
#359 = CARTESIAN_POINT('',(-1.613462286092,-25.01912043568));
#360 = CARTESIAN_POINT('',(-1.599508804287,-25.00663514585));
#361 = CARTESIAN_POINT('',(-1.585489721375,-25.000264393));
#362 = CARTESIAN_POINT('',(-1.557287026508,-24.99974495439));
#363 = CARTESIAN_POINT('',(-1.543094244926,-25.0057444495));
#364 = CARTESIAN_POINT('',(-1.528965281945,-25.01801590948));
#365 = CARTESIAN_POINT('',(-1.514958020465,-25.03640492185));
#366 = CARTESIAN_POINT('',(-1.501120310639,-25.0606384641));
#367 = CARTESIAN_POINT('',(-1.487492033328,-25.09036286262));
#368 = CARTESIAN_POINT('',(-1.474106423976,-25.12517271461));
#369 = CARTESIAN_POINT('',(-1.452301793452,-25.19077073702));
#370 = CARTESIAN_POINT('',(-1.443728194826,-25.21896042271));
#371 = CARTESIAN_POINT('',(-1.435274978663,-25.24908375395));
#372 = CARTESIAN_POINT('',(-1.426945718764,-25.28102525054));
#373 = CARTESIAN_POINT('',(-1.418742598578,-25.31467231889));
#374 = CARTESIAN_POINT('',(-1.410666564677,-25.34991754276));
#375 = CARTESIAN_POINT('',(-1.402717480224,-25.38666097405));
#376 = CARTESIAN_POINT('',(-1.384012635227,-25.47787899077));
#377 = CARTESIAN_POINT('',(-1.373375968087,-25.53366237099));
#378 = CARTESIAN_POINT('',(-1.362980198903,-25.59192247891));
#379 = CARTESIAN_POINT('',(-1.352820536965,-25.65244103088));
#380 = CARTESIAN_POINT('',(-1.342891472297,-25.71502280891));
#381 = CARTESIAN_POINT('',(-1.333186768972,-25.77949692463));
#382 = CARTESIAN_POINT('',(-1.323699458443,-25.84571808329));
#383 = CARTESIAN_POINT('',(-1.306667222577,-25.97027939261));
#384 = CARTESIAN_POINT('',(-1.299059841126,-26.02812327818));
#385 = CARTESIAN_POINT('',(-1.29159557811,-26.08702706248));
#386 = CARTESIAN_POINT('',(-1.284270665862,-26.14692528909));
#387 = CARTESIAN_POINT('',(-1.277081616079,-26.20775934644));
#388 = CARTESIAN_POINT('',(-1.270025156463,-26.26947732714));
#389 = CARTESIAN_POINT('',(-1.263098167356,-26.33203388731));
#390 = CARTESIAN_POINT('',(-1.23471684097,-26.5964439408));
#391 = CARTESIAN_POINT('',(-1.2144229314,-26.8054240009));
#392 = CARTESIAN_POINT('',(-1.195302250929,-27.02121428114));
#393 = CARTESIAN_POINT('',(-1.177300489964,-27.24298605269));
#394 = CARTESIAN_POINT('',(-1.160391158382,-27.47010623192));
#395 = CARTESIAN_POINT('',(-1.14456660486,-27.70211777277));
#396 = CARTESIAN_POINT('',(-1.129839653882,-27.93875349389));
#397 = CARTESIAN_POINT('',(-1.104049654934,-28.39627463133));
#398 = CARTESIAN_POINT('',(-1.092773575595,-28.61612484914));
#399 = CARTESIAN_POINT('',(-1.082442682782,-28.83936113772));
#400 = CARTESIAN_POINT('',(-1.073103808363,-29.06583070171));
#401 = CARTESIAN_POINT('',(-1.06482139919,-29.29535719367));
#402 = CARTESIAN_POINT('',(-1.057676094899,-29.52773369061));
#403 = CARTESIAN_POINT('',(-1.051764128706,-29.76271367209));
#404 = CARTESIAN_POINT('',(-1.047197551197,-30.));
#405 = ( GEOMETRIC_REPRESENTATION_CONTEXT(2) 
PARAMETRIC_REPRESENTATION_CONTEXT() REPRESENTATION_CONTEXT('2D SPACE',''
  ) );
#406 = PCURVE('',#407,#412);
#407 = CYLINDRICAL_SURFACE('',#408,5.);
#408 = AXIS2_PLACEMENT_3D('',#409,#410,#411);
#409 = CARTESIAN_POINT('',(0.,30.,0.));
#410 = DIRECTION('',(0.,0.,1.));
#411 = DIRECTION('',(1.,0.,0.));
#412 = DEFINITIONAL_REPRESENTATION('',(#413),#570);
#413 = B_SPLINE_CURVE_WITH_KNOTS('',8,(#414,#415,#416,#417,#418,#419,
    #420,#421,#422,#423,#424,#425,#426,#427,#428,#429,#430,#431,#432,
    #433,#434,#435,#436,#437,#438,#439,#440,#441,#442,#443,#444,#445,
    #446,#447,#448,#449,#450,#451,#452,#453,#454,#455,#456,#457,#458,
    #459,#460,#461,#462,#463,#464,#465,#466,#467,#468,#469,#470,#471,
    #472,#473,#474,#475,#476,#477,#478,#479,#480,#481,#482,#483,#484,
    #485,#486,#487,#488,#489,#490,#491,#492,#493,#494,#495,#496,#497,
    #498,#499,#500,#501,#502,#503,#504,#505,#506,#507,#508,#509,#510,
    #511,#512,#513,#514,#515,#516,#517,#518,#519,#520,#521,#522,#523,
    #524,#525,#526,#527,#528,#529,#530,#531,#532,#533,#534,#535,#536,
    #537,#538,#539,#540,#541,#542,#543,#544,#545,#546,#547,#548,#549,
    #550,#551,#552,#553,#554,#555,#556,#557,#558,#559,#560,#561,#562,
    #563,#564,#565,#566,#567,#568,#569),.UNSPECIFIED.,.F.,.F.,(9,7,7,7,7
    ,7,7,7,7,7,7,7,7,7,7,7,7,7,7,7,7,7,9),(0.,5.405539451266E-02,
    0.119173321694,0.173394443026,0.200525305451,0.239790430657,
    0.281912869072,0.313213565748,0.403081047058,0.461196192494,
    0.551405055952,0.610464979519,0.630979926905,0.656059201445,
    0.686064077359,0.707635653812,0.739810076874,0.772372581746,
    0.793944416455,0.823949651589,0.849029226379,0.928616436586,1.),
  .UNSPECIFIED.);
#414 = CARTESIAN_POINT('',(0.,-8.660254037844));
#415 = CARTESIAN_POINT('',(3.594118197571E-02,-8.591085200882));
#416 = CARTESIAN_POINT('',(7.214128906099E-02,-8.52552200661));
#417 = CARTESIAN_POINT('',(0.108640733127,-8.463857179748));
#418 = CARTESIAN_POINT('',(0.145475815919,-8.406385601981));
#419 = CARTESIAN_POINT('',(0.182679610627,-8.353390751408));
#420 = CARTESIAN_POINT('',(0.22028247185,-8.305128918093));
#421 = CARTESIAN_POINT('',(0.258312173954,-8.26181119573));
#422 = CARTESIAN_POINT('',(0.343150489938,-8.17753188583));
#423 = CARTESIAN_POINT('',(0.390167231886,-8.138862841118));
#424 = CARTESIAN_POINT('',(0.437878986956,-8.107841060953));
#425 = CARTESIAN_POINT('',(0.486322782475,-8.084583261973));
#426 = CARTESIAN_POINT('',(0.535538142288,-8.069012977787));
#427 = CARTESIAN_POINT('',(0.585569455176,-8.060836142985));
#428 = CARTESIAN_POINT('',(0.636470159233,-8.059537215153));
#429 = CARTESIAN_POINT('',(0.731472679038,-8.068441415285));
#430 = CARTESIAN_POINT('',(0.775276272334,-8.076755201037));
#431 = CARTESIAN_POINT('',(0.819776434302,-8.088919864135));
#432 = CARTESIAN_POINT('',(0.865025833723,-8.104429037854));
#433 = CARTESIAN_POINT('',(0.911075062526,-8.122680561936));
#434 = CARTESIAN_POINT('',(0.957975615954,-8.142980545523));
#435 = CARTESIAN_POINT('',(1.005783686287,-8.164558247831));
#436 = CARTESIAN_POINT('',(1.078973576953,-8.197616790847));
#437 = CARTESIAN_POINT('',(1.103621023151,-8.208753470582));
#438 = CARTESIAN_POINT('',(1.128512269378,-8.219898031449));
#439 = CARTESIAN_POINT('',(1.153650313937,-8.230941281546));
#440 = CARTESIAN_POINT('',(1.179035676755,-8.241770636497));
#441 = CARTESIAN_POINT('',(1.204666083336,-8.252272134571));
#442 = CARTESIAN_POINT('',(1.23053614872,-8.262332451785));
#443 = CARTESIAN_POINT('',(1.294411592512,-8.285602037919));
#444 = CARTESIAN_POINT('',(1.332687014453,-8.29821389633));
#445 = CARTESIAN_POINT('',(1.371412144172,-8.309332332814));
#446 = CARTESIAN_POINT('',(1.410527019023,-8.31863420965));
#447 = CARTESIAN_POINT('',(1.449961390948,-8.325842818198));
#448 = CARTESIAN_POINT('',(1.489630525357,-8.330751848159));
#449 = CARTESIAN_POINT('',(1.529428304741,-8.333247918758));
#450 = CARTESIAN_POINT('',(1.611902428922,-8.333421519589));
#451 = CARTESIAN_POINT('',(1.654606136355,-8.330735318361));
#452 = CARTESIAN_POINT('',(1.697156674165,-8.325265184043));
#453 = CARTESIAN_POINT('',(1.73942444432,-8.317156074941));
#454 = CARTESIAN_POINT('',(1.781308443482,-8.306674692886));
#455 = CARTESIAN_POINT('',(1.822726474456,-8.294176946949));
#456 = CARTESIAN_POINT('',(1.863609461495,-8.280073979762));
#457 = CARTESIAN_POINT('',(1.933839205506,-8.253444428536));
#458 = CARTESIAN_POINT('',(1.963463923456,-8.241439020281));
#459 = CARTESIAN_POINT('',(1.992764128659,-8.228951397231));
#460 = CARTESIAN_POINT('',(2.021735473772,-8.21615679052));
#461 = CARTESIAN_POINT('',(2.050378034045,-8.203229140312));
#462 = CARTESIAN_POINT('',(2.078695614699,-8.19033701022));
#463 = CARTESIAN_POINT('',(2.106695490381,-8.177641072689));
#464 = CARTESIAN_POINT('',(2.213898242068,-8.129841068462));
#465 = CARTESIAN_POINT('',(2.29077277783,-8.097305206674));
#466 = CARTESIAN_POINT('',(2.365425985625,-8.071200604377));
#467 = CARTESIAN_POINT('',(2.438086418889,-8.054608395271));
#468 = CARTESIAN_POINT('',(2.508945066772,-8.049980429374));
#469 = CARTESIAN_POINT('',(2.578151596299,-8.05893101375));
#470 = CARTESIAN_POINT('',(2.645849621983,-8.082267900974));
#471 = CARTESIAN_POINT('',(2.755089142149,-8.144672997253));
#472 = CARTESIAN_POINT('',(2.797400806081,-8.17525783342));
#473 = CARTESIAN_POINT('',(2.839150235426,-8.211949177988));
#474 = CARTESIAN_POINT('',(2.880366122095,-8.25465058664));
#475 = CARTESIAN_POINT('',(2.921079505484,-8.303163786218));
#476 = CARTESIAN_POINT('',(2.961323962399,-8.357213507178));
#477 = CARTESIAN_POINT('',(3.001136122313,-8.416473380939));
#478 = CARTESIAN_POINT('',(3.101746549862,-8.580122019467));
#479 = CARTESIAN_POINT('',(3.161968900275,-8.69132127113));
#480 = CARTESIAN_POINT('',(3.221423315116,-8.812937033455));
#481 = CARTESIAN_POINT('',(3.280300038923,-8.943573173056));
#482 = CARTESIAN_POINT('',(3.338791975133,-9.081830791256));
#483 = CARTESIAN_POINT('',(3.397102894522,-9.226386513778));
#484 = CARTESIAN_POINT('',(3.455463034332,-9.376027002671));
#485 = CARTESIAN_POINT('',(3.552594714223,-9.63023947492));
#486 = CARTESIAN_POINT('',(3.591158258263,-9.732495900092));
#487 = CARTESIAN_POINT('',(3.629933262203,-9.836112292316));
#488 = CARTESIAN_POINT('',(3.668998492675,-9.940762952143));
#489 = CARTESIAN_POINT('',(3.708434353579,-10.04610800108));
#490 = CARTESIAN_POINT('',(3.748327225344,-10.15178881956));
#491 = CARTESIAN_POINT('',(3.788776083389,-10.25742175299));
#492 = CARTESIAN_POINT('',(3.844186609327,-10.39912116647));
#493 = CARTESIAN_POINT('',(3.858552717022,-10.43559430056));
#494 = CARTESIAN_POINT('',(3.873004499349,-10.47199128786));
#495 = CARTESIAN_POINT('',(3.887546815407,-10.50829286175));
#496 = CARTESIAN_POINT('',(3.902184658065,-10.54447862599));
#497 = CARTESIAN_POINT('',(3.91692320912,-10.58052699127));
#498 = CARTESIAN_POINT('',(3.931767894454,-10.61641511177));
#499 = CARTESIAN_POINT('',(3.965008633843,-10.6957661744));
#500 = CARTESIAN_POINT('',(3.983459488506,-10.7391367344));
#501 = CARTESIAN_POINT('',(4.002087825377,-10.78218711003));
#502 = CARTESIAN_POINT('',(4.020904417949,-10.82486926843));
#503 = CARTESIAN_POINT('',(4.039920197212,-10.86713031011));
#504 = CARTESIAN_POINT('',(4.059146457849,-10.90891224357));
#505 = CARTESIAN_POINT('',(4.078595064436,-10.95015175986));
#506 = CARTESIAN_POINT('',(4.121828133567,-11.03938769385));
#507 = CARTESIAN_POINT('',(4.145711292179,-11.08711477281));
#508 = CARTESIAN_POINT('',(4.169951503355,-11.1338475263));
#509 = CARTESIAN_POINT('',(4.194570008927,-11.17945170685));
#510 = CARTESIAN_POINT('',(4.219586212665,-11.22377327026));
#511 = CARTESIAN_POINT('',(4.245017970267,-11.26663910861));
#512 = CARTESIAN_POINT('',(4.27088187934,-11.30785778321));
#513 = CARTESIAN_POINT('',(4.316109982668,-11.37551934567));
#514 = CARTESIAN_POINT('',(4.335256054615,-11.40285622932));
#515 = CARTESIAN_POINT('',(4.354636513702,-11.42915264928));
#516 = CARTESIAN_POINT('',(4.374254065896,-11.45432268542));
#517 = CARTESIAN_POINT('',(4.394109109109,-11.47827461858));
#518 = CARTESIAN_POINT('',(4.414199447666,-11.5009127924));
#519 = CARTESIAN_POINT('',(4.434520006767,-11.52213947517));
#520 = CARTESIAN_POINT('',(4.485702142533,-11.57126537582));
#521 = CARTESIAN_POINT('',(4.516851348496,-11.597331668));
#522 = CARTESIAN_POINT('',(4.548461415934,-11.61970451776));
#523 = CARTESIAN_POINT('',(4.580472428738,-11.6380559255));
#524 = CARTESIAN_POINT('',(4.612812092731,-11.65209894028));
#525 = CARTESIAN_POINT('',(4.645392429792,-11.66161136867));
#526 = CARTESIAN_POINT('',(4.678104376974,-11.66646522445));
#527 = CARTESIAN_POINT('',(4.743910696793,-11.66686098705));
#528 = CARTESIAN_POINT('',(4.777026425348,-11.66228999812));
#529 = CARTESIAN_POINT('',(4.810013946727,-11.65293989282));
#530 = CARTESIAN_POINT('',(4.842759626933,-11.63893842074));
#531 = CARTESIAN_POINT('',(4.875171792275,-11.62051309323));
#532 = CARTESIAN_POINT('',(4.907175015097,-11.59796017869));
#533 = CARTESIAN_POINT('',(4.938706620463,-11.57161974112));
#534 = CARTESIAN_POINT('',(4.990257954003,-11.52213947517));
#535 = CARTESIAN_POINT('',(5.010578513104,-11.5009127924));
#536 = CARTESIAN_POINT('',(5.03066885166,-11.47827461858));
#537 = CARTESIAN_POINT('',(5.050523894874,-11.45432268542));
#538 = CARTESIAN_POINT('',(5.070141447067,-11.42915264928));
#539 = CARTESIAN_POINT('',(5.089521906155,-11.40285622932));
#540 = CARTESIAN_POINT('',(5.108667978101,-11.37551934567));
#541 = CARTESIAN_POINT('',(5.153896081429,-11.30785778321));
#542 = CARTESIAN_POINT('',(5.179759990502,-11.26663910861));
#543 = CARTESIAN_POINT('',(5.205191748104,-11.22377327026));
#544 = CARTESIAN_POINT('',(5.230207951843,-11.17945170685));
#545 = CARTESIAN_POINT('',(5.254826457414,-11.1338475263));
#546 = CARTESIAN_POINT('',(5.279066668591,-11.08711477281));
#547 = CARTESIAN_POINT('',(5.302949827203,-11.03938769385));
#548 = CARTESIAN_POINT('',(5.346182896333,-10.95015175986));
#549 = CARTESIAN_POINT('',(5.365631502921,-10.90891224357));
#550 = CARTESIAN_POINT('',(5.384857763557,-10.86713031011));
#551 = CARTESIAN_POINT('',(5.40387354282,-10.82486926843));
#552 = CARTESIAN_POINT('',(5.422690135393,-10.78218711003));
#553 = CARTESIAN_POINT('',(5.441318472263,-10.7391367344));
#554 = CARTESIAN_POINT('',(5.459769326927,-10.6957661744));
#555 = CARTESIAN_POINT('',(5.53607635714,-10.51360885646));
#556 = CARTESIAN_POINT('',(5.592384383139,-10.37239880957));
#557 = CARTESIAN_POINT('',(5.647365505762,-10.22978196444));
#558 = CARTESIAN_POINT('',(5.701285142511,-10.08684446273));
#559 = CARTESIAN_POINT('',(5.754365397577,-9.944545023989));
#560 = CARTESIAN_POINT('',(5.806811981726,-9.803741841777));
#561 = CARTESIAN_POINT('',(5.858823098695,-9.6652055768));
#562 = CARTESIAN_POINT('',(5.957067413821,-9.408081122032));
#563 = CARTESIAN_POINT('',(6.003312512477,-9.288989721364));
#564 = CARTESIAN_POINT('',(6.049488342501,-9.172941179686));
#565 = CARTESIAN_POINT('',(6.095713286953,-9.060530677851));
#566 = CARTESIAN_POINT('',(6.142094005663,-8.95239109744));
#567 = CARTESIAN_POINT('',(6.188731959896,-8.849184648092));
#568 = CARTESIAN_POINT('',(6.235728041598,-8.75158558804));
#569 = CARTESIAN_POINT('',(6.28318530718,-8.660254037844));
#570 = ( GEOMETRIC_REPRESENTATION_CONTEXT(2) 
PARAMETRIC_REPRESENTATION_CONTEXT() REPRESENTATION_CONTEXT('2D SPACE',''
  ) );
#571 = FACE_BOUND('',#572,.T.);
#572 = EDGE_LOOP('',(#573));
#573 = ORIENTED_EDGE('',*,*,#574,.F.);
#574 = EDGE_CURVE('',#575,#575,#577,.T.);
#575 = VERTEX_POINT('',#576);
#576 = CARTESIAN_POINT('',(5.,30.,8.660254037844));
#577 = SURFACE_CURVE('',#578,(#735,#895),.PCURVE_S1.);
#578 = B_SPLINE_CURVE_WITH_KNOTS('',8,(#579,#580,#581,#582,#583,#584,
    #585,#586,#587,#588,#589,#590,#591,#592,#593,#594,#595,#596,#597,
    #598,#599,#600,#601,#602,#603,#604,#605,#606,#607,#608,#609,#610,
    #611,#612,#613,#614,#615,#616,#617,#618,#619,#620,#621,#622,#623,
    #624,#625,#626,#627,#628,#629,#630,#631,#632,#633,#634,#635,#636,
    #637,#638,#639,#640,#641,#642,#643,#644,#645,#646,#647,#648,#649,
    #650,#651,#652,#653,#654,#655,#656,#657,#658,#659,#660,#661,#662,
    #663,#664,#665,#666,#667,#668,#669,#670,#671,#672,#673,#674,#675,
    #676,#677,#678,#679,#680,#681,#682,#683,#684,#685,#686,#687,#688,
    #689,#690,#691,#692,#693,#694,#695,#696,#697,#698,#699,#700,#701,
    #702,#703,#704,#705,#706,#707,#708,#709,#710,#711,#712,#713,#714,
    #715,#716,#717,#718,#719,#720,#721,#722,#723,#724,#725,#726,#727,
    #728,#729,#730,#731,#732,#733,#734),.UNSPECIFIED.,.T.,.F.,(9,7,7,7,7
    ,7,7,7,7,7,7,7,7,7,7,7,7,7,7,7,7,7,9),(0.,5.405539451222E-02,
    0.119173321694,0.173394443025,0.20052530545,0.239790430655,
    0.28191286907,0.313213565746,0.403081047057,0.461196192493,
    0.551405055951,0.610464979518,0.630979926904,0.656059201444,
    0.686064077358,0.707635653812,0.739810076873,0.772372581745,
    0.793944416455,0.823949651588,0.849029226378,0.928616436586,1.),
  .UNSPECIFIED.);
#579 = CARTESIAN_POINT('',(5.,30.,8.660254037844));
#580 = CARTESIAN_POINT('',(5.,30.179705909879,8.591085200882));
#581 = CARTESIAN_POINT('',(4.992618517969,30.360706450002,8.52552200661)
  );
#582 = CARTESIAN_POINT('',(4.977669193305,30.542849929261,8.463857179748
    ));
#583 = CARTESIAN_POINT('',(4.954938289747,30.72594271859,8.406385601981)
  );
#584 = CARTESIAN_POINT('',(4.924191939508,30.909746133034,8.353390751407
    ));
#585 = CARTESIAN_POINT('',(4.885184239705,31.093972810921,8.305128918093
    ));
#586 = CARTESIAN_POINT('',(4.8376662011,31.278282590133,8.26181119573));
#587 = CARTESIAN_POINT('',(4.713609008135,31.683928136576,8.17753188583)
  );
#588 = CARTESIAN_POINT('',(4.633114434119,31.90514215009,8.138862841118)
  );
#589 = CARTESIAN_POINT('',(4.539498224205,32.125184467048,8.107841060953
    ));
#590 = CARTESIAN_POINT('',(4.432360600751,32.343235837905,8.084583261973
    ));
#591 = CARTESIAN_POINT('',(4.311329226476,32.558392935263,8.069012977787
    ));
#592 = CARTESIAN_POINT('',(4.176064267829,32.769666688006,8.060836142985
    ));
#593 = CARTESIAN_POINT('',(4.026254906589,32.975979232833,8.059537215153
    ));
#594 = CARTESIAN_POINT('',(3.724511752382,33.342841656804,8.068441415285
    ));
#595 = CARTESIAN_POINT('',(3.577162131314,33.505230741701,8.076755201037
    ));
#596 = CARTESIAN_POINT('',(3.419340230754,33.662723584771,8.088919864135
    ));
#597 = CARTESIAN_POINT('',(3.250853317802,33.814608605849,8.104429037854
    ));
#598 = CARTESIAN_POINT('',(3.071549907966,33.960074903897,8.122680561936
    ));
#599 = CARTESIAN_POINT('',(2.881330383032,34.098216846158,8.142980545523
    ));
#600 = CARTESIAN_POINT('',(2.680152451299,34.228034140279,8.164558247831
    ));
#601 = CARTESIAN_POINT('',(2.361891526098,34.408669092275,8.197616790847
    ));
#602 = CARTESIAN_POINT('',(2.253033476264,34.466538639438,8.208753470582
    ));
#603 = CARTESIAN_POINT('',(2.1414735083,34.521893611252,8.219898031449)
  );
#604 = CARTESIAN_POINT('',(2.027244832885,34.574579138413,8.230941281546
    ));
#605 = CARTESIAN_POINT('',(1.910400924357,34.624431275268,8.241770636497
    ));
#606 = CARTESIAN_POINT('',(1.791018781359,34.671280373111,8.252272134571
    ));
#607 = CARTESIAN_POINT('',(1.669202187476,34.714954453485,8.262332451785
    ));
#608 = CARTESIAN_POINT('',(1.365456402227,34.81364744176,8.285602037919)
  );
#609 = CARTESIAN_POINT('',(1.180926122019,34.865031775711,8.29821389633)
  );
#610 = CARTESIAN_POINT('',(0.992011908996,34.908868401421,8.309332332814
    ));
#611 = CARTESIAN_POINT('',(0.799339517621,34.944641744163,8.31863420965)
  );
#612 = CARTESIAN_POINT('',(0.603650770453,34.971906418908,8.325842818198
    ));
#613 = CARTESIAN_POINT('',(0.405814431146,34.990318530918,8.330751848159
    ));
#614 = CARTESIAN_POINT('',(0.206839859077,34.999679694418,8.333247918758
    ));
#615 = CARTESIAN_POINT('',(-0.205530247962,35.000330699431,
    8.333421519589));
#616 = CARTESIAN_POINT('',(-0.419065291215,34.990256034668,
    8.330735318361));
#617 = CARTESIAN_POINT('',(-0.631257156692,34.969753026574,
    8.325265184043));
#618 = CARTESIAN_POINT('',(-0.840865539342,34.939076443672,8.31715607494
    ));
#619 = CARTESIAN_POINT('',(-1.046839507456,34.898670174099,
    8.306674692886));
#620 = CARTESIAN_POINT('',(-1.248297059029,34.849104184025,
    8.294176946949));
#621 = CARTESIAN_POINT('',(-1.44450908357,34.79103083186,8.280073979762)
  );
#622 = CARTESIAN_POINT('',(-1.776355898585,34.67621308514,8.253444428536
    ));
#623 = CARTESIAN_POINT('',(-1.914662647617,34.622939420033,
    8.241439020281));
#624 = CARTESIAN_POINT('',(-2.049629562326,34.565600833562,
    8.228951397231));
#625 = CARTESIAN_POINT('',(-2.181126989217,34.504458632227,8.21615679052
    ));
#626 = CARTESIAN_POINT('',(-2.309066140563,34.439766843023,
    8.203229140312));
#627 = CARTESIAN_POINT('',(-2.433392568202,34.371766191348,8.19033701022
    ));
#628 = CARTESIAN_POINT('',(-2.554081006,34.300679352213,8.177641072689)
  );
#629 = CARTESIAN_POINT('',(-3.007195677867,34.014326696614,
    8.129841068462));
#630 = CARTESIAN_POINT('',(-3.312823204562,33.778447626841,
    8.097305206673));
#631 = CARTESIAN_POINT('',(-3.588764407011,33.523549273768,
    8.071200604379));
#632 = CARTESIAN_POINT('',(-3.835481211821,33.25341330341,8.054608395268
    ));
#633 = CARTESIAN_POINT('',(-4.053682424141,32.971424242864,
    8.049980429376));
#634 = CARTESIAN_POINT('',(-4.244187736709,32.680516583124,8.05893101375
    ));
#635 = CARTESIAN_POINT('',(-4.407976022583,32.383226872544,
    8.082267900974));
#636 = CARTESIAN_POINT('',(-4.635373726038,31.886616256855,
    8.144672997253));
#637 = CARTESIAN_POINT('',(-4.713889549941,31.689886007253,8.17525783342
    ));
#638 = CARTESIAN_POINT('',(-4.781881859241,31.492090559154,
    8.211949177988));
#639 = CARTESIAN_POINT('',(-4.839643494701,31.293791540093,8.25465058664
    ));
#640 = CARTESIAN_POINT('',(-4.887482227763,31.095477630243,
    8.303163786218));
#641 = CARTESIAN_POINT('',(-4.925707779709,30.897568394576,
    8.357213507178));
#642 = CARTESIAN_POINT('',(-4.954620391758,30.700418406145,
    8.416473380939));
#643 = CARTESIAN_POINT('',(-5.005360409644,30.199931739114,
    8.580122019467));
#644 = CARTESIAN_POINT('',(-5.014445616472,29.898197388231,
    8.691321271131));
#645 = CARTESIAN_POINT('',(-5.002858176679,29.599982026321,
    8.812937033454));
#646 = CARTESIAN_POINT('',(-4.971477930802,29.305937480941,
    8.943573173057));
#647 = CARTESIAN_POINT('',(-4.920952163929,29.016567025782,
    9.081830791257));
#648 = CARTESIAN_POINT('',(-4.8516908886,28.732259701099,9.226386513777)
  );
#649 = CARTESIAN_POINT('',(-4.763811130074,28.453310968705,
    9.376027002672));
#650 = CARTESIAN_POINT('',(-4.587026106414,28.000971343679,9.63023947492
    ));
#651 = CARTESIAN_POINT('',(-4.508977380276,27.82445457383,9.732495900092
    ));
#652 = CARTESIAN_POINT('',(-4.422746371804,27.650463482021,
    9.836112292316));
#653 = CARTESIAN_POINT('',(-4.328189199948,27.47911182823,9.940762952143
    ));
#654 = CARTESIAN_POINT('',(-4.225106552773,27.310554277932,
    10.046108001088));
#655 = CARTESIAN_POINT('',(-4.113235869348,27.144986663595,
    10.151788819568));
#656 = CARTESIAN_POINT('',(-3.992227850684,26.982650323345,
    10.257421752995));
#657 = CARTESIAN_POINT('',(-3.816235183259,26.768676631903,
    10.399121166471));
#658 = CARTESIAN_POINT('',(-3.7697055368,26.713941094886,10.435594300562
    ));
#659 = CARTESIAN_POINT('',(-3.721999416424,26.659647324487,
    10.471991287861));
#660 = CARTESIAN_POINT('',(-3.673096898031,26.605810357641,
    10.508292861753));
#661 = CARTESIAN_POINT('',(-3.62297691866,26.552446888847,
    10.544478625994));
#662 = CARTESIAN_POINT('',(-3.571617117792,26.499575309533,
    10.580526991277));
#663 = CARTESIAN_POINT('',(-3.518993678658,26.447215747428,
    10.616415111779));
#664 = CARTESIAN_POINT('',(-3.399173780572,26.332033887312,
    10.695766174404));
#665 = CARTESIAN_POINT('',(-3.331341761484,26.269477327146,
    10.739136734404));
#666 = CARTESIAN_POINT('',(-3.261537376322,26.207759346447,
    10.782187110038));
#667 = CARTESIAN_POINT('',(-3.189711775322,26.146925289093,
    10.824869268434));
#668 = CARTESIAN_POINT('',(-3.115814582632,26.087027062479,
    10.867130310114));
#669 = CARTESIAN_POINT('',(-3.039793484016,26.028123278182,
    10.908912243573));
#670 = CARTESIAN_POINT('',(-2.961593814561,25.970279392613,
    10.950151759863));
#671 = CARTESIAN_POINT('',(-2.784924810823,25.845718083295,
    11.039387693852));
#672 = CARTESIAN_POINT('',(-2.685501830567,25.779496924639,
    11.087114772817));
#673 = CARTESIAN_POINT('',(-2.582784420081,25.715022808915,
    11.133847526308));
#674 = CARTESIAN_POINT('',(-2.476676481566,25.652441030886,
    11.179451706856));
#675 = CARTESIAN_POINT('',(-2.367092786576,25.591922478914,
    11.223773270269));
#676 = CARTESIAN_POINT('',(-2.253961157627,25.533662370992,
    11.266639108614));
#677 = CARTESIAN_POINT('',(-2.137224649814,25.477878990778,
    11.307857783211));
#678 = CARTESIAN_POINT('',(-1.930297593364,25.386660974051,
    11.375519345677));
#679 = CARTESIAN_POINT('',(-1.841875970408,25.34991754276,11.40285622932
    ));
#680 = CARTESIAN_POINT('',(-1.75156927094,25.314672318898,11.42915264928
    ));
#681 = CARTESIAN_POINT('',(-1.659381004447,25.281025250548,
    11.454322685424));
#682 = CARTESIAN_POINT('',(-1.56533025769,25.24908375395,11.478274618584
    ));
#683 = CARTESIAN_POINT('',(-1.469454169874,25.218960422712,
    11.500912792404));
#684 = CARTESIAN_POINT('',(-1.371810407829,25.19077073702,
    11.522139475177));
#685 = CARTESIAN_POINT('',(-1.124325883564,25.125642511265,
    11.571265375821));
#686 = CARTESIAN_POINT('',(-0.972342632061,25.091193486708,
    11.597331668009));
#687 = CARTESIAN_POINT('',(-0.816898516352,25.061704193154,
    11.619704517769));
#688 = CARTESIAN_POINT('',(-0.658457667062,25.03756565334,
    11.638055925502));
#689 = CARTESIAN_POINT('',(-0.497588134385,25.019120435682,
    11.652098940289));
#690 = CARTESIAN_POINT('',(-0.334972803962,25.006635145852,
    11.661611368672));
#691 = CARTESIAN_POINT('',(-0.171422809993,25.000264393002,
    11.666465224453));
#692 = CARTESIAN_POINT('',(0.157608379084,24.999744954397,
    11.666860987053));
#693 = CARTESIAN_POINT('',(0.323196818629,25.005744449501,
    11.662289998127));
#694 = CARTESIAN_POINT('',(0.487877374863,25.018015909486,11.65293989282
    ));
#695 = CARTESIAN_POINT('',(0.650805205701,25.036404921858,
    11.638938420743));
#696 = CARTESIAN_POINT('',(0.811268639221,25.060638464102,
    11.620513093232));
#697 = CARTESIAN_POINT('',(0.968675275473,25.090362862625,
    11.597960178699));
#698 = CARTESIAN_POINT('',(1.122540676014,25.125172714615,
    11.571619741125));
#699 = CARTESIAN_POINT('',(1.371810407829,25.19077073702,11.522139475177
    ));
#700 = CARTESIAN_POINT('',(1.469454169875,25.218960422712,
    11.500912792404));
#701 = CARTESIAN_POINT('',(1.56533025769,25.24908375395,11.478274618584)
  );
#702 = CARTESIAN_POINT('',(1.659381004448,25.281025250548,
    11.454322685424));
#703 = CARTESIAN_POINT('',(1.751569270941,25.314672318898,11.42915264928
    ));
#704 = CARTESIAN_POINT('',(1.841875970409,25.349917542761,11.40285622932
    ));
#705 = CARTESIAN_POINT('',(1.930297593365,25.386660974051,
    11.375519345676));
#706 = CARTESIAN_POINT('',(2.137224649815,25.477878990778,11.30785778321
    ));
#707 = CARTESIAN_POINT('',(2.253961157628,25.533662370993,
    11.266639108614));
#708 = CARTESIAN_POINT('',(2.367092786576,25.591922478915,
    11.223773270268));
#709 = CARTESIAN_POINT('',(2.476676481567,25.652441030886,
    11.179451706856));
#710 = CARTESIAN_POINT('',(2.582784420081,25.715022808915,
    11.133847526307));
#711 = CARTESIAN_POINT('',(2.685501830568,25.779496924639,
    11.087114772816));
#712 = CARTESIAN_POINT('',(2.784924810824,25.845718083295,
    11.039387693851));
#713 = CARTESIAN_POINT('',(2.961593814562,25.970279392614,
    10.950151759862));
#714 = CARTESIAN_POINT('',(3.039793484017,26.028123278183,
    10.908912243572));
#715 = CARTESIAN_POINT('',(3.115814582633,26.08702706248,10.867130310113
    ));
#716 = CARTESIAN_POINT('',(3.189711775323,26.146925289093,
    10.824869268434));
#717 = CARTESIAN_POINT('',(3.261537376322,26.207759346448,
    10.782187110038));
#718 = CARTESIAN_POINT('',(3.331341761485,26.269477327147,
    10.739136734404));
#719 = CARTESIAN_POINT('',(3.399173780573,26.332033887312,
    10.695766174404));
#720 = CARTESIAN_POINT('',(3.674230856667,26.596443940808,
    10.513608856468));
#721 = CARTESIAN_POINT('',(3.863867397725,26.805424000904,
    10.372398809571));
#722 = CARTESIAN_POINT('',(4.035693232298,27.021214281149,
    10.229781964441));
#723 = CARTESIAN_POINT('',(4.190781996164,27.24298605269,10.086844462733
    ));
#724 = CARTESIAN_POINT('',(4.329934387516,27.470106231929,9.944545023989
    ));
#725 = CARTESIAN_POINT('',(4.453771127563,27.702117772774,9.803741841777
    ));
#726 = CARTESIAN_POINT('',(4.562709899213,27.93875349389,9.6652055768));
#727 = CARTESIAN_POINT('',(4.741519980472,28.39627463133,9.408081122033)
  );
#728 = CARTESIAN_POINT('',(4.814204085073,28.616124849143,9.288989721363
    ));
#729 = CARTESIAN_POINT('',(4.87517842594,28.839361137725,9.172941179686)
  );
#730 = CARTESIAN_POINT('',(4.924432226369,29.065830701711,9.060530677852
    ));
#731 = CARTESIAN_POINT('',(4.961829166577,29.295357193675,8.95239109744)
  );
#732 = CARTESIAN_POINT('',(4.987130058904,29.527733690615,8.849184648092
    ));
#733 = CARTESIAN_POINT('',(5.,29.76271367209,8.75158558804));
#734 = CARTESIAN_POINT('',(5.,30.,8.660254037844));
#735 = PCURVE('',#43,#736);
#736 = DEFINITIONAL_REPRESENTATION('',(#737),#894);
#737 = B_SPLINE_CURVE_WITH_KNOTS('',8,(#738,#739,#740,#741,#742,#743,
    #744,#745,#746,#747,#748,#749,#750,#751,#752,#753,#754,#755,#756,
    #757,#758,#759,#760,#761,#762,#763,#764,#765,#766,#767,#768,#769,
    #770,#771,#772,#773,#774,#775,#776,#777,#778,#779,#780,#781,#782,
    #783,#784,#785,#786,#787,#788,#789,#790,#791,#792,#793,#794,#795,
    #796,#797,#798,#799,#800,#801,#802,#803,#804,#805,#806,#807,#808,
    #809,#810,#811,#812,#813,#814,#815,#816,#817,#818,#819,#820,#821,
    #822,#823,#824,#825,#826,#827,#828,#829,#830,#831,#832,#833,#834,
    #835,#836,#837,#838,#839,#840,#841,#842,#843,#844,#845,#846,#847,
    #848,#849,#850,#851,#852,#853,#854,#855,#856,#857,#858,#859,#860,
    #861,#862,#863,#864,#865,#866,#867,#868,#869,#870,#871,#872,#873,
    #874,#875,#876,#877,#878,#879,#880,#881,#882,#883,#884,#885,#886,
    #887,#888,#889,#890,#891,#892,#893),.UNSPECIFIED.,.T.,.F.,(9,7,7,7,7
    ,7,7,7,7,7,7,7,7,7,7,7,7,7,7,7,7,7,9),(0.,5.405539451222E-02,
    0.119173321694,0.173394443025,0.20052530545,0.239790430655,
    0.28191286907,0.313213565746,0.403081047057,0.461196192493,
    0.551405055951,0.610464979518,0.630979926904,0.656059201444,
    0.686064077358,0.707635653812,0.739810076873,0.772372581745,
    0.793944416455,0.823949651588,0.849029226378,0.928616436586,1.),
  .UNSPECIFIED.);
#738 = CARTESIAN_POINT('',(-5.235987755983,-30.));
#739 = CARTESIAN_POINT('',(-5.239446197831,-30.17970590987));
#740 = CARTESIAN_POINT('',(-5.242132456435,-30.36070645));
#741 = CARTESIAN_POINT('',(-5.243997907451,-30.54284992926));
#742 = CARTESIAN_POINT('',(-5.244988997012,-30.72594271859));
#743 = CARTESIAN_POINT('',(-5.245048317063,-30.90974613303));
#744 = CARTESIAN_POINT('',(-5.244116107165,-31.09397281092));
#745 = CARTESIAN_POINT('',(-5.242132182788,-31.27828259013));
#746 = CARTESIAN_POINT('',(-5.235311226712,-31.68392813657));
#747 = CARTESIAN_POINT('',(-5.229973001286,-31.90514215008));
#748 = CARTESIAN_POINT('',(-5.222922215372,-32.12518446704));
#749 = CARTESIAN_POINT('',(-5.214061865884,-32.3432358379));
#750 = CARTESIAN_POINT('',(-5.203304580114,-32.55839293526));
#751 = CARTESIAN_POINT('',(-5.190575680124,-32.769666688));
#752 = CARTESIAN_POINT('',(-5.175814076481,-32.97597923283));
#753 = CARTESIAN_POINT('',(-5.144946420807,-33.3428416568));
#754 = CARTESIAN_POINT('',(-5.129482139815,-33.5052307417));
#755 = CARTESIAN_POINT('',(-5.112545272597,-33.66272358477));
#756 = CARTESIAN_POINT('',(-5.094109678578,-33.81460860584));
#757 = CARTESIAN_POINT('',(-5.074158233643,-33.96007490389));
#758 = CARTESIAN_POINT('',(-5.052684230848,-34.09821684615));
#759 = CARTESIAN_POINT('',(-5.029691900591,-34.22803414027));
#760 = CARTESIAN_POINT('',(-4.992938953185,-34.40866909227));
#761 = CARTESIAN_POINT('',(-4.980307927495,-34.46653863943));
#762 = CARTESIAN_POINT('',(-4.967306520443,-34.52189361125));
#763 = CARTESIAN_POINT('',(-4.953940541909,-34.57457913841));
#764 = CARTESIAN_POINT('',(-4.940218479182,-34.62443127526));
#765 = CARTESIAN_POINT('',(-4.926151911786,-34.67128037311));
#766 = CARTESIAN_POINT('',(-4.911755926292,-34.71495445348));
#767 = CARTESIAN_POINT('',(-4.875765709109,-34.81364744176));
#768 = CARTESIAN_POINT('',(-4.853821881109,-34.86503177571));
#769 = CARTESIAN_POINT('',(-4.831288826539,-34.90886840142));
#770 = CARTESIAN_POINT('',(-4.808251918679,-34.94464174416));
#771 = CARTESIAN_POINT('',(-4.784811980814,-34.9719064189));
#772 = CARTESIAN_POINT('',(-4.761086293967,-34.99031853091));
#773 = CARTESIAN_POINT('',(-4.73720975624,-34.99967969441));
#774 = CARTESIAN_POINT('',(-4.687725358194,-35.00033069943));
#775 = CARTESIAN_POINT('',(-4.662100675342,-34.99025603466));
#776 = CARTESIAN_POINT('',(-4.636653810566,-34.96975302657));
#777 = CARTESIAN_POINT('',(-4.611550628516,-34.93907644367));
#778 = CARTESIAN_POINT('',(-4.586933246221,-34.89867017409));
#779 = CARTESIAN_POINT('',(-4.562921829463,-34.84910418402));
#780 = CARTESIAN_POINT('',(-4.539616132426,-34.79103083186));
#781 = CARTESIAN_POINT('',(-4.500362910846,-34.67621308514));
#782 = CARTESIAN_POINT('',(-4.484056184012,-34.62293942003));
#783 = CARTESIAN_POINT('',(-4.468202316347,-34.56560083356));
#784 = CARTESIAN_POINT('',(-4.452820649361,-34.50445863222));
#785 = CARTESIAN_POINT('',(-4.437925113966,-34.43976684302));
#786 = CARTESIAN_POINT('',(-4.423525050158,-34.37176619134));
#787 = CARTESIAN_POINT('',(-4.409625882272,-34.30067935221));
#788 = CARTESIAN_POINT('',(-4.357767704928,-34.01432669661));
#789 = CARTESIAN_POINT('',(-4.323502938672,-33.77844762684));
#790 = CARTESIAN_POINT('',(-4.293394831793,-33.52354927377));
#791 = CARTESIAN_POINT('',(-4.267410209008,-33.2534133034));
#792 = CARTESIAN_POINT('',(-4.245454204417,-32.97142424286));
#793 = CARTESIAN_POINT('',(-4.227376657576,-32.68051658312));
#794 = CARTESIAN_POINT('',(-4.212973936492,-32.38322687254));
#795 = CARTESIAN_POINT('',(-4.19492844547,-31.88661625685));
#796 = CARTESIAN_POINT('',(-4.189285264958,-31.68988600725));
#797 = CARTESIAN_POINT('',(-4.185023351847,-31.49209055915));
#798 = CARTESIAN_POINT('',(-4.182072686138,-31.29379154009));
#799 = CARTESIAN_POINT('',(-4.180359094141,-31.09547763024));
#800 = CARTESIAN_POINT('',(-4.179807382412,-30.89756839457));
#801 = CARTESIAN_POINT('',(-4.180344044449,-30.70041840614));
#802 = CARTESIAN_POINT('',(-4.18431404851,-30.19993173911));
#803 = CARTESIAN_POINT('',(-4.189182428221,-29.89819738823));
#804 = CARTESIAN_POINT('',(-4.19624311813,-29.59998202632));
#805 = CARTESIAN_POINT('',(-4.20526706858,-29.30593748094));
#806 = CARTESIAN_POINT('',(-4.216064481179,-29.01656702578));
#807 = CARTESIAN_POINT('',(-4.22848631584,-28.73225970109));
#808 = CARTESIAN_POINT('',(-4.242427228474,-28.4533109687));
#809 = CARTESIAN_POINT('',(-4.267925150863,-28.00097134367));
#810 = CARTESIAN_POINT('',(-4.278639576098,-27.82445457383));
#811 = CARTESIAN_POINT('',(-4.289964286773,-27.65046348202));
#812 = CARTESIAN_POINT('',(-4.301890705666,-27.47911182823));
#813 = CARTESIAN_POINT('',(-4.314416449548,-27.31055427793));
#814 = CARTESIAN_POINT('',(-4.327545926697,-27.14498666359));
#815 = CARTESIAN_POINT('',(-4.341292352362,-26.98265032334));
#816 = CARTESIAN_POINT('',(-4.360679259838,-26.7686766319));
#817 = CARTESIAN_POINT('',(-4.365754594356,-26.71394109488));
#818 = CARTESIAN_POINT('',(-4.370908151279,-26.65964732448));
#819 = CARTESIAN_POINT('',(-4.376140985236,-26.60581035764));
#820 = CARTESIAN_POINT('',(-4.381454257249,-26.55244688884));
#821 = CARTESIAN_POINT('',(-4.38684925208,-26.49957530953));
#822 = CARTESIAN_POINT('',(-4.392327395567,-26.44721574742));
#823 = CARTESIAN_POINT('',(-4.404690820946,-26.33203388731));
#824 = CARTESIAN_POINT('',(-4.411617810053,-26.26947732714));
#825 = CARTESIAN_POINT('',(-4.418674269669,-26.20775934644));
#826 = CARTESIAN_POINT('',(-4.425863319452,-26.14692528909));
#827 = CARTESIAN_POINT('',(-4.4331882317,-26.08702706247));
#828 = CARTESIAN_POINT('',(-4.440652494716,-26.02812327818));
#829 = CARTESIAN_POINT('',(-4.448259876167,-25.97027939261));
#830 = CARTESIAN_POINT('',(-4.465292112032,-25.84571808329));
#831 = CARTESIAN_POINT('',(-4.474779422562,-25.77949692463));
#832 = CARTESIAN_POINT('',(-4.484484125886,-25.71502280891));
#833 = CARTESIAN_POINT('',(-4.494413190555,-25.65244103088));
#834 = CARTESIAN_POINT('',(-4.504572852493,-25.59192247891));
#835 = CARTESIAN_POINT('',(-4.514968621676,-25.53366237099));
#836 = CARTESIAN_POINT('',(-4.525605288817,-25.47787899077));
#837 = CARTESIAN_POINT('',(-4.544310133814,-25.38666097405));
#838 = CARTESIAN_POINT('',(-4.552259218267,-25.34991754276));
#839 = CARTESIAN_POINT('',(-4.560335252168,-25.31467231889));
#840 = CARTESIAN_POINT('',(-4.568538372354,-25.28102525054));
#841 = CARTESIAN_POINT('',(-4.576867632253,-25.24908375395));
#842 = CARTESIAN_POINT('',(-4.585320848416,-25.21896042271));
#843 = CARTESIAN_POINT('',(-4.593894447042,-25.19077073702));
#844 = CARTESIAN_POINT('',(-4.615542918249,-25.12564251126));
#845 = CARTESIAN_POINT('',(-4.628765631213,-25.0911934867));
#846 = CARTESIAN_POINT('',(-4.642225500599,-25.06170419315));
#847 = CARTESIAN_POINT('',(-4.655890711175,-25.03756565334));
#848 = CARTESIAN_POINT('',(-4.669723021087,-25.01912043568));
#849 = CARTESIAN_POINT('',(-4.683676502893,-25.00663514585));
#850 = CARTESIAN_POINT('',(-4.697695585805,-25.000264393));
#851 = CARTESIAN_POINT('',(-4.725898280671,-24.99974495439));
#852 = CARTESIAN_POINT('',(-4.740091062254,-25.0057444495));
#853 = CARTESIAN_POINT('',(-4.754220025235,-25.01801590948));
#854 = CARTESIAN_POINT('',(-4.768227286715,-25.03640492185));
#855 = CARTESIAN_POINT('',(-4.78206499654,-25.0606384641));
#856 = CARTESIAN_POINT('',(-4.795693273852,-25.09036286262));
#857 = CARTESIAN_POINT('',(-4.809078883204,-25.12517271461));
#858 = CARTESIAN_POINT('',(-4.830883513728,-25.19077073702));
#859 = CARTESIAN_POINT('',(-4.839457112354,-25.21896042271));
#860 = CARTESIAN_POINT('',(-4.847910328516,-25.24908375395));
#861 = CARTESIAN_POINT('',(-4.856239588416,-25.28102525054));
#862 = CARTESIAN_POINT('',(-4.864442708602,-25.31467231889));
#863 = CARTESIAN_POINT('',(-4.872518742503,-25.34991754276));
#864 = CARTESIAN_POINT('',(-4.880467826955,-25.38666097405));
#865 = CARTESIAN_POINT('',(-4.899172671953,-25.47787899077));
#866 = CARTESIAN_POINT('',(-4.909809339093,-25.53366237099));
#867 = CARTESIAN_POINT('',(-4.920205108277,-25.59192247891));
#868 = CARTESIAN_POINT('',(-4.930364770214,-25.65244103088));
#869 = CARTESIAN_POINT('',(-4.940293834883,-25.71502280891));
#870 = CARTESIAN_POINT('',(-4.949998538208,-25.77949692463));
#871 = CARTESIAN_POINT('',(-4.959485848737,-25.84571808329));
#872 = CARTESIAN_POINT('',(-4.976518084603,-25.97027939261));
#873 = CARTESIAN_POINT('',(-4.984125466053,-26.02812327818));
#874 = CARTESIAN_POINT('',(-4.991589729069,-26.08702706248));
#875 = CARTESIAN_POINT('',(-4.998914641318,-26.14692528909));
#876 = CARTESIAN_POINT('',(-5.0061036911,-26.20775934644));
#877 = CARTESIAN_POINT('',(-5.013160150716,-26.26947732714));
#878 = CARTESIAN_POINT('',(-5.020087139824,-26.33203388731));
#879 = CARTESIAN_POINT('',(-5.04846846621,-26.5964439408));
#880 = CARTESIAN_POINT('',(-5.068762375779,-26.8054240009));
#881 = CARTESIAN_POINT('',(-5.08788305625,-27.02121428114));
#882 = CARTESIAN_POINT('',(-5.105884817216,-27.24298605269));
#883 = CARTESIAN_POINT('',(-5.122794148798,-27.47010623192));
#884 = CARTESIAN_POINT('',(-5.13861870232,-27.70211777277));
#885 = CARTESIAN_POINT('',(-5.153345653298,-27.93875349389));
#886 = CARTESIAN_POINT('',(-5.179135652246,-28.39627463133));
#887 = CARTESIAN_POINT('',(-5.190411731585,-28.61612484914));
#888 = CARTESIAN_POINT('',(-5.200742624398,-28.83936113772));
#889 = CARTESIAN_POINT('',(-5.210081498817,-29.06583070171));
#890 = CARTESIAN_POINT('',(-5.21836390799,-29.29535719367));
#891 = CARTESIAN_POINT('',(-5.225509212281,-29.52773369061));
#892 = CARTESIAN_POINT('',(-5.231421178473,-29.76271367209));
#893 = CARTESIAN_POINT('',(-5.235987755983,-30.));
#894 = ( GEOMETRIC_REPRESENTATION_CONTEXT(2) 
PARAMETRIC_REPRESENTATION_CONTEXT() REPRESENTATION_CONTEXT('2D SPACE',''
  ) );
#895 = PCURVE('',#407,#896);
#896 = DEFINITIONAL_REPRESENTATION('',(#897),#1054);
#897 = B_SPLINE_CURVE_WITH_KNOTS('',8,(#898,#899,#900,#901,#902,#903,
    #904,#905,#906,#907,#908,#909,#910,#911,#912,#913,#914,#915,#916,
    #917,#918,#919,#920,#921,#922,#923,#924,#925,#926,#927,#928,#929,
    #930,#931,#932,#933,#934,#935,#936,#937,#938,#939,#940,#941,#942,
    #943,#944,#945,#946,#947,#948,#949,#950,#951,#952,#953,#954,#955,
    #956,#957,#958,#959,#960,#961,#962,#963,#964,#965,#966,#967,#968,
    #969,#970,#971,#972,#973,#974,#975,#976,#977,#978,#979,#980,#981,
    #982,#983,#984,#985,#986,#987,#988,#989,#990,#991,#992,#993,#994,
    #995,#996,#997,#998,#999,#1000,#1001,#1002,#1003,#1004,#1005,#1006,
    #1007,#1008,#1009,#1010,#1011,#1012,#1013,#1014,#1015,#1016,#1017,
    #1018,#1019,#1020,#1021,#1022,#1023,#1024,#1025,#1026,#1027,#1028,
    #1029,#1030,#1031,#1032,#1033,#1034,#1035,#1036,#1037,#1038,#1039,
    #1040,#1041,#1042,#1043,#1044,#1045,#1046,#1047,#1048,#1049,#1050,
    #1051,#1052,#1053),.UNSPECIFIED.,.F.,.F.,(9,7,7,7,7,7,7,7,7,7,7,7,7,
    7,7,7,7,7,7,7,7,7,9),(0.,5.405539451222E-02,0.119173321694,
    0.173394443025,0.20052530545,0.239790430655,0.28191286907,
    0.313213565746,0.403081047057,0.461196192493,0.551405055951,
    0.610464979518,0.630979926904,0.656059201444,0.686064077358,
    0.707635653812,0.739810076873,0.772372581745,0.793944416455,
    0.823949651588,0.849029226378,0.928616436586,1.),.UNSPECIFIED.);
#898 = CARTESIAN_POINT('',(0.,8.660254037844));
#899 = CARTESIAN_POINT('',(3.59411819758E-02,8.591085200882));
#900 = CARTESIAN_POINT('',(7.214128906091E-02,8.52552200661));
#901 = CARTESIAN_POINT('',(0.108640733127,8.463857179748));
#902 = CARTESIAN_POINT('',(0.145475815919,8.406385601981));
#903 = CARTESIAN_POINT('',(0.182679610627,8.353390751407));
#904 = CARTESIAN_POINT('',(0.220282471849,8.305128918093));
#905 = CARTESIAN_POINT('',(0.258312173954,8.26181119573));
#906 = CARTESIAN_POINT('',(0.343150489938,8.17753188583));
#907 = CARTESIAN_POINT('',(0.390167231886,8.138862841118));
#908 = CARTESIAN_POINT('',(0.437878986956,8.107841060953));
#909 = CARTESIAN_POINT('',(0.486322782475,8.084583261973));
#910 = CARTESIAN_POINT('',(0.535538142288,8.069012977787));
#911 = CARTESIAN_POINT('',(0.585569455176,8.060836142985));
#912 = CARTESIAN_POINT('',(0.636470159233,8.059537215153));
#913 = CARTESIAN_POINT('',(0.731472679038,8.068441415285));
#914 = CARTESIAN_POINT('',(0.775276272334,8.076755201037));
#915 = CARTESIAN_POINT('',(0.819776434302,8.088919864135));
#916 = CARTESIAN_POINT('',(0.865025833723,8.104429037854));
#917 = CARTESIAN_POINT('',(0.911075062526,8.122680561936));
#918 = CARTESIAN_POINT('',(0.957975615954,8.142980545523));
#919 = CARTESIAN_POINT('',(1.005783686287,8.164558247831));
#920 = CARTESIAN_POINT('',(1.078973576953,8.197616790847));
#921 = CARTESIAN_POINT('',(1.103621023151,8.208753470582));
#922 = CARTESIAN_POINT('',(1.128512269378,8.219898031449));
#923 = CARTESIAN_POINT('',(1.153650313937,8.230941281546));
#924 = CARTESIAN_POINT('',(1.179035676755,8.241770636497));
#925 = CARTESIAN_POINT('',(1.204666083336,8.252272134571));
#926 = CARTESIAN_POINT('',(1.23053614872,8.262332451785));
#927 = CARTESIAN_POINT('',(1.294411592512,8.285602037919));
#928 = CARTESIAN_POINT('',(1.332687014453,8.29821389633));
#929 = CARTESIAN_POINT('',(1.371412144172,8.309332332814));
#930 = CARTESIAN_POINT('',(1.410527019023,8.31863420965));
#931 = CARTESIAN_POINT('',(1.449961390948,8.325842818198));
#932 = CARTESIAN_POINT('',(1.489630525357,8.330751848159));
#933 = CARTESIAN_POINT('',(1.529428304741,8.333247918758));
#934 = CARTESIAN_POINT('',(1.611902428922,8.333421519589));
#935 = CARTESIAN_POINT('',(1.654606136355,8.330735318361));
#936 = CARTESIAN_POINT('',(1.697156674165,8.325265184043));
#937 = CARTESIAN_POINT('',(1.73942444432,8.31715607494));
#938 = CARTESIAN_POINT('',(1.781308443482,8.306674692886));
#939 = CARTESIAN_POINT('',(1.822726474456,8.294176946949));
#940 = CARTESIAN_POINT('',(1.863609461495,8.280073979762));
#941 = CARTESIAN_POINT('',(1.933839205506,8.253444428536));
#942 = CARTESIAN_POINT('',(1.963463923456,8.241439020281));
#943 = CARTESIAN_POINT('',(1.992764128659,8.228951397231));
#944 = CARTESIAN_POINT('',(2.021735473772,8.21615679052));
#945 = CARTESIAN_POINT('',(2.050378034045,8.203229140312));
#946 = CARTESIAN_POINT('',(2.078695614699,8.19033701022));
#947 = CARTESIAN_POINT('',(2.106695490381,8.177641072689));
#948 = CARTESIAN_POINT('',(2.213898242068,8.129841068462));
#949 = CARTESIAN_POINT('',(2.290772777829,8.097305206673));
#950 = CARTESIAN_POINT('',(2.365425985628,8.071200604379));
#951 = CARTESIAN_POINT('',(2.438086418886,8.054608395268));
#952 = CARTESIAN_POINT('',(2.508945066774,8.049980429376));
#953 = CARTESIAN_POINT('',(2.578151596299,8.058931013749));
#954 = CARTESIAN_POINT('',(2.645849621983,8.082267900974));
#955 = CARTESIAN_POINT('',(2.755089142149,8.144672997253));
#956 = CARTESIAN_POINT('',(2.797400806081,8.17525783342));
#957 = CARTESIAN_POINT('',(2.839150235426,8.211949177988));
#958 = CARTESIAN_POINT('',(2.880366122095,8.25465058664));
#959 = CARTESIAN_POINT('',(2.921079505484,8.303163786218));
#960 = CARTESIAN_POINT('',(2.961323962399,8.357213507178));
#961 = CARTESIAN_POINT('',(3.001136122313,8.416473380939));
#962 = CARTESIAN_POINT('',(3.101746549862,8.580122019467));
#963 = CARTESIAN_POINT('',(3.161968900275,8.691321271131));
#964 = CARTESIAN_POINT('',(3.221423315116,8.812937033454));
#965 = CARTESIAN_POINT('',(3.280300038923,8.943573173057));
#966 = CARTESIAN_POINT('',(3.338791975133,9.081830791257));
#967 = CARTESIAN_POINT('',(3.397102894521,9.226386513777));
#968 = CARTESIAN_POINT('',(3.455463034332,9.376027002672));
#969 = CARTESIAN_POINT('',(3.552594714223,9.63023947492));
#970 = CARTESIAN_POINT('',(3.591158258263,9.732495900092));
#971 = CARTESIAN_POINT('',(3.629933262203,9.836112292316));
#972 = CARTESIAN_POINT('',(3.668998492675,9.940762952143));
#973 = CARTESIAN_POINT('',(3.708434353579,10.046108001088));
#974 = CARTESIAN_POINT('',(3.748327225344,10.151788819568));
#975 = CARTESIAN_POINT('',(3.788776083389,10.257421752995));
#976 = CARTESIAN_POINT('',(3.844186609327,10.399121166471));
#977 = CARTESIAN_POINT('',(3.858552717022,10.435594300562));
#978 = CARTESIAN_POINT('',(3.873004499349,10.471991287861));
#979 = CARTESIAN_POINT('',(3.887546815407,10.508292861753));
#980 = CARTESIAN_POINT('',(3.902184658065,10.544478625994));
#981 = CARTESIAN_POINT('',(3.91692320912,10.580526991277));
#982 = CARTESIAN_POINT('',(3.931767894454,10.616415111779));
#983 = CARTESIAN_POINT('',(3.965008633843,10.695766174404));
#984 = CARTESIAN_POINT('',(3.983459488506,10.739136734404));
#985 = CARTESIAN_POINT('',(4.002087825377,10.782187110038));
#986 = CARTESIAN_POINT('',(4.020904417949,10.824869268434));
#987 = CARTESIAN_POINT('',(4.039920197212,10.867130310114));
#988 = CARTESIAN_POINT('',(4.059146457849,10.908912243573));
#989 = CARTESIAN_POINT('',(4.078595064436,10.950151759863));
#990 = CARTESIAN_POINT('',(4.121828133567,11.039387693852));
#991 = CARTESIAN_POINT('',(4.145711292179,11.087114772817));
#992 = CARTESIAN_POINT('',(4.169951503355,11.133847526308));
#993 = CARTESIAN_POINT('',(4.194570008927,11.179451706856));
#994 = CARTESIAN_POINT('',(4.219586212665,11.223773270269));
#995 = CARTESIAN_POINT('',(4.245017970267,11.266639108614));
#996 = CARTESIAN_POINT('',(4.27088187934,11.307857783211));
#997 = CARTESIAN_POINT('',(4.316109982668,11.375519345677));
#998 = CARTESIAN_POINT('',(4.335256054615,11.40285622932));
#999 = CARTESIAN_POINT('',(4.354636513702,11.42915264928));
#1000 = CARTESIAN_POINT('',(4.374254065896,11.454322685424));
#1001 = CARTESIAN_POINT('',(4.394109109109,11.478274618584));
#1002 = CARTESIAN_POINT('',(4.414199447666,11.500912792404));
#1003 = CARTESIAN_POINT('',(4.434520006767,11.522139475177));
#1004 = CARTESIAN_POINT('',(4.485702142533,11.571265375821));
#1005 = CARTESIAN_POINT('',(4.516851348496,11.597331668009));
#1006 = CARTESIAN_POINT('',(4.548461415934,11.619704517769));
#1007 = CARTESIAN_POINT('',(4.580472428738,11.638055925502));
#1008 = CARTESIAN_POINT('',(4.612812092731,11.652098940289));
#1009 = CARTESIAN_POINT('',(4.645392429792,11.661611368672));
#1010 = CARTESIAN_POINT('',(4.678104376974,11.666465224453));
#1011 = CARTESIAN_POINT('',(4.743910696793,11.666860987053));
#1012 = CARTESIAN_POINT('',(4.777026425348,11.662289998127));
#1013 = CARTESIAN_POINT('',(4.810013946727,11.65293989282));
#1014 = CARTESIAN_POINT('',(4.842759626933,11.638938420743));
#1015 = CARTESIAN_POINT('',(4.875171792275,11.620513093232));
#1016 = CARTESIAN_POINT('',(4.907175015097,11.597960178699));
#1017 = CARTESIAN_POINT('',(4.938706620463,11.571619741125));
#1018 = CARTESIAN_POINT('',(4.990257954003,11.522139475177));
#1019 = CARTESIAN_POINT('',(5.010578513104,11.500912792404));
#1020 = CARTESIAN_POINT('',(5.03066885166,11.478274618584));
#1021 = CARTESIAN_POINT('',(5.050523894874,11.454322685424));
#1022 = CARTESIAN_POINT('',(5.070141447067,11.42915264928));
#1023 = CARTESIAN_POINT('',(5.089521906155,11.40285622932));
#1024 = CARTESIAN_POINT('',(5.108667978101,11.375519345676));
#1025 = CARTESIAN_POINT('',(5.153896081429,11.30785778321));
#1026 = CARTESIAN_POINT('',(5.179759990502,11.266639108614));
#1027 = CARTESIAN_POINT('',(5.205191748104,11.223773270268));
#1028 = CARTESIAN_POINT('',(5.230207951843,11.179451706856));
#1029 = CARTESIAN_POINT('',(5.254826457414,11.133847526307));
#1030 = CARTESIAN_POINT('',(5.279066668591,11.087114772816));
#1031 = CARTESIAN_POINT('',(5.302949827203,11.039387693851));
#1032 = CARTESIAN_POINT('',(5.346182896333,10.950151759862));
#1033 = CARTESIAN_POINT('',(5.365631502921,10.908912243572));
#1034 = CARTESIAN_POINT('',(5.384857763557,10.867130310113));
#1035 = CARTESIAN_POINT('',(5.40387354282,10.824869268434));
#1036 = CARTESIAN_POINT('',(5.422690135393,10.782187110038));
#1037 = CARTESIAN_POINT('',(5.441318472263,10.739136734404));
#1038 = CARTESIAN_POINT('',(5.459769326927,10.695766174404));
#1039 = CARTESIAN_POINT('',(5.53607635714,10.513608856468));
#1040 = CARTESIAN_POINT('',(5.592384383139,10.372398809571));
#1041 = CARTESIAN_POINT('',(5.647365505763,10.229781964441));
#1042 = CARTESIAN_POINT('',(5.701285142511,10.086844462733));
#1043 = CARTESIAN_POINT('',(5.754365397577,9.944545023989));
#1044 = CARTESIAN_POINT('',(5.806811981727,9.803741841777));
#1045 = CARTESIAN_POINT('',(5.858823098695,9.6652055768));
#1046 = CARTESIAN_POINT('',(5.957067413821,9.408081122033));
#1047 = CARTESIAN_POINT('',(6.003312512477,9.288989721363));
#1048 = CARTESIAN_POINT('',(6.049488342501,9.172941179686));
#1049 = CARTESIAN_POINT('',(6.095713286953,9.060530677852));
#1050 = CARTESIAN_POINT('',(6.142094005663,8.95239109744));
#1051 = CARTESIAN_POINT('',(6.188731959896,8.849184648092));
#1052 = CARTESIAN_POINT('',(6.235728041598,8.75158558804));
#1053 = CARTESIAN_POINT('',(6.28318530718,8.660254037844));
#1054 = ( GEOMETRIC_REPRESENTATION_CONTEXT(2) 
PARAMETRIC_REPRESENTATION_CONTEXT() REPRESENTATION_CONTEXT('2D SPACE',''
  ) );
#1055 = ADVANCED_FACE('',(#1056),#407,.F.);
#1056 = FACE_BOUND('',#1057,.F.);
#1057 = EDGE_LOOP('',(#1058,#1059,#1080,#1081));
#1058 = ORIENTED_EDGE('',*,*,#85,.T.);
#1059 = ORIENTED_EDGE('',*,*,#1060,.F.);
#1060 = EDGE_CURVE('',#575,#86,#1061,.T.);
#1061 = SEAM_CURVE('',#1062,(#1066,#1073),.PCURVE_S1.);
#1062 = LINE('',#1063,#1064);
#1063 = CARTESIAN_POINT('',(5.,30.,8.660254037844));
#1064 = VECTOR('',#1065,1.);
#1065 = DIRECTION('',(0.,0.,-1.));
#1066 = PCURVE('',#407,#1067);
#1067 = DEFINITIONAL_REPRESENTATION('',(#1068),#1072);
#1068 = LINE('',#1069,#1070);
#1069 = CARTESIAN_POINT('',(6.28318530718,8.660254037844));
#1070 = VECTOR('',#1071,1.);
#1071 = DIRECTION('',(0.,-1.));
#1072 = ( GEOMETRIC_REPRESENTATION_CONTEXT(2) 
PARAMETRIC_REPRESENTATION_CONTEXT() REPRESENTATION_CONTEXT('2D SPACE',''
  ) );
#1073 = PCURVE('',#407,#1074);
#1074 = DEFINITIONAL_REPRESENTATION('',(#1075),#1079);
#1075 = LINE('',#1076,#1077);
#1076 = CARTESIAN_POINT('',(0.,8.660254037844));
#1077 = VECTOR('',#1078,1.);
#1078 = DIRECTION('',(0.,-1.));
#1079 = ( GEOMETRIC_REPRESENTATION_CONTEXT(2) 
PARAMETRIC_REPRESENTATION_CONTEXT() REPRESENTATION_CONTEXT('2D SPACE',''
  ) );
#1080 = ORIENTED_EDGE('',*,*,#574,.F.);
#1081 = ORIENTED_EDGE('',*,*,#1060,.T.);
#1082 = ( GEOMETRIC_REPRESENTATION_CONTEXT(3) 
GLOBAL_UNCERTAINTY_ASSIGNED_CONTEXT((#1086)) 
GLOBAL_UNIT_ASSIGNED_CONTEXT((#1083,#1084,#1085)) REPRESENTATION_CONTEXT
('Context #1','3D Context with UNIT and UNCERTAINTY') );
#1083 = ( LENGTH_UNIT() NAMED_UNIT(*) SI_UNIT(.MILLI.,.METRE.) );
#1084 = ( NAMED_UNIT(*) PLANE_ANGLE_UNIT() SI_UNIT($,.RADIAN.) );
#1085 = ( NAMED_UNIT(*) SI_UNIT($,.STERADIAN.) SOLID_ANGLE_UNIT() );
#1086 = UNCERTAINTY_MEASURE_WITH_UNIT(LENGTH_MEASURE(1.E-07),#1083,
  'distance_accuracy_value','confusion accuracy');
#1087 = PRODUCT_RELATED_PRODUCT_CATEGORY('part',$,(#7));
ENDSEC;
END-ISO-10303-21;
