ISO-10303-21;
HEADER;
FILE_DESCRIPTION(('Open CASCADE Model'),'2;1');
FILE_NAME('Open CASCADE Shape Model','2026-08-07T02:34:16',('Author'),(
    'Open CASCADE'),'Open CASCADE STEP processor 7.7','Open CASCADE 7.7'
  ,'Unknown');
FILE_SCHEMA(('AUTOMOTIVE_DESIGN { 1 0 10303 214 1 1 1 1 }'));
ENDSEC;
DATA;
#1 = APPLICATION_PROTOCOL_DEFINITION('international standard',
  'automotive_design',2000,#2);
#2 = APPLICATION_CONTEXT(
  'core data for automotive mechanical design processes');
#3 = SHAPE_DEFINITION_REPRESENTATION(#4,#10);
#4 = PRODUCT_DEFINITION_SHAPE('','',#5);
#5 = PRODUCT_DEFINITION('design','',#6,#9);
#6 = PRODUCT_DEFINITION_FORMATION('','',#7);
#7 = PRODUCT('Open CASCADE STEP translator 7.7 24',
  'Open CASCADE STEP translator 7.7 24','',(#8));
#8 = PRODUCT_CONTEXT('',#2,'mechanical');
#9 = PRODUCT_DEFINITION_CONTEXT('part definition',#2,'design');
#10 = ADVANCED_BREP_SHAPE_REPRESENTATION('',(#11,#15),#324);
#11 = AXIS2_PLACEMENT_3D('',#12,#13,#14);
#12 = CARTESIAN_POINT('',(0.,0.,0.));
#13 = DIRECTION('',(0.,0.,1.));
#14 = DIRECTION('',(1.,0.,-0.));
#15 = MANIFOLD_SOLID_BREP('',#16);
#16 = CLOSED_SHELL('',(#17,#197,#232,#297));
#17 = ADVANCED_FACE('',(#18),#31,.T.);
#18 = FACE_BOUND('',#19,.F.);
#19 = EDGE_LOOP('',(#20,#54,#77,#140,#196));
#20 = ORIENTED_EDGE('',*,*,#21,.F.);
#21 = EDGE_CURVE('',#22,#22,#24,.T.);
#22 = VERTEX_POINT('',#23);
#23 = CARTESIAN_POINT('',(15.,0.,0.));
#24 = SURFACE_CURVE('',#25,(#30,#42),.PCURVE_S1.);
#25 = CIRCLE('',#26,15.);
#26 = AXIS2_PLACEMENT_3D('',#27,#28,#29);
#27 = CARTESIAN_POINT('',(0.,0.,0.));
#28 = DIRECTION('',(0.,0.,1.));
#29 = DIRECTION('',(1.,0.,0.));
#30 = PCURVE('',#31,#36);
#31 = CYLINDRICAL_SURFACE('',#32,15.);
#32 = AXIS2_PLACEMENT_3D('',#33,#34,#35);
#33 = CARTESIAN_POINT('',(0.,0.,0.));
#34 = DIRECTION('',(-0.,-0.,-1.));
#35 = DIRECTION('',(1.,0.,0.));
#36 = DEFINITIONAL_REPRESENTATION('',(#37),#41);
#37 = LINE('',#38,#39);
#38 = CARTESIAN_POINT('',(-0.,0.));
#39 = VECTOR('',#40,1.);
#40 = DIRECTION('',(-1.,0.));
#41 = ( GEOMETRIC_REPRESENTATION_CONTEXT(2) 
PARAMETRIC_REPRESENTATION_CONTEXT() REPRESENTATION_CONTEXT('2D SPACE',''
  ) );
#42 = PCURVE('',#43,#48);
#43 = PLANE('',#44);
#44 = AXIS2_PLACEMENT_3D('',#45,#46,#47);
#45 = CARTESIAN_POINT('',(-7.29301404021E-16,1.169780044473E-16,0.));
#46 = DIRECTION('',(0.,0.,1.));
#47 = DIRECTION('',(1.,0.,-0.));
#48 = DEFINITIONAL_REPRESENTATION('',(#49),#53);
#49 = CIRCLE('',#50,15.);
#50 = AXIS2_PLACEMENT_2D('',#51,#52);
#51 = CARTESIAN_POINT('',(7.29301404021E-16,-1.169780044473E-16));
#52 = DIRECTION('',(1.,0.));
#53 = ( GEOMETRIC_REPRESENTATION_CONTEXT(2) 
PARAMETRIC_REPRESENTATION_CONTEXT() REPRESENTATION_CONTEXT('2D SPACE',''
  ) );
#54 = ORIENTED_EDGE('',*,*,#55,.T.);
#55 = EDGE_CURVE('',#22,#56,#58,.T.);
#56 = VERTEX_POINT('',#57);
#57 = CARTESIAN_POINT('',(15.,0.,20.));
#58 = SEAM_CURVE('',#59,(#63,#70),.PCURVE_S1.);
#59 = LINE('',#60,#61);
#60 = CARTESIAN_POINT('',(15.,0.,0.));
#61 = VECTOR('',#62,1.);
#62 = DIRECTION('',(0.,0.,1.));
#63 = PCURVE('',#31,#64);
#64 = DEFINITIONAL_REPRESENTATION('',(#65),#69);
#65 = LINE('',#66,#67);
#66 = CARTESIAN_POINT('',(-6.28318530718,0.));
#67 = VECTOR('',#68,1.);
#68 = DIRECTION('',(-0.,-1.));
#69 = ( GEOMETRIC_REPRESENTATION_CONTEXT(2) 
PARAMETRIC_REPRESENTATION_CONTEXT() REPRESENTATION_CONTEXT('2D SPACE',''
  ) );
#70 = PCURVE('',#31,#71);
#71 = DEFINITIONAL_REPRESENTATION('',(#72),#76);
#72 = LINE('',#73,#74);
#73 = CARTESIAN_POINT('',(-0.,0.));
#74 = VECTOR('',#75,1.);
#75 = DIRECTION('',(-0.,-1.));
#76 = ( GEOMETRIC_REPRESENTATION_CONTEXT(2) 
PARAMETRIC_REPRESENTATION_CONTEXT() REPRESENTATION_CONTEXT('2D SPACE',''
  ) );
#77 = ORIENTED_EDGE('',*,*,#78,.T.);
#78 = EDGE_CURVE('',#56,#79,#81,.T.);
#79 = VERTEX_POINT('',#80);
#80 = CARTESIAN_POINT('',(-15.,-4.076937229225E-08,50.));
#81 = SURFACE_CURVE('',#82,(#87,#128),.PCURVE_S1.);
#82 = ELLIPSE('',#83,21.213203435596,15.);
#83 = AXIS2_PLACEMENT_3D('',#84,#85,#86);
#84 = CARTESIAN_POINT('',(0.,0.,35.));
#85 = DIRECTION('',(0.707106781187,0.,0.707106781187));
#86 = DIRECTION('',(0.707106781187,0.,-0.707106781187));
#87 = PCURVE('',#31,#88);
#88 = DEFINITIONAL_REPRESENTATION('',(#89),#127);
#89 = B_SPLINE_CURVE_WITH_KNOTS('',8,(#90,#91,#92,#93,#94,#95,#96,#97,
    #98,#99,#100,#101,#102,#103,#104,#105,#106,#107,#108,#109,#110,#111,
    #112,#113,#114,#115,#116,#117,#118,#119,#120,#121,#122,#123,#124,
    #125,#126),.UNSPECIFIED.,.F.,.F.,(9,7,7,7,7,9),(0.,1.570796326795,
    2.748893571891,4.516039439535,5.399612373357,6.28318530718),
  .UNSPECIFIED.);
#90 = CARTESIAN_POINT('',(0.,-20.));
#91 = CARTESIAN_POINT('',(-0.196349540849,-20.));
#92 = CARTESIAN_POINT('',(-0.392699081698,-20.66091163977));
#93 = CARTESIAN_POINT('',(-0.589048622548,-21.982729305));
#94 = CARTESIAN_POINT('',(-0.785398163395,-23.91111874116));
#95 = CARTESIAN_POINT('',(-0.981747704246,-26.3373010819));
#96 = CARTESIAN_POINT('',(-1.178097245096,-29.10951307518));
#97 = CARTESIAN_POINT('',(-1.374446785946,-32.05475688726));
#98 = CARTESIAN_POINT('',(-1.718058482432,-37.20893233455));
#99 = CARTESIAN_POINT('',(-1.865320638069,-39.41786386069));
#100 = CARTESIAN_POINT('',(-2.012582793706,-41.55380454412));
#101 = CARTESIAN_POINT('',(-2.159844949343,-43.54374405304));
#102 = CARTESIAN_POINT('',(-2.30710710498,-45.31977419317));
#103 = CARTESIAN_POINT('',(-2.454369260617,-46.82408473589));
#104 = CARTESIAN_POINT('',(-2.601631416254,-48.01287118001));
#105 = CARTESIAN_POINT('',(-2.969786805347,-50.12617569914));
#106 = CARTESIAN_POINT('',(-3.190680038803,-50.62136392462));
#107 = CARTESIAN_POINT('',(-3.411573272253,-50.24948988264));
#108 = CARTESIAN_POINT('',(-3.632466505718,-48.99667877997));
#109 = CARTESIAN_POINT('',(-3.853359739165,-46.94435869762));
#110 = CARTESIAN_POINT('',(-4.074252972624,-44.26263487554));
#111 = CARTESIAN_POINT('',(-4.29514620608,-41.17608730895));
#112 = CARTESIAN_POINT('',(-4.626486056263,-36.30148859088));
#113 = CARTESIAN_POINT('',(-4.73693267299,-34.63582580384));
#114 = CARTESIAN_POINT('',(-4.84737928972,-32.95956946882));
#115 = CARTESIAN_POINT('',(-4.957825906446,-31.30398502071));
#116 = CARTESIAN_POINT('',(-5.068272523173,-29.70021934699));
#117 = CARTESIAN_POINT('',(-5.178719139903,-28.17805448215));
#118 = CARTESIAN_POINT('',(-5.28916575663,-26.76474657658));
#119 = CARTESIAN_POINT('',(-5.510058990085,-24.2034548985));
#120 = CARTESIAN_POINT('',(-5.620505606812,-23.05547122244));
#121 = CARTESIAN_POINT('',(-5.730952223543,-22.06395356695));
#122 = CARTESIAN_POINT('',(-5.841398840269,-21.24925716233));
#123 = CARTESIAN_POINT('',(-5.951845456995,-20.62734856966));
#124 = CARTESIAN_POINT('',(-6.062292073725,-20.20911651819));
#125 = CARTESIAN_POINT('',(-6.172738690452,-20.));
#126 = CARTESIAN_POINT('',(-6.28318530718,-20.));
#127 = ( GEOMETRIC_REPRESENTATION_CONTEXT(2) 
PARAMETRIC_REPRESENTATION_CONTEXT() REPRESENTATION_CONTEXT('2D SPACE',''
  ) );
#128 = PCURVE('',#129,#134);
#129 = PLANE('',#130);
#130 = AXIS2_PLACEMENT_3D('',#131,#132,#133);
#131 = CARTESIAN_POINT('',(-15.,0.,50.));
#132 = DIRECTION('',(0.707106781187,0.,0.707106781187));
#133 = DIRECTION('',(0.707106781187,0.,-0.707106781187));
#134 = DEFINITIONAL_REPRESENTATION('',(#135),#139);
#135 = ELLIPSE('',#136,21.213203435596,15.);
#136 = AXIS2_PLACEMENT_2D('',#137,#138);
#137 = CARTESIAN_POINT('',(21.213203435596,0.));
#138 = DIRECTION('',(1.,0.));
#139 = ( GEOMETRIC_REPRESENTATION_CONTEXT(2) 
PARAMETRIC_REPRESENTATION_CONTEXT() REPRESENTATION_CONTEXT('2D SPACE',''
  ) );
#140 = ORIENTED_EDGE('',*,*,#141,.T.);
#141 = EDGE_CURVE('',#79,#56,#142,.T.);
#142 = SURFACE_CURVE('',#143,(#148,#189),.PCURVE_S1.);
#143 = ELLIPSE('',#144,21.213203435596,15.);
#144 = AXIS2_PLACEMENT_3D('',#145,#146,#147);
#145 = CARTESIAN_POINT('',(0.,0.,35.));
#146 = DIRECTION('',(0.707106781187,0.,0.707106781187));
#147 = DIRECTION('',(0.707106781187,0.,-0.707106781187));
#148 = PCURVE('',#31,#149);
#149 = DEFINITIONAL_REPRESENTATION('',(#150),#188);
#150 = B_SPLINE_CURVE_WITH_KNOTS('',8,(#151,#152,#153,#154,#155,#156,
    #157,#158,#159,#160,#161,#162,#163,#164,#165,#166,#167,#168,#169,
    #170,#171,#172,#173,#174,#175,#176,#177,#178,#179,#180,#181,#182,
    #183,#184,#185,#186,#187),.UNSPECIFIED.,.F.,.F.,(9,7,7,7,7,9),(0.,
    1.570796326795,2.748893571891,4.516039439535,5.399612373357,
    6.28318530718),.UNSPECIFIED.);
#151 = CARTESIAN_POINT('',(0.,-20.));
#152 = CARTESIAN_POINT('',(-0.196349540849,-20.));
#153 = CARTESIAN_POINT('',(-0.392699081698,-20.66091163977));
#154 = CARTESIAN_POINT('',(-0.589048622548,-21.982729305));
#155 = CARTESIAN_POINT('',(-0.785398163395,-23.91111874116));
#156 = CARTESIAN_POINT('',(-0.981747704246,-26.3373010819));
#157 = CARTESIAN_POINT('',(-1.178097245096,-29.10951307518));
#158 = CARTESIAN_POINT('',(-1.374446785946,-32.05475688726));
#159 = CARTESIAN_POINT('',(-1.718058482432,-37.20893233455));
#160 = CARTESIAN_POINT('',(-1.865320638069,-39.41786386069));
#161 = CARTESIAN_POINT('',(-2.012582793706,-41.55380454412));
#162 = CARTESIAN_POINT('',(-2.159844949343,-43.54374405304));
#163 = CARTESIAN_POINT('',(-2.30710710498,-45.31977419317));
#164 = CARTESIAN_POINT('',(-2.454369260617,-46.82408473589));
#165 = CARTESIAN_POINT('',(-2.601631416254,-48.01287118001));
#166 = CARTESIAN_POINT('',(-2.969786805347,-50.12617569914));
#167 = CARTESIAN_POINT('',(-3.190680038803,-50.62136392462));
#168 = CARTESIAN_POINT('',(-3.411573272253,-50.24948988264));
#169 = CARTESIAN_POINT('',(-3.632466505718,-48.99667877997));
#170 = CARTESIAN_POINT('',(-3.853359739165,-46.94435869762));
#171 = CARTESIAN_POINT('',(-4.074252972624,-44.26263487554));
#172 = CARTESIAN_POINT('',(-4.29514620608,-41.17608730895));
#173 = CARTESIAN_POINT('',(-4.626486056263,-36.30148859088));
#174 = CARTESIAN_POINT('',(-4.73693267299,-34.63582580384));
#175 = CARTESIAN_POINT('',(-4.84737928972,-32.95956946882));
#176 = CARTESIAN_POINT('',(-4.957825906446,-31.30398502071));
#177 = CARTESIAN_POINT('',(-5.068272523173,-29.70021934699));
#178 = CARTESIAN_POINT('',(-5.178719139903,-28.17805448215));
#179 = CARTESIAN_POINT('',(-5.28916575663,-26.76474657658));
#180 = CARTESIAN_POINT('',(-5.510058990085,-24.2034548985));
#181 = CARTESIAN_POINT('',(-5.620505606812,-23.05547122244));
#182 = CARTESIAN_POINT('',(-5.730952223543,-22.06395356695));
#183 = CARTESIAN_POINT('',(-5.841398840269,-21.24925716233));
#184 = CARTESIAN_POINT('',(-5.951845456995,-20.62734856966));
#185 = CARTESIAN_POINT('',(-6.062292073725,-20.20911651819));
#186 = CARTESIAN_POINT('',(-6.172738690452,-20.));
#187 = CARTESIAN_POINT('',(-6.28318530718,-20.));
#188 = ( GEOMETRIC_REPRESENTATION_CONTEXT(2) 
PARAMETRIC_REPRESENTATION_CONTEXT() REPRESENTATION_CONTEXT('2D SPACE',''
  ) );
#189 = PCURVE('',#129,#190);
#190 = DEFINITIONAL_REPRESENTATION('',(#191),#195);
#191 = ELLIPSE('',#192,21.213203435596,15.);
#192 = AXIS2_PLACEMENT_2D('',#193,#194);
#193 = CARTESIAN_POINT('',(21.213203435596,0.));
#194 = DIRECTION('',(1.,0.));
#195 = ( GEOMETRIC_REPRESENTATION_CONTEXT(2) 
PARAMETRIC_REPRESENTATION_CONTEXT() REPRESENTATION_CONTEXT('2D SPACE',''
  ) );
#196 = ORIENTED_EDGE('',*,*,#55,.F.);
#197 = ADVANCED_FACE('',(#198,#201),#43,.F.);
#198 = FACE_BOUND('',#199,.F.);
#199 = EDGE_LOOP('',(#200));
#200 = ORIENTED_EDGE('',*,*,#21,.T.);
#201 = FACE_BOUND('',#202,.F.);
#202 = EDGE_LOOP('',(#203));
#203 = ORIENTED_EDGE('',*,*,#204,.F.);
#204 = EDGE_CURVE('',#205,#205,#207,.T.);
#205 = VERTEX_POINT('',#206);
#206 = CARTESIAN_POINT('',(12.5,-4.736951571734E-16,0.));
#207 = SURFACE_CURVE('',#208,(#213,#220),.PCURVE_S1.);
#208 = CIRCLE('',#209,12.5);
#209 = AXIS2_PLACEMENT_3D('',#210,#211,#212);
#210 = CARTESIAN_POINT('',(7.010688326166E-14,-4.736951571734E-16,0.));
#211 = DIRECTION('',(0.,0.,1.));
#212 = DIRECTION('',(1.,0.,0.));
#213 = PCURVE('',#43,#214);
#214 = DEFINITIONAL_REPRESENTATION('',(#215),#219);
#215 = CIRCLE('',#216,12.5);
#216 = AXIS2_PLACEMENT_2D('',#217,#218);
#217 = CARTESIAN_POINT('',(7.083618466568E-14,-5.906731616207E-16));
#218 = DIRECTION('',(1.,0.));
#219 = ( GEOMETRIC_REPRESENTATION_CONTEXT(2) 
PARAMETRIC_REPRESENTATION_CONTEXT() REPRESENTATION_CONTEXT('2D SPACE',''
  ) );
#220 = PCURVE('',#221,#226);
#221 = CYLINDRICAL_SURFACE('',#222,12.5);
#222 = AXIS2_PLACEMENT_3D('',#223,#224,#225);
#223 = CARTESIAN_POINT('',(7.010688326166E-14,-4.736951571734E-16,0.));
#224 = DIRECTION('',(-0.,-0.,-1.));
#225 = DIRECTION('',(1.,0.,0.));
#226 = DEFINITIONAL_REPRESENTATION('',(#227),#231);
#227 = LINE('',#228,#229);
#228 = CARTESIAN_POINT('',(-0.,0.));
#229 = VECTOR('',#230,1.);
#230 = DIRECTION('',(-1.,0.));
#231 = ( GEOMETRIC_REPRESENTATION_CONTEXT(2) 
PARAMETRIC_REPRESENTATION_CONTEXT() REPRESENTATION_CONTEXT('2D SPACE',''
  ) );
#232 = ADVANCED_FACE('',(#233,#237),#129,.T.);
#233 = FACE_BOUND('',#234,.T.);
#234 = EDGE_LOOP('',(#235,#236));
#235 = ORIENTED_EDGE('',*,*,#78,.T.);
#236 = ORIENTED_EDGE('',*,*,#141,.T.);
#237 = FACE_BOUND('',#238,.T.);
#238 = EDGE_LOOP('',(#239));
#239 = ORIENTED_EDGE('',*,*,#240,.F.);
#240 = EDGE_CURVE('',#241,#241,#243,.T.);
#241 = VERTEX_POINT('',#242);
#242 = CARTESIAN_POINT('',(12.5,-4.736951571734E-16,22.5));
#243 = SURFACE_CURVE('',#244,(#249,#256),.PCURVE_S1.);
#244 = ELLIPSE('',#245,17.677669529664,12.5);
#245 = AXIS2_PLACEMENT_3D('',#246,#247,#248);
#246 = CARTESIAN_POINT('',(7.010688326166E-14,-4.736951571734E-16,35.));
#247 = DIRECTION('',(0.707106781187,0.,0.707106781187));
#248 = DIRECTION('',(0.707106781187,0.,-0.707106781187));
#249 = PCURVE('',#129,#250);
#250 = DEFINITIONAL_REPRESENTATION('',(#251),#255);
#251 = ELLIPSE('',#252,17.677669529664,12.5);
#252 = AXIS2_PLACEMENT_2D('',#253,#254);
#253 = CARTESIAN_POINT('',(21.213203435597,-4.736951571734E-16));
#254 = DIRECTION('',(1.,0.));
#255 = ( GEOMETRIC_REPRESENTATION_CONTEXT(2) 
PARAMETRIC_REPRESENTATION_CONTEXT() REPRESENTATION_CONTEXT('2D SPACE',''
  ) );
#256 = PCURVE('',#221,#257);
#257 = DEFINITIONAL_REPRESENTATION('',(#258),#296);
#258 = B_SPLINE_CURVE_WITH_KNOTS('',8,(#259,#260,#261,#262,#263,#264,
    #265,#266,#267,#268,#269,#270,#271,#272,#273,#274,#275,#276,#277,
    #278,#279,#280,#281,#282,#283,#284,#285,#286,#287,#288,#289,#290,
    #291,#292,#293,#294,#295),.UNSPECIFIED.,.F.,.F.,(9,7,7,7,7,9),(0.,
    1.570796326795,2.748893571891,4.516039439535,5.399612373357,
    6.28318530718),.UNSPECIFIED.);
#259 = CARTESIAN_POINT('',(0.,-22.5));
#260 = CARTESIAN_POINT('',(-0.196349540849,-22.5));
#261 = CARTESIAN_POINT('',(-0.392699081698,-23.05075969982));
#262 = CARTESIAN_POINT('',(-0.589048622548,-24.15227442071));
#263 = CARTESIAN_POINT('',(-0.785398163395,-25.75926561774));
#264 = CARTESIAN_POINT('',(-0.981747704246,-27.78108423482));
#265 = CARTESIAN_POINT('',(-1.178097245096,-30.09126089602));
#266 = CARTESIAN_POINT('',(-1.374446785946,-32.54563073938));
#267 = CARTESIAN_POINT('',(-1.718058482432,-36.84077694546));
#268 = CARTESIAN_POINT('',(-1.865320638069,-38.68155321724));
#269 = CARTESIAN_POINT('',(-2.012582793706,-40.46150378677));
#270 = CARTESIAN_POINT('',(-2.159844949343,-42.11978671087));
#271 = CARTESIAN_POINT('',(-2.30710710498,-43.59981182764));
#272 = CARTESIAN_POINT('',(-2.454369260617,-44.85340394657));
#273 = CARTESIAN_POINT('',(-2.601631416254,-45.84405931668));
#274 = CARTESIAN_POINT('',(-2.969786805347,-47.60514641595));
#275 = CARTESIAN_POINT('',(-3.190680038803,-48.0178032705));
#276 = CARTESIAN_POINT('',(-3.411573272253,-47.70790823543));
#277 = CARTESIAN_POINT('',(-3.632466505718,-46.66389898309));
#278 = CARTESIAN_POINT('',(-3.853359739165,-44.9536322481));
#279 = CARTESIAN_POINT('',(-4.074252972624,-42.71886239625));
#280 = CARTESIAN_POINT('',(-4.29514620608,-40.14673942412));
#281 = CARTESIAN_POINT('',(-4.626486056263,-36.08457382574));
#282 = CARTESIAN_POINT('',(-4.73693267299,-34.6965215032));
#283 = CARTESIAN_POINT('',(-4.84737928972,-33.29964122402));
#284 = CARTESIAN_POINT('',(-4.957825906446,-31.91998751725));
#285 = CARTESIAN_POINT('',(-5.068272523173,-30.58351612248));
#286 = CARTESIAN_POINT('',(-5.178719139903,-29.31504540179));
#287 = CARTESIAN_POINT('',(-5.28916575663,-28.13728881381));
#288 = CARTESIAN_POINT('',(-5.510058990085,-26.00287908209));
#289 = CARTESIAN_POINT('',(-5.620505606812,-25.0462260187));
#290 = CARTESIAN_POINT('',(-5.730952223543,-24.21996130579));
#291 = CARTESIAN_POINT('',(-5.841398840269,-23.54104763527));
#292 = CARTESIAN_POINT('',(-5.951845456995,-23.02279047471));
#293 = CARTESIAN_POINT('',(-6.062292073725,-22.67426376516));
#294 = CARTESIAN_POINT('',(-6.172738690452,-22.5));
#295 = CARTESIAN_POINT('',(-6.28318530718,-22.5));
#296 = ( GEOMETRIC_REPRESENTATION_CONTEXT(2) 
PARAMETRIC_REPRESENTATION_CONTEXT() REPRESENTATION_CONTEXT('2D SPACE',''
  ) );
#297 = ADVANCED_FACE('',(#298),#221,.F.);
#298 = FACE_BOUND('',#299,.T.);
#299 = EDGE_LOOP('',(#300,#301,#322,#323));
#300 = ORIENTED_EDGE('',*,*,#204,.F.);
#301 = ORIENTED_EDGE('',*,*,#302,.T.);
#302 = EDGE_CURVE('',#205,#241,#303,.T.);
#303 = SEAM_CURVE('',#304,(#308,#315),.PCURVE_S1.);
#304 = LINE('',#305,#306);
#305 = CARTESIAN_POINT('',(12.5,-4.736951571734E-16,0.));
#306 = VECTOR('',#307,1.);
#307 = DIRECTION('',(0.,0.,1.));
#308 = PCURVE('',#221,#309);
#309 = DEFINITIONAL_REPRESENTATION('',(#310),#314);
#310 = LINE('',#311,#312);
#311 = CARTESIAN_POINT('',(-6.28318530718,0.));
#312 = VECTOR('',#313,1.);
#313 = DIRECTION('',(-0.,-1.));
#314 = ( GEOMETRIC_REPRESENTATION_CONTEXT(2) 
PARAMETRIC_REPRESENTATION_CONTEXT() REPRESENTATION_CONTEXT('2D SPACE',''
  ) );
#315 = PCURVE('',#221,#316);
#316 = DEFINITIONAL_REPRESENTATION('',(#317),#321);
#317 = LINE('',#318,#319);
#318 = CARTESIAN_POINT('',(-0.,0.));
#319 = VECTOR('',#320,1.);
#320 = DIRECTION('',(-0.,-1.));
#321 = ( GEOMETRIC_REPRESENTATION_CONTEXT(2) 
PARAMETRIC_REPRESENTATION_CONTEXT() REPRESENTATION_CONTEXT('2D SPACE',''
  ) );
#322 = ORIENTED_EDGE('',*,*,#240,.T.);
#323 = ORIENTED_EDGE('',*,*,#302,.F.);
#324 = ( GEOMETRIC_REPRESENTATION_CONTEXT(3) 
GLOBAL_UNCERTAINTY_ASSIGNED_CONTEXT((#328)) GLOBAL_UNIT_ASSIGNED_CONTEXT
((#325,#326,#327)) REPRESENTATION_CONTEXT('Context #1',
  '3D Context with UNIT and UNCERTAINTY') );
#325 = ( LENGTH_UNIT() NAMED_UNIT(*) SI_UNIT(.MILLI.,.METRE.) );
#326 = ( NAMED_UNIT(*) PLANE_ANGLE_UNIT() SI_UNIT($,.RADIAN.) );
#327 = ( NAMED_UNIT(*) SI_UNIT($,.STERADIAN.) SOLID_ANGLE_UNIT() );
#328 = UNCERTAINTY_MEASURE_WITH_UNIT(LENGTH_MEASURE(1.E-07),#325,
  'distance_accuracy_value','confusion accuracy');
#329 = PRODUCT_RELATED_PRODUCT_CATEGORY('part',$,(#7));
ENDSEC;
END-ISO-10303-21;
