ISO-10303-21;
HEADER;
FILE_DESCRIPTION(('Open CASCADE Model'),'2;1');
FILE_NAME('Open CASCADE Shape Model','2026-08-07T02:34:16',('Author'),(
    'Open CASCADE'),'Open CASCADE STEP processor 7.7','Open CASCADE 7.7'
  ,'Unknown');
FILE_SCHEMA(('AUTOMOTIVE_DESIGN { 1 0 10303 214 1 1 1 1 }'));
ENDSEC;
DATA;
#1 = APPLICATION_PROTOCOL_DEFINITION('international standard',
  'automotive_design',2000,#2);
#2 = APPLICATION_CONTEXT(
  'core data for automotive mechanical design processes');
#3 = SHAPE_DEFINITION_REPRESENTATION(#4,#10);
#4 = PRODUCT_DEFINITION_SHAPE('','',#5);
#5 = PRODUCT_DEFINITION('design','',#6,#9);
#6 = PRODUCT_DEFINITION_FORMATION('','',#7);
#7 = PRODUCT('Open CASCADE STEP translator 7.7 6',
  'Open CASCADE STEP translator 7.7 6','',(#8));
#8 = PRODUCT_CONTEXT('',#2,'mechanical');
#9 = PRODUCT_DEFINITION_CONTEXT('part definition',#2,'design');
#10 = ADVANCED_BREP_SHAPE_REPRESENTATION('',(#11,#15),#755);
#11 = AXIS2_PLACEMENT_3D('',#12,#13,#14);
#12 = CARTESIAN_POINT('',(0.,0.,0.));
#13 = DIRECTION('',(0.,0.,1.));
#14 = DIRECTION('',(1.,0.,-0.));
#15 = MANIFOLD_SOLID_BREP('',#16);
#16 = CLOSED_SHELL('',(#17,#209,#352,#427,#502,#619,#745));
#17 = ADVANCED_FACE('',(#18,#137),#32,.F.);
#18 = FACE_BOUND('',#19,.F.);
#19 = EDGE_LOOP('',(#20,#55,#83,#111));
#20 = ORIENTED_EDGE('',*,*,#21,.T.);
#21 = EDGE_CURVE('',#22,#24,#26,.T.);
#22 = VERTEX_POINT('',#23);
#23 = CARTESIAN_POINT('',(-30.,-30.,0.));
#24 = VERTEX_POINT('',#25);
#25 = CARTESIAN_POINT('',(-30.,-30.,60.));
#26 = SURFACE_CURVE('',#27,(#31,#43),.PCURVE_S1.);
#27 = LINE('',#28,#29);
#28 = CARTESIAN_POINT('',(-30.,-30.,0.));
#29 = VECTOR('',#30,1.);
#30 = DIRECTION('',(0.,0.,1.));
#31 = PCURVE('',#32,#37);
#32 = PLANE('',#33);
#33 = AXIS2_PLACEMENT_3D('',#34,#35,#36);
#34 = CARTESIAN_POINT('',(-30.,-30.,0.));
#35 = DIRECTION('',(0.,1.,0.));
#36 = DIRECTION('',(1.,0.,0.));
#37 = DEFINITIONAL_REPRESENTATION('',(#38),#42);
#38 = LINE('',#39,#40);
#39 = CARTESIAN_POINT('',(0.,0.));
#40 = VECTOR('',#41,1.);
#41 = DIRECTION('',(0.,-1.));
#42 = ( GEOMETRIC_REPRESENTATION_CONTEXT(2) 
PARAMETRIC_REPRESENTATION_CONTEXT() REPRESENTATION_CONTEXT('2D SPACE',''
  ) );
#43 = PCURVE('',#44,#49);
#44 = PLANE('',#45);
#45 = AXIS2_PLACEMENT_3D('',#46,#47,#48);
#46 = CARTESIAN_POINT('',(-30.,30.,0.));
#47 = DIRECTION('',(1.,0.,-0.));
#48 = DIRECTION('',(0.,-1.,0.));
#49 = DEFINITIONAL_REPRESENTATION('',(#50),#54);
#50 = LINE('',#51,#52);
#51 = CARTESIAN_POINT('',(60.,0.));
#52 = VECTOR('',#53,1.);
#53 = DIRECTION('',(0.,-1.));
#54 = ( GEOMETRIC_REPRESENTATION_CONTEXT(2) 
PARAMETRIC_REPRESENTATION_CONTEXT() REPRESENTATION_CONTEXT('2D SPACE',''
  ) );
#55 = ORIENTED_EDGE('',*,*,#56,.T.);
#56 = EDGE_CURVE('',#24,#57,#59,.T.);
#57 = VERTEX_POINT('',#58);
#58 = CARTESIAN_POINT('',(30.,-30.,60.));
#59 = SURFACE_CURVE('',#60,(#64,#71),.PCURVE_S1.);
#60 = LINE('',#61,#62);
#61 = CARTESIAN_POINT('',(-30.,-30.,60.));
#62 = VECTOR('',#63,1.);
#63 = DIRECTION('',(1.,0.,0.));
#64 = PCURVE('',#32,#65);
#65 = DEFINITIONAL_REPRESENTATION('',(#66),#70);
#66 = LINE('',#67,#68);
#67 = CARTESIAN_POINT('',(0.,-60.));
#68 = VECTOR('',#69,1.);
#69 = DIRECTION('',(1.,0.));
#70 = ( GEOMETRIC_REPRESENTATION_CONTEXT(2) 
PARAMETRIC_REPRESENTATION_CONTEXT() REPRESENTATION_CONTEXT('2D SPACE',''
  ) );
#71 = PCURVE('',#72,#77);
#72 = PLANE('',#73);
#73 = AXIS2_PLACEMENT_3D('',#74,#75,#76);
#74 = CARTESIAN_POINT('',(0.,0.,60.));
#75 = DIRECTION('',(0.,0.,1.));
#76 = DIRECTION('',(1.,0.,-0.));
#77 = DEFINITIONAL_REPRESENTATION('',(#78),#82);
#78 = LINE('',#79,#80);
#79 = CARTESIAN_POINT('',(-30.,-30.));
#80 = VECTOR('',#81,1.);
#81 = DIRECTION('',(1.,0.));
#82 = ( GEOMETRIC_REPRESENTATION_CONTEXT(2) 
PARAMETRIC_REPRESENTATION_CONTEXT() REPRESENTATION_CONTEXT('2D SPACE',''
  ) );
#83 = ORIENTED_EDGE('',*,*,#84,.F.);
#84 = EDGE_CURVE('',#85,#57,#87,.T.);
#85 = VERTEX_POINT('',#86);
#86 = CARTESIAN_POINT('',(30.,-30.,0.));
#87 = SURFACE_CURVE('',#88,(#92,#99),.PCURVE_S1.);
#88 = LINE('',#89,#90);
#89 = CARTESIAN_POINT('',(30.,-30.,0.));
#90 = VECTOR('',#91,1.);
#91 = DIRECTION('',(0.,0.,1.));
#92 = PCURVE('',#32,#93);
#93 = DEFINITIONAL_REPRESENTATION('',(#94),#98);
#94 = LINE('',#95,#96);
#95 = CARTESIAN_POINT('',(60.,0.));
#96 = VECTOR('',#97,1.);
#97 = DIRECTION('',(0.,-1.));
#98 = ( GEOMETRIC_REPRESENTATION_CONTEXT(2) 
PARAMETRIC_REPRESENTATION_CONTEXT() REPRESENTATION_CONTEXT('2D SPACE',''
  ) );
#99 = PCURVE('',#100,#105);
#100 = PLANE('',#101);
#101 = AXIS2_PLACEMENT_3D('',#102,#103,#104);
#102 = CARTESIAN_POINT('',(30.,-30.,0.));
#103 = DIRECTION('',(-1.,0.,0.));
#104 = DIRECTION('',(0.,1.,0.));
#105 = DEFINITIONAL_REPRESENTATION('',(#106),#110);
#106 = LINE('',#107,#108);
#107 = CARTESIAN_POINT('',(0.,0.));
#108 = VECTOR('',#109,1.);
#109 = DIRECTION('',(0.,-1.));
#110 = ( GEOMETRIC_REPRESENTATION_CONTEXT(2) 
PARAMETRIC_REPRESENTATION_CONTEXT() REPRESENTATION_CONTEXT('2D SPACE',''
  ) );
#111 = ORIENTED_EDGE('',*,*,#112,.F.);
#112 = EDGE_CURVE('',#22,#85,#113,.T.);
#113 = SURFACE_CURVE('',#114,(#118,#125),.PCURVE_S1.);
#114 = LINE('',#115,#116);
#115 = CARTESIAN_POINT('',(-30.,-30.,0.));
#116 = VECTOR('',#117,1.);
#117 = DIRECTION('',(1.,0.,0.));
#118 = PCURVE('',#32,#119);
#119 = DEFINITIONAL_REPRESENTATION('',(#120),#124);
#120 = LINE('',#121,#122);
#121 = CARTESIAN_POINT('',(0.,0.));
#122 = VECTOR('',#123,1.);
#123 = DIRECTION('',(1.,0.));
#124 = ( GEOMETRIC_REPRESENTATION_CONTEXT(2) 
PARAMETRIC_REPRESENTATION_CONTEXT() REPRESENTATION_CONTEXT('2D SPACE',''
  ) );
#125 = PCURVE('',#126,#131);
#126 = PLANE('',#127);
#127 = AXIS2_PLACEMENT_3D('',#128,#129,#130);
#128 = CARTESIAN_POINT('',(0.,0.,0.));
#129 = DIRECTION('',(0.,0.,1.));
#130 = DIRECTION('',(1.,0.,-0.));
#131 = DEFINITIONAL_REPRESENTATION('',(#132),#136);
#132 = LINE('',#133,#134);
#133 = CARTESIAN_POINT('',(-30.,-30.));
#134 = VECTOR('',#135,1.);
#135 = DIRECTION('',(1.,0.));
#136 = ( GEOMETRIC_REPRESENTATION_CONTEXT(2) 
PARAMETRIC_REPRESENTATION_CONTEXT() REPRESENTATION_CONTEXT('2D SPACE',''
  ) );
#137 = FACE_BOUND('',#138,.F.);
#138 = EDGE_LOOP('',(#139));
#139 = ORIENTED_EDGE('',*,*,#140,.F.);
#140 = EDGE_CURVE('',#141,#141,#143,.T.);
#141 = VERTEX_POINT('',#142);
#142 = CARTESIAN_POINT('',(0.,-30.,35.5));
#143 = SURFACE_CURVE('',#144,(#149,#156),.PCURVE_S1.);
#144 = CIRCLE('',#145,5.5);
#145 = AXIS2_PLACEMENT_3D('',#146,#147,#148);
#146 = CARTESIAN_POINT('',(0.,-30.,30.));
#147 = DIRECTION('',(0.,1.,0.));
#148 = DIRECTION('',(0.,-0.,1.));
#149 = PCURVE('',#32,#150);
#150 = DEFINITIONAL_REPRESENTATION('',(#151),#155);
#151 = CIRCLE('',#152,5.5);
#152 = AXIS2_PLACEMENT_2D('',#153,#154);
#153 = CARTESIAN_POINT('',(30.,-30.));
#154 = DIRECTION('',(0.,-1.));
#155 = ( GEOMETRIC_REPRESENTATION_CONTEXT(2) 
PARAMETRIC_REPRESENTATION_CONTEXT() REPRESENTATION_CONTEXT('2D SPACE',''
  ) );
#156 = PCURVE('',#157,#162);
#157 = SPHERICAL_SURFACE('',#158,30.5);
#158 = AXIS2_PLACEMENT_3D('',#159,#160,#161);
#159 = CARTESIAN_POINT('',(0.,0.,30.));
#160 = DIRECTION('',(0.,0.,1.));
#161 = DIRECTION('',(1.,0.,0.));
#162 = DEFINITIONAL_REPRESENTATION('',(#163),#208);
#163 = B_SPLINE_CURVE_WITH_KNOTS('',8,(#164,#165,#166,#167,#168,#169,
    #170,#171,#172,#173,#174,#175,#176,#177,#178,#179,#180,#181,#182,
    #183,#184,#185,#186,#187,#188,#189,#190,#191,#192,#193,#194,#195,
    #196,#197,#198,#199,#200,#201,#202,#203,#204,#205,#206,#207),
  .UNSPECIFIED.,.F.,.F.,(9,7,7,7,7,7,9),(0.,0.785398163397,
    2.159844949343,3.190680038802,3.963806355896,5.123495831538,
    6.28318530718),.UNSPECIFIED.);
#164 = CARTESIAN_POINT('',(4.712388980385,0.181319774401));
#165 = CARTESIAN_POINT('',(4.730387688296,0.181319774401));
#166 = CARTESIAN_POINT('',(4.748386381021,0.179300320817));
#167 = CARTESIAN_POINT('',(4.766103045197,0.175261437576));
#168 = CARTESIAN_POINT('',(4.783255273665,0.169248755758));
#169 = CARTESIAN_POINT('',(4.799575250325,0.161353857961));
#170 = CARTESIAN_POINT('',(4.814822134733,0.151709224209));
#171 = CARTESIAN_POINT('',(4.828789597346,0.140480542496));
#172 = CARTESIAN_POINT('',(4.863210409618,0.105771704851));
#173 = CARTESIAN_POINT('',(4.880671493812,7.941913683998E-02));
#174 = CARTESIAN_POINT('',(4.892771884552,4.982644326293E-02));
#175 = CARTESIAN_POINT('',(4.898923770554,1.826202307436E-02));
#176 = CARTESIAN_POINT('',(4.898905153739,-1.389572128164E-02));
#177 = CARTESIAN_POINT('',(4.892736796345,-4.525294700904E-02));
#178 = CARTESIAN_POINT('',(4.880762377207,-7.44628136705E-02));
#179 = CARTESIAN_POINT('',(4.850834200473,-0.119770902217));
#180 = CARTESIAN_POINT('',(4.835123676281,-0.13732139473));
#181 = CARTESIAN_POINT('',(4.816815228423,-0.15250983129));
#182 = CARTESIAN_POINT('',(4.796301260638,-0.164896187382));
#183 = CARTESIAN_POINT('',(4.77408204562,-0.174121384174));
#184 = CARTESIAN_POINT('',(4.750761490936,-0.179942918444));
#185 = CARTESIAN_POINT('',(4.726986422344,-0.182258039537));
#186 = CARTESIAN_POINT('',(4.685698778028,-0.180229625569));
#187 = CARTESIAN_POINT('',(4.668106534584,-0.17740606213));
#188 = CARTESIAN_POINT('',(4.65088524052,-0.172641885413));
#189 = CARTESIAN_POINT('',(4.63430049979,-0.165993481808));
#190 = CARTESIAN_POINT('',(4.61860124668,-0.15755946678));
#191 = CARTESIAN_POINT('',(4.604009216099,-0.147475470095));
#192 = CARTESIAN_POINT('',(4.5907130213,-0.135906799851));
#193 = CARTESIAN_POINT('',(4.561100944728,-0.103743678906));
#194 = CARTESIAN_POINT('',(4.546599247004,-8.152851863427E-02));
#195 = CARTESIAN_POINT('',(4.53588760136,-5.703080114868E-02));
#196 = CARTESIAN_POINT('',(4.529321734266,-3.100118384387E-02));
#197 = CARTESIAN_POINT('',(4.5270784882,-4.251649644331E-03));
#198 = CARTESIAN_POINT('',(4.529195630757,2.238850641907E-02));
#199 = CARTESIAN_POINT('',(4.53555826772,4.810094841073E-02));
#200 = CARTESIAN_POINT('',(4.556215826365,9.61508494638E-02));
#201 = CARTESIAN_POINT('',(4.570510728068,0.118488314547));
#202 = CARTESIAN_POINT('',(4.588492691708,0.13837824741));
#203 = CARTESIAN_POINT('',(4.609717079456,0.155119380441));
#204 = CARTESIAN_POINT('',(4.633568445382,0.16811126511));
#205 = CARTESIAN_POINT('',(4.659236562706,0.176916873389));
#206 = CARTESIAN_POINT('',(4.685812763235,0.181319774401));
#207 = CARTESIAN_POINT('',(4.712388980385,0.181319774401));
#208 = ( GEOMETRIC_REPRESENTATION_CONTEXT(2) 
PARAMETRIC_REPRESENTATION_CONTEXT() REPRESENTATION_CONTEXT('2D SPACE',''
  ) );
#209 = ADVANCED_FACE('',(#210,#285),#44,.F.);
#210 = FACE_BOUND('',#211,.F.);
#211 = EDGE_LOOP('',(#212,#242,#263,#264));
#212 = ORIENTED_EDGE('',*,*,#213,.T.);
#213 = EDGE_CURVE('',#214,#216,#218,.T.);
#214 = VERTEX_POINT('',#215);
#215 = CARTESIAN_POINT('',(-30.,30.,0.));
#216 = VERTEX_POINT('',#217);
#217 = CARTESIAN_POINT('',(-30.,30.,60.));
#218 = SURFACE_CURVE('',#219,(#223,#230),.PCURVE_S1.);
#219 = LINE('',#220,#221);
#220 = CARTESIAN_POINT('',(-30.,30.,0.));
#221 = VECTOR('',#222,1.);
#222 = DIRECTION('',(0.,0.,1.));
#223 = PCURVE('',#44,#224);
#224 = DEFINITIONAL_REPRESENTATION('',(#225),#229);
#225 = LINE('',#226,#227);
#226 = CARTESIAN_POINT('',(0.,0.));
#227 = VECTOR('',#228,1.);
#228 = DIRECTION('',(0.,-1.));
#229 = ( GEOMETRIC_REPRESENTATION_CONTEXT(2) 
PARAMETRIC_REPRESENTATION_CONTEXT() REPRESENTATION_CONTEXT('2D SPACE',''
  ) );
#230 = PCURVE('',#231,#236);
#231 = PLANE('',#232);
#232 = AXIS2_PLACEMENT_3D('',#233,#234,#235);
#233 = CARTESIAN_POINT('',(30.,30.,0.));
#234 = DIRECTION('',(0.,-1.,0.));
#235 = DIRECTION('',(-1.,0.,0.));
#236 = DEFINITIONAL_REPRESENTATION('',(#237),#241);
#237 = LINE('',#238,#239);
#238 = CARTESIAN_POINT('',(60.,0.));
#239 = VECTOR('',#240,1.);
#240 = DIRECTION('',(0.,-1.));
#241 = ( GEOMETRIC_REPRESENTATION_CONTEXT(2) 
PARAMETRIC_REPRESENTATION_CONTEXT() REPRESENTATION_CONTEXT('2D SPACE',''
  ) );
#242 = ORIENTED_EDGE('',*,*,#243,.T.);
#243 = EDGE_CURVE('',#216,#24,#244,.T.);
#244 = SURFACE_CURVE('',#245,(#249,#256),.PCURVE_S1.);
#245 = LINE('',#246,#247);
#246 = CARTESIAN_POINT('',(-30.,30.,60.));
#247 = VECTOR('',#248,1.);
#248 = DIRECTION('',(0.,-1.,0.));
#249 = PCURVE('',#44,#250);
#250 = DEFINITIONAL_REPRESENTATION('',(#251),#255);
#251 = LINE('',#252,#253);
#252 = CARTESIAN_POINT('',(0.,-60.));
#253 = VECTOR('',#254,1.);
#254 = DIRECTION('',(1.,0.));
#255 = ( GEOMETRIC_REPRESENTATION_CONTEXT(2) 
PARAMETRIC_REPRESENTATION_CONTEXT() REPRESENTATION_CONTEXT('2D SPACE',''
  ) );
#256 = PCURVE('',#72,#257);
#257 = DEFINITIONAL_REPRESENTATION('',(#258),#262);
#258 = LINE('',#259,#260);
#259 = CARTESIAN_POINT('',(-30.,30.));
#260 = VECTOR('',#261,1.);
#261 = DIRECTION('',(0.,-1.));
#262 = ( GEOMETRIC_REPRESENTATION_CONTEXT(2) 
PARAMETRIC_REPRESENTATION_CONTEXT() REPRESENTATION_CONTEXT('2D SPACE',''
  ) );
#263 = ORIENTED_EDGE('',*,*,#21,.F.);
#264 = ORIENTED_EDGE('',*,*,#265,.F.);
#265 = EDGE_CURVE('',#214,#22,#266,.T.);
#266 = SURFACE_CURVE('',#267,(#271,#278),.PCURVE_S1.);
#267 = LINE('',#268,#269);
#268 = CARTESIAN_POINT('',(-30.,30.,0.));
#269 = VECTOR('',#270,1.);
#270 = DIRECTION('',(0.,-1.,0.));
#271 = PCURVE('',#44,#272);
#272 = DEFINITIONAL_REPRESENTATION('',(#273),#277);
#273 = LINE('',#274,#275);
#274 = CARTESIAN_POINT('',(0.,0.));
#275 = VECTOR('',#276,1.);
#276 = DIRECTION('',(1.,0.));
#277 = ( GEOMETRIC_REPRESENTATION_CONTEXT(2) 
PARAMETRIC_REPRESENTATION_CONTEXT() REPRESENTATION_CONTEXT('2D SPACE',''
  ) );
#278 = PCURVE('',#126,#279);
#279 = DEFINITIONAL_REPRESENTATION('',(#280),#284);
#280 = LINE('',#281,#282);
#281 = CARTESIAN_POINT('',(-30.,30.));
#282 = VECTOR('',#283,1.);
#283 = DIRECTION('',(0.,-1.));
#284 = ( GEOMETRIC_REPRESENTATION_CONTEXT(2) 
PARAMETRIC_REPRESENTATION_CONTEXT() REPRESENTATION_CONTEXT('2D SPACE',''
  ) );
#285 = FACE_BOUND('',#286,.F.);
#286 = EDGE_LOOP('',(#287));
#287 = ORIENTED_EDGE('',*,*,#288,.F.);
#288 = EDGE_CURVE('',#289,#289,#291,.T.);
#289 = VERTEX_POINT('',#290);
#290 = CARTESIAN_POINT('',(-30.,0.,35.5));
#291 = SURFACE_CURVE('',#292,(#297,#304),.PCURVE_S1.);
#292 = CIRCLE('',#293,5.5);
#293 = AXIS2_PLACEMENT_3D('',#294,#295,#296);
#294 = CARTESIAN_POINT('',(-30.,0.,30.));
#295 = DIRECTION('',(1.,0.,-0.));
#296 = DIRECTION('',(0.,0.,1.));
#297 = PCURVE('',#44,#298);
#298 = DEFINITIONAL_REPRESENTATION('',(#299),#303);
#299 = CIRCLE('',#300,5.5);
#300 = AXIS2_PLACEMENT_2D('',#301,#302);
#301 = CARTESIAN_POINT('',(30.,-30.));
#302 = DIRECTION('',(0.,-1.));
#303 = ( GEOMETRIC_REPRESENTATION_CONTEXT(2) 
PARAMETRIC_REPRESENTATION_CONTEXT() REPRESENTATION_CONTEXT('2D SPACE',''
  ) );
#304 = PCURVE('',#157,#305);
#305 = DEFINITIONAL_REPRESENTATION('',(#306),#351);
#306 = B_SPLINE_CURVE_WITH_KNOTS('',8,(#307,#308,#309,#310,#311,#312,
    #313,#314,#315,#316,#317,#318,#319,#320,#321,#322,#323,#324,#325,
    #326,#327,#328,#329,#330,#331,#332,#333,#334,#335,#336,#337,#338,
    #339,#340,#341,#342,#343,#344,#345,#346,#347,#348,#349,#350),
  .UNSPECIFIED.,.F.,.F.,(9,7,7,7,7,7,9),(0.,0.785398163397,
    2.159844949343,3.190680038802,3.963806355896,5.123495831538,
    6.28318530718),.UNSPECIFIED.);
#307 = CARTESIAN_POINT('',(3.14159265359,0.181319774401));
#308 = CARTESIAN_POINT('',(3.159591361501,0.181319774401));
#309 = CARTESIAN_POINT('',(3.177590054227,0.179300320817));
#310 = CARTESIAN_POINT('',(3.195306718403,0.175261437576));
#311 = CARTESIAN_POINT('',(3.212458946869,0.169248755758));
#312 = CARTESIAN_POINT('',(3.22877892353,0.161353857961));
#313 = CARTESIAN_POINT('',(3.244025807939,0.151709224209));
#314 = CARTESIAN_POINT('',(3.257993270551,0.140480542496));
#315 = CARTESIAN_POINT('',(3.292414082824,0.105771704851));
#316 = CARTESIAN_POINT('',(3.30987516702,7.941913683998E-02));
#317 = CARTESIAN_POINT('',(3.321975557736,4.982644326293E-02));
#318 = CARTESIAN_POINT('',(3.328127443812,1.826202307436E-02));
#319 = CARTESIAN_POINT('',(3.32810882694,-1.389572128164E-02));
#320 = CARTESIAN_POINT('',(3.321940469554,-4.525294700904E-02));
#321 = CARTESIAN_POINT('',(3.309966050412,-7.44628136705E-02));
#322 = CARTESIAN_POINT('',(3.280037873678,-0.119770902217));
#323 = CARTESIAN_POINT('',(3.264327349486,-0.13732139473));
#324 = CARTESIAN_POINT('',(3.246018901653,-0.15250983129));
#325 = CARTESIAN_POINT('',(3.225504933807,-0.164896187382));
#326 = CARTESIAN_POINT('',(3.203285718831,-0.174121384174));
#327 = CARTESIAN_POINT('',(3.17996516414,-0.179942918444));
#328 = CARTESIAN_POINT('',(3.156190095549,-0.182258039537));
#329 = CARTESIAN_POINT('',(3.114902451233,-0.180229625569));
#330 = CARTESIAN_POINT('',(3.097310207789,-0.17740606213));
#331 = CARTESIAN_POINT('',(3.080088913726,-0.172641885413));
#332 = CARTESIAN_POINT('',(3.063504172995,-0.165993481808));
#333 = CARTESIAN_POINT('',(3.047804919885,-0.15755946678));
#334 = CARTESIAN_POINT('',(3.033212889305,-0.147475470095));
#335 = CARTESIAN_POINT('',(3.019916694505,-0.135906799851));
#336 = CARTESIAN_POINT('',(2.990304617933,-0.103743678906));
#337 = CARTESIAN_POINT('',(2.975802920213,-8.152851863427E-02));
#338 = CARTESIAN_POINT('',(2.965091274555,-5.703080114868E-02));
#339 = CARTESIAN_POINT('',(2.958525407475,-3.100118384387E-02));
#340 = CARTESIAN_POINT('',(2.956282161393,-4.251649644331E-03));
#341 = CARTESIAN_POINT('',(2.958399303966,2.238850641907E-02));
#342 = CARTESIAN_POINT('',(2.964761940925,4.810094841073E-02));
#343 = CARTESIAN_POINT('',(2.98541949957,9.61508494638E-02));
#344 = CARTESIAN_POINT('',(2.999714401277,0.118488314547));
#345 = CARTESIAN_POINT('',(3.017696364899,0.13837824741));
#346 = CARTESIAN_POINT('',(3.038920752666,0.155119380441));
#347 = CARTESIAN_POINT('',(3.062772118576,0.16811126511));
#348 = CARTESIAN_POINT('',(3.088440235914,0.176916873389));
#349 = CARTESIAN_POINT('',(3.11501643644,0.181319774401));
#350 = CARTESIAN_POINT('',(3.14159265359,0.181319774401));
#351 = ( GEOMETRIC_REPRESENTATION_CONTEXT(2) 
PARAMETRIC_REPRESENTATION_CONTEXT() REPRESENTATION_CONTEXT('2D SPACE',''
  ) );
#352 = ADVANCED_FACE('',(#353,#401),#126,.F.);
#353 = FACE_BOUND('',#354,.F.);
#354 = EDGE_LOOP('',(#355,#356,#379,#400));
#355 = ORIENTED_EDGE('',*,*,#112,.T.);
#356 = ORIENTED_EDGE('',*,*,#357,.T.);
#357 = EDGE_CURVE('',#85,#358,#360,.T.);
#358 = VERTEX_POINT('',#359);
#359 = CARTESIAN_POINT('',(30.,30.,0.));
#360 = SURFACE_CURVE('',#361,(#365,#372),.PCURVE_S1.);
#361 = LINE('',#362,#363);
#362 = CARTESIAN_POINT('',(30.,-30.,0.));
#363 = VECTOR('',#364,1.);
#364 = DIRECTION('',(0.,1.,0.));
#365 = PCURVE('',#126,#366);
#366 = DEFINITIONAL_REPRESENTATION('',(#367),#371);
#367 = LINE('',#368,#369);
#368 = CARTESIAN_POINT('',(30.,-30.));
#369 = VECTOR('',#370,1.);
#370 = DIRECTION('',(0.,1.));
#371 = ( GEOMETRIC_REPRESENTATION_CONTEXT(2) 
PARAMETRIC_REPRESENTATION_CONTEXT() REPRESENTATION_CONTEXT('2D SPACE',''
  ) );
#372 = PCURVE('',#100,#373);
#373 = DEFINITIONAL_REPRESENTATION('',(#374),#378);
#374 = LINE('',#375,#376);
#375 = CARTESIAN_POINT('',(0.,0.));
#376 = VECTOR('',#377,1.);
#377 = DIRECTION('',(1.,0.));
#378 = ( GEOMETRIC_REPRESENTATION_CONTEXT(2) 
PARAMETRIC_REPRESENTATION_CONTEXT() REPRESENTATION_CONTEXT('2D SPACE',''
  ) );
#379 = ORIENTED_EDGE('',*,*,#380,.T.);
#380 = EDGE_CURVE('',#358,#214,#381,.T.);
#381 = SURFACE_CURVE('',#382,(#386,#393),.PCURVE_S1.);
#382 = LINE('',#383,#384);
#383 = CARTESIAN_POINT('',(30.,30.,0.));
#384 = VECTOR('',#385,1.);
#385 = DIRECTION('',(-1.,0.,0.));
#386 = PCURVE('',#126,#387);
#387 = DEFINITIONAL_REPRESENTATION('',(#388),#392);
#388 = LINE('',#389,#390);
#389 = CARTESIAN_POINT('',(30.,30.));
#390 = VECTOR('',#391,1.);
#391 = DIRECTION('',(-1.,0.));
#392 = ( GEOMETRIC_REPRESENTATION_CONTEXT(2) 
PARAMETRIC_REPRESENTATION_CONTEXT() REPRESENTATION_CONTEXT('2D SPACE',''
  ) );
#393 = PCURVE('',#231,#394);
#394 = DEFINITIONAL_REPRESENTATION('',(#395),#399);
#395 = LINE('',#396,#397);
#396 = CARTESIAN_POINT('',(0.,-0.));
#397 = VECTOR('',#398,1.);
#398 = DIRECTION('',(1.,0.));
#399 = ( GEOMETRIC_REPRESENTATION_CONTEXT(2) 
PARAMETRIC_REPRESENTATION_CONTEXT() REPRESENTATION_CONTEXT('2D SPACE',''
  ) );
#400 = ORIENTED_EDGE('',*,*,#265,.T.);
#401 = FACE_BOUND('',#402,.F.);
#402 = EDGE_LOOP('',(#403));
#403 = ORIENTED_EDGE('',*,*,#404,.F.);
#404 = EDGE_CURVE('',#405,#405,#407,.T.);
#405 = VERTEX_POINT('',#406);
#406 = CARTESIAN_POINT('',(5.5,-1.347111479062E-15,0.));
#407 = SURFACE_CURVE('',#408,(#413,#420),.PCURVE_S1.);
#408 = CIRCLE('',#409,5.5);
#409 = AXIS2_PLACEMENT_3D('',#410,#411,#412);
#410 = CARTESIAN_POINT('',(0.,0.,0.));
#411 = DIRECTION('',(0.,0.,1.));
#412 = DIRECTION('',(1.,0.,-0.));
#413 = PCURVE('',#126,#414);
#414 = DEFINITIONAL_REPRESENTATION('',(#415),#419);
#415 = CIRCLE('',#416,5.5);
#416 = AXIS2_PLACEMENT_2D('',#417,#418);
#417 = CARTESIAN_POINT('',(0.,0.));
#418 = DIRECTION('',(1.,0.));
#419 = ( GEOMETRIC_REPRESENTATION_CONTEXT(2) 
PARAMETRIC_REPRESENTATION_CONTEXT() REPRESENTATION_CONTEXT('2D SPACE',''
  ) );
#420 = PCURVE('',#157,#421);
#421 = DEFINITIONAL_REPRESENTATION('',(#422),#426);
#422 = LINE('',#423,#424);
#423 = CARTESIAN_POINT('',(0.,-1.389476552393));
#424 = VECTOR('',#425,1.);
#425 = DIRECTION('',(1.,0.));
#426 = ( GEOMETRIC_REPRESENTATION_CONTEXT(2) 
PARAMETRIC_REPRESENTATION_CONTEXT() REPRESENTATION_CONTEXT('2D SPACE',''
  ) );
#427 = ADVANCED_FACE('',(#428,#476),#72,.T.);
#428 = FACE_BOUND('',#429,.T.);
#429 = EDGE_LOOP('',(#430,#431,#454,#475));
#430 = ORIENTED_EDGE('',*,*,#56,.T.);
#431 = ORIENTED_EDGE('',*,*,#432,.T.);
#432 = EDGE_CURVE('',#57,#433,#435,.T.);
#433 = VERTEX_POINT('',#434);
#434 = CARTESIAN_POINT('',(30.,30.,60.));
#435 = SURFACE_CURVE('',#436,(#440,#447),.PCURVE_S1.);
#436 = LINE('',#437,#438);
#437 = CARTESIAN_POINT('',(30.,-30.,60.));
#438 = VECTOR('',#439,1.);
#439 = DIRECTION('',(0.,1.,0.));
#440 = PCURVE('',#72,#441);
#441 = DEFINITIONAL_REPRESENTATION('',(#442),#446);
#442 = LINE('',#443,#444);
#443 = CARTESIAN_POINT('',(30.,-30.));
#444 = VECTOR('',#445,1.);
#445 = DIRECTION('',(0.,1.));
#446 = ( GEOMETRIC_REPRESENTATION_CONTEXT(2) 
PARAMETRIC_REPRESENTATION_CONTEXT() REPRESENTATION_CONTEXT('2D SPACE',''
  ) );
#447 = PCURVE('',#100,#448);
#448 = DEFINITIONAL_REPRESENTATION('',(#449),#453);
#449 = LINE('',#450,#451);
#450 = CARTESIAN_POINT('',(0.,-60.));
#451 = VECTOR('',#452,1.);
#452 = DIRECTION('',(1.,0.));
#453 = ( GEOMETRIC_REPRESENTATION_CONTEXT(2) 
PARAMETRIC_REPRESENTATION_CONTEXT() REPRESENTATION_CONTEXT('2D SPACE',''
  ) );
#454 = ORIENTED_EDGE('',*,*,#455,.T.);
#455 = EDGE_CURVE('',#433,#216,#456,.T.);
#456 = SURFACE_CURVE('',#457,(#461,#468),.PCURVE_S1.);
#457 = LINE('',#458,#459);
#458 = CARTESIAN_POINT('',(30.,30.,60.));
#459 = VECTOR('',#460,1.);
#460 = DIRECTION('',(-1.,0.,0.));
#461 = PCURVE('',#72,#462);
#462 = DEFINITIONAL_REPRESENTATION('',(#463),#467);
#463 = LINE('',#464,#465);
#464 = CARTESIAN_POINT('',(30.,30.));
#465 = VECTOR('',#466,1.);
#466 = DIRECTION('',(-1.,0.));
#467 = ( GEOMETRIC_REPRESENTATION_CONTEXT(2) 
PARAMETRIC_REPRESENTATION_CONTEXT() REPRESENTATION_CONTEXT('2D SPACE',''
  ) );
#468 = PCURVE('',#231,#469);
#469 = DEFINITIONAL_REPRESENTATION('',(#470),#474);
#470 = LINE('',#471,#472);
#471 = CARTESIAN_POINT('',(0.,-60.));
#472 = VECTOR('',#473,1.);
#473 = DIRECTION('',(1.,0.));
#474 = ( GEOMETRIC_REPRESENTATION_CONTEXT(2) 
PARAMETRIC_REPRESENTATION_CONTEXT() REPRESENTATION_CONTEXT('2D SPACE',''
  ) );
#475 = ORIENTED_EDGE('',*,*,#243,.T.);
#476 = FACE_BOUND('',#477,.T.);
#477 = EDGE_LOOP('',(#478));
#478 = ORIENTED_EDGE('',*,*,#479,.F.);
#479 = EDGE_CURVE('',#480,#480,#482,.T.);
#480 = VERTEX_POINT('',#481);
#481 = CARTESIAN_POINT('',(5.5,-1.347111479062E-15,60.));
#482 = SURFACE_CURVE('',#483,(#488,#495),.PCURVE_S1.);
#483 = CIRCLE('',#484,5.5);
#484 = AXIS2_PLACEMENT_3D('',#485,#486,#487);
#485 = CARTESIAN_POINT('',(0.,0.,60.));
#486 = DIRECTION('',(0.,0.,1.));
#487 = DIRECTION('',(1.,0.,-0.));
#488 = PCURVE('',#72,#489);
#489 = DEFINITIONAL_REPRESENTATION('',(#490),#494);
#490 = CIRCLE('',#491,5.5);
#491 = AXIS2_PLACEMENT_2D('',#492,#493);
#492 = CARTESIAN_POINT('',(0.,0.));
#493 = DIRECTION('',(1.,0.));
#494 = ( GEOMETRIC_REPRESENTATION_CONTEXT(2) 
PARAMETRIC_REPRESENTATION_CONTEXT() REPRESENTATION_CONTEXT('2D SPACE',''
  ) );
#495 = PCURVE('',#157,#496);
#496 = DEFINITIONAL_REPRESENTATION('',(#497),#501);
#497 = LINE('',#498,#499);
#498 = CARTESIAN_POINT('',(0.,1.389476552393));
#499 = VECTOR('',#500,1.);
#500 = DIRECTION('',(1.,0.));
#501 = ( GEOMETRIC_REPRESENTATION_CONTEXT(2) 
PARAMETRIC_REPRESENTATION_CONTEXT() REPRESENTATION_CONTEXT('2D SPACE',''
  ) );
#502 = ADVANCED_FACE('',(#503,#529),#100,.F.);
#503 = FACE_BOUND('',#504,.F.);
#504 = EDGE_LOOP('',(#505,#506,#507,#528));
#505 = ORIENTED_EDGE('',*,*,#84,.T.);
#506 = ORIENTED_EDGE('',*,*,#432,.T.);
#507 = ORIENTED_EDGE('',*,*,#508,.F.);
#508 = EDGE_CURVE('',#358,#433,#509,.T.);
#509 = SURFACE_CURVE('',#510,(#514,#521),.PCURVE_S1.);
#510 = LINE('',#511,#512);
#511 = CARTESIAN_POINT('',(30.,30.,0.));
#512 = VECTOR('',#513,1.);
#513 = DIRECTION('',(0.,0.,1.));
#514 = PCURVE('',#100,#515);
#515 = DEFINITIONAL_REPRESENTATION('',(#516),#520);
#516 = LINE('',#517,#518);
#517 = CARTESIAN_POINT('',(60.,0.));
#518 = VECTOR('',#519,1.);
#519 = DIRECTION('',(0.,-1.));
#520 = ( GEOMETRIC_REPRESENTATION_CONTEXT(2) 
PARAMETRIC_REPRESENTATION_CONTEXT() REPRESENTATION_CONTEXT('2D SPACE',''
  ) );
#521 = PCURVE('',#231,#522);
#522 = DEFINITIONAL_REPRESENTATION('',(#523),#527);
#523 = LINE('',#524,#525);
#524 = CARTESIAN_POINT('',(0.,-0.));
#525 = VECTOR('',#526,1.);
#526 = DIRECTION('',(0.,-1.));
#527 = ( GEOMETRIC_REPRESENTATION_CONTEXT(2) 
PARAMETRIC_REPRESENTATION_CONTEXT() REPRESENTATION_CONTEXT('2D SPACE',''
  ) );
#528 = ORIENTED_EDGE('',*,*,#357,.F.);
#529 = FACE_BOUND('',#530,.F.);
#530 = EDGE_LOOP('',(#531,#577));
#531 = ORIENTED_EDGE('',*,*,#532,.F.);
#532 = EDGE_CURVE('',#533,#535,#537,.T.);
#533 = VERTEX_POINT('',#534);
#534 = CARTESIAN_POINT('',(30.,-7.347880794884E-15,24.5));
#535 = VERTEX_POINT('',#536);
#536 = CARTESIAN_POINT('',(30.,-7.347880794884E-15,35.5));
#537 = SURFACE_CURVE('',#538,(#543,#550),.PCURVE_S1.);
#538 = CIRCLE('',#539,5.5);
#539 = AXIS2_PLACEMENT_3D('',#540,#541,#542);
#540 = CARTESIAN_POINT('',(30.,0.,30.));
#541 = DIRECTION('',(-1.,0.,0.));
#542 = DIRECTION('',(0.,0.,-1.));
#543 = PCURVE('',#100,#544);
#544 = DEFINITIONAL_REPRESENTATION('',(#545),#549);
#545 = CIRCLE('',#546,5.5);
#546 = AXIS2_PLACEMENT_2D('',#547,#548);
#547 = CARTESIAN_POINT('',(30.,-30.));
#548 = DIRECTION('',(0.,1.));
#549 = ( GEOMETRIC_REPRESENTATION_CONTEXT(2) 
PARAMETRIC_REPRESENTATION_CONTEXT() REPRESENTATION_CONTEXT('2D SPACE',''
  ) );
#550 = PCURVE('',#157,#551);
#551 = DEFINITIONAL_REPRESENTATION('',(#552),#576);
#552 = B_SPLINE_CURVE_WITH_KNOTS('',8,(#553,#554,#555,#556,#557,#558,
    #559,#560,#561,#562,#563,#564,#565,#566,#567,#568,#569,#570,#571,
    #572,#573,#574,#575),.UNSPECIFIED.,.F.,.F.,(9,7,7,9),(0.,
    0.785398163397,1.963495408494,3.14159265359),.UNSPECIFIED.);
#553 = CARTESIAN_POINT('',(6.28318530718,-0.181319774401));
#554 = CARTESIAN_POINT('',(6.265186599268,-0.181319774401));
#555 = CARTESIAN_POINT('',(6.247187906543,-0.179300320817));
#556 = CARTESIAN_POINT('',(6.229471242367,-0.175261437576));
#557 = CARTESIAN_POINT('',(6.2123190139,-0.169248755758));
#558 = CARTESIAN_POINT('',(6.19599903724,-0.161353857961));
#559 = CARTESIAN_POINT('',(6.180752152831,-0.151709224209));
#560 = CARTESIAN_POINT('',(6.166784690219,-0.140480542496));
#561 = CARTESIAN_POINT('',(6.135493042698,-0.108927053728));
#562 = CARTESIAN_POINT('',(6.119982340053,-8.686137140728E-02));
#563 = CARTESIAN_POINT('',(6.108313856491,-6.230777426686E-02));
#564 = CARTESIAN_POINT('',(6.100887209247,-3.604253462036E-02));
#565 = CARTESIAN_POINT('',(6.097907939482,-8.913176898716E-03));
#566 = CARTESIAN_POINT('',(6.099432540745,1.821143295783E-02));
#567 = CARTESIAN_POINT('',(6.10535625235,4.447069420695E-02));
#568 = CARTESIAN_POINT('',(6.125443396684,9.365606023216E-02));
#569 = CARTESIAN_POINT('',(6.139606806983,0.116582171609));
#570 = CARTESIAN_POINT('',(6.15761116303,0.137040178611));
#571 = CARTESIAN_POINT('',(6.179001825217,0.154288153215));
#572 = CARTESIAN_POINT('',(6.203143155579,0.167688632969));
#573 = CARTESIAN_POINT('',(6.229189203781,0.176775987289));
#574 = CARTESIAN_POINT('',(6.256187245313,0.181319774401));
#575 = CARTESIAN_POINT('',(6.28318530718,0.181319774401));
#576 = ( GEOMETRIC_REPRESENTATION_CONTEXT(2) 
PARAMETRIC_REPRESENTATION_CONTEXT() REPRESENTATION_CONTEXT('2D SPACE',''
  ) );
#577 = ORIENTED_EDGE('',*,*,#578,.F.);
#578 = EDGE_CURVE('',#535,#533,#579,.T.);
#579 = SURFACE_CURVE('',#580,(#585,#592),.PCURVE_S1.);
#580 = CIRCLE('',#581,5.5);
#581 = AXIS2_PLACEMENT_3D('',#582,#583,#584);
#582 = CARTESIAN_POINT('',(30.,0.,30.));
#583 = DIRECTION('',(-1.,0.,0.));
#584 = DIRECTION('',(0.,0.,-1.));
#585 = PCURVE('',#100,#586);
#586 = DEFINITIONAL_REPRESENTATION('',(#587),#591);
#587 = CIRCLE('',#588,5.5);
#588 = AXIS2_PLACEMENT_2D('',#589,#590);
#589 = CARTESIAN_POINT('',(30.,-30.));
#590 = DIRECTION('',(0.,1.));
#591 = ( GEOMETRIC_REPRESENTATION_CONTEXT(2) 
PARAMETRIC_REPRESENTATION_CONTEXT() REPRESENTATION_CONTEXT('2D SPACE',''
  ) );
#592 = PCURVE('',#157,#593);
#593 = DEFINITIONAL_REPRESENTATION('',(#594),#618);
#594 = B_SPLINE_CURVE_WITH_KNOTS('',8,(#595,#596,#597,#598,#599,#600,
    #601,#602,#603,#604,#605,#606,#607,#608,#609,#610,#611,#612,#613,
    #614,#615,#616,#617),.UNSPECIFIED.,.F.,.F.,(9,7,7,9),(3.14159265359,
    3.926990816987,5.105088062083,6.28318530718),.UNSPECIFIED.);
#595 = CARTESIAN_POINT('',(0.,0.181319774401));
#596 = CARTESIAN_POINT('',(1.799870791119E-02,0.181319774401));
#597 = CARTESIAN_POINT('',(3.599740063706E-02,0.179300320817));
#598 = CARTESIAN_POINT('',(5.371406481241E-02,0.175261437576));
#599 = CARTESIAN_POINT('',(7.086629327913E-02,0.169248755758));
#600 = CARTESIAN_POINT('',(8.718626993978E-02,0.161353857961));
#601 = CARTESIAN_POINT('',(0.102433154348,0.151709224209));
#602 = CARTESIAN_POINT('',(0.116400616961,0.140480542496));
#603 = CARTESIAN_POINT('',(0.147692264482,0.108927053728));
#604 = CARTESIAN_POINT('',(0.163202967126,8.686137140727E-02));
#605 = CARTESIAN_POINT('',(0.174871450689,6.230777426691E-02));
#606 = CARTESIAN_POINT('',(0.182298097931,3.604253462029E-02));
#607 = CARTESIAN_POINT('',(0.185277367698,8.913176898716E-03));
#608 = CARTESIAN_POINT('',(0.183752766435,-1.821143295786E-02));
#609 = CARTESIAN_POINT('',(0.17782905483,-4.447069420695E-02));
#610 = CARTESIAN_POINT('',(0.157741910495,-9.365606023216E-02));
#611 = CARTESIAN_POINT('',(0.143578500197,-0.116582171609));
#612 = CARTESIAN_POINT('',(0.125574144149,-0.137040178611));
#613 = CARTESIAN_POINT('',(0.104183481962,-0.154288153215));
#614 = CARTESIAN_POINT('',(8.004215160065E-02,-0.167688632968));
#615 = CARTESIAN_POINT('',(5.399610339903E-02,-0.176775987289));
#616 = CARTESIAN_POINT('',(2.699806186679E-02,-0.181319774401));
#617 = CARTESIAN_POINT('',(4.490371596874E-17,-0.181319774401));
#618 = ( GEOMETRIC_REPRESENTATION_CONTEXT(2) 
PARAMETRIC_REPRESENTATION_CONTEXT() REPRESENTATION_CONTEXT('2D SPACE',''
  ) );
#619 = ADVANCED_FACE('',(#620,#672,#675,#678),#157,.F.);
#620 = FACE_BOUND('',#621,.F.);
#621 = EDGE_LOOP('',(#622,#623,#645,#646,#668,#669,#670,#671));
#622 = ORIENTED_EDGE('',*,*,#479,.F.);
#623 = ORIENTED_EDGE('',*,*,#624,.F.);
#624 = EDGE_CURVE('',#535,#480,#625,.T.);
#625 = SEAM_CURVE('',#626,(#631,#638),.PCURVE_S1.);
#626 = CIRCLE('',#627,30.5);
#627 = AXIS2_PLACEMENT_3D('',#628,#629,#630);
#628 = CARTESIAN_POINT('',(0.,0.,30.));
#629 = DIRECTION('',(-2.449293598295E-16,-1.,0.));
#630 = DIRECTION('',(1.,-2.449293598295E-16,0.));
#631 = PCURVE('',#157,#632);
#632 = DEFINITIONAL_REPRESENTATION('',(#633),#637);
#633 = LINE('',#634,#635);
#634 = CARTESIAN_POINT('',(6.28318530718,-6.28318530718));
#635 = VECTOR('',#636,1.);
#636 = DIRECTION('',(0.,1.));
#637 = ( GEOMETRIC_REPRESENTATION_CONTEXT(2) 
PARAMETRIC_REPRESENTATION_CONTEXT() REPRESENTATION_CONTEXT('2D SPACE',''
  ) );
#638 = PCURVE('',#157,#639);
#639 = DEFINITIONAL_REPRESENTATION('',(#640),#644);
#640 = LINE('',#641,#642);
#641 = CARTESIAN_POINT('',(0.,-6.28318530718));
#642 = VECTOR('',#643,1.);
#643 = DIRECTION('',(0.,1.));
#644 = ( GEOMETRIC_REPRESENTATION_CONTEXT(2) 
PARAMETRIC_REPRESENTATION_CONTEXT() REPRESENTATION_CONTEXT('2D SPACE',''
  ) );
#645 = ORIENTED_EDGE('',*,*,#578,.T.);
#646 = ORIENTED_EDGE('',*,*,#647,.F.);
#647 = EDGE_CURVE('',#405,#533,#648,.T.);
#648 = SEAM_CURVE('',#649,(#654,#661),.PCURVE_S1.);
#649 = CIRCLE('',#650,30.5);
#650 = AXIS2_PLACEMENT_3D('',#651,#652,#653);
#651 = CARTESIAN_POINT('',(0.,0.,30.));
#652 = DIRECTION('',(-2.449293598295E-16,-1.,0.));
#653 = DIRECTION('',(1.,-2.449293598295E-16,0.));
#654 = PCURVE('',#157,#655);
#655 = DEFINITIONAL_REPRESENTATION('',(#656),#660);
#656 = LINE('',#657,#658);
#657 = CARTESIAN_POINT('',(6.28318530718,-6.28318530718));
#658 = VECTOR('',#659,1.);
#659 = DIRECTION('',(0.,1.));
#660 = ( GEOMETRIC_REPRESENTATION_CONTEXT(2) 
PARAMETRIC_REPRESENTATION_CONTEXT() REPRESENTATION_CONTEXT('2D SPACE',''
  ) );
#661 = PCURVE('',#157,#662);
#662 = DEFINITIONAL_REPRESENTATION('',(#663),#667);
#663 = LINE('',#664,#665);
#664 = CARTESIAN_POINT('',(0.,-6.28318530718));
#665 = VECTOR('',#666,1.);
#666 = DIRECTION('',(0.,1.));
#667 = ( GEOMETRIC_REPRESENTATION_CONTEXT(2) 
PARAMETRIC_REPRESENTATION_CONTEXT() REPRESENTATION_CONTEXT('2D SPACE',''
  ) );
#668 = ORIENTED_EDGE('',*,*,#404,.T.);
#669 = ORIENTED_EDGE('',*,*,#647,.T.);
#670 = ORIENTED_EDGE('',*,*,#532,.T.);
#671 = ORIENTED_EDGE('',*,*,#624,.T.);
#672 = FACE_BOUND('',#673,.F.);
#673 = EDGE_LOOP('',(#674));
#674 = ORIENTED_EDGE('',*,*,#288,.T.);
#675 = FACE_BOUND('',#676,.F.);
#676 = EDGE_LOOP('',(#677));
#677 = ORIENTED_EDGE('',*,*,#140,.T.);
#678 = FACE_BOUND('',#679,.F.);
#679 = EDGE_LOOP('',(#680));
#680 = ORIENTED_EDGE('',*,*,#681,.T.);
#681 = EDGE_CURVE('',#682,#682,#684,.T.);
#682 = VERTEX_POINT('',#683);
#683 = CARTESIAN_POINT('',(0.,30.,24.5));
#684 = SURFACE_CURVE('',#685,(#690,#738),.PCURVE_S1.);
#685 = CIRCLE('',#686,5.5);
#686 = AXIS2_PLACEMENT_3D('',#687,#688,#689);
#687 = CARTESIAN_POINT('',(0.,30.,30.));
#688 = DIRECTION('',(0.,-1.,0.));
#689 = DIRECTION('',(0.,-0.,-1.));
#690 = PCURVE('',#157,#691);
#691 = DEFINITIONAL_REPRESENTATION('',(#692),#737);
#692 = B_SPLINE_CURVE_WITH_KNOTS('',8,(#693,#694,#695,#696,#697,#698,
    #699,#700,#701,#702,#703,#704,#705,#706,#707,#708,#709,#710,#711,
    #712,#713,#714,#715,#716,#717,#718,#719,#720,#721,#722,#723,#724,
    #725,#726,#727,#728,#729,#730,#731,#732,#733,#734,#735,#736),
  .UNSPECIFIED.,.F.,.F.,(9,7,7,7,7,7,9),(0.,0.785398163397,
    2.159844949343,3.190680038802,3.963806355897,5.123495831538,
    6.28318530718),.UNSPECIFIED.);
#693 = CARTESIAN_POINT('',(1.570796326795,-0.181319774401));
#694 = CARTESIAN_POINT('',(1.552797618884,-0.181319774401));
#695 = CARTESIAN_POINT('',(1.534798926158,-0.179300320817));
#696 = CARTESIAN_POINT('',(1.517082261982,-0.175261437576));
#697 = CARTESIAN_POINT('',(1.499930033516,-0.169248755758));
#698 = CARTESIAN_POINT('',(1.483610056855,-0.161353857961));
#699 = CARTESIAN_POINT('',(1.468363172446,-0.151709224209));
#700 = CARTESIAN_POINT('',(1.454395709834,-0.140480542496));
#701 = CARTESIAN_POINT('',(1.419974897561,-0.105771704851));
#702 = CARTESIAN_POINT('',(1.402513813362,-7.941913683998E-02));
#703 = CARTESIAN_POINT('',(1.390413422638,-4.982644326288E-02));
#704 = CARTESIAN_POINT('',(1.384261536572,-1.826202307442E-02));
#705 = CARTESIAN_POINT('',(1.384280153439,1.389572128163E-02));
#706 = CARTESIAN_POINT('',(1.390448510827,4.525294700906E-02));
#707 = CARTESIAN_POINT('',(1.402422929972,7.44628136705E-02));
#708 = CARTESIAN_POINT('',(1.432351106707,0.119770902217));
#709 = CARTESIAN_POINT('',(1.448061630899,0.13732139473));
#710 = CARTESIAN_POINT('',(1.466370078726,0.152509831291));
#711 = CARTESIAN_POINT('',(1.486884046569,0.164896187382));
#712 = CARTESIAN_POINT('',(1.509103261542,0.174121384174));
#713 = CARTESIAN_POINT('',(1.532423816246,0.179942918444));
#714 = CARTESIAN_POINT('',(1.556198884835,0.182258039537));
#715 = CARTESIAN_POINT('',(1.597486529152,0.180229625569));
#716 = CARTESIAN_POINT('',(1.615078772596,0.17740606213));
#717 = CARTESIAN_POINT('',(1.63230006666,0.172641885413));
#718 = CARTESIAN_POINT('',(1.64888480739,0.165993481808));
#719 = CARTESIAN_POINT('',(1.6645840605,0.15755946678));
#720 = CARTESIAN_POINT('',(1.67917609108,0.147475470095));
#721 = CARTESIAN_POINT('',(1.69247228588,0.135906799851));
#722 = CARTESIAN_POINT('',(1.722084362451,0.103743678906));
#723 = CARTESIAN_POINT('',(1.736586060167,8.152851863423E-02));
#724 = CARTESIAN_POINT('',(1.747297705832,5.703080114892E-02));
#725 = CARTESIAN_POINT('',(1.753863572889,3.100118384368E-02));
#726 = CARTESIAN_POINT('',(1.756106818991,4.251649644488E-03));
#727 = CARTESIAN_POINT('',(1.753989676415,-2.238850641912E-02));
#728 = CARTESIAN_POINT('',(1.74762703946,-4.810094841073E-02));
#729 = CARTESIAN_POINT('',(1.726969480815,-9.61508494638E-02));
#730 = CARTESIAN_POINT('',(1.712674579109,-0.118488314548));
#731 = CARTESIAN_POINT('',(1.694692615477,-0.13837824741));
#732 = CARTESIAN_POINT('',(1.673468227729,-0.155119380442));
#733 = CARTESIAN_POINT('',(1.649616861797,-0.168111265109));
#734 = CARTESIAN_POINT('',(1.623948744471,-0.176916873389));
#735 = CARTESIAN_POINT('',(1.597372543945,-0.181319774401));
#736 = CARTESIAN_POINT('',(1.570796326795,-0.181319774401));
#737 = ( GEOMETRIC_REPRESENTATION_CONTEXT(2) 
PARAMETRIC_REPRESENTATION_CONTEXT() REPRESENTATION_CONTEXT('2D SPACE',''
  ) );
#738 = PCURVE('',#231,#739);
#739 = DEFINITIONAL_REPRESENTATION('',(#740),#744);
#740 = CIRCLE('',#741,5.5);
#741 = AXIS2_PLACEMENT_2D('',#742,#743);
#742 = CARTESIAN_POINT('',(30.,-30.));
#743 = DIRECTION('',(-0.,1.));
#744 = ( GEOMETRIC_REPRESENTATION_CONTEXT(2) 
PARAMETRIC_REPRESENTATION_CONTEXT() REPRESENTATION_CONTEXT('2D SPACE',''
  ) );
#745 = ADVANCED_FACE('',(#746,#752),#231,.F.);
#746 = FACE_BOUND('',#747,.F.);
#747 = EDGE_LOOP('',(#748,#749,#750,#751));
#748 = ORIENTED_EDGE('',*,*,#508,.T.);
#749 = ORIENTED_EDGE('',*,*,#455,.T.);
#750 = ORIENTED_EDGE('',*,*,#213,.F.);
#751 = ORIENTED_EDGE('',*,*,#380,.F.);
#752 = FACE_BOUND('',#753,.F.);
#753 = EDGE_LOOP('',(#754));
#754 = ORIENTED_EDGE('',*,*,#681,.F.);
#755 = ( GEOMETRIC_REPRESENTATION_CONTEXT(3) 
GLOBAL_UNCERTAINTY_ASSIGNED_CONTEXT((#759)) GLOBAL_UNIT_ASSIGNED_CONTEXT
((#756,#757,#758)) REPRESENTATION_CONTEXT('Context #1',
  '3D Context with UNIT and UNCERTAINTY') );
#756 = ( LENGTH_UNIT() NAMED_UNIT(*) SI_UNIT(.MILLI.,.METRE.) );
#757 = ( NAMED_UNIT(*) PLANE_ANGLE_UNIT() SI_UNIT($,.RADIAN.) );
#758 = ( NAMED_UNIT(*) SI_UNIT($,.STERADIAN.) SOLID_ANGLE_UNIT() );
#759 = UNCERTAINTY_MEASURE_WITH_UNIT(LENGTH_MEASURE(1.E-07),#756,
  'distance_accuracy_value','confusion accuracy');
#760 = PRODUCT_RELATED_PRODUCT_CATEGORY('part',$,(#7));
ENDSEC;
END-ISO-10303-21;
