ISO-10303-21;
HEADER;
FILE_DESCRIPTION(('Open CASCADE Model'),'2;1');
FILE_NAME('Open CASCADE Shape Model','2026-08-07T02:34:16',('Author'),(
    'Open CASCADE'),'Open CASCADE STEP processor 7.7','Open CASCADE 7.7'
  ,'Unknown');
FILE_SCHEMA(('AUTOMOTIVE_DESIGN { 1 0 10303 214 1 1 1 1 }'));
ENDSEC;
DATA;
#1 = APPLICATION_PROTOCOL_DEFINITION('international standard',
  'automotive_design',2000,#2);
#2 = APPLICATION_CONTEXT(
  'core data for automotive mechanical design processes');
#3 = SHAPE_DEFINITION_REPRESENTATION(#4,#10);
#4 = PRODUCT_DEFINITION_SHAPE('','',#5);
#5 = PRODUCT_DEFINITION('design','',#6,#9);
#6 = PRODUCT_DEFINITION_FORMATION('','',#7);
#7 = PRODUCT('Open CASCADE STEP translator 7.7 8',
  'Open CASCADE STEP translator 7.7 8','',(#8));
#8 = PRODUCT_CONTEXT('',#2,'mechanical');
#9 = PRODUCT_DEFINITION_CONTEXT('part definition',#2,'design');
#10 = ADVANCED_BREP_SHAPE_REPRESENTATION('',(#11,#15),#192);
#11 = AXIS2_PLACEMENT_3D('',#12,#13,#14);
#12 = CARTESIAN_POINT('',(0.,0.,0.));
#13 = DIRECTION('',(0.,0.,1.));
#14 = DIRECTION('',(1.,0.,-0.));
#15 = MANIFOLD_SOLID_BREP('',#16);
#16 = CLOSED_SHELL('',(#17,#183,#187));
#17 = ADVANCED_FACE('',(#18),#31,.T.);
#18 = FACE_BOUND('',#19,.F.);
#19 = EDGE_LOOP('',(#20,#54,#77,#133,#182));
#20 = ORIENTED_EDGE('',*,*,#21,.F.);
#21 = EDGE_CURVE('',#22,#22,#24,.T.);
#22 = VERTEX_POINT('',#23);
#23 = CARTESIAN_POINT('',(15.,0.,0.));
#24 = SURFACE_CURVE('',#25,(#30,#42),.PCURVE_S1.);
#25 = CIRCLE('',#26,15.);
#26 = AXIS2_PLACEMENT_3D('',#27,#28,#29);
#27 = CARTESIAN_POINT('',(0.,0.,0.));
#28 = DIRECTION('',(0.,0.,1.));
#29 = DIRECTION('',(1.,0.,0.));
#30 = PCURVE('',#31,#36);
#31 = CYLINDRICAL_SURFACE('',#32,15.);
#32 = AXIS2_PLACEMENT_3D('',#33,#34,#35);
#33 = CARTESIAN_POINT('',(0.,0.,0.));
#34 = DIRECTION('',(-0.,-0.,-1.));
#35 = DIRECTION('',(1.,0.,0.));
#36 = DEFINITIONAL_REPRESENTATION('',(#37),#41);
#37 = LINE('',#38,#39);
#38 = CARTESIAN_POINT('',(-0.,0.));
#39 = VECTOR('',#40,1.);
#40 = DIRECTION('',(-1.,0.));
#41 = ( GEOMETRIC_REPRESENTATION_CONTEXT(2) 
PARAMETRIC_REPRESENTATION_CONTEXT() REPRESENTATION_CONTEXT('2D SPACE',''
  ) );
#42 = PCURVE('',#43,#48);
#43 = PLANE('',#44);
#44 = AXIS2_PLACEMENT_3D('',#45,#46,#47);
#45 = CARTESIAN_POINT('',(-7.29301404021E-16,1.169780044473E-16,0.));
#46 = DIRECTION('',(0.,0.,1.));
#47 = DIRECTION('',(1.,0.,-0.));
#48 = DEFINITIONAL_REPRESENTATION('',(#49),#53);
#49 = CIRCLE('',#50,15.);
#50 = AXIS2_PLACEMENT_2D('',#51,#52);
#51 = CARTESIAN_POINT('',(7.29301404021E-16,-1.169780044473E-16));
#52 = DIRECTION('',(1.,0.));
#53 = ( GEOMETRIC_REPRESENTATION_CONTEXT(2) 
PARAMETRIC_REPRESENTATION_CONTEXT() REPRESENTATION_CONTEXT('2D SPACE',''
  ) );
#54 = ORIENTED_EDGE('',*,*,#55,.T.);
#55 = EDGE_CURVE('',#22,#56,#58,.T.);
#56 = VERTEX_POINT('',#57);
#57 = CARTESIAN_POINT('',(15.,0.,32.679491924311));
#58 = SEAM_CURVE('',#59,(#63,#70),.PCURVE_S1.);
#59 = LINE('',#60,#61);
#60 = CARTESIAN_POINT('',(15.,0.,0.));
#61 = VECTOR('',#62,1.);
#62 = DIRECTION('',(0.,0.,1.));
#63 = PCURVE('',#31,#64);
#64 = DEFINITIONAL_REPRESENTATION('',(#65),#69);
#65 = LINE('',#66,#67);
#66 = CARTESIAN_POINT('',(-6.28318530718,0.));
#67 = VECTOR('',#68,1.);
#68 = DIRECTION('',(-0.,-1.));
#69 = ( GEOMETRIC_REPRESENTATION_CONTEXT(2) 
PARAMETRIC_REPRESENTATION_CONTEXT() REPRESENTATION_CONTEXT('2D SPACE',''
  ) );
#70 = PCURVE('',#31,#71);
#71 = DEFINITIONAL_REPRESENTATION('',(#72),#76);
#72 = LINE('',#73,#74);
#73 = CARTESIAN_POINT('',(-0.,0.));
#74 = VECTOR('',#75,1.);
#75 = DIRECTION('',(-0.,-1.));
#76 = ( GEOMETRIC_REPRESENTATION_CONTEXT(2) 
PARAMETRIC_REPRESENTATION_CONTEXT() REPRESENTATION_CONTEXT('2D SPACE',''
  ) );
#77 = ORIENTED_EDGE('',*,*,#78,.T.);
#78 = EDGE_CURVE('',#56,#79,#81,.T.);
#79 = VERTEX_POINT('',#80);
#80 = CARTESIAN_POINT('',(-15.,-3.508210230397E-08,50.));
#81 = SURFACE_CURVE('',#82,(#87,#121),.PCURVE_S1.);
#82 = ELLIPSE('',#83,17.320508075689,15.);
#83 = AXIS2_PLACEMENT_3D('',#84,#85,#86);
#84 = CARTESIAN_POINT('',(0.,0.,41.339745962156));
#85 = DIRECTION('',(0.5,0.,0.866025403784));
#86 = DIRECTION('',(0.866025403784,0.,-0.5));
#87 = PCURVE('',#31,#88);
#88 = DEFINITIONAL_REPRESENTATION('',(#89),#120);
#89 = B_SPLINE_CURVE_WITH_KNOTS('',8,(#90,#91,#92,#93,#94,#95,#96,#97,
    #98,#99,#100,#101,#102,#103,#104,#105,#106,#107,#108,#109,#110,#111,
    #112,#113,#114,#115,#116,#117,#118,#119),.UNSPECIFIED.,.F.,.F.,(9,7,
    7,7,9),(0.,1.570796326795,2.748893571891,4.516039439535,
    6.28318530718),.UNSPECIFIED.);
#90 = CARTESIAN_POINT('',(0.,-32.67949192431));
#91 = CARTESIAN_POINT('',(-0.196349540849,-32.67949192431));
#92 = CARTESIAN_POINT('',(-0.392699081698,-33.06106943741));
#93 = CARTESIAN_POINT('',(-0.589048622548,-33.82422122232));
#94 = CARTESIAN_POINT('',(-0.785398163395,-34.93757738237));
#95 = CARTESIAN_POINT('',(-0.981747704246,-36.33833440995));
#96 = CARTESIAN_POINT('',(-1.178097245096,-37.93887175042));
#97 = CARTESIAN_POINT('',(-1.374446785946,-39.63930905818));
#98 = CARTESIAN_POINT('',(-1.718058482432,-42.61507364013));
#99 = CARTESIAN_POINT('',(-1.865320638069,-43.89040085137));
#100 = CARTESIAN_POINT('',(-2.012582793706,-45.1235867799));
#101 = CARTESIAN_POINT('',(-2.159844949343,-46.27247889105));
#102 = CARTESIAN_POINT('',(-2.30710710498,-47.29787037056));
#103 = CARTESIAN_POINT('',(-2.454369260617,-48.16638446733));
#104 = CARTESIAN_POINT('',(-2.601631416254,-48.85273064087));
#105 = CARTESIAN_POINT('',(-2.969786805347,-50.07284757386));
#106 = CARTESIAN_POINT('',(-3.190680038803,-50.35874462917));
#107 = CARTESIAN_POINT('',(-3.411573272257,-50.14404305082));
#108 = CARTESIAN_POINT('',(-3.632466505696,-49.42073222342));
#109 = CARTESIAN_POINT('',(-3.853359739169,-48.23582467151));
#110 = CARTESIAN_POINT('',(-4.074252972623,-46.68753070099));
#111 = CARTESIAN_POINT('',(-4.29514620608,-44.90551163251));
#112 = CARTESIAN_POINT('',(-4.736932672991,-41.15304378976));
#113 = CARTESIAN_POINT('',(-4.957825906445,-39.18259293852));
#114 = CARTESIAN_POINT('',(-5.17871913988,-37.2574393919));
#115 = CARTESIAN_POINT('',(-5.399612373378,-35.52684222464));
#116 = CARTESIAN_POINT('',(-5.620505606799,-34.12828588009));
#117 = CARTESIAN_POINT('',(-5.841398840269,-33.16242665117));
#118 = CARTESIAN_POINT('',(-6.062292073724,-32.67949192431));
#119 = CARTESIAN_POINT('',(-6.28318530718,-32.67949192431));
#120 = ( GEOMETRIC_REPRESENTATION_CONTEXT(2) 
PARAMETRIC_REPRESENTATION_CONTEXT() REPRESENTATION_CONTEXT('2D SPACE',''
  ) );
#121 = PCURVE('',#122,#127);
#122 = PLANE('',#123);
#123 = AXIS2_PLACEMENT_3D('',#124,#125,#126);
#124 = CARTESIAN_POINT('',(-15.,0.,50.));
#125 = DIRECTION('',(0.5,0.,0.866025403784));
#126 = DIRECTION('',(0.866025403784,0.,-0.5));
#127 = DEFINITIONAL_REPRESENTATION('',(#128),#132);
#128 = ELLIPSE('',#129,17.320508075689,15.);
#129 = AXIS2_PLACEMENT_2D('',#130,#131);
#130 = CARTESIAN_POINT('',(17.320508075689,0.));
#131 = DIRECTION('',(1.,0.));
#132 = ( GEOMETRIC_REPRESENTATION_CONTEXT(2) 
PARAMETRIC_REPRESENTATION_CONTEXT() REPRESENTATION_CONTEXT('2D SPACE',''
  ) );
#133 = ORIENTED_EDGE('',*,*,#134,.T.);
#134 = EDGE_CURVE('',#79,#56,#135,.T.);
#135 = SURFACE_CURVE('',#136,(#141,#175),.PCURVE_S1.);
#136 = ELLIPSE('',#137,17.320508075689,15.);
#137 = AXIS2_PLACEMENT_3D('',#138,#139,#140);
#138 = CARTESIAN_POINT('',(0.,0.,41.339745962156));
#139 = DIRECTION('',(0.5,0.,0.866025403784));
#140 = DIRECTION('',(0.866025403784,0.,-0.5));
#141 = PCURVE('',#31,#142);
#142 = DEFINITIONAL_REPRESENTATION('',(#143),#174);
#143 = B_SPLINE_CURVE_WITH_KNOTS('',8,(#144,#145,#146,#147,#148,#149,
    #150,#151,#152,#153,#154,#155,#156,#157,#158,#159,#160,#161,#162,
    #163,#164,#165,#166,#167,#168,#169,#170,#171,#172,#173),
  .UNSPECIFIED.,.F.,.F.,(9,7,7,7,9),(0.,1.570796326795,2.748893571891,
    4.516039439535,6.28318530718),.UNSPECIFIED.);
#144 = CARTESIAN_POINT('',(0.,-32.67949192431));
#145 = CARTESIAN_POINT('',(-0.196349540849,-32.67949192431));
#146 = CARTESIAN_POINT('',(-0.392699081698,-33.06106943741));
#147 = CARTESIAN_POINT('',(-0.589048622548,-33.82422122232));
#148 = CARTESIAN_POINT('',(-0.785398163395,-34.93757738237));
#149 = CARTESIAN_POINT('',(-0.981747704246,-36.33833440995));
#150 = CARTESIAN_POINT('',(-1.178097245096,-37.93887175042));
#151 = CARTESIAN_POINT('',(-1.374446785946,-39.63930905818));
#152 = CARTESIAN_POINT('',(-1.718058482432,-42.61507364013));
#153 = CARTESIAN_POINT('',(-1.865320638069,-43.89040085137));
#154 = CARTESIAN_POINT('',(-2.012582793706,-45.1235867799));
#155 = CARTESIAN_POINT('',(-2.159844949343,-46.27247889105));
#156 = CARTESIAN_POINT('',(-2.30710710498,-47.29787037056));
#157 = CARTESIAN_POINT('',(-2.454369260617,-48.16638446733));
#158 = CARTESIAN_POINT('',(-2.601631416254,-48.85273064087));
#159 = CARTESIAN_POINT('',(-2.969786805347,-50.07284757386));
#160 = CARTESIAN_POINT('',(-3.190680038803,-50.35874462917));
#161 = CARTESIAN_POINT('',(-3.411573272257,-50.14404305082));
#162 = CARTESIAN_POINT('',(-3.632466505696,-49.42073222342));
#163 = CARTESIAN_POINT('',(-3.853359739169,-48.23582467151));
#164 = CARTESIAN_POINT('',(-4.074252972623,-46.68753070099));
#165 = CARTESIAN_POINT('',(-4.29514620608,-44.90551163251));
#166 = CARTESIAN_POINT('',(-4.736932672991,-41.15304378976));
#167 = CARTESIAN_POINT('',(-4.957825906445,-39.18259293852));
#168 = CARTESIAN_POINT('',(-5.17871913988,-37.2574393919));
#169 = CARTESIAN_POINT('',(-5.399612373378,-35.52684222464));
#170 = CARTESIAN_POINT('',(-5.620505606799,-34.12828588009));
#171 = CARTESIAN_POINT('',(-5.841398840269,-33.16242665117));
#172 = CARTESIAN_POINT('',(-6.062292073724,-32.67949192431));
#173 = CARTESIAN_POINT('',(-6.28318530718,-32.67949192431));
#174 = ( GEOMETRIC_REPRESENTATION_CONTEXT(2) 
PARAMETRIC_REPRESENTATION_CONTEXT() REPRESENTATION_CONTEXT('2D SPACE',''
  ) );
#175 = PCURVE('',#122,#176);
#176 = DEFINITIONAL_REPRESENTATION('',(#177),#181);
#177 = ELLIPSE('',#178,17.320508075689,15.);
#178 = AXIS2_PLACEMENT_2D('',#179,#180);
#179 = CARTESIAN_POINT('',(17.320508075689,0.));
#180 = DIRECTION('',(1.,0.));
#181 = ( GEOMETRIC_REPRESENTATION_CONTEXT(2) 
PARAMETRIC_REPRESENTATION_CONTEXT() REPRESENTATION_CONTEXT('2D SPACE',''
  ) );
#182 = ORIENTED_EDGE('',*,*,#55,.F.);
#183 = ADVANCED_FACE('',(#184),#43,.F.);
#184 = FACE_BOUND('',#185,.F.);
#185 = EDGE_LOOP('',(#186));
#186 = ORIENTED_EDGE('',*,*,#21,.T.);
#187 = ADVANCED_FACE('',(#188),#122,.T.);
#188 = FACE_BOUND('',#189,.T.);
#189 = EDGE_LOOP('',(#190,#191));
#190 = ORIENTED_EDGE('',*,*,#78,.T.);
#191 = ORIENTED_EDGE('',*,*,#134,.T.);
#192 = ( GEOMETRIC_REPRESENTATION_CONTEXT(3) 
GLOBAL_UNCERTAINTY_ASSIGNED_CONTEXT((#196)) GLOBAL_UNIT_ASSIGNED_CONTEXT
((#193,#194,#195)) REPRESENTATION_CONTEXT('Context #1',
  '3D Context with UNIT and UNCERTAINTY') );
#193 = ( LENGTH_UNIT() NAMED_UNIT(*) SI_UNIT(.MILLI.,.METRE.) );
#194 = ( NAMED_UNIT(*) PLANE_ANGLE_UNIT() SI_UNIT($,.RADIAN.) );
#195 = ( NAMED_UNIT(*) SI_UNIT($,.STERADIAN.) SOLID_ANGLE_UNIT() );
#196 = UNCERTAINTY_MEASURE_WITH_UNIT(LENGTH_MEASURE(1.E-07),#193,
  'distance_accuracy_value','confusion accuracy');
#197 = PRODUCT_RELATED_PRODUCT_CATEGORY('part',$,(#7));
ENDSEC;
END-ISO-10303-21;
