ISO-10303-21;
HEADER;
FILE_DESCRIPTION(('Open CASCADE Model'),'2;1');
FILE_NAME('Open CASCADE Shape Model','2026-08-07T02:34:16',('Author'),(
    'Open CASCADE'),'Open CASCADE STEP processor 7.7','Open CASCADE 7.7'
  ,'Unknown');
FILE_SCHEMA(('AUTOMOTIVE_DESIGN { 1 0 10303 214 1 1 1 1 }'));
ENDSEC;
DATA;
#1 = APPLICATION_PROTOCOL_DEFINITION('international standard',
  'automotive_design',2000,#2);
#2 = APPLICATION_CONTEXT(
  'core data for automotive mechanical design processes');
#3 = SHAPE_DEFINITION_REPRESENTATION(#4,#10);
#4 = PRODUCT_DEFINITION_SHAPE('','',#5);
#5 = PRODUCT_DEFINITION('design','',#6,#9);
#6 = PRODUCT_DEFINITION_FORMATION('','',#7);
#7 = PRODUCT('Open CASCADE STEP translator 7.7 6',
  'Open CASCADE STEP translator 7.7 6','',(#8));
#8 = PRODUCT_CONTEXT('',#2,'mechanical');
#9 = PRODUCT_DEFINITION_CONTEXT('part definition',#2,'design');
#10 = ADVANCED_BREP_SHAPE_REPRESENTATION('',(#11,#15),#632);
#11 = AXIS2_PLACEMENT_3D('',#12,#13,#14);
#12 = CARTESIAN_POINT('',(0.,0.,0.));
#13 = DIRECTION('',(0.,0.,1.));
#14 = DIRECTION('',(1.,0.,-0.));
#15 = MANIFOLD_SOLID_BREP('',#16);
#16 = CLOSED_SHELL('',(#17,#522,#571,#598,#625));
#17 = ADVANCED_FACE('',(#18),#33,.T.);
#18 = FACE_BOUND('',#19,.T.);
#19 = EDGE_LOOP('',(#20,#69,#93,#130,#186,#242,#298,#333,#334,#371,#422,
    #473));
#20 = ORIENTED_EDGE('',*,*,#21,.F.);
#21 = EDGE_CURVE('',#22,#24,#26,.T.);
#22 = VERTEX_POINT('',#23);
#23 = CARTESIAN_POINT('',(10.,-2.449293598295E-15,22.912878474779));
#24 = VERTEX_POINT('',#25);
#25 = CARTESIAN_POINT('',(10.,10.,20.615528128088));
#26 = SURFACE_CURVE('',#27,(#32,#57),.PCURVE_S1.);
#27 = CIRCLE('',#28,22.912878474779);
#28 = AXIS2_PLACEMENT_3D('',#29,#30,#31);
#29 = CARTESIAN_POINT('',(10.,0.,0.));
#30 = DIRECTION('',(-1.,0.,0.));
#31 = DIRECTION('',(0.,0.,-1.));
#32 = PCURVE('',#33,#38);
#33 = SPHERICAL_SURFACE('',#34,25.);
#34 = AXIS2_PLACEMENT_3D('',#35,#36,#37);
#35 = CARTESIAN_POINT('',(0.,0.,0.));
#36 = DIRECTION('',(0.,0.,1.));
#37 = DIRECTION('',(1.,0.,0.));
#38 = DEFINITIONAL_REPRESENTATION('',(#39),#56);
#39 = B_SPLINE_CURVE_WITH_KNOTS('',8,(#40,#41,#42,#43,#44,#45,#46,#47,
    #48,#49,#50,#51,#52,#53,#54,#55),.UNSPECIFIED.,.F.,.F.,(9,7,9),(
    3.14159265359,3.36740937413,3.593226094669),.UNSPECIFIED.);
#40 = CARTESIAN_POINT('',(0.,1.159279480727));
#41 = CARTESIAN_POINT('',(6.467638844126E-02,1.159279480727));
#42 = CARTESIAN_POINT('',(0.129352725346,1.157193039408));
#43 = CARTESIAN_POINT('',(0.193126404959,1.153020261814));
#44 = CARTESIAN_POINT('',(0.255092771115,1.146820083424));
#45 = CARTESIAN_POINT('',(0.314505700758,1.138712701137));
#46 = CARTESIAN_POINT('',(0.370921951773,1.128851831143));
#47 = CARTESIAN_POINT('',(0.424112399827,1.117399553873));
#48 = CARTESIAN_POINT('',(0.523913901382,1.091630443432));
#49 = CARTESIAN_POINT('',(0.570524902194,1.077313602994));
#50 = CARTESIAN_POINT('',(0.61378148102,1.061723513552));
#51 = CARTESIAN_POINT('',(0.65378153871,1.04501596577));
#52 = CARTESIAN_POINT('',(0.690719089696,1.027330348028));
#53 = CARTESIAN_POINT('',(0.724816206027,1.008787539776));
#54 = CARTESIAN_POINT('',(0.756302344934,0.989491676916));
#55 = CARTESIAN_POINT('',(0.785398163397,0.969532110116));
#56 = ( GEOMETRIC_REPRESENTATION_CONTEXT(2) 
PARAMETRIC_REPRESENTATION_CONTEXT() REPRESENTATION_CONTEXT('2D SPACE',''
  ) );
#57 = PCURVE('',#58,#63);
#58 = PLANE('',#59);
#59 = AXIS2_PLACEMENT_3D('',#60,#61,#62);
#60 = CARTESIAN_POINT('',(10.,-10.,0.));
#61 = DIRECTION('',(-1.,0.,0.));
#62 = DIRECTION('',(0.,1.,0.));
#63 = DEFINITIONAL_REPRESENTATION('',(#64),#68);
#64 = CIRCLE('',#65,22.912878474779);
#65 = AXIS2_PLACEMENT_2D('',#66,#67);
#66 = CARTESIAN_POINT('',(10.,0.));
#67 = DIRECTION('',(0.,1.));
#68 = ( GEOMETRIC_REPRESENTATION_CONTEXT(2) 
PARAMETRIC_REPRESENTATION_CONTEXT() REPRESENTATION_CONTEXT('2D SPACE',''
  ) );
#69 = ORIENTED_EDGE('',*,*,#70,.F.);
#70 = EDGE_CURVE('',#71,#22,#73,.T.);
#71 = VERTEX_POINT('',#72);
#72 = CARTESIAN_POINT('',(10.,-2.449293598295E-15,-22.91287847477));
#73 = SEAM_CURVE('',#74,(#79,#86),.PCURVE_S1.);
#74 = CIRCLE('',#75,25.);
#75 = AXIS2_PLACEMENT_3D('',#76,#77,#78);
#76 = CARTESIAN_POINT('',(0.,0.,0.));
#77 = DIRECTION('',(-2.449293598295E-16,-1.,0.));
#78 = DIRECTION('',(1.,-2.449293598295E-16,0.));
#79 = PCURVE('',#33,#80);
#80 = DEFINITIONAL_REPRESENTATION('',(#81),#85);
#81 = LINE('',#82,#83);
#82 = CARTESIAN_POINT('',(6.28318530718,-6.28318530718));
#83 = VECTOR('',#84,1.);
#84 = DIRECTION('',(0.,1.));
#85 = ( GEOMETRIC_REPRESENTATION_CONTEXT(2) 
PARAMETRIC_REPRESENTATION_CONTEXT() REPRESENTATION_CONTEXT('2D SPACE',''
  ) );
#86 = PCURVE('',#33,#87);
#87 = DEFINITIONAL_REPRESENTATION('',(#88),#92);
#88 = LINE('',#89,#90);
#89 = CARTESIAN_POINT('',(0.,-6.28318530718));
#90 = VECTOR('',#91,1.);
#91 = DIRECTION('',(0.,1.));
#92 = ( GEOMETRIC_REPRESENTATION_CONTEXT(2) 
PARAMETRIC_REPRESENTATION_CONTEXT() REPRESENTATION_CONTEXT('2D SPACE',''
  ) );
#93 = ORIENTED_EDGE('',*,*,#94,.F.);
#94 = EDGE_CURVE('',#95,#71,#97,.T.);
#95 = VERTEX_POINT('',#96);
#96 = CARTESIAN_POINT('',(10.,10.,-20.61552812808));
#97 = SURFACE_CURVE('',#98,(#103,#123),.PCURVE_S1.);
#98 = CIRCLE('',#99,22.912878474779);
#99 = AXIS2_PLACEMENT_3D('',#100,#101,#102);
#100 = CARTESIAN_POINT('',(10.,0.,0.));
#101 = DIRECTION('',(-1.,0.,0.));
#102 = DIRECTION('',(0.,0.,-1.));
#103 = PCURVE('',#33,#104);
#104 = DEFINITIONAL_REPRESENTATION('',(#105),#122);
#105 = B_SPLINE_CURVE_WITH_KNOTS('',8,(#106,#107,#108,#109,#110,#111,
    #112,#113,#114,#115,#116,#117,#118,#119,#120,#121),.UNSPECIFIED.,.F.
  ,.F.,(9,7,9),(5.8315518661,6.05736858664,6.28318530718),
  .UNSPECIFIED.);
#106 = CARTESIAN_POINT('',(0.785398163397,-0.969532110116));
#107 = CARTESIAN_POINT('',(0.756302344934,-0.989491676916));
#108 = CARTESIAN_POINT('',(0.724816206027,-1.008787539775));
#109 = CARTESIAN_POINT('',(0.690719089699,-1.02733034803));
#110 = CARTESIAN_POINT('',(0.653781538706,-1.045015965762));
#111 = CARTESIAN_POINT('',(0.613781481021,-1.061723513555));
#112 = CARTESIAN_POINT('',(0.570524902194,-1.077313602993));
#113 = CARTESIAN_POINT('',(0.523913901382,-1.091630443432));
#114 = CARTESIAN_POINT('',(0.424112399827,-1.117399553873));
#115 = CARTESIAN_POINT('',(0.370921951773,-1.128851831145));
#116 = CARTESIAN_POINT('',(0.314505700758,-1.138712701133));
#117 = CARTESIAN_POINT('',(0.255092771116,-1.14682008343));
#118 = CARTESIAN_POINT('',(0.193126404959,-1.153020261814));
#119 = CARTESIAN_POINT('',(0.129352725346,-1.157193039409));
#120 = CARTESIAN_POINT('',(6.467638844126E-02,-1.159279480727));
#121 = CARTESIAN_POINT('',(5.612036656678E-16,-1.159279480727));
#122 = ( GEOMETRIC_REPRESENTATION_CONTEXT(2) 
PARAMETRIC_REPRESENTATION_CONTEXT() REPRESENTATION_CONTEXT('2D SPACE',''
  ) );
#123 = PCURVE('',#58,#124);
#124 = DEFINITIONAL_REPRESENTATION('',(#125),#129);
#125 = CIRCLE('',#126,22.912878474779);
#126 = AXIS2_PLACEMENT_2D('',#127,#128);
#127 = CARTESIAN_POINT('',(10.,0.));
#128 = DIRECTION('',(0.,1.));
#129 = ( GEOMETRIC_REPRESENTATION_CONTEXT(2) 
PARAMETRIC_REPRESENTATION_CONTEXT() REPRESENTATION_CONTEXT('2D SPACE',''
  ) );
#130 = ORIENTED_EDGE('',*,*,#131,.F.);
#131 = EDGE_CURVE('',#132,#95,#134,.T.);
#132 = VERTEX_POINT('',#133);
#133 = CARTESIAN_POINT('',(-10.,10.,-20.61552812808));
#134 = SURFACE_CURVE('',#135,(#140,#174),.PCURVE_S1.);
#135 = CIRCLE('',#136,22.912878474779);
#136 = AXIS2_PLACEMENT_3D('',#137,#138,#139);
#137 = CARTESIAN_POINT('',(0.,10.,0.));
#138 = DIRECTION('',(0.,-1.,0.));
#139 = DIRECTION('',(0.,-0.,-1.));
#140 = PCURVE('',#33,#141);
#141 = DEFINITIONAL_REPRESENTATION('',(#142),#173);
#142 = B_SPLINE_CURVE_WITH_KNOTS('',8,(#143,#144,#145,#146,#147,#148,
    #149,#150,#151,#152,#153,#154,#155,#156,#157,#158,#159,#160,#161,
    #162,#163,#164,#165,#166,#167,#168,#169,#170,#171,#172),
  .UNSPECIFIED.,.F.,.F.,(9,7,7,7,9),(5.8315518661,6.05736858664,
    6.226731127045,6.480774937652,6.734818748259),.UNSPECIFIED.);
#143 = CARTESIAN_POINT('',(2.356194490192,-0.969532110116));
#144 = CARTESIAN_POINT('',(2.327098671729,-0.989491676916));
#145 = CARTESIAN_POINT('',(2.295612532822,-1.008787539775));
#146 = CARTESIAN_POINT('',(2.261515416493,-1.02733034803));
#147 = CARTESIAN_POINT('',(2.224577865494,-1.045015965762));
#148 = CARTESIAN_POINT('',(2.184577807815,-1.061723513555));
#149 = CARTESIAN_POINT('',(2.141321228988,-1.077313602993));
#150 = CARTESIAN_POINT('',(2.094710228176,-1.091630443432));
#151 = CARTESIAN_POINT('',(2.007383914317,-1.114178415068));
#152 = CARTESIAN_POINT('',(1.968107830907,-1.123036175767));
#153 = CARTESIAN_POINT('',(1.927008619436,-1.131021141753));
#154 = CARTESIAN_POINT('',(1.884164273005,-1.138065273908));
#155 = CARTESIAN_POINT('',(1.839719851534,-1.144102191847));
#156 = CARTESIAN_POINT('',(1.793899260234,-1.14907257341));
#157 = CARTESIAN_POINT('',(1.747001086716,-1.15292993447));
#158 = CARTESIAN_POINT('',(1.62791647708,-1.159715920219));
#159 = CARTESIAN_POINT('',(1.554810438378,-1.161215788755));
#160 = CARTESIAN_POINT('',(1.481205108966,-1.160043082475));
#161 = CARTESIAN_POINT('',(1.408475119913,-1.156178403639));
#162 = CARTESIAN_POINT('',(1.338037491497,-1.14971598505));
#163 = CARTESIAN_POINT('',(1.270844282391,-1.140844261681));
#164 = CARTESIAN_POINT('',(1.207453118991,-1.129781875312));
#165 = CARTESIAN_POINT('',(1.088773421524,-1.103729120356));
#166 = CARTESIAN_POINT('',(1.033484844241,-1.088738720606));
#167 = CARTESIAN_POINT('',(0.982497364775,-1.07201057052));
#168 = CARTESIAN_POINT('',(0.935751945216,-1.053777559041));
#169 = CARTESIAN_POINT('',(0.892986342458,-1.034248443947));
#170 = CARTESIAN_POINT('',(0.853889030099,-1.013601131855));
#171 = CARTESIAN_POINT('',(0.818130959168,-0.991986622766));
#172 = CARTESIAN_POINT('',(0.785398163397,-0.969532110116));
#173 = ( GEOMETRIC_REPRESENTATION_CONTEXT(2) 
PARAMETRIC_REPRESENTATION_CONTEXT() REPRESENTATION_CONTEXT('2D SPACE',''
  ) );
#174 = PCURVE('',#175,#180);
#175 = PLANE('',#176);
#176 = AXIS2_PLACEMENT_3D('',#177,#178,#179);
#177 = CARTESIAN_POINT('',(10.,10.,0.));
#178 = DIRECTION('',(0.,-1.,0.));
#179 = DIRECTION('',(-1.,0.,0.));
#180 = DEFINITIONAL_REPRESENTATION('',(#181),#185);
#181 = CIRCLE('',#182,22.912878474779);
#182 = AXIS2_PLACEMENT_2D('',#183,#184);
#183 = CARTESIAN_POINT('',(10.,0.));
#184 = DIRECTION('',(-0.,1.));
#185 = ( GEOMETRIC_REPRESENTATION_CONTEXT(2) 
PARAMETRIC_REPRESENTATION_CONTEXT() REPRESENTATION_CONTEXT('2D SPACE',''
  ) );
#186 = ORIENTED_EDGE('',*,*,#187,.F.);
#187 = EDGE_CURVE('',#188,#132,#190,.T.);
#188 = VERTEX_POINT('',#189);
#189 = CARTESIAN_POINT('',(-10.,-10.,-20.61552812808));
#190 = SURFACE_CURVE('',#191,(#196,#230),.PCURVE_S1.);
#191 = CIRCLE('',#192,22.912878474779);
#192 = AXIS2_PLACEMENT_3D('',#193,#194,#195);
#193 = CARTESIAN_POINT('',(-10.,0.,0.));
#194 = DIRECTION('',(1.,0.,-0.));
#195 = DIRECTION('',(0.,0.,1.));
#196 = PCURVE('',#33,#197);
#197 = DEFINITIONAL_REPRESENTATION('',(#198),#229);
#198 = B_SPLINE_CURVE_WITH_KNOTS('',8,(#199,#200,#201,#202,#203,#204,
    #205,#206,#207,#208,#209,#210,#211,#212,#213,#214,#215,#216,#217,
    #218,#219,#220,#221,#222,#223,#224,#225,#226,#227,#228),
  .UNSPECIFIED.,.F.,.F.,(9,7,7,7,9),(2.68995921251,2.91577593305,
    3.085138473455,3.339182284062,3.593226094669),.UNSPECIFIED.);
#199 = CARTESIAN_POINT('',(3.926990816987,-0.969532110116));
#200 = CARTESIAN_POINT('',(3.897894998524,-0.989491676916));
#201 = CARTESIAN_POINT('',(3.866408859618,-1.008787539777));
#202 = CARTESIAN_POINT('',(3.832311743288,-1.027330348027));
#203 = CARTESIAN_POINT('',(3.795374192297,-1.045015965771));
#204 = CARTESIAN_POINT('',(3.755374134609,-1.061723513549));
#205 = CARTESIAN_POINT('',(3.712117555785,-1.077313602994));
#206 = CARTESIAN_POINT('',(3.665506554971,-1.091630443432));
#207 = CARTESIAN_POINT('',(3.578180241111,-1.114178415068));
#208 = CARTESIAN_POINT('',(3.538904157702,-1.123036175767));
#209 = CARTESIAN_POINT('',(3.497804946231,-1.131021141753));
#210 = CARTESIAN_POINT('',(3.4549605998,-1.138065273908));
#211 = CARTESIAN_POINT('',(3.410516178329,-1.144102191848));
#212 = CARTESIAN_POINT('',(3.364695587029,-1.14907257341));
#213 = CARTESIAN_POINT('',(3.31779741351,-1.15292993447));
#214 = CARTESIAN_POINT('',(3.198712803875,-1.159715920219));
#215 = CARTESIAN_POINT('',(3.125606765171,-1.161215788755));
#216 = CARTESIAN_POINT('',(3.052001435753,-1.160043082476));
#217 = CARTESIAN_POINT('',(2.9792714467,-1.156178403638));
#218 = CARTESIAN_POINT('',(2.908833818292,-1.149715985051));
#219 = CARTESIAN_POINT('',(2.841640609184,-1.140844261681));
#220 = CARTESIAN_POINT('',(2.778249445786,-1.129781875312));
#221 = CARTESIAN_POINT('',(2.659569748318,-1.103729120356));
#222 = CARTESIAN_POINT('',(2.604281171035,-1.088738720605));
#223 = CARTESIAN_POINT('',(2.55329369156,-1.072010570521));
#224 = CARTESIAN_POINT('',(2.506548272015,-1.053777559037));
#225 = CARTESIAN_POINT('',(2.463782669245,-1.034248443948));
#226 = CARTESIAN_POINT('',(2.424685356893,-1.013601131854));
#227 = CARTESIAN_POINT('',(2.388927285963,-0.991986622766));
#228 = CARTESIAN_POINT('',(2.356194490192,-0.969532110116));
#229 = ( GEOMETRIC_REPRESENTATION_CONTEXT(2) 
PARAMETRIC_REPRESENTATION_CONTEXT() REPRESENTATION_CONTEXT('2D SPACE',''
  ) );
#230 = PCURVE('',#231,#236);
#231 = PLANE('',#232);
#232 = AXIS2_PLACEMENT_3D('',#233,#234,#235);
#233 = CARTESIAN_POINT('',(-10.,10.,0.));
#234 = DIRECTION('',(1.,0.,-0.));
#235 = DIRECTION('',(0.,-1.,0.));
#236 = DEFINITIONAL_REPRESENTATION('',(#237),#241);
#237 = CIRCLE('',#238,22.912878474779);
#238 = AXIS2_PLACEMENT_2D('',#239,#240);
#239 = CARTESIAN_POINT('',(10.,0.));
#240 = DIRECTION('',(0.,-1.));
#241 = ( GEOMETRIC_REPRESENTATION_CONTEXT(2) 
PARAMETRIC_REPRESENTATION_CONTEXT() REPRESENTATION_CONTEXT('2D SPACE',''
  ) );
#242 = ORIENTED_EDGE('',*,*,#243,.F.);
#243 = EDGE_CURVE('',#244,#188,#246,.T.);
#244 = VERTEX_POINT('',#245);
#245 = CARTESIAN_POINT('',(10.,-10.,-20.61552812808));
#246 = SURFACE_CURVE('',#247,(#252,#286),.PCURVE_S1.);
#247 = CIRCLE('',#248,22.912878474779);
#248 = AXIS2_PLACEMENT_3D('',#249,#250,#251);
#249 = CARTESIAN_POINT('',(0.,-10.,0.));
#250 = DIRECTION('',(0.,1.,0.));
#251 = DIRECTION('',(0.,-0.,1.));
#252 = PCURVE('',#33,#253);
#253 = DEFINITIONAL_REPRESENTATION('',(#254),#285);
#254 = B_SPLINE_CURVE_WITH_KNOTS('',8,(#255,#256,#257,#258,#259,#260,
    #261,#262,#263,#264,#265,#266,#267,#268,#269,#270,#271,#272,#273,
    #274,#275,#276,#277,#278,#279,#280,#281,#282,#283,#284),
  .UNSPECIFIED.,.F.,.F.,(9,7,7,7,9),(2.68995921251,2.91577593305,
    3.085138473455,3.339182284062,3.593226094669),.UNSPECIFIED.);
#255 = CARTESIAN_POINT('',(5.497787143782,-0.969532110116));
#256 = CARTESIAN_POINT('',(5.468691325319,-0.989491676916));
#257 = CARTESIAN_POINT('',(5.437205186405,-1.008787539777));
#258 = CARTESIAN_POINT('',(5.403108070082,-1.027330348027));
#259 = CARTESIAN_POINT('',(5.366170519079,-1.045015965771));
#260 = CARTESIAN_POINT('',(5.326170461387,-1.061723513549));
#261 = CARTESIAN_POINT('',(5.282913882575,-1.077313602994));
#262 = CARTESIAN_POINT('',(5.236302881766,-1.091630443432));
#263 = CARTESIAN_POINT('',(5.148976567906,-1.114178415068));
#264 = CARTESIAN_POINT('',(5.109700484497,-1.123036175767));
#265 = CARTESIAN_POINT('',(5.068601273025,-1.131021141753));
#266 = CARTESIAN_POINT('',(5.025756926594,-1.138065273908));
#267 = CARTESIAN_POINT('',(4.981312505123,-1.144102191848));
#268 = CARTESIAN_POINT('',(4.935491913823,-1.14907257341));
#269 = CARTESIAN_POINT('',(4.888593740305,-1.15292993447));
#270 = CARTESIAN_POINT('',(4.769509130669,-1.159715920219));
#271 = CARTESIAN_POINT('',(4.696403091968,-1.161215788755));
#272 = CARTESIAN_POINT('',(4.622797762546,-1.160043082476));
#273 = CARTESIAN_POINT('',(4.550067773504,-1.156178403638));
#274 = CARTESIAN_POINT('',(4.479630145075,-1.149715985051));
#275 = CARTESIAN_POINT('',(4.412436935982,-1.140844261681));
#276 = CARTESIAN_POINT('',(4.349045772581,-1.129781875312));
#277 = CARTESIAN_POINT('',(4.230366075113,-1.103729120356));
#278 = CARTESIAN_POINT('',(4.175077497827,-1.088738720605));
#279 = CARTESIAN_POINT('',(4.12409001836,-1.072010570521));
#280 = CARTESIAN_POINT('',(4.077344598791,-1.053777559037));
#281 = CARTESIAN_POINT('',(4.034578996057,-1.034248443948));
#282 = CARTESIAN_POINT('',(3.995481683683,-1.013601131854));
#283 = CARTESIAN_POINT('',(3.959723612758,-0.991986622766));
#284 = CARTESIAN_POINT('',(3.926990816987,-0.969532110116));
#285 = ( GEOMETRIC_REPRESENTATION_CONTEXT(2) 
PARAMETRIC_REPRESENTATION_CONTEXT() REPRESENTATION_CONTEXT('2D SPACE',''
  ) );
#286 = PCURVE('',#287,#292);
#287 = PLANE('',#288);
#288 = AXIS2_PLACEMENT_3D('',#289,#290,#291);
#289 = CARTESIAN_POINT('',(-10.,-10.,0.));
#290 = DIRECTION('',(0.,1.,0.));
#291 = DIRECTION('',(1.,0.,0.));
#292 = DEFINITIONAL_REPRESENTATION('',(#293),#297);
#293 = CIRCLE('',#294,22.912878474779);
#294 = AXIS2_PLACEMENT_2D('',#295,#296);
#295 = CARTESIAN_POINT('',(10.,0.));
#296 = DIRECTION('',(0.,-1.));
#297 = ( GEOMETRIC_REPRESENTATION_CONTEXT(2) 
PARAMETRIC_REPRESENTATION_CONTEXT() REPRESENTATION_CONTEXT('2D SPACE',''
  ) );
#298 = ORIENTED_EDGE('',*,*,#299,.F.);
#299 = EDGE_CURVE('',#71,#244,#300,.T.);
#300 = SURFACE_CURVE('',#301,(#306,#326),.PCURVE_S1.);
#301 = CIRCLE('',#302,22.912878474779);
#302 = AXIS2_PLACEMENT_3D('',#303,#304,#305);
#303 = CARTESIAN_POINT('',(10.,0.,0.));
#304 = DIRECTION('',(-1.,0.,0.));
#305 = DIRECTION('',(0.,0.,-1.));
#306 = PCURVE('',#33,#307);
#307 = DEFINITIONAL_REPRESENTATION('',(#308),#325);
#308 = B_SPLINE_CURVE_WITH_KNOTS('',8,(#309,#310,#311,#312,#313,#314,
    #315,#316,#317,#318,#319,#320,#321,#322,#323,#324),.UNSPECIFIED.,.F.
  ,.F.,(9,7,9),(0.,0.22581672054,0.45163344108),.UNSPECIFIED.);
#309 = CARTESIAN_POINT('',(6.28318530718,-1.159279480727));
#310 = CARTESIAN_POINT('',(6.218508918738,-1.159279480727));
#311 = CARTESIAN_POINT('',(6.153832581834,-1.157193039408));
#312 = CARTESIAN_POINT('',(6.090058902221,-1.153020261818));
#313 = CARTESIAN_POINT('',(6.028092536064,-1.146820083421));
#314 = CARTESIAN_POINT('',(5.968679606421,-1.138712701139));
#315 = CARTESIAN_POINT('',(5.912263355407,-1.128851831143));
#316 = CARTESIAN_POINT('',(5.859072907352,-1.117399553873));
#317 = CARTESIAN_POINT('',(5.759271405798,-1.091630443432));
#318 = CARTESIAN_POINT('',(5.712660404986,-1.077313602994));
#319 = CARTESIAN_POINT('',(5.669403826159,-1.061723513551));
#320 = CARTESIAN_POINT('',(5.629403768471,-1.045015965771));
#321 = CARTESIAN_POINT('',(5.592466217483,-1.027330348028));
#322 = CARTESIAN_POINT('',(5.558369101153,-1.008787539776));
#323 = CARTESIAN_POINT('',(5.526882962245,-0.989491676916));
#324 = CARTESIAN_POINT('',(5.497787143782,-0.969532110116));
#325 = ( GEOMETRIC_REPRESENTATION_CONTEXT(2) 
PARAMETRIC_REPRESENTATION_CONTEXT() REPRESENTATION_CONTEXT('2D SPACE',''
  ) );
#326 = PCURVE('',#58,#327);
#327 = DEFINITIONAL_REPRESENTATION('',(#328),#332);
#328 = CIRCLE('',#329,22.912878474779);
#329 = AXIS2_PLACEMENT_2D('',#330,#331);
#330 = CARTESIAN_POINT('',(10.,0.));
#331 = DIRECTION('',(0.,1.));
#332 = ( GEOMETRIC_REPRESENTATION_CONTEXT(2) 
PARAMETRIC_REPRESENTATION_CONTEXT() REPRESENTATION_CONTEXT('2D SPACE',''
  ) );
#333 = ORIENTED_EDGE('',*,*,#70,.T.);
#334 = ORIENTED_EDGE('',*,*,#335,.F.);
#335 = EDGE_CURVE('',#336,#22,#338,.T.);
#336 = VERTEX_POINT('',#337);
#337 = CARTESIAN_POINT('',(10.,-10.,20.615528128088));
#338 = SURFACE_CURVE('',#339,(#344,#364),.PCURVE_S1.);
#339 = CIRCLE('',#340,22.912878474779);
#340 = AXIS2_PLACEMENT_3D('',#341,#342,#343);
#341 = CARTESIAN_POINT('',(10.,0.,0.));
#342 = DIRECTION('',(-1.,0.,0.));
#343 = DIRECTION('',(0.,0.,-1.));
#344 = PCURVE('',#33,#345);
#345 = DEFINITIONAL_REPRESENTATION('',(#346),#363);
#346 = B_SPLINE_CURVE_WITH_KNOTS('',8,(#347,#348,#349,#350,#351,#352,
    #353,#354,#355,#356,#357,#358,#359,#360,#361,#362),.UNSPECIFIED.,.F.
  ,.F.,(9,7,9),(2.68995921251,2.91577593305,3.14159265359),
  .UNSPECIFIED.);
#347 = CARTESIAN_POINT('',(5.497787143782,0.969532110116));
#348 = CARTESIAN_POINT('',(5.526882962245,0.989491676916));
#349 = CARTESIAN_POINT('',(5.558369101152,1.008787539777));
#350 = CARTESIAN_POINT('',(5.592466217482,1.027330348027));
#351 = CARTESIAN_POINT('',(5.629403768473,1.045015965771));
#352 = CARTESIAN_POINT('',(5.669403826159,1.061723513549));
#353 = CARTESIAN_POINT('',(5.712660404986,1.077313602994));
#354 = CARTESIAN_POINT('',(5.759271405798,1.091630443432));
#355 = CARTESIAN_POINT('',(5.859072907352,1.117399553873));
#356 = CARTESIAN_POINT('',(5.912263355407,1.128851831146));
#357 = CARTESIAN_POINT('',(5.968679606423,1.138712701127));
#358 = CARTESIAN_POINT('',(6.028092536064,1.146820083439));
#359 = CARTESIAN_POINT('',(6.090058902221,1.153020261807));
#360 = CARTESIAN_POINT('',(6.153832581833,1.157193039411));
#361 = CARTESIAN_POINT('',(6.218508918738,1.159279480727));
#362 = CARTESIAN_POINT('',(6.28318530718,1.159279480727));
#363 = ( GEOMETRIC_REPRESENTATION_CONTEXT(2) 
PARAMETRIC_REPRESENTATION_CONTEXT() REPRESENTATION_CONTEXT('2D SPACE',''
  ) );
#364 = PCURVE('',#58,#365);
#365 = DEFINITIONAL_REPRESENTATION('',(#366),#370);
#366 = CIRCLE('',#367,22.912878474779);
#367 = AXIS2_PLACEMENT_2D('',#368,#369);
#368 = CARTESIAN_POINT('',(10.,0.));
#369 = DIRECTION('',(0.,1.));
#370 = ( GEOMETRIC_REPRESENTATION_CONTEXT(2) 
PARAMETRIC_REPRESENTATION_CONTEXT() REPRESENTATION_CONTEXT('2D SPACE',''
  ) );
#371 = ORIENTED_EDGE('',*,*,#372,.F.);
#372 = EDGE_CURVE('',#373,#336,#375,.T.);
#373 = VERTEX_POINT('',#374);
#374 = CARTESIAN_POINT('',(-10.,-10.,20.615528128088));
#375 = SURFACE_CURVE('',#376,(#381,#415),.PCURVE_S1.);
#376 = CIRCLE('',#377,22.912878474779);
#377 = AXIS2_PLACEMENT_3D('',#378,#379,#380);
#378 = CARTESIAN_POINT('',(0.,-10.,0.));
#379 = DIRECTION('',(0.,1.,0.));
#380 = DIRECTION('',(0.,-0.,1.));
#381 = PCURVE('',#33,#382);
#382 = DEFINITIONAL_REPRESENTATION('',(#383),#414);
#383 = B_SPLINE_CURVE_WITH_KNOTS('',8,(#384,#385,#386,#387,#388,#389,
    #390,#391,#392,#393,#394,#395,#396,#397,#398,#399,#400,#401,#402,
    #403,#404,#405,#406,#407,#408,#409,#410,#411,#412,#413),
  .UNSPECIFIED.,.F.,.F.,(9,7,7,7,9),(5.8315518661,6.05736858664,
    6.226731127045,6.480774937652,6.734818748259),.UNSPECIFIED.);
#384 = CARTESIAN_POINT('',(3.926990816987,0.969532110116));
#385 = CARTESIAN_POINT('',(3.95608663545,0.989491676916));
#386 = CARTESIAN_POINT('',(3.987572774348,1.008787539775));
#387 = CARTESIAN_POINT('',(4.021669890701,1.02733034803));
#388 = CARTESIAN_POINT('',(4.058607441628,1.045015965762));
#389 = CARTESIAN_POINT('',(4.09860749938,1.061723513555));
#390 = CARTESIAN_POINT('',(4.14186407818,1.077313602993));
#391 = CARTESIAN_POINT('',(4.188475079003,1.091630443432));
#392 = CARTESIAN_POINT('',(4.275801392863,1.114178415068));
#393 = CARTESIAN_POINT('',(4.315077476273,1.123036175767));
#394 = CARTESIAN_POINT('',(4.356176687745,1.131021141753));
#395 = CARTESIAN_POINT('',(4.399021034175,1.138065273908));
#396 = CARTESIAN_POINT('',(4.443465455646,1.144102191847));
#397 = CARTESIAN_POINT('',(4.489286046946,1.14907257341));
#398 = CARTESIAN_POINT('',(4.536184220464,1.15292993447));
#399 = CARTESIAN_POINT('',(4.6552688301,1.159715920219));
#400 = CARTESIAN_POINT('',(4.728374868805,1.161215788755));
#401 = CARTESIAN_POINT('',(4.801980198188,1.160043082475));
#402 = CARTESIAN_POINT('',(4.874710187269,1.156178403639));
#403 = CARTESIAN_POINT('',(4.945147815659,1.14971598505));
#404 = CARTESIAN_POINT('',(5.012341024792,1.140844261681));
#405 = CARTESIAN_POINT('',(5.075732188188,1.129781875312));
#406 = CARTESIAN_POINT('',(5.194411885656,1.103729120356));
#407 = CARTESIAN_POINT('',(5.249700462941,1.088738720606));
#408 = CARTESIAN_POINT('',(5.300687942385,1.07201057052));
#409 = CARTESIAN_POINT('',(5.347433361971,1.053777559041));
#410 = CARTESIAN_POINT('',(5.390198964717,1.034248443947));
#411 = CARTESIAN_POINT('',(5.429296277083,1.013601131855));
#412 = CARTESIAN_POINT('',(5.465054348011,0.991986622766));
#413 = CARTESIAN_POINT('',(5.497787143782,0.969532110116));
#414 = ( GEOMETRIC_REPRESENTATION_CONTEXT(2) 
PARAMETRIC_REPRESENTATION_CONTEXT() REPRESENTATION_CONTEXT('2D SPACE',''
  ) );
#415 = PCURVE('',#287,#416);
#416 = DEFINITIONAL_REPRESENTATION('',(#417),#421);
#417 = CIRCLE('',#418,22.912878474779);
#418 = AXIS2_PLACEMENT_2D('',#419,#420);
#419 = CARTESIAN_POINT('',(10.,0.));
#420 = DIRECTION('',(0.,-1.));
#421 = ( GEOMETRIC_REPRESENTATION_CONTEXT(2) 
PARAMETRIC_REPRESENTATION_CONTEXT() REPRESENTATION_CONTEXT('2D SPACE',''
  ) );
#422 = ORIENTED_EDGE('',*,*,#423,.F.);
#423 = EDGE_CURVE('',#424,#373,#426,.T.);
#424 = VERTEX_POINT('',#425);
#425 = CARTESIAN_POINT('',(-10.,10.,20.615528128088));
#426 = SURFACE_CURVE('',#427,(#432,#466),.PCURVE_S1.);
#427 = CIRCLE('',#428,22.912878474779);
#428 = AXIS2_PLACEMENT_3D('',#429,#430,#431);
#429 = CARTESIAN_POINT('',(-10.,0.,0.));
#430 = DIRECTION('',(1.,0.,-0.));
#431 = DIRECTION('',(0.,0.,1.));
#432 = PCURVE('',#33,#433);
#433 = DEFINITIONAL_REPRESENTATION('',(#434),#465);
#434 = B_SPLINE_CURVE_WITH_KNOTS('',8,(#435,#436,#437,#438,#439,#440,
    #441,#442,#443,#444,#445,#446,#447,#448,#449,#450,#451,#452,#453,
    #454,#455,#456,#457,#458,#459,#460,#461,#462,#463,#464),
  .UNSPECIFIED.,.F.,.F.,(9,7,7,7,9),(5.8315518661,6.05736858664,
    6.226731127045,6.480774937652,6.734818748259),.UNSPECIFIED.);
#435 = CARTESIAN_POINT('',(2.356194490192,0.969532110116));
#436 = CARTESIAN_POINT('',(2.385290308655,0.989491676916));
#437 = CARTESIAN_POINT('',(2.416776447563,1.008787539775));
#438 = CARTESIAN_POINT('',(2.450873563876,1.02733034803));
#439 = CARTESIAN_POINT('',(2.487811114892,1.045015965762));
#440 = CARTESIAN_POINT('',(2.527811172566,1.061723513555));
#441 = CARTESIAN_POINT('',(2.571067751398,1.077313602993));
#442 = CARTESIAN_POINT('',(2.617678752208,1.091630443432));
#443 = CARTESIAN_POINT('',(2.705005066068,1.114178415068));
#444 = CARTESIAN_POINT('',(2.744281149478,1.123036175767));
#445 = CARTESIAN_POINT('',(2.785380360949,1.131021141753));
#446 = CARTESIAN_POINT('',(2.82822470738,1.138065273908));
#447 = CARTESIAN_POINT('',(2.872669128851,1.144102191847));
#448 = CARTESIAN_POINT('',(2.918489720151,1.14907257341));
#449 = CARTESIAN_POINT('',(2.965387893669,1.15292993447));
#450 = CARTESIAN_POINT('',(3.084472503305,1.159715920219));
#451 = CARTESIAN_POINT('',(3.157578542006,1.161215788755));
#452 = CARTESIAN_POINT('',(3.23118387141,1.160043082475));
#453 = CARTESIAN_POINT('',(3.303913860464,1.156178403639));
#454 = CARTESIAN_POINT('',(3.374351488888,1.14971598505));
#455 = CARTESIAN_POINT('',(3.441544697993,1.140844261681));
#456 = CARTESIAN_POINT('',(3.504935861393,1.129781875312));
#457 = CARTESIAN_POINT('',(3.623615558861,1.103729120356));
#458 = CARTESIAN_POINT('',(3.678904136142,1.088738720606));
#459 = CARTESIAN_POINT('',(3.729891615603,1.07201057052));
#460 = CARTESIAN_POINT('',(3.776637035171,1.053777559041));
#461 = CARTESIAN_POINT('',(3.819402637921,1.034248443947));
#462 = CARTESIAN_POINT('',(3.858499950286,1.013601131855));
#463 = CARTESIAN_POINT('',(3.894258021216,0.991986622766));
#464 = CARTESIAN_POINT('',(3.926990816987,0.969532110116));
#465 = ( GEOMETRIC_REPRESENTATION_CONTEXT(2) 
PARAMETRIC_REPRESENTATION_CONTEXT() REPRESENTATION_CONTEXT('2D SPACE',''
  ) );
#466 = PCURVE('',#231,#467);
#467 = DEFINITIONAL_REPRESENTATION('',(#468),#472);
#468 = CIRCLE('',#469,22.912878474779);
#469 = AXIS2_PLACEMENT_2D('',#470,#471);
#470 = CARTESIAN_POINT('',(10.,0.));
#471 = DIRECTION('',(0.,-1.));
#472 = ( GEOMETRIC_REPRESENTATION_CONTEXT(2) 
PARAMETRIC_REPRESENTATION_CONTEXT() REPRESENTATION_CONTEXT('2D SPACE',''
  ) );
#473 = ORIENTED_EDGE('',*,*,#474,.F.);
#474 = EDGE_CURVE('',#24,#424,#475,.T.);
#475 = SURFACE_CURVE('',#476,(#481,#515),.PCURVE_S1.);
#476 = CIRCLE('',#477,22.912878474779);
#477 = AXIS2_PLACEMENT_3D('',#478,#479,#480);
#478 = CARTESIAN_POINT('',(0.,10.,0.));
#479 = DIRECTION('',(0.,-1.,0.));
#480 = DIRECTION('',(0.,-0.,-1.));
#481 = PCURVE('',#33,#482);
#482 = DEFINITIONAL_REPRESENTATION('',(#483),#514);
#483 = B_SPLINE_CURVE_WITH_KNOTS('',8,(#484,#485,#486,#487,#488,#489,
    #490,#491,#492,#493,#494,#495,#496,#497,#498,#499,#500,#501,#502,
    #503,#504,#505,#506,#507,#508,#509,#510,#511,#512,#513),
  .UNSPECIFIED.,.F.,.F.,(9,7,7,7,9),(2.68995921251,2.91577593305,
    3.085138473455,3.339182284062,3.593226094669),.UNSPECIFIED.);
#484 = CARTESIAN_POINT('',(0.785398163397,0.969532110116));
#485 = CARTESIAN_POINT('',(0.81449398186,0.989491676916));
#486 = CARTESIAN_POINT('',(0.845980120767,1.008787539777));
#487 = CARTESIAN_POINT('',(0.880077237096,1.027330348027));
#488 = CARTESIAN_POINT('',(0.917014788083,1.045015965771));
#489 = CARTESIAN_POINT('',(0.957014845773,1.061723513549));
#490 = CARTESIAN_POINT('',(1.0002714246,1.077313602994));
#491 = CARTESIAN_POINT('',(1.046882425413,1.091630443432));
#492 = CARTESIAN_POINT('',(1.134208739273,1.114178415068));
#493 = CARTESIAN_POINT('',(1.173484822683,1.123036175767));
#494 = CARTESIAN_POINT('',(1.214584034155,1.131021141753));
#495 = CARTESIAN_POINT('',(1.257428380585,1.138065273908));
#496 = CARTESIAN_POINT('',(1.301872802056,1.144102191848));
#497 = CARTESIAN_POINT('',(1.347693393356,1.14907257341));
#498 = CARTESIAN_POINT('',(1.394591566874,1.15292993447));
#499 = CARTESIAN_POINT('',(1.51367617651,1.159715920219));
#500 = CARTESIAN_POINT('',(1.58678221521,1.161215788755));
#501 = CARTESIAN_POINT('',(1.660387544624,1.160043082476));
#502 = CARTESIAN_POINT('',(1.733117533664,1.156178403638));
#503 = CARTESIAN_POINT('',(1.803555162096,1.149715985051));
#504 = CARTESIAN_POINT('',(1.870748371197,1.140844261681));
#505 = CARTESIAN_POINT('',(1.934139534598,1.129781875312));
#506 = CARTESIAN_POINT('',(2.052819232066,1.103729120356));
#507 = CARTESIAN_POINT('',(2.108107809348,1.088738720605));
#508 = CARTESIAN_POINT('',(2.159095288814,1.072010570521));
#509 = CARTESIAN_POINT('',(2.205840708357,1.053777559037));
#510 = CARTESIAN_POINT('',(2.248606311132,1.034248443948));
#511 = CARTESIAN_POINT('',(2.28770362349,1.013601131854));
#512 = CARTESIAN_POINT('',(2.323461694421,0.991986622766));
#513 = CARTESIAN_POINT('',(2.356194490192,0.969532110116));
#514 = ( GEOMETRIC_REPRESENTATION_CONTEXT(2) 
PARAMETRIC_REPRESENTATION_CONTEXT() REPRESENTATION_CONTEXT('2D SPACE',''
  ) );
#515 = PCURVE('',#175,#516);
#516 = DEFINITIONAL_REPRESENTATION('',(#517),#521);
#517 = CIRCLE('',#518,22.912878474779);
#518 = AXIS2_PLACEMENT_2D('',#519,#520);
#519 = CARTESIAN_POINT('',(10.,0.));
#520 = DIRECTION('',(-0.,1.));
#521 = ( GEOMETRIC_REPRESENTATION_CONTEXT(2) 
PARAMETRIC_REPRESENTATION_CONTEXT() REPRESENTATION_CONTEXT('2D SPACE',''
  ) );
#522 = ADVANCED_FACE('',(#523),#58,.T.);
#523 = FACE_BOUND('',#524,.T.);
#524 = EDGE_LOOP('',(#525,#546,#547,#548,#569,#570));
#525 = ORIENTED_EDGE('',*,*,#526,.T.);
#526 = EDGE_CURVE('',#244,#336,#527,.T.);
#527 = SURFACE_CURVE('',#528,(#532,#539),.PCURVE_S1.);
#528 = LINE('',#529,#530);
#529 = CARTESIAN_POINT('',(10.,-10.,-30.));
#530 = VECTOR('',#531,1.);
#531 = DIRECTION('',(0.,0.,1.));
#532 = PCURVE('',#58,#533);
#533 = DEFINITIONAL_REPRESENTATION('',(#534),#538);
#534 = LINE('',#535,#536);
#535 = CARTESIAN_POINT('',(0.,30.));
#536 = VECTOR('',#537,1.);
#537 = DIRECTION('',(0.,-1.));
#538 = ( GEOMETRIC_REPRESENTATION_CONTEXT(2) 
PARAMETRIC_REPRESENTATION_CONTEXT() REPRESENTATION_CONTEXT('2D SPACE',''
  ) );
#539 = PCURVE('',#287,#540);
#540 = DEFINITIONAL_REPRESENTATION('',(#541),#545);
#541 = LINE('',#542,#543);
#542 = CARTESIAN_POINT('',(20.,30.));
#543 = VECTOR('',#544,1.);
#544 = DIRECTION('',(0.,-1.));
#545 = ( GEOMETRIC_REPRESENTATION_CONTEXT(2) 
PARAMETRIC_REPRESENTATION_CONTEXT() REPRESENTATION_CONTEXT('2D SPACE',''
  ) );
#546 = ORIENTED_EDGE('',*,*,#335,.T.);
#547 = ORIENTED_EDGE('',*,*,#21,.T.);
#548 = ORIENTED_EDGE('',*,*,#549,.F.);
#549 = EDGE_CURVE('',#95,#24,#550,.T.);
#550 = SURFACE_CURVE('',#551,(#555,#562),.PCURVE_S1.);
#551 = LINE('',#552,#553);
#552 = CARTESIAN_POINT('',(10.,10.,-30.));
#553 = VECTOR('',#554,1.);
#554 = DIRECTION('',(0.,0.,1.));
#555 = PCURVE('',#58,#556);
#556 = DEFINITIONAL_REPRESENTATION('',(#557),#561);
#557 = LINE('',#558,#559);
#558 = CARTESIAN_POINT('',(20.,30.));
#559 = VECTOR('',#560,1.);
#560 = DIRECTION('',(0.,-1.));
#561 = ( GEOMETRIC_REPRESENTATION_CONTEXT(2) 
PARAMETRIC_REPRESENTATION_CONTEXT() REPRESENTATION_CONTEXT('2D SPACE',''
  ) );
#562 = PCURVE('',#175,#563);
#563 = DEFINITIONAL_REPRESENTATION('',(#564),#568);
#564 = LINE('',#565,#566);
#565 = CARTESIAN_POINT('',(0.,30.));
#566 = VECTOR('',#567,1.);
#567 = DIRECTION('',(0.,-1.));
#568 = ( GEOMETRIC_REPRESENTATION_CONTEXT(2) 
PARAMETRIC_REPRESENTATION_CONTEXT() REPRESENTATION_CONTEXT('2D SPACE',''
  ) );
#569 = ORIENTED_EDGE('',*,*,#94,.T.);
#570 = ORIENTED_EDGE('',*,*,#299,.T.);
#571 = ADVANCED_FACE('',(#572),#175,.T.);
#572 = FACE_BOUND('',#573,.T.);
#573 = EDGE_LOOP('',(#574,#575,#576,#597));
#574 = ORIENTED_EDGE('',*,*,#549,.T.);
#575 = ORIENTED_EDGE('',*,*,#474,.T.);
#576 = ORIENTED_EDGE('',*,*,#577,.T.);
#577 = EDGE_CURVE('',#424,#132,#578,.T.);
#578 = SURFACE_CURVE('',#579,(#583,#590),.PCURVE_S1.);
#579 = LINE('',#580,#581);
#580 = CARTESIAN_POINT('',(-10.,10.,30.));
#581 = VECTOR('',#582,1.);
#582 = DIRECTION('',(0.,0.,-1.));
#583 = PCURVE('',#175,#584);
#584 = DEFINITIONAL_REPRESENTATION('',(#585),#589);
#585 = LINE('',#586,#587);
#586 = CARTESIAN_POINT('',(20.,-30.));
#587 = VECTOR('',#588,1.);
#588 = DIRECTION('',(0.,1.));
#589 = ( GEOMETRIC_REPRESENTATION_CONTEXT(2) 
PARAMETRIC_REPRESENTATION_CONTEXT() REPRESENTATION_CONTEXT('2D SPACE',''
  ) );
#590 = PCURVE('',#231,#591);
#591 = DEFINITIONAL_REPRESENTATION('',(#592),#596);
#592 = LINE('',#593,#594);
#593 = CARTESIAN_POINT('',(0.,-30.));
#594 = VECTOR('',#595,1.);
#595 = DIRECTION('',(0.,1.));
#596 = ( GEOMETRIC_REPRESENTATION_CONTEXT(2) 
PARAMETRIC_REPRESENTATION_CONTEXT() REPRESENTATION_CONTEXT('2D SPACE',''
  ) );
#597 = ORIENTED_EDGE('',*,*,#131,.T.);
#598 = ADVANCED_FACE('',(#599),#231,.T.);
#599 = FACE_BOUND('',#600,.T.);
#600 = EDGE_LOOP('',(#601,#602,#603,#624));
#601 = ORIENTED_EDGE('',*,*,#577,.F.);
#602 = ORIENTED_EDGE('',*,*,#423,.T.);
#603 = ORIENTED_EDGE('',*,*,#604,.T.);
#604 = EDGE_CURVE('',#373,#188,#605,.T.);
#605 = SURFACE_CURVE('',#606,(#610,#617),.PCURVE_S1.);
#606 = LINE('',#607,#608);
#607 = CARTESIAN_POINT('',(-10.,-10.,30.));
#608 = VECTOR('',#609,1.);
#609 = DIRECTION('',(0.,0.,-1.));
#610 = PCURVE('',#231,#611);
#611 = DEFINITIONAL_REPRESENTATION('',(#612),#616);
#612 = LINE('',#613,#614);
#613 = CARTESIAN_POINT('',(20.,-30.));
#614 = VECTOR('',#615,1.);
#615 = DIRECTION('',(0.,1.));
#616 = ( GEOMETRIC_REPRESENTATION_CONTEXT(2) 
PARAMETRIC_REPRESENTATION_CONTEXT() REPRESENTATION_CONTEXT('2D SPACE',''
  ) );
#617 = PCURVE('',#287,#618);
#618 = DEFINITIONAL_REPRESENTATION('',(#619),#623);
#619 = LINE('',#620,#621);
#620 = CARTESIAN_POINT('',(0.,-30.));
#621 = VECTOR('',#622,1.);
#622 = DIRECTION('',(0.,1.));
#623 = ( GEOMETRIC_REPRESENTATION_CONTEXT(2) 
PARAMETRIC_REPRESENTATION_CONTEXT() REPRESENTATION_CONTEXT('2D SPACE',''
  ) );
#624 = ORIENTED_EDGE('',*,*,#187,.T.);
#625 = ADVANCED_FACE('',(#626),#287,.T.);
#626 = FACE_BOUND('',#627,.T.);
#627 = EDGE_LOOP('',(#628,#629,#630,#631));
#628 = ORIENTED_EDGE('',*,*,#604,.F.);
#629 = ORIENTED_EDGE('',*,*,#372,.T.);
#630 = ORIENTED_EDGE('',*,*,#526,.F.);
#631 = ORIENTED_EDGE('',*,*,#243,.T.);
#632 = ( GEOMETRIC_REPRESENTATION_CONTEXT(3) 
GLOBAL_UNCERTAINTY_ASSIGNED_CONTEXT((#636)) GLOBAL_UNIT_ASSIGNED_CONTEXT
((#633,#634,#635)) REPRESENTATION_CONTEXT('Context #1',
  '3D Context with UNIT and UNCERTAINTY') );
#633 = ( LENGTH_UNIT() NAMED_UNIT(*) SI_UNIT(.MILLI.,.METRE.) );
#634 = ( NAMED_UNIT(*) PLANE_ANGLE_UNIT() SI_UNIT($,.RADIAN.) );
#635 = ( NAMED_UNIT(*) SI_UNIT($,.STERADIAN.) SOLID_ANGLE_UNIT() );
#636 = UNCERTAINTY_MEASURE_WITH_UNIT(LENGTH_MEASURE(1.E-07),#633,
  'distance_accuracy_value','confusion accuracy');
#637 = PRODUCT_RELATED_PRODUCT_CATEGORY('part',$,(#7));
ENDSEC;
END-ISO-10303-21;
