ISO-10303-21;
HEADER;
FILE_DESCRIPTION(('Open CASCADE Model'),'2;1');
FILE_NAME('Open CASCADE Shape Model','2026-08-07T04:35:41',('Author'),(
    'Open CASCADE'),'Open CASCADE STEP processor 7.7','Open CASCADE 7.7'
  ,'Unknown');
FILE_SCHEMA(('AUTOMOTIVE_DESIGN { 1 0 10303 214 1 1 1 1 }'));
ENDSEC;
DATA;
#1 = APPLICATION_PROTOCOL_DEFINITION('international standard',
  'automotive_design',2000,#2);
#2 = APPLICATION_CONTEXT(
  'core data for automotive mechanical design processes');
#3 = SHAPE_DEFINITION_REPRESENTATION(#4,#10);
#4 = PRODUCT_DEFINITION_SHAPE('','',#5);
#5 = PRODUCT_DEFINITION('design','',#6,#9);
#6 = PRODUCT_DEFINITION_FORMATION('','',#7);
#7 = PRODUCT('Open CASCADE STEP translator 7.7 7',
  'Open CASCADE STEP translator 7.7 7','',(#8));
#8 = PRODUCT_CONTEXT('',#2,'mechanical');
#9 = PRODUCT_DEFINITION_CONTEXT('part definition',#2,'design');
#10 = ADVANCED_BREP_SHAPE_REPRESENTATION('',(#11,#15),#1241);
#11 = AXIS2_PLACEMENT_3D('',#12,#13,#14);
#12 = CARTESIAN_POINT('',(0.,0.,0.));
#13 = DIRECTION('',(0.,0.,1.));
#14 = DIRECTION('',(1.,0.,-0.));
#15 = MANIFOLD_SOLID_BREP('',#16);
#16 = CLOSED_SHELL('',(#17,#537,#572,#669,#751,#798,#880,#963,#993,#1075
    ,#1122,#1182));
#17 = ADVANCED_FACE('',(#18),#31,.T.);
#18 = FACE_BOUND('',#19,.F.);
#19 = EDGE_LOOP('',(#20,#54,#77,#106,#167,#193,#254,#287,#310,#337,#338,
    #366,#427,#453,#514,#536));
#20 = ORIENTED_EDGE('',*,*,#21,.F.);
#21 = EDGE_CURVE('',#22,#22,#24,.T.);
#22 = VERTEX_POINT('',#23);
#23 = CARTESIAN_POINT('',(40.,0.,0.));
#24 = SURFACE_CURVE('',#25,(#30,#42),.PCURVE_S1.);
#25 = CIRCLE('',#26,40.);
#26 = AXIS2_PLACEMENT_3D('',#27,#28,#29);
#27 = CARTESIAN_POINT('',(0.,0.,0.));
#28 = DIRECTION('',(0.,0.,1.));
#29 = DIRECTION('',(1.,0.,0.));
#30 = PCURVE('',#31,#36);
#31 = CYLINDRICAL_SURFACE('',#32,40.);
#32 = AXIS2_PLACEMENT_3D('',#33,#34,#35);
#33 = CARTESIAN_POINT('',(0.,0.,0.));
#34 = DIRECTION('',(-0.,-0.,-1.));
#35 = DIRECTION('',(1.,0.,0.));
#36 = DEFINITIONAL_REPRESENTATION('',(#37),#41);
#37 = LINE('',#38,#39);
#38 = CARTESIAN_POINT('',(-0.,0.));
#39 = VECTOR('',#40,1.);
#40 = DIRECTION('',(-1.,0.));
#41 = ( GEOMETRIC_REPRESENTATION_CONTEXT(2) 
PARAMETRIC_REPRESENTATION_CONTEXT() REPRESENTATION_CONTEXT('2D SPACE',''
  ) );
#42 = PCURVE('',#43,#48);
#43 = PLANE('',#44);
#44 = AXIS2_PLACEMENT_3D('',#45,#46,#47);
#45 = CARTESIAN_POINT('',(-2.187904212063E-15,2.742946025263E-15,0.));
#46 = DIRECTION('',(0.,0.,1.));
#47 = DIRECTION('',(1.,0.,-0.));
#48 = DEFINITIONAL_REPRESENTATION('',(#49),#53);
#49 = CIRCLE('',#50,40.);
#50 = AXIS2_PLACEMENT_2D('',#51,#52);
#51 = CARTESIAN_POINT('',(2.187904212063E-15,-2.742946025263E-15));
#52 = DIRECTION('',(1.,0.));
#53 = ( GEOMETRIC_REPRESENTATION_CONTEXT(2) 
PARAMETRIC_REPRESENTATION_CONTEXT() REPRESENTATION_CONTEXT('2D SPACE',''
  ) );
#54 = ORIENTED_EDGE('',*,*,#55,.T.);
#55 = EDGE_CURVE('',#22,#56,#58,.T.);
#56 = VERTEX_POINT('',#57);
#57 = CARTESIAN_POINT('',(40.,0.,15.));
#58 = SEAM_CURVE('',#59,(#63,#70),.PCURVE_S1.);
#59 = LINE('',#60,#61);
#60 = CARTESIAN_POINT('',(40.,0.,0.));
#61 = VECTOR('',#62,1.);
#62 = DIRECTION('',(0.,0.,1.));
#63 = PCURVE('',#31,#64);
#64 = DEFINITIONAL_REPRESENTATION('',(#65),#69);
#65 = LINE('',#66,#67);
#66 = CARTESIAN_POINT('',(-6.28318530718,0.));
#67 = VECTOR('',#68,1.);
#68 = DIRECTION('',(-0.,-1.));
#69 = ( GEOMETRIC_REPRESENTATION_CONTEXT(2) 
PARAMETRIC_REPRESENTATION_CONTEXT() REPRESENTATION_CONTEXT('2D SPACE',''
  ) );
#70 = PCURVE('',#31,#71);
#71 = DEFINITIONAL_REPRESENTATION('',(#72),#76);
#72 = LINE('',#73,#74);
#73 = CARTESIAN_POINT('',(-0.,0.));
#74 = VECTOR('',#75,1.);
#75 = DIRECTION('',(-0.,-1.));
#76 = ( GEOMETRIC_REPRESENTATION_CONTEXT(2) 
PARAMETRIC_REPRESENTATION_CONTEXT() REPRESENTATION_CONTEXT('2D SPACE',''
  ) );
#77 = ORIENTED_EDGE('',*,*,#78,.F.);
#78 = EDGE_CURVE('',#79,#56,#81,.T.);
#79 = VERTEX_POINT('',#80);
#80 = CARTESIAN_POINT('',(37.828560638755,13.,15.));
#81 = SURFACE_CURVE('',#82,(#87,#94),.PCURVE_S1.);
#82 = CIRCLE('',#83,40.);
#83 = AXIS2_PLACEMENT_3D('',#84,#85,#86);
#84 = CARTESIAN_POINT('',(0.,0.,15.));
#85 = DIRECTION('',(0.,0.,-1.));
#86 = DIRECTION('',(1.,0.,0.));
#87 = PCURVE('',#31,#88);
#88 = DEFINITIONAL_REPRESENTATION('',(#89),#93);
#89 = LINE('',#90,#91);
#90 = CARTESIAN_POINT('',(-6.28318530718,-15.));
#91 = VECTOR('',#92,1.);
#92 = DIRECTION('',(1.,-0.));
#93 = ( GEOMETRIC_REPRESENTATION_CONTEXT(2) 
PARAMETRIC_REPRESENTATION_CONTEXT() REPRESENTATION_CONTEXT('2D SPACE',''
  ) );
#94 = PCURVE('',#95,#100);
#95 = PLANE('',#96);
#96 = AXIS2_PLACEMENT_3D('',#97,#98,#99);
#97 = CARTESIAN_POINT('',(45.,-15.,15.));
#98 = DIRECTION('',(0.,0.,-1.));
#99 = DIRECTION('',(0.,1.,0.));
#100 = DEFINITIONAL_REPRESENTATION('',(#101),#105);
#101 = CIRCLE('',#102,40.);
#102 = AXIS2_PLACEMENT_2D('',#103,#104);
#103 = CARTESIAN_POINT('',(15.,-45.));
#104 = DIRECTION('',(0.,1.));
#105 = ( GEOMETRIC_REPRESENTATION_CONTEXT(2) 
PARAMETRIC_REPRESENTATION_CONTEXT() REPRESENTATION_CONTEXT('2D SPACE',''
  ) );
#106 = ORIENTED_EDGE('',*,*,#107,.T.);
#107 = EDGE_CURVE('',#79,#108,#110,.T.);
#108 = VERTEX_POINT('',#109);
#109 = CARTESIAN_POINT('',(37.080992435478,15.,17.));
#110 = SURFACE_CURVE('',#111,(#126,#144),.PCURVE_S1.);
#111 = B_SPLINE_CURVE_WITH_KNOTS('',7,(#112,#113,#114,#115,#116,#117,
    #118,#119,#120,#121,#122,#123,#124,#125),.UNSPECIFIED.,.F.,.F.,(8,6,
    8),(0.,0.466388976354,1.),.UNSPECIFIED.);
#112 = CARTESIAN_POINT('',(37.828560638755,13.,15.));
#113 = CARTESIAN_POINT('',(37.746867624888,13.237717625296,15.));
#114 = CARTESIAN_POINT('',(37.66452496603,13.471655241805,
    15.032963869518));
#115 = CARTESIAN_POINT('',(37.583564225086,13.696175132382,
    15.09700534741));
#116 = CARTESIAN_POINT('',(37.506089685661,13.906228221872,
    15.189012083869));
#117 = CARTESIAN_POINT('',(37.434121117853,14.097652305234,
    15.304758277153));
#118 = CARTESIAN_POINT('',(37.369296476146,14.267460576704,
    15.439033451958));
#119 = CARTESIAN_POINT('',(37.247741131923,14.582118497687,
    15.753691372941));
#120 = CARTESIAN_POINT('',(37.192717001557,14.721931445269,
    15.940018164475));
#121 = CARTESIAN_POINT('',(37.148207538129,14.833464447501,
    16.139762236559));
#122 = CARTESIAN_POINT('',(37.114628227218,14.916850271266,
    16.348924507957));
#123 = CARTESIAN_POINT('',(37.092197077334,14.972301344038,
    16.564071734172));
#124 = CARTESIAN_POINT('',(37.080992435478,15.,16.782091615807));
#125 = CARTESIAN_POINT('',(37.080992435478,15.,17.));
#126 = PCURVE('',#31,#127);
#127 = DEFINITIONAL_REPRESENTATION('',(#128),#143);
#128 = B_SPLINE_CURVE_WITH_KNOTS('',7,(#129,#130,#131,#132,#133,#134,
    #135,#136,#137,#138,#139,#140,#141,#142),.UNSPECIFIED.,.F.,.F.,(8,6,
    8),(0.,0.466388976354,1.),.UNSPECIFIED.);
#129 = CARTESIAN_POINT('',(-0.331011728089,-15.));
#130 = CARTESIAN_POINT('',(-0.337295806079,-15.));
#131 = CARTESIAN_POINT('',(-0.343495792661,-15.03296386951));
#132 = CARTESIAN_POINT('',(-0.349462291946,-15.09700534741));
#133 = CARTESIAN_POINT('',(-0.355059199953,-15.18901208386));
#134 = CARTESIAN_POINT('',(-0.36017173971,-15.30475827715));
#135 = CARTESIAN_POINT('',(-0.364715730013,-15.43903345195));
#136 = CARTESIAN_POINT('',(-0.373148749525,-15.75369137294));
#137 = CARTESIAN_POINT('',(-0.376904946192,-15.94001816447));
#138 = CARTESIAN_POINT('',(-0.379907067711,-16.13976223655));
#139 = CARTESIAN_POINT('',(-0.38215439263,-16.34892450795));
#140 = CARTESIAN_POINT('',(-0.383649797392,-16.56407173417));
#141 = CARTESIAN_POINT('',(-0.384396774496,-16.7820916158));
#142 = CARTESIAN_POINT('',(-0.384396774496,-17.));
#143 = ( GEOMETRIC_REPRESENTATION_CONTEXT(2) 
PARAMETRIC_REPRESENTATION_CONTEXT() REPRESENTATION_CONTEXT('2D SPACE',''
  ) );
#144 = PCURVE('',#145,#150);
#145 = CYLINDRICAL_SURFACE('',#146,2.);
#146 = AXIS2_PLACEMENT_3D('',#147,#148,#149);
#147 = CARTESIAN_POINT('',(45.,13.,17.));
#148 = DIRECTION('',(-1.,-0.,-0.));
#149 = DIRECTION('',(0.,0.,-1.));
#150 = DEFINITIONAL_REPRESENTATION('',(#151),#166);
#151 = B_SPLINE_CURVE_WITH_KNOTS('',7,(#152,#153,#154,#155,#156,#157,
    #158,#159,#160,#161,#162,#163,#164,#165),.UNSPECIFIED.,.F.,.F.,(8,6,
    8),(0.,0.466388976354,1.),.UNSPECIFIED.);
#152 = CARTESIAN_POINT('',(0.,7.171439361245));
#153 = CARTESIAN_POINT('',(-0.118858812648,7.253132375112));
#154 = CARTESIAN_POINT('',(-0.23582760595,7.33547503397));
#155 = CARTESIAN_POINT('',(-0.350830239915,7.416435774914));
#156 = CARTESIAN_POINT('',(-0.463692240478,7.493910314339));
#157 = CARTESIAN_POINT('',(-0.574118396515,7.565878882147));
#158 = CARTESIAN_POINT('',(-0.681628132072,7.630703523854));
#159 = CARTESIAN_POINT('',(-0.904124881753,7.752258868077));
#160 = CARTESIAN_POINT('',(-1.019432823959,7.807282998443));
#161 = CARTESIAN_POINT('',(-1.132218525546,7.851792461871));
#162 = CARTESIAN_POINT('',(-1.243145397718,7.885371772782));
#163 = CARTESIAN_POINT('',(-1.352832367031,7.907802922666));
#164 = CARTESIAN_POINT('',(-1.461842134698,7.919007564522));
#165 = CARTESIAN_POINT('',(-1.570796326795,7.919007564522));
#166 = ( GEOMETRIC_REPRESENTATION_CONTEXT(2) 
PARAMETRIC_REPRESENTATION_CONTEXT() REPRESENTATION_CONTEXT('2D SPACE',''
  ) );
#167 = ORIENTED_EDGE('',*,*,#168,.F.);
#168 = EDGE_CURVE('',#169,#108,#171,.T.);
#169 = VERTEX_POINT('',#170);
#170 = CARTESIAN_POINT('',(37.080992435478,15.,33.));
#171 = SURFACE_CURVE('',#172,(#176,#182),.PCURVE_S1.);
#172 = LINE('',#173,#174);
#173 = CARTESIAN_POINT('',(37.080992435478,15.,0.));
#174 = VECTOR('',#175,1.);
#175 = DIRECTION('',(-0.,-0.,-1.));
#176 = PCURVE('',#31,#177);
#177 = DEFINITIONAL_REPRESENTATION('',(#178),#181);
#178 = B_SPLINE_CURVE_WITH_KNOTS('',1,(#179,#180),.UNSPECIFIED.,.F.,.F.,
  (2,2),(-34.6,-15.4),.PIECEWISE_BEZIER_KNOTS.);
#179 = CARTESIAN_POINT('',(-0.384396774496,-34.6));
#180 = CARTESIAN_POINT('',(-0.384396774496,-15.4));
#181 = ( GEOMETRIC_REPRESENTATION_CONTEXT(2) 
PARAMETRIC_REPRESENTATION_CONTEXT() REPRESENTATION_CONTEXT('2D SPACE',''
  ) );
#182 = PCURVE('',#183,#188);
#183 = PLANE('',#184);
#184 = AXIS2_PLACEMENT_3D('',#185,#186,#187);
#185 = CARTESIAN_POINT('',(45.,15.,15.));
#186 = DIRECTION('',(0.,1.,0.));
#187 = DIRECTION('',(0.,-0.,1.));
#188 = DEFINITIONAL_REPRESENTATION('',(#189),#192);
#189 = B_SPLINE_CURVE_WITH_KNOTS('',1,(#190,#191),.UNSPECIFIED.,.F.,.F.,
  (2,2),(-34.6,-15.4),.PIECEWISE_BEZIER_KNOTS.);
#190 = CARTESIAN_POINT('',(19.6,-7.919007564522));
#191 = CARTESIAN_POINT('',(0.4,-7.919007564522));
#192 = ( GEOMETRIC_REPRESENTATION_CONTEXT(2) 
PARAMETRIC_REPRESENTATION_CONTEXT() REPRESENTATION_CONTEXT('2D SPACE',''
  ) );
#193 = ORIENTED_EDGE('',*,*,#194,.T.);
#194 = EDGE_CURVE('',#169,#195,#197,.T.);
#195 = VERTEX_POINT('',#196);
#196 = CARTESIAN_POINT('',(37.828560638755,13.,35.));
#197 = SURFACE_CURVE('',#198,(#213,#231),.PCURVE_S1.);
#198 = B_SPLINE_CURVE_WITH_KNOTS('',7,(#199,#200,#201,#202,#203,#204,
    #205,#206,#207,#208,#209,#210,#211,#212),.UNSPECIFIED.,.F.,.F.,(8,6,
    8),(0.,0.473112841029,1.),.UNSPECIFIED.);
#199 = CARTESIAN_POINT('',(37.080992435478,15.,33.));
#200 = CARTESIAN_POINT('',(37.080992435478,15.,33.192990079455));
#201 = CARTESIAN_POINT('',(37.089781135371,14.978273989527,
    33.386030297039));
#202 = CARTESIAN_POINT('',(37.107367145492,14.934799397736,
    33.577058180161));
#203 = CARTESIAN_POINT('',(37.133701549509,14.869469391954,
    33.763941016216));
#204 = CARTESIAN_POINT('',(37.168657086374,14.782132437843,
    33.944375663809));
#205 = CARTESIAN_POINT('',(37.212001832387,14.672657728936,
    34.115733139419));
#206 = CARTESIAN_POINT('',(37.320571176755,14.394433948118,
    34.452047917374));
#207 = CARTESIAN_POINT('',(37.38858353898,14.21815620206,34.61673046787)
  );
#208 = CARTESIAN_POINT('',(37.466437064208,14.013237386437,
    34.760600910723));
#209 = CARTESIAN_POINT('',(37.552112662081,13.783082537146,
    34.876310185869));
#210 = CARTESIAN_POINT('',(37.642928216337,13.532893050065,
    34.95769813444));
#211 = CARTESIAN_POINT('',(37.736017062237,13.269291561234,35.));
#212 = CARTESIAN_POINT('',(37.828560638755,13.,35.));
#213 = PCURVE('',#31,#214);
#214 = DEFINITIONAL_REPRESENTATION('',(#215),#230);
#215 = B_SPLINE_CURVE_WITH_KNOTS('',7,(#216,#217,#218,#219,#220,#221,
    #222,#223,#224,#225,#226,#227,#228,#229),.UNSPECIFIED.,.F.,.F.,(8,6,
    8),(0.,0.473112841029,1.),.UNSPECIFIED.);
#216 = CARTESIAN_POINT('',(-0.384396774496,-33.));
#217 = CARTESIAN_POINT('',(-0.384396774496,-33.19299007945));
#218 = CARTESIAN_POINT('',(-0.383810866682,-33.38603029703));
#219 = CARTESIAN_POINT('',(-0.382638447167,-33.57705818016));
#220 = CARTESIAN_POINT('',(-0.380877498713,-33.76394101621));
#221 = CARTESIAN_POINT('',(-0.378525702624,-33.9443756638));
#222 = CARTESIAN_POINT('',(-0.375582156768,-34.11573313941));
#223 = CARTESIAN_POINT('',(-0.368115741349,-34.45204791737));
#224 = CARTESIAN_POINT('',(-0.363392197097,-34.61673046787));
#225 = CARTESIAN_POINT('',(-0.357912071768,-34.76060091072));
#226 = CARTESIAN_POINT('',(-0.351772756655,-34.87631018586));
#227 = CARTESIAN_POINT('',(-0.345119103008,-34.95769813444));
#228 = CARTESIAN_POINT('',(-0.338130464745,-35.));
#229 = CARTESIAN_POINT('',(-0.331011728089,-35.));
#230 = ( GEOMETRIC_REPRESENTATION_CONTEXT(2) 
PARAMETRIC_REPRESENTATION_CONTEXT() REPRESENTATION_CONTEXT('2D SPACE',''
  ) );
#231 = PCURVE('',#232,#237);
#232 = CYLINDRICAL_SURFACE('',#233,2.);
#233 = AXIS2_PLACEMENT_3D('',#234,#235,#236);
#234 = CARTESIAN_POINT('',(45.,13.,33.));
#235 = DIRECTION('',(-1.,-0.,-0.));
#236 = DIRECTION('',(0.,1.,0.));
#237 = DEFINITIONAL_REPRESENTATION('',(#238),#253);
#238 = B_SPLINE_CURVE_WITH_KNOTS('',7,(#239,#240,#241,#242,#243,#244,
    #245,#246,#247,#248,#249,#250,#251,#252),.UNSPECIFIED.,.F.,.F.,(8,6,
    8),(0.,0.473112841029,1.),.UNSPECIFIED.);
#239 = CARTESIAN_POINT('',(0.,7.919007564522));
#240 = CARTESIAN_POINT('',(-9.649503972769E-02,7.919007564522));
#241 = CARTESIAN_POINT('',(-0.193015862167,7.910218864629));
#242 = CARTESIAN_POINT('',(-0.289994908169,7.892632854508));
#243 = CARTESIAN_POINT('',(-0.387845700996,7.866298450491));
#244 = CARTESIAN_POINT('',(-0.486989541241,7.831342913626));
#245 = CARTESIAN_POINT('',(-0.587897881922,7.787998167613));
#246 = CARTESIAN_POINT('',(-0.806138633205,7.679428823245));
#247 = CARTESIAN_POINT('',(-0.925765424258,7.61141646102));
#248 = CARTESIAN_POINT('',(-1.048986229088,7.533562935792));
#249 = CARTESIAN_POINT('',(-1.175268348778,7.447887337919));
#250 = CARTESIAN_POINT('',(-1.304349744495,7.357071783663));
#251 = CARTESIAN_POINT('',(-1.436150546178,7.263982937763));
#252 = CARTESIAN_POINT('',(-1.570796326795,7.171439361245));
#253 = ( GEOMETRIC_REPRESENTATION_CONTEXT(2) 
PARAMETRIC_REPRESENTATION_CONTEXT() REPRESENTATION_CONTEXT('2D SPACE',''
  ) );
#254 = ORIENTED_EDGE('',*,*,#255,.T.);
#255 = EDGE_CURVE('',#195,#256,#258,.T.);
#256 = VERTEX_POINT('',#257);
#257 = CARTESIAN_POINT('',(40.,0.,35.));
#258 = SURFACE_CURVE('',#259,(#264,#271),.PCURVE_S1.);
#259 = CIRCLE('',#260,40.);
#260 = AXIS2_PLACEMENT_3D('',#261,#262,#263);
#261 = CARTESIAN_POINT('',(0.,0.,35.));
#262 = DIRECTION('',(0.,0.,-1.));
#263 = DIRECTION('',(1.,0.,0.));
#264 = PCURVE('',#31,#265);
#265 = DEFINITIONAL_REPRESENTATION('',(#266),#270);
#266 = LINE('',#267,#268);
#267 = CARTESIAN_POINT('',(-6.28318530718,-35.));
#268 = VECTOR('',#269,1.);
#269 = DIRECTION('',(1.,-0.));
#270 = ( GEOMETRIC_REPRESENTATION_CONTEXT(2) 
PARAMETRIC_REPRESENTATION_CONTEXT() REPRESENTATION_CONTEXT('2D SPACE',''
  ) );
#271 = PCURVE('',#272,#277);
#272 = PLANE('',#273);
#273 = AXIS2_PLACEMENT_3D('',#274,#275,#276);
#274 = CARTESIAN_POINT('',(45.,15.,35.));
#275 = DIRECTION('',(-0.,0.,1.));
#276 = DIRECTION('',(0.,-1.,0.));
#277 = DEFINITIONAL_REPRESENTATION('',(#278),#286);
#278 = ( BOUNDED_CURVE() B_SPLINE_CURVE(2,(#279,#280,#281,#282,#283,#284
,#285),.UNSPECIFIED.,.T.,.F.) B_SPLINE_CURVE_WITH_KNOTS((1,2,2,2,2,1),(
    -2.094395102393,0.,2.094395102393,4.188790204786,6.28318530718,
8.377580409573),.UNSPECIFIED.) CURVE() GEOMETRIC_REPRESENTATION_ITEM() 
RATIONAL_B_SPLINE_CURVE((1.,0.5,1.,0.5,1.,0.5,1.)) REPRESENTATION_ITEM(
  '') );
#279 = CARTESIAN_POINT('',(15.,-5.));
#280 = CARTESIAN_POINT('',(84.282032302755,-5.));
#281 = CARTESIAN_POINT('',(49.641016151378,-65.));
#282 = CARTESIAN_POINT('',(15.,-125.));
#283 = CARTESIAN_POINT('',(-19.64101615137,-65.));
#284 = CARTESIAN_POINT('',(-54.28203230275,-5.));
#285 = CARTESIAN_POINT('',(15.,-5.));
#286 = ( GEOMETRIC_REPRESENTATION_CONTEXT(2) 
PARAMETRIC_REPRESENTATION_CONTEXT() REPRESENTATION_CONTEXT('2D SPACE',''
  ) );
#287 = ORIENTED_EDGE('',*,*,#288,.T.);
#288 = EDGE_CURVE('',#256,#289,#291,.T.);
#289 = VERTEX_POINT('',#290);
#290 = CARTESIAN_POINT('',(40.,0.,50.));
#291 = SEAM_CURVE('',#292,(#296,#303),.PCURVE_S1.);
#292 = LINE('',#293,#294);
#293 = CARTESIAN_POINT('',(40.,0.,0.));
#294 = VECTOR('',#295,1.);
#295 = DIRECTION('',(0.,0.,1.));
#296 = PCURVE('',#31,#297);
#297 = DEFINITIONAL_REPRESENTATION('',(#298),#302);
#298 = LINE('',#299,#300);
#299 = CARTESIAN_POINT('',(-6.28318530718,0.));
#300 = VECTOR('',#301,1.);
#301 = DIRECTION('',(-0.,-1.));
#302 = ( GEOMETRIC_REPRESENTATION_CONTEXT(2) 
PARAMETRIC_REPRESENTATION_CONTEXT() REPRESENTATION_CONTEXT('2D SPACE',''
  ) );
#303 = PCURVE('',#31,#304);
#304 = DEFINITIONAL_REPRESENTATION('',(#305),#309);
#305 = LINE('',#306,#307);
#306 = CARTESIAN_POINT('',(-0.,0.));
#307 = VECTOR('',#308,1.);
#308 = DIRECTION('',(-0.,-1.));
#309 = ( GEOMETRIC_REPRESENTATION_CONTEXT(2) 
PARAMETRIC_REPRESENTATION_CONTEXT() REPRESENTATION_CONTEXT('2D SPACE',''
  ) );
#310 = ORIENTED_EDGE('',*,*,#311,.T.);
#311 = EDGE_CURVE('',#289,#289,#312,.T.);
#312 = SURFACE_CURVE('',#313,(#318,#325),.PCURVE_S1.);
#313 = CIRCLE('',#314,40.);
#314 = AXIS2_PLACEMENT_3D('',#315,#316,#317);
#315 = CARTESIAN_POINT('',(0.,0.,50.));
#316 = DIRECTION('',(0.,0.,1.));
#317 = DIRECTION('',(1.,0.,0.));
#318 = PCURVE('',#31,#319);
#319 = DEFINITIONAL_REPRESENTATION('',(#320),#324);
#320 = LINE('',#321,#322);
#321 = CARTESIAN_POINT('',(-0.,-50.));
#322 = VECTOR('',#323,1.);
#323 = DIRECTION('',(-1.,0.));
#324 = ( GEOMETRIC_REPRESENTATION_CONTEXT(2) 
PARAMETRIC_REPRESENTATION_CONTEXT() REPRESENTATION_CONTEXT('2D SPACE',''
  ) );
#325 = PCURVE('',#326,#331);
#326 = PLANE('',#327);
#327 = AXIS2_PLACEMENT_3D('',#328,#329,#330);
#328 = CARTESIAN_POINT('',(-2.187904212063E-15,2.742946025263E-15,50.));
#329 = DIRECTION('',(0.,0.,1.));
#330 = DIRECTION('',(1.,0.,-0.));
#331 = DEFINITIONAL_REPRESENTATION('',(#332),#336);
#332 = CIRCLE('',#333,40.);
#333 = AXIS2_PLACEMENT_2D('',#334,#335);
#334 = CARTESIAN_POINT('',(2.187904212063E-15,-2.742946025263E-15));
#335 = DIRECTION('',(1.,0.));
#336 = ( GEOMETRIC_REPRESENTATION_CONTEXT(2) 
PARAMETRIC_REPRESENTATION_CONTEXT() REPRESENTATION_CONTEXT('2D SPACE',''
  ) );
#337 = ORIENTED_EDGE('',*,*,#288,.F.);
#338 = ORIENTED_EDGE('',*,*,#339,.T.);
#339 = EDGE_CURVE('',#256,#340,#342,.T.);
#340 = VERTEX_POINT('',#341);
#341 = CARTESIAN_POINT('',(37.828560638755,-13.,35.));
#342 = SURFACE_CURVE('',#343,(#348,#355),.PCURVE_S1.);
#343 = CIRCLE('',#344,40.);
#344 = AXIS2_PLACEMENT_3D('',#345,#346,#347);
#345 = CARTESIAN_POINT('',(0.,0.,35.));
#346 = DIRECTION('',(0.,0.,-1.));
#347 = DIRECTION('',(1.,0.,0.));
#348 = PCURVE('',#31,#349);
#349 = DEFINITIONAL_REPRESENTATION('',(#350),#354);
#350 = LINE('',#351,#352);
#351 = CARTESIAN_POINT('',(-6.28318530718,-35.));
#352 = VECTOR('',#353,1.);
#353 = DIRECTION('',(1.,-0.));
#354 = ( GEOMETRIC_REPRESENTATION_CONTEXT(2) 
PARAMETRIC_REPRESENTATION_CONTEXT() REPRESENTATION_CONTEXT('2D SPACE',''
  ) );
#355 = PCURVE('',#272,#356);
#356 = DEFINITIONAL_REPRESENTATION('',(#357),#365);
#357 = ( BOUNDED_CURVE() B_SPLINE_CURVE(2,(#358,#359,#360,#361,#362,#363
,#364),.UNSPECIFIED.,.T.,.F.) B_SPLINE_CURVE_WITH_KNOTS((1,2,2,2,2,1),(
    -2.094395102393,0.,2.094395102393,4.188790204786,6.28318530718,
8.377580409573),.UNSPECIFIED.) CURVE() GEOMETRIC_REPRESENTATION_ITEM() 
RATIONAL_B_SPLINE_CURVE((1.,0.5,1.,0.5,1.,0.5,1.)) REPRESENTATION_ITEM(
  '') );
#358 = CARTESIAN_POINT('',(15.,-5.));
#359 = CARTESIAN_POINT('',(84.282032302755,-5.));
#360 = CARTESIAN_POINT('',(49.641016151378,-65.));
#361 = CARTESIAN_POINT('',(15.,-125.));
#362 = CARTESIAN_POINT('',(-19.64101615137,-65.));
#363 = CARTESIAN_POINT('',(-54.28203230275,-5.));
#364 = CARTESIAN_POINT('',(15.,-5.));
#365 = ( GEOMETRIC_REPRESENTATION_CONTEXT(2) 
PARAMETRIC_REPRESENTATION_CONTEXT() REPRESENTATION_CONTEXT('2D SPACE',''
  ) );
#366 = ORIENTED_EDGE('',*,*,#367,.T.);
#367 = EDGE_CURVE('',#340,#368,#370,.T.);
#368 = VERTEX_POINT('',#369);
#369 = CARTESIAN_POINT('',(37.080992435478,-15.,33.));
#370 = SURFACE_CURVE('',#371,(#386,#404),.PCURVE_S1.);
#371 = B_SPLINE_CURVE_WITH_KNOTS('',7,(#372,#373,#374,#375,#376,#377,
    #378,#379,#380,#381,#382,#383,#384,#385),.UNSPECIFIED.,.F.,.F.,(8,6,
    8),(0.,0.466388976463,1.),.UNSPECIFIED.);
#372 = CARTESIAN_POINT('',(37.828560638755,-13.,35.));
#373 = CARTESIAN_POINT('',(37.74686762492,-13.2377176252,35.));
#374 = CARTESIAN_POINT('',(37.664524966035,-13.47165524179,
    34.967036130507));
#375 = CARTESIAN_POINT('',(37.58356422506,-13.69617513245,34.90299465258
    ));
#376 = CARTESIAN_POINT('',(37.506089685636,-13.90622822193,
    34.810987916084));
#377 = CARTESIAN_POINT('',(37.434121117859,-14.09765230521,
    34.695241722833));
#378 = CARTESIAN_POINT('',(37.369296476171,-14.26746057664,
    34.560966548106));
#379 = CARTESIAN_POINT('',(37.247741131923,-14.58211849768,
    34.246308627059));
#380 = CARTESIAN_POINT('',(37.192717001557,-14.72193144526,
    34.059981835525));
#381 = CARTESIAN_POINT('',(37.148207538128,-14.8334644475,33.86023776344
    ));
#382 = CARTESIAN_POINT('',(37.114628227218,-14.91685027126,
    33.651075492044));
#383 = CARTESIAN_POINT('',(37.092197077334,-14.97230134403,
    33.435928265828));
#384 = CARTESIAN_POINT('',(37.080992435478,-15.,33.217908384193));
#385 = CARTESIAN_POINT('',(37.080992435478,-15.,33.));
#386 = PCURVE('',#31,#387);
#387 = DEFINITIONAL_REPRESENTATION('',(#388),#403);
#388 = B_SPLINE_CURVE_WITH_KNOTS('',7,(#389,#390,#391,#392,#393,#394,
    #395,#396,#397,#398,#399,#400,#401,#402),.UNSPECIFIED.,.F.,.F.,(8,6,
    8),(0.,0.466388976463,1.),.UNSPECIFIED.);
#389 = CARTESIAN_POINT('',(-5.95217357909,-35.));
#390 = CARTESIAN_POINT('',(-5.945889501103,-35.));
#391 = CARTESIAN_POINT('',(-5.939689514519,-34.9670361305));
#392 = CARTESIAN_POINT('',(-5.933723015232,-34.90299465258));
#393 = CARTESIAN_POINT('',(-5.928126107225,-34.81098791608));
#394 = CARTESIAN_POINT('',(-5.92301356747,-34.69524172283));
#395 = CARTESIAN_POINT('',(-5.918469577169,-34.5609665481));
#396 = CARTESIAN_POINT('',(-5.910036557655,-34.24630862705));
#397 = CARTESIAN_POINT('',(-5.906280360988,-34.05998183552));
#398 = CARTESIAN_POINT('',(-5.903278239469,-33.86023776344));
#399 = CARTESIAN_POINT('',(-5.901030914549,-33.65107549204));
#400 = CARTESIAN_POINT('',(-5.899535509788,-33.43592826582));
#401 = CARTESIAN_POINT('',(-5.898788532684,-33.21790838419));
#402 = CARTESIAN_POINT('',(-5.898788532684,-33.));
#403 = ( GEOMETRIC_REPRESENTATION_CONTEXT(2) 
PARAMETRIC_REPRESENTATION_CONTEXT() REPRESENTATION_CONTEXT('2D SPACE',''
  ) );
#404 = PCURVE('',#405,#410);
#405 = CYLINDRICAL_SURFACE('',#406,2.);
#406 = AXIS2_PLACEMENT_3D('',#407,#408,#409);
#407 = CARTESIAN_POINT('',(45.,-13.,33.));
#408 = DIRECTION('',(-1.,-0.,-0.));
#409 = DIRECTION('',(-0.,0.,1.));
#410 = DEFINITIONAL_REPRESENTATION('',(#411),#426);
#411 = B_SPLINE_CURVE_WITH_KNOTS('',7,(#412,#413,#414,#415,#416,#417,
    #418,#419,#420,#421,#422,#423,#424,#425),.UNSPECIFIED.,.F.,.F.,(8,6,
    8),(0.,0.466388976463,1.),.UNSPECIFIED.);
#412 = CARTESIAN_POINT('',(0.,7.171439361245));
#413 = CARTESIAN_POINT('',(-0.118858812602,7.25313237508));
#414 = CARTESIAN_POINT('',(-0.235827605945,7.335475033965));
#415 = CARTESIAN_POINT('',(-0.350830239948,7.41643577494));
#416 = CARTESIAN_POINT('',(-0.463692240515,7.493910314364));
#417 = CARTESIAN_POINT('',(-0.574118396514,7.565878882141));
#418 = CARTESIAN_POINT('',(-0.681628132026,7.630703523829));
#419 = CARTESIAN_POINT('',(-0.904124881753,7.752258868077));
#420 = CARTESIAN_POINT('',(-1.019432823959,7.807282998443));
#421 = CARTESIAN_POINT('',(-1.132218525546,7.851792461872));
#422 = CARTESIAN_POINT('',(-1.243145397718,7.885371772782));
#423 = CARTESIAN_POINT('',(-1.352832367031,7.907802922666));
#424 = CARTESIAN_POINT('',(-1.461842134698,7.919007564522));
#425 = CARTESIAN_POINT('',(-1.570796326795,7.919007564522));
#426 = ( GEOMETRIC_REPRESENTATION_CONTEXT(2) 
PARAMETRIC_REPRESENTATION_CONTEXT() REPRESENTATION_CONTEXT('2D SPACE',''
  ) );
#427 = ORIENTED_EDGE('',*,*,#428,.T.);
#428 = EDGE_CURVE('',#368,#429,#431,.T.);
#429 = VERTEX_POINT('',#430);
#430 = CARTESIAN_POINT('',(37.080992435478,-15.,17.));
#431 = SURFACE_CURVE('',#432,(#436,#442),.PCURVE_S1.);
#432 = LINE('',#433,#434);
#433 = CARTESIAN_POINT('',(37.080992435478,-15.,0.));
#434 = VECTOR('',#435,1.);
#435 = DIRECTION('',(-0.,-0.,-1.));
#436 = PCURVE('',#31,#437);
#437 = DEFINITIONAL_REPRESENTATION('',(#438),#441);
#438 = B_SPLINE_CURVE_WITH_KNOTS('',1,(#439,#440),.UNSPECIFIED.,.F.,.F.,
  (2,2),(-34.6,-15.4),.PIECEWISE_BEZIER_KNOTS.);
#439 = CARTESIAN_POINT('',(-5.898788532684,-34.6));
#440 = CARTESIAN_POINT('',(-5.898788532684,-15.4));
#441 = ( GEOMETRIC_REPRESENTATION_CONTEXT(2) 
PARAMETRIC_REPRESENTATION_CONTEXT() REPRESENTATION_CONTEXT('2D SPACE',''
  ) );
#442 = PCURVE('',#443,#448);
#443 = PLANE('',#444);
#444 = AXIS2_PLACEMENT_3D('',#445,#446,#447);
#445 = CARTESIAN_POINT('',(45.,-15.,35.));
#446 = DIRECTION('',(0.,-1.,0.));
#447 = DIRECTION('',(0.,0.,-1.));
#448 = DEFINITIONAL_REPRESENTATION('',(#449),#452);
#449 = B_SPLINE_CURVE_WITH_KNOTS('',1,(#450,#451),.UNSPECIFIED.,.F.,.F.,
  (2,2),(-34.6,-15.4),.PIECEWISE_BEZIER_KNOTS.);
#450 = CARTESIAN_POINT('',(0.4,-7.919007564522));
#451 = CARTESIAN_POINT('',(19.6,-7.919007564522));
#452 = ( GEOMETRIC_REPRESENTATION_CONTEXT(2) 
PARAMETRIC_REPRESENTATION_CONTEXT() REPRESENTATION_CONTEXT('2D SPACE',''
  ) );
#453 = ORIENTED_EDGE('',*,*,#454,.F.);
#454 = EDGE_CURVE('',#455,#429,#457,.T.);
#455 = VERTEX_POINT('',#456);
#456 = CARTESIAN_POINT('',(37.828560638755,-13.,15.));
#457 = SURFACE_CURVE('',#458,(#473,#491),.PCURVE_S1.);
#458 = B_SPLINE_CURVE_WITH_KNOTS('',7,(#459,#460,#461,#462,#463,#464,
    #465,#466,#467,#468,#469,#470,#471,#472),.UNSPECIFIED.,.F.,.F.,(8,6,
    8),(0.,0.466388974137,1.),.UNSPECIFIED.);
#459 = CARTESIAN_POINT('',(37.828560638755,-13.,15.));
#460 = CARTESIAN_POINT('',(37.746867624198,-13.2377176273,15.));
#461 = CARTESIAN_POINT('',(37.664524967732,-13.47165523681,
    15.032963869924));
#462 = CARTESIAN_POINT('',(37.583564223773,-13.69617513645,
    15.097005345342));
#463 = CARTESIAN_POINT('',(37.50608968527,-13.9062282225,15.189012087826
    ));
#464 = CARTESIAN_POINT('',(37.434121118973,-14.09765230242,
    15.30475827363));
#465 = CARTESIAN_POINT('',(37.369296475641,-14.26746057801,
    15.439033453265));
#466 = CARTESIAN_POINT('',(37.247741131923,-14.58211849768,
    15.753691372941));
#467 = CARTESIAN_POINT('',(37.192717001557,-14.72193144526,
    15.940018164475));
#468 = CARTESIAN_POINT('',(37.148207538129,-14.8334644475,
    16.139762236559));
#469 = CARTESIAN_POINT('',(37.114628227218,-14.91685027126,
    16.348924507957));
#470 = CARTESIAN_POINT('',(37.092197077334,-14.97230134403,
    16.564071734172));
#471 = CARTESIAN_POINT('',(37.080992435478,-15.,16.782091615807));
#472 = CARTESIAN_POINT('',(37.080992435478,-15.,17.));
#473 = PCURVE('',#31,#474);
#474 = DEFINITIONAL_REPRESENTATION('',(#475),#490);
#475 = B_SPLINE_CURVE_WITH_KNOTS('',7,(#476,#477,#478,#479,#480,#481,
    #482,#483,#484,#485,#486,#487,#488,#489),.UNSPECIFIED.,.F.,.F.,(8,6,
    8),(0.,0.466388974137,1.),.UNSPECIFIED.);
#476 = CARTESIAN_POINT('',(-5.95217357909,-15.));
#477 = CARTESIAN_POINT('',(-5.945889501047,-15.));
#478 = CARTESIAN_POINT('',(-5.93968951465,-15.03296386992));
#479 = CARTESIAN_POINT('',(-5.933723015127,-15.09700534534));
#480 = CARTESIAN_POINT('',(-5.928126107208,-15.18901208782));
#481 = CARTESIAN_POINT('',(-5.923013567545,-15.30475827363));
#482 = CARTESIAN_POINT('',(-5.918469577132,-15.43903345326));
#483 = CARTESIAN_POINT('',(-5.910036557655,-15.75369137294));
#484 = CARTESIAN_POINT('',(-5.906280360988,-15.94001816447));
#485 = CARTESIAN_POINT('',(-5.903278239469,-16.13976223655));
#486 = CARTESIAN_POINT('',(-5.901030914549,-16.34892450795));
#487 = CARTESIAN_POINT('',(-5.899535509788,-16.56407173417));
#488 = CARTESIAN_POINT('',(-5.898788532684,-16.7820916158));
#489 = CARTESIAN_POINT('',(-5.898788532684,-17.));
#490 = ( GEOMETRIC_REPRESENTATION_CONTEXT(2) 
PARAMETRIC_REPRESENTATION_CONTEXT() REPRESENTATION_CONTEXT('2D SPACE',''
  ) );
#491 = PCURVE('',#492,#497);
#492 = CYLINDRICAL_SURFACE('',#493,2.);
#493 = AXIS2_PLACEMENT_3D('',#494,#495,#496);
#494 = CARTESIAN_POINT('',(45.,-13.,17.));
#495 = DIRECTION('',(-1.,-0.,-0.));
#496 = DIRECTION('',(0.,0.,-1.));
#497 = DEFINITIONAL_REPRESENTATION('',(#498),#513);
#498 = B_SPLINE_CURVE_WITH_KNOTS('',7,(#499,#500,#501,#502,#503,#504,
    #505,#506,#507,#508,#509,#510,#511,#512),.UNSPECIFIED.,.F.,.F.,(8,6,
    8),(0.,0.466388974137,1.),.UNSPECIFIED.);
#499 = CARTESIAN_POINT('',(0.,7.171439361245));
#500 = CARTESIAN_POINT('',(0.118858813651,7.253132375802));
#501 = CARTESIAN_POINT('',(0.235827603564,7.335475032268));
#502 = CARTESIAN_POINT('',(0.3508302415,7.416435776227));
#503 = CARTESIAN_POINT('',(0.463692241588,7.49391031473));
#504 = CARTESIAN_POINT('',(0.574118394409,7.565878881027));
#505 = CARTESIAN_POINT('',(0.681628132996,7.630703524359));
#506 = CARTESIAN_POINT('',(0.904124881753,7.752258868077));
#507 = CARTESIAN_POINT('',(1.019432823959,7.807282998443));
#508 = CARTESIAN_POINT('',(1.132218525546,7.851792461871));
#509 = CARTESIAN_POINT('',(1.243145397718,7.885371772782));
#510 = CARTESIAN_POINT('',(1.352832367031,7.907802922666));
#511 = CARTESIAN_POINT('',(1.461842134698,7.919007564522));
#512 = CARTESIAN_POINT('',(1.570796326795,7.919007564522));
#513 = ( GEOMETRIC_REPRESENTATION_CONTEXT(2) 
PARAMETRIC_REPRESENTATION_CONTEXT() REPRESENTATION_CONTEXT('2D SPACE',''
  ) );
#514 = ORIENTED_EDGE('',*,*,#515,.F.);
#515 = EDGE_CURVE('',#56,#455,#516,.T.);
#516 = SURFACE_CURVE('',#517,(#522,#529),.PCURVE_S1.);
#517 = CIRCLE('',#518,40.);
#518 = AXIS2_PLACEMENT_3D('',#519,#520,#521);
#519 = CARTESIAN_POINT('',(0.,0.,15.));
#520 = DIRECTION('',(0.,0.,-1.));
#521 = DIRECTION('',(1.,0.,0.));
#522 = PCURVE('',#31,#523);
#523 = DEFINITIONAL_REPRESENTATION('',(#524),#528);
#524 = LINE('',#525,#526);
#525 = CARTESIAN_POINT('',(-6.28318530718,-15.));
#526 = VECTOR('',#527,1.);
#527 = DIRECTION('',(1.,-0.));
#528 = ( GEOMETRIC_REPRESENTATION_CONTEXT(2) 
PARAMETRIC_REPRESENTATION_CONTEXT() REPRESENTATION_CONTEXT('2D SPACE',''
  ) );
#529 = PCURVE('',#95,#530);
#530 = DEFINITIONAL_REPRESENTATION('',(#531),#535);
#531 = CIRCLE('',#532,40.);
#532 = AXIS2_PLACEMENT_2D('',#533,#534);
#533 = CARTESIAN_POINT('',(15.,-45.));
#534 = DIRECTION('',(0.,1.));
#535 = ( GEOMETRIC_REPRESENTATION_CONTEXT(2) 
PARAMETRIC_REPRESENTATION_CONTEXT() REPRESENTATION_CONTEXT('2D SPACE',''
  ) );
#536 = ORIENTED_EDGE('',*,*,#55,.F.);
#537 = ADVANCED_FACE('',(#538,#541),#43,.F.);
#538 = FACE_BOUND('',#539,.F.);
#539 = EDGE_LOOP('',(#540));
#540 = ORIENTED_EDGE('',*,*,#21,.T.);
#541 = FACE_BOUND('',#542,.F.);
#542 = EDGE_LOOP('',(#543));
#543 = ORIENTED_EDGE('',*,*,#544,.F.);
#544 = EDGE_CURVE('',#545,#545,#547,.T.);
#545 = VERTEX_POINT('',#546);
#546 = CARTESIAN_POINT('',(30.,1.06581410364E-15,0.));
#547 = SURFACE_CURVE('',#548,(#553,#560),.PCURVE_S1.);
#548 = CIRCLE('',#549,30.);
#549 = AXIS2_PLACEMENT_3D('',#550,#551,#552);
#550 = CARTESIAN_POINT('',(1.897149104479E-13,1.06581410364E-15,0.));
#551 = DIRECTION('',(0.,0.,1.));
#552 = DIRECTION('',(1.,0.,0.));
#553 = PCURVE('',#43,#554);
#554 = DEFINITIONAL_REPRESENTATION('',(#555),#559);
#555 = CIRCLE('',#556,30.);
#556 = AXIS2_PLACEMENT_2D('',#557,#558);
#557 = CARTESIAN_POINT('',(1.9190281466E-13,-1.677131921623E-15));
#558 = DIRECTION('',(1.,0.));
#559 = ( GEOMETRIC_REPRESENTATION_CONTEXT(2) 
PARAMETRIC_REPRESENTATION_CONTEXT() REPRESENTATION_CONTEXT('2D SPACE',''
  ) );
#560 = PCURVE('',#561,#566);
#561 = CYLINDRICAL_SURFACE('',#562,30.);
#562 = AXIS2_PLACEMENT_3D('',#563,#564,#565);
#563 = CARTESIAN_POINT('',(1.897149104479E-13,1.06581410364E-15,0.));
#564 = DIRECTION('',(-0.,-0.,-1.));
#565 = DIRECTION('',(1.,0.,0.));
#566 = DEFINITIONAL_REPRESENTATION('',(#567),#571);
#567 = LINE('',#568,#569);
#568 = CARTESIAN_POINT('',(-0.,0.));
#569 = VECTOR('',#570,1.);
#570 = DIRECTION('',(-1.,0.));
#571 = ( GEOMETRIC_REPRESENTATION_CONTEXT(2) 
PARAMETRIC_REPRESENTATION_CONTEXT() REPRESENTATION_CONTEXT('2D SPACE',''
  ) );
#572 = ADVANCED_FACE('',(#573),#95,.F.);
#573 = FACE_BOUND('',#574,.F.);
#574 = EDGE_LOOP('',(#575,#576,#599,#623,#647,#668));
#575 = ORIENTED_EDGE('',*,*,#515,.T.);
#576 = ORIENTED_EDGE('',*,*,#577,.T.);
#577 = EDGE_CURVE('',#455,#578,#580,.T.);
#578 = VERTEX_POINT('',#579);
#579 = CARTESIAN_POINT('',(27.037011669192,-13.,15.));
#580 = SURFACE_CURVE('',#581,(#585,#592),.PCURVE_S1.);
#581 = LINE('',#582,#583);
#582 = CARTESIAN_POINT('',(45.,-13.,15.));
#583 = VECTOR('',#584,1.);
#584 = DIRECTION('',(-1.,-0.,-0.));
#585 = PCURVE('',#95,#586);
#586 = DEFINITIONAL_REPRESENTATION('',(#587),#591);
#587 = LINE('',#588,#589);
#588 = CARTESIAN_POINT('',(2.,0.));
#589 = VECTOR('',#590,1.);
#590 = DIRECTION('',(-0.,-1.));
#591 = ( GEOMETRIC_REPRESENTATION_CONTEXT(2) 
PARAMETRIC_REPRESENTATION_CONTEXT() REPRESENTATION_CONTEXT('2D SPACE',''
  ) );
#592 = PCURVE('',#492,#593);
#593 = DEFINITIONAL_REPRESENTATION('',(#594),#598);
#594 = LINE('',#595,#596);
#595 = CARTESIAN_POINT('',(0.,0.));
#596 = VECTOR('',#597,1.);
#597 = DIRECTION('',(0.,1.));
#598 = ( GEOMETRIC_REPRESENTATION_CONTEXT(2) 
PARAMETRIC_REPRESENTATION_CONTEXT() REPRESENTATION_CONTEXT('2D SPACE',''
  ) );
#599 = ORIENTED_EDGE('',*,*,#600,.F.);
#600 = EDGE_CURVE('',#601,#578,#603,.T.);
#601 = VERTEX_POINT('',#602);
#602 = CARTESIAN_POINT('',(30.,1.06581410364E-15,15.));
#603 = SURFACE_CURVE('',#604,(#609,#616),.PCURVE_S1.);
#604 = CIRCLE('',#605,30.);
#605 = AXIS2_PLACEMENT_3D('',#606,#607,#608);
#606 = CARTESIAN_POINT('',(1.897149104479E-13,1.06581410364E-15,15.));
#607 = DIRECTION('',(0.,0.,-1.));
#608 = DIRECTION('',(1.,0.,0.));
#609 = PCURVE('',#95,#610);
#610 = DEFINITIONAL_REPRESENTATION('',(#611),#615);
#611 = CIRCLE('',#612,30.);
#612 = AXIS2_PLACEMENT_2D('',#613,#614);
#613 = CARTESIAN_POINT('',(15.,-45.));
#614 = DIRECTION('',(0.,1.));
#615 = ( GEOMETRIC_REPRESENTATION_CONTEXT(2) 
PARAMETRIC_REPRESENTATION_CONTEXT() REPRESENTATION_CONTEXT('2D SPACE',''
  ) );
#616 = PCURVE('',#561,#617);
#617 = DEFINITIONAL_REPRESENTATION('',(#618),#622);
#618 = LINE('',#619,#620);
#619 = CARTESIAN_POINT('',(-6.28318530718,-15.));
#620 = VECTOR('',#621,1.);
#621 = DIRECTION('',(1.,-0.));
#622 = ( GEOMETRIC_REPRESENTATION_CONTEXT(2) 
PARAMETRIC_REPRESENTATION_CONTEXT() REPRESENTATION_CONTEXT('2D SPACE',''
  ) );
#623 = ORIENTED_EDGE('',*,*,#624,.F.);
#624 = EDGE_CURVE('',#625,#601,#627,.T.);
#625 = VERTEX_POINT('',#626);
#626 = CARTESIAN_POINT('',(27.037011669192,13.,15.));
#627 = SURFACE_CURVE('',#628,(#633,#640),.PCURVE_S1.);
#628 = CIRCLE('',#629,30.);
#629 = AXIS2_PLACEMENT_3D('',#630,#631,#632);
#630 = CARTESIAN_POINT('',(1.897149104479E-13,1.06581410364E-15,15.));
#631 = DIRECTION('',(0.,0.,-1.));
#632 = DIRECTION('',(1.,0.,0.));
#633 = PCURVE('',#95,#634);
#634 = DEFINITIONAL_REPRESENTATION('',(#635),#639);
#635 = CIRCLE('',#636,30.);
#636 = AXIS2_PLACEMENT_2D('',#637,#638);
#637 = CARTESIAN_POINT('',(15.,-45.));
#638 = DIRECTION('',(0.,1.));
#639 = ( GEOMETRIC_REPRESENTATION_CONTEXT(2) 
PARAMETRIC_REPRESENTATION_CONTEXT() REPRESENTATION_CONTEXT('2D SPACE',''
  ) );
#640 = PCURVE('',#561,#641);
#641 = DEFINITIONAL_REPRESENTATION('',(#642),#646);
#642 = LINE('',#643,#644);
#643 = CARTESIAN_POINT('',(-6.28318530718,-15.));
#644 = VECTOR('',#645,1.);
#645 = DIRECTION('',(1.,-0.));
#646 = ( GEOMETRIC_REPRESENTATION_CONTEXT(2) 
PARAMETRIC_REPRESENTATION_CONTEXT() REPRESENTATION_CONTEXT('2D SPACE',''
  ) );
#647 = ORIENTED_EDGE('',*,*,#648,.F.);
#648 = EDGE_CURVE('',#79,#625,#649,.T.);
#649 = SURFACE_CURVE('',#650,(#654,#661),.PCURVE_S1.);
#650 = LINE('',#651,#652);
#651 = CARTESIAN_POINT('',(45.,13.,15.));
#652 = VECTOR('',#653,1.);
#653 = DIRECTION('',(-1.,-0.,-0.));
#654 = PCURVE('',#95,#655);
#655 = DEFINITIONAL_REPRESENTATION('',(#656),#660);
#656 = LINE('',#657,#658);
#657 = CARTESIAN_POINT('',(28.,0.));
#658 = VECTOR('',#659,1.);
#659 = DIRECTION('',(-0.,-1.));
#660 = ( GEOMETRIC_REPRESENTATION_CONTEXT(2) 
PARAMETRIC_REPRESENTATION_CONTEXT() REPRESENTATION_CONTEXT('2D SPACE',''
  ) );
#661 = PCURVE('',#145,#662);
#662 = DEFINITIONAL_REPRESENTATION('',(#663),#667);
#663 = LINE('',#664,#665);
#664 = CARTESIAN_POINT('',(-0.,0.));
#665 = VECTOR('',#666,1.);
#666 = DIRECTION('',(-0.,1.));
#667 = ( GEOMETRIC_REPRESENTATION_CONTEXT(2) 
PARAMETRIC_REPRESENTATION_CONTEXT() REPRESENTATION_CONTEXT('2D SPACE',''
  ) );
#668 = ORIENTED_EDGE('',*,*,#78,.T.);
#669 = ADVANCED_FACE('',(#670),#492,.F.);
#670 = FACE_BOUND('',#671,.F.);
#671 = EDGE_LOOP('',(#672,#673,#674,#697));
#672 = ORIENTED_EDGE('',*,*,#577,.F.);
#673 = ORIENTED_EDGE('',*,*,#454,.T.);
#674 = ORIENTED_EDGE('',*,*,#675,.T.);
#675 = EDGE_CURVE('',#429,#676,#678,.T.);
#676 = VERTEX_POINT('',#677);
#677 = CARTESIAN_POINT('',(25.980762113533,-15.,17.));
#678 = SURFACE_CURVE('',#679,(#683,#690),.PCURVE_S1.);
#679 = LINE('',#680,#681);
#680 = CARTESIAN_POINT('',(45.,-15.,17.));
#681 = VECTOR('',#682,1.);
#682 = DIRECTION('',(-1.,-0.,-0.));
#683 = PCURVE('',#492,#684);
#684 = DEFINITIONAL_REPRESENTATION('',(#685),#689);
#685 = LINE('',#686,#687);
#686 = CARTESIAN_POINT('',(1.570796326795,0.));
#687 = VECTOR('',#688,1.);
#688 = DIRECTION('',(0.,1.));
#689 = ( GEOMETRIC_REPRESENTATION_CONTEXT(2) 
PARAMETRIC_REPRESENTATION_CONTEXT() REPRESENTATION_CONTEXT('2D SPACE',''
  ) );
#690 = PCURVE('',#443,#691);
#691 = DEFINITIONAL_REPRESENTATION('',(#692),#696);
#692 = LINE('',#693,#694);
#693 = CARTESIAN_POINT('',(18.,0.));
#694 = VECTOR('',#695,1.);
#695 = DIRECTION('',(0.,-1.));
#696 = ( GEOMETRIC_REPRESENTATION_CONTEXT(2) 
PARAMETRIC_REPRESENTATION_CONTEXT() REPRESENTATION_CONTEXT('2D SPACE',''
  ) );
#697 = ORIENTED_EDGE('',*,*,#698,.F.);
#698 = EDGE_CURVE('',#578,#676,#699,.T.);
#699 = SURFACE_CURVE('',#700,(#715,#733),.PCURVE_S1.);
#700 = B_SPLINE_CURVE_WITH_KNOTS('',7,(#701,#702,#703,#704,#705,#706,
    #707,#708,#709,#710,#711,#712,#713,#714),.UNSPECIFIED.,.F.,.F.,(8,6,
    8),(0.,0.479168569065,1.),.UNSPECIFIED.);
#701 = CARTESIAN_POINT('',(27.037011669192,-13.,15.));
#702 = CARTESIAN_POINT('',(26.924102133788,-13.23482587894,15.));
#703 = CARTESIAN_POINT('',(26.809934991307,-13.46617433751,
    15.032166759787));
#704 = CARTESIAN_POINT('',(26.697070279128,-13.68893980994,
    15.094786232809));
#705 = CARTESIAN_POINT('',(26.588196129392,-13.8985412403,
    15.185241700441));
#706 = CARTESIAN_POINT('',(26.485983831256,-14.09110110814,
    15.300093878264));
#707 = CARTESIAN_POINT('',(26.392778863085,-14.26361493814,
    15.435187813399));
#708 = CARTESIAN_POINT('',(26.220592685503,-14.57790647133,
    15.749479346589));
#709 = CARTESIAN_POINT('',(26.142921138298,-14.71686067638,
    15.932643329044));
#710 = CARTESIAN_POINT('',(26.078973400316,-14.8294387297,
    16.131082333938));
#711 = CARTESIAN_POINT('',(26.030098282091,-14.91454717494,
    16.340823158252));
#712 = CARTESIAN_POINT('',(25.997210062277,-14.97151133574,
    16.558043838898));
#713 = CARTESIAN_POINT('',(25.980762113533,-15.,16.779007263492));
#714 = CARTESIAN_POINT('',(25.980762113533,-15.,17.));
#715 = PCURVE('',#492,#716);
#716 = DEFINITIONAL_REPRESENTATION('',(#717),#732);
#717 = B_SPLINE_CURVE_WITH_KNOTS('',7,(#718,#719,#720,#721,#722,#723,
    #724,#725,#726,#727,#728,#729,#730,#731),.UNSPECIFIED.,.F.,.F.,(8,6,
    8),(0.,0.479168569065,1.),.UNSPECIFIED.);
#718 = CARTESIAN_POINT('',(0.,17.962988330808));
#719 = CARTESIAN_POINT('',(0.117412939472,18.075897866212));
#720 = CARTESIAN_POINT('',(0.233087206223,18.190065008693));
#721 = CARTESIAN_POINT('',(0.347113482057,18.302929720872));
#722 = CARTESIAN_POINT('',(0.459493900624,18.411803870608));
#723 = CARTESIAN_POINT('',(0.5701531418,18.514016168744));
#724 = CARTESIAN_POINT('',(0.678908854969,18.607221136915));
#725 = CARTESIAN_POINT('',(0.901146529356,18.779407314497));
#726 = CARTESIAN_POINT('',(1.015032992695,18.857078861702));
#727 = CARTESIAN_POINT('',(1.127525197554,18.921026599684));
#728 = CARTESIAN_POINT('',(1.239005359333,18.969901717909));
#729 = CARTESIAN_POINT('',(1.34981782618,19.002789937723));
#730 = CARTESIAN_POINT('',(1.460299958541,19.019237886467));
#731 = CARTESIAN_POINT('',(1.570796326795,19.019237886467));
#732 = ( GEOMETRIC_REPRESENTATION_CONTEXT(2) 
PARAMETRIC_REPRESENTATION_CONTEXT() REPRESENTATION_CONTEXT('2D SPACE',''
  ) );
#733 = PCURVE('',#561,#734);
#734 = DEFINITIONAL_REPRESENTATION('',(#735),#750);
#735 = B_SPLINE_CURVE_WITH_KNOTS('',7,(#736,#737,#738,#739,#740,#741,
    #742,#743,#744,#745,#746,#747,#748,#749),.UNSPECIFIED.,.F.,.F.,(8,6,
    8),(0.,0.479168569065,1.),.UNSPECIFIED.);
#736 = CARTESIAN_POINT('',(-5.8349971712,-15.));
#737 = CARTESIAN_POINT('',(-5.826311822323,-15.));
#738 = CARTESIAN_POINT('',(-5.817712772817,-15.03216675978));
#739 = CARTESIAN_POINT('',(-5.809389313817,-15.0947862328));
#740 = CARTESIAN_POINT('',(-5.801516897525,-15.18524170044));
#741 = CARTESIAN_POINT('',(-5.794250350996,-15.30009387826));
#742 = CARTESIAN_POINT('',(-5.78771439373,-15.43518781339));
#743 = CARTESIAN_POINT('',(-5.775768811209,-15.74947934658));
#744 = CARTESIAN_POINT('',(-5.77046270613,-15.93264332904));
#745 = CARTESIAN_POINT('',(-5.766147062074,-16.13108233393));
#746 = CARTESIAN_POINT('',(-5.762875617526,-16.34082315825));
#747 = CARTESIAN_POINT('',(-5.760683058412,-16.55804383889));
#748 = CARTESIAN_POINT('',(-5.759586531581,-16.77900726349));
#749 = CARTESIAN_POINT('',(-5.759586531581,-17.));
#750 = ( GEOMETRIC_REPRESENTATION_CONTEXT(2) 
PARAMETRIC_REPRESENTATION_CONTEXT() REPRESENTATION_CONTEXT('2D SPACE',''
  ) );
#751 = ADVANCED_FACE('',(#752),#443,.F.);
#752 = FACE_BOUND('',#753,.F.);
#753 = EDGE_LOOP('',(#754,#755,#778,#797));
#754 = ORIENTED_EDGE('',*,*,#428,.F.);
#755 = ORIENTED_EDGE('',*,*,#756,.T.);
#756 = EDGE_CURVE('',#368,#757,#759,.T.);
#757 = VERTEX_POINT('',#758);
#758 = CARTESIAN_POINT('',(25.980762113533,-15.,33.));
#759 = SURFACE_CURVE('',#760,(#764,#771),.PCURVE_S1.);
#760 = LINE('',#761,#762);
#761 = CARTESIAN_POINT('',(45.,-15.,33.));
#762 = VECTOR('',#763,1.);
#763 = DIRECTION('',(-1.,-0.,-0.));
#764 = PCURVE('',#443,#765);
#765 = DEFINITIONAL_REPRESENTATION('',(#766),#770);
#766 = LINE('',#767,#768);
#767 = CARTESIAN_POINT('',(2.,0.));
#768 = VECTOR('',#769,1.);
#769 = DIRECTION('',(0.,-1.));
#770 = ( GEOMETRIC_REPRESENTATION_CONTEXT(2) 
PARAMETRIC_REPRESENTATION_CONTEXT() REPRESENTATION_CONTEXT('2D SPACE',''
  ) );
#771 = PCURVE('',#405,#772);
#772 = DEFINITIONAL_REPRESENTATION('',(#773),#777);
#773 = LINE('',#774,#775);
#774 = CARTESIAN_POINT('',(-1.570796326795,0.));
#775 = VECTOR('',#776,1.);
#776 = DIRECTION('',(-0.,1.));
#777 = ( GEOMETRIC_REPRESENTATION_CONTEXT(2) 
PARAMETRIC_REPRESENTATION_CONTEXT() REPRESENTATION_CONTEXT('2D SPACE',''
  ) );
#778 = ORIENTED_EDGE('',*,*,#779,.T.);
#779 = EDGE_CURVE('',#757,#676,#780,.T.);
#780 = SURFACE_CURVE('',#781,(#785,#791),.PCURVE_S1.);
#781 = LINE('',#782,#783);
#782 = CARTESIAN_POINT('',(25.980762113533,-15.,0.));
#783 = VECTOR('',#784,1.);
#784 = DIRECTION('',(-0.,-0.,-1.));
#785 = PCURVE('',#443,#786);
#786 = DEFINITIONAL_REPRESENTATION('',(#787),#790);
#787 = B_SPLINE_CURVE_WITH_KNOTS('',1,(#788,#789),.UNSPECIFIED.,.F.,.F.,
  (2,2),(-34.6,-15.4),.PIECEWISE_BEZIER_KNOTS.);
#788 = CARTESIAN_POINT('',(0.4,-19.01923788646));
#789 = CARTESIAN_POINT('',(19.6,-19.01923788646));
#790 = ( GEOMETRIC_REPRESENTATION_CONTEXT(2) 
PARAMETRIC_REPRESENTATION_CONTEXT() REPRESENTATION_CONTEXT('2D SPACE',''
  ) );
#791 = PCURVE('',#561,#792);
#792 = DEFINITIONAL_REPRESENTATION('',(#793),#796);
#793 = B_SPLINE_CURVE_WITH_KNOTS('',1,(#794,#795),.UNSPECIFIED.,.F.,.F.,
  (2,2),(-34.6,-15.4),.PIECEWISE_BEZIER_KNOTS.);
#794 = CARTESIAN_POINT('',(-5.759586531581,-34.6));
#795 = CARTESIAN_POINT('',(-5.759586531581,-15.4));
#796 = ( GEOMETRIC_REPRESENTATION_CONTEXT(2) 
PARAMETRIC_REPRESENTATION_CONTEXT() REPRESENTATION_CONTEXT('2D SPACE',''
  ) );
#797 = ORIENTED_EDGE('',*,*,#675,.F.);
#798 = ADVANCED_FACE('',(#799),#405,.F.);
#799 = FACE_BOUND('',#800,.T.);
#800 = EDGE_LOOP('',(#801,#824,#825,#826));
#801 = ORIENTED_EDGE('',*,*,#802,.F.);
#802 = EDGE_CURVE('',#340,#803,#805,.T.);
#803 = VERTEX_POINT('',#804);
#804 = CARTESIAN_POINT('',(27.037011669192,-13.,35.));
#805 = SURFACE_CURVE('',#806,(#810,#817),.PCURVE_S1.);
#806 = LINE('',#807,#808);
#807 = CARTESIAN_POINT('',(45.,-13.,35.));
#808 = VECTOR('',#809,1.);
#809 = DIRECTION('',(-1.,-0.,-0.));
#810 = PCURVE('',#405,#811);
#811 = DEFINITIONAL_REPRESENTATION('',(#812),#816);
#812 = LINE('',#813,#814);
#813 = CARTESIAN_POINT('',(-0.,0.));
#814 = VECTOR('',#815,1.);
#815 = DIRECTION('',(-0.,1.));
#816 = ( GEOMETRIC_REPRESENTATION_CONTEXT(2) 
PARAMETRIC_REPRESENTATION_CONTEXT() REPRESENTATION_CONTEXT('2D SPACE',''
  ) );
#817 = PCURVE('',#272,#818);
#818 = DEFINITIONAL_REPRESENTATION('',(#819),#823);
#819 = LINE('',#820,#821);
#820 = CARTESIAN_POINT('',(28.,0.));
#821 = VECTOR('',#822,1.);
#822 = DIRECTION('',(0.,-1.));
#823 = ( GEOMETRIC_REPRESENTATION_CONTEXT(2) 
PARAMETRIC_REPRESENTATION_CONTEXT() REPRESENTATION_CONTEXT('2D SPACE',''
  ) );
#824 = ORIENTED_EDGE('',*,*,#367,.T.);
#825 = ORIENTED_EDGE('',*,*,#756,.T.);
#826 = ORIENTED_EDGE('',*,*,#827,.F.);
#827 = EDGE_CURVE('',#803,#757,#828,.T.);
#828 = SURFACE_CURVE('',#829,(#844,#862),.PCURVE_S1.);
#829 = B_SPLINE_CURVE_WITH_KNOTS('',7,(#830,#831,#832,#833,#834,#835,
    #836,#837,#838,#839,#840,#841,#842,#843),.UNSPECIFIED.,.F.,.F.,(8,6,
    8),(0.,0.479168573472,1.),.UNSPECIFIED.);
#830 = CARTESIAN_POINT('',(27.037011669192,-13.,35.));
#831 = CARTESIAN_POINT('',(26.924102135787,-13.23482587478,35.));
#832 = CARTESIAN_POINT('',(26.80993498646,-13.46617434769,
    34.967833241094));
#833 = CARTESIAN_POINT('',(26.697070282718,-13.68893980188,
    34.90521376282));
#834 = CARTESIAN_POINT('',(26.588196130718,-13.89854123871,
    34.814758307782));
#835 = CARTESIAN_POINT('',(26.485983827953,-14.09110111397,
    34.699906114503));
#836 = CARTESIAN_POINT('',(26.392778864542,-14.26361493548,
    34.56481218926));
#837 = CARTESIAN_POINT('',(26.220592685503,-14.57790647133,
    34.250520653411));
#838 = CARTESIAN_POINT('',(26.142921138298,-14.71686067638,
    34.067356670956));
#839 = CARTESIAN_POINT('',(26.078973400316,-14.8294387297,
    33.868917666062));
#840 = CARTESIAN_POINT('',(26.030098282091,-14.91454717494,
    33.659176841748));
#841 = CARTESIAN_POINT('',(25.997210062277,-14.97151133574,
    33.441956161102));
#842 = CARTESIAN_POINT('',(25.980762113533,-15.,33.220992736508));
#843 = CARTESIAN_POINT('',(25.980762113533,-15.,33.));
#844 = PCURVE('',#405,#845);
#845 = DEFINITIONAL_REPRESENTATION('',(#846),#861);
#846 = B_SPLINE_CURVE_WITH_KNOTS('',7,(#847,#848,#849,#850,#851,#852,
    #853,#854,#855,#856,#857,#858,#859,#860),.UNSPECIFIED.,.F.,.F.,(8,6,
    8),(0.,0.479168573472,1.),.UNSPECIFIED.);
#847 = CARTESIAN_POINT('',(0.,17.962988330808));
#848 = CARTESIAN_POINT('',(-0.117412937393,18.075897864213));
#849 = CARTESIAN_POINT('',(-0.233087211082,18.19006501354));
#850 = CARTESIAN_POINT('',(-0.347113478965,18.302929717282));
#851 = CARTESIAN_POINT('',(-0.459493898194,18.411803869282));
#852 = CARTESIAN_POINT('',(-0.570153146154,18.514016172047));
#853 = CARTESIAN_POINT('',(-0.678908853088,18.607221135458));
#854 = CARTESIAN_POINT('',(-0.901146529356,18.779407314497));
#855 = CARTESIAN_POINT('',(-1.015032992695,18.857078861702));
#856 = CARTESIAN_POINT('',(-1.127525197554,18.921026599684));
#857 = CARTESIAN_POINT('',(-1.239005359333,18.969901717909));
#858 = CARTESIAN_POINT('',(-1.34981782618,19.002789937723));
#859 = CARTESIAN_POINT('',(-1.460299958541,19.019237886467));
#860 = CARTESIAN_POINT('',(-1.570796326795,19.019237886467));
#861 = ( GEOMETRIC_REPRESENTATION_CONTEXT(2) 
PARAMETRIC_REPRESENTATION_CONTEXT() REPRESENTATION_CONTEXT('2D SPACE',''
  ) );
#862 = PCURVE('',#561,#863);
#863 = DEFINITIONAL_REPRESENTATION('',(#864),#879);
#864 = B_SPLINE_CURVE_WITH_KNOTS('',7,(#865,#866,#867,#868,#869,#870,
    #871,#872,#873,#874,#875,#876,#877,#878),.UNSPECIFIED.,.F.,.F.,(8,6,
    8),(0.,0.479168573472,1.),.UNSPECIFIED.);
#865 = CARTESIAN_POINT('',(-5.8349971712,-35.));
#866 = CARTESIAN_POINT('',(-5.826311822477,-35.));
#867 = CARTESIAN_POINT('',(-5.817712772441,-34.96783324109));
#868 = CARTESIAN_POINT('',(-5.80938931411,-34.90521376282));
#869 = CARTESIAN_POINT('',(-5.801516897593,-34.81475830778));
#870 = CARTESIAN_POINT('',(-5.794250350773,-34.6999061145));
#871 = CARTESIAN_POINT('',(-5.787714393831,-34.56481218926));
#872 = CARTESIAN_POINT('',(-5.775768811209,-34.25052065341));
#873 = CARTESIAN_POINT('',(-5.77046270613,-34.06735667095));
#874 = CARTESIAN_POINT('',(-5.766147062074,-33.86891766606));
#875 = CARTESIAN_POINT('',(-5.762875617526,-33.65917684174));
#876 = CARTESIAN_POINT('',(-5.760683058412,-33.4419561611));
#877 = CARTESIAN_POINT('',(-5.759586531581,-33.2209927365));
#878 = CARTESIAN_POINT('',(-5.759586531581,-33.));
#879 = ( GEOMETRIC_REPRESENTATION_CONTEXT(2) 
PARAMETRIC_REPRESENTATION_CONTEXT() REPRESENTATION_CONTEXT('2D SPACE',''
  ) );
#880 = ADVANCED_FACE('',(#881),#272,.F.);
#881 = FACE_BOUND('',#882,.F.);
#882 = EDGE_LOOP('',(#883,#884,#907,#935,#961,#962));
#883 = ORIENTED_EDGE('',*,*,#255,.F.);
#884 = ORIENTED_EDGE('',*,*,#885,.T.);
#885 = EDGE_CURVE('',#195,#886,#888,.T.);
#886 = VERTEX_POINT('',#887);
#887 = CARTESIAN_POINT('',(27.037011669192,13.,35.));
#888 = SURFACE_CURVE('',#889,(#893,#900),.PCURVE_S1.);
#889 = LINE('',#890,#891);
#890 = CARTESIAN_POINT('',(45.,13.,35.));
#891 = VECTOR('',#892,1.);
#892 = DIRECTION('',(-1.,-0.,-0.));
#893 = PCURVE('',#272,#894);
#894 = DEFINITIONAL_REPRESENTATION('',(#895),#899);
#895 = LINE('',#896,#897);
#896 = CARTESIAN_POINT('',(2.,0.));
#897 = VECTOR('',#898,1.);
#898 = DIRECTION('',(0.,-1.));
#899 = ( GEOMETRIC_REPRESENTATION_CONTEXT(2) 
PARAMETRIC_REPRESENTATION_CONTEXT() REPRESENTATION_CONTEXT('2D SPACE',''
  ) );
#900 = PCURVE('',#232,#901);
#901 = DEFINITIONAL_REPRESENTATION('',(#902),#906);
#902 = LINE('',#903,#904);
#903 = CARTESIAN_POINT('',(-1.570796326795,0.));
#904 = VECTOR('',#905,1.);
#905 = DIRECTION('',(-0.,1.));
#906 = ( GEOMETRIC_REPRESENTATION_CONTEXT(2) 
PARAMETRIC_REPRESENTATION_CONTEXT() REPRESENTATION_CONTEXT('2D SPACE',''
  ) );
#907 = ORIENTED_EDGE('',*,*,#908,.T.);
#908 = EDGE_CURVE('',#886,#909,#911,.T.);
#909 = VERTEX_POINT('',#910);
#910 = CARTESIAN_POINT('',(30.,1.06581410364E-15,35.));
#911 = SURFACE_CURVE('',#912,(#917,#928),.PCURVE_S1.);
#912 = CIRCLE('',#913,30.);
#913 = AXIS2_PLACEMENT_3D('',#914,#915,#916);
#914 = CARTESIAN_POINT('',(1.897149104479E-13,1.06581410364E-15,35.));
#915 = DIRECTION('',(0.,0.,-1.));
#916 = DIRECTION('',(1.,0.,0.));
#917 = PCURVE('',#272,#918);
#918 = DEFINITIONAL_REPRESENTATION('',(#919),#927);
#919 = ( BOUNDED_CURVE() B_SPLINE_CURVE(2,(#920,#921,#922,#923,#924,#925
,#926),.UNSPECIFIED.,.T.,.F.) B_SPLINE_CURVE_WITH_KNOTS((1,2,2,2,2,1),(
    -2.094395102393,0.,2.094395102393,4.188790204786,6.28318530718,
8.377580409573),.UNSPECIFIED.) CURVE() GEOMETRIC_REPRESENTATION_ITEM() 
RATIONAL_B_SPLINE_CURVE((1.,0.5,1.,0.5,1.,0.5,1.)) REPRESENTATION_ITEM(
  '') );
#920 = CARTESIAN_POINT('',(15.,-15.));
#921 = CARTESIAN_POINT('',(66.961524227066,-15.));
#922 = CARTESIAN_POINT('',(40.980762113533,-60.));
#923 = CARTESIAN_POINT('',(15.,-105.));
#924 = CARTESIAN_POINT('',(-10.98076211353,-60.));
#925 = CARTESIAN_POINT('',(-36.96152422706,-15.));
#926 = CARTESIAN_POINT('',(15.,-15.));
#927 = ( GEOMETRIC_REPRESENTATION_CONTEXT(2) 
PARAMETRIC_REPRESENTATION_CONTEXT() REPRESENTATION_CONTEXT('2D SPACE',''
  ) );
#928 = PCURVE('',#561,#929);
#929 = DEFINITIONAL_REPRESENTATION('',(#930),#934);
#930 = LINE('',#931,#932);
#931 = CARTESIAN_POINT('',(-6.28318530718,-35.));
#932 = VECTOR('',#933,1.);
#933 = DIRECTION('',(1.,-0.));
#934 = ( GEOMETRIC_REPRESENTATION_CONTEXT(2) 
PARAMETRIC_REPRESENTATION_CONTEXT() REPRESENTATION_CONTEXT('2D SPACE',''
  ) );
#935 = ORIENTED_EDGE('',*,*,#936,.T.);
#936 = EDGE_CURVE('',#909,#803,#937,.T.);
#937 = SURFACE_CURVE('',#938,(#943,#954),.PCURVE_S1.);
#938 = CIRCLE('',#939,30.);
#939 = AXIS2_PLACEMENT_3D('',#940,#941,#942);
#940 = CARTESIAN_POINT('',(1.897149104479E-13,1.06581410364E-15,35.));
#941 = DIRECTION('',(0.,0.,-1.));
#942 = DIRECTION('',(1.,0.,0.));
#943 = PCURVE('',#272,#944);
#944 = DEFINITIONAL_REPRESENTATION('',(#945),#953);
#945 = ( BOUNDED_CURVE() B_SPLINE_CURVE(2,(#946,#947,#948,#949,#950,#951
,#952),.UNSPECIFIED.,.T.,.F.) B_SPLINE_CURVE_WITH_KNOTS((1,2,2,2,2,1),(
    -2.094395102393,0.,2.094395102393,4.188790204786,6.28318530718,
8.377580409573),.UNSPECIFIED.) CURVE() GEOMETRIC_REPRESENTATION_ITEM() 
RATIONAL_B_SPLINE_CURVE((1.,0.5,1.,0.5,1.,0.5,1.)) REPRESENTATION_ITEM(
  '') );
#946 = CARTESIAN_POINT('',(15.,-15.));
#947 = CARTESIAN_POINT('',(66.961524227066,-15.));
#948 = CARTESIAN_POINT('',(40.980762113533,-60.));
#949 = CARTESIAN_POINT('',(15.,-105.));
#950 = CARTESIAN_POINT('',(-10.98076211353,-60.));
#951 = CARTESIAN_POINT('',(-36.96152422706,-15.));
#952 = CARTESIAN_POINT('',(15.,-15.));
#953 = ( GEOMETRIC_REPRESENTATION_CONTEXT(2) 
PARAMETRIC_REPRESENTATION_CONTEXT() REPRESENTATION_CONTEXT('2D SPACE',''
  ) );
#954 = PCURVE('',#561,#955);
#955 = DEFINITIONAL_REPRESENTATION('',(#956),#960);
#956 = LINE('',#957,#958);
#957 = CARTESIAN_POINT('',(-6.28318530718,-35.));
#958 = VECTOR('',#959,1.);
#959 = DIRECTION('',(1.,-0.));
#960 = ( GEOMETRIC_REPRESENTATION_CONTEXT(2) 
PARAMETRIC_REPRESENTATION_CONTEXT() REPRESENTATION_CONTEXT('2D SPACE',''
  ) );
#961 = ORIENTED_EDGE('',*,*,#802,.F.);
#962 = ORIENTED_EDGE('',*,*,#339,.F.);
#963 = ADVANCED_FACE('',(#964,#967),#326,.T.);
#964 = FACE_BOUND('',#965,.T.);
#965 = EDGE_LOOP('',(#966));
#966 = ORIENTED_EDGE('',*,*,#311,.T.);
#967 = FACE_BOUND('',#968,.T.);
#968 = EDGE_LOOP('',(#969));
#969 = ORIENTED_EDGE('',*,*,#970,.F.);
#970 = EDGE_CURVE('',#971,#971,#973,.T.);
#971 = VERTEX_POINT('',#972);
#972 = CARTESIAN_POINT('',(30.,1.06581410364E-15,50.));
#973 = SURFACE_CURVE('',#974,(#979,#986),.PCURVE_S1.);
#974 = CIRCLE('',#975,30.);
#975 = AXIS2_PLACEMENT_3D('',#976,#977,#978);
#976 = CARTESIAN_POINT('',(1.897149104479E-13,1.06581410364E-15,50.));
#977 = DIRECTION('',(0.,0.,1.));
#978 = DIRECTION('',(1.,0.,0.));
#979 = PCURVE('',#326,#980);
#980 = DEFINITIONAL_REPRESENTATION('',(#981),#985);
#981 = CIRCLE('',#982,30.);
#982 = AXIS2_PLACEMENT_2D('',#983,#984);
#983 = CARTESIAN_POINT('',(1.9190281466E-13,-1.677131921623E-15));
#984 = DIRECTION('',(1.,0.));
#985 = ( GEOMETRIC_REPRESENTATION_CONTEXT(2) 
PARAMETRIC_REPRESENTATION_CONTEXT() REPRESENTATION_CONTEXT('2D SPACE',''
  ) );
#986 = PCURVE('',#561,#987);
#987 = DEFINITIONAL_REPRESENTATION('',(#988),#992);
#988 = LINE('',#989,#990);
#989 = CARTESIAN_POINT('',(-0.,-50.));
#990 = VECTOR('',#991,1.);
#991 = DIRECTION('',(-1.,0.));
#992 = ( GEOMETRIC_REPRESENTATION_CONTEXT(2) 
PARAMETRIC_REPRESENTATION_CONTEXT() REPRESENTATION_CONTEXT('2D SPACE',''
  ) );
#993 = ADVANCED_FACE('',(#994),#232,.F.);
#994 = FACE_BOUND('',#995,.T.);
#995 = EDGE_LOOP('',(#996,#1019,#1020,#1021));
#996 = ORIENTED_EDGE('',*,*,#997,.F.);
#997 = EDGE_CURVE('',#169,#998,#1000,.T.);
#998 = VERTEX_POINT('',#999);
#999 = CARTESIAN_POINT('',(25.980762113533,15.,33.));
#1000 = SURFACE_CURVE('',#1001,(#1005,#1012),.PCURVE_S1.);
#1001 = LINE('',#1002,#1003);
#1002 = CARTESIAN_POINT('',(45.,15.,33.));
#1003 = VECTOR('',#1004,1.);
#1004 = DIRECTION('',(-1.,-0.,-0.));
#1005 = PCURVE('',#232,#1006);
#1006 = DEFINITIONAL_REPRESENTATION('',(#1007),#1011);
#1007 = LINE('',#1008,#1009);
#1008 = CARTESIAN_POINT('',(-0.,0.));
#1009 = VECTOR('',#1010,1.);
#1010 = DIRECTION('',(-0.,1.));
#1011 = ( GEOMETRIC_REPRESENTATION_CONTEXT(2) 
PARAMETRIC_REPRESENTATION_CONTEXT() REPRESENTATION_CONTEXT('2D SPACE',''
  ) );
#1012 = PCURVE('',#183,#1013);
#1013 = DEFINITIONAL_REPRESENTATION('',(#1014),#1018);
#1014 = LINE('',#1015,#1016);
#1015 = CARTESIAN_POINT('',(18.,0.));
#1016 = VECTOR('',#1017,1.);
#1017 = DIRECTION('',(0.,-1.));
#1018 = ( GEOMETRIC_REPRESENTATION_CONTEXT(2) 
PARAMETRIC_REPRESENTATION_CONTEXT() REPRESENTATION_CONTEXT('2D SPACE',''
  ) );
#1019 = ORIENTED_EDGE('',*,*,#194,.T.);
#1020 = ORIENTED_EDGE('',*,*,#885,.T.);
#1021 = ORIENTED_EDGE('',*,*,#1022,.F.);
#1022 = EDGE_CURVE('',#998,#886,#1023,.T.);
#1023 = SURFACE_CURVE('',#1024,(#1039,#1057),.PCURVE_S1.);
#1024 = B_SPLINE_CURVE_WITH_KNOTS('',7,(#1025,#1026,#1027,#1028,#1029,
    #1030,#1031,#1032,#1033,#1034,#1035,#1036,#1037,#1038),
  .UNSPECIFIED.,.F.,.F.,(8,6,8),(0.,0.520831426528,1.),.UNSPECIFIED.);
#1025 = CARTESIAN_POINT('',(25.980762113533,15.,33.));
#1026 = CARTESIAN_POINT('',(25.980762113533,15.,33.220992736508));
#1027 = CARTESIAN_POINT('',(25.997210062277,14.971511335743,
    33.441956161102));
#1028 = CARTESIAN_POINT('',(26.030098282091,14.914547174949,
    33.659176841748));
#1029 = CARTESIAN_POINT('',(26.078973400316,14.829438729705,
    33.868917666062));
#1030 = CARTESIAN_POINT('',(26.142921138298,14.716860676382,
    34.067356670956));
#1031 = CARTESIAN_POINT('',(26.220592685503,14.577906471335,
    34.250520653411));
#1032 = CARTESIAN_POINT('',(26.392778864542,14.263614935486,
    34.56481218926));
#1033 = CARTESIAN_POINT('',(26.485983827953,14.091101113979,
    34.699906114503));
#1034 = CARTESIAN_POINT('',(26.588196130718,13.898541238711,
    34.814758307782));
#1035 = CARTESIAN_POINT('',(26.697070282718,13.688939801884,
    34.90521376282));
#1036 = CARTESIAN_POINT('',(26.80993498646,13.466174347698,
    34.967833241094));
#1037 = CARTESIAN_POINT('',(26.924102135787,13.234825874786,35.));
#1038 = CARTESIAN_POINT('',(27.037011669192,13.,35.));
#1039 = PCURVE('',#232,#1040);
#1040 = DEFINITIONAL_REPRESENTATION('',(#1041),#1056);
#1041 = B_SPLINE_CURVE_WITH_KNOTS('',7,(#1042,#1043,#1044,#1045,#1046,
    #1047,#1048,#1049,#1050,#1051,#1052,#1053,#1054,#1055),
  .UNSPECIFIED.,.F.,.F.,(8,6,8),(0.,0.520831426528,1.),.UNSPECIFIED.);
#1042 = CARTESIAN_POINT('',(0.,19.019237886467));
#1043 = CARTESIAN_POINT('',(-0.110496368254,19.019237886467));
#1044 = CARTESIAN_POINT('',(-0.220978500614,19.002789937723));
#1045 = CARTESIAN_POINT('',(-0.331790967461,18.969901717909));
#1046 = CARTESIAN_POINT('',(-0.443271129241,18.921026599684));
#1047 = CARTESIAN_POINT('',(-0.5557633341,18.857078861702));
#1048 = CARTESIAN_POINT('',(-0.669649797439,18.779407314497));
#1049 = CARTESIAN_POINT('',(-0.891887473707,18.607221135458));
#1050 = CARTESIAN_POINT('',(-1.000643180641,18.514016172047));
#1051 = CARTESIAN_POINT('',(-1.111302428601,18.411803869282));
#1052 = CARTESIAN_POINT('',(-1.22368284783,18.302929717282));
#1053 = CARTESIAN_POINT('',(-1.337709115713,18.19006501354));
#1054 = CARTESIAN_POINT('',(-1.453383389402,18.075897864213));
#1055 = CARTESIAN_POINT('',(-1.570796326795,17.962988330808));
#1056 = ( GEOMETRIC_REPRESENTATION_CONTEXT(2) 
PARAMETRIC_REPRESENTATION_CONTEXT() REPRESENTATION_CONTEXT('2D SPACE',''
  ) );
#1057 = PCURVE('',#561,#1058);
#1058 = DEFINITIONAL_REPRESENTATION('',(#1059),#1074);
#1059 = B_SPLINE_CURVE_WITH_KNOTS('',7,(#1060,#1061,#1062,#1063,#1064,
    #1065,#1066,#1067,#1068,#1069,#1070,#1071,#1072,#1073),
  .UNSPECIFIED.,.F.,.F.,(8,6,8),(0.,0.520831426528,1.),.UNSPECIFIED.);
#1060 = CARTESIAN_POINT('',(-0.523598775598,-33.));
#1061 = CARTESIAN_POINT('',(-0.523598775598,-33.2209927365));
#1062 = CARTESIAN_POINT('',(-0.522502248768,-33.4419561611));
#1063 = CARTESIAN_POINT('',(-0.520309689653,-33.65917684174));
#1064 = CARTESIAN_POINT('',(-0.517038245106,-33.86891766606));
#1065 = CARTESIAN_POINT('',(-0.512722601049,-34.06735667095));
#1066 = CARTESIAN_POINT('',(-0.50741649597,-34.25052065341));
#1067 = CARTESIAN_POINT('',(-0.495470913349,-34.56481218926));
#1068 = CARTESIAN_POINT('',(-0.488934956407,-34.6999061145));
#1069 = CARTESIAN_POINT('',(-0.481668409587,-34.81475830778));
#1070 = CARTESIAN_POINT('',(-0.473795993069,-34.90521376282));
#1071 = CARTESIAN_POINT('',(-0.465472534739,-34.96783324109));
#1072 = CARTESIAN_POINT('',(-0.456873484703,-35.));
#1073 = CARTESIAN_POINT('',(-0.448188135979,-35.));
#1074 = ( GEOMETRIC_REPRESENTATION_CONTEXT(2) 
PARAMETRIC_REPRESENTATION_CONTEXT() REPRESENTATION_CONTEXT('2D SPACE',''
  ) );
#1075 = ADVANCED_FACE('',(#1076),#183,.F.);
#1076 = FACE_BOUND('',#1077,.F.);
#1077 = EDGE_LOOP('',(#1078,#1079,#1102,#1121));
#1078 = ORIENTED_EDGE('',*,*,#168,.T.);
#1079 = ORIENTED_EDGE('',*,*,#1080,.T.);
#1080 = EDGE_CURVE('',#108,#1081,#1083,.T.);
#1081 = VERTEX_POINT('',#1082);
#1082 = CARTESIAN_POINT('',(25.980762113533,15.,17.));
#1083 = SURFACE_CURVE('',#1084,(#1088,#1095),.PCURVE_S1.);
#1084 = LINE('',#1085,#1086);
#1085 = CARTESIAN_POINT('',(45.,15.,17.));
#1086 = VECTOR('',#1087,1.);
#1087 = DIRECTION('',(-1.,-0.,-0.));
#1088 = PCURVE('',#183,#1089);
#1089 = DEFINITIONAL_REPRESENTATION('',(#1090),#1094);
#1090 = LINE('',#1091,#1092);
#1091 = CARTESIAN_POINT('',(2.,0.));
#1092 = VECTOR('',#1093,1.);
#1093 = DIRECTION('',(0.,-1.));
#1094 = ( GEOMETRIC_REPRESENTATION_CONTEXT(2) 
PARAMETRIC_REPRESENTATION_CONTEXT() REPRESENTATION_CONTEXT('2D SPACE',''
  ) );
#1095 = PCURVE('',#145,#1096);
#1096 = DEFINITIONAL_REPRESENTATION('',(#1097),#1101);
#1097 = LINE('',#1098,#1099);
#1098 = CARTESIAN_POINT('',(-1.570796326795,0.));
#1099 = VECTOR('',#1100,1.);
#1100 = DIRECTION('',(-0.,1.));
#1101 = ( GEOMETRIC_REPRESENTATION_CONTEXT(2) 
PARAMETRIC_REPRESENTATION_CONTEXT() REPRESENTATION_CONTEXT('2D SPACE',''
  ) );
#1102 = ORIENTED_EDGE('',*,*,#1103,.F.);
#1103 = EDGE_CURVE('',#998,#1081,#1104,.T.);
#1104 = SURFACE_CURVE('',#1105,(#1109,#1115),.PCURVE_S1.);
#1105 = LINE('',#1106,#1107);
#1106 = CARTESIAN_POINT('',(25.980762113533,15.,0.));
#1107 = VECTOR('',#1108,1.);
#1108 = DIRECTION('',(-0.,-0.,-1.));
#1109 = PCURVE('',#183,#1110);
#1110 = DEFINITIONAL_REPRESENTATION('',(#1111),#1114);
#1111 = B_SPLINE_CURVE_WITH_KNOTS('',1,(#1112,#1113),.UNSPECIFIED.,.F.,
  .F.,(2,2),(-34.6,-15.4),.PIECEWISE_BEZIER_KNOTS.);
#1112 = CARTESIAN_POINT('',(19.6,-19.01923788646));
#1113 = CARTESIAN_POINT('',(0.4,-19.01923788646));
#1114 = ( GEOMETRIC_REPRESENTATION_CONTEXT(2) 
PARAMETRIC_REPRESENTATION_CONTEXT() REPRESENTATION_CONTEXT('2D SPACE',''
  ) );
#1115 = PCURVE('',#561,#1116);
#1116 = DEFINITIONAL_REPRESENTATION('',(#1117),#1120);
#1117 = B_SPLINE_CURVE_WITH_KNOTS('',1,(#1118,#1119),.UNSPECIFIED.,.F.,
  .F.,(2,2),(-34.6,-15.4),.PIECEWISE_BEZIER_KNOTS.);
#1118 = CARTESIAN_POINT('',(-0.523598775598,-34.6));
#1119 = CARTESIAN_POINT('',(-0.523598775598,-15.4));
#1120 = ( GEOMETRIC_REPRESENTATION_CONTEXT(2) 
PARAMETRIC_REPRESENTATION_CONTEXT() REPRESENTATION_CONTEXT('2D SPACE',''
  ) );
#1121 = ORIENTED_EDGE('',*,*,#997,.F.);
#1122 = ADVANCED_FACE('',(#1123),#145,.F.);
#1123 = FACE_BOUND('',#1124,.T.);
#1124 = EDGE_LOOP('',(#1125,#1126,#1127,#1128));
#1125 = ORIENTED_EDGE('',*,*,#648,.F.);
#1126 = ORIENTED_EDGE('',*,*,#107,.T.);
#1127 = ORIENTED_EDGE('',*,*,#1080,.T.);
#1128 = ORIENTED_EDGE('',*,*,#1129,.F.);
#1129 = EDGE_CURVE('',#625,#1081,#1130,.T.);
#1130 = SURFACE_CURVE('',#1131,(#1146,#1164),.PCURVE_S1.);
#1131 = B_SPLINE_CURVE_WITH_KNOTS('',7,(#1132,#1133,#1134,#1135,#1136,
    #1137,#1138,#1139,#1140,#1141,#1142,#1143,#1144,#1145),
  .UNSPECIFIED.,.F.,.F.,(8,6,8),(0.,0.479168573472,1.),.UNSPECIFIED.);
#1132 = CARTESIAN_POINT('',(27.037011669192,13.,15.));
#1133 = CARTESIAN_POINT('',(26.924102135787,13.234825874786,15.));
#1134 = CARTESIAN_POINT('',(26.80993498646,13.466174347698,
    15.032166758906));
#1135 = CARTESIAN_POINT('',(26.697070282718,13.688939801883,
    15.09478623718));
#1136 = CARTESIAN_POINT('',(26.588196130718,13.898541238711,
    15.185241692218));
#1137 = CARTESIAN_POINT('',(26.485983827953,14.091101113979,
    15.300093885497));
#1138 = CARTESIAN_POINT('',(26.392778864542,14.263614935486,
    15.43518781074));
#1139 = CARTESIAN_POINT('',(26.220592685503,14.577906471335,
    15.749479346589));
#1140 = CARTESIAN_POINT('',(26.142921138298,14.716860676382,
    15.932643329044));
#1141 = CARTESIAN_POINT('',(26.078973400316,14.829438729705,
    16.131082333938));
#1142 = CARTESIAN_POINT('',(26.030098282091,14.914547174949,
    16.340823158252));
#1143 = CARTESIAN_POINT('',(25.997210062277,14.971511335743,
    16.558043838898));
#1144 = CARTESIAN_POINT('',(25.980762113533,15.,16.779007263492));
#1145 = CARTESIAN_POINT('',(25.980762113533,15.,17.));
#1146 = PCURVE('',#145,#1147);
#1147 = DEFINITIONAL_REPRESENTATION('',(#1148),#1163);
#1148 = B_SPLINE_CURVE_WITH_KNOTS('',7,(#1149,#1150,#1151,#1152,#1153,
    #1154,#1155,#1156,#1157,#1158,#1159,#1160,#1161,#1162),
  .UNSPECIFIED.,.F.,.F.,(8,6,8),(0.,0.479168573472,1.),.UNSPECIFIED.);
#1149 = CARTESIAN_POINT('',(0.,17.962988330808));
#1150 = CARTESIAN_POINT('',(-0.117412937393,18.075897864213));
#1151 = CARTESIAN_POINT('',(-0.233087211082,18.19006501354));
#1152 = CARTESIAN_POINT('',(-0.347113478965,18.302929717282));
#1153 = CARTESIAN_POINT('',(-0.459493898194,18.411803869282));
#1154 = CARTESIAN_POINT('',(-0.570153146154,18.514016172047));
#1155 = CARTESIAN_POINT('',(-0.678908853088,18.607221135458));
#1156 = CARTESIAN_POINT('',(-0.901146529356,18.779407314497));
#1157 = CARTESIAN_POINT('',(-1.015032992695,18.857078861702));
#1158 = CARTESIAN_POINT('',(-1.127525197554,18.921026599684));
#1159 = CARTESIAN_POINT('',(-1.239005359333,18.969901717909));
#1160 = CARTESIAN_POINT('',(-1.34981782618,19.002789937723));
#1161 = CARTESIAN_POINT('',(-1.460299958541,19.019237886467));
#1162 = CARTESIAN_POINT('',(-1.570796326795,19.019237886467));
#1163 = ( GEOMETRIC_REPRESENTATION_CONTEXT(2) 
PARAMETRIC_REPRESENTATION_CONTEXT() REPRESENTATION_CONTEXT('2D SPACE',''
  ) );
#1164 = PCURVE('',#561,#1165);
#1165 = DEFINITIONAL_REPRESENTATION('',(#1166),#1181);
#1166 = B_SPLINE_CURVE_WITH_KNOTS('',7,(#1167,#1168,#1169,#1170,#1171,
    #1172,#1173,#1174,#1175,#1176,#1177,#1178,#1179,#1180),
  .UNSPECIFIED.,.F.,.F.,(8,6,8),(0.,0.479168573472,1.),.UNSPECIFIED.);
#1167 = CARTESIAN_POINT('',(-0.448188135979,-15.));
#1168 = CARTESIAN_POINT('',(-0.456873484703,-15.));
#1169 = CARTESIAN_POINT('',(-0.465472534739,-15.0321667589));
#1170 = CARTESIAN_POINT('',(-0.473795993069,-15.09478623718));
#1171 = CARTESIAN_POINT('',(-0.481668409587,-15.18524169221));
#1172 = CARTESIAN_POINT('',(-0.488934956407,-15.30009388549));
#1173 = CARTESIAN_POINT('',(-0.495470913349,-15.43518781074));
#1174 = CARTESIAN_POINT('',(-0.50741649597,-15.74947934658));
#1175 = CARTESIAN_POINT('',(-0.512722601049,-15.93264332904));
#1176 = CARTESIAN_POINT('',(-0.517038245106,-16.13108233393));
#1177 = CARTESIAN_POINT('',(-0.520309689653,-16.34082315825));
#1178 = CARTESIAN_POINT('',(-0.522502248768,-16.55804383889));
#1179 = CARTESIAN_POINT('',(-0.523598775598,-16.77900726349));
#1180 = CARTESIAN_POINT('',(-0.523598775598,-17.));
#1181 = ( GEOMETRIC_REPRESENTATION_CONTEXT(2) 
PARAMETRIC_REPRESENTATION_CONTEXT() REPRESENTATION_CONTEXT('2D SPACE',''
  ) );
#1182 = ADVANCED_FACE('',(#1183),#561,.F.);
#1183 = FACE_BOUND('',#1184,.T.);
#1184 = EDGE_LOOP('',(#1185,#1186,#1207,#1208,#1209,#1210,#1211,#1212,
    #1233,#1234,#1235,#1236,#1237,#1238,#1239,#1240));
#1185 = ORIENTED_EDGE('',*,*,#544,.F.);
#1186 = ORIENTED_EDGE('',*,*,#1187,.T.);
#1187 = EDGE_CURVE('',#545,#601,#1188,.T.);
#1188 = SEAM_CURVE('',#1189,(#1193,#1200),.PCURVE_S1.);
#1189 = LINE('',#1190,#1191);
#1190 = CARTESIAN_POINT('',(30.,1.06581410364E-15,0.));
#1191 = VECTOR('',#1192,1.);
#1192 = DIRECTION('',(0.,0.,1.));
#1193 = PCURVE('',#561,#1194);
#1194 = DEFINITIONAL_REPRESENTATION('',(#1195),#1199);
#1195 = LINE('',#1196,#1197);
#1196 = CARTESIAN_POINT('',(-6.28318530718,0.));
#1197 = VECTOR('',#1198,1.);
#1198 = DIRECTION('',(-0.,-1.));
#1199 = ( GEOMETRIC_REPRESENTATION_CONTEXT(2) 
PARAMETRIC_REPRESENTATION_CONTEXT() REPRESENTATION_CONTEXT('2D SPACE',''
  ) );
#1200 = PCURVE('',#561,#1201);
#1201 = DEFINITIONAL_REPRESENTATION('',(#1202),#1206);
#1202 = LINE('',#1203,#1204);
#1203 = CARTESIAN_POINT('',(-0.,0.));
#1204 = VECTOR('',#1205,1.);
#1205 = DIRECTION('',(-0.,-1.));
#1206 = ( GEOMETRIC_REPRESENTATION_CONTEXT(2) 
PARAMETRIC_REPRESENTATION_CONTEXT() REPRESENTATION_CONTEXT('2D SPACE',''
  ) );
#1207 = ORIENTED_EDGE('',*,*,#624,.F.);
#1208 = ORIENTED_EDGE('',*,*,#1129,.T.);
#1209 = ORIENTED_EDGE('',*,*,#1103,.F.);
#1210 = ORIENTED_EDGE('',*,*,#1022,.T.);
#1211 = ORIENTED_EDGE('',*,*,#908,.T.);
#1212 = ORIENTED_EDGE('',*,*,#1213,.T.);
#1213 = EDGE_CURVE('',#909,#971,#1214,.T.);
#1214 = SEAM_CURVE('',#1215,(#1219,#1226),.PCURVE_S1.);
#1215 = LINE('',#1216,#1217);
#1216 = CARTESIAN_POINT('',(30.,1.06581410364E-15,0.));
#1217 = VECTOR('',#1218,1.);
#1218 = DIRECTION('',(0.,0.,1.));
#1219 = PCURVE('',#561,#1220);
#1220 = DEFINITIONAL_REPRESENTATION('',(#1221),#1225);
#1221 = LINE('',#1222,#1223);
#1222 = CARTESIAN_POINT('',(-6.28318530718,0.));
#1223 = VECTOR('',#1224,1.);
#1224 = DIRECTION('',(-0.,-1.));
#1225 = ( GEOMETRIC_REPRESENTATION_CONTEXT(2) 
PARAMETRIC_REPRESENTATION_CONTEXT() REPRESENTATION_CONTEXT('2D SPACE',''
  ) );
#1226 = PCURVE('',#561,#1227);
#1227 = DEFINITIONAL_REPRESENTATION('',(#1228),#1232);
#1228 = LINE('',#1229,#1230);
#1229 = CARTESIAN_POINT('',(-0.,0.));
#1230 = VECTOR('',#1231,1.);
#1231 = DIRECTION('',(-0.,-1.));
#1232 = ( GEOMETRIC_REPRESENTATION_CONTEXT(2) 
PARAMETRIC_REPRESENTATION_CONTEXT() REPRESENTATION_CONTEXT('2D SPACE',''
  ) );
#1233 = ORIENTED_EDGE('',*,*,#970,.T.);
#1234 = ORIENTED_EDGE('',*,*,#1213,.F.);
#1235 = ORIENTED_EDGE('',*,*,#936,.T.);
#1236 = ORIENTED_EDGE('',*,*,#827,.T.);
#1237 = ORIENTED_EDGE('',*,*,#779,.T.);
#1238 = ORIENTED_EDGE('',*,*,#698,.F.);
#1239 = ORIENTED_EDGE('',*,*,#600,.F.);
#1240 = ORIENTED_EDGE('',*,*,#1187,.F.);
#1241 = ( GEOMETRIC_REPRESENTATION_CONTEXT(3) 
GLOBAL_UNCERTAINTY_ASSIGNED_CONTEXT((#1245)) 
GLOBAL_UNIT_ASSIGNED_CONTEXT((#1242,#1243,#1244)) REPRESENTATION_CONTEXT
('Context #1','3D Context with UNIT and UNCERTAINTY') );
#1242 = ( LENGTH_UNIT() NAMED_UNIT(*) SI_UNIT(.MILLI.,.METRE.) );
#1243 = ( NAMED_UNIT(*) PLANE_ANGLE_UNIT() SI_UNIT($,.RADIAN.) );
#1244 = ( NAMED_UNIT(*) SI_UNIT($,.STERADIAN.) SOLID_ANGLE_UNIT() );
#1245 = UNCERTAINTY_MEASURE_WITH_UNIT(LENGTH_MEASURE(1.E-07),#1242,
  'distance_accuracy_value','confusion accuracy');
#1246 = PRODUCT_RELATED_PRODUCT_CATEGORY('part',$,(#7));
ENDSEC;
END-ISO-10303-21;
