ISO-10303-21;
HEADER;
FILE_DESCRIPTION(('Open CASCADE Model'),'2;1');
FILE_NAME('Open CASCADE Shape Model','2026-08-07T04:35:41',('Author'),(
    'Open CASCADE'),'Open CASCADE STEP processor 7.7','Open CASCADE 7.7'
  ,'Unknown');
FILE_SCHEMA(('AUTOMOTIVE_DESIGN { 1 0 10303 214 1 1 1 1 }'));
ENDSEC;
DATA;
#1 = APPLICATION_PROTOCOL_DEFINITION('international standard',
  'automotive_design',2000,#2);
#2 = APPLICATION_CONTEXT(
  'core data for automotive mechanical design processes');
#3 = SHAPE_DEFINITION_REPRESENTATION(#4,#10);
#4 = PRODUCT_DEFINITION_SHAPE('','',#5);
#5 = PRODUCT_DEFINITION('design','',#6,#9);
#6 = PRODUCT_DEFINITION_FORMATION('','',#7);
#7 = PRODUCT('Open CASCADE STEP translator 7.7 3',
  'Open CASCADE STEP translator 7.7 3','',(#8));
#8 = PRODUCT_CONTEXT('',#2,'mechanical');
#9 = PRODUCT_DEFINITION_CONTEXT('part definition',#2,'design');
#10 = ADVANCED_BREP_SHAPE_REPRESENTATION('',(#11,#15),#905);
#11 = AXIS2_PLACEMENT_3D('',#12,#13,#14);
#12 = CARTESIAN_POINT('',(0.,0.,0.));
#13 = DIRECTION('',(0.,0.,1.));
#14 = DIRECTION('',(1.,0.,-0.));
#15 = MANIFOLD_SOLID_BREP('',#16);
#16 = CLOSED_SHELL('',(#17,#819,#823,#874,#878));
#17 = ADVANCED_FACE('',(#18,#507),#31,.T.);
#18 = FACE_BOUND('',#19,.F.);
#19 = EDGE_LOOP('',(#20,#54,#77,#177,#272,#295,#322,#323,#506));
#20 = ORIENTED_EDGE('',*,*,#21,.F.);
#21 = EDGE_CURVE('',#22,#22,#24,.T.);
#22 = VERTEX_POINT('',#23);
#23 = CARTESIAN_POINT('',(25.,0.,0.));
#24 = SURFACE_CURVE('',#25,(#30,#42),.PCURVE_S1.);
#25 = CIRCLE('',#26,25.);
#26 = AXIS2_PLACEMENT_3D('',#27,#28,#29);
#27 = CARTESIAN_POINT('',(0.,0.,0.));
#28 = DIRECTION('',(0.,0.,1.));
#29 = DIRECTION('',(1.,0.,0.));
#30 = PCURVE('',#31,#36);
#31 = CYLINDRICAL_SURFACE('',#32,25.);
#32 = AXIS2_PLACEMENT_3D('',#33,#34,#35);
#33 = CARTESIAN_POINT('',(0.,0.,0.));
#34 = DIRECTION('',(-0.,-0.,-1.));
#35 = DIRECTION('',(1.,0.,0.));
#36 = DEFINITIONAL_REPRESENTATION('',(#37),#41);
#37 = LINE('',#38,#39);
#38 = CARTESIAN_POINT('',(-0.,0.));
#39 = VECTOR('',#40,1.);
#40 = DIRECTION('',(-1.,0.));
#41 = ( GEOMETRIC_REPRESENTATION_CONTEXT(2) 
PARAMETRIC_REPRESENTATION_CONTEXT() REPRESENTATION_CONTEXT('2D SPACE',''
  ) );
#42 = PCURVE('',#43,#48);
#43 = PLANE('',#44);
#44 = AXIS2_PLACEMENT_3D('',#45,#46,#47);
#45 = CARTESIAN_POINT('',(-8.751616848252E-16,1.604946055186E-15,0.));
#46 = DIRECTION('',(0.,0.,1.));
#47 = DIRECTION('',(1.,0.,-0.));
#48 = DEFINITIONAL_REPRESENTATION('',(#49),#53);
#49 = CIRCLE('',#50,25.);
#50 = AXIS2_PLACEMENT_2D('',#51,#52);
#51 = CARTESIAN_POINT('',(8.751616848252E-16,-1.604946055186E-15));
#52 = DIRECTION('',(1.,0.));
#53 = ( GEOMETRIC_REPRESENTATION_CONTEXT(2) 
PARAMETRIC_REPRESENTATION_CONTEXT() REPRESENTATION_CONTEXT('2D SPACE',''
  ) );
#54 = ORIENTED_EDGE('',*,*,#55,.T.);
#55 = EDGE_CURVE('',#22,#56,#58,.T.);
#56 = VERTEX_POINT('',#57);
#57 = CARTESIAN_POINT('',(25.,0.,19.));
#58 = SEAM_CURVE('',#59,(#63,#70),.PCURVE_S1.);
#59 = LINE('',#60,#61);
#60 = CARTESIAN_POINT('',(25.,0.,0.));
#61 = VECTOR('',#62,1.);
#62 = DIRECTION('',(0.,0.,1.));
#63 = PCURVE('',#31,#64);
#64 = DEFINITIONAL_REPRESENTATION('',(#65),#69);
#65 = LINE('',#66,#67);
#66 = CARTESIAN_POINT('',(-6.28318530718,0.));
#67 = VECTOR('',#68,1.);
#68 = DIRECTION('',(-0.,-1.));
#69 = ( GEOMETRIC_REPRESENTATION_CONTEXT(2) 
PARAMETRIC_REPRESENTATION_CONTEXT() REPRESENTATION_CONTEXT('2D SPACE',''
  ) );
#70 = PCURVE('',#31,#71);
#71 = DEFINITIONAL_REPRESENTATION('',(#72),#76);
#72 = LINE('',#73,#74);
#73 = CARTESIAN_POINT('',(-0.,0.));
#74 = VECTOR('',#75,1.);
#75 = DIRECTION('',(-0.,-1.));
#76 = ( GEOMETRIC_REPRESENTATION_CONTEXT(2) 
PARAMETRIC_REPRESENTATION_CONTEXT() REPRESENTATION_CONTEXT('2D SPACE',''
  ) );
#77 = ORIENTED_EDGE('',*,*,#78,.T.);
#78 = EDGE_CURVE('',#56,#79,#81,.T.);
#79 = VERTEX_POINT('',#80);
#80 = CARTESIAN_POINT('',(24.269322199023,6.,25.));
#81 = SURFACE_CURVE('',#82,(#110,#141),.PCURVE_S1.);
#82 = B_SPLINE_CURVE_WITH_KNOTS('',6,(#83,#84,#85,#86,#87,#88,#89,#90,
    #91,#92,#93,#94,#95,#96,#97,#98,#99,#100,#101,#102,#103,#104,#105,
    #106,#107,#108,#109),.UNSPECIFIED.,.F.,.F.,(7,5,5,5,5,7),(0.,
    0.181412118805,0.293683617259,0.447377496387,0.577715415824,1.),
  .UNSPECIFIED.);
#83 = CARTESIAN_POINT('',(25.,-5.510910596163E-16,19.));
#84 = CARTESIAN_POINT('',(25.,0.347503152334,19.));
#85 = CARTESIAN_POINT('',(24.994203652294,0.69422052768,19.024151775201)
  );
#86 = CARTESIAN_POINT('',(24.982659721808,1.036539386589,19.072249949381
    ));
#87 = CARTESIAN_POINT('',(24.965810110161,1.370904230916,19.143147614528
    ));
#88 = CARTESIAN_POINT('',(24.944466754624,1.693985367171,19.2347794826)
  );
#89 = CARTESIAN_POINT('',(24.904280840357,2.193984406358,19.411838428624
    ));
#90 = CARTESIAN_POINT('',(24.887562188847,2.379968364473,19.486422649562
    ));
#91 = CARTESIAN_POINT('',(24.869682372069,2.560537635546,19.567400101086
    ));
#92 = CARTESIAN_POINT('',(24.850841177671,2.73547389498,19.654261301905)
  );
#93 = CARTESIAN_POINT('',(24.831237438037,2.904595735767,19.746489877164
    ));
#94 = CARTESIAN_POINT('',(24.783445737968,3.291119930887,19.976447608362
    ));
#95 = CARTESIAN_POINT('',(24.75475312074,3.503362579899,20.118438011036)
  );
#96 = CARTESIAN_POINT('',(24.725426079337,3.704523786499,20.268446542317
    ));
#97 = CARTESIAN_POINT('',(24.695861748412,3.894691572693,20.425496894588
    ));
#98 = CARTESIAN_POINT('',(24.666410037291,4.074002696193,20.588721321954
    ));
#99 = CARTESIAN_POINT('',(24.612742987904,4.385651749109,20.90037037487)
  );
#100 = CARTESIAN_POINT('',(24.588406873922,4.521017344698,21.04730521785
    ));
#101 = CARTESIAN_POINT('',(24.564538236434,4.648879170587,
    21.197742200864));
#102 = CARTESIAN_POINT('',(24.54129123292,4.769376151873,21.351308349843
    ));
#103 = CARTESIAN_POINT('',(24.518799381347,4.882644483852,
    21.507679193943));
#104 = CARTESIAN_POINT('',(24.427123681605,5.33281043945,22.181400157247
    ));
#105 = CARTESIAN_POINT('',(24.366153920408,5.602551846238,
    22.723105994984));
#106 = CARTESIAN_POINT('',(24.318285573129,5.801941330887,
    23.281746690523));
#107 = CARTESIAN_POINT('',(24.285661264738,5.933912176916,
    23.850808237097));
#108 = CARTESIAN_POINT('',(24.269322199023,6.,24.425157844391));
#109 = CARTESIAN_POINT('',(24.269322199023,6.,25.));
#110 = PCURVE('',#31,#111);
#111 = DEFINITIONAL_REPRESENTATION('',(#112),#140);
#112 = B_SPLINE_CURVE_WITH_KNOTS('',6,(#113,#114,#115,#116,#117,#118,
    #119,#120,#121,#122,#123,#124,#125,#126,#127,#128,#129,#130,#131,
    #132,#133,#134,#135,#136,#137,#138,#139),.UNSPECIFIED.,.F.,.F.,(7,5,
    5,5,5,7),(0.,0.181412118805,0.293683617259,0.447377496387,
    0.577715415824,1.),.UNSPECIFIED.);
#113 = CARTESIAN_POINT('',(0.,-19.));
#114 = CARTESIAN_POINT('',(-1.390012609335E-02,-19.));
#115 = CARTESIAN_POINT('',(-2.776882317389E-02,-19.0241517752));
#116 = CARTESIAN_POINT('',(-4.146640135813E-02,-19.07224994938));
#117 = CARTESIAN_POINT('',(-5.485541831794E-02,-19.14314761452));
#118 = CARTESIAN_POINT('',(-6.780552285556E-02,-19.2347794826));
#119 = CARTESIAN_POINT('',(-8.786997687327E-02,-19.41183842862));
#120 = CARTESIAN_POINT('',(-9.533899829288E-02,-19.48642264956));
#121 = CARTESIAN_POINT('',(-0.102596663776,-19.56740010108));
#122 = CARTESIAN_POINT('',(-0.109634221983,-19.6542613019));
#123 = CARTESIAN_POINT('',(-0.116444194064,-19.74648987716));
#124 = CARTESIAN_POINT('',(-0.132022897477,-19.97644760836));
#125 = CARTESIAN_POINT('',(-0.140589278491,-20.11843801103));
#126 = CARTESIAN_POINT('',(-0.148720177086,-20.26844654231));
#127 = CARTESIAN_POINT('',(-0.156417819714,-20.42549689458));
#128 = CARTESIAN_POINT('',(-0.163686151242,-20.58872132195));
#129 = CARTESIAN_POINT('',(-0.176335596092,-20.90037037487));
#130 = CARTESIAN_POINT('',(-0.181836879144,-21.04730521785));
#131 = CARTESIAN_POINT('',(-0.187039542276,-21.19774220086));
#132 = CARTESIAN_POINT('',(-0.191948187511,-21.35130834984));
#133 = CARTESIAN_POINT('',(-0.196567326566,-21.50767919394));
#134 = CARTESIAN_POINT('',(-0.214943564331,-22.18140015724));
#135 = CARTESIAN_POINT('',(-0.226002892826,-22.72310599498));
#136 = CARTESIAN_POINT('',(-0.234205051011,-23.28174669052));
#137 = CARTESIAN_POINT('',(-0.239642732161,-23.85080823709));
#138 = CARTESIAN_POINT('',(-0.242365851039,-24.42515784439));
#139 = CARTESIAN_POINT('',(-0.242365851039,-25.));
#140 = ( GEOMETRIC_REPRESENTATION_CONTEXT(2) 
PARAMETRIC_REPRESENTATION_CONTEXT() REPRESENTATION_CONTEXT('2D SPACE',''
  ) );
#141 = PCURVE('',#142,#147);
#142 = CYLINDRICAL_SURFACE('',#143,6.);
#143 = AXIS2_PLACEMENT_3D('',#144,#145,#146);
#144 = CARTESIAN_POINT('',(0.,0.,25.));
#145 = DIRECTION('',(-1.,-0.,-0.));
#146 = DIRECTION('',(0.,1.,0.));
#147 = DEFINITIONAL_REPRESENTATION('',(#148),#176);
#148 = B_SPLINE_CURVE_WITH_KNOTS('',6,(#149,#150,#151,#152,#153,#154,
    #155,#156,#157,#158,#159,#160,#161,#162,#163,#164,#165,#166,#167,
    #168,#169,#170,#171,#172,#173,#174,#175),.UNSPECIFIED.,.F.,.F.,(7,5,
    5,5,5,7),(0.,0.181412118805,0.293683617259,0.447377496387,
    0.577715415824,1.),.UNSPECIFIED.);
#149 = CARTESIAN_POINT('',(-4.712388980385,-25.));
#150 = CARTESIAN_POINT('',(-4.77030617244,-25.));
#151 = CARTESIAN_POINT('',(-4.82809239502,-24.99420365229));
#152 = CARTESIAN_POINT('',(-4.885495275548,-24.9826597218));
#153 = CARTESIAN_POINT('',(-4.942263810068,-24.96581011016));
#154 = CARTESIAN_POINT('',(-4.998119974306,-24.94446675462));
#155 = CARTESIAN_POINT('',(-5.086523862725,-24.90428084035));
#156 = CARTESIAN_POINT('',(-5.11989269024,-24.88756218884));
#157 = CARTESIAN_POINT('',(-5.152835967378,-24.86968237206));
#158 = CARTESIAN_POINT('',(-5.185351827157,-24.85084117767));
#159 = CARTESIAN_POINT('',(-5.217435191156,-24.83123743803));
#160 = CARTESIAN_POINT('',(-5.292394719412,-24.78344573796));
#161 = CARTESIAN_POINT('',(-5.334894997665,-24.75475312074));
#162 = CARTESIAN_POINT('',(-5.376637418226,-24.72542607933));
#163 = CARTESIAN_POINT('',(-5.417670638376,-24.69586174841));
#164 = CARTESIAN_POINT('',(-5.458038788132,-24.66641003729));
#165 = CARTESIAN_POINT('',(-5.531495174355,-24.6127429879));
#166 = CARTESIAN_POINT('',(-5.564764610285,-24.58840687392));
#167 = CARTESIAN_POINT('',(-5.597631347369,-24.56453823643));
#168 = CARTESIAN_POINT('',(-5.630127895039,-24.54129123292));
#169 = CARTESIAN_POINT('',(-5.662285569131,-24.51879938134));
#170 = CARTESIAN_POINT('',(-5.797331787966,-24.4271236816));
#171 = CARTESIAN_POINT('',(-5.897378019484,-24.3661539204));
#172 = CARTESIAN_POINT('',(-5.995229704927,-24.31828557312));
#173 = CARTESIAN_POINT('',(-6.091652582644,-24.28566126473));
#174 = CARTESIAN_POINT('',(-6.187378281245,-24.26932219902));
#175 = CARTESIAN_POINT('',(-6.28318530718,-24.26932219902));
#176 = ( GEOMETRIC_REPRESENTATION_CONTEXT(2) 
PARAMETRIC_REPRESENTATION_CONTEXT() REPRESENTATION_CONTEXT('2D SPACE',''
  ) );
#177 = ORIENTED_EDGE('',*,*,#178,.T.);
#178 = EDGE_CURVE('',#79,#179,#181,.T.);
#179 = VERTEX_POINT('',#180);
#180 = CARTESIAN_POINT('',(25.,0.,31.));
#181 = SURFACE_CURVE('',#182,(#210,#241),.PCURVE_S1.);
#182 = B_SPLINE_CURVE_WITH_KNOTS('',6,(#183,#184,#185,#186,#187,#188,
    #189,#190,#191,#192,#193,#194,#195,#196,#197,#198,#199,#200,#201,
    #202,#203,#204,#205,#206,#207,#208,#209),.UNSPECIFIED.,.F.,.F.,(7,5,
    5,5,5,7),(0.,0.422284583698,0.552622503153,0.706316382438,
    0.818587881008,1.),.UNSPECIFIED.);
#183 = CARTESIAN_POINT('',(24.269322199023,6.,25.));
#184 = CARTESIAN_POINT('',(24.269322199023,6.,25.57484215561));
#185 = CARTESIAN_POINT('',(24.285661264738,5.933912176916,
    26.149191762901));
#186 = CARTESIAN_POINT('',(24.318285573128,5.801941330887,
    26.718253309478));
#187 = CARTESIAN_POINT('',(24.366153920408,5.602551846237,
    27.276894005016));
#188 = CARTESIAN_POINT('',(24.427123681605,5.33281043945,27.818599842753
    ));
#189 = CARTESIAN_POINT('',(24.518799381374,4.882644483717,28.49232080626
    ));
#190 = CARTESIAN_POINT('',(24.541291232924,4.769376151843,28.64869165016
    ));
#191 = CARTESIAN_POINT('',(24.56453823641,4.648879170719,28.802257798973
    ));
#192 = CARTESIAN_POINT('',(24.588406873905,4.521017344801,28.95269478206
    ));
#193 = CARTESIAN_POINT('',(24.612742987925,4.385651748985,
    29.099629625253));
#194 = CARTESIAN_POINT('',(24.666410037291,4.074002696191,
    29.411278678048));
#195 = CARTESIAN_POINT('',(24.695861748412,3.894691572693,
    29.574503105411));
#196 = CARTESIAN_POINT('',(24.725426079336,3.704523786502,
    29.731553457681));
#197 = CARTESIAN_POINT('',(24.75475312074,3.5033625799,29.881561988963)
  );
#198 = CARTESIAN_POINT('',(24.783445737969,3.291119930884,
    30.023552391639));
#199 = CARTESIAN_POINT('',(24.831237438037,2.904595735767,
    30.253510122836));
#200 = CARTESIAN_POINT('',(24.850841177671,2.73547389498,30.345738698095
    ));
#201 = CARTESIAN_POINT('',(24.869682372069,2.560537635546,
    30.432599898914));
#202 = CARTESIAN_POINT('',(24.887562188847,2.379968364473,
    30.513577350438));
#203 = CARTESIAN_POINT('',(24.904280840357,2.193984406358,
    30.588161571376));
#204 = CARTESIAN_POINT('',(24.944466754624,1.693985367171,30.7652205174)
  );
#205 = CARTESIAN_POINT('',(24.965810110161,1.370904230916,
    30.856852385472));
#206 = CARTESIAN_POINT('',(24.982659721808,1.036539386589,
    30.927750050619));
#207 = CARTESIAN_POINT('',(24.994203652294,0.69422052768,30.975848224799
    ));
#208 = CARTESIAN_POINT('',(25.,0.347503152334,31.));
#209 = CARTESIAN_POINT('',(25.,9.184850993605E-16,31.));
#210 = PCURVE('',#31,#211);
#211 = DEFINITIONAL_REPRESENTATION('',(#212),#240);
#212 = B_SPLINE_CURVE_WITH_KNOTS('',6,(#213,#214,#215,#216,#217,#218,
    #219,#220,#221,#222,#223,#224,#225,#226,#227,#228,#229,#230,#231,
    #232,#233,#234,#235,#236,#237,#238,#239),.UNSPECIFIED.,.F.,.F.,(7,5,
    5,5,5,7),(0.,0.422284583698,0.552622503153,0.706316382438,
    0.818587881008,1.),.UNSPECIFIED.);
#213 = CARTESIAN_POINT('',(-0.242365851039,-25.));
#214 = CARTESIAN_POINT('',(-0.242365851039,-25.57484215561));
#215 = CARTESIAN_POINT('',(-0.239642732161,-26.1491917629));
#216 = CARTESIAN_POINT('',(-0.234205051011,-26.71825330947));
#217 = CARTESIAN_POINT('',(-0.226002892826,-27.27689400501));
#218 = CARTESIAN_POINT('',(-0.214943564331,-27.81859984275));
#219 = CARTESIAN_POINT('',(-0.19656732656,-28.49232080626));
#220 = CARTESIAN_POINT('',(-0.191948187509,-28.64869165016));
#221 = CARTESIAN_POINT('',(-0.187039542281,-28.80225779897));
#222 = CARTESIAN_POINT('',(-0.181836879149,-28.95269478206));
#223 = CARTESIAN_POINT('',(-0.176335596087,-29.09962962525));
#224 = CARTESIAN_POINT('',(-0.163686151242,-29.41127867804));
#225 = CARTESIAN_POINT('',(-0.156417819714,-29.57450310541));
#226 = CARTESIAN_POINT('',(-0.148720177086,-29.73155345768));
#227 = CARTESIAN_POINT('',(-0.140589278491,-29.88156198896));
#228 = CARTESIAN_POINT('',(-0.132022897476,-30.02355239163));
#229 = CARTESIAN_POINT('',(-0.116444194064,-30.25351012283));
#230 = CARTESIAN_POINT('',(-0.109634221983,-30.34573869809));
#231 = CARTESIAN_POINT('',(-0.102596663776,-30.43259989891));
#232 = CARTESIAN_POINT('',(-9.533899829288E-02,-30.51357735043));
#233 = CARTESIAN_POINT('',(-8.786997687327E-02,-30.58816157137));
#234 = CARTESIAN_POINT('',(-6.780552285556E-02,-30.7652205174));
#235 = CARTESIAN_POINT('',(-5.485541831794E-02,-30.85685238547));
#236 = CARTESIAN_POINT('',(-4.146640135812E-02,-30.92775005061));
#237 = CARTESIAN_POINT('',(-2.77688231739E-02,-30.97584822479));
#238 = CARTESIAN_POINT('',(-1.390012609335E-02,-31.));
#239 = CARTESIAN_POINT('',(0.,-31.));
#240 = ( GEOMETRIC_REPRESENTATION_CONTEXT(2) 
PARAMETRIC_REPRESENTATION_CONTEXT() REPRESENTATION_CONTEXT('2D SPACE',''
  ) );
#241 = PCURVE('',#142,#242);
#242 = DEFINITIONAL_REPRESENTATION('',(#243),#271);
#243 = B_SPLINE_CURVE_WITH_KNOTS('',6,(#244,#245,#246,#247,#248,#249,
    #250,#251,#252,#253,#254,#255,#256,#257,#258,#259,#260,#261,#262,
    #263,#264,#265,#266,#267,#268,#269,#270),.UNSPECIFIED.,.F.,.F.,(7,5,
    5,5,5,7),(0.,0.422284583698,0.552622503153,0.706316382438,
    0.818587881008,1.),.UNSPECIFIED.);
#244 = CARTESIAN_POINT('',(0.,-24.26932219902));
#245 = CARTESIAN_POINT('',(-9.580702593498E-02,-24.26932219902));
#246 = CARTESIAN_POINT('',(-0.191532724535,-24.28566126473));
#247 = CARTESIAN_POINT('',(-0.287955602253,-24.31828557312));
#248 = CARTESIAN_POINT('',(-0.385807287696,-24.3661539204));
#249 = CARTESIAN_POINT('',(-0.485853519214,-24.4271236816));
#250 = CARTESIAN_POINT('',(-0.620899738089,-24.51879938137));
#251 = CARTESIAN_POINT('',(-0.653057412144,-24.54129123292));
#252 = CARTESIAN_POINT('',(-0.685553959776,-24.56453823641));
#253 = CARTESIAN_POINT('',(-0.718420696872,-24.5884068739));
#254 = CARTESIAN_POINT('',(-0.751690132854,-24.61274298792));
#255 = CARTESIAN_POINT('',(-0.825146519048,-24.66641003729));
#256 = CARTESIAN_POINT('',(-0.865514668803,-24.69586174841));
#257 = CARTESIAN_POINT('',(-0.906547888953,-24.72542607933));
#258 = CARTESIAN_POINT('',(-0.948290309514,-24.75475312074));
#259 = CARTESIAN_POINT('',(-0.990790587768,-24.78344573796));
#260 = CARTESIAN_POINT('',(-1.065750116024,-24.83123743803));
#261 = CARTESIAN_POINT('',(-1.097833480022,-24.85084117767));
#262 = CARTESIAN_POINT('',(-1.130349339801,-24.86968237206));
#263 = CARTESIAN_POINT('',(-1.16329261694,-24.88756218884));
#264 = CARTESIAN_POINT('',(-1.196661444454,-24.90428084035));
#265 = CARTESIAN_POINT('',(-1.285065332874,-24.94446675462));
#266 = CARTESIAN_POINT('',(-1.340921497112,-24.96581011016));
#267 = CARTESIAN_POINT('',(-1.397690031632,-24.9826597218));
#268 = CARTESIAN_POINT('',(-1.45509291216,-24.99420365229));
#269 = CARTESIAN_POINT('',(-1.512879134739,-25.));
#270 = CARTESIAN_POINT('',(-1.570796326795,-25.));
#271 = ( GEOMETRIC_REPRESENTATION_CONTEXT(2) 
PARAMETRIC_REPRESENTATION_CONTEXT() REPRESENTATION_CONTEXT('2D SPACE',''
  ) );
#272 = ORIENTED_EDGE('',*,*,#273,.T.);
#273 = EDGE_CURVE('',#179,#274,#276,.T.);
#274 = VERTEX_POINT('',#275);
#275 = CARTESIAN_POINT('',(25.,0.,60.));
#276 = SEAM_CURVE('',#277,(#281,#288),.PCURVE_S1.);
#277 = LINE('',#278,#279);
#278 = CARTESIAN_POINT('',(25.,0.,0.));
#279 = VECTOR('',#280,1.);
#280 = DIRECTION('',(0.,0.,1.));
#281 = PCURVE('',#31,#282);
#282 = DEFINITIONAL_REPRESENTATION('',(#283),#287);
#283 = LINE('',#284,#285);
#284 = CARTESIAN_POINT('',(-6.28318530718,0.));
#285 = VECTOR('',#286,1.);
#286 = DIRECTION('',(-0.,-1.));
#287 = ( GEOMETRIC_REPRESENTATION_CONTEXT(2) 
PARAMETRIC_REPRESENTATION_CONTEXT() REPRESENTATION_CONTEXT('2D SPACE',''
  ) );
#288 = PCURVE('',#31,#289);
#289 = DEFINITIONAL_REPRESENTATION('',(#290),#294);
#290 = LINE('',#291,#292);
#291 = CARTESIAN_POINT('',(-0.,0.));
#292 = VECTOR('',#293,1.);
#293 = DIRECTION('',(-0.,-1.));
#294 = ( GEOMETRIC_REPRESENTATION_CONTEXT(2) 
PARAMETRIC_REPRESENTATION_CONTEXT() REPRESENTATION_CONTEXT('2D SPACE',''
  ) );
#295 = ORIENTED_EDGE('',*,*,#296,.T.);
#296 = EDGE_CURVE('',#274,#274,#297,.T.);
#297 = SURFACE_CURVE('',#298,(#303,#310),.PCURVE_S1.);
#298 = CIRCLE('',#299,25.);
#299 = AXIS2_PLACEMENT_3D('',#300,#301,#302);
#300 = CARTESIAN_POINT('',(0.,0.,60.));
#301 = DIRECTION('',(0.,0.,1.));
#302 = DIRECTION('',(1.,0.,0.));
#303 = PCURVE('',#31,#304);
#304 = DEFINITIONAL_REPRESENTATION('',(#305),#309);
#305 = LINE('',#306,#307);
#306 = CARTESIAN_POINT('',(-0.,-60.));
#307 = VECTOR('',#308,1.);
#308 = DIRECTION('',(-1.,0.));
#309 = ( GEOMETRIC_REPRESENTATION_CONTEXT(2) 
PARAMETRIC_REPRESENTATION_CONTEXT() REPRESENTATION_CONTEXT('2D SPACE',''
  ) );
#310 = PCURVE('',#311,#316);
#311 = PLANE('',#312);
#312 = AXIS2_PLACEMENT_3D('',#313,#314,#315);
#313 = CARTESIAN_POINT('',(-8.751616848252E-16,1.604946055186E-15,60.));
#314 = DIRECTION('',(0.,0.,1.));
#315 = DIRECTION('',(1.,0.,-0.));
#316 = DEFINITIONAL_REPRESENTATION('',(#317),#321);
#317 = CIRCLE('',#318,25.);
#318 = AXIS2_PLACEMENT_2D('',#319,#320);
#319 = CARTESIAN_POINT('',(8.751616848252E-16,-1.604946055186E-15));
#320 = DIRECTION('',(1.,0.));
#321 = ( GEOMETRIC_REPRESENTATION_CONTEXT(2) 
PARAMETRIC_REPRESENTATION_CONTEXT() REPRESENTATION_CONTEXT('2D SPACE',''
  ) );
#322 = ORIENTED_EDGE('',*,*,#273,.F.);
#323 = ORIENTED_EDGE('',*,*,#324,.T.);
#324 = EDGE_CURVE('',#179,#56,#325,.T.);
#325 = SURFACE_CURVE('',#326,(#384,#445),.PCURVE_S1.);
#326 = B_SPLINE_CURVE_WITH_KNOTS('',6,(#327,#328,#329,#330,#331,#332,
    #333,#334,#335,#336,#337,#338,#339,#340,#341,#342,#343,#344,#345,
    #346,#347,#348,#349,#350,#351,#352,#353,#354,#355,#356,#357,#358,
    #359,#360,#361,#362,#363,#364,#365,#366,#367,#368,#369,#370,#371,
    #372,#373,#374,#375,#376,#377,#378,#379,#380,#381,#382,#383),
  .UNSPECIFIED.,.F.,.F.,(7,5,5,5,5,5,5,5,5,5,5,7),(0.,9.070576426734E-02
    ,0.146841330861,0.223688020409,0.343401959318,0.500034461502,
    0.614659474321,0.711195292881,0.776352295074,0.853185134468,
    0.909310583693,1.),.UNSPECIFIED.);
#327 = CARTESIAN_POINT('',(25.,-1.7763568394E-15,31.));
#328 = CARTESIAN_POINT('',(25.,-0.347503152443,31.));
#329 = CARTESIAN_POINT('',(24.99420365229,-0.694220527651,
    30.975848224784));
#330 = CARTESIAN_POINT('',(24.982659721813,-1.036539386482,
    30.927750050638));
#331 = CARTESIAN_POINT('',(24.965810110167,-1.370904230888,
    30.856852385497));
#332 = CARTESIAN_POINT('',(24.944466754616,-1.693985367274,
    30.765220517363));
#333 = CARTESIAN_POINT('',(24.904280840357,-2.193984406358,
    30.588161571376));
#334 = CARTESIAN_POINT('',(24.887562188847,-2.379968364473,
    30.513577350438));
#335 = CARTESIAN_POINT('',(24.869682372069,-2.560537635546,
    30.432599898914));
#336 = CARTESIAN_POINT('',(24.850841177671,-2.73547389498,
    30.345738698095));
#337 = CARTESIAN_POINT('',(24.831237438037,-2.904595735767,
    30.253510122836));
#338 = CARTESIAN_POINT('',(24.783445737969,-3.291119930885,
    30.023552391639));
#339 = CARTESIAN_POINT('',(24.75475312074,-3.5033625799,29.881561988963)
  );
#340 = CARTESIAN_POINT('',(24.725426079336,-3.704523786502,
    29.731553457681));
#341 = CARTESIAN_POINT('',(24.695861748412,-3.894691572693,
    29.574503105411));
#342 = CARTESIAN_POINT('',(24.666410037291,-4.074002696191,
    29.411278678048));
#343 = CARTESIAN_POINT('',(24.592130584579,-4.505349702466,
    28.979931671773));
#344 = CARTESIAN_POINT('',(24.547869480079,-4.742277038878,
    28.703963232311));
#345 = CARTESIAN_POINT('',(24.505686196179,-4.954274159317,
    28.417371216194));
#346 = CARTESIAN_POINT('',(24.466415139013,-5.142208308446,
    28.122183474911));
#347 = CARTESIAN_POINT('',(24.430684317301,-5.306866423133,
    27.819964227693));
#348 = CARTESIAN_POINT('',(24.357484678921,-5.634640745035,
    27.108966760532));
#349 = CARTESIAN_POINT('',(24.322878950967,-5.781618392684,
    26.696078244341));
#350 = CARTESIAN_POINT('',(24.296267076037,-5.891010626036,
    26.276412617763));
#351 = CARTESIAN_POINT('',(24.278306731284,-5.963658669101,
    25.852435068952));
#352 = CARTESIAN_POINT('',(24.269322199023,-6.,25.42626912984));
#353 = CARTESIAN_POINT('',(24.269322199023,-6.,24.688052583014));
#354 = CARTESIAN_POINT('',(24.274134002383,-5.980537847815,
    24.376126591215));
#355 = CARTESIAN_POINT('',(24.28375521499,-5.941618180896,
    24.065060248925));
#356 = CARTESIAN_POINT('',(24.298093569795,-5.883121759566,
    23.755700996128));
#357 = CARTESIAN_POINT('',(24.316956884234,-5.804811598427,
    23.448965227885));
#358 = CARTESIAN_POINT('',(24.359485883851,-5.623406732289,
    22.890658457807));
#359 = CARTESIAN_POINT('',(24.381922800791,-5.526177873901,
    22.638034405811));
#360 = CARTESIAN_POINT('',(24.407176001777,-5.414428454611,
    22.388593299569));
#361 = CARTESIAN_POINT('',(24.435015164133,-5.287861337229,
    22.142989077347));
#362 = CARTESIAN_POINT('',(24.465142417484,-5.146122575429,
    21.902002024133));
#363 = CARTESIAN_POINT('',(24.518799381383,-4.882644483673,
    21.507679193675));
#364 = CARTESIAN_POINT('',(24.541291232925,-4.769376151833,
    21.351308349839));
#365 = CARTESIAN_POINT('',(24.564538236402,-4.648879170761,
    21.197742201079));
#366 = CARTESIAN_POINT('',(24.588406873899,-4.521017344834,
    21.047305217969));
#367 = CARTESIAN_POINT('',(24.612742987932,-4.385651748946,
    20.900370374708));
#368 = CARTESIAN_POINT('',(24.666410037291,-4.074002696191,
    20.588721321952));
#369 = CARTESIAN_POINT('',(24.695861748412,-3.894691572693,
    20.425496894589));
#370 = CARTESIAN_POINT('',(24.725426079336,-3.704523786502,
    20.268446542319));
#371 = CARTESIAN_POINT('',(24.75475312074,-3.503362579901,
    20.118438011037));
#372 = CARTESIAN_POINT('',(24.783445737969,-3.291119930885,
    19.976447608361));
#373 = CARTESIAN_POINT('',(24.831237438037,-2.904595735769,
    19.746489877165));
#374 = CARTESIAN_POINT('',(24.850841177671,-2.73547389498,
    19.654261301904));
#375 = CARTESIAN_POINT('',(24.869682372069,-2.560537635544,
    19.567400101085));
#376 = CARTESIAN_POINT('',(24.887562188847,-2.379968364473,
    19.486422649562));
#377 = CARTESIAN_POINT('',(24.904280840357,-2.19398440636,
    19.411838428625));
#378 = CARTESIAN_POINT('',(24.944466754624,-1.693985367171,19.2347794826
    ));
#379 = CARTESIAN_POINT('',(24.965810110161,-1.370904230915,
    19.143147614528));
#380 = CARTESIAN_POINT('',(24.982659721808,-1.03653938659,
    19.072249949381));
#381 = CARTESIAN_POINT('',(24.994203652294,-0.694220527679,
    19.024151775201));
#382 = CARTESIAN_POINT('',(25.,-0.347503152334,19.));
#383 = CARTESIAN_POINT('',(25.,-3.552713678801E-15,19.));
#384 = PCURVE('',#31,#385);
#385 = DEFINITIONAL_REPRESENTATION('',(#386),#444);
#386 = B_SPLINE_CURVE_WITH_KNOTS('',6,(#387,#388,#389,#390,#391,#392,
    #393,#394,#395,#396,#397,#398,#399,#400,#401,#402,#403,#404,#405,
    #406,#407,#408,#409,#410,#411,#412,#413,#414,#415,#416,#417,#418,
    #419,#420,#421,#422,#423,#424,#425,#426,#427,#428,#429,#430,#431,
    #432,#433,#434,#435,#436,#437,#438,#439,#440,#441,#442,#443),
  .UNSPECIFIED.,.F.,.F.,(7,5,5,5,5,5,5,5,5,5,5,7),(0.,9.070576426734E-02
    ,0.146841330861,0.223688020409,0.343401959318,0.500034461502,
    0.614659474321,0.711195292881,0.776352295074,0.853185134468,
    0.909310583693,1.),.UNSPECIFIED.);
#387 = CARTESIAN_POINT('',(-6.28318530718,-31.));
#388 = CARTESIAN_POINT('',(-6.269285181082,-31.));
#389 = CARTESIAN_POINT('',(-6.255416484007,-30.97584822478));
#390 = CARTESIAN_POINT('',(-6.241718905826,-30.92775005063));
#391 = CARTESIAN_POINT('',(-6.228329888863,-30.85685238549));
#392 = CARTESIAN_POINT('',(-6.21537978432,-30.76522051736));
#393 = CARTESIAN_POINT('',(-6.195315330306,-30.58816157137));
#394 = CARTESIAN_POINT('',(-6.187846308887,-30.51357735043));
#395 = CARTESIAN_POINT('',(-6.180588643403,-30.43259989891));
#396 = CARTESIAN_POINT('',(-6.173551085197,-30.34573869809));
#397 = CARTESIAN_POINT('',(-6.166741113116,-30.25351012283));
#398 = CARTESIAN_POINT('',(-6.151162409703,-30.02355239163));
#399 = CARTESIAN_POINT('',(-6.142596028689,-29.88156198896));
#400 = CARTESIAN_POINT('',(-6.134465130094,-29.73155345768));
#401 = CARTESIAN_POINT('',(-6.126767487466,-29.57450310541));
#402 = CARTESIAN_POINT('',(-6.119499155937,-29.41127867804));
#403 = CARTESIAN_POINT('',(-6.101991321032,-28.97993167177));
#404 = CARTESIAN_POINT('',(-6.092351225803,-28.70396323231));
#405 = CARTESIAN_POINT('',(-6.083705853356,-28.41737121619));
#406 = CARTESIAN_POINT('',(-6.076026448763,-28.12218347491));
#407 = CARTESIAN_POINT('',(-6.069286972371,-27.81996422769));
#408 = CARTESIAN_POINT('',(-6.055853033669,-27.10896676053));
#409 = CARTESIAN_POINT('',(-6.049813567361,-26.69607824434));
#410 = CARTESIAN_POINT('',(-6.045310279893,-26.27641261776));
#411 = CARTESIAN_POINT('',(-6.04231687597,-25.85243506895));
#412 = CARTESIAN_POINT('',(-6.040819456141,-25.42626912984));
#413 = CARTESIAN_POINT('',(-6.040819456141,-24.68805258301));
#414 = CARTESIAN_POINT('',(-6.04162137787,-24.37612659121));
#415 = CARTESIAN_POINT('',(-6.043225040982,-24.06506024892));
#416 = CARTESIAN_POINT('',(-6.045634146223,-23.75570099612));
#417 = CARTESIAN_POINT('',(-6.048856092119,-23.44896522788));
#418 = CARTESIAN_POINT('',(-6.056309031541,-22.8906584578));
#419 = CARTESIAN_POINT('',(-6.060300368311,-22.63803440581));
#420 = CARTESIAN_POINT('',(-6.064882989635,-22.38859329956));
#421 = CARTESIAN_POINT('',(-6.070066532392,-22.14298907734));
#422 = CARTESIAN_POINT('',(-6.075862533658,-21.90200202413));
#423 = CARTESIAN_POINT('',(-6.086617980621,-21.50767919367));
#424 = CARTESIAN_POINT('',(-6.091237119671,-21.35130834983));
#425 = CARTESIAN_POINT('',(-6.096145764897,-21.19774220107));
#426 = CARTESIAN_POINT('',(-6.10134842803,-21.04730521796));
#427 = CARTESIAN_POINT('',(-6.106849711094,-20.9003703747));
#428 = CARTESIAN_POINT('',(-6.119499155937,-20.58872132195));
#429 = CARTESIAN_POINT('',(-6.126767487466,-20.42549689458));
#430 = CARTESIAN_POINT('',(-6.134465130094,-20.26844654231));
#431 = CARTESIAN_POINT('',(-6.142596028689,-20.11843801103));
#432 = CARTESIAN_POINT('',(-6.151162409703,-19.97644760836));
#433 = CARTESIAN_POINT('',(-6.166741113115,-19.74648987716));
#434 = CARTESIAN_POINT('',(-6.173551085197,-19.6542613019));
#435 = CARTESIAN_POINT('',(-6.180588643403,-19.56740010108));
#436 = CARTESIAN_POINT('',(-6.187846308887,-19.48642264956));
#437 = CARTESIAN_POINT('',(-6.195315330306,-19.41183842862));
#438 = CARTESIAN_POINT('',(-6.215379784324,-19.2347794826));
#439 = CARTESIAN_POINT('',(-6.228329888862,-19.14314761452));
#440 = CARTESIAN_POINT('',(-6.241718905821,-19.07224994938));
#441 = CARTESIAN_POINT('',(-6.255416484006,-19.0241517752));
#442 = CARTESIAN_POINT('',(-6.269285181086,-19.));
#443 = CARTESIAN_POINT('',(-6.28318530718,-19.));
#444 = ( GEOMETRIC_REPRESENTATION_CONTEXT(2) 
PARAMETRIC_REPRESENTATION_CONTEXT() REPRESENTATION_CONTEXT('2D SPACE',''
  ) );
#445 = PCURVE('',#142,#446);
#446 = DEFINITIONAL_REPRESENTATION('',(#447),#505);
#447 = B_SPLINE_CURVE_WITH_KNOTS('',6,(#448,#449,#450,#451,#452,#453,
    #454,#455,#456,#457,#458,#459,#460,#461,#462,#463,#464,#465,#466,
    #467,#468,#469,#470,#471,#472,#473,#474,#475,#476,#477,#478,#479,
    #480,#481,#482,#483,#484,#485,#486,#487,#488,#489,#490,#491,#492,
    #493,#494,#495,#496,#497,#498,#499,#500,#501,#502,#503,#504),
  .UNSPECIFIED.,.F.,.F.,(7,5,5,5,5,5,5,5,5,5,5,7),(0.,9.070576426734E-02
    ,0.146841330861,0.223688020409,0.343401959318,0.500034461502,
    0.614659474321,0.711195292881,0.776352295074,0.853185134468,
    0.909310583693,1.),.UNSPECIFIED.);
#448 = CARTESIAN_POINT('',(-1.570796326795,-25.));
#449 = CARTESIAN_POINT('',(-1.628713518869,-25.));
#450 = CARTESIAN_POINT('',(-1.686499741425,-24.99420365229));
#451 = CARTESIAN_POINT('',(-1.743902621941,-24.98265972181));
#452 = CARTESIAN_POINT('',(-1.800671156472,-24.96581011016));
#453 = CARTESIAN_POINT('',(-1.856527320735,-24.94446675461));
#454 = CARTESIAN_POINT('',(-1.944931209135,-24.90428084035));
#455 = CARTESIAN_POINT('',(-1.97830003665,-24.88756218884));
#456 = CARTESIAN_POINT('',(-2.011243313788,-24.86968237206));
#457 = CARTESIAN_POINT('',(-2.043759173568,-24.85084117767));
#458 = CARTESIAN_POINT('',(-2.075842537566,-24.83123743803));
#459 = CARTESIAN_POINT('',(-2.150802065822,-24.78344573796));
#460 = CARTESIAN_POINT('',(-2.193302344076,-24.75475312074));
#461 = CARTESIAN_POINT('',(-2.235044764636,-24.72542607933));
#462 = CARTESIAN_POINT('',(-2.276077984787,-24.69586174841));
#463 = CARTESIAN_POINT('',(-2.316446134542,-24.66641003729));
#464 = CARTESIAN_POINT('',(-2.418115598936,-24.59213058457));
#465 = CARTESIAN_POINT('',(-2.478561318991,-24.54786948007));
#466 = CARTESIAN_POINT('',(-2.53774684593,-24.50568619617));
#467 = CARTESIAN_POINT('',(-2.595864973054,-24.46641513901));
#468 = CARTESIAN_POINT('',(-2.653097003729,-24.4306843173));
#469 = CARTESIAN_POINT('',(-2.783582571727,-24.35748467892));
#470 = CARTESIAN_POINT('',(-2.856331907386,-24.32287895096));
#471 = CARTESIAN_POINT('',(-2.928212097755,-24.29626707603));
#472 = CARTESIAN_POINT('',(-2.999520049978,-24.27830673128));
#473 = CARTESIAN_POINT('',(-3.070547798616,-24.26932219902));
#474 = CARTESIAN_POINT('',(-3.193583889754,-24.26932219902));
#475 = CARTESIAN_POINT('',(-3.245571514628,-24.27413400238));
#476 = CARTESIAN_POINT('',(-3.297668965849,-24.28375521499));
#477 = CARTESIAN_POINT('',(-3.349987544747,-24.29809356979));
#478 = CARTESIAN_POINT('',(-3.402641301276,-24.31695688423));
#479 = CARTESIAN_POINT('',(-3.500481047655,-24.35948588385));
#480 = CARTESIAN_POINT('',(-3.545531845326,-24.38192280079));
#481 = CARTESIAN_POINT('',(-3.590987248982,-24.40717600177));
#482 = CARTESIAN_POINT('',(-3.636931113664,-24.43501516413));
#483 = CARTESIAN_POINT('',(-3.683451052393,-24.46514241748));
#484 = CARTESIAN_POINT('',(-3.762492391692,-24.51879938138));
#485 = CARTESIAN_POINT('',(-3.794650065735,-24.54129123292));
#486 = CARTESIAN_POINT('',(-3.827146613354,-24.5645382364));
#487 = CARTESIAN_POINT('',(-3.860013350454,-24.58840687389));
#488 = CARTESIAN_POINT('',(-3.893282786453,-24.61274298793));
#489 = CARTESIAN_POINT('',(-3.966739172638,-24.66641003729));
#490 = CARTESIAN_POINT('',(-4.007107322393,-24.69586174841));
#491 = CARTESIAN_POINT('',(-4.048140542543,-24.72542607933));
#492 = CARTESIAN_POINT('',(-4.089882963104,-24.75475312074));
#493 = CARTESIAN_POINT('',(-4.132383241358,-24.78344573796));
#494 = CARTESIAN_POINT('',(-4.207342769613,-24.83123743803));
#495 = CARTESIAN_POINT('',(-4.239426133612,-24.85084117767));
#496 = CARTESIAN_POINT('',(-4.271941993392,-24.86968237206));
#497 = CARTESIAN_POINT('',(-4.30488527053,-24.88756218884));
#498 = CARTESIAN_POINT('',(-4.338254098044,-24.90428084035));
#499 = CARTESIAN_POINT('',(-4.426657986463,-24.94446675462));
#500 = CARTESIAN_POINT('',(-4.482514150701,-24.96581011016));
#501 = CARTESIAN_POINT('',(-4.539282685221,-24.9826597218));
#502 = CARTESIAN_POINT('',(-4.59668556575,-24.99420365229));
#503 = CARTESIAN_POINT('',(-4.654471788329,-25.));
#504 = CARTESIAN_POINT('',(-4.712388980385,-25.));
#505 = ( GEOMETRIC_REPRESENTATION_CONTEXT(2) 
PARAMETRIC_REPRESENTATION_CONTEXT() REPRESENTATION_CONTEXT('2D SPACE',''
  ) );
#506 = ORIENTED_EDGE('',*,*,#55,.F.);
#507 = FACE_BOUND('',#508,.F.);
#508 = EDGE_LOOP('',(#509));
#509 = ORIENTED_EDGE('',*,*,#510,.F.);
#510 = EDGE_CURVE('',#511,#511,#513,.T.);
#511 = VERTEX_POINT('',#512);
#512 = CARTESIAN_POINT('',(-24.26932219902,6.,25.));
#513 = SURFACE_CURVE('',#514,(#612,#713),.PCURVE_S1.);
#514 = B_SPLINE_CURVE_WITH_KNOTS('',6,(#515,#516,#517,#518,#519,#520,
    #521,#522,#523,#524,#525,#526,#527,#528,#529,#530,#531,#532,#533,
    #534,#535,#536,#537,#538,#539,#540,#541,#542,#543,#544,#545,#546,
    #547,#548,#549,#550,#551,#552,#553,#554,#555,#556,#557,#558,#559,
    #560,#561,#562,#563,#564,#565,#566,#567,#568,#569,#570,#571,#572,
    #573,#574,#575,#576,#577,#578,#579,#580,#581,#582,#583,#584,#585,
    #586,#587,#588,#589,#590,#591,#592,#593,#594,#595,#596,#597,#598,
    #599,#600,#601,#602,#603,#604,#605,#606,#607,#608,#609,#610,#611),
  .UNSPECIFIED.,.T.,.F.,(7,5,5,5,5,5,5,5,5,5,5,5,5,5,5,5,5,5,5,7),(0.,
    0.105492302048,0.138052446223,0.17644721948,0.220494930532,
    0.270345107627,0.323115908275,0.361551984153,0.421428781771,
    0.499770981935,0.557102476353,0.605386378574,0.637975674132,
    0.676404822608,0.720491970313,0.770386778817,0.823204825738,
    0.86167531385,0.894299666943,1.),.UNSPECIFIED.);
#515 = CARTESIAN_POINT('',(-24.26932219902,6.,25.));
#516 = CARTESIAN_POINT('',(-24.26932219902,6.,25.574842146388));
#517 = CARTESIAN_POINT('',(-24.28566126577,5.933912171995,
    26.149191792043));
#518 = CARTESIAN_POINT('',(-24.31828557046,5.801941343591,
    26.718253269237));
#519 = CARTESIAN_POINT('',(-24.36615392311,5.602551833141,
    27.276894032869));
#520 = CARTESIAN_POINT('',(-24.42712368047,5.33281044502,27.818599834417
    ));
#521 = CARTESIAN_POINT('',(-24.51879938134,4.882644483847,
    28.492320806065));
#522 = CARTESIAN_POINT('',(-24.54129123292,4.769376151872,
    28.648691650157));
#523 = CARTESIAN_POINT('',(-24.56453823643,4.648879170592,28.80225779913
    ));
#524 = CARTESIAN_POINT('',(-24.58840687392,4.521017344702,
    28.952694782146));
#525 = CARTESIAN_POINT('',(-24.6127429879,4.385651749104,29.099629625135
    ));
#526 = CARTESIAN_POINT('',(-24.66641003729,4.074002696191,
    29.411278678048));
#527 = CARTESIAN_POINT('',(-24.69586174841,3.894691572693,
    29.574503105411));
#528 = CARTESIAN_POINT('',(-24.72542607933,3.704523786502,
    29.731553457681));
#529 = CARTESIAN_POINT('',(-24.75475312074,3.5033625799,29.881561988963)
  );
#530 = CARTESIAN_POINT('',(-24.78344573796,3.291119930884,
    30.023552391639));
#531 = CARTESIAN_POINT('',(-24.84274685982,2.811511162767,
    30.308889624267));
#532 = CARTESIAN_POINT('',(-24.87307503991,2.540148542976,
    30.449643757171));
#533 = CARTESIAN_POINT('',(-24.90125010743,2.254504742168,
    30.576380786063));
#534 = CARTESIAN_POINT('',(-24.92644718749,1.955687657933,
    30.686966413424));
#535 = CARTESIAN_POINT('',(-24.94788656429,1.645054053375,
    30.779448580689));
#536 = CARTESIAN_POINT('',(-24.98416758026,0.96104659028,30.934223667821
    ));
#537 = CARTESIAN_POINT('',(-24.99775368887,0.585067747292,
    30.990873980364));
#538 = CARTESIAN_POINT('',(-25.00456706141,0.201468284817,
    31.018849651382));
#539 = CARTESIAN_POINT('',(-25.00404103753,-0.184108391235,
    31.016803856718));
#540 = CARTESIAN_POINT('',(-24.99637530366,-0.565945414415,
    30.985153807012));
#541 = CARTESIAN_POINT('',(-24.96755266021,-1.33310166105,
    30.863648194247));
#542 = CARTESIAN_POINT('',(-24.94569351662,-1.715669538781,
    30.770751647328));
#543 = CARTESIAN_POINT('',(-24.91774844009,-2.083017772624,
    30.650091664494));
#544 = CARTESIAN_POINT('',(-24.88501935204,-2.432275030335,
    30.504879521374));
#545 = CARTESIAN_POINT('',(-24.84898061477,-2.76109451907,
    30.338884375296));
#546 = CARTESIAN_POINT('',(-24.78344573796,-3.291119930884,
    30.023552391639));
#547 = CARTESIAN_POINT('',(-24.75475312074,-3.5033625799,29.881561988963
    ));
#548 = CARTESIAN_POINT('',(-24.72542607933,-3.704523786502,
    29.731553457681));
#549 = CARTESIAN_POINT('',(-24.69586174841,-3.894691572693,
    29.574503105411));
#550 = CARTESIAN_POINT('',(-24.66641003729,-4.074002696191,
    29.411278678048));
#551 = CARTESIAN_POINT('',(-24.59213058813,-4.505349681798,
    28.97993169244));
#552 = CARTESIAN_POINT('',(-24.54786947506,-4.742277065464,
    28.703963196698));
#553 = CARTESIAN_POINT('',(-24.50568619567,-4.954274163791,
    28.417371217711));
#554 = CARTESIAN_POINT('',(-24.46641514378,-5.142208283976,
    28.122183511231));
#555 = CARTESIAN_POINT('',(-24.43068431483,-5.306866434177,
    27.819964203736));
#556 = CARTESIAN_POINT('',(-24.35748467891,-5.634640745064,
    27.10896676047));
#557 = CARTESIAN_POINT('',(-24.32287895098,-5.781618392627,
    26.696078244438));
#558 = CARTESIAN_POINT('',(-24.29626707602,-5.891010626079,
    26.27641261777));
#559 = CARTESIAN_POINT('',(-24.27830673128,-5.963658669089,
    25.852435068844));
#560 = CARTESIAN_POINT('',(-24.26932219902,-6.,25.426269129906));
#561 = CARTESIAN_POINT('',(-24.26932219902,-6.,24.688052592465));
#562 = CARTESIAN_POINT('',(-24.27413400287,-5.98053784574,
    24.376126576196));
#563 = CARTESIAN_POINT('',(-24.28375521466,-5.941618182284,
    24.065060248812));
#564 = CARTESIAN_POINT('',(-24.29809356915,-5.883121762295,
    23.755701011095));
#565 = CARTESIAN_POINT('',(-24.31695688493,-5.804811595436,
    23.448965218679));
#566 = CARTESIAN_POINT('',(-24.35948588385,-5.623406732289,
    22.890658457807));
#567 = CARTESIAN_POINT('',(-24.38192280079,-5.526177873901,
    22.638034405811));
#568 = CARTESIAN_POINT('',(-24.40717600177,-5.414428454611,
    22.388593299569));
#569 = CARTESIAN_POINT('',(-24.43501516413,-5.287861337229,
    22.142989077347));
#570 = CARTESIAN_POINT('',(-24.46514241748,-5.146122575429,
    21.902002024133));
#571 = CARTESIAN_POINT('',(-24.51879938138,-4.882644483673,
    21.507679193675));
#572 = CARTESIAN_POINT('',(-24.54129123292,-4.769376151833,
    21.351308349839));
#573 = CARTESIAN_POINT('',(-24.5645382364,-4.648879170761,
    21.197742201079));
#574 = CARTESIAN_POINT('',(-24.58840687389,-4.521017344834,
    21.047305217968));
#575 = CARTESIAN_POINT('',(-24.61274298793,-4.385651748946,
    20.900370374708));
#576 = CARTESIAN_POINT('',(-24.66641003729,-4.074002696191,
    20.588721321952));
#577 = CARTESIAN_POINT('',(-24.69586174841,-3.894691572693,
    20.425496894589));
#578 = CARTESIAN_POINT('',(-24.72542607933,-3.704523786502,
    20.268446542319));
#579 = CARTESIAN_POINT('',(-24.75475312074,-3.5033625799,20.118438011037
    ));
#580 = CARTESIAN_POINT('',(-24.78344573796,-3.291119930885,
    19.976447608361));
#581 = CARTESIAN_POINT('',(-24.84274686004,-2.811511161003,
    19.691110374683));
#582 = CARTESIAN_POINT('',(-24.87307503964,-2.540148545925,
    19.550356244083));
#583 = CARTESIAN_POINT('',(-24.90125010737,-2.254504742131,
    19.423619214233));
#584 = CARTESIAN_POINT('',(-24.92644718773,-1.955687654976,
    19.313033585465));
#585 = CARTESIAN_POINT('',(-24.94788656419,-1.645054055243,
    19.220551419734));
#586 = CARTESIAN_POINT('',(-24.98416758026,-0.96104659028,
    19.065776332179));
#587 = CARTESIAN_POINT('',(-24.99775368887,-0.585067747292,
    19.009126019636));
#588 = CARTESIAN_POINT('',(-25.00456706141,-0.201468284818,
    18.981150348618));
#589 = CARTESIAN_POINT('',(-25.00404103753,0.184108391236,
    18.983196143282));
#590 = CARTESIAN_POINT('',(-24.99637530366,0.565945414414,
    19.014846192988));
#591 = CARTESIAN_POINT('',(-24.96755266021,1.33310166103,19.13635180575)
  );
#592 = CARTESIAN_POINT('',(-24.94569351662,1.715669538781,
    19.229248352668));
#593 = CARTESIAN_POINT('',(-24.91774844009,2.083017772648,
    19.349908335512));
#594 = CARTESIAN_POINT('',(-24.88501935204,2.432275030346,
    19.495120478637));
#595 = CARTESIAN_POINT('',(-24.84898061477,2.761094519046,19.66111562469
    ));
#596 = CARTESIAN_POINT('',(-24.78344573796,3.291119930885,
    19.976447608361));
#597 = CARTESIAN_POINT('',(-24.75475312074,3.5033625799,20.118438011037)
  );
#598 = CARTESIAN_POINT('',(-24.72542607933,3.704523786502,
    20.268446542319));
#599 = CARTESIAN_POINT('',(-24.69586174841,3.894691572693,
    20.425496894589));
#600 = CARTESIAN_POINT('',(-24.66641003729,4.074002696191,
    20.588721321952));
#601 = CARTESIAN_POINT('',(-24.6127429879,4.385651749129,20.90037037489)
  );
#602 = CARTESIAN_POINT('',(-24.58840687392,4.521017344681,
    21.047305217835));
#603 = CARTESIAN_POINT('',(-24.56453823643,4.648879170565,
    21.197742200837));
#604 = CARTESIAN_POINT('',(-24.54129123292,4.769376151878,
    21.351308349844));
#605 = CARTESIAN_POINT('',(-24.51879938134,4.882644483875,
    21.507679193977));
#606 = CARTESIAN_POINT('',(-24.42712368103,5.332810442235,
    22.181400161414));
#607 = CARTESIAN_POINT('',(-24.36615392176,5.60255183969,22.723105981058
    ));
#608 = CARTESIAN_POINT('',(-24.31828557179,5.801941337239,
    23.281746710643));
#609 = CARTESIAN_POINT('',(-24.28566126525,5.933912174456,
    23.850808222527));
#610 = CARTESIAN_POINT('',(-24.26932219902,6.,24.425157849002));
#611 = CARTESIAN_POINT('',(-24.26932219902,6.,25.));
#612 = PCURVE('',#31,#613);
#613 = DEFINITIONAL_REPRESENTATION('',(#614),#712);
#614 = B_SPLINE_CURVE_WITH_KNOTS('',6,(#615,#616,#617,#618,#619,#620,
    #621,#622,#623,#624,#625,#626,#627,#628,#629,#630,#631,#632,#633,
    #634,#635,#636,#637,#638,#639,#640,#641,#642,#643,#644,#645,#646,
    #647,#648,#649,#650,#651,#652,#653,#654,#655,#656,#657,#658,#659,
    #660,#661,#662,#663,#664,#665,#666,#667,#668,#669,#670,#671,#672,
    #673,#674,#675,#676,#677,#678,#679,#680,#681,#682,#683,#684,#685,
    #686,#687,#688,#689,#690,#691,#692,#693,#694,#695,#696,#697,#698,
    #699,#700,#701,#702,#703,#704,#705,#706,#707,#708,#709,#710,#711),
  .UNSPECIFIED.,.T.,.F.,(7,5,5,5,5,5,5,5,5,5,5,5,5,5,5,5,5,5,5,7),(0.,
    0.105492302048,0.138052446223,0.17644721948,0.220494930532,
    0.270345107627,0.323115908275,0.361551984153,0.421428781771,
    0.499770981935,0.557102476353,0.605386378574,0.637975674132,
    0.676404822608,0.720491970313,0.770386778817,0.823204825738,
    0.86167531385,0.894299666943,1.),.UNSPECIFIED.);
#615 = CARTESIAN_POINT('',(-2.899226802551,-25.));
#616 = CARTESIAN_POINT('',(-2.899226802551,-25.57484214638));
#617 = CARTESIAN_POINT('',(-2.90194992163,-26.14919179204));
#618 = CARTESIAN_POINT('',(-2.90738760206,-26.71825326923));
#619 = CARTESIAN_POINT('',(-2.915589761299,-27.27689403286));
#620 = CARTESIAN_POINT('',(-2.926649089031,-27.81859983441));
#621 = CARTESIAN_POINT('',(-2.945025327024,-28.49232080606));
#622 = CARTESIAN_POINT('',(-2.949644466079,-28.64869165015));
#623 = CARTESIAN_POINT('',(-2.954553111314,-28.80225779913));
#624 = CARTESIAN_POINT('',(-2.959755774445,-28.95269478214));
#625 = CARTESIAN_POINT('',(-2.965257057498,-29.09962962513));
#626 = CARTESIAN_POINT('',(-2.977906502347,-29.41127867804));
#627 = CARTESIAN_POINT('',(-2.985174833876,-29.57450310541));
#628 = CARTESIAN_POINT('',(-2.992872476504,-29.73155345768));
#629 = CARTESIAN_POINT('',(-3.001003375099,-29.88156198896));
#630 = CARTESIAN_POINT('',(-3.009569756113,-30.02355239163));
#631 = CARTESIAN_POINT('',(-3.028900196088,-30.30888962426));
#632 = CARTESIAN_POINT('',(-3.039821542917,-30.44964375717));
#633 = CARTESIAN_POINT('',(-3.051301191926,-30.57638078606));
#634 = CARTESIAN_POINT('',(-3.063294337118,-30.68696641342));
#635 = CARTESIAN_POINT('',(-3.075747650843,-30.77944858068));
#636 = CARTESIAN_POINT('',(-3.103146410572,-30.93422366782));
#637 = CARTESIAN_POINT('',(-3.118193245008,-30.99087398036));
#638 = CARTESIAN_POINT('',(-3.133535624598,-31.01884965138));
#639 = CARTESIAN_POINT('',(-3.148954547017,-31.01680385671));
#640 = CARTESIAN_POINT('',(-3.164228779011,-30.98515380701));
#641 = CARTESIAN_POINT('',(-3.194936679011,-30.86364819424));
#642 = CARTESIAN_POINT('',(-3.210261432111,-30.77075164732));
#643 = CARTESIAN_POINT('',(-3.224994058347,-30.65009166449));
#644 = CARTESIAN_POINT('',(-3.239022818056,-30.50487952137));
#645 = CARTESIAN_POINT('',(-3.25225308839,-30.33888437529));
#646 = CARTESIAN_POINT('',(-3.273615551066,-30.02355239163));
#647 = CARTESIAN_POINT('',(-3.282181932081,-29.88156198896));
#648 = CARTESIAN_POINT('',(-3.290312830676,-29.73155345768));
#649 = CARTESIAN_POINT('',(-3.298010473304,-29.57450310541));
#650 = CARTESIAN_POINT('',(-3.305278804832,-29.41127867804));
#651 = CARTESIAN_POINT('',(-3.322786638898,-28.97993169244));
#652 = CARTESIAN_POINT('',(-3.332426736049,-28.70396319669));
#653 = CARTESIAN_POINT('',(-3.341072107593,-28.41737121771));
#654 = CARTESIAN_POINT('',(-3.348751511009,-28.12218351123));
#655 = CARTESIAN_POINT('',(-3.355490988851,-27.81996420373));
#656 = CARTESIAN_POINT('',(-3.368924927102,-27.10896676047));
#657 = CARTESIAN_POINT('',(-3.374964393406,-26.69607824443));
#658 = CARTESIAN_POINT('',(-3.379467680879,-26.27641261777));
#659 = CARTESIAN_POINT('',(-3.382461084799,-25.85243506884));
#660 = CARTESIAN_POINT('',(-3.383958504629,-25.4262691299));
#661 = CARTESIAN_POINT('',(-3.383958504629,-24.68805259246));
#662 = CARTESIAN_POINT('',(-3.383156582814,-24.37612657619));
#663 = CARTESIAN_POINT('',(-3.381552919845,-24.06506024881));
#664 = CARTESIAN_POINT('',(-3.379143814658,-23.75570101109));
#665 = CARTESIAN_POINT('',(-3.375921868527,-23.44896521867));
#666 = CARTESIAN_POINT('',(-3.368468929228,-22.8906584578));
#667 = CARTESIAN_POINT('',(-3.364477592458,-22.63803440581));
#668 = CARTESIAN_POINT('',(-3.359894971134,-22.38859329956));
#669 = CARTESIAN_POINT('',(-3.354711428377,-22.14298907734));
#670 = CARTESIAN_POINT('',(-3.348915427111,-21.90200202413));
#671 = CARTESIAN_POINT('',(-3.338159980148,-21.50767919367));
#672 = CARTESIAN_POINT('',(-3.333540841099,-21.35130834983));
#673 = CARTESIAN_POINT('',(-3.328632195873,-21.19774220107));
#674 = CARTESIAN_POINT('',(-3.32342953274,-21.04730521796));
#675 = CARTESIAN_POINT('',(-3.317928249675,-20.9003703747));
#676 = CARTESIAN_POINT('',(-3.305278804832,-20.58872132195));
#677 = CARTESIAN_POINT('',(-3.298010473304,-20.42549689458));
#678 = CARTESIAN_POINT('',(-3.290312830676,-20.26844654231));
#679 = CARTESIAN_POINT('',(-3.282181932081,-20.11843801103));
#680 = CARTESIAN_POINT('',(-3.273615551066,-19.97644760836));
#681 = CARTESIAN_POINT('',(-3.25428511102,-19.69111037468));
#682 = CARTESIAN_POINT('',(-3.243363764381,-19.55035624408));
#683 = CARTESIAN_POINT('',(-3.231884115252,-19.42361921423));
#684 = CARTESIAN_POINT('',(-3.219890969943,-19.31303358546));
#685 = CARTESIAN_POINT('',(-3.207437656411,-19.22055141973));
#686 = CARTESIAN_POINT('',(-3.180038896607,-19.06577633217));
#687 = CARTESIAN_POINT('',(-3.164992062172,-19.00912601963));
#688 = CARTESIAN_POINT('',(-3.149649682582,-18.98115034861));
#689 = CARTESIAN_POINT('',(-3.134230760162,-18.98319614328));
#690 = CARTESIAN_POINT('',(-3.118956528169,-19.01484619298));
#691 = CARTESIAN_POINT('',(-3.088248628169,-19.13635180575));
#692 = CARTESIAN_POINT('',(-3.072923875068,-19.22924835266));
#693 = CARTESIAN_POINT('',(-3.058191248832,-19.34990833551));
#694 = CARTESIAN_POINT('',(-3.044162489124,-19.49512047863));
#695 = CARTESIAN_POINT('',(-3.030932218791,-19.66111562469));
#696 = CARTESIAN_POINT('',(-3.009569756113,-19.97644760836));
#697 = CARTESIAN_POINT('',(-3.001003375099,-20.11843801103));
#698 = CARTESIAN_POINT('',(-2.992872476504,-20.26844654231));
#699 = CARTESIAN_POINT('',(-2.985174833876,-20.42549689458));
#700 = CARTESIAN_POINT('',(-2.977906502347,-20.58872132195));
#701 = CARTESIAN_POINT('',(-2.965257057497,-20.90037037489));
#702 = CARTESIAN_POINT('',(-2.959755774446,-21.04730521783));
#703 = CARTESIAN_POINT('',(-2.954553111315,-21.19774220083));
#704 = CARTESIAN_POINT('',(-2.949644466079,-21.35130834984));
#705 = CARTESIAN_POINT('',(-2.945025327023,-21.50767919397));
#706 = CARTESIAN_POINT('',(-2.926649089145,-22.18140016141));
#707 = CARTESIAN_POINT('',(-2.915589761031,-22.72310598105));
#708 = CARTESIAN_POINT('',(-2.907387602319,-23.28174671064));
#709 = CARTESIAN_POINT('',(-2.901949921529,-23.85080822252));
#710 = CARTESIAN_POINT('',(-2.899226802551,-24.425157849));
#711 = CARTESIAN_POINT('',(-2.899226802551,-25.));
#712 = ( GEOMETRIC_REPRESENTATION_CONTEXT(2) 
PARAMETRIC_REPRESENTATION_CONTEXT() REPRESENTATION_CONTEXT('2D SPACE',''
  ) );
#713 = PCURVE('',#714,#719);
#714 = CYLINDRICAL_SURFACE('',#715,6.);
#715 = AXIS2_PLACEMENT_3D('',#716,#717,#718);
#716 = CARTESIAN_POINT('',(0.,0.,25.));
#717 = DIRECTION('',(1.,0.,0.));
#718 = DIRECTION('',(0.,1.,0.));
#719 = DEFINITIONAL_REPRESENTATION('',(#720),#818);
#720 = B_SPLINE_CURVE_WITH_KNOTS('',6,(#721,#722,#723,#724,#725,#726,
    #727,#728,#729,#730,#731,#732,#733,#734,#735,#736,#737,#738,#739,
    #740,#741,#742,#743,#744,#745,#746,#747,#748,#749,#750,#751,#752,
    #753,#754,#755,#756,#757,#758,#759,#760,#761,#762,#763,#764,#765,
    #766,#767,#768,#769,#770,#771,#772,#773,#774,#775,#776,#777,#778,
    #779,#780,#781,#782,#783,#784,#785,#786,#787,#788,#789,#790,#791,
    #792,#793,#794,#795,#796,#797,#798,#799,#800,#801,#802,#803,#804,
    #805,#806,#807,#808,#809,#810,#811,#812,#813,#814,#815,#816,#817),
  .UNSPECIFIED.,.F.,.F.,(7,5,5,5,5,5,5,5,5,5,5,5,5,5,5,5,5,5,5,7),(0.,
    0.105492302048,0.138052446223,0.17644721948,0.220494930532,
    0.270345107627,0.323115908275,0.361551984153,0.421428781771,
    0.499770981935,0.557102476353,0.605386378574,0.637975674132,
    0.676404822608,0.720491970313,0.770386778817,0.823204825738,
    0.86167531385,0.894299666943,1.),.UNSPECIFIED.);
#721 = CARTESIAN_POINT('',(0.,-24.26932219902));
#722 = CARTESIAN_POINT('',(9.580702439796E-02,-24.26932219902));
#723 = CARTESIAN_POINT('',(0.191532729608,-24.28566126577));
#724 = CARTESIAN_POINT('',(0.287955594964,-24.31828557046));
#725 = CARTESIAN_POINT('',(0.385807292966,-24.36615392311));
#726 = CARTESIAN_POINT('',(0.485853517543,-24.42712368047));
#727 = CARTESIAN_POINT('',(0.62089973805,-24.51879938134));
#728 = CARTESIAN_POINT('',(0.65305741214,-24.54129123292));
#729 = CARTESIAN_POINT('',(0.68555395981,-24.56453823643));
#730 = CARTESIAN_POINT('',(0.718420696893,-24.58840687392));
#731 = CARTESIAN_POINT('',(0.751690132826,-24.6127429879));
#732 = CARTESIAN_POINT('',(0.825146519048,-24.66641003729));
#733 = CARTESIAN_POINT('',(0.865514668803,-24.69586174841));
#734 = CARTESIAN_POINT('',(0.906547888953,-24.72542607933));
#735 = CARTESIAN_POINT('',(0.948290309514,-24.75475312074));
#736 = CARTESIAN_POINT('',(0.990790587768,-24.78344573796));
#737 = CARTESIAN_POINT('',(1.083802221864,-24.84274685982));
#738 = CARTESIAN_POINT('',(1.134665032109,-24.87307503991));
#739 = CARTESIAN_POINT('',(1.186600153598,-24.90125010743));
#740 = CARTESIAN_POINT('',(1.239539081022,-24.92644718749));
#741 = CARTESIAN_POINT('',(1.293436620468,-24.94788656429));
#742 = CARTESIAN_POINT('',(1.410319935641,-24.98416758026));
#743 = CARTESIAN_POINT('',(1.473521691477,-24.99775368887));
#744 = CARTESIAN_POINT('',(1.537337702178,-25.00456706141));
#745 = CARTESIAN_POINT('',(1.601310348811,-25.00404103753));
#746 = CARTESIAN_POINT('',(1.664991518349,-24.99637530366));
#747 = CARTESIAN_POINT('',(1.794444675974,-24.96755266021));
#748 = CARTESIAN_POINT('',(1.859843023379,-24.94569351662));
#749 = CARTESIAN_POINT('',(1.923990811028,-24.91774844009));
#750 = CARTESIAN_POINT('',(1.986769384602,-24.88501935204));
#751 = CARTESIAN_POINT('',(2.048013015783,-24.84898061477));
#752 = CARTESIAN_POINT('',(2.150802065822,-24.78344573796));
#753 = CARTESIAN_POINT('',(2.193302344076,-24.75475312074));
#754 = CARTESIAN_POINT('',(2.235044764636,-24.72542607933));
#755 = CARTESIAN_POINT('',(2.276077984787,-24.69586174841));
#756 = CARTESIAN_POINT('',(2.316446134542,-24.66641003729));
#757 = CARTESIAN_POINT('',(2.418115594064,-24.59213058813));
#758 = CARTESIAN_POINT('',(2.478561326493,-24.54786947506));
#759 = CARTESIAN_POINT('',(2.537746846152,-24.50568619567));
#760 = CARTESIAN_POINT('',(2.595864965658,-24.46641514378));
#761 = CARTESIAN_POINT('',(2.653097008125,-24.43068431483));
#762 = CARTESIAN_POINT('',(2.783582571738,-24.35748467891));
#763 = CARTESIAN_POINT('',(2.856331907367,-24.32287895098));
#764 = CARTESIAN_POINT('',(2.928212097756,-24.29626707602));
#765 = CARTESIAN_POINT('',(2.999520049995,-24.27830673128));
#766 = CARTESIAN_POINT('',(3.070547798606,-24.26932219902));
#767 = CARTESIAN_POINT('',(3.193583888179,-24.26932219902));
#768 = CARTESIAN_POINT('',(3.245571517181,-24.27413400287));
#769 = CARTESIAN_POINT('',(3.297668965832,-24.28375521466));
#770 = CARTESIAN_POINT('',(3.349987542185,-24.29809356915));
#771 = CARTESIAN_POINT('',(3.402641302889,-24.31695688493));
#772 = CARTESIAN_POINT('',(3.500481047655,-24.35948588385));
#773 = CARTESIAN_POINT('',(3.545531845326,-24.38192280079));
#774 = CARTESIAN_POINT('',(3.590987248982,-24.40717600177));
#775 = CARTESIAN_POINT('',(3.636931113664,-24.43501516413));
#776 = CARTESIAN_POINT('',(3.683451052393,-24.46514241748));
#777 = CARTESIAN_POINT('',(3.762492391692,-24.51879938138));
#778 = CARTESIAN_POINT('',(3.794650065735,-24.54129123292));
#779 = CARTESIAN_POINT('',(3.827146613355,-24.5645382364));
#780 = CARTESIAN_POINT('',(3.860013350454,-24.58840687389));
#781 = CARTESIAN_POINT('',(3.893282786453,-24.61274298793));
#782 = CARTESIAN_POINT('',(3.966739172638,-24.66641003729));
#783 = CARTESIAN_POINT('',(4.007107322393,-24.69586174841));
#784 = CARTESIAN_POINT('',(4.048140542543,-24.72542607933));
#785 = CARTESIAN_POINT('',(4.089882963104,-24.75475312074));
#786 = CARTESIAN_POINT('',(4.132383241358,-24.78344573796));
#787 = CARTESIAN_POINT('',(4.225394875796,-24.84274686004));
#788 = CARTESIAN_POINT('',(4.276257685159,-24.87307503964));
#789 = CARTESIAN_POINT('',(4.328192807175,-24.90125010737));
#790 = CARTESIAN_POINT('',(4.381131735144,-24.92644718773));
#791 = CARTESIAN_POINT('',(4.435029273739,-24.94788656419));
#792 = CARTESIAN_POINT('',(4.551912589231,-24.98416758026));
#793 = CARTESIAN_POINT('',(4.615114345067,-24.99775368887));
#794 = CARTESIAN_POINT('',(4.678930355767,-25.00456706141));
#795 = CARTESIAN_POINT('',(4.742903002401,-25.00404103753));
#796 = CARTESIAN_POINT('',(4.806584171939,-24.99637530366));
#797 = CARTESIAN_POINT('',(4.93603732956,-24.96755266021));
#798 = CARTESIAN_POINT('',(5.001435676969,-24.94569351662));
#799 = CARTESIAN_POINT('',(5.065583464622,-24.91774844009));
#800 = CARTESIAN_POINT('',(5.128362038194,-24.88501935204));
#801 = CARTESIAN_POINT('',(5.189605669368,-24.84898061477));
#802 = CARTESIAN_POINT('',(5.292394719411,-24.78344573796));
#803 = CARTESIAN_POINT('',(5.334894997665,-24.75475312074));
#804 = CARTESIAN_POINT('',(5.376637418226,-24.72542607933));
#805 = CARTESIAN_POINT('',(5.417670638377,-24.69586174841));
#806 = CARTESIAN_POINT('',(5.458038788132,-24.66641003729));
#807 = CARTESIAN_POINT('',(5.531495174359,-24.6127429879));
#808 = CARTESIAN_POINT('',(5.564764610282,-24.58840687392));
#809 = CARTESIAN_POINT('',(5.597631347363,-24.56453823643));
#810 = CARTESIAN_POINT('',(5.63012789504,-24.54129123292));
#811 = CARTESIAN_POINT('',(5.662285569138,-24.51879938134));
#812 = CARTESIAN_POINT('',(5.797331788801,-24.42712368103));
#813 = CARTESIAN_POINT('',(5.897378016849,-24.36615392176));
#814 = CARTESIAN_POINT('',(5.995229708571,-24.31828557179));
#815 = CARTESIAN_POINT('',(6.091652580108,-24.28566126525));
#816 = CARTESIAN_POINT('',(6.187378282013,-24.26932219902));
#817 = CARTESIAN_POINT('',(6.28318530718,-24.26932219902));
#818 = ( GEOMETRIC_REPRESENTATION_CONTEXT(2) 
PARAMETRIC_REPRESENTATION_CONTEXT() REPRESENTATION_CONTEXT('2D SPACE',''
  ) );
#819 = ADVANCED_FACE('',(#820),#43,.F.);
#820 = FACE_BOUND('',#821,.F.);
#821 = EDGE_LOOP('',(#822));
#822 = ORIENTED_EDGE('',*,*,#21,.T.);
#823 = ADVANCED_FACE('',(#824),#142,.F.);
#824 = FACE_BOUND('',#825,.T.);
#825 = EDGE_LOOP('',(#826,#849,#870,#871,#872,#873));
#826 = ORIENTED_EDGE('',*,*,#827,.F.);
#827 = EDGE_CURVE('',#828,#828,#830,.T.);
#828 = VERTEX_POINT('',#829);
#829 = CARTESIAN_POINT('',(0.,6.,25.));
#830 = SURFACE_CURVE('',#831,(#836,#843),.PCURVE_S1.);
#831 = CIRCLE('',#832,6.);
#832 = AXIS2_PLACEMENT_3D('',#833,#834,#835);
#833 = CARTESIAN_POINT('',(0.,0.,25.));
#834 = DIRECTION('',(1.,0.,0.));
#835 = DIRECTION('',(0.,1.,0.));
#836 = PCURVE('',#142,#837);
#837 = DEFINITIONAL_REPRESENTATION('',(#838),#842);
#838 = LINE('',#839,#840);
#839 = CARTESIAN_POINT('',(-0.,0.));
#840 = VECTOR('',#841,1.);
#841 = DIRECTION('',(-1.,0.));
#842 = ( GEOMETRIC_REPRESENTATION_CONTEXT(2) 
PARAMETRIC_REPRESENTATION_CONTEXT() REPRESENTATION_CONTEXT('2D SPACE',''
  ) );
#843 = PCURVE('',#714,#844);
#844 = DEFINITIONAL_REPRESENTATION('',(#845),#848);
#845 = B_SPLINE_CURVE_WITH_KNOTS('',1,(#846,#847),.UNSPECIFIED.,.F.,.F.,
  (2,2),(0.,6.28318530718),.PIECEWISE_BEZIER_KNOTS.);
#846 = CARTESIAN_POINT('',(0.,0.));
#847 = CARTESIAN_POINT('',(6.28318530718,0.));
#848 = ( GEOMETRIC_REPRESENTATION_CONTEXT(2) 
PARAMETRIC_REPRESENTATION_CONTEXT() REPRESENTATION_CONTEXT('2D SPACE',''
  ) );
#849 = ORIENTED_EDGE('',*,*,#850,.T.);
#850 = EDGE_CURVE('',#828,#79,#851,.T.);
#851 = SEAM_CURVE('',#852,(#856,#863),.PCURVE_S1.);
#852 = LINE('',#853,#854);
#853 = CARTESIAN_POINT('',(0.,6.,25.));
#854 = VECTOR('',#855,1.);
#855 = DIRECTION('',(1.,0.,0.));
#856 = PCURVE('',#142,#857);
#857 = DEFINITIONAL_REPRESENTATION('',(#858),#862);
#858 = LINE('',#859,#860);
#859 = CARTESIAN_POINT('',(-6.28318530718,0.));
#860 = VECTOR('',#861,1.);
#861 = DIRECTION('',(-0.,-1.));
#862 = ( GEOMETRIC_REPRESENTATION_CONTEXT(2) 
PARAMETRIC_REPRESENTATION_CONTEXT() REPRESENTATION_CONTEXT('2D SPACE',''
  ) );
#863 = PCURVE('',#142,#864);
#864 = DEFINITIONAL_REPRESENTATION('',(#865),#869);
#865 = LINE('',#866,#867);
#866 = CARTESIAN_POINT('',(-0.,0.));
#867 = VECTOR('',#868,1.);
#868 = DIRECTION('',(-0.,-1.));
#869 = ( GEOMETRIC_REPRESENTATION_CONTEXT(2) 
PARAMETRIC_REPRESENTATION_CONTEXT() REPRESENTATION_CONTEXT('2D SPACE',''
  ) );
#870 = ORIENTED_EDGE('',*,*,#178,.T.);
#871 = ORIENTED_EDGE('',*,*,#324,.T.);
#872 = ORIENTED_EDGE('',*,*,#78,.T.);
#873 = ORIENTED_EDGE('',*,*,#850,.F.);
#874 = ADVANCED_FACE('',(#875),#311,.T.);
#875 = FACE_BOUND('',#876,.T.);
#876 = EDGE_LOOP('',(#877));
#877 = ORIENTED_EDGE('',*,*,#296,.T.);
#878 = ADVANCED_FACE('',(#879),#714,.F.);
#879 = FACE_BOUND('',#880,.F.);
#880 = EDGE_LOOP('',(#881,#882,#903,#904));
#881 = ORIENTED_EDGE('',*,*,#827,.F.);
#882 = ORIENTED_EDGE('',*,*,#883,.T.);
#883 = EDGE_CURVE('',#828,#511,#884,.T.);
#884 = SEAM_CURVE('',#885,(#889,#896),.PCURVE_S1.);
#885 = LINE('',#886,#887);
#886 = CARTESIAN_POINT('',(0.,6.,25.));
#887 = VECTOR('',#888,1.);
#888 = DIRECTION('',(-1.,-0.,-0.));
#889 = PCURVE('',#714,#890);
#890 = DEFINITIONAL_REPRESENTATION('',(#891),#895);
#891 = LINE('',#892,#893);
#892 = CARTESIAN_POINT('',(6.28318530718,0.));
#893 = VECTOR('',#894,1.);
#894 = DIRECTION('',(0.,-1.));
#895 = ( GEOMETRIC_REPRESENTATION_CONTEXT(2) 
PARAMETRIC_REPRESENTATION_CONTEXT() REPRESENTATION_CONTEXT('2D SPACE',''
  ) );
#896 = PCURVE('',#714,#897);
#897 = DEFINITIONAL_REPRESENTATION('',(#898),#902);
#898 = LINE('',#899,#900);
#899 = CARTESIAN_POINT('',(0.,0.));
#900 = VECTOR('',#901,1.);
#901 = DIRECTION('',(0.,-1.));
#902 = ( GEOMETRIC_REPRESENTATION_CONTEXT(2) 
PARAMETRIC_REPRESENTATION_CONTEXT() REPRESENTATION_CONTEXT('2D SPACE',''
  ) );
#903 = ORIENTED_EDGE('',*,*,#510,.T.);
#904 = ORIENTED_EDGE('',*,*,#883,.F.);
#905 = ( GEOMETRIC_REPRESENTATION_CONTEXT(3) 
GLOBAL_UNCERTAINTY_ASSIGNED_CONTEXT((#909)) GLOBAL_UNIT_ASSIGNED_CONTEXT
((#906,#907,#908)) REPRESENTATION_CONTEXT('Context #1',
  '3D Context with UNIT and UNCERTAINTY') );
#906 = ( LENGTH_UNIT() NAMED_UNIT(*) SI_UNIT(.MILLI.,.METRE.) );
#907 = ( NAMED_UNIT(*) PLANE_ANGLE_UNIT() SI_UNIT($,.RADIAN.) );
#908 = ( NAMED_UNIT(*) SI_UNIT($,.STERADIAN.) SOLID_ANGLE_UNIT() );
#909 = UNCERTAINTY_MEASURE_WITH_UNIT(LENGTH_MEASURE(2.E-07),#906,
  'distance_accuracy_value','confusion accuracy');
#910 = PRODUCT_RELATED_PRODUCT_CATEGORY('part',$,(#7));
ENDSEC;
END-ISO-10303-21;
