ISO-10303-21;
HEADER;
FILE_DESCRIPTION(('Open CASCADE Model'),'2;1');
FILE_NAME('Open CASCADE Shape Model','2026-08-07T02:34:16',('Author'),(
    'Open CASCADE'),'Open CASCADE STEP processor 7.7','Open CASCADE 7.7'
  ,'Unknown');
FILE_SCHEMA(('AUTOMOTIVE_DESIGN { 1 0 10303 214 1 1 1 1 }'));
ENDSEC;
DATA;
#1 = APPLICATION_PROTOCOL_DEFINITION('international standard',
  'automotive_design',2000,#2);
#2 = APPLICATION_CONTEXT(
  'core data for automotive mechanical design processes');
#3 = SHAPE_DEFINITION_REPRESENTATION(#4,#10);
#4 = PRODUCT_DEFINITION_SHAPE('','',#5);
#5 = PRODUCT_DEFINITION('design','',#6,#9);
#6 = PRODUCT_DEFINITION_FORMATION('','',#7);
#7 = PRODUCT('Open CASCADE STEP translator 7.7 8',
  'Open CASCADE STEP translator 7.7 8','',(#8));
#8 = PRODUCT_CONTEXT('',#2,'mechanical');
#9 = PRODUCT_DEFINITION_CONTEXT('part definition',#2,'design');
#10 = ADVANCED_BREP_SHAPE_REPRESENTATION('',(#11,#15),#765);
#11 = AXIS2_PLACEMENT_3D('',#12,#13,#14);
#12 = CARTESIAN_POINT('',(0.,0.,0.));
#13 = DIRECTION('',(0.,0.,1.));
#14 = DIRECTION('',(1.,0.,-0.));
#15 = MANIFOLD_SOLID_BREP('',#16);
#16 = CLOSED_SHELL('',(#17,#305,#453,#529,#578,#627,#654,#754));
#17 = ADVANCED_FACE('',(#18,#191),#64,.T.);
#18 = FACE_BOUND('',#19,.T.);
#19 = EDGE_LOOP('',(#20));
#20 = ORIENTED_EDGE('',*,*,#21,.F.);
#21 = EDGE_CURVE('',#22,#22,#24,.T.);
#22 = VERTEX_POINT('',#23);
#23 = CARTESIAN_POINT('',(16.659133054899,5.971404023956,30.));
#24 = SURFACE_CURVE('',#25,(#63,#109),.PCURVE_S1.);
#25 = B_SPLINE_CURVE_WITH_KNOTS('',8,(#26,#27,#28,#29,#30,#31,#32,#33,
    #34,#35,#36,#37,#38,#39,#40,#41,#42,#43,#44,#45,#46,#47,#48,#49,#50,
    #51,#52,#53,#54,#55,#56,#57,#58,#59,#60,#61,#62),.UNSPECIFIED.,.T.,
  .F.,(9,7,7,7,7,9),(0.544840077812,8.880960061749,17.217080045686,
    25.553200029623,33.889320013559,34.434160091372),.UNSPECIFIED.);
#26 = CARTESIAN_POINT('',(16.659133054899,5.971404023956,30.));
#27 = CARTESIAN_POINT('',(15.395555044927,5.861872885114,30.));
#28 = CARTESIAN_POINT('',(14.146854487574,5.512204156734,29.999999999999
    ));
#29 = CARTESIAN_POINT('',(12.980687480765,4.919934006065,30.000000000001
    ));
#30 = CARTESIAN_POINT('',(11.972582342293,4.102219110804,29.999999999999
    ));
#31 = CARTESIAN_POINT('',(11.175947617101,3.092894867242,30.000000000001
    ));
#32 = CARTESIAN_POINT('',(10.663219080056,1.935949009523,30.));
#33 = CARTESIAN_POINT('',(10.46383666386,0.724852836347,30.));
#34 = CARTESIAN_POINT('',(10.670309145794,-1.64919902548,30.));
#35 = CARTESIAN_POINT('',(11.076131322265,-2.811940559347,30.));
#36 = CARTESIAN_POINT('',(11.775915513881,-3.870868998515,30.));
#37 = CARTESIAN_POINT('',(12.717942183806,-4.750708227794,30.));
#38 = CARTESIAN_POINT('',(13.838631798014,-5.423812733284,30.));
#39 = CARTESIAN_POINT('',(15.080461477384,-5.859749472423,30.));
#40 = CARTESIAN_POINT('',(16.374492313349,-6.048756815869,30.));
#41 = CARTESIAN_POINT('',(18.936958817885,-5.936577080855,30.));
#42 = CARTESIAN_POINT('',(20.205142189659,-5.635451302494,
    29.999999999999));
#43 = CARTESIAN_POINT('',(21.395623686551,-5.091520343289,
    30.000000000002));
#44 = CARTESIAN_POINT('',(22.438988988155,-4.320546672878,
    29.999999999998));
#45 = CARTESIAN_POINT('',(23.283224629422,-3.354575243352,
    30.000000000001));
#46 = CARTESIAN_POINT('',(23.859132924729,-2.228881235611,
    29.999999999999));
#47 = CARTESIAN_POINT('',(24.127397036599,-1.030780455911,30.));
#48 = CARTESIAN_POINT('',(24.055812581954,1.351052301785,30.));
#49 = CARTESIAN_POINT('',(23.715977126241,2.534577193663,30.));
#50 = CARTESIAN_POINT('',(23.073265573613,3.630738928568,30.000000000001
    ));
#51 = CARTESIAN_POINT('',(22.172737842169,4.556130099673,29.999999999999
    ));
#52 = CARTESIAN_POINT('',(21.082073343626,5.27748380068,30.));
#53 = CARTESIAN_POINT('',(19.860815317074,5.761754224131,30.));
#54 = CARTESIAN_POINT('',(18.58466194619,6.,30.));
#55 = CARTESIAN_POINT('',(17.237884301739,6.,30.));
#56 = CARTESIAN_POINT('',(17.155208542478,5.998981528453,30.));
#57 = CARTESIAN_POINT('',(17.072499918612,5.996943178704,30.));
#58 = CARTESIAN_POINT('',(16.989777550846,5.993883544095,30.));
#59 = CARTESIAN_POINT('',(16.907060559887,5.989801217972,30.));
#60 = CARTESIAN_POINT('',(16.824368066438,5.984694793679,30.));
#61 = CARTESIAN_POINT('',(16.741719191207,5.978562864558,30.));
#62 = CARTESIAN_POINT('',(16.659133054899,5.971404023956,30.));
#63 = PCURVE('',#64,#69);
#64 = PLANE('',#65);
#65 = AXIS2_PLACEMENT_3D('',#66,#67,#68);
#66 = CARTESIAN_POINT('',(-40.,-20.,30.));
#67 = DIRECTION('',(0.,0.,1.));
#68 = DIRECTION('',(1.,0.,0.));
#69 = DEFINITIONAL_REPRESENTATION('',(#70),#108);
#70 = B_SPLINE_CURVE_WITH_KNOTS('',8,(#71,#72,#73,#74,#75,#76,#77,#78,
    #79,#80,#81,#82,#83,#84,#85,#86,#87,#88,#89,#90,#91,#92,#93,#94,#95,
    #96,#97,#98,#99,#100,#101,#102,#103,#104,#105,#106,#107),
  .UNSPECIFIED.,.F.,.F.,(9,7,7,7,7,9),(0.544840077812,8.880960061749,
    17.217080045686,25.553200029623,33.889320013559,34.434160091372),
  .UNSPECIFIED.);
#71 = CARTESIAN_POINT('',(56.659133054899,25.971404023956));
#72 = CARTESIAN_POINT('',(55.395555044927,25.861872885114));
#73 = CARTESIAN_POINT('',(54.146854487572,25.512204156734));
#74 = CARTESIAN_POINT('',(52.980687480768,24.919934006066));
#75 = CARTESIAN_POINT('',(51.97258234229,24.102219110803));
#76 = CARTESIAN_POINT('',(51.175947617103,23.092894867242));
#77 = CARTESIAN_POINT('',(50.663219080054,21.935949009523));
#78 = CARTESIAN_POINT('',(50.463836663861,20.724852836347));
#79 = CARTESIAN_POINT('',(50.670309145794,18.35080097452));
#80 = CARTESIAN_POINT('',(51.076131322265,17.188059440653));
#81 = CARTESIAN_POINT('',(51.775915513881,16.129131001485));
#82 = CARTESIAN_POINT('',(52.717942183806,15.249291772207));
#83 = CARTESIAN_POINT('',(53.838631798014,14.576187266716));
#84 = CARTESIAN_POINT('',(55.080461477384,14.140250527577));
#85 = CARTESIAN_POINT('',(56.374492313349,13.951243184131));
#86 = CARTESIAN_POINT('',(58.936958817885,14.063422919145));
#87 = CARTESIAN_POINT('',(60.205142189657,14.364548697505));
#88 = CARTESIAN_POINT('',(61.395623686553,14.908479656712));
#89 = CARTESIAN_POINT('',(62.438988988153,15.679453327121));
#90 = CARTESIAN_POINT('',(63.283224629424,16.645424756649));
#91 = CARTESIAN_POINT('',(63.859132924728,17.771118764389));
#92 = CARTESIAN_POINT('',(64.127397036599,18.969219544089));
#93 = CARTESIAN_POINT('',(64.055812581954,21.351052301785));
#94 = CARTESIAN_POINT('',(63.715977126241,22.534577193664));
#95 = CARTESIAN_POINT('',(63.073265573614,23.630738928568));
#96 = CARTESIAN_POINT('',(62.172737842169,24.556130099673));
#97 = CARTESIAN_POINT('',(61.082073343626,25.27748380068));
#98 = CARTESIAN_POINT('',(59.860815317074,25.761754224132));
#99 = CARTESIAN_POINT('',(58.58466194619,26.));
#100 = CARTESIAN_POINT('',(57.237884301739,26.));
#101 = CARTESIAN_POINT('',(57.155208542478,25.998981528453));
#102 = CARTESIAN_POINT('',(57.072499918613,25.996943178704));
#103 = CARTESIAN_POINT('',(56.989777550846,25.993883544095));
#104 = CARTESIAN_POINT('',(56.907060559887,25.989801217973));
#105 = CARTESIAN_POINT('',(56.824368066438,25.984694793678));
#106 = CARTESIAN_POINT('',(56.741719191207,25.978562864558));
#107 = CARTESIAN_POINT('',(56.659133054899,25.971404023956));
#108 = ( GEOMETRIC_REPRESENTATION_CONTEXT(2) 
PARAMETRIC_REPRESENTATION_CONTEXT() REPRESENTATION_CONTEXT('2D SPACE',''
  ) );
#109 = PCURVE('',#110,#185);
#110 = B_SPLINE_SURFACE_WITH_KNOTS('',1,8,(
    (#111,#112,#113,#114,#115,#116,#117,#118,#119,#120,#121,#122,#123
      ,#124,#125,#126,#127,#128,#129,#130,#131,#132,#133,#134,#135,#136
      ,#137,#138,#139,#140,#141,#142,#143,#144,#145,#146,#147)
    ,(#148,#149,#150,#151,#152,#153,#154,#155,#156,#157,#158,#159,#160
      ,#161,#162,#163,#164,#165,#166,#167,#168,#169,#170,#171,#172,#173
      ,#174,#175,#176,#177,#178,#179,#180,#181,#182,#183,#184
  )),.UNSPECIFIED.,.F.,.T.,.F.,(2,2),(9,7,7,7,7,9),(0.,33.889320013559),
  (0.544840077812,8.880960061749,17.217080045686,25.553200029623,
    33.889320013559,34.434160091372),.UNSPECIFIED.);
#111 = CARTESIAN_POINT('',(16.659133054899,5.971404023956,30.));
#112 = CARTESIAN_POINT('',(15.395555044927,5.861872885114,30.));
#113 = CARTESIAN_POINT('',(14.146854487574,5.512204156734,
    29.999999999999));
#114 = CARTESIAN_POINT('',(12.980687480765,4.919934006065,
    30.000000000001));
#115 = CARTESIAN_POINT('',(11.972582342293,4.102219110804,
    29.999999999999));
#116 = CARTESIAN_POINT('',(11.175947617101,3.092894867242,
    30.000000000001));
#117 = CARTESIAN_POINT('',(10.663219080056,1.935949009523,30.));
#118 = CARTESIAN_POINT('',(10.46383666386,0.724852836347,30.));
#119 = CARTESIAN_POINT('',(10.670309145794,-1.64919902548,30.));
#120 = CARTESIAN_POINT('',(11.076131322265,-2.811940559347,30.));
#121 = CARTESIAN_POINT('',(11.775915513881,-3.870868998515,30.));
#122 = CARTESIAN_POINT('',(12.717942183806,-4.750708227794,30.));
#123 = CARTESIAN_POINT('',(13.838631798014,-5.423812733284,30.));
#124 = CARTESIAN_POINT('',(15.080461477384,-5.859749472423,30.));
#125 = CARTESIAN_POINT('',(16.374492313349,-6.048756815869,30.));
#126 = CARTESIAN_POINT('',(18.936958817885,-5.936577080855,30.));
#127 = CARTESIAN_POINT('',(20.205142189659,-5.635451302494,
    29.999999999999));
#128 = CARTESIAN_POINT('',(21.395623686551,-5.091520343289,
    30.000000000002));
#129 = CARTESIAN_POINT('',(22.438988988155,-4.320546672878,
    29.999999999998));
#130 = CARTESIAN_POINT('',(23.283224629422,-3.354575243352,
    30.000000000001));
#131 = CARTESIAN_POINT('',(23.859132924729,-2.228881235611,
    29.999999999999));
#132 = CARTESIAN_POINT('',(24.127397036599,-1.030780455911,30.));
#133 = CARTESIAN_POINT('',(24.055812581954,1.351052301785,30.));
#134 = CARTESIAN_POINT('',(23.715977126241,2.534577193663,30.));
#135 = CARTESIAN_POINT('',(23.073265573613,3.630738928568,
    30.000000000001));
#136 = CARTESIAN_POINT('',(22.172737842169,4.556130099673,
    29.999999999999));
#137 = CARTESIAN_POINT('',(21.082073343626,5.27748380068,30.));
#138 = CARTESIAN_POINT('',(19.860815317074,5.761754224131,30.));
#139 = CARTESIAN_POINT('',(18.58466194619,6.,30.));
#140 = CARTESIAN_POINT('',(17.237884301739,6.,30.));
#141 = CARTESIAN_POINT('',(17.155208542478,5.998981528453,30.));
#142 = CARTESIAN_POINT('',(17.072499918612,5.996943178704,30.));
#143 = CARTESIAN_POINT('',(16.989777550846,5.993883544095,30.));
#144 = CARTESIAN_POINT('',(16.907060559887,5.989801217972,30.));
#145 = CARTESIAN_POINT('',(16.824368066438,5.984694793679,30.));
#146 = CARTESIAN_POINT('',(16.741719191207,5.978562864558,30.));
#147 = CARTESIAN_POINT('',(16.659133054899,5.971404023956,30.));
#148 = CARTESIAN_POINT('',(16.743337582186,5.,29.000311380624));
#149 = CARTESIAN_POINT('',(15.632699505674,5.,29.002705494421));
#150 = CARTESIAN_POINT('',(14.501096004607,4.788100874031,
    29.015601140798));
#151 = CARTESIAN_POINT('',(13.412788156874,4.34554123955,29.039423790924
    ));
#152 = CARTESIAN_POINT('',(12.448703836457,3.674957775364,
    29.070383073207));
#153 = CARTESIAN_POINT('',(11.66783823737,2.799135638276,29.104700813115
    ));
#154 = CARTESIAN_POINT('',(11.161138150786,1.757445062248,
    29.128861783262));
#155 = CARTESIAN_POINT('',(10.965146022477,0.656163117326,
    29.137725476415));
#156 = CARTESIAN_POINT('',(11.168377162594,-1.493592954543,
    29.128408972913));
#157 = CARTESIAN_POINT('',(11.567553278444,-2.541772747613,
    29.110239577687));
#158 = CARTESIAN_POINT('',(12.253894610024,-3.475563513267,
    29.07988445249));
#159 = CARTESIAN_POINT('',(13.163361502035,-4.212637339357,
    29.046386683097));
#160 = CARTESIAN_POINT('',(14.218932167353,-4.735757470836,
    29.019374427569));
#161 = CARTESIAN_POINT('',(15.358189848134,-5.025182880562,
    29.002007964813));
#162 = CARTESIAN_POINT('',(16.508415857445,-5.087769335545,
    28.996433535629));
#163 = CARTESIAN_POINT('',(18.711169590482,-4.79912194712,
    29.006090733586));
#164 = CARTESIAN_POINT('',(19.763682060329,-4.447911014394,
    29.021352373461));
#165 = CARTESIAN_POINT('',(20.705526176474,-3.910446694895,
    29.045815159836));
#166 = CARTESIAN_POINT('',(21.487641833971,-3.222328143969,
    29.075678981214));
#167 = CARTESIAN_POINT('',(22.064717890605,-2.432348859658,
    29.104787916848));
#168 = CARTESIAN_POINT('',(22.439528963302,-1.598960394633,
    29.125525745244));
#169 = CARTESIAN_POINT('',(22.615928163261,-0.740882941471,
    29.135173808418));
#170 = CARTESIAN_POINT('',(22.568934770331,0.971041402354,
    29.132602519028));
#171 = CARTESIAN_POINT('',(22.34553259611,1.825114044995,29.120385086073
    ));
#172 = CARTESIAN_POINT('',(21.922514577814,2.650797307706,
    29.097583039553));
#173 = CARTESIAN_POINT('',(21.294078753387,3.424709753593,
    29.067459747385));
#174 = CARTESIAN_POINT('',(20.464397652373,4.083596846311,
    29.038088474858));
#175 = CARTESIAN_POINT('',(19.485531552998,4.579138998112,29.01542306443
    ));
#176 = CARTESIAN_POINT('',(18.415642311702,4.879783739556,
    29.002698182762));
#177 = CARTESIAN_POINT('',(17.248931248158,4.981173108279,
    29.000157881051));
#178 = CARTESIAN_POINT('',(17.177155809861,4.98652250376,29.000046131092
    ));
#179 = CARTESIAN_POINT('',(17.105199711302,4.990995191547,
    28.999978650693));
#180 = CARTESIAN_POINT('',(17.033080902981,4.994585228353,
    28.999955613809));
#181 = CARTESIAN_POINT('',(16.960817335408,4.997286670889,
    28.999977194403));
#182 = CARTESIAN_POINT('',(16.88842695908,4.999093575867,29.000043566431
    ));
#183 = CARTESIAN_POINT('',(16.815927724506,5.,29.000154903851));
#184 = CARTESIAN_POINT('',(16.743337582186,5.,29.000311380624));
#185 = DEFINITIONAL_REPRESENTATION('',(#186),#190);
#186 = LINE('',#187,#188);
#187 = CARTESIAN_POINT('',(0.,0.));
#188 = VECTOR('',#189,1.);
#189 = DIRECTION('',(0.,1.));
#190 = ( GEOMETRIC_REPRESENTATION_CONTEXT(2) 
PARAMETRIC_REPRESENTATION_CONTEXT() REPRESENTATION_CONTEXT('2D SPACE',''
  ) );
#191 = FACE_BOUND('',#192,.T.);
#192 = EDGE_LOOP('',(#193,#223,#251,#279));
#193 = ORIENTED_EDGE('',*,*,#194,.F.);
#194 = EDGE_CURVE('',#195,#197,#199,.T.);
#195 = VERTEX_POINT('',#196);
#196 = CARTESIAN_POINT('',(-40.,-20.,30.));
#197 = VERTEX_POINT('',#198);
#198 = CARTESIAN_POINT('',(-40.,20.,30.));
#199 = SURFACE_CURVE('',#200,(#204,#211),.PCURVE_S1.);
#200 = LINE('',#201,#202);
#201 = CARTESIAN_POINT('',(-40.,-20.,30.));
#202 = VECTOR('',#203,1.);
#203 = DIRECTION('',(0.,1.,0.));
#204 = PCURVE('',#64,#205);
#205 = DEFINITIONAL_REPRESENTATION('',(#206),#210);
#206 = LINE('',#207,#208);
#207 = CARTESIAN_POINT('',(0.,0.));
#208 = VECTOR('',#209,1.);
#209 = DIRECTION('',(0.,1.));
#210 = ( GEOMETRIC_REPRESENTATION_CONTEXT(2) 
PARAMETRIC_REPRESENTATION_CONTEXT() REPRESENTATION_CONTEXT('2D SPACE',''
  ) );
#211 = PCURVE('',#212,#217);
#212 = PLANE('',#213);
#213 = AXIS2_PLACEMENT_3D('',#214,#215,#216);
#214 = CARTESIAN_POINT('',(-40.,-20.,0.));
#215 = DIRECTION('',(1.,0.,0.));
#216 = DIRECTION('',(0.,0.,1.));
#217 = DEFINITIONAL_REPRESENTATION('',(#218),#222);
#218 = LINE('',#219,#220);
#219 = CARTESIAN_POINT('',(30.,0.));
#220 = VECTOR('',#221,1.);
#221 = DIRECTION('',(0.,-1.));
#222 = ( GEOMETRIC_REPRESENTATION_CONTEXT(2) 
PARAMETRIC_REPRESENTATION_CONTEXT() REPRESENTATION_CONTEXT('2D SPACE',''
  ) );
#223 = ORIENTED_EDGE('',*,*,#224,.T.);
#224 = EDGE_CURVE('',#195,#225,#227,.T.);
#225 = VERTEX_POINT('',#226);
#226 = CARTESIAN_POINT('',(40.,-20.,30.));
#227 = SURFACE_CURVE('',#228,(#232,#239),.PCURVE_S1.);
#228 = LINE('',#229,#230);
#229 = CARTESIAN_POINT('',(-40.,-20.,30.));
#230 = VECTOR('',#231,1.);
#231 = DIRECTION('',(1.,0.,0.));
#232 = PCURVE('',#64,#233);
#233 = DEFINITIONAL_REPRESENTATION('',(#234),#238);
#234 = LINE('',#235,#236);
#235 = CARTESIAN_POINT('',(0.,0.));
#236 = VECTOR('',#237,1.);
#237 = DIRECTION('',(1.,0.));
#238 = ( GEOMETRIC_REPRESENTATION_CONTEXT(2) 
PARAMETRIC_REPRESENTATION_CONTEXT() REPRESENTATION_CONTEXT('2D SPACE',''
  ) );
#239 = PCURVE('',#240,#245);
#240 = PLANE('',#241);
#241 = AXIS2_PLACEMENT_3D('',#242,#243,#244);
#242 = CARTESIAN_POINT('',(-40.,-20.,0.));
#243 = DIRECTION('',(0.,1.,0.));
#244 = DIRECTION('',(0.,0.,1.));
#245 = DEFINITIONAL_REPRESENTATION('',(#246),#250);
#246 = LINE('',#247,#248);
#247 = CARTESIAN_POINT('',(30.,0.));
#248 = VECTOR('',#249,1.);
#249 = DIRECTION('',(0.,1.));
#250 = ( GEOMETRIC_REPRESENTATION_CONTEXT(2) 
PARAMETRIC_REPRESENTATION_CONTEXT() REPRESENTATION_CONTEXT('2D SPACE',''
  ) );
#251 = ORIENTED_EDGE('',*,*,#252,.T.);
#252 = EDGE_CURVE('',#225,#253,#255,.T.);
#253 = VERTEX_POINT('',#254);
#254 = CARTESIAN_POINT('',(40.,20.,30.));
#255 = SURFACE_CURVE('',#256,(#260,#267),.PCURVE_S1.);
#256 = LINE('',#257,#258);
#257 = CARTESIAN_POINT('',(40.,-20.,30.));
#258 = VECTOR('',#259,1.);
#259 = DIRECTION('',(0.,1.,0.));
#260 = PCURVE('',#64,#261);
#261 = DEFINITIONAL_REPRESENTATION('',(#262),#266);
#262 = LINE('',#263,#264);
#263 = CARTESIAN_POINT('',(80.,0.));
#264 = VECTOR('',#265,1.);
#265 = DIRECTION('',(0.,1.));
#266 = ( GEOMETRIC_REPRESENTATION_CONTEXT(2) 
PARAMETRIC_REPRESENTATION_CONTEXT() REPRESENTATION_CONTEXT('2D SPACE',''
  ) );
#267 = PCURVE('',#268,#273);
#268 = PLANE('',#269);
#269 = AXIS2_PLACEMENT_3D('',#270,#271,#272);
#270 = CARTESIAN_POINT('',(40.,-20.,0.));
#271 = DIRECTION('',(1.,0.,0.));
#272 = DIRECTION('',(0.,0.,1.));
#273 = DEFINITIONAL_REPRESENTATION('',(#274),#278);
#274 = LINE('',#275,#276);
#275 = CARTESIAN_POINT('',(30.,0.));
#276 = VECTOR('',#277,1.);
#277 = DIRECTION('',(0.,-1.));
#278 = ( GEOMETRIC_REPRESENTATION_CONTEXT(2) 
PARAMETRIC_REPRESENTATION_CONTEXT() REPRESENTATION_CONTEXT('2D SPACE',''
  ) );
#279 = ORIENTED_EDGE('',*,*,#280,.F.);
#280 = EDGE_CURVE('',#197,#253,#281,.T.);
#281 = SURFACE_CURVE('',#282,(#286,#293),.PCURVE_S1.);
#282 = LINE('',#283,#284);
#283 = CARTESIAN_POINT('',(-40.,20.,30.));
#284 = VECTOR('',#285,1.);
#285 = DIRECTION('',(1.,0.,0.));
#286 = PCURVE('',#64,#287);
#287 = DEFINITIONAL_REPRESENTATION('',(#288),#292);
#288 = LINE('',#289,#290);
#289 = CARTESIAN_POINT('',(0.,40.));
#290 = VECTOR('',#291,1.);
#291 = DIRECTION('',(1.,0.));
#292 = ( GEOMETRIC_REPRESENTATION_CONTEXT(2) 
PARAMETRIC_REPRESENTATION_CONTEXT() REPRESENTATION_CONTEXT('2D SPACE',''
  ) );
#293 = PCURVE('',#294,#299);
#294 = PLANE('',#295);
#295 = AXIS2_PLACEMENT_3D('',#296,#297,#298);
#296 = CARTESIAN_POINT('',(-40.,20.,0.));
#297 = DIRECTION('',(0.,1.,0.));
#298 = DIRECTION('',(0.,0.,1.));
#299 = DEFINITIONAL_REPRESENTATION('',(#300),#304);
#300 = LINE('',#301,#302);
#301 = CARTESIAN_POINT('',(30.,0.));
#302 = VECTOR('',#303,1.);
#303 = DIRECTION('',(0.,1.));
#304 = ( GEOMETRIC_REPRESENTATION_CONTEXT(2) 
PARAMETRIC_REPRESENTATION_CONTEXT() REPRESENTATION_CONTEXT('2D SPACE',''
  ) );
#305 = ADVANCED_FACE('',(#306),#110,.F.);
#306 = FACE_BOUND('',#307,.F.);
#307 = EDGE_LOOP('',(#308,#328,#451,#452));
#308 = ORIENTED_EDGE('',*,*,#309,.T.);
#309 = EDGE_CURVE('',#22,#310,#312,.T.);
#310 = VERTEX_POINT('',#311);
#311 = CARTESIAN_POINT('',(16.743337582186,5.,29.000311380624));
#312 = SEAM_CURVE('',#313,(#316,#322),.PCURVE_S1.);
#313 = B_SPLINE_CURVE_WITH_KNOTS('',1,(#314,#315),.UNSPECIFIED.,.F.,.F.,
  (2,2),(0.,33.889320013559),.PIECEWISE_BEZIER_KNOTS.);
#314 = CARTESIAN_POINT('',(16.659133054899,5.971404023956,30.));
#315 = CARTESIAN_POINT('',(16.743337582186,5.,29.000311380624));
#316 = PCURVE('',#110,#317);
#317 = DEFINITIONAL_REPRESENTATION('',(#318),#321);
#318 = B_SPLINE_CURVE_WITH_KNOTS('',1,(#319,#320),.UNSPECIFIED.,.F.,.F.,
  (2,2),(0.,33.889320013559),.PIECEWISE_BEZIER_KNOTS.);
#319 = CARTESIAN_POINT('',(0.,0.544840077812));
#320 = CARTESIAN_POINT('',(33.889320013559,0.544840077812));
#321 = ( GEOMETRIC_REPRESENTATION_CONTEXT(2) 
PARAMETRIC_REPRESENTATION_CONTEXT() REPRESENTATION_CONTEXT('2D SPACE',''
  ) );
#322 = PCURVE('',#110,#323);
#323 = DEFINITIONAL_REPRESENTATION('',(#324),#327);
#324 = B_SPLINE_CURVE_WITH_KNOTS('',1,(#325,#326),.UNSPECIFIED.,.F.,.F.,
  (2,2),(0.,33.889320013559),.PIECEWISE_BEZIER_KNOTS.);
#325 = CARTESIAN_POINT('',(0.,34.434160091372));
#326 = CARTESIAN_POINT('',(33.889320013559,34.434160091372));
#327 = ( GEOMETRIC_REPRESENTATION_CONTEXT(2) 
PARAMETRIC_REPRESENTATION_CONTEXT() REPRESENTATION_CONTEXT('2D SPACE',''
  ) );
#328 = ORIENTED_EDGE('',*,*,#329,.T.);
#329 = EDGE_CURVE('',#310,#310,#330,.T.);
#330 = SURFACE_CURVE('',#331,(#369,#376),.PCURVE_S1.);
#331 = B_SPLINE_CURVE_WITH_KNOTS('',8,(#332,#333,#334,#335,#336,#337,
    #338,#339,#340,#341,#342,#343,#344,#345,#346,#347,#348,#349,#350,
    #351,#352,#353,#354,#355,#356,#357,#358,#359,#360,#361,#362,#363,
    #364,#365,#366,#367,#368),.UNSPECIFIED.,.T.,.F.,(9,7,7,7,7,9),(
    0.544840077812,8.880960061749,17.217080045686,25.553200029623,
    33.889320013559,34.434160091372),.UNSPECIFIED.);
#332 = CARTESIAN_POINT('',(16.743337582186,5.,29.000311380624));
#333 = CARTESIAN_POINT('',(15.632699505674,5.,29.002705494421));
#334 = CARTESIAN_POINT('',(14.501096004607,4.788100874031,
    29.015601140798));
#335 = CARTESIAN_POINT('',(13.412788156874,4.34554123955,29.039423790924
    ));
#336 = CARTESIAN_POINT('',(12.448703836457,3.674957775364,
    29.070383073207));
#337 = CARTESIAN_POINT('',(11.66783823737,2.799135638276,29.104700813115
    ));
#338 = CARTESIAN_POINT('',(11.161138150786,1.757445062248,
    29.128861783262));
#339 = CARTESIAN_POINT('',(10.965146022477,0.656163117326,
    29.137725476415));
#340 = CARTESIAN_POINT('',(11.168377162594,-1.493592954543,
    29.128408972913));
#341 = CARTESIAN_POINT('',(11.567553278444,-2.541772747613,
    29.110239577687));
#342 = CARTESIAN_POINT('',(12.253894610024,-3.475563513267,
    29.07988445249));
#343 = CARTESIAN_POINT('',(13.163361502035,-4.212637339357,
    29.046386683097));
#344 = CARTESIAN_POINT('',(14.218932167353,-4.735757470836,
    29.019374427569));
#345 = CARTESIAN_POINT('',(15.358189848134,-5.025182880562,
    29.002007964813));
#346 = CARTESIAN_POINT('',(16.508415857445,-5.087769335545,
    28.996433535629));
#347 = CARTESIAN_POINT('',(18.711169590482,-4.79912194712,
    29.006090733586));
#348 = CARTESIAN_POINT('',(19.763682060329,-4.447911014394,
    29.021352373461));
#349 = CARTESIAN_POINT('',(20.705526176474,-3.910446694895,
    29.045815159836));
#350 = CARTESIAN_POINT('',(21.487641833971,-3.222328143969,
    29.075678981214));
#351 = CARTESIAN_POINT('',(22.064717890605,-2.432348859658,
    29.104787916848));
#352 = CARTESIAN_POINT('',(22.439528963302,-1.598960394633,
    29.125525745244));
#353 = CARTESIAN_POINT('',(22.615928163261,-0.740882941471,
    29.135173808418));
#354 = CARTESIAN_POINT('',(22.568934770331,0.971041402354,
    29.132602519028));
#355 = CARTESIAN_POINT('',(22.34553259611,1.825114044995,29.120385086073
    ));
#356 = CARTESIAN_POINT('',(21.922514577814,2.650797307706,
    29.097583039553));
#357 = CARTESIAN_POINT('',(21.294078753387,3.424709753593,
    29.067459747385));
#358 = CARTESIAN_POINT('',(20.464397652373,4.083596846311,
    29.038088474858));
#359 = CARTESIAN_POINT('',(19.485531552998,4.579138998112,29.01542306443
    ));
#360 = CARTESIAN_POINT('',(18.415642311702,4.879783739556,
    29.002698182762));
#361 = CARTESIAN_POINT('',(17.248931248158,4.981173108279,
    29.000157881051));
#362 = CARTESIAN_POINT('',(17.177155809861,4.98652250376,29.000046131092
    ));
#363 = CARTESIAN_POINT('',(17.105199711302,4.990995191547,
    28.999978650693));
#364 = CARTESIAN_POINT('',(17.033080902981,4.994585228353,
    28.999955613809));
#365 = CARTESIAN_POINT('',(16.960817335408,4.997286670889,
    28.999977194403));
#366 = CARTESIAN_POINT('',(16.88842695908,4.999093575867,29.000043566431
    ));
#367 = CARTESIAN_POINT('',(16.815927724506,5.,29.000154903851));
#368 = CARTESIAN_POINT('',(16.743337582186,5.,29.000311380624));
#369 = PCURVE('',#110,#370);
#370 = DEFINITIONAL_REPRESENTATION('',(#371),#375);
#371 = LINE('',#372,#373);
#372 = CARTESIAN_POINT('',(33.889320013559,0.));
#373 = VECTOR('',#374,1.);
#374 = DIRECTION('',(0.,1.));
#375 = ( GEOMETRIC_REPRESENTATION_CONTEXT(2) 
PARAMETRIC_REPRESENTATION_CONTEXT() REPRESENTATION_CONTEXT('2D SPACE',''
  ) );
#376 = PCURVE('',#377,#382);
#377 = CYLINDRICAL_SURFACE('',#378,5.);
#378 = AXIS2_PLACEMENT_3D('',#379,#380,#381);
#379 = CARTESIAN_POINT('',(0.,0.,0.));
#380 = DIRECTION('',(-0.5,0.,-0.866025403784));
#381 = DIRECTION('',(0.,1.,0.));
#382 = DEFINITIONAL_REPRESENTATION('',(#383),#450);
#383 = B_SPLINE_CURVE_WITH_KNOTS('',9,(#384,#385,#386,#387,#388,#389,
    #390,#391,#392,#393,#394,#395,#396,#397,#398,#399,#400,#401,#402,
    #403,#404,#405,#406,#407,#408,#409,#410,#411,#412,#413,#414,#415,
    #416,#417,#418,#419,#420,#421,#422,#423,#424,#425,#426,#427,#428,
    #429,#430,#431,#432,#433,#434,#435,#436,#437,#438,#439,#440,#441,
    #442,#443,#444,#445,#446,#447,#448,#449),.UNSPECIFIED.,.F.,.F.,(10,8
    ,8,8,8,8,8,8,10),(0.544840077812,9.017170081202,17.489500084592,
    25.961830087982,30.197995089677,32.316077590524,33.375118840948,
    33.90463946616,34.434160091372),.UNSPECIFIED.);
#384 = CARTESIAN_POINT('',(8.881784197001E-16,-33.48667516437));
#385 = CARTESIAN_POINT('',(-0.174004201243,-32.98686577373));
#386 = CARTESIAN_POINT('',(-0.351776195315,-32.48598213114));
#387 = CARTESIAN_POINT('',(-0.533127688114,-32.00649591545));
#388 = CARTESIAN_POINT('',(-0.717443856794,-31.57475305283));
#389 = CARTESIAN_POINT('',(-0.90568687269,-31.21004929736));
#390 = CARTESIAN_POINT('',(-1.097291320809,-30.93505763226));
#391 = CARTESIAN_POINT('',(-1.292380262193,-30.76737512791));
#392 = CARTESIAN_POINT('',(-1.48803913175,-30.71409821781));
#393 = CARTESIAN_POINT('',(-1.877621816328,-30.82689159167));
#394 = CARTESIAN_POINT('',(-2.071525733543,-30.99304339632));
#395 = CARTESIAN_POINT('',(-2.262818296843,-31.26495628737));
#396 = CARTESIAN_POINT('',(-2.450200197845,-31.62733117518));
#397 = CARTESIAN_POINT('',(-2.634051412024,-32.06005795036));
#398 = CARTESIAN_POINT('',(-2.815043161658,-32.54247406335));
#399 = CARTESIAN_POINT('',(-2.993356749085,-33.05308420092));
#400 = CARTESIAN_POINT('',(-3.169156253721,-33.56781623234));
#401 = CARTESIAN_POINT('',(-3.515562764126,-34.5627181997));
#402 = CARTESIAN_POINT('',(-3.686171529471,-35.0428271791));
#403 = CARTESIAN_POINT('',(-3.854104753508,-35.48358689954));
#404 = CARTESIAN_POINT('',(-4.01913842001,-35.8655183212));
#405 = CARTESIAN_POINT('',(-4.18089298651,-36.16994301183));
#406 = CARTESIAN_POINT('',(-4.3388675375,-36.38745261785));
#407 = CARTESIAN_POINT('',(-4.493608565159,-36.51765174628));
#408 = CARTESIAN_POINT('',(-4.647671205616,-36.56001909222));
#409 = CARTESIAN_POINT('',(-4.88006540749,-36.49174067356));
#410 = CARTESIAN_POINT('',(-4.957748807916,-36.44702927621));
#411 = CARTESIAN_POINT('',(-5.035870411465,-36.38042431726));
#412 = CARTESIAN_POINT('',(-5.114613205484,-36.29201136036));
#413 = CARTESIAN_POINT('',(-5.194101763089,-36.18209617375));
#414 = CARTESIAN_POINT('',(-5.274394421204,-36.05133646977));
#415 = CARTESIAN_POINT('',(-5.355489501569,-35.90081237989));
#416 = CARTESIAN_POINT('',(-5.437345574711,-35.73203566542));
#417 = CARTESIAN_POINT('',(-5.561200862982,-35.45432866305));
#418 = CARTESIAN_POINT('',(-5.602664518129,-35.35766423553));
#419 = CARTESIAN_POINT('',(-5.644298955386,-35.25714884058));
#420 = CARTESIAN_POINT('',(-5.686095929827,-35.15304433573));
#421 = CARTESIAN_POINT('',(-5.728046728542,-35.04562997666));
#422 = CARTESIAN_POINT('',(-5.770142170642,-34.93520241733));
#423 = CARTESIAN_POINT('',(-5.812372607257,-34.8220757098));
#424 = CARTESIAN_POINT('',(-5.854727921533,-34.70658130441));
#425 = CARTESIAN_POINT('',(-5.918432332191,-34.53031142227));
#426 = CARTESIAN_POINT('',(-5.939695849765,-34.47104709075));
#427 = CARTESIAN_POINT('',(-5.960986865314,-34.41131889122));
#428 = CARTESIAN_POINT('',(-5.982304162794,-34.35117065983));
#429 = CARTESIAN_POINT('',(-6.003646526153,-34.2906462327));
#430 = CARTESIAN_POINT('',(-6.025012739349,-34.22978944599));
#431 = CARTESIAN_POINT('',(-6.046401586332,-34.16864413582));
#432 = CARTESIAN_POINT('',(-6.067811851057,-34.10725413834));
#433 = CARTESIAN_POINT('',(-6.099957550686,-34.01486786535));
#434 = CARTESIAN_POINT('',(-6.110678757839,-33.98401986904));
#435 = CARTESIAN_POINT('',(-6.121402751815,-33.95313375963));
#436 = CARTESIAN_POINT('',(-6.13213166377,-33.92220851127));
#437 = CARTESIAN_POINT('',(-6.142867150377,-33.89124449772));
#438 = CARTESIAN_POINT('',(-6.153607958281,-33.86025059146));
#439 = CARTESIAN_POINT('',(-6.16435084576,-33.82924147696));
#440 = CARTESIAN_POINT('',(-6.175094861594,-33.79822517863));
#441 = CARTESIAN_POINT('',(-6.196603100698,-33.73613642756));
#442 = CARTESIAN_POINT('',(-6.207372705333,-33.70504829163));
#443 = CARTESIAN_POINT('',(-6.218157697276,-33.67392198001));
#444 = CARTESIAN_POINT('',(-6.228957978758,-33.6427630774));
#445 = CARTESIAN_POINT('',(-6.239773452003,-33.61157716852));
#446 = CARTESIAN_POINT('',(-6.250604019242,-33.58036983806));
#447 = CARTESIAN_POINT('',(-6.261449582698,-33.54914667075));
#448 = CARTESIAN_POINT('',(-6.272310044602,-33.51791325128));
#449 = CARTESIAN_POINT('',(-6.28318530718,-33.48667516437));
#450 = ( GEOMETRIC_REPRESENTATION_CONTEXT(2) 
PARAMETRIC_REPRESENTATION_CONTEXT() REPRESENTATION_CONTEXT('2D SPACE',''
  ) );
#451 = ORIENTED_EDGE('',*,*,#309,.F.);
#452 = ORIENTED_EDGE('',*,*,#21,.F.);
#453 = ADVANCED_FACE('',(#454),#212,.F.);
#454 = FACE_BOUND('',#455,.F.);
#455 = EDGE_LOOP('',(#456,#479,#507,#528));
#456 = ORIENTED_EDGE('',*,*,#457,.F.);
#457 = EDGE_CURVE('',#458,#195,#460,.T.);
#458 = VERTEX_POINT('',#459);
#459 = CARTESIAN_POINT('',(-40.,-20.,0.));
#460 = SURFACE_CURVE('',#461,(#465,#472),.PCURVE_S1.);
#461 = LINE('',#462,#463);
#462 = CARTESIAN_POINT('',(-40.,-20.,0.));
#463 = VECTOR('',#464,1.);
#464 = DIRECTION('',(0.,0.,1.));
#465 = PCURVE('',#212,#466);
#466 = DEFINITIONAL_REPRESENTATION('',(#467),#471);
#467 = LINE('',#468,#469);
#468 = CARTESIAN_POINT('',(0.,0.));
#469 = VECTOR('',#470,1.);
#470 = DIRECTION('',(1.,0.));
#471 = ( GEOMETRIC_REPRESENTATION_CONTEXT(2) 
PARAMETRIC_REPRESENTATION_CONTEXT() REPRESENTATION_CONTEXT('2D SPACE',''
  ) );
#472 = PCURVE('',#240,#473);
#473 = DEFINITIONAL_REPRESENTATION('',(#474),#478);
#474 = LINE('',#475,#476);
#475 = CARTESIAN_POINT('',(0.,0.));
#476 = VECTOR('',#477,1.);
#477 = DIRECTION('',(1.,0.));
#478 = ( GEOMETRIC_REPRESENTATION_CONTEXT(2) 
PARAMETRIC_REPRESENTATION_CONTEXT() REPRESENTATION_CONTEXT('2D SPACE',''
  ) );
#479 = ORIENTED_EDGE('',*,*,#480,.T.);
#480 = EDGE_CURVE('',#458,#481,#483,.T.);
#481 = VERTEX_POINT('',#482);
#482 = CARTESIAN_POINT('',(-40.,20.,0.));
#483 = SURFACE_CURVE('',#484,(#488,#495),.PCURVE_S1.);
#484 = LINE('',#485,#486);
#485 = CARTESIAN_POINT('',(-40.,-20.,0.));
#486 = VECTOR('',#487,1.);
#487 = DIRECTION('',(0.,1.,0.));
#488 = PCURVE('',#212,#489);
#489 = DEFINITIONAL_REPRESENTATION('',(#490),#494);
#490 = LINE('',#491,#492);
#491 = CARTESIAN_POINT('',(0.,0.));
#492 = VECTOR('',#493,1.);
#493 = DIRECTION('',(0.,-1.));
#494 = ( GEOMETRIC_REPRESENTATION_CONTEXT(2) 
PARAMETRIC_REPRESENTATION_CONTEXT() REPRESENTATION_CONTEXT('2D SPACE',''
  ) );
#495 = PCURVE('',#496,#501);
#496 = PLANE('',#497);
#497 = AXIS2_PLACEMENT_3D('',#498,#499,#500);
#498 = CARTESIAN_POINT('',(-40.,-20.,0.));
#499 = DIRECTION('',(0.,0.,1.));
#500 = DIRECTION('',(1.,0.,0.));
#501 = DEFINITIONAL_REPRESENTATION('',(#502),#506);
#502 = LINE('',#503,#504);
#503 = CARTESIAN_POINT('',(0.,0.));
#504 = VECTOR('',#505,1.);
#505 = DIRECTION('',(0.,1.));
#506 = ( GEOMETRIC_REPRESENTATION_CONTEXT(2) 
PARAMETRIC_REPRESENTATION_CONTEXT() REPRESENTATION_CONTEXT('2D SPACE',''
  ) );
#507 = ORIENTED_EDGE('',*,*,#508,.T.);
#508 = EDGE_CURVE('',#481,#197,#509,.T.);
#509 = SURFACE_CURVE('',#510,(#514,#521),.PCURVE_S1.);
#510 = LINE('',#511,#512);
#511 = CARTESIAN_POINT('',(-40.,20.,0.));
#512 = VECTOR('',#513,1.);
#513 = DIRECTION('',(0.,0.,1.));
#514 = PCURVE('',#212,#515);
#515 = DEFINITIONAL_REPRESENTATION('',(#516),#520);
#516 = LINE('',#517,#518);
#517 = CARTESIAN_POINT('',(0.,-40.));
#518 = VECTOR('',#519,1.);
#519 = DIRECTION('',(1.,0.));
#520 = ( GEOMETRIC_REPRESENTATION_CONTEXT(2) 
PARAMETRIC_REPRESENTATION_CONTEXT() REPRESENTATION_CONTEXT('2D SPACE',''
  ) );
#521 = PCURVE('',#294,#522);
#522 = DEFINITIONAL_REPRESENTATION('',(#523),#527);
#523 = LINE('',#524,#525);
#524 = CARTESIAN_POINT('',(0.,0.));
#525 = VECTOR('',#526,1.);
#526 = DIRECTION('',(1.,0.));
#527 = ( GEOMETRIC_REPRESENTATION_CONTEXT(2) 
PARAMETRIC_REPRESENTATION_CONTEXT() REPRESENTATION_CONTEXT('2D SPACE',''
  ) );
#528 = ORIENTED_EDGE('',*,*,#194,.F.);
#529 = ADVANCED_FACE('',(#530),#294,.T.);
#530 = FACE_BOUND('',#531,.T.);
#531 = EDGE_LOOP('',(#532,#555,#556,#557));
#532 = ORIENTED_EDGE('',*,*,#533,.F.);
#533 = EDGE_CURVE('',#481,#534,#536,.T.);
#534 = VERTEX_POINT('',#535);
#535 = CARTESIAN_POINT('',(40.,20.,0.));
#536 = SURFACE_CURVE('',#537,(#541,#548),.PCURVE_S1.);
#537 = LINE('',#538,#539);
#538 = CARTESIAN_POINT('',(-40.,20.,0.));
#539 = VECTOR('',#540,1.);
#540 = DIRECTION('',(1.,0.,0.));
#541 = PCURVE('',#294,#542);
#542 = DEFINITIONAL_REPRESENTATION('',(#543),#547);
#543 = LINE('',#544,#545);
#544 = CARTESIAN_POINT('',(0.,0.));
#545 = VECTOR('',#546,1.);
#546 = DIRECTION('',(0.,1.));
#547 = ( GEOMETRIC_REPRESENTATION_CONTEXT(2) 
PARAMETRIC_REPRESENTATION_CONTEXT() REPRESENTATION_CONTEXT('2D SPACE',''
  ) );
#548 = PCURVE('',#496,#549);
#549 = DEFINITIONAL_REPRESENTATION('',(#550),#554);
#550 = LINE('',#551,#552);
#551 = CARTESIAN_POINT('',(0.,40.));
#552 = VECTOR('',#553,1.);
#553 = DIRECTION('',(1.,0.));
#554 = ( GEOMETRIC_REPRESENTATION_CONTEXT(2) 
PARAMETRIC_REPRESENTATION_CONTEXT() REPRESENTATION_CONTEXT('2D SPACE',''
  ) );
#555 = ORIENTED_EDGE('',*,*,#508,.T.);
#556 = ORIENTED_EDGE('',*,*,#280,.T.);
#557 = ORIENTED_EDGE('',*,*,#558,.F.);
#558 = EDGE_CURVE('',#534,#253,#559,.T.);
#559 = SURFACE_CURVE('',#560,(#564,#571),.PCURVE_S1.);
#560 = LINE('',#561,#562);
#561 = CARTESIAN_POINT('',(40.,20.,0.));
#562 = VECTOR('',#563,1.);
#563 = DIRECTION('',(0.,0.,1.));
#564 = PCURVE('',#294,#565);
#565 = DEFINITIONAL_REPRESENTATION('',(#566),#570);
#566 = LINE('',#567,#568);
#567 = CARTESIAN_POINT('',(0.,80.));
#568 = VECTOR('',#569,1.);
#569 = DIRECTION('',(1.,0.));
#570 = ( GEOMETRIC_REPRESENTATION_CONTEXT(2) 
PARAMETRIC_REPRESENTATION_CONTEXT() REPRESENTATION_CONTEXT('2D SPACE',''
  ) );
#571 = PCURVE('',#268,#572);
#572 = DEFINITIONAL_REPRESENTATION('',(#573),#577);
#573 = LINE('',#574,#575);
#574 = CARTESIAN_POINT('',(0.,-40.));
#575 = VECTOR('',#576,1.);
#576 = DIRECTION('',(1.,0.));
#577 = ( GEOMETRIC_REPRESENTATION_CONTEXT(2) 
PARAMETRIC_REPRESENTATION_CONTEXT() REPRESENTATION_CONTEXT('2D SPACE',''
  ) );
#578 = ADVANCED_FACE('',(#579),#240,.F.);
#579 = FACE_BOUND('',#580,.F.);
#580 = EDGE_LOOP('',(#581,#604,#605,#606));
#581 = ORIENTED_EDGE('',*,*,#582,.F.);
#582 = EDGE_CURVE('',#458,#583,#585,.T.);
#583 = VERTEX_POINT('',#584);
#584 = CARTESIAN_POINT('',(40.,-20.,0.));
#585 = SURFACE_CURVE('',#586,(#590,#597),.PCURVE_S1.);
#586 = LINE('',#587,#588);
#587 = CARTESIAN_POINT('',(-40.,-20.,0.));
#588 = VECTOR('',#589,1.);
#589 = DIRECTION('',(1.,0.,0.));
#590 = PCURVE('',#240,#591);
#591 = DEFINITIONAL_REPRESENTATION('',(#592),#596);
#592 = LINE('',#593,#594);
#593 = CARTESIAN_POINT('',(0.,0.));
#594 = VECTOR('',#595,1.);
#595 = DIRECTION('',(0.,1.));
#596 = ( GEOMETRIC_REPRESENTATION_CONTEXT(2) 
PARAMETRIC_REPRESENTATION_CONTEXT() REPRESENTATION_CONTEXT('2D SPACE',''
  ) );
#597 = PCURVE('',#496,#598);
#598 = DEFINITIONAL_REPRESENTATION('',(#599),#603);
#599 = LINE('',#600,#601);
#600 = CARTESIAN_POINT('',(0.,0.));
#601 = VECTOR('',#602,1.);
#602 = DIRECTION('',(1.,0.));
#603 = ( GEOMETRIC_REPRESENTATION_CONTEXT(2) 
PARAMETRIC_REPRESENTATION_CONTEXT() REPRESENTATION_CONTEXT('2D SPACE',''
  ) );
#604 = ORIENTED_EDGE('',*,*,#457,.T.);
#605 = ORIENTED_EDGE('',*,*,#224,.T.);
#606 = ORIENTED_EDGE('',*,*,#607,.F.);
#607 = EDGE_CURVE('',#583,#225,#608,.T.);
#608 = SURFACE_CURVE('',#609,(#613,#620),.PCURVE_S1.);
#609 = LINE('',#610,#611);
#610 = CARTESIAN_POINT('',(40.,-20.,0.));
#611 = VECTOR('',#612,1.);
#612 = DIRECTION('',(0.,0.,1.));
#613 = PCURVE('',#240,#614);
#614 = DEFINITIONAL_REPRESENTATION('',(#615),#619);
#615 = LINE('',#616,#617);
#616 = CARTESIAN_POINT('',(0.,80.));
#617 = VECTOR('',#618,1.);
#618 = DIRECTION('',(1.,0.));
#619 = ( GEOMETRIC_REPRESENTATION_CONTEXT(2) 
PARAMETRIC_REPRESENTATION_CONTEXT() REPRESENTATION_CONTEXT('2D SPACE',''
  ) );
#620 = PCURVE('',#268,#621);
#621 = DEFINITIONAL_REPRESENTATION('',(#622),#626);
#622 = LINE('',#623,#624);
#623 = CARTESIAN_POINT('',(0.,0.));
#624 = VECTOR('',#625,1.);
#625 = DIRECTION('',(1.,0.));
#626 = ( GEOMETRIC_REPRESENTATION_CONTEXT(2) 
PARAMETRIC_REPRESENTATION_CONTEXT() REPRESENTATION_CONTEXT('2D SPACE',''
  ) );
#627 = ADVANCED_FACE('',(#628),#268,.T.);
#628 = FACE_BOUND('',#629,.T.);
#629 = EDGE_LOOP('',(#630,#631,#652,#653));
#630 = ORIENTED_EDGE('',*,*,#607,.F.);
#631 = ORIENTED_EDGE('',*,*,#632,.T.);
#632 = EDGE_CURVE('',#583,#534,#633,.T.);
#633 = SURFACE_CURVE('',#634,(#638,#645),.PCURVE_S1.);
#634 = LINE('',#635,#636);
#635 = CARTESIAN_POINT('',(40.,-20.,0.));
#636 = VECTOR('',#637,1.);
#637 = DIRECTION('',(0.,1.,0.));
#638 = PCURVE('',#268,#639);
#639 = DEFINITIONAL_REPRESENTATION('',(#640),#644);
#640 = LINE('',#641,#642);
#641 = CARTESIAN_POINT('',(0.,0.));
#642 = VECTOR('',#643,1.);
#643 = DIRECTION('',(0.,-1.));
#644 = ( GEOMETRIC_REPRESENTATION_CONTEXT(2) 
PARAMETRIC_REPRESENTATION_CONTEXT() REPRESENTATION_CONTEXT('2D SPACE',''
  ) );
#645 = PCURVE('',#496,#646);
#646 = DEFINITIONAL_REPRESENTATION('',(#647),#651);
#647 = LINE('',#648,#649);
#648 = CARTESIAN_POINT('',(80.,0.));
#649 = VECTOR('',#650,1.);
#650 = DIRECTION('',(0.,1.));
#651 = ( GEOMETRIC_REPRESENTATION_CONTEXT(2) 
PARAMETRIC_REPRESENTATION_CONTEXT() REPRESENTATION_CONTEXT('2D SPACE',''
  ) );
#652 = ORIENTED_EDGE('',*,*,#558,.T.);
#653 = ORIENTED_EDGE('',*,*,#252,.F.);
#654 = ADVANCED_FACE('',(#655),#377,.F.);
#655 = FACE_BOUND('',#656,.T.);
#656 = EDGE_LOOP('',(#657,#680,#681,#682,#719));
#657 = ORIENTED_EDGE('',*,*,#658,.T.);
#658 = EDGE_CURVE('',#659,#310,#661,.T.);
#659 = VERTEX_POINT('',#660);
#660 = CARTESIAN_POINT('',(0.,5.,0.));
#661 = SEAM_CURVE('',#662,(#666,#673),.PCURVE_S1.);
#662 = LINE('',#663,#664);
#663 = CARTESIAN_POINT('',(0.,5.,0.));
#664 = VECTOR('',#665,1.);
#665 = DIRECTION('',(0.5,0.,0.866025403784));
#666 = PCURVE('',#377,#667);
#667 = DEFINITIONAL_REPRESENTATION('',(#668),#672);
#668 = LINE('',#669,#670);
#669 = CARTESIAN_POINT('',(-0.,0.));
#670 = VECTOR('',#671,1.);
#671 = DIRECTION('',(-0.,-1.));
#672 = ( GEOMETRIC_REPRESENTATION_CONTEXT(2) 
PARAMETRIC_REPRESENTATION_CONTEXT() REPRESENTATION_CONTEXT('2D SPACE',''
  ) );
#673 = PCURVE('',#377,#674);
#674 = DEFINITIONAL_REPRESENTATION('',(#675),#679);
#675 = LINE('',#676,#677);
#676 = CARTESIAN_POINT('',(-6.28318530718,0.));
#677 = VECTOR('',#678,1.);
#678 = DIRECTION('',(-0.,-1.));
#679 = ( GEOMETRIC_REPRESENTATION_CONTEXT(2) 
PARAMETRIC_REPRESENTATION_CONTEXT() REPRESENTATION_CONTEXT('2D SPACE',''
  ) );
#680 = ORIENTED_EDGE('',*,*,#329,.T.);
#681 = ORIENTED_EDGE('',*,*,#658,.F.);
#682 = ORIENTED_EDGE('',*,*,#683,.F.);
#683 = EDGE_CURVE('',#684,#659,#686,.T.);
#684 = VERTEX_POINT('',#685);
#685 = CARTESIAN_POINT('',(1.392675067021E-15,-5.,-8.040613248383E-16));
#686 = SURFACE_CURVE('',#687,(#692,#712),.PCURVE_S1.);
#687 = ELLIPSE('',#688,5.773502691896,5.);
#688 = AXIS2_PLACEMENT_3D('',#689,#690,#691);
#689 = CARTESIAN_POINT('',(0.,0.,0.));
#690 = DIRECTION('',(0.,0.,1.));
#691 = DIRECTION('',(-1.,0.,0.));
#692 = PCURVE('',#377,#693);
#693 = DEFINITIONAL_REPRESENTATION('',(#694),#711);
#694 = B_SPLINE_CURVE_WITH_KNOTS('',8,(#695,#696,#697,#698,#699,#700,
    #701,#702,#703,#704,#705,#706,#707,#708,#709,#710),.UNSPECIFIED.,.F.
  ,.F.,(9,7,9),(1.570796118949,3.141592549667,4.712388980385),
  .UNSPECIFIED.);
#695 = CARTESIAN_POINT('',(-3.141592445744,5.999999998008E-07));
#696 = CARTESIAN_POINT('',(-3.337941999583,-0.566811738823));
#697 = CARTESIAN_POINT('',(-3.534291553423,-1.133624238661));
#698 = CARTESIAN_POINT('',(-3.730641107251,-1.667136769305));
#699 = CARTESIAN_POINT('',(-3.926990661115,-2.134055873235));
#700 = CARTESIAN_POINT('',(-4.123340214926,-2.505174689567));
#701 = CARTESIAN_POINT('',(-4.319689768782,-2.759558706924));
#702 = CARTESIAN_POINT('',(-4.516039322622,-2.886751287043));
#703 = CARTESIAN_POINT('',(-4.908738430301,-2.886751404853));
#704 = CARTESIAN_POINT('',(-5.10508798413,-2.759558942544));
#705 = CARTESIAN_POINT('',(-5.301437537997,-2.505175036077));
#706 = CARTESIAN_POINT('',(-5.497787091786,-2.134056316785));
#707 = CARTESIAN_POINT('',(-5.694136645689,-1.667137289995));
#708 = CARTESIAN_POINT('',(-5.890486199491,-1.133624812223));
#709 = CARTESIAN_POINT('',(-6.08683575334,-0.566812338823));
#710 = CARTESIAN_POINT('',(-6.28318530718,-5.302876193625E-16));
#711 = ( GEOMETRIC_REPRESENTATION_CONTEXT(2) 
PARAMETRIC_REPRESENTATION_CONTEXT() REPRESENTATION_CONTEXT('2D SPACE',''
  ) );
#712 = PCURVE('',#496,#713);
#713 = DEFINITIONAL_REPRESENTATION('',(#714),#718);
#714 = ELLIPSE('',#715,5.773502691896,5.);
#715 = AXIS2_PLACEMENT_2D('',#716,#717);
#716 = CARTESIAN_POINT('',(40.,20.));
#717 = DIRECTION('',(-1.,0.));
#718 = ( GEOMETRIC_REPRESENTATION_CONTEXT(2) 
PARAMETRIC_REPRESENTATION_CONTEXT() REPRESENTATION_CONTEXT('2D SPACE',''
  ) );
#719 = ORIENTED_EDGE('',*,*,#720,.F.);
#720 = EDGE_CURVE('',#659,#684,#721,.T.);
#721 = SURFACE_CURVE('',#722,(#727,#747),.PCURVE_S1.);
#722 = ELLIPSE('',#723,5.773502691896,5.);
#723 = AXIS2_PLACEMENT_3D('',#724,#725,#726);
#724 = CARTESIAN_POINT('',(0.,0.,0.));
#725 = DIRECTION('',(0.,0.,1.));
#726 = DIRECTION('',(1.,-0.,0.));
#727 = PCURVE('',#377,#728);
#728 = DEFINITIONAL_REPRESENTATION('',(#729),#746);
#729 = B_SPLINE_CURVE_WITH_KNOTS('',8,(#730,#731,#732,#733,#734,#735,
    #736,#737,#738,#739,#740,#741,#742,#743,#744,#745),.UNSPECIFIED.,.F.
  ,.F.,(9,7,9),(1.570796118949,3.14159265359,4.712389188231),
  .UNSPECIFIED.);
#730 = CARTESIAN_POINT('',(2.078460976662E-07,-6.000000023648E-07));
#731 = CARTESIAN_POINT('',(-0.196349358984,0.566811776323));
#732 = CARTESIAN_POINT('',(-0.392698925814,1.133624313662));
#733 = CARTESIAN_POINT('',(-0.589048492646,1.667136875192));
#734 = CARTESIAN_POINT('',(-0.785398059469,2.134055996801));
#735 = CARTESIAN_POINT('',(-0.981747626305,2.505174812328));
#736 = CARTESIAN_POINT('',(-1.178097193134,2.759558807906));
#737 = CARTESIAN_POINT('',(-1.374446759965,2.886751345948));
#738 = CARTESIAN_POINT('',(-1.767145893625,2.886751345948));
#739 = CARTESIAN_POINT('',(-1.963495460453,2.759558807901));
#740 = CARTESIAN_POINT('',(-2.159845027282,2.505174812347));
#741 = CARTESIAN_POINT('',(-2.356194594115,2.134055996783));
#742 = CARTESIAN_POINT('',(-2.552544160944,1.66713687521));
#743 = CARTESIAN_POINT('',(-2.748893727775,1.133624313656));
#744 = CARTESIAN_POINT('',(-2.945243294606,0.566811776323));
#745 = CARTESIAN_POINT('',(-3.141592861436,-6.000000016577E-07));
#746 = ( GEOMETRIC_REPRESENTATION_CONTEXT(2) 
PARAMETRIC_REPRESENTATION_CONTEXT() REPRESENTATION_CONTEXT('2D SPACE',''
  ) );
#747 = PCURVE('',#496,#748);
#748 = DEFINITIONAL_REPRESENTATION('',(#749),#753);
#749 = ELLIPSE('',#750,5.773502691896,5.);
#750 = AXIS2_PLACEMENT_2D('',#751,#752);
#751 = CARTESIAN_POINT('',(40.,20.));
#752 = DIRECTION('',(1.,0.));
#753 = ( GEOMETRIC_REPRESENTATION_CONTEXT(2) 
PARAMETRIC_REPRESENTATION_CONTEXT() REPRESENTATION_CONTEXT('2D SPACE',''
  ) );
#754 = ADVANCED_FACE('',(#755,#761),#496,.F.);
#755 = FACE_BOUND('',#756,.F.);
#756 = EDGE_LOOP('',(#757,#758,#759,#760));
#757 = ORIENTED_EDGE('',*,*,#480,.F.);
#758 = ORIENTED_EDGE('',*,*,#582,.T.);
#759 = ORIENTED_EDGE('',*,*,#632,.T.);
#760 = ORIENTED_EDGE('',*,*,#533,.F.);
#761 = FACE_BOUND('',#762,.F.);
#762 = EDGE_LOOP('',(#763,#764));
#763 = ORIENTED_EDGE('',*,*,#683,.F.);
#764 = ORIENTED_EDGE('',*,*,#720,.F.);
#765 = ( GEOMETRIC_REPRESENTATION_CONTEXT(3) 
GLOBAL_UNCERTAINTY_ASSIGNED_CONTEXT((#769)) GLOBAL_UNIT_ASSIGNED_CONTEXT
((#766,#767,#768)) REPRESENTATION_CONTEXT('Context #1',
  '3D Context with UNIT and UNCERTAINTY') );
#766 = ( LENGTH_UNIT() NAMED_UNIT(*) SI_UNIT(.MILLI.,.METRE.) );
#767 = ( NAMED_UNIT(*) PLANE_ANGLE_UNIT() SI_UNIT($,.RADIAN.) );
#768 = ( NAMED_UNIT(*) SI_UNIT($,.STERADIAN.) SOLID_ANGLE_UNIT() );
#769 = UNCERTAINTY_MEASURE_WITH_UNIT(LENGTH_MEASURE(1.E-05),#766,
  'distance_accuracy_value','confusion accuracy');
#770 = PRODUCT_RELATED_PRODUCT_CATEGORY('part',$,(#7));
ENDSEC;
END-ISO-10303-21;
